<?xml version="1.0" encoding="utf-8"?>
<!-- Generator: Adobe Illustrator 24.0.1, SVG Export Plug-In . SVG Version: 6.00 Build 0)  -->
<svg version="1.1" id="レイヤー_1" xmlns="http://www.w3.org/2000/svg" xmlns:xlink="http://www.w3.org/1999/xlink" x="0px"
	 y="0px" viewBox="0 0 280 200" style="enable-background:new 0 0 280 200;" xml:space="preserve">
<style type="text/css">
	.st0{clip-path:url(#SVGID_2_);}
	.st1{fill:#A69F82;}
	.st2{fill:#717071;}
	.st3{fill:#261C19;}
	.st4{fill:#3C3736;}
	.st5{fill:#AACDE6;}
	.st6{fill:#2E2624;}
	.st7{fill:#3B3D40;}
	.st8{fill:#747375;}
	.st9{fill:#EFDFBD;}
	.st10{fill:#383231;}
	.st11{fill:#E7372F;}
	.st12{fill:#CCCCCC;}
	.st13{fill:#666666;}
	.st14{opacity:0.8;fill:#E6E6E6;enable-background:new    ;}
	.st15{fill:none;}
	.st16{fill:#999999;}
	.st17{opacity:0.7;}
	.st18{clip-path:url(#SVGID_4_);}
	.st19{fill:#FFFFFF;}
	.st20{fill:#1D1D1D;}
	.st21{fill:#888888;}
	.st22{fill:#231815;}
	.st23{clip-path:url(#SVGID_6_);}
	.st24{fill:#9E9E9F;}
	.st25{fill:#DBDCDC;}
	.st26{opacity:0.03;fill:#FFFFFF;enable-background:new    ;}
	.st27{clip-path:url(#SVGID_8_);}
	.st28{clip-path:url(#SVGID_10_);}
	.st29{opacity:0.4;}
	.st30{fill:#040000;}
	.st31{clip-path:url(#SVGID_15_);}
	.st32{clip-path:url(#SVGID_18_);}
	.st33{fill:#1B151A;}
	.st34{fill:#002230;}
	.st35{fill:none;stroke:#829996;stroke-width:7;stroke-miterlimit:10;}
	.st36{fill:#FFDAB0;}
	.st37{fill:#00395B;}
	.st38{fill:#204D7E;}
	.st39{fill:#481600;}
	.st40{fill:#FFA69D;}
	
		.st41{clip-path:url(#SVGID_20_);fill:none;stroke:#829996;stroke-width:10;stroke-linecap:round;stroke-linejoin:round;stroke-miterlimit:10;}
	.st42{clip-path:url(#SVGID_22_);fill:#FFEB6C;stroke:#FFEB6C;stroke-linecap:round;stroke-linejoin:round;stroke-miterlimit:10;}
	.st43{clip-path:url(#SVGID_24_);fill:#FFEB6C;stroke:#FFEB6C;stroke-linecap:round;stroke-linejoin:round;stroke-miterlimit:10;}
</style>
<g>
	<g>
		<defs>
			<rect id="SVGID_1_" y="0.5" width="280" height="199"/>
		</defs>
		<clipPath id="SVGID_2_">
			<use xlink:href="#SVGID_1_"  style="overflow:visible;"/>
		</clipPath>
		<g class="st0">
			<path class="st1" d="M165.16,14.46l-11.57,86.81l-98.06-0.64l5.14-59.16c0,0,41.48-21.54,49.84-21.86
				C118.86,19.29,165.16,14.46,165.16,14.46z"/>
			<path class="st2" d="M351.42,143.14h-19.13v-8.27h22.67c1.08,0,1.73,1.19,1.15,2.09l-3.54,5.55
				C352.32,142.9,351.89,143.14,351.42,143.14z"/>
			<polygon class="st3" points="-71.43,154.6 27.23,155.16 296.96,155.16 337.84,138.67 321.5,83.01 126.25,105.13 98.91,88.63 
				-79.88,93.15 			"/>
			<path class="st3" d="M180.26,159.23l-44.79-2.81v-9.92h46.23v11.37C181.69,158.65,181.04,159.27,180.26,159.23z"/>
			<path class="st3" d="M216.78,159.96h-21.7c-3.66,0-6.63-2.97-6.63-6.63v-4.09h34.95v4.09
				C223.41,156.99,220.44,159.96,216.78,159.96z"/>
			<path class="st4" d="M-92.98,125.96l3.64-13.89h-11.53c-0.14,0-0.25,0.1-0.27,0.23c-0.26,1.83-0.52,3.72-0.77,5.47
				c-0.65,4.61-0.57,9.29,0.22,13.87l0.67,3.9c0.02,0.13,0.14,0.23,0.27,0.23h10.86l-2.13-3.43
				C-93.2,130.44-93.55,128.13-92.98,125.96z"/>
			<path class="st5" d="M95.25,23.43c-1.33-0.01-3.63-0.12-6.12-0.32c-8.69,3.68-17.02,8.66-29.95,15.55
				c-16.54,8.82-31.79,19.48-35.95,22.27c0,0-0.69,1.5,1.41,3.76c4.93-3.36,11.52-7.69,17.63-11.56
				c28.03-17.7,47.35-26.28,53.11-29.18C95.63,23.82,95.54,23.43,95.25,23.43z"/>
			<path class="st6" d="M20.79,61.64c-2.06,0.21-6.33,0.64-11.78,1.21l1.11,0.93c0.49,0.41,1.11,0.63,1.75,0.63h13.82
				c-1.52-1.63-2.1-2.82-2.31-3.35c-0.06-0.16-0.25-0.22-0.4-0.13C22.31,61.32,21.57,61.56,20.79,61.64z"/>
			<path class="st5" d="M338.6,40.16c-3.8-3.63-12.23-11.17-14.23-12.96c-0.25-0.22-0.3-0.59-0.12-0.87l-3.19,5.38
				c4.48,4.77,8.61,9.54,10.4,11.83c3.38,4.32,7.33,9.58,7.33,9.58h11.13C348.87,51.83,342.56,43.95,338.6,40.16z"/>
			<path class="st7" d="M24.48,60.95l-3.08-0.36c-0.08-0.01-0.16,0.02-0.21,0.07l-1.02,0.92c-0.07,0.06-0.1,0.15-0.09,0.24l0.3,2.4
				c0.02,0.15,0.16,0.26,0.32,0.23l1.11-0.19c0.13-0.02,0.23-0.14,0.23-0.28l-0.06-1.83c0-0.14,0.1-0.26,0.24-0.28l1.92-0.23
				c0.11-0.01,0.21-0.1,0.23-0.21L24.48,60.95z"/>
			<path class="st7" d="M10.12,63.3l-0.67-0.56c-0.28-0.24-0.65-0.35-1.01-0.31c-14.98,1.59-38.39,4.22-49.99,6.29
				c-12.04,2.15-26.63,5.67-34.87,7.74c-4.15,1.04-7.79,3.55-10.23,7.07c-0.39,0.56-0.79,1.14-1.21,1.75
				c-0.2,0.29,0.04,0.69,0.39,0.64c23.83-3.07,47.85-6.09,58.39-7.18c14.65-1.51,27.86-2.93,40.19-4.1
				c4.05-3.31,8.92-6.86,14.58-10.71H11.87C11.23,63.93,10.61,63.71,10.12,63.3z"/>
			<path class="st5" d="M157.86,22.39c-9,0-20.22,0.33-39.61,4.25c-14.32,2.89-33.69,12.34-57.66,28.11v15.44l85.8-5.62
				c1.25-5.06,2.77-11.02,4.4-17.05c2.32-8.6,6.9-21.24,8.33-25.12C158.7,22.39,158.29,22.39,157.86,22.39z"/>
			<polygon class="st8" points="84.13,119.28 88.96,144.68 147.32,142.97 147.15,114.46 			"/>
			<path class="st9" d="M155.02,47.98l-7.14,32.64c-0.06,0.25-0.08,0.51-0.09,0.77l-0.3,36.66c-0.02,2.09-1.74,3.76-3.83,3.72
				l-60.89-1.15c-1.96-0.04-3.57-1.58-3.68-3.54l-0.86-15.29c-0.12-2.19,1.65-4.02,3.84-3.96l45.32,1.11
				c1.76,0.04,3.32-1.15,3.74-2.86l10.35-42.27c0.12-0.51,0.35-0.98,0.67-1.4l4.96-6.45c0.65-0.85,1.47-1.55,2.4-2.07l0,0
				C152.36,42.33,155.71,44.83,155.02,47.98z"/>
			<path class="st10" d="M67.99,18.11c-3.26,0-6.66-0.75-13.67,4.26S37.89,50.43,35.41,56.44c-1.66,4.03-2.59,8.62-3.21,16.26
				l33.03-7.66c1.07-17.02,2.6-41.22,2.97-46.94L67.99,18.11L67.99,18.11z"/>
			<path class="st7" d="M64.24,81c0.16-2.61,0.53-8.61,0.99-15.95L32.2,72.71c-0.31,3.76-0.54,8.26-0.75,13.8
				c-0.44,11.72,0.28,42.34,0.76,59.78l31.89-3.32C63.98,120.36,63.87,87.17,64.24,81z"/>
			<path class="st10" d="M237.31,18.11h-7.91l1.28,1.93c1.71,0.06,4.96,0.18,8.96,0.32l-1.24-1.69
				C238.15,18.32,237.74,18.11,237.31,18.11z"/>
			<path class="st7" d="M245.87,42.82c1.47,2.2,1.53,5.05,0.15,7.31l-2.57,4.23c-1.84,3.03-5.05,4.98-8.59,5.21l-83.55,5.48
				c-1.63,7.34-2.95,13.34-3.5,15.95c-1.3,6.17-0.91,39.36-0.48,61.97l71.01-2.09c0,0,3.61-34,33.03-44.91l10.9-34.29
				c1.45-4.55,0.64-9.52-2.18-13.37l-20.43-27.95c-4-0.15-7.25-0.26-8.96-0.32L245.87,42.82z"/>
			<path class="st7" d="M34.46,72.71c1.01-3.48,2.23-6.33,3.83-8.78h-12.6c-5.66,3.85-10.53,7.4-14.58,10.71
				C19.21,73.88,26.95,73.21,34.46,72.71z"/>
			<path class="st7" d="M310.79,21.6c-3.25-2.97-5.97-5.33-7.5-6.63c-7.63-0.67-15.32-1.25-21.25-1.5
				c-17.85-0.75-91.32-3.01-139.24,0c-28.17,1.77-41.27,4.38-53.67,9.63c2.5,0.2,4.79,0.31,6.12,0.32c0.29,0,0.38,0.39,0.12,0.51
				c-5.76,2.91-25.08,11.48-53.11,29.18c-6.12,3.86-11.64,7.45-16.57,10.8H38.3c1.91-2.93,4.34-5.29,7.54-7.49
				c8.77-6.01,42.09-29.06,66.9-34.07c24.8-5.01,36.83-4.26,48.36-4.26h74.79h1.44c15.03,0.25,43.97,1.75,56.38,2.32
				C297.94,20.62,304.28,21.08,310.79,21.6z"/>
			<path class="st6" d="M271.18,92.65c-7.65,0-14.2,1.24-19.82,3.33c-29.41,10.9-33.03,44.91-33.03,44.91l-71.01,2.09L34.5,146.29
				l-3.58,0.11v-5.01c0,0-5.01-46.35-52.87-46.35s-51.11,48.61-51.11,48.61l-25.54-1.23c-0.3-0.01-0.56-0.23-0.63-0.53l-0.51-2.23
				c-0.07-0.31-0.35-0.53-0.66-0.53h-0.63c-0.42,0-0.74,0.38-0.67,0.8l0.07,0.38c0.62,3.58,2.93,6.65,6.2,8.23l14.07,6.79
				c1.84,0.89,3.86,1.35,5.91,1.35h6.46c0.86,0,1.51-0.79,1.33-1.64c-0.63-3-0.97-6.1-0.97-9.28c0-25.4,21.14-46,47.21-46
				s47.21,20.59,47.21,46c0,3.93-0.05,7.04-0.14,9.51c-0.03,0.77,0.59,1.41,1.36,1.41h8.55h112.05h74.86l0,0
				c0.97-0.07,1.7-0.89,1.67-1.86c-0.11-2.93-0.13-6.5-0.13-10.98c0-17.6,10.15-32.89,25.05-40.62c6.61-3.43,14.15-5.37,22.16-5.37
				c26.07,0,47.21,20.59,47.21,46c0,1.42-0.01,2.72-0.02,3.93c-0.01,0.95,0.94,1.62,1.83,1.29l4.07-1.5v-7.66
				C324.32,139.88,318.91,92.65,271.18,92.65z"/>
			<path class="st6" d="M324.32,139.88v7.66l13.18-4.87c1.23-1.61,4.21-5.83,7.3-12.6c0.65-1.43,1.27-2.79,1.86-4.07l-24.48,4.66
				C323.88,136.09,324.32,139.88,324.32,139.88z"/>
			<path class="st7" d="M360.02,114.01v-3.18c-4.1,0.12-5.18,1.03-6.67,2.43c-0.41,0.38-0.87,1.02-1.39,1.88c1.28,0,2.37,0,2.89,0
				C356.54,115.14,360.02,114.01,360.02,114.01z"/>
			<path class="st6" d="M360.02,114.01L360.02,114.01c0,0-3.48,1.13-5.17,1.13c-0.51,0-1.61,0-2.89,0
				c-1.72,2.85-4.06,8.16-7.16,14.94c-3.1,6.77-6.08,10.99-7.3,12.6l10.95-4.05c1.69-0.62,3.25-1.54,4.61-2.72l4.17-3.61
				c0.47-0.41,0.79-0.96,0.9-1.57l2.82-15.61C361.05,114.54,360.61,114.01,360.02,114.01z"/>
			<path class="st10" d="M252.96,18.59c-5.88-0.23-11.34-0.4-15.65-0.47c0.43,0,0.84,0.21,1.1,0.56l1.24,1.69
				c4.61,0.17,10.22,0.38,15.65,0.58L252.96,18.59z"/>
			<path class="st10" d="M305.27,23.89c-0.48-0.49-1.12-0.78-1.81-0.81c-4.41-0.21-21.5-1.02-31.26-1.45
				c-3.91-0.17-10.27-0.42-16.9-0.67l29.54,29.77c1.53,1.55,3.62,2.41,5.8,2.41h40.33c-2.12-2.63-5.28-6.59-7.9-9.96
				C319.28,38.31,308.25,26.94,305.27,23.89z"/>
			<path class="st5" d="M290.64,50.41c-1.44,0-2.85-0.59-3.86-1.61L262.1,23.93c4.33,0.17,7.67,0.31,9.98,0.41
				c9.96,0.44,27.78,1.29,31.25,1.45c6.59,6.75,14.68,15.31,17.58,19.05c1.39,1.79,2.93,3.73,4.38,5.57H290.64z"/>
			<path class="st10" d="M331.46,43.54c-2.73-3.49-10.9-12.78-17.48-18.98c-1.1-1.04-2.17-2.03-3.19-2.96
				c-6.51-0.52-12.85-0.98-17.1-1.17c-8.85-0.4-26.1-1.28-40.73-1.84l2.34,2.36c6.63,0.25,12.99,0.5,16.9,0.67
				c9.76,0.43,26.84,1.24,31.26,1.45c0.69,0.03,1.33,0.32,1.81,0.81c2.98,3.05,14.01,14.42,17.79,19.28
				c2.62,3.37,5.78,7.33,7.9,9.96h7.82C338.78,53.13,334.84,47.87,331.46,43.54z"/>
			<path class="st10" d="M245.87,42.82L229.4,18.11h-67.6c-1.29,5.72-6.72,29.92-10.5,46.94l83.55-5.48
				c3.54-0.23,6.75-2.18,8.59-5.21l2.57-4.23C247.4,47.87,247.34,45.02,245.87,42.82z"/>
			<path class="st5" d="M243.6,44.33l-15.66-23.49h-61.53l-4.3,40.78l72.56-4.76c2.65-0.17,5.06-1.63,6.44-3.91l2.57-4.23
				C244.52,47.37,244.48,45.64,243.6,44.33z"/>
			<path class="st7" d="M239,35.78"/>
			<path class="st11" d="M326.42,64.97c-0.22,0-0.35,0.24-0.23,0.42c1.23,1.82,6.19,8.94,9.86,10.66c1.07,0.5,3.38,1.36,6.41,2.36
				L331.41,65L326.42,64.97z"/>
			<path class="st12" d="M346.32,65.1L331.41,65l11.06,13.42c1.57,0.52,3.35,1.09,5.23,1.67c-0.85-1.92-1.38-4.05-1.38-6.48
				C346.32,68.83,346.32,66.33,346.32,65.1z"/>
			<path class="st11" d="M354.36,82.04c0.68,0.19,1.36,0.38,2.04,0.56c0,0,0.24-0.63,0.24-2.04s0-14.28,0-14.28
				c0-0.62-0.5-1.13-1.13-1.13l-3.55-0.02c0,1.25,0,3.75,0,8.48C351.96,76.89,352.92,79.64,354.36,82.04z"/>
			<path class="st12" d="M351.96,73.61c0-4.73,0-7.23,0-8.48l-2.82-0.02c0,1.24,0,3.74,0,8.5c0,2.85,0.73,5.3,1.86,7.47
				c1.1,0.32,2.22,0.64,3.36,0.96C352.92,79.64,351.96,76.89,351.96,73.61z"/>
			<path class="st13" d="M349.14,65.11l-2.82-0.02c0,1.23,0,3.74,0,8.51c0,2.43,0.53,4.56,1.38,6.48c1.07,0.33,2.17,0.66,3.3,0.99
				c-1.13-2.17-1.86-4.62-1.86-7.47C349.14,68.86,349.14,66.35,349.14,65.11z"/>
			<path class="st14" d="M354.38,72.37h-17.85c-0.36,0-0.7-0.16-0.92-0.43l-5.12-6.17c-0.42-0.51-0.35-1.27,0.16-1.69
				c0.51-0.42,1.27-0.35,1.69,0.16l4.76,5.73h17.29C355.04,69.97,355.04,72.37,354.38,72.37z"/>
			<path class="st7" d="M332.23,89.86l3.83-13.81c-3.68-1.72-8.64-8.84-9.86-10.66c-0.12-0.18,0.01-0.42,0.23-0.42l29.08,0.18
				c0,0-0.19-2.82-0.56-4.32c-0.32-1.28-2.84-5.86-3.56-7.17c-0.12-0.22-0.35-0.35-0.59-0.35h-0.73c0,0-0.05-0.07-0.15-0.19h-11.13
				h-48.15c-2.18,0-4.26-0.87-5.8-2.41L255.3,20.95c-5.43-0.21-11.04-0.41-15.65-0.58l20.43,27.95c2.82,3.85,3.63,8.82,2.18,13.37
				l-10.9,34.29c5.62-2.08,12.17-3.33,19.82-3.33c14.15,0,24.58,4.15,32.25,9.99l24.39-8.15C329.97,93.78,331.62,92.04,332.23,89.86
				z"/>
			<path class="st7" d="M356.39,82.6c-9.06-2.44-17.9-5.41-20.33-6.55l-3.83,13.81c-0.61,2.18-2.26,3.92-4.4,4.64l-24.39,8.15
				c10.88,8.28,16.21,19.96,18.75,28.02l24.48-4.66c3.05-6.68,5.22-11.36,6.69-12.75c1.49-1.4,2.57-2.31,6.67-2.43v-1.14V90.15
				c0-0.99-0.27-1.96-0.78-2.8L356.39,82.6z"/>
			<path class="st15" d="M-72.11,96.03c-0.84,0.7-1.88,1.13-2.96,1.23l-9.04,0.85c0.12,0.19,0.25,0.37,0.41,0.51
				c1.52,1.3,12.75,0.44,19.18-8.14c-0.81,0.19-1.58,0.56-2.22,1.1L-72.11,96.03z"/>
			<path class="st16" d="M-83.08,90.23c1.1-1.87,2.98-3.45,6.31-5.68c-3.33,0.43-6.7,0.86-10.08,1.29
				c-0.18,0.02-5.25,5.54-7.06,8.15c0.4,1.26,0.54,2.58,0.58,3.55c0.04,0.78,0.71,1.37,1.49,1.3l7.72-0.73
				C-85.24,96.24-84.21,92.16-83.08,90.23z"/>
			<path class="st12" d="M-60.57,82.5c-0.42,1.07-0.86,2.19-1.33,3.35c-0.72,1.75-1.61,3.29-2.62,4.64
				c0.06-0.01,0.11-0.03,0.17-0.05l5.26-1.07c5.17-3.3,9.16-6.82,10.86-8.4C-52.08,81.44-56.23,81.95-60.57,82.5z"/>
			<path class="st16" d="M-61.1,88.39c-0.22,0.05-0.4-0.19-0.29-0.39c0.27-0.54,0.52-1.08,0.75-1.64c0.34-0.85,0.67-1.67,0.99-2.46
				c0.04-0.09,0.12-0.16,0.22-0.17c2.06-0.26,4.08-0.51,6.04-0.75c0.27-0.03,0.42,0.31,0.2,0.48c-1.77,1.42-3.93,3.03-6.37,4.6
				c-0.03,0.02-0.06,0.03-0.1,0.04L-61.1,88.39z"/>
			<path class="st12" d="M-76.77,84.55c-2.42,1.62-4.07,2.89-5.21,4.19h4.61c0.38,0,0.68,0.3,0.68,0.68v1.83
				c0,0.38-0.3,0.68-0.68,0.68h-6.48c-0.73,2.06-1.12,4.76-0.27,6.18l5.21-0.49c1.31-0.81,2.44-1.58,3.22-2.25
				c4.19-3.61,6.32-6.79,8.51-12.04C-70.31,83.73-73.52,84.13-76.77,84.55z"/>
			<path class="st16" d="M-83.22,96.39c-0.07-0.78,0.04-1.82,0.32-2.89c0.03-0.12,0.14-0.21,0.27-0.21h5.27
				c1.13,0,2.04-0.91,2.04-2.04v-1.83c0-1.13-0.91-2.04-2.04-2.04H-78c-0.13,0-0.19-0.17-0.08-0.24c0.52-0.38,1.1-0.79,1.76-1.23
				c0.04-0.02,0.08-0.04,0.12-0.05c2.13-0.27,4.24-0.54,6.32-0.81c0.21-0.03,0.37,0.2,0.28,0.39c-1.81,3.7-3.77,6.15-6.96,8.9
				c-0.61,0.53-1.53,1.18-2.72,1.92c-0.04,0.02-0.08,0.04-0.12,0.04l-3.51,0.33C-83.07,96.64-83.21,96.54-83.22,96.39z"/>
			<path class="st2" d="M-76.69,91.25v-1.83c0-0.38-0.3-0.68-0.68-0.68h-4.61c-0.43,0.49-0.79,0.98-1.1,1.49
				c-0.27,0.46-0.54,1.05-0.77,1.7h6.48C-76.99,91.93-76.69,91.63-76.69,91.25z"/>
			<path class="st16" d="M-67.17,83.33c-2.19,5.25-4.33,8.43-8.51,12.04c-0.77,0.67-1.91,1.44-3.22,2.25l3.83-0.36
				c1.09-0.1,2.12-0.53,2.96-1.23l5.36-4.44c0.65-0.53,1.41-0.91,2.22-1.1c1.01-1.35,1.91-2.88,2.62-4.64
				c0.47-1.16,0.92-2.28,1.33-3.35C-62.72,82.77-64.93,83.05-67.17,83.33z"/>
			<path class="st11" d="M-48.23,80.97c-1.7,1.59-5.68,5.1-10.86,8.4l6.28-1.27c0.67-0.14,1.3-0.44,1.82-0.88l8.2-6.91
				C-44.52,80.52-46.34,80.74-48.23,80.97z"/>
			<g class="st17">
				<g>
					<defs>
						<path id="SVGID_3_" d="M-48.23,80.97c-3.84,0.47-7.99,0.98-12.34,1.53c-2.15,0.27-4.36,0.55-6.6,0.83
							c-3.14,0.4-6.35,0.8-9.6,1.22c-3.33,0.43-6.7,0.86-10.08,1.29c-0.18,0.02-5.25,5.54-7.06,8.15c0.4,1.26,0.54,2.58,0.58,3.55
							c0.04,0.78,0.71,1.37,1.49,1.3l7.72-0.73l5.21-0.49l3.83-0.36c1.09-0.1,2.12-0.53,2.96-1.23l5.36-4.44
							c0.65-0.53,1.41-0.91,2.22-1.1c0.06-0.01,0.11-0.03,0.17-0.05l5.26-1.07l6.28-1.27c0.67-0.14,1.3-0.44,1.82-0.88l8.2-6.91
							C-44.52,80.52-46.34,80.74-48.23,80.97z"/>
					</defs>
					<clipPath id="SVGID_4_">
						<use xlink:href="#SVGID_3_"  style="overflow:visible;"/>
					</clipPath>
					<g class="st18">
						<g>
							<rect x="-113.32" y="71.84" class="st19" width="91.27" height="0.38"/>
						</g>
						<g>
							<rect x="-113.32" y="73.48" class="st19" width="91.27" height="0.38"/>
						</g>
						<g>
							<rect x="-113.32" y="75.12" class="st19" width="91.27" height="0.38"/>
						</g>
						<g>
							<rect x="-113.32" y="76.75" class="st19" width="91.27" height="0.38"/>
						</g>
						<g>
							<rect x="-113.32" y="78.39" class="st19" width="91.27" height="0.38"/>
						</g>
						<g>
							<rect x="-113.32" y="80.03" class="st19" width="91.27" height="0.38"/>
						</g>
						<g>
							<rect x="-113.32" y="99.7" class="st19" width="91.27" height="0.38"/>
						</g>
						<g>
							<rect x="-113.32" y="101.33" class="st19" width="91.27" height="0.38"/>
						</g>
						<g>
							<rect x="-113.32" y="102.97" class="st19" width="91.27" height="0.38"/>
						</g>
						<g>
							<rect x="-113.32" y="104.61" class="st19" width="91.27" height="0.38"/>
						</g>
						<g>
							<rect x="-113.32" y="106.25" class="st19" width="91.27" height="0.38"/>
						</g>
						<g>
							<rect x="-113.32" y="107.89" class="st19" width="91.27" height="0.38"/>
						</g>
						<g>
							<rect x="-113.32" y="109.53" class="st19" width="91.27" height="0.38"/>
						</g>
					</g>
				</g>
			</g>
			<path class="st10" d="M-80.12,117.06c-0.07-0.53-0.28-1.03-0.64-1.44l-1.85-2.14c-0.78-0.9-1.9-1.41-3.09-1.41h-4.13l-1.31,4.99
				l-2.07,7.91l-0.26,0.99c-0.57,2.17-0.22,4.47,0.96,6.38l2.13,3.43h2.29c1.85,0,3.46-1.24,3.94-3.02l2.1-7.78l1.86-6.88
				C-80.09,117.75-80.08,117.4-80.12,117.06z"/>
			<path class="st7" d="M34.5,146.29c-1.7-17.44-4.27-48.06-2.7-59.78c0.74-5.54,1.57-10.04,2.66-13.81
				c-18.94,1.28-39.26,3.53-63.55,6.04c-3.35,0.35-8.07,0.89-13.71,1.56l-8.2,6.91c-0.52,0.44-1.15,0.74-1.82,0.88l-11.54,2.34
				c-0.88,0.18-1.7,0.57-2.39,1.15l-5.36,4.44c-0.84,0.7-1.88,1.13-2.96,1.23l-16.76,1.58c-0.78,0.07-1.45-0.5-1.49-1.29
				c-0.04-0.97-0.19-2.3-0.58-3.56c-2.19,3.16-4.18,6.02-5.35,7.72c-0.73,1.05-1.2,2.25-1.38,3.52c-0.21,1.48-0.52,3.68-0.85,6.07
				c-0.06,0.41,0.26,0.78,0.67,0.78h15.12c1.19,0,2.31,0.52,3.09,1.41l1.85,2.14c0.59,0.68,0.8,1.6,0.57,2.47l-3.96,14.66
				c-0.48,1.78-2.1,3.02-3.94,3.02h-12.58c-0.42,0-0.74,0.38-0.67,0.8l0.44,2.57h0.48c0.32,0,0.59,0.22,0.66,0.53l0.51,2.23
				c0.07,0.3,0.33,0.51,0.63,0.53l25.54,1.23c0,0,3.26-48.61,51.11-48.61s52.87,46.35,52.87,46.35v5.01L34.5,146.29z"/>
			<path class="st6" d="M320.04,30.63c0.34,0.36,0.68,0.72,1.02,1.08l3.19-5.38l2.26-3.55c0.04-0.06,0.1-0.11,0.18-0.12l-3.31,0.59
				L320.04,30.63z"/>
			<path class="st10" d="M332.81,17.89c-3.47-0.38-16.4-1.77-29.53-2.91c2.01,1.71,6.07,5.23,10.7,9.59
				c1.94,1.83,4.02,3.93,6.06,6.07l3.34-7.38l3.31-0.59l5.17-1.03c0.22-0.04,0.41-0.2,0.49-0.4l1.01-2.4
				C333.53,18.41,333.26,17.94,332.81,17.89z"/>
			<g>
				<g>
					<circle class="st20" cx="-21.73" cy="151.05" r="41.64"/>
					<circle class="st21" cx="-21.73" cy="151.05" r="26.46"/>
					<circle class="st22" cx="-21.73" cy="151.05" r="25.25"/>
					<g>
						<g>
							<defs>
								<circle id="SVGID_5_" cx="-21.73" cy="151.05" r="26.46"/>
							</defs>
							<clipPath id="SVGID_6_">
								<use xlink:href="#SVGID_5_"  style="overflow:visible;"/>
							</clipPath>
							<g class="st23">
								<g>
									<path class="st24" d="M-44.04,129.53l11.31,16.52c0.2,0.29,0.62,0.33,0.87,0.08l5.21-5.21c0.25-0.25,0.21-0.67-0.08-0.87
										l-16.52-11.31C-43.77,128.39-44.39,129.01-44.04,129.53z"/>
									<polygon class="st25" points="-42.52,130.26 -27.47,140.56 -32.21,145.31 									"/>
									<path class="st24" d="M-43.25,173.35l16.52-11.31c0.29-0.2,0.33-0.62,0.08-0.87l-5.21-5.21c-0.25-0.25-0.67-0.21-0.87,0.08
										l-11.31,16.52C-44.39,173.08-43.77,173.71-43.25,173.35z"/>
									<polygon class="st25" points="-32.22,156.79 -27.47,161.53 -42.52,171.84 									"/>
									<path class="st24" d="M0.57,172.57l-11.31-16.52c-0.2-0.29-0.62-0.33-0.87-0.08l-5.21,5.21c-0.25,0.25-0.21,0.67,0.08,0.87
										l16.52,11.31C0.3,173.71,0.93,173.08,0.57,172.57z"/>
									<polygon class="st25" points="-15.99,161.53 -11.25,156.79 -0.94,171.84 									"/>
									<path class="st24" d="M-0.21,128.74l-16.52,11.31c-0.29,0.2-0.33,0.62-0.08,0.87l5.21,5.21c0.25,0.25,0.67,0.21,0.87-0.08
										l11.31-16.52C0.93,129.01,0.3,128.39-0.21,128.74z"/>
									<polygon class="st25" points="-15.99,140.57 -0.94,130.26 -11.25,145.31 									"/>
								</g>
								<g>
									<path class="st24" d="M-52.72,151.6l19.68,3.68c0.35,0.07,0.67-0.2,0.67-0.56v-7.37c0-0.35-0.32-0.62-0.67-0.56
										l-19.68,3.68C-53.34,150.6-53.34,151.49-52.72,151.6z"/>
									<polygon class="st25" points="-51.13,151.05 -33.2,147.69 -33.2,154.4 									"/>
									<path class="st24" d="M-21.17,182.03l3.68-19.68c0.07-0.35-0.2-0.67-0.56-0.67h-7.37c-0.35,0-0.62,0.32-0.56,0.67
										l3.68,19.68C-22.17,182.65-21.29,182.65-21.17,182.03z"/>
									<polygon class="st25" points="-25.09,162.52 -18.38,162.52 -21.73,180.45 									"/>
									<path class="st24" d="M9.26,150.49l-19.68-3.68c-0.35-0.07-0.67,0.2-0.67,0.56v7.37c0,0.35,0.32,0.62,0.67,0.56l19.68-3.68
										C9.87,151.49,9.87,150.61,9.26,150.49z"/>
									<polygon class="st25" points="-10.26,147.69 7.67,151.05 -10.26,154.4 									"/>
									<path class="st24" d="M-22.29,120.06l-3.68,19.68c-0.07,0.35,0.2,0.67,0.56,0.67h7.37c0.35,0,0.62-0.32,0.56-0.67
										l-3.68-19.68C-21.29,119.44-22.17,119.44-22.29,120.06z"/>
									<polygon class="st25" points="-25.08,139.58 -21.73,121.64 -18.38,139.58 									"/>
								</g>
							</g>
						</g>
					</g>
					<circle class="st7" cx="-21.73" cy="151.05" r="11.65"/>
					<circle class="st24" cx="-21.73" cy="151.05" r="7.9"/>
					<circle class="st25" cx="-21.73" cy="151.05" r="5.99"/>
					<path class="st26" d="M-21.73,115.05c19.97,0,36.21,15.93,36.74,35.77c0.01-0.33,0.02-0.66,0.02-0.99
						c0-20.3-16.46-36.76-36.76-36.76s-36.76,16.46-36.76,36.76c0,0.33,0.02,0.66,0.03,0.99C-57.94,130.98-41.7,115.05-21.73,115.05
						z"/>
				</g>
			</g>
			<g>
				<g>
					
						<ellipse transform="matrix(0.1602 -0.9871 0.9871 0.1602 78.7682 394.6809)" class="st20" cx="271.33" cy="151.05" rx="41.64" ry="41.64"/>
					<circle class="st21" cx="271.33" cy="151.05" r="26.46"/>
					<circle class="st22" cx="271.33" cy="151.05" r="25.25"/>
					<g>
						<g>
							<defs>
								<circle id="SVGID_7_" cx="271.33" cy="151.05" r="26.46"/>
							</defs>
							<clipPath id="SVGID_8_">
								<use xlink:href="#SVGID_7_"  style="overflow:visible;"/>
							</clipPath>
							<g class="st27">
								<g>
									<path class="st24" d="M249.02,129.53l11.31,16.52c0.2,0.29,0.62,0.33,0.87,0.08l5.21-5.21c0.25-0.25,0.21-0.67-0.08-0.87
										l-16.52-11.31C249.29,128.39,248.67,129.01,249.02,129.53z"/>
									<polygon class="st25" points="250.54,130.26 265.59,140.56 260.85,145.31 									"/>
									<path class="st24" d="M249.81,173.35l16.52-11.31c0.29-0.2,0.33-0.62,0.08-0.87l-5.21-5.21c-0.25-0.25-0.67-0.21-0.87,0.08
										l-11.31,16.52C248.67,173.08,249.29,173.71,249.81,173.35z"/>
									<polygon class="st25" points="260.84,156.79 265.59,161.53 250.54,171.84 									"/>
									<path class="st24" d="M293.63,172.57l-11.31-16.52c-0.2-0.29-0.62-0.33-0.87-0.08l-5.21,5.21
										c-0.25,0.25-0.21,0.67,0.08,0.87l16.52,11.31C293.36,173.71,293.99,173.08,293.63,172.57z"/>
									<polygon class="st25" points="277.07,161.53 281.81,156.79 292.12,171.84 									"/>
									<path class="st24" d="M292.85,128.74l-16.52,11.31c-0.29,0.2-0.33,0.62-0.08,0.87l5.21,5.21c0.25,0.25,0.67,0.21,0.87-0.08
										l11.31-16.52C293.99,129.01,293.36,128.39,292.85,128.74z"/>
									<polygon class="st25" points="277.07,140.57 292.12,130.26 281.81,145.31 									"/>
								</g>
								<g>
									<path class="st24" d="M240.34,151.6l19.68,3.68c0.35,0.07,0.67-0.2,0.67-0.56v-7.37c0-0.35-0.32-0.62-0.67-0.56
										l-19.68,3.68C239.72,150.6,239.72,151.49,240.34,151.6z"/>
									<polygon class="st25" points="241.92,151.05 259.86,147.69 259.86,154.4 									"/>
									<path class="st24" d="M271.88,182.03l3.68-19.68c0.07-0.35-0.2-0.67-0.56-0.67h-7.37c-0.35,0-0.62,0.32-0.56,0.67
										l3.68,19.68C270.88,182.65,271.77,182.65,271.88,182.03z"/>
									<polygon class="st25" points="267.97,162.52 274.68,162.52 271.33,180.45 									"/>
									<path class="st24" d="M302.31,150.49l-19.68-3.68c-0.35-0.07-0.67,0.2-0.67,0.56v7.37c0,0.35,0.32,0.62,0.67,0.56
										l19.68-3.68C302.93,151.49,302.93,150.61,302.31,150.49z"/>
									<polygon class="st25" points="282.8,147.69 300.73,151.05 282.8,154.4 									"/>
									<path class="st24" d="M270.77,120.06l-3.68,19.68c-0.07,0.35,0.2,0.67,0.56,0.67h7.37c0.35,0,0.62-0.32,0.56-0.67
										l-3.68-19.68C271.77,119.44,270.89,119.44,270.77,120.06z"/>
									<polygon class="st25" points="267.97,139.58 271.33,121.64 274.68,139.58 									"/>
								</g>
							</g>
						</g>
					</g>
					<circle class="st7" cx="271.33" cy="151.05" r="11.65"/>
					<circle class="st24" cx="271.33" cy="151.05" r="7.9"/>
					<circle class="st25" cx="271.33" cy="151.05" r="5.99"/>
					<path class="st26" d="M271.33,115.05c19.97,0,36.21,15.93,36.74,35.77c0.01-0.33,0.02-0.66,0.02-0.99
						c0-20.3-16.46-36.76-36.76-36.76s-36.76,16.46-36.76,36.76c0,0.33,0.02,0.66,0.03,0.99
						C235.12,130.98,251.36,115.05,271.33,115.05z"/>
				</g>
			</g>
			<g class="st17">
				<g>
					<defs>
						<path id="SVGID_9_" d="M355.51,65.15l-3.55-0.02l-2.82-0.02l-2.82-0.02L331.41,65l-4.98-0.03c-0.22,0-0.35,0.24-0.23,0.42
							c1.23,1.82,6.19,8.94,9.86,10.66c1.07,0.5,3.38,1.36,6.41,2.36c1.57,0.52,3.35,1.09,5.23,1.67c1.07,0.33,2.17,0.66,3.3,0.99
							c1.1,0.32,2.22,0.64,3.36,0.96c0.68,0.19,1.36,0.38,2.04,0.56c0,0,0.24-0.63,0.24-2.04s0-14.28,0-14.28
							C356.64,65.66,356.13,65.15,355.51,65.15z"/>
					</defs>
					<clipPath id="SVGID_10_">
						<use xlink:href="#SVGID_9_"  style="overflow:visible;"/>
					</clipPath>
					<g class="st28">
						<g>
							<rect x="298.74" y="63.61" class="st19" width="91.27" height="0.38"/>
						</g>
						<g>
							<rect x="298.74" y="65.25" class="st19" width="91.27" height="0.38"/>
						</g>
						<g>
							<rect x="298.74" y="66.89" class="st19" width="91.27" height="0.38"/>
						</g>
						<g>
							<rect x="298.74" y="68.53" class="st19" width="91.27" height="0.38"/>
						</g>
						<g>
							<rect x="298.74" y="70.16" class="st19" width="91.27" height="0.38"/>
						</g>
						<g>
							<rect x="298.74" y="71.8" class="st19" width="91.27" height="0.38"/>
						</g>
						<g>
							<rect x="298.74" y="53.78" class="st19" width="91.27" height="0.38"/>
						</g>
						<g>
							<rect x="298.74" y="55.42" class="st19" width="91.27" height="0.38"/>
						</g>
						<g>
							<rect x="298.74" y="57.05" class="st19" width="91.27" height="0.38"/>
						</g>
						<g>
							<rect x="298.74" y="58.69" class="st19" width="91.27" height="0.38"/>
						</g>
						<g>
							<rect x="298.74" y="60.33" class="st19" width="91.27" height="0.38"/>
						</g>
						<g>
							<rect x="298.74" y="61.97" class="st19" width="91.27" height="0.38"/>
						</g>
						<g>
							<rect x="298.74" y="73.44" class="st19" width="91.27" height="0.38"/>
						</g>
						<g>
							<rect x="298.74" y="75.08" class="st19" width="91.27" height="0.38"/>
						</g>
						<g>
							<rect x="298.74" y="76.72" class="st19" width="91.27" height="0.38"/>
						</g>
						<g>
							<rect x="298.74" y="78.36" class="st19" width="91.27" height="0.38"/>
						</g>
						<g>
							<rect x="298.74" y="80" class="st19" width="91.27" height="0.38"/>
						</g>
						<g>
							<rect x="298.74" y="81.64" class="st19" width="91.27" height="0.38"/>
						</g>
						<g>
							<rect x="298.74" y="83.27" class="st19" width="91.27" height="0.38"/>
						</g>
						<g>
							<rect x="298.74" y="84.91" class="st19" width="91.27" height="0.38"/>
						</g>
						<g>
							<rect x="298.74" y="86.55" class="st19" width="91.27" height="0.38"/>
						</g>
						<g>
							<rect x="298.74" y="88.19" class="st19" width="91.27" height="0.38"/>
						</g>
						<g>
							<rect x="298.74" y="89.83" class="st19" width="91.27" height="0.38"/>
						</g>
						<g>
							<rect x="298.74" y="91.47" class="st19" width="91.27" height="0.38"/>
						</g>
					</g>
				</g>
			</g>
			<g>
				<g>
					<g>
						
							<ellipse transform="matrix(0.0191 -0.9998 0.9998 0.0191 -21.4881 134.2136)" class="st7" cx="57.66" cy="78.06" rx="4.27" ry="1.73"/>
					</g>
					<g class="st29">
						
							<ellipse transform="matrix(0.0191 -0.9998 0.9998 0.0191 -21.4881 134.2136)" class="st30" cx="57.66" cy="78.06" rx="4.27" ry="1.73"/>
					</g>
				</g>
				<path class="st10" d="M61.77,78.99l-7.07,1.32c-0.15,0.03-0.27-0.37-0.28-0.89l-0.02-1.25c-0.01-0.52,0.11-0.96,0.25-0.99
					l7.07-1.32c0.15-0.03,0.27,0.37,0.28,0.89L62.02,78C62.03,78.52,61.91,78.97,61.77,78.99z"/>
			</g>
			<g>
				<g>
					<g>
						
							<ellipse transform="matrix(0.9986 -0.0527 0.0527 0.9986 -3.5225 12.0445)" class="st7" cx="226.63" cy="72.82" rx="6.14" ry="4.26"/>
					</g>
					<g class="st29">
						
							<ellipse transform="matrix(0.9986 -0.0527 0.0527 0.9986 -3.5225 12.0445)" class="st30" cx="226.63" cy="72.82" rx="6.14" ry="4.26"/>
					</g>
				</g>
				<path class="st10" d="M241.14,73.75l-24.96,1.32c-0.53,0.03-0.99-0.38-1.02-0.92l-0.06-1.19c-0.03-0.53,0.38-0.99,0.92-1.02
					l24.96-1.32c0.53-0.03,0.99,0.38,1.02,0.92l0.06,1.19C242.08,73.26,241.67,73.72,241.14,73.75z"/>
			</g>
			<path class="st5" d="M65.67,20.8c-2.54,0-5.71,0.33-11.2,4.25c-4.05,2.89-9.52,12.34-16.3,28.11V68.6l24.25-5.62
				c0.35-5.06,0.78-11.02,1.24-17.05c0.66-8.6,1.95-21.24,2.36-25.12C65.91,20.8,65.79,20.8,65.67,20.8z"/>
			<g>
				<g>
					<defs>
						<path id="SVGID_11_" d="M290.64,50.41c-1.44,0-2.85-0.59-3.86-1.61L262.1,23.93c4.33,0.17,7.67,0.31,9.98,0.41
							c9.96,0.44,27.78,1.29,31.25,1.45c6.59,6.75,14.68,15.31,17.58,19.05c1.39,1.79,2.93,3.73,4.38,5.57H290.64z"/>
					</defs>
					<clipPath id="SVGID_12_">
						<use xlink:href="#SVGID_11_"  style="overflow:visible;"/>
					</clipPath>
				</g>
				<g>
					<defs>
						<path id="SVGID_13_" d="M290.64,50.41c-1.44,0-2.85-0.59-3.86-1.61L262.1,23.93c4.33,0.17,7.67,0.31,9.98,0.41
							c9.96,0.44,27.78,1.29,31.25,1.45c6.59,6.75,14.68,15.31,17.58,19.05c1.39,1.79,2.93,3.73,4.38,5.57H290.64z"/>
					</defs>
					<defs>
						<path id="SVGID_14_" d="M243.6,44.33l-15.66-23.49h-61.53l-4.3,40.78l72.56-4.76c2.65-0.17,5.06-1.63,6.44-3.91l2.57-4.23
							C244.52,47.37,244.48,45.64,243.6,44.33z"/>
					</defs>
					<clipPath id="SVGID_15_">
						<use xlink:href="#SVGID_13_"  style="overflow:visible;"/>
					</clipPath>
					<clipPath id="SVGID_16_" class="st31">
						<use xlink:href="#SVGID_14_"  style="overflow:visible;"/>
					</clipPath>
				</g>
			</g>
			<g>
				<path class="st10" d="M35.51,61.03c0,0-0.82,2.35-1.09,3.38c-0.21,0.81-0.45,2.87-0.54,3.75c-0.02,0.19,0.02,0.38,0.08,0.37
					l1.75-0.43c0.02-0.01,0.04-0.05,0.06-0.12l0.63-3.19L35.51,61.03z"/>
				<path class="st6" d="M22.65,57.65c0.41-1.97,5.84-5.83,7.33-6.48c1.49-0.66,5.97-0.92,6.77-0.47c1.65,0.94,3.3,3.1,3.3,5.36
					c0,1.69,0,7.8,0,9.11c0,1.32-1.98,2.63-4.54,2.63c-1.57,0-7.29,0.34-8.83-0.28C25.14,66.89,22.24,59.62,22.65,57.65z"/>
				<path class="st5" d="M30.7,66.6c-1.98,0-3.04-0.09-3.56-0.16c-1.19-1.65-3.08-6.52-3.23-8.38c1.08-1.6,5.82-5.12,7.2-5.73
					c0.55-0.23,2.74-0.57,4.79-0.57c0.4,0,0.68,0.01,0.86,0.03c1,0.74,1.99,2.18,1.99,3.39v10.86c-0.4,0.21-1.13,0.44-2.08,0.44
					c-0.44,0-1.12,0.02-1.94,0.04C33.59,66.56,32.13,66.6,30.7,66.6z"/>
			</g>
			<path class="st15" d="M93.69,21.5c5.01-1.75,11.27-4.26,31.07-6.26s45.1-2.99,63.64-3.24s51.11,0.5,66.9,0.75s41.59,2,48.36,2.51
				c6.76,0.5,28.06,3.26,28.06,3.26"/>
			<path class="st15" d="M-77.03,76.84c5.01-1.25,25.05-6.26,36.83-8.27s48.1-6.01,48.1-6.01"/>
			<path class="st10" d="M68.2,18.11c0,0,2.47,0.48,3.47,1.15c1.01,0.67-2.18,56.48-2.18,60.33s1.51,62.18,1.68,62.68
				s-7.06,0.7-7.06,0.7L61.95,86.8L68.2,18.11z"/>
			<path class="st3" d="M137.19,114.78h-10.93c-1.41,0-2.57-1.16-2.57-2.57l0,0c0-1.41,1.16-2.57,2.57-2.57h10.93
				c1.41,0,2.57,1.16,2.57,2.57l0,0C139.76,113.62,138.6,114.78,137.19,114.78z"/>
		</g>
	</g>
	<g>
		<defs>
			<rect id="SVGID_17_" y="0.5" width="280" height="199"/>
		</defs>
		<clipPath id="SVGID_18_">
			<use xlink:href="#SVGID_17_"  style="overflow:visible;"/>
		</clipPath>
		<g class="st32">
			<g>
				<path class="st33" d="M163.03,182.76h-6.86c-0.41,0-0.81,0.09-1.17,0.26l-19.45,9.12c-0.97,0.46-1.59,1.43-1.59,2.5l0,0
					c0,1.53,1.24,2.76,2.76,2.76h26.93c1.6,0,2.87-1.35,2.76-2.95l-0.62-9.12C165.69,183.88,164.49,182.76,163.03,182.76z"/>
				<path class="st33" d="M237.99,174.75l2.22,6.49c0.13,0.38,0.35,0.73,0.63,1.03l8.43,7.58l0.97,7.11
					c0.14,1.06,0.89,1.94,1.91,2.26l0,0c1.46,0.46,3.01-0.36,3.46-1.81l2.06-6.57l-6.02-21.42c-0.52-1.51-2.21-2.27-3.68-1.65
					l-8.43,3.54C238.19,171.87,237.51,173.38,237.99,174.75z"/>
				<path class="st34" d="M108.98,115.78l35.81-3.65c0,0,13.48-14.84,18.22-19.12c4.74-4.29-1.61-14.39-10.01-7.24
					s-20.37,17.42-20.37,17.42l-29.82,4.11L108.98,115.78z"/>
				<line class="st35" x1="86.05" y1="110.32" x2="102.57" y2="110.37"/>
				<path class="st36" d="M109.38,105.16l-11.01,0.1c-1.07,0.01-1.67,1.25-0.99,2.09l0,0c0.23,0.28,0.56,0.46,0.92,0.48l3.58,0.24
					c1.18,0.08,1.64,1.58,0.7,2.3l-5.92,4.57c-0.97,0.75-0.45,2.3,0.77,2.31l8.93,0.08c0.27,0,0.53-0.08,0.75-0.23l8.26-5.81
					c0.72-0.51,0.73-1.58,0.01-2.1l-5.24-3.78C109.92,105.24,109.65,105.16,109.38,105.16z"/>
				<path class="st37" d="M213.53,140.5l3.74,32.45l24.97-3.57l0.79,17.84l-41.33,4.03c-4.06,0.4-7.63-2.65-7.88-6.72l-4.7-25.85
					l-22.18-0.4l0.6,28.94l-19.65-1.98l-0.35-40.04c-0.03-2.67,1.81-4.99,4.4-5.59l18.91,1.01c0-5.14-1.22-10.22-3.56-14.8
					L152.3,96.46c-2.89-5.66,0.05-12.57,6.15-14.39l15.67-4.7c4.56-1.37,9.45,0.6,11.79,4.74l23.84,42.09
					C212.57,129.15,213.88,134.82,213.53,140.5z"/>
				<path class="st35" d="M322.31,193.16c0,0-42.81,0-90.38,0s-55.91-43.6-55.91-43.6s-8.32-36.47-28.35-37.93"/>
				<path class="st38" d="M109.11,117.14l39.86-1.36l31.83-23.17c7.71-5.91-0.16-17.26-9.38-10.54l-26.83,20.21l-35.74,1.85
					L109.11,117.14z"/>
				<ellipse class="st36" cx="172.63" cy="67.5" rx="3.52" ry="4.77"/>
				<path class="st36" d="M154.55,56.2c-4.47,1.19-5.02,14.06-5.02,19.59c4.02-0.5,4.02-0.5,4.02-0.5s0,5.02,4.02,7.03
					c5.02,2.51,14.56-0.45,15.07-7.53c0.5-7.03-0.41-14.13-5.02-18.08C164.09,53.69,162.08,54.2,154.55,56.2z"/>
				<g>
					<path class="st34" d="M168.83,61c0,0-24.32,8.26-30.35,6.75C134.07,66.65,151.46,58.27,168.83,61z"/>
					<polygon class="st39" points="171.06,61.85 170.05,70.96 165.5,61.51 					"/>
					<path class="st34" d="M173.13,62.98c0-6.8-5.51-12.31-12.31-12.31s-12.31,5.51-12.31,12.31"/>
				</g>
				
					<ellipse transform="matrix(0.9151 -0.4032 0.4032 0.9151 -14.0649 69.2006)" class="st15" cx="157.31" cy="68" rx="0.75" ry="2.26"/>
				<path class="st40" d="M157.06,77.3l6.53-3.52C163.59,73.78,163.09,79.81,157.06,77.3z"/>
			</g>
			<path class="st38" d="M205.29,123.22c0,0-12.3,8.56-31.02,8.56"/>
		</g>
	</g>
	<g>
		<defs>
			<rect id="SVGID_19_" y="0.5" width="280" height="199"/>
		</defs>
		<clipPath id="SVGID_20_">
			<use xlink:href="#SVGID_19_"  style="overflow:visible;"/>
		</clipPath>
		<line class="st41" x1="80.67" y1="98.16" x2="88.18" y2="124.95"/>
	</g>
	<g>
		<defs>
			<rect id="SVGID_21_" y="0.5" width="280" height="199"/>
		</defs>
		<clipPath id="SVGID_22_">
			<use xlink:href="#SVGID_21_"  style="overflow:visible;"/>
		</clipPath>
		<path class="st42" d="M113.29,64.12L113.29,64.12L113.29,64.12c-4.76-1.16-8.48-4.88-9.65-9.65l-1.73-7.1l-1.73,7.1
			c-1.16,4.76-4.88,8.48-9.65,9.65l0,0l0,0c4.76,1.16,8.48,4.88,9.65,9.65l1.73,7.1l1.73-7.1C104.8,69,108.52,65.28,113.29,64.12z"
			/>
	</g>
	<g>
		<defs>
			<rect id="SVGID_23_" y="0.5" width="280" height="199"/>
		</defs>
		<clipPath id="SVGID_24_">
			<use xlink:href="#SVGID_23_"  style="overflow:visible;"/>
		</clipPath>
		<path class="st43" d="M88.43,78.08L88.43,78.08L88.43,78.08c-2.72-0.66-4.84-2.78-5.5-5.5l-0.99-4.05l-0.99,4.05
			c-0.66,2.72-2.78,4.84-5.5,5.5l0,0l0,0c2.72,0.66,4.84,2.78,5.5,5.5l0.99,4.05l0.99-4.05C83.6,80.87,85.72,78.75,88.43,78.08z"/>
	</g>
</g>
</svg>
