<?xml version="1.0" encoding="utf-8"?>
<!-- Generator: Adobe Illustrator 24.0.1, SVG Export Plug-In . SVG Version: 6.00 Build 0)  -->
<svg version="1.1" id="レイヤー_1" xmlns="http://www.w3.org/2000/svg" xmlns:xlink="http://www.w3.org/1999/xlink" x="0px"
	 y="0px" viewBox="0 0 280 200" style="enable-background:new 0 0 280 200;" xml:space="preserve">
<style type="text/css">
	.st0{clip-path:url(#SVGID_2_);fill:#3B3D40;}
	.st1{clip-path:url(#SVGID_2_);}
	.st2{fill:#3B3D40;}
	.st3{fill:none;stroke:#59676F;stroke-width:2;stroke-miterlimit:10;}
	.st4{fill:#1F2225;}
	.st5{fill:#B7BABA;}
	.st6{fill:#59676F;}
	.st7{fill:none;stroke:#C7D9EB;stroke-miterlimit:10;}
	.st8{fill:#E5F1F6;}
	.st9{clip-path:url(#SVGID_2_);fill:#F55845;}
	.st10{fill:#FFFFFF;}
	.st11{clip-path:url(#SVGID_2_);fill:#2E3231;}
	.st12{clip-path:url(#SVGID_2_);fill:#1F2225;}
</style>
<g>
	<g>
		<defs>
			<rect id="SVGID_1_" width="280" height="200"/>
		</defs>
		<clipPath id="SVGID_2_">
			<use xlink:href="#SVGID_1_"  style="overflow:visible;"/>
		</clipPath>
		<ellipse class="st0" cx="8.34" cy="-2.56" rx="363.5" ry="23.27"/>
		<g class="st1">
			<path class="st2" d="M245.2,182.87H74.65c-9.21,0-16.67-7.46-16.67-16.67V68.7c0-9.21,7.46-16.67,16.67-16.67H245.2
				c9.21,0,16.67,7.46,16.67,16.67v97.5C261.87,175.41,254.41,182.87,245.2,182.87z"/>
			<path class="st3" d="M74.65,178.87c-6.99,0-12.67-5.68-12.67-12.67V68.7c0-6.99,5.68-12.67,12.67-12.67H245.2
				c6.99,0,12.67,5.68,12.67,12.67v97.5c0,6.99-5.68,12.67-12.67,12.67H74.65z"/>
			<circle class="st4" cx="190.46" cy="116.36" r="49.06"/>
			<circle class="st5" cx="190.46" cy="116.36" r="35.29"/>
			<circle class="st6" cx="190.46" cy="116.36" r="31.3"/>
			<circle class="st7" cx="190.46" cy="116.36" r="21.19"/>
			<circle class="st8" cx="181.19" cy="104.92" r="11.45"/>
			<circle class="st8" cx="205.36" cy="129.08" r="3.82"/>
		</g>
		<circle class="st9" cx="245.34" cy="164.87" r="5"/>
		<g class="st1">
			<path class="st10" d="M76.16,155.6h4.34c2.74,0,4.79,0.99,4.79,3.85c0,2.05-1.1,3.28-2.77,3.8l3.24,5.62H83.4l-3.01-5.35h-2.14
				v5.35h-2.09V155.6z M80.25,161.85c1.93,0,2.97-0.79,2.97-2.39s-1.04-2.16-2.97-2.16h-2v4.55H80.25z"/>
			<path class="st10" d="M91.57,155.6h7.83v1.76h-5.74v3.69h4.86v1.76h-4.86v4.29h5.94v1.76h-8.03V155.6z"/>
			<path class="st10" d="M105.25,162.28c0-4.32,2.63-6.91,5.98-6.91c1.66,0,2.95,0.79,3.76,1.67l-1.13,1.33
				c-0.68-0.7-1.51-1.19-2.59-1.19c-2.29,0-3.87,1.91-3.87,5.02c0,3.15,1.48,5.08,3.82,5.08c1.22,0,2.14-0.54,2.93-1.41l1.12,1.31
				c-1.06,1.22-2.41,1.91-4.12,1.91C107.8,169.11,105.25,166.62,105.25,162.28z"/>
		</g>
		<polygon class="st11" points="196.5,53.25 123.36,53.25 134.88,13.87 184.98,13.87 		"/>
		<path class="st12" d="M106.75,13.85l4.96,9.1c0.65,1.19,1.9,1.93,3.25,1.93h90.48c1.42,0,2.71-0.81,3.33-2.09l4.41-9.1
			c1.19-2.46-0.6-5.32-3.33-5.32H110C107.19,8.37,105.41,11.38,106.75,13.85z"/>
	</g>
</g>
</svg>
