<?xml version="1.0" encoding="utf-8"?>
<!-- Generator: Adobe Illustrator 24.0.1, SVG Export Plug-In . SVG Version: 6.00 Build 0)  -->
<svg version="1.1" id="レイヤー_1" xmlns="http://www.w3.org/2000/svg" xmlns:xlink="http://www.w3.org/1999/xlink" x="0px"
	 y="0px" viewBox="0 0 280 200" style="enable-background:new 0 0 280 200;" xml:space="preserve">
<style type="text/css">
	.st0{clip-path:url(#SVGID_2_);}
	.st1{fill:none;stroke:#8D8E8F;stroke-width:6;stroke-miterlimit:10;}
	.st2{fill:#CBD1D5;stroke:#8D8E8F;stroke-width:3;stroke-miterlimit:10;}
	.st3{stroke:#8D8E8F;stroke-width:3;stroke-miterlimit:10;}
	.st4{clip-path:url(#SVGID_2_);fill:#A69F82;}
	.st5{clip-path:url(#SVGID_2_);fill:#20212A;}
	.st6{fill:#2E3231;}
	.st7{fill:#3B3D40;}
	.st8{fill:#FFFFFF;}
	.st9{fill:#ADD35F;}
	.st10{fill:#8D8E8F;}
	.st11{fill:none;stroke:#8D8E8F;stroke-width:3;stroke-miterlimit:10;}
	.st12{fill:#FF827C;}
	.st13{fill:#FFFFFF;stroke:#000000;stroke-miterlimit:10;}
	.st14{fill:#FF595A;}
	.st15{fill:#FFFFFF;stroke:#484A4E;stroke-linecap:round;stroke-linejoin:round;stroke-miterlimit:10;}
</style>
<g>
	<defs>
		<rect id="SVGID_1_" width="280" height="200"/>
	</defs>
	<clipPath id="SVGID_2_">
		<use xlink:href="#SVGID_1_"  style="overflow:visible;"/>
	</clipPath>
	<g class="st0">
		<line class="st1" x1="0" y1="56.26" x2="280" y2="56.26"/>
		<line class="st1" x1="0" y1="31.49" x2="280" y2="31.49"/>
		<g>
			<polyline class="st1" points="0,33.88 31.11,53.88 62.22,33.88 93.32,53.88 124.43,33.88 155.54,53.88 186.66,33.88 
				217.77,53.88 248.88,33.88 280,53.88 			"/>
		</g>
		<g>
			<g>
				<g>
					<rect x="52.34" y="7.88" class="st2" width="23.51" height="23.51"/>
					<circle class="st3" cx="64.09" cy="19.63" r="4.9"/>
				</g>
				<g>
					<rect x="89.56" y="7.88" class="st2" width="23.51" height="23.51"/>
					<circle class="st3" cx="101.31" cy="19.63" r="4.9"/>
				</g>
			</g>
			<g>
				<g>
					<rect x="166.94" y="7.88" class="st2" width="23.51" height="23.51"/>
					<circle class="st3" cx="178.69" cy="19.63" r="4.9"/>
				</g>
				<g>
					<rect x="204.16" y="7.88" class="st2" width="23.51" height="23.51"/>
					<circle class="st3" cx="215.91" cy="19.63" r="4.9"/>
				</g>
			</g>
		</g>
	</g>
	<ellipse class="st4" cx="46.75" cy="201.87" rx="301" ry="46"/>
	<ellipse class="st5" cx="36.75" cy="221.87" rx="301" ry="46"/>
	<g class="st0">
		<path class="st6" d="M161.89,169.87h-43.79c-3.09,0-5.31-2.97-4.45-5.93l6.13-20.97c0.58-1.98,2.39-3.33,4.45-3.33h31.53
			c2.06,0,3.87,1.36,4.45,3.33l6.13,20.97C167.21,166.91,164.98,169.87,161.89,169.87z"/>
		<path class="st7" d="M230.9,148.28H49.1c-2.88,0-5.21-2.33-5.21-5.21V45.5c0-2.88,2.33-5.21,5.21-5.21H230.9
			c2.88,0,5.21,2.33,5.21,5.21v97.56C236.11,145.94,233.77,148.28,230.9,148.28z"/>
		
			<rect x="96.81" y="8.98" transform="matrix(-1.836970e-16 1 -1 -1.836970e-16 234.2849 -45.7151)" class="st8" width="86.39" height="170.61"/>
		<rect x="54.69" y="51.09" class="st9" width="48.59" height="28.08"/>
		<rect x="102.21" y="51.09" class="st10" width="3.24" height="86.39"/>
		<rect x="195.07" y="51.09" class="st10" width="3.24" height="86.39"/>
		<rect x="125.96" y="51.09" class="st10" width="3.24" height="86.39"/>
		<rect x="158.36" y="51.09" class="st10" width="3.24" height="86.39"/>
		
			<rect x="134.06" y="-1.28" transform="matrix(6.123234e-17 -1 1 6.123234e-17 55.9736 224.0264)" class="st10" width="11.88" height="170.61"/>
		
			<rect x="134.06" y="32.19" transform="matrix(6.123234e-17 -1 1 6.123234e-17 22.4987 257.5013)" class="st10" width="11.88" height="170.61"/>
		<polyline class="st11" points="55.23,131.54 186.43,66.21 186.43,51.43 		"/>
		<rect x="134.6" y="119.12" class="st12" width="90.71" height="18.36"/>
		<rect x="54.69" y="96.69" class="st13" width="44.27" height="40.79"/>
		<g>
			<path class="st8" d="M142.64,131.6v-5.04c0-0.29-0.04-0.7-0.08-0.91h1.12c-0.04,0.28-0.07,0.6-0.07,0.9v4.93
				c1.61-0.43,3.66-1.61,4.8-3.03l0.51,0.79c-1.2,1.47-3.07,2.56-5.26,3.24c-0.11,0.04-0.28,0.08-0.45,0.19l-0.67-0.57
				C142.63,131.93,142.64,131.79,142.64,131.6z"/>
			<path class="st8" d="M151.88,128.46h4.91c0.43,0,0.78-0.04,1.01-0.05v1.12c-0.2-0.01-0.61-0.05-1.01-0.05h-4.91
				c-0.5,0-1.04,0.02-1.34,0.05v-1.12C150.84,128.42,151.4,128.46,151.88,128.46z"/>
			<path class="st8" d="M162.49,133.06l-0.77-0.71c1.69-0.62,2.48-1.4,2.48-3.79v-0.36h-2.37v1.35c0,0.36,0.03,0.75,0.04,0.88h-1
				c0.02-0.13,0.04-0.5,0.04-0.88v-1.35h-0.88c-0.42,0-0.79,0.02-0.94,0.03v-0.97c0.12,0.02,0.52,0.07,0.94,0.07h0.88v-1.05
				c0-0.22-0.02-0.49-0.04-0.72h1.01c-0.02,0.13-0.04,0.4-0.04,0.73v1.04h2.37v-1.05c0-0.36-0.03-0.66-0.04-0.78h1.02
				c-0.01,0.13-0.04,0.42-0.04,0.78v1.05h0.84c0.44,0,0.73-0.03,0.9-0.05v0.96c-0.13-0.02-0.46-0.03-0.89-0.03h-0.85v0.31
				C165.13,130.83,164.6,132.12,162.49,133.06z M166.45,126.73l-0.52,0.18c-0.14-0.39-0.32-0.9-0.5-1.25l0.51-0.16
				C166.11,125.82,166.34,126.37,166.45,126.73z M167.37,126.45l-0.52,0.17c-0.14-0.4-0.33-0.9-0.51-1.25l0.51-0.16
				C167.03,125.54,167.26,126.08,167.37,126.45z"/>
			<path class="st8" d="M169.92,128.46h4.91c0.43,0,0.78-0.04,1.01-0.05v1.12c-0.2-0.01-0.61-0.05-1.01-0.05h-4.91
				c-0.5,0-1.04,0.02-1.34,0.05v-1.12C168.87,128.42,169.43,128.46,169.92,128.46z"/>
		</g>
		<polygon class="st14" points="127.33,81.37 119.68,105.84 127.33,97.53 134.98,105.82 		"/>
		<g>
			<path class="st8" d="M187.65,133.39c2.66-2.6,4.26-4.26,4.26-5.71c0-1.01-0.54-1.68-1.62-1.68c-0.75,0-1.37,0.48-1.88,1.06
				l-0.84-0.83c0.82-0.88,1.66-1.42,2.9-1.42c1.75,0,2.88,1.11,2.88,2.8c0,1.7-1.54,3.41-3.52,5.48c0.48-0.05,1.09-0.09,1.55-0.09
				h2.42v1.27h-6.15V133.39z"/>
			<path class="st8" d="M195.07,129.58c0-3.12,1.19-4.78,3.08-4.78c1.9,0,3.08,1.67,3.08,4.78c0,3.12-1.18,4.84-3.08,4.84
				C196.27,134.42,195.07,132.7,195.07,129.58z M199.82,129.58c0-2.67-0.69-3.6-1.66-3.6c-0.97,0-1.66,0.93-1.66,3.6
				s0.69,3.67,1.66,3.67C199.13,133.24,199.82,132.25,199.82,129.58z"/>
			<path class="st8" d="M202.98,123.93h1.46v6.65h0.05l2.76-3.45h1.66l-2.41,2.9l2.68,4.22h-1.62l-1.93-3.23l-1.19,1.37v1.85h-1.46
				V123.93z"/>
			<path class="st8" d="M210.43,127.13h1.22l0.12,1h0.04c0.61-0.65,1.32-1.18,2.2-1.18c1.06,0,1.66,0.49,1.97,1.31
				c0.7-0.75,1.42-1.31,2.32-1.31c1.49,0,2.19,1.01,2.19,2.82v4.48h-1.49v-4.3c0-1.23-0.39-1.72-1.19-1.72
				c-0.49,0-1.01,0.32-1.61,0.97v5.05h-1.49v-4.3c0-1.23-0.38-1.72-1.19-1.72c-0.48,0-1.01,0.32-1.59,0.97v5.05h-1.49V127.13z"/>
		</g>
		<polygon class="st15" points="61.94,109 76.83,115.34 90.15,107.84 76.21,101.87 		"/>
		<polygon class="st15" points="61.94,125.17 61.94,109 76.83,115.34 76.83,131.97 		"/>
		<polygon class="st15" points="76.83,131.97 89.77,122.41 90.15,107.84 76.83,115.34 		"/>
	</g>
</g>
<ellipse transform="matrix(0.9975 -0.0704 0.0704 0.9975 -8.2787 5.1729)" cx="69.27" cy="120.08" rx="3.37" ry="5.11"/>
</svg>
