<?xml version="1.0" encoding="utf-8"?>
<!-- Generator: Adobe Illustrator 24.0.1, SVG Export Plug-In . SVG Version: 6.00 Build 0)  -->
<svg version="1.1" id="レイヤー_1" xmlns="http://www.w3.org/2000/svg" xmlns:xlink="http://www.w3.org/1999/xlink" x="0px"
	 y="0px" viewBox="0 0 280 200" style="enable-background:new 0 0 280 200;" xml:space="preserve">
<style type="text/css">
	.st0{clip-path:url(#SVGID_2_);}
	.st1{fill:#204D7E;}
	.st2{fill:#00395B;}
	.st3{fill:#141E23;}
	.st4{fill:#717071;}
	.st5{fill:#261C19;}
	.st6{fill:#3C3736;}
	.st7{fill:#AACDE6;}
	.st8{fill:#2E2624;}
	.st9{fill:#398CAC;}
	.st10{fill:#3B3D40;}
	.st11{fill:#383231;}
	.st12{fill:#E7372F;}
	.st13{fill:#CCCCCC;}
	.st14{fill:#666666;}
	.st15{opacity:0.8;fill:#E6E6E6;enable-background:new    ;}
	.st16{fill:none;}
	.st17{fill:#DDEAEC;}
	.st18{fill:#1D1D1D;}
	.st19{fill:#888888;}
	.st20{fill:#231815;}
	.st21{clip-path:url(#SVGID_4_);}
	.st22{fill:#9E9E9F;}
	.st23{fill:#DBDCDC;}
	.st24{opacity:0.03;fill:#FFFFFF;enable-background:new    ;}
	.st25{opacity:0.7;}
	.st26{clip-path:url(#SVGID_6_);}
	.st27{fill:#FFFFFF;}
	.st28{opacity:0.4;}
	.st29{fill:#040000;}
	.st30{fill:#898B8E;}
	.st31{fill:#60696D;}
	.st32{fill:#3C4749;}
	.st33{fill:#ADB3BF;}
	.st34{fill:#818584;}
	.st35{clip-path:url(#SVGID_8_);}
	.st36{fill:#1B151A;}
	.st37{fill:#002230;}
	.st38{fill:#FFDAB0;}
	.st39{fill:#481600;}
	.st40{fill:#FFA69D;}
</style>
<g>
	<defs>
		<rect id="SVGID_1_" width="280" height="200"/>
	</defs>
	<clipPath id="SVGID_2_">
		<use xlink:href="#SVGID_1_"  style="overflow:visible;"/>
	</clipPath>
	<g class="st0">
		<rect x="46.93" y="5.97" class="st1" width="36" height="219"/>
		<rect x="72.93" y="5.97" class="st2" width="10" height="219"/>
		<rect x="54.93" y="5.97" class="st3" width="10" height="219"/>
		<g>
			<path class="st4" d="M263.7,61.95H244v-8.51h23.34c1.11,0,1.78,1.22,1.18,2.16l-3.65,5.71C264.62,61.71,264.17,61.95,263.7,61.95
				z"/>
			<polygon class="st5" points="-171.65,73.76 -70.08,74.34 207.63,74.34 249.72,57.35 232.89,0.05 -180.35,10.49 			"/>
			<path class="st5" d="M87.47,78.53l-46.12-2.89V65.43h47.59v11.7C88.95,77.93,88.28,78.57,87.47,78.53z"/>
			<path class="st5" d="M125.27,79.27h-22.73c-3.66,0-6.63-2.97-6.63-6.63v-4.4h35.98v4.4C131.9,76.3,128.93,79.27,125.27,79.27z"/>
			<path class="st6" d="M-193.84,44.27l3.74-14.3h-11.87c-0.14,0-0.26,0.1-0.28,0.24c-0.26,1.88-0.54,3.83-0.79,5.63
				c-0.67,4.74-0.59,9.56,0.22,14.28l0.69,4.01c0.02,0.13,0.14,0.23,0.28,0.23h11.19l-2.19-3.53
				C-194.07,48.88-194.42,46.5-193.84,44.27z"/>
			<path class="st7" d="M-0.05-61.29c-1.37-0.01-3.74-0.13-6.3-0.33c-8.94,3.79-17.53,8.91-30.84,16.01
				c-17.03,9.08-32.73,20.06-37.02,22.93c0,0-0.71,1.55,1.45,3.87c5.08-3.46,11.86-7.92,18.15-11.9
				C-25.75-48.93-5.86-57.76,0.07-60.76C0.34-60.89,0.25-61.29-0.05-61.29z"/>
			<path class="st8" d="M-76.7-21.96c-2.13,0.21-6.52,0.66-12.13,1.25l1.14,0.96c0.5,0.42,1.14,0.65,1.8,0.65h14.23
				c-1.56-1.68-2.17-2.9-2.38-3.45c-0.06-0.16-0.26-0.22-0.41-0.13C-75.14-22.28-75.91-22.04-76.7-21.96z"/>
			<path class="st9" d="M250.49-44.06c-3.91-3.74-12.59-11.5-14.65-13.34c-0.26-0.23-0.31-0.61-0.12-0.9l-3.29,5.54
				c4.61,4.91,8.86,9.83,10.71,12.18c3.48,4.45,7.55,9.87,7.55,9.87h11.45C261.07-32.05,254.57-40.17,250.49-44.06z"/>
			<path class="st10" d="M-72.91-22.66l-3.18-0.37c-0.08-0.01-0.16,0.02-0.22,0.07l-1.05,0.95c-0.07,0.06-0.1,0.15-0.09,0.24
				l0.31,2.47c0.02,0.16,0.17,0.27,0.33,0.24l1.14-0.2c0.14-0.02,0.24-0.15,0.23-0.29l-0.06-1.88c0-0.15,0.1-0.27,0.25-0.29
				l1.98-0.23c0.12-0.01,0.21-0.1,0.24-0.21L-72.91-22.66z"/>
			<path class="st10" d="M-87.69-20.24l-0.69-0.57c-0.29-0.24-0.66-0.36-1.04-0.32c-15.43,1.64-39.53,4.34-51.47,6.48
				c-12.39,2.22-27.42,5.84-35.9,7.97c-4.28,1.07-8.02,3.66-10.53,7.28c-0.4,0.57-0.82,1.18-1.25,1.8c-0.21,0.3,0.04,0.71,0.4,0.66
				c24.53-3.16,49.26-6.27,60.11-7.39c15.09-1.56,28.68-3.02,41.37-4.22c4.17-3.41,9.18-7.06,15.01-11.03h-14.23
				C-86.55-19.59-87.19-19.82-87.69-20.24z"/>
			<path class="st11" d="M67.73-66.76c-11.87,0-24.25-0.77-49.78,4.39c-25.54,5.16-59.84,28.89-68.87,35.08
				c-6.05,4.15-9.43,8.88-11.71,16.74l120.3-7.89c3.89-17.52,9.49-42.43,10.81-48.32C68.48-66.76,67.73-66.76,67.73-66.76z"/>
			<path class="st10" d="M54.06-2.02c0.57-2.69,1.93-8.87,3.6-16.42l-120.3,7.89c-1.12,3.87-1.97,8.51-2.74,14.21
				C-67,15.72-64.35,47.25-62.6,65.2l116.15-3.42C53.12,38.5,52.72,4.33,54.06-2.02z"/>
			<path class="st11" d="M146.21-66.76h-8.14l1.32,1.98c1.76,0.06,5.11,0.18,9.23,0.33l-1.27-1.74
				C147.08-66.55,146.66-66.76,146.21-66.76z"/>
			<path class="st10" d="M155.02-41.33c1.51,2.27,1.57,5.2,0.16,7.53l-2.65,4.36c-1.9,3.12-5.2,5.13-8.85,5.36l-86.02,5.64
				c-1.68,7.55-3.04,13.73-3.6,16.42c-1.34,6.35-0.94,40.52-0.5,63.8l73.11-2.15c0,0,3.72-35.01,34-46.23l11.22-35.31
				c1.49-4.68,0.65-9.8-2.25-13.77l-21.03-28.77c-4.12-0.15-7.46-0.27-9.23-0.33L155.02-41.33z"/>
			<path class="st10" d="M-62.63-10.56c1.04-3.58,2.3-6.51,3.94-9.03h-12.98c-5.83,3.97-10.84,7.62-15.01,11.03
				C-78.33-9.35-70.36-10.04-62.63-10.56z"/>
			<path class="st10" d="M221.86-63.17c-3.35-3.06-6.15-5.48-7.72-6.82c-7.85-0.68-15.77-1.28-21.88-1.54
				c-18.38-0.77-94.02-3.1-143.36,0c-29,1.82-42.49,4.51-55.25,9.92c2.57,0.2,4.93,0.32,6.3,0.33c0.29,0,0.39,0.4,0.12,0.53
				c-5.93,2.99-25.82,11.82-54.68,30.05c-6.3,3.98-11.99,7.67-17.06,11.12h12.98c1.96-3.01,4.47-5.45,7.76-7.71
				c9.03-6.19,43.34-29.92,68.87-35.08c25.54-5.16,37.92-4.39,49.78-4.39h77h1.48c15.48,0.26,45.27,1.81,58.04,2.39
				C208.63-64.18,215.16-63.71,221.86-63.17z"/>
			<path class="st8" d="M181.08,9.98c-7.88,0-14.62,1.28-20.4,3.42c-30.28,11.23-34,46.23-34,46.23l-73.11,2.15L-62.58,65.2
				l-3.68,0.11v-5.16c0,0-5.16-47.72-54.43-47.72s-52.63,50.04-52.63,50.04l-26.3-1.26c-0.31-0.02-0.58-0.24-0.65-0.54l-0.53-2.29
				c-0.07-0.32-0.36-0.54-0.68-0.54h-0.65c-0.43,0-0.76,0.39-0.69,0.82l0.07,0.39c0.64,3.69,3.01,6.84,6.39,8.47l14.49,6.99
				c1.9,0.92,3.98,1.39,6.09,1.39h6.66c0.89,0,1.55-0.82,1.37-1.69c-0.65-3.09-0.99-6.28-0.99-9.56c0-26.15,21.76-47.36,48.6-47.36
				s48.6,21.2,48.6,47.36c0,4.04-0.05,7.25-0.14,9.79c-0.03,0.79,0.61,1.45,1.4,1.45h8.81H53.89h77.07l0,0
				c1-0.07,1.76-0.91,1.72-1.91c-0.11-3.02-0.13-6.69-0.13-11.31c0-18.12,10.45-33.86,25.79-41.82c6.8-3.53,14.57-5.53,22.81-5.53
				c26.84,0,48.6,21.2,48.6,47.36c0,1.46-0.01,2.8-0.02,4.05c-0.01,0.98,0.97,1.67,1.89,1.33l4.19-1.55v-7.89
				C235.79,58.6,230.22,9.98,181.08,9.98z"/>
			<path class="st8" d="M235.79,58.6v7.89l13.57-5.01c1.26-1.65,4.33-6,7.52-12.97c0.67-1.47,1.31-2.87,1.91-4.19l-25.2,4.8
				C235.34,54.7,235.79,58.6,235.79,58.6z"/>
			<path class="st10" d="M272.55,31.97V28.7c-4.22,0.12-5.33,1.06-6.87,2.5c-0.42,0.39-0.89,1.05-1.43,1.93c1.31,0,2.44,0,2.97,0
				C268.97,33.13,272.55,31.97,272.55,31.97z"/>
			<path class="st8" d="M272.55,31.97L272.55,31.97c0,0-3.58,1.16-5.32,1.16c-0.53,0-1.66,0-2.97,0c-1.77,2.93-4.18,8.4-7.38,15.38
				c-3.19,6.97-6.26,11.32-7.52,12.97l11.28-4.16c1.74-0.64,3.34-1.59,4.74-2.8l4.29-3.71c0.48-0.42,0.81-0.99,0.92-1.62l2.91-16.07
				C273.61,32.51,273.15,31.97,272.55,31.97z"/>
			<path class="st11" d="M162.32-66.28c-6.05-0.23-11.67-0.41-16.11-0.49c0.45,0,0.87,0.21,1.13,0.57l1.27,1.74
				c4.75,0.17,10.52,0.39,16.11,0.6L162.32-66.28z"/>
			<path class="st11" d="M216.18-60.82c-0.5-0.51-1.16-0.81-1.87-0.84c-4.54-0.22-22.13-1.05-32.18-1.5
				c-4.03-0.18-10.57-0.44-17.4-0.69l30.41,30.65c1.58,1.59,3.73,2.49,5.97,2.49h41.52c-2.18-2.71-5.43-6.78-8.13-10.25
				C230.61-45.97,219.25-57.68,216.18-60.82z"/>
			<path class="st9" d="M201.11-33.52c-1.48,0-2.93-0.6-3.98-1.66l-25.4-25.6c4.46,0.17,7.9,0.32,10.28,0.42
				c10.26,0.46,28.6,1.33,32.17,1.5c6.78,6.95,15.11,15.76,18.1,19.61c1.43,1.84,3.01,3.84,4.51,5.73H201.11z"/>
			<path class="st11" d="M243.14-40.58c-2.81-3.6-11.22-13.16-17.99-19.54c-1.14-1.07-2.24-2.09-3.29-3.05
				c-6.7-0.53-13.23-1.01-17.61-1.2c-9.11-0.41-26.87-1.32-41.93-1.9l2.41,2.43c6.83,0.26,13.37,0.52,17.4,0.69
				c10.05,0.45,27.64,1.28,32.18,1.5c0.71,0.03,1.37,0.33,1.87,0.84c3.07,3.14,14.43,14.85,18.32,19.85
				c2.7,3.47,5.95,7.54,8.13,10.25h8.05C250.68-30.71,246.62-36.13,243.14-40.58z"/>
			<path class="st11" d="M155.02-41.33l-16.95-25.43H68.48c-1.32,5.89-6.92,30.8-10.81,48.32l86.02-5.64
				c3.65-0.24,6.95-2.24,8.85-5.36l2.65-4.36C156.6-36.13,156.53-39.06,155.02-41.33z"/>
			<path class="st9" d="M152.69-39.77l-16.12-24.19H73.22l-4.43,41.98l74.71-4.9c2.73-0.18,5.21-1.68,6.64-4.02l2.65-4.36
				C153.63-36.65,153.59-38.42,152.69-39.77z"/>
			<path class="st10" d="M147.96-48.58"/>
			<path class="st12" d="M237.96-18.52c-0.23,0-0.36,0.25-0.24,0.43c1.26,1.88,6.37,9.21,10.16,10.98c1.1,0.51,3.48,1.4,6.6,2.43
				l-11.39-13.81L237.96-18.52z"/>
			<path class="st13" d="M258.44-18.39l-15.35-0.1l11.39,13.81c1.62,0.54,3.45,1.12,5.39,1.72c-0.88-1.98-1.42-4.17-1.42-6.67
				C258.44-14.55,258.44-17.12,258.44-18.39z"/>
			<path class="st12" d="M266.72-0.94c0.7,0.19,1.4,0.39,2.1,0.58c0,0,0.25-0.65,0.25-2.1s0-14.7,0-14.7c0-0.64-0.52-1.16-1.16-1.16
				l-3.65-0.02c0,1.28,0,3.86,0,8.73C264.25-6.25,265.24-3.42,266.72-0.94z"/>
			<path class="st13" d="M264.25-9.63c0-4.87,0-7.45,0-8.73l-2.9-0.02c0,1.28,0,3.85,0,8.75c0,2.94,0.75,5.46,1.92,7.69
				c1.13,0.33,2.29,0.66,3.46,0.99C265.24-3.42,264.25-6.25,264.25-9.63z"/>
			<path class="st14" d="M261.35-18.37l-2.9-0.02c0,1.27,0,3.85,0,8.77c0,2.5,0.54,4.69,1.42,6.67c1.1,0.34,2.23,0.68,3.4,1.02
				c-1.17-2.24-1.92-4.75-1.92-7.69C261.35-14.52,261.35-17.1,261.35-18.37z"/>
			<path class="st15" d="M266.74-10.91h-18.38c-0.37,0-0.72-0.16-0.95-0.45l-5.27-6.35c-0.44-0.53-0.36-1.3,0.16-1.74
				c0.52-0.44,1.31-0.36,1.74,0.16l4.9,5.9h17.8C267.42-13.38,267.42-10.91,266.74-10.91z"/>
			<path class="st10" d="M243.93,7.11l3.95-14.22c-3.79-1.77-8.89-9.1-10.16-10.98c-0.13-0.19,0.01-0.44,0.24-0.43l29.94,0.19
				c0,0-0.19-2.9-0.58-4.45c-0.33-1.32-2.92-6.04-3.67-7.38c-0.12-0.22-0.36-0.36-0.61-0.36h-0.75c0,0-0.06-0.07-0.15-0.19h-11.46
				h-49.57c-2.24,0-4.39-0.89-5.97-2.49l-30.41-30.65c-5.59-0.21-11.37-0.43-16.11-0.6l21.03,28.77c2.9,3.97,3.74,9.08,2.25,13.77
				L160.68,13.4c5.78-2.14,12.53-3.42,20.4-3.42c14.57,0,25.3,4.28,33.2,10.29l25.12-8.39C241.61,11.14,243.31,9.35,243.93,7.11z"/>
			<path class="st10" d="M268.81-0.37c-9.33-2.52-18.43-5.57-20.94-6.74l-3.95,14.22c-0.62,2.25-2.32,4.03-4.53,4.77l-25.12,8.39
				c11.2,8.53,16.69,20.55,19.3,28.85l25.2-4.8c3.14-6.88,5.38-11.7,6.89-13.12c1.53-1.44,2.65-2.38,6.87-2.5v-1.17V7.4
				c0-1.02-0.28-2.01-0.8-2.88L268.81-0.37z"/>
			<path class="st16" d="M-172.35,13.45c-0.87,0.72-1.93,1.16-3.05,1.27l-9.31,0.88c0.12,0.2,0.26,0.38,0.42,0.53
				c1.56,1.34,13.13,0.45,19.74-8.38c-0.84,0.2-1.62,0.58-2.29,1.13L-172.35,13.45z"/>
			<path class="st17" d="M-147.77-2.05c-3.95,0.48-8.23,1.01-12.7,1.57c-2.22,0.28-4.49,0.56-6.8,0.86
				c-3.24,0.41-6.54,0.83-9.88,1.26c-3.43,0.44-6.9,0.88-10.37,1.33c-0.19,0.02-5.4,5.7-7.27,8.39c0.41,1.29,0.55,2.66,0.6,3.66
				c0.04,0.8,0.73,1.41,1.53,1.33l7.95-0.75l5.37-0.51l3.94-0.37c1.12-0.11,2.18-0.55,3.05-1.27l5.52-4.58
				c0.66-0.55,1.45-0.93,2.29-1.13c0.06-0.01,0.12-0.04,0.18-0.05l5.42-1.1l6.47-1.31c0.69-0.14,1.33-0.45,1.87-0.91l8.44-7.11
				C-143.94-2.52-145.82-2.29-147.77-2.05z"/>
			<path class="st12" d="M-147.77-2.05c-1.75,1.63-5.85,5.25-11.18,8.65l6.47-1.31c0.69-0.14,1.33-0.45,1.87-0.91l8.44-7.11
				C-143.94-2.52-145.82-2.29-147.77-2.05z"/>
			<path class="st11" d="M-180.6,35.11c-0.07-0.54-0.29-1.06-0.66-1.48l-1.9-2.2c-0.8-0.92-1.96-1.45-3.18-1.45h-4.25l-1.34,5.14
				l-2.13,8.15l-0.27,1.02c-0.58,2.23-0.23,4.6,0.99,6.56l2.19,3.53h2.36c1.9,0,3.56-1.27,4.06-3.11l2.16-8l1.91-7.08
				C-180.57,35.82-180.55,35.46-180.6,35.11z"/>
			<path class="st10" d="M-62.59,65.2c-1.75-17.95-4.4-49.48-2.78-61.54c0.77-5.71,1.62-10.34,2.74-14.21
				c-19.5,1.31-40.42,3.64-65.42,6.22c-3.45,0.36-8.31,0.91-14.11,1.61l-8.44,7.11c-0.54,0.45-1.18,0.77-1.87,0.91l-11.88,2.41
				c-0.91,0.18-1.75,0.59-2.46,1.18l-5.52,4.58c-0.87,0.72-1.93,1.16-3.05,1.27l-17.26,1.63c-0.8,0.08-1.49-0.52-1.53-1.32
				c-0.05-1-0.19-2.37-0.6-3.67c-2.26,3.25-4.3,6.2-5.51,7.94c-0.75,1.08-1.23,2.32-1.42,3.62c-0.21,1.53-0.53,3.79-0.88,6.25
				c-0.06,0.42,0.27,0.8,0.69,0.8h15.56c1.22,0,2.38,0.53,3.18,1.45l1.9,2.2c0.6,0.7,0.83,1.65,0.59,2.55l-4.07,15.09
				c-0.5,1.83-2.16,3.11-4.06,3.11h-12.95c-0.43,0-0.76,0.39-0.69,0.82l0.46,2.64h0.5c0.33,0,0.61,0.23,0.68,0.54l0.53,2.29
				c0.07,0.31,0.34,0.53,0.65,0.54l26.3,1.26c0,0,3.35-50.04,52.62-50.04s54.43,47.72,54.43,47.72v5.16L-62.59,65.2z"/>
			<path class="st8" d="M231.38-53.87c0.35,0.37,0.7,0.74,1.05,1.11l3.29-5.54l2.32-3.65c0.04-0.06,0.11-0.11,0.18-0.12l-3.41,0.6
				L231.38-53.87z"/>
			<path class="st11" d="M244.53-66.99c-3.57-0.39-16.89-1.82-30.4-3c2.07,1.76,6.25,5.38,11.01,9.87c2,1.88,4.14,4.05,6.24,6.25
				l3.44-7.6l3.41-0.6l5.32-1.06c0.23-0.05,0.42-0.2,0.51-0.42l1.04-2.47C245.28-66.46,245-66.94,244.53-66.99z"/>
			<g>
				<g>
					<circle class="st18" cx="-120.48" cy="70.1" r="42.87"/>
					<circle class="st19" cx="-120.48" cy="70.1" r="27.24"/>
					<circle class="st20" cx="-120.48" cy="70.1" r="26"/>
					<g>
						<g>
							<g>
								<defs>
									<circle id="SVGID_3_" cx="-120.48" cy="70.1" r="27.24"/>
								</defs>
								<clipPath id="SVGID_4_">
									<use xlink:href="#SVGID_3_"  style="overflow:visible;"/>
								</clipPath>
								<g class="st21">
									<g>
										<path class="st22" d="M-143.5,47.87l11.71,17.1c0.2,0.29,0.62,0.33,0.87,0.08l5.39-5.39c0.25-0.25,0.21-0.67-0.08-0.87
											l-17.1-11.71C-143.23,46.73-143.85,47.35-143.5,47.87z"/>
										<polygon class="st23" points="-141.89,48.69 -126.39,59.3 -131.28,64.19 										"/>
										<path class="st22" d="M-142.71,93.11l17.1-11.71c0.29-0.2,0.33-0.62,0.08-0.87l-5.39-5.39c-0.25-0.25-0.67-0.21-0.87,0.08
											l-11.71,17.1C-143.85,92.84-143.23,93.47-142.71,93.11z"/>
										<polygon class="st23" points="-131.28,76.01 -126.39,80.89 -141.89,91.5 										"/>
										<path class="st22" d="M-97.47,92.33l-11.71-17.1c-0.2-0.29-0.62-0.33-0.87-0.08l-5.39,5.39
											c-0.25,0.25-0.21,0.67,0.08,0.87l17.1,11.71C-97.74,93.47-97.11,92.84-97.47,92.33z"/>
										<polygon class="st23" points="-114.58,80.89 -109.69,76.01 -99.08,91.5 										"/>
										<path class="st22" d="M-98.26,47.08l-17.1,11.71c-0.29,0.2-0.33,0.62-0.08,0.87l5.39,5.39c0.25,0.25,0.67,0.21,0.87-0.08
											l11.71-17.1C-97.11,47.35-97.74,46.73-98.26,47.08z"/>
										<polygon class="st23" points="-114.57,59.31 -99.08,48.69 -109.69,64.19 										"/>
									</g>
									<g>
										<path class="st22" d="M-152.47,70.65l20.37,3.81c0.35,0.07,0.67-0.2,0.67-0.56v-7.62c0-0.35-0.32-0.62-0.67-0.56
											l-20.37,3.81C-153.09,69.65-153.09,70.54-152.47,70.65z"/>
										<polygon class="st23" points="-150.75,70.1 -132.29,66.64 -132.29,73.55 										"/>
										<path class="st22" d="M-119.93,102.09l3.81-20.37c0.07-0.35-0.2-0.67-0.56-0.67h-7.62c-0.35,0-0.62,0.32-0.56,0.67
											l3.81,20.37C-120.93,102.71-120.04,102.71-119.93,102.09z"/>
										<polygon class="st23" points="-123.94,81.91 -117.03,81.91 -120.48,100.37 										"/>
										<path class="st22" d="M-88.49,69.54l-20.37-3.81c-0.35-0.07-0.67,0.2-0.67,0.56v7.62c0,0.35,0.32,0.62,0.67,0.56
											l20.37-3.81C-87.88,70.54-87.88,69.66-88.49,69.54z"/>
										<polygon class="st23" points="-108.67,66.65 -90.21,70.1 -108.67,73.55 										"/>
										<path class="st22" d="M-121.04,38.11l-3.81,20.37c-0.07,0.35,0.2,0.67,0.56,0.67h7.62c0.35,0,0.62-0.32,0.56-0.67
											l-3.81-20.37C-120.04,37.49-120.92,37.49-121.04,38.11z"/>
										<polygon class="st23" points="-123.94,58.29 -120.48,39.83 -117.03,58.29 										"/>
									</g>
								</g>
							</g>
						</g>
					</g>
					<circle class="st10" cx="-120.48" cy="70.1" r="12"/>
					<circle class="st22" cx="-120.48" cy="70.1" r="8.13"/>
					<circle class="st23" cx="-120.48" cy="70.1" r="6.16"/>
					<path class="st24" d="M-120.48,33.04c20.56,0,37.28,16.4,37.82,36.83c0.01-0.34,0.03-0.68,0.03-1.02
						c0-20.9-16.94-37.85-37.85-37.85c-20.9,0-37.85,16.94-37.85,37.85c0,0.34,0.02,0.68,0.03,1.02
						C-157.76,49.43-141.04,33.04-120.48,33.04z"/>
				</g>
			</g>
			<g class="st25">
				<g>
					<g>
						<defs>
							<path id="SVGID_5_" d="M267.9-18.33l-3.65-0.02l-2.9-0.02l-2.9-0.02l-15.35-0.1l-5.13-0.03c-0.23,0-0.36,0.25-0.24,0.43
								c1.26,1.88,6.37,9.21,10.16,10.98c1.1,0.51,3.48,1.4,6.6,2.43c1.62,0.54,3.45,1.12,5.39,1.72c1.1,0.34,2.23,0.68,3.4,1.02
								c1.13,0.33,2.29,0.66,3.46,0.99c0.7,0.19,1.4,0.39,2.1,0.58c0,0,0.25-0.65,0.25-2.1s0-14.7,0-14.7
								C269.06-17.81,268.54-18.33,267.9-18.33z"/>
						</defs>
						<clipPath id="SVGID_6_">
							<use xlink:href="#SVGID_5_"  style="overflow:visible;"/>
						</clipPath>
						<g class="st26">
							<g>
								<rect x="209.46" y="-19.92" class="st27" width="93.97" height="0.39"/>
							</g>
							<g>
								<rect x="209.46" y="-18.24" class="st27" width="93.97" height="0.39"/>
							</g>
							<g>
								<rect x="209.46" y="-16.55" class="st27" width="93.97" height="0.39"/>
							</g>
							<g>
								<rect x="209.46" y="-14.86" class="st27" width="93.97" height="0.39"/>
							</g>
							<g>
								<rect x="209.46" y="-13.18" class="st27" width="93.97" height="0.39"/>
							</g>
							<g>
								<rect x="209.46" y="-11.49" class="st27" width="93.97" height="0.39"/>
							</g>
							<g>
								<rect x="209.46" y="-30.05" class="st27" width="93.97" height="0.39"/>
							</g>
							<g>
								<rect x="209.46" y="-28.36" class="st27" width="93.97" height="0.39"/>
							</g>
							<g>
								<rect x="209.46" y="-26.67" class="st27" width="93.97" height="0.39"/>
							</g>
							<g>
								<rect x="209.46" y="-24.99" class="st27" width="93.97" height="0.39"/>
							</g>
							<g>
								<rect x="209.46" y="-23.3" class="st27" width="93.97" height="0.39"/>
							</g>
							<g>
								<rect x="209.46" y="-21.61" class="st27" width="93.97" height="0.39"/>
							</g>
							<g>
								<rect x="209.46" y="-9.8" class="st27" width="93.97" height="0.39"/>
							</g>
							<g>
								<rect x="209.46" y="-8.11" class="st27" width="93.97" height="0.39"/>
							</g>
							<g>
								<rect x="209.46" y="-6.43" class="st27" width="93.97" height="0.39"/>
							</g>
							<g>
								<rect x="209.46" y="-4.74" class="st27" width="93.97" height="0.39"/>
							</g>
							<g>
								<rect x="209.46" y="-3.05" class="st27" width="93.97" height="0.39"/>
							</g>
							<g>
								<rect x="209.46" y="-1.37" class="st27" width="93.97" height="0.39"/>
							</g>
							<g>
								<rect x="209.46" y="0.32" class="st27" width="93.97" height="0.39"/>
							</g>
							<g>
								<rect x="209.46" y="2.01" class="st27" width="93.97" height="0.39"/>
							</g>
							<g>
								<rect x="209.46" y="3.7" class="st27" width="93.97" height="0.39"/>
							</g>
							<g>
								<rect x="209.46" y="5.38" class="st27" width="93.97" height="0.39"/>
							</g>
							<g>
								<rect x="209.46" y="7.07" class="st27" width="93.97" height="0.39"/>
							</g>
							<g>
								<rect x="209.46" y="8.76" class="st27" width="93.97" height="0.39"/>
							</g>
						</g>
					</g>
				</g>
			</g>
			<g>
				<g>
					<g>
						
							<ellipse transform="matrix(0.9986 -0.0527 0.0527 0.9986 0.3072 1.579)" class="st10" cx="30.09" cy="-5.04" rx="6.32" ry="4.39"/>
					</g>
					<g class="st28">
						
							<ellipse transform="matrix(0.9986 -0.0527 0.0527 0.9986 0.3072 1.579)" class="st29" cx="30.09" cy="-5.04" rx="6.32" ry="4.39"/>
					</g>
				</g>
				<path class="st10" d="M45.06-4.09L19.3-2.73c-0.53,0.03-0.99-0.38-1.02-0.92l-0.07-1.29c-0.03-0.53,0.38-0.99,0.92-1.02
					l25.76-1.36c0.53-0.03,0.99,0.38,1.02,0.92l0.07,1.29C46-4.57,45.59-4.11,45.06-4.09z"/>
			</g>
			<g>
				<g>
					<g>
						
							<ellipse transform="matrix(0.9986 -0.0527 0.0527 0.9986 0.7378 7.1108)" class="st10" cx="135.2" cy="-10.44" rx="6.32" ry="4.39"/>
					</g>
					<g class="st28">
						
							<ellipse transform="matrix(0.9986 -0.0527 0.0527 0.9986 0.7378 7.1108)" class="st29" cx="135.2" cy="-10.44" rx="6.32" ry="4.39"/>
					</g>
				</g>
				<path class="st10" d="M150.18-9.49l-25.76,1.36c-0.53,0.03-0.99-0.38-1.02-0.92l-0.07-1.29c-0.03-0.53,0.38-0.99,0.92-1.02
					l25.76-1.36c0.53-0.03,0.99,0.38,1.02,0.92l0.07,1.29C151.12-9.98,150.71-9.52,150.18-9.49z"/>
			</g>
			<path class="st7" d="M59.28-64c-9.26,0-20.81,0.34-40.78,4.37C3.76-56.65-16.19-46.92-40.87-30.69v15.9l88.33-5.79
				c1.29-5.21,2.85-11.34,4.53-17.55C54.38-46.98,59.1-60,60.57-64C60.15-64,59.72-64,59.28-64z"/>
			<path class="st11" d="M-48.9-25.29l-0.44,0.3c-4.48,3.07-7.28,6.44-9.28,11.36l17.76-1.16v-15.9
				C-43.49-28.96-46.17-27.16-48.9-25.29z"/>
			<g>
				<path class="st11" d="M-50.57-22.58c0,0-3,2.42-3.97,3.48c-0.75,0.83-1.63,2.96-1.97,3.86c-0.07,0.19,0.08,0.39,0.28,0.38
					l6.36-0.44c0.08-0.01,0.16-0.05,0.21-0.12l2.28-3.29L-50.57-22.58z"/>
				<path class="st8" d="M-54.42-26.06c0.48-2.03,6.85-6,8.59-6.67c1.74-0.68,7-0.95,7.93-0.48c1.93,0.97,3.87,3.19,3.87,5.51
					c0,1.74,0,8.03,0,9.38s-2.32,2.71-5.32,2.71c-1.84,0-8.54,0.35-10.35-0.29C-51.51-16.54-54.9-24.03-54.42-26.06z"/>
			</g>
			<path class="st16" d="M-1.66-63.28c5.16-1.81,11.61-4.39,31.99-6.45c20.38-2.06,46.43-3.07,65.52-3.33
				c19.09-0.26,52.62,0.52,68.87,0.77c16.25,0.26,42.82,2.06,49.78,2.58c6.96,0.52,28.89,3.35,28.89,3.35"/>
			<path class="st16" d="M-177.42-6.31c5.16-1.29,25.8-6.45,37.92-8.51s49.53-6.19,49.53-6.19"/>
			<circle class="st30" cx="180.93" cy="70.97" r="25"/>
			<circle class="st31" cx="180.93" cy="70.97" r="15"/>
			<circle class="st32" cx="180.93" cy="70.97" r="6"/>
		</g>
		<path class="st3" d="M116.93,85.97h-7c-3.87,0-7-3.13-7-7v0h21v0C123.93,82.83,120.79,85.97,116.93,85.97z"/>
		<rect x="-24.07" y="87.97" class="st33" width="140" height="15"/>
		<rect x="109.93" y="85.97" class="st34" width="6" height="9"/>
		<g>
			<g>
				<circle class="st18" cx="134.77" cy="81.51" r="44.84"/>
				<circle class="st19" cx="134.77" cy="81.51" r="28.49"/>
				<circle class="st20" cx="134.77" cy="81.51" r="27.19"/>
				<g>
					<g>
						<g>
							<defs>
								<circle id="SVGID_7_" cx="134.77" cy="81.51" r="28.49"/>
							</defs>
							<clipPath id="SVGID_8_">
								<use xlink:href="#SVGID_7_"  style="overflow:visible;"/>
							</clipPath>
							<g class="st35">
								<g>
									<path class="st22" d="M110.7,58.26l12.25,17.89c0.21,0.3,0.65,0.35,0.91,0.08l5.64-5.64c0.26-0.26,0.22-0.7-0.08-0.91
										l-17.89-12.25C110.98,57.06,110.33,57.71,110.7,58.26z"/>
									<polygon class="st23" points="112.38,59.11 128.59,70.21 123.48,75.33 									"/>
									<path class="st22" d="M111.52,105.57l17.89-12.25c0.3-0.21,0.35-0.65,0.08-0.91l-5.64-5.64c-0.26-0.26-0.7-0.22-0.91,0.08
										l-12.25,17.89C110.32,105.29,110.98,105.95,111.52,105.57z"/>
									<polygon class="st23" points="123.48,87.69 128.58,92.79 112.38,103.89 									"/>
									<path class="st22" d="M158.84,104.76L146.6,86.87c-0.21-0.3-0.65-0.35-0.91-0.08l-5.64,5.64c-0.26,0.26-0.22,0.7,0.08,0.91
										l17.89,12.25C158.56,105.95,159.21,105.29,158.84,104.76z"/>
									<polygon class="st23" points="140.95,92.79 146.06,87.69 157.16,103.89 									"/>
									<path class="st22" d="M158.02,57.43l-17.89,12.25c-0.3,0.21-0.35,0.65-0.08,0.91l5.64,5.64c0.26,0.26,0.7,0.22,0.91-0.08
										l12.25-17.89C159.21,57.71,158.56,57.06,158.02,57.43z"/>
									<polygon class="st23" points="140.95,70.22 157.16,59.11 146.06,75.33 									"/>
								</g>
								<g>
									<path class="st22" d="M101.31,82.08l21.31,3.99c0.37,0.07,0.7-0.21,0.7-0.59v-7.97c0-0.37-0.33-0.65-0.7-0.59l-21.31,3.99
										C100.67,81.04,100.67,81.97,101.31,82.08z"/>
									<polygon class="st23" points="103.1,81.51 122.41,77.89 122.41,85.12 									"/>
									<path class="st22" d="M135.35,114.97l3.99-21.31c0.07-0.37-0.21-0.7-0.59-0.7h-7.97c-0.37,0-0.65,0.33-0.59,0.7l3.99,21.31
										C134.31,115.62,135.24,115.62,135.35,114.97z"/>
									<polygon class="st23" points="131.16,93.86 138.38,93.86 134.77,113.17 									"/>
									<path class="st22" d="M168.23,80.92l-21.31-3.99c-0.37-0.07-0.7,0.21-0.7,0.59v7.97c0,0.37,0.33,0.65,0.7,0.59l21.31-3.99
										C168.87,81.97,168.87,81.05,168.23,80.92z"/>
									<polygon class="st23" points="147.12,77.9 166.44,81.51 147.12,85.12 									"/>
									<path class="st22" d="M134.19,48.05l-3.99,21.31c-0.07,0.37,0.21,0.7,0.59,0.7h7.97c0.37,0,0.65-0.33,0.59-0.7l-3.99-21.31
										C135.24,47.4,134.31,47.4,134.19,48.05z"/>
									<polygon class="st23" points="131.16,69.15 134.78,49.85 138.38,69.15 									"/>
								</g>
							</g>
						</g>
					</g>
				</g>
				<circle class="st10" cx="134.77" cy="81.51" r="12.55"/>
				<circle class="st22" cx="134.77" cy="81.51" r="8.5"/>
				<circle class="st23" cx="134.77" cy="81.51" r="6.44"/>
				<path class="st24" d="M134.77,42.74c21.5,0,38.99,17.15,39.56,38.52c0.01-0.36,0.03-0.71,0.03-1.07
					c0-21.86-17.72-39.59-39.59-39.59c-21.86,0-39.59,17.72-39.59,39.59c0,0.36,0.02,0.71,0.03,1.07
					C95.78,59.89,113.26,42.74,134.77,42.74z"/>
			</g>
		</g>
		<g>
			<g>
				<path class="st36" d="M238.75,302.66l-0.71,8.2c-0.04,0.43-0.14,0.86-0.29,1.27l0,0c-0.98,2.61-4.02,3.79-6.51,2.55l-12.05-6.01
					c-2.63-1.31-3.43-4.71-1.66-7.06l0.12-0.17c0.25-0.32,0.53-0.61,0.84-0.85l8.8-6.97l8.87,4.42
					C237.89,298.9,238.92,300.73,238.75,302.66z"/>
				<path class="st36" d="M211.01,288.74l-3.96,9.51c-0.69,1.67-2.65,2.39-4.27,1.59l-27.15-13.53c-1.53-0.76-2.17-2.63-1.4-4.17
					l0,0c0.54-1.08,1.65-1.75,2.86-1.72l24.2,0.58c0.45,0.01,0.9,0.12,1.31,0.33l6.92,3.45
					C210.99,285.49,211.64,287.24,211.01,288.74z"/>
				<path class="st37" d="M167.6,94.36l16.74,33.47c0,0,8.81-0.46,20.88-3.45c12.07-2.99,13.39,10.4,6.46,12.33
					s-33.61,8.9-33.61,8.9l-21.97-38.7C152.62,102.53,167.6,94.36,167.6,94.36z"/>
				<path class="st38" d="M152.12,122.65l3.39,6.45c0.46,0.89-0.08,1.96-1.07,2.11l-11.25,1.71c-0.3,0.04-0.6-0.01-0.87-0.14
					l-8.97-4.57c-1.23-0.62-0.97-2.45,0.38-2.72l8.27-1.63c1.31-0.25,1.6-2,0.45-2.67l-3.49-2.04c-0.35-0.2-0.6-0.55-0.69-0.95l0,0
					c-0.26-1.19,0.96-2.14,2.05-1.61l11.16,5.43C151.76,122.15,151.98,122.37,152.12,122.65z"/>
				<path class="st2" d="M243.16,191.68l-2.88-54.43c-0.28-5.35-4.22-9.8-9.51-10.71l-18.17-3.14c-7.07-1.23-13.51,4.26-13.44,11.42
					l0.36,37.15c0.06,5.8-2.64,11.29-1.6,21.75l0.21,86.11l14.95,8.08l2.62-91.05l9.53,98.37l14.18,7.07l-0.65-92.29
					C241.97,204.45,243.49,198.09,243.16,191.68z"/>
				<path class="st1" d="M151.46,120.71l36.98,16.1l37.22-6.9c12.68-2.14,14.91,13.26,4.16,15.35l-43.75,7.37l-40.89-18.66
					L151.46,120.71z"/>
				
					<ellipse transform="matrix(0.446 -0.895 0.895 0.446 26.0734 273.793)" class="st38" cx="234.21" cy="115.83" rx="5.38" ry="3.97"/>
				<path class="st38" d="M234.58,102.43c2.66,6.3,0.01,13.92-4.02,20.76c-4.07,6.88-15.18,5.08-18.99,0.02
					c-3.04-4.05-0.52-9.11-0.52-9.11s0,0-4.31-1.52c2.78-5.58,9.8-18.28,14.91-17.24C230.26,97.11,232.54,97.6,234.58,102.43z"/>
				<g>
					<path class="st37" d="M199.63,98.92c5.32,4.55,34.01,8.45,34.01,8.45C217.5,95.87,195.74,95.58,199.63,98.92z"/>
					<polygon class="st39" points="230.02,106.2 229.87,118.02 235.47,109.34 					"/>
					<path class="st37" d="M212.15,99.15c3.42-6.86,11.74-9.65,18.6-6.23c6.86,3.42,9.65,11.74,6.23,18.6"/>
				</g>
				
					<ellipse transform="matrix(0.0473 -0.9989 0.9989 0.0473 99.6487 321.767)" class="st16" cx="218.5" cy="108.65" rx="2.55" ry="0.85"/>
				<path class="st40" d="M221.94,117.61l-8.36,0.27C218.39,123.44,221.94,117.61,221.94,117.61z"/>
			</g>
			<path class="st1" d="M206.06,176.44c18.88,9.41,35.59,6.96,35.59,6.96"/>
		</g>
	</g>
</g>
</svg>
