<?xml version="1.0" encoding="utf-8"?>
<!-- Generator: Adobe Illustrator 24.0.1, SVG Export Plug-In . SVG Version: 6.00 Build 0)  -->
<svg version="1.1" id="レイヤー_1" xmlns="http://www.w3.org/2000/svg" xmlns:xlink="http://www.w3.org/1999/xlink" x="0px"
	 y="0px" viewBox="0 0 280 200" style="enable-background:new 0 0 280 200;" xml:space="preserve">
<style type="text/css">
	.st0{clip-path:url(#SVGID_2_);}
	.st1{fill:#717071;}
	.st2{fill:#261C19;}
	.st3{fill:#3C3736;}
	.st4{fill:#AACDE6;}
	.st5{fill:#2E2624;}
	.st6{fill:#398CAC;}
	.st7{fill:#3B3D40;}
	.st8{fill:#383231;}
	.st9{fill:#E7372F;}
	.st10{fill:#CCCCCC;}
	.st11{fill:#666666;}
	.st12{opacity:0.8;fill:#E6E6E6;enable-background:new    ;}
	.st13{fill:none;}
	.st14{fill:#DDEAEC;}
	.st15{fill:#1D1D1D;}
	.st16{fill:#888888;}
	.st17{fill:#231815;}
	.st18{clip-path:url(#SVGID_4_);}
	.st19{fill:#9E9E9F;}
	.st20{fill:#DBDCDC;}
	.st21{opacity:0.03;fill:#FFFFFF;enable-background:new    ;}
	.st22{opacity:0.3;fill:url(#SVGID_5_);enable-background:new    ;}
	.st23{fill:#595757;}
	.st24{fill:#B4B4B5;}
	.st25{clip-path:url(#SVGID_7_);}
	.st26{opacity:0.2;fill:url(#SVGID_8_);enable-background:new    ;}
	.st27{opacity:0.7;}
	.st28{clip-path:url(#SVGID_10_);}
	.st29{fill:#FFFFFF;}
	.st30{opacity:0.4;}
	.st31{fill:#040000;}
	.st32{fill:#1B151A;}
	.st33{fill:#002230;}
	.st34{opacity:0.25;fill:url(#SVGID_11_);enable-background:new    ;}
	.st35{fill:#D3E7EA;}
	.st36{fill:#5F9500;}
	.st37{fill:#FFDAB0;}
	.st38{fill:#00395B;}
	.st39{fill:#204D7E;}
	.st40{fill:#481600;}
	.st41{fill:#FFA69D;}
	.st42{fill:#FFEB6C;stroke:#FFEB6C;stroke-linecap:round;stroke-linejoin:round;stroke-miterlimit:10;}
</style>
<g>
	<g>
		<g>
			<g>
				<defs>
					<rect id="SVGID_1_" width="280" height="200"/>
				</defs>
				<clipPath id="SVGID_2_">
					<use xlink:href="#SVGID_1_"  style="overflow:visible;"/>
				</clipPath>
				<g class="st0">
					<path class="st1" d="M534.72,142.01h-19.7v-8.51h23.34c1.11,0,1.78,1.22,1.18,2.16l-3.65,5.71
						C535.64,141.77,535.19,142.01,534.72,142.01z"/>
					<polygon class="st2" points="99.37,153.82 200.94,154.4 478.65,154.4 520.74,137.41 503.91,80.11 90.67,90.55 					"/>
					<path class="st2" d="M358.49,158.59l-46.12-2.89v-10.21h47.59v11.7C359.97,157.99,359.3,158.63,358.49,158.59z"/>
					<path class="st2" d="M396.29,159.33h-22.73c-3.66,0-6.63-2.97-6.63-6.63v-4.4h35.98v4.4
						C402.92,156.36,399.95,159.33,396.29,159.33z"/>
					<path class="st3" d="M77.18,124.33l3.74-14.3H69.05c-0.14,0-0.26,0.1-0.28,0.24c-0.26,1.88-0.54,3.83-0.79,5.63
						c-0.67,4.74-0.59,9.56,0.22,14.28l0.69,4.01c0.02,0.13,0.14,0.23,0.28,0.23h11.19l-2.19-3.53
						C76.95,128.94,76.6,126.56,77.18,124.33z"/>
					<path class="st4" d="M270.97,18.77c-1.37-0.01-3.74-0.13-6.3-0.33c-8.94,3.79-17.53,8.91-30.84,16.01
						c-17.03,9.08-32.73,20.06-37.02,22.93c0,0-0.71,1.55,1.45,3.87c5.08-3.46,11.86-7.92,18.15-11.9
						c28.86-18.22,48.75-27.05,54.68-30.05C271.36,19.17,271.27,18.77,270.97,18.77z"/>
					<path class="st5" d="M194.32,58.1c-2.13,0.21-6.52,0.66-12.13,1.25l1.14,0.96c0.5,0.42,1.14,0.65,1.8,0.65h14.23
						c-1.56-1.68-2.17-2.9-2.38-3.45c-0.06-0.16-0.26-0.22-0.41-0.13C195.88,57.78,195.11,58.02,194.32,58.1z"/>
					<path class="st6" d="M521.51,36c-3.91-3.74-12.59-11.5-14.65-13.34c-0.26-0.23-0.31-0.61-0.12-0.9l-3.29,5.54
						c4.61,4.91,8.86,9.83,10.71,12.18c3.48,4.45,7.55,9.87,7.55,9.87h11.45C532.09,48.01,525.59,39.89,521.51,36z"/>
					<path class="st7" d="M198.11,57.4l-3.18-0.37c-0.08-0.01-0.16,0.02-0.22,0.07l-1.05,0.95c-0.07,0.06-0.1,0.15-0.09,0.24
						l0.31,2.47c0.02,0.16,0.17,0.27,0.33,0.24l1.14-0.2c0.14-0.02,0.24-0.15,0.23-0.29l-0.06-1.88c0-0.15,0.1-0.27,0.25-0.29
						l1.98-0.23c0.12-0.01,0.21-0.1,0.24-0.21L198.11,57.4z"/>
					<path class="st7" d="M183.33,59.82l-0.69-0.57c-0.29-0.24-0.66-0.36-1.04-0.32c-15.43,1.64-39.53,4.34-51.47,6.48
						c-12.39,2.22-27.42,5.84-35.9,7.97c-4.28,1.07-8.02,3.66-10.53,7.28c-0.4,0.57-0.82,1.18-1.25,1.8
						c-0.21,0.3,0.04,0.71,0.4,0.66c24.53-3.16,49.26-6.27,60.11-7.39c15.09-1.56,28.68-3.02,41.37-4.22
						c4.17-3.41,9.18-7.06,15.01-11.03h-14.23C184.47,60.47,183.83,60.24,183.33,59.82z"/>
					<path class="st7" d="M338.75,13.3c-11.87,0-24.25-0.77-49.78,4.39c-25.54,5.16-59.84,28.89-68.87,35.08
						c-6.05,4.15-9.43,8.88-11.71,16.74l120.3-7.89c3.89-17.52,9.49-42.43,10.81-48.32C339.5,13.3,338.75,13.3,338.75,13.3z"/>
					<path class="st7" d="M325.08,78.04c0.57-2.69,1.93-8.87,3.6-16.42l-120.3,7.89c-1.12,3.87-1.97,8.51-2.74,14.21
						c-1.62,12.06,1.03,43.59,2.78,61.54l116.15-3.42C324.14,118.56,323.74,84.39,325.08,78.04z"/>
					<path class="st8" d="M417.23,13.3h-8.14l1.32,1.98c1.76,0.06,5.11,0.18,9.23,0.33l-1.27-1.74
						C418.1,13.51,417.68,13.3,417.23,13.3z"/>
					<path class="st7" d="M426.04,38.73c1.51,2.27,1.57,5.2,0.16,7.53l-2.65,4.36c-1.9,3.12-5.2,5.13-8.85,5.36l-86.02,5.64
						c-1.68,7.55-3.04,13.73-3.6,16.42c-1.34,6.35-0.94,40.52-0.5,63.8l73.11-2.15c0,0,3.72-35.01,34-46.23l11.22-35.31
						c1.49-4.68,0.65-9.8-2.25-13.77l-21.03-28.77c-4.12-0.15-7.46-0.27-9.23-0.33L426.04,38.73z"/>
					<path class="st7" d="M208.39,69.5c1.04-3.58,2.3-6.51,3.94-9.03h-12.98c-5.83,3.97-10.84,7.62-15.01,11.03
						C192.69,70.71,200.66,70.02,208.39,69.5z"/>
					<path class="st7" d="M492.88,16.89c-3.35-3.06-6.15-5.48-7.72-6.82c-7.85-0.68-15.77-1.28-21.88-1.54
						c-18.38-0.77-94.02-3.1-143.36,0c-29,1.82-42.49,4.51-55.25,9.92c2.57,0.2,4.93,0.32,6.3,0.33c0.29,0,0.39,0.4,0.12,0.53
						c-5.93,2.99-25.82,11.82-54.68,30.05c-6.3,3.98-11.99,7.67-17.06,11.12h12.98c1.96-3.01,4.47-5.45,7.76-7.71
						c9.03-6.19,43.34-29.92,68.87-35.08c25.54-5.16,37.92-4.39,49.78-4.39h77h1.48c15.48,0.26,45.27,1.81,58.04,2.39
						C479.65,15.88,486.18,16.35,492.88,16.89z"/>
					<path class="st5" d="M452.1,90.04c-7.88,0-14.62,1.28-20.4,3.42c-30.28,11.23-34,46.23-34,46.23l-73.11,2.15l-116.15,3.42
						l-3.68,0.11v-5.16c0,0-5.16-47.72-54.43-47.72S97.7,142.53,97.7,142.53l-26.3-1.26c-0.31-0.02-0.58-0.24-0.65-0.54l-0.53-2.29
						c-0.07-0.32-0.36-0.54-0.68-0.54h-0.65c-0.43,0-0.76,0.39-0.69,0.82l0.07,0.39c0.64,3.69,3.01,6.84,6.39,8.47l14.49,6.99
						c1.9,0.92,3.98,1.39,6.09,1.39h6.66c0.89,0,1.55-0.82,1.37-1.69c-0.65-3.09-0.99-6.28-0.99-9.56
						c0-26.15,21.76-47.36,48.6-47.36s48.6,21.2,48.6,47.36c0,4.04-0.05,7.25-0.14,9.79c-0.03,0.79,0.61,1.45,1.4,1.45h8.81h115.36
						h77.07l0,0c1-0.07,1.76-0.91,1.72-1.91c-0.11-3.02-0.13-6.69-0.13-11.31c0-18.12,10.45-33.86,25.79-41.82
						c6.8-3.53,14.57-5.53,22.81-5.53c26.84,0,48.6,21.2,48.6,47.36c0,1.46-0.01,2.8-0.02,4.05c-0.01,0.98,0.97,1.67,1.89,1.33
						l4.19-1.55v-7.89C506.81,138.66,501.24,90.04,452.1,90.04z"/>
					<path class="st5" d="M506.81,138.66v7.89l13.57-5.01c1.26-1.65,4.33-6,7.52-12.97c0.67-1.47,1.31-2.87,1.91-4.19l-25.2,4.8
						C506.36,134.76,506.81,138.66,506.81,138.66z"/>
					<path class="st7" d="M543.57,112.03v-3.27c-4.22,0.12-5.33,1.06-6.87,2.5c-0.42,0.39-0.89,1.05-1.43,1.93c1.31,0,2.44,0,2.97,0
						C539.99,113.19,543.57,112.03,543.57,112.03z"/>
					<path class="st5" d="M543.57,112.03L543.57,112.03c0,0-3.58,1.16-5.32,1.16c-0.53,0-1.66,0-2.97,0
						c-1.77,2.93-4.18,8.4-7.38,15.38c-3.19,6.97-6.26,11.32-7.52,12.97l11.28-4.16c1.74-0.64,3.34-1.59,4.74-2.8l4.29-3.71
						c0.48-0.42,0.81-0.99,0.92-1.62l2.91-16.07C544.63,112.57,544.17,112.03,543.57,112.03z"/>
					<path class="st8" d="M433.34,13.78c-6.05-0.23-11.67-0.41-16.11-0.49c0.45,0,0.87,0.21,1.13,0.57l1.27,1.74
						c4.75,0.17,10.52,0.39,16.11,0.6L433.34,13.78z"/>
					<path class="st8" d="M487.2,19.24c-0.5-0.51-1.16-0.81-1.87-0.84c-4.54-0.22-22.13-1.05-32.18-1.5
						c-4.03-0.18-10.57-0.44-17.4-0.69l30.41,30.65c1.58,1.59,3.73,2.49,5.97,2.49h41.52c-2.18-2.71-5.43-6.78-8.13-10.25
						C501.63,34.09,490.27,22.38,487.2,19.24z"/>
					<path class="st6" d="M472.13,46.54c-1.48,0-2.93-0.6-3.98-1.66l-25.4-25.6c4.46,0.17,7.9,0.32,10.28,0.42
						c10.26,0.46,28.6,1.33,32.17,1.5c6.78,6.95,15.11,15.76,18.1,19.61c1.43,1.84,3.01,3.84,4.51,5.73H472.13z"/>
					<path class="st8" d="M514.16,39.48c-2.81-3.6-11.22-13.16-17.99-19.54c-1.14-1.07-2.24-2.09-3.29-3.05
						c-6.7-0.53-13.23-1.01-17.61-1.2c-9.11-0.41-26.87-1.32-41.93-1.9l2.41,2.43c6.83,0.26,13.37,0.52,17.4,0.69
						c10.05,0.45,27.64,1.28,32.18,1.5c0.71,0.03,1.37,0.33,1.87,0.84c3.07,3.14,14.43,14.85,18.32,19.85
						c2.7,3.47,5.95,7.54,8.13,10.25h8.05C521.7,49.35,517.64,43.93,514.16,39.48z"/>
					<path class="st7" d="M426.04,38.73L409.09,13.3H339.5c-1.32,5.89-6.92,30.8-10.81,48.32l86.02-5.64
						c3.65-0.24,6.95-2.24,8.85-5.36l2.65-4.36C427.62,43.93,427.55,41,426.04,38.73z"/>
					<path class="st6" d="M423.71,40.29L407.59,16.1h-63.35l-4.43,41.98l74.71-4.9c2.73-0.18,5.21-1.68,6.64-4.02l2.65-4.36
						C424.65,43.41,424.61,41.64,423.71,40.29z"/>
					<path class="st7" d="M418.98,31.48"/>
					<path class="st9" d="M508.98,61.54c-0.23,0-0.36,0.25-0.24,0.43c1.26,1.88,6.37,9.21,10.16,10.98c1.1,0.51,3.48,1.4,6.6,2.43
						l-11.39-13.81L508.98,61.54z"/>
					<path class="st10" d="M529.46,61.67l-15.35-0.1l11.39,13.81c1.62,0.54,3.45,1.12,5.39,1.72c-0.88-1.98-1.42-4.17-1.42-6.67
						C529.46,65.51,529.46,62.94,529.46,61.67z"/>
					<path class="st9" d="M537.74,79.12c0.7,0.19,1.4,0.39,2.1,0.58c0,0,0.25-0.65,0.25-2.1s0-14.7,0-14.7
						c0-0.64-0.52-1.16-1.16-1.16l-3.65-0.02c0,1.28,0,3.86,0,8.73C535.27,73.81,536.26,76.64,537.74,79.12z"/>
					<path class="st10" d="M535.27,70.43c0-4.87,0-7.45,0-8.73l-2.9-0.02c0,1.28,0,3.85,0,8.75c0,2.94,0.75,5.46,1.92,7.69
						c1.13,0.33,2.29,0.66,3.46,0.99C536.26,76.64,535.27,73.81,535.27,70.43z"/>
					<path class="st11" d="M532.37,61.69l-2.9-0.02c0,1.27,0,3.85,0,8.77c0,2.5,0.54,4.69,1.42,6.67c1.1,0.34,2.23,0.68,3.4,1.02
						c-1.17-2.24-1.92-4.75-1.92-7.69C532.37,65.54,532.37,62.96,532.37,61.69z"/>
					<path class="st12" d="M537.76,69.15h-18.38c-0.37,0-0.72-0.16-0.95-0.45l-5.27-6.35c-0.44-0.53-0.36-1.3,0.16-1.74
						c0.52-0.44,1.31-0.36,1.74,0.16l4.9,5.9h17.8C538.44,66.68,538.44,69.15,537.76,69.15z"/>
					<path class="st7" d="M514.95,87.17l3.95-14.22c-3.79-1.77-8.89-9.1-10.16-10.98c-0.13-0.19,0.01-0.44,0.24-0.43l29.94,0.19
						c0,0-0.19-2.9-0.58-4.45c-0.33-1.32-2.92-6.04-3.67-7.38c-0.12-0.22-0.36-0.36-0.61-0.36h-0.75c0,0-0.06-0.07-0.15-0.19H521.7
						h-49.57c-2.24,0-4.39-0.89-5.97-2.49l-30.41-30.65c-5.59-0.21-11.37-0.43-16.11-0.6l21.03,28.77c2.9,3.97,3.74,9.08,2.25,13.77
						L431.7,93.46c5.78-2.14,12.53-3.42,20.4-3.42c14.57,0,25.3,4.28,33.2,10.29l25.12-8.39C512.63,91.2,514.33,89.41,514.95,87.17z
						"/>
					<path class="st7" d="M539.83,79.69c-9.33-2.52-18.43-5.57-20.94-6.74l-3.95,14.22c-0.62,2.25-2.32,4.03-4.53,4.77l-25.12,8.39
						c11.2,8.53,16.69,20.55,19.3,28.85l25.2-4.8c3.14-6.88,5.38-11.7,6.89-13.12c1.53-1.44,2.65-2.38,6.87-2.5v-1.17V87.46
						c0-1.02-0.28-2.01-0.8-2.88L539.83,79.69z"/>
					<path class="st13" d="M98.67,93.51c-0.87,0.72-1.93,1.16-3.05,1.27l-9.31,0.88c0.12,0.2,0.26,0.38,0.42,0.53
						c1.56,1.34,13.13,0.45,19.74-8.38c-0.84,0.2-1.62,0.58-2.29,1.13L98.67,93.51z"/>
					<path class="st14" d="M123.25,78.01c-3.95,0.48-8.23,1.01-12.7,1.57c-2.22,0.28-4.49,0.56-6.8,0.86
						c-3.24,0.41-6.54,0.83-9.88,1.26c-3.43,0.44-6.9,0.88-10.37,1.33c-0.19,0.02-5.4,5.7-7.27,8.39c0.41,1.29,0.55,2.66,0.6,3.66
						c0.04,0.8,0.73,1.41,1.53,1.33l7.95-0.75l5.37-0.51l3.94-0.37c1.12-0.11,2.18-0.55,3.05-1.27l5.52-4.58
						c0.66-0.55,1.45-0.93,2.29-1.13c0.06-0.01,0.12-0.04,0.18-0.05l5.42-1.1l6.47-1.31c0.69-0.14,1.33-0.45,1.87-0.91l8.44-7.11
						C127.08,77.54,125.2,77.77,123.25,78.01z"/>
					<path class="st9" d="M123.25,78.01c-1.75,1.63-5.85,5.25-11.18,8.65l6.47-1.31c0.69-0.14,1.33-0.45,1.87-0.91l8.44-7.11
						C127.08,77.54,125.2,77.77,123.25,78.01z"/>
					<path class="st8" d="M90.42,115.17c-0.07-0.54-0.29-1.06-0.66-1.48l-1.9-2.2c-0.8-0.92-1.96-1.45-3.18-1.45h-4.25l-1.34,5.14
						l-2.13,8.15l-0.27,1.02c-0.58,2.23-0.23,4.6,0.99,6.56l2.19,3.53h2.36c1.9,0,3.56-1.27,4.06-3.11l2.16-8l1.91-7.08
						C90.45,115.88,90.47,115.52,90.42,115.17z"/>
					<path class="st7" d="M208.43,145.26c-1.75-17.95-4.4-49.48-2.78-61.54c0.77-5.71,1.62-10.34,2.74-14.21
						c-19.5,1.31-40.42,3.64-65.42,6.22c-3.45,0.36-8.31,0.91-14.11,1.61l-8.44,7.11c-0.54,0.45-1.18,0.77-1.87,0.91l-11.88,2.41
						c-0.91,0.18-1.75,0.59-2.46,1.18l-5.52,4.58c-0.87,0.72-1.93,1.16-3.05,1.27l-17.26,1.63c-0.8,0.08-1.49-0.52-1.53-1.32
						c-0.05-1-0.19-2.37-0.6-3.67c-2.26,3.25-4.3,6.2-5.51,7.94c-0.75,1.08-1.23,2.32-1.42,3.62c-0.21,1.53-0.53,3.79-0.88,6.25
						c-0.06,0.42,0.27,0.8,0.69,0.8h15.56c1.22,0,2.38,0.53,3.18,1.45l1.9,2.2c0.6,0.7,0.83,1.65,0.59,2.55l-4.07,15.09
						c-0.5,1.83-2.16,3.11-4.06,3.11H69.28c-0.43,0-0.76,0.39-0.69,0.82l0.46,2.64h0.5c0.33,0,0.61,0.23,0.68,0.54l0.53,2.29
						c0.07,0.31,0.34,0.53,0.65,0.54l26.3,1.26c0,0,3.35-50.04,52.62-50.04s54.43,47.72,54.43,47.72v5.16L208.43,145.26z"/>
					<path class="st5" d="M502.4,26.19c0.35,0.37,0.7,0.74,1.05,1.11l3.29-5.54l2.32-3.65c0.04-0.06,0.11-0.11,0.18-0.12l-3.41,0.6
						L502.4,26.19z"/>
					<path class="st8" d="M515.55,13.07c-3.57-0.39-16.89-1.82-30.4-3c2.07,1.76,6.25,5.38,11.01,9.87c2,1.88,4.14,4.05,6.24,6.25
						l3.44-7.6l3.41-0.6l5.32-1.06c0.23-0.05,0.42-0.2,0.51-0.42l1.04-2.47C516.3,13.6,516.02,13.12,515.55,13.07z"/>
					<g>
						<g>
							<circle class="st15" cx="150.54" cy="150.16" r="42.87"/>
							<circle class="st16" cx="150.54" cy="150.16" r="27.24"/>
							<circle class="st17" cx="150.54" cy="150.16" r="26"/>
							<g>
								<g>
									<g>
										<defs>
											<circle id="SVGID_3_" cx="150.54" cy="150.16" r="27.24"/>
										</defs>
										<clipPath id="SVGID_4_">
											<use xlink:href="#SVGID_3_"  style="overflow:visible;"/>
										</clipPath>
										<g class="st18">
											<g>
												<path class="st19" d="M127.52,127.93l11.71,17.1c0.2,0.29,0.62,0.33,0.87,0.08l5.39-5.39c0.25-0.25,0.21-0.67-0.08-0.87
													l-17.1-11.71C127.79,126.79,127.17,127.41,127.52,127.93z"/>
												<polygon class="st20" points="129.13,128.75 144.63,139.36 139.74,144.25 												"/>
												<path class="st19" d="M128.31,173.17l17.1-11.71c0.29-0.2,0.33-0.62,0.08-0.87l-5.39-5.39
													c-0.25-0.25-0.67-0.21-0.87,0.08l-11.71,17.1C127.17,172.9,127.79,173.53,128.31,173.17z"/>
												<polygon class="st20" points="139.74,156.07 144.63,160.95 129.13,171.56 												"/>
												<path class="st19" d="M173.55,172.39l-11.71-17.1c-0.2-0.29-0.62-0.33-0.87-0.08l-5.39,5.39
													c-0.25,0.25-0.21,0.67,0.08,0.87l17.1,11.71C173.28,173.53,173.91,172.9,173.55,172.39z"/>
												<polygon class="st20" points="156.44,160.95 161.33,156.07 171.94,171.56 												"/>
												<path class="st19" d="M172.76,127.14l-17.1,11.71c-0.29,0.2-0.33,0.62-0.08,0.87l5.39,5.39
													c0.25,0.25,0.67,0.21,0.87-0.08l11.71-17.1C173.91,127.41,173.28,126.79,172.76,127.14z"/>
												<polygon class="st20" points="156.45,139.37 171.94,128.75 161.33,144.25 												"/>
											</g>
											<g>
												<path class="st19" d="M118.55,150.71l20.37,3.81c0.35,0.07,0.67-0.2,0.67-0.56v-7.62c0-0.35-0.32-0.62-0.67-0.56
													l-20.37,3.81C117.93,149.71,117.93,150.6,118.55,150.71z"/>
												<polygon class="st20" points="120.27,150.16 138.73,146.7 138.73,153.61 												"/>
												<path class="st19" d="M151.09,182.15l3.81-20.37c0.07-0.35-0.2-0.67-0.56-0.67h-7.62c-0.35,0-0.62,0.32-0.56,0.67
													l3.81,20.37C150.09,182.77,150.98,182.77,151.09,182.15z"/>
												<polygon class="st20" points="147.08,161.97 153.99,161.97 150.54,180.43 												"/>
												<path class="st19" d="M182.53,149.6l-20.37-3.81c-0.35-0.07-0.67,0.2-0.67,0.56v7.62c0,0.35,0.32,0.62,0.67,0.56
													l20.37-3.81C183.14,150.6,183.14,149.72,182.53,149.6z"/>
												<polygon class="st20" points="162.35,146.71 180.81,150.16 162.35,153.61 												"/>
												<path class="st19" d="M149.98,118.17l-3.81,20.37c-0.07,0.35,0.2,0.67,0.56,0.67h7.62c0.35,0,0.62-0.32,0.56-0.67
													l-3.81-20.37C150.98,117.55,150.1,117.55,149.98,118.17z"/>
												<polygon class="st20" points="147.08,138.35 150.54,119.89 153.99,138.35 												"/>
											</g>
										</g>
									</g>
								</g>
							</g>
							<circle class="st7" cx="150.54" cy="150.16" r="12"/>
							<circle class="st19" cx="150.54" cy="150.16" r="8.13"/>
							<circle class="st20" cx="150.54" cy="150.16" r="6.16"/>
							<path class="st21" d="M150.54,113.1c20.56,0,37.28,16.4,37.82,36.83c0.01-0.34,0.03-0.68,0.03-1.02
								c0-20.9-16.94-37.85-37.85-37.85c-20.9,0-37.85,16.94-37.85,37.85c0,0.34,0.02,0.68,0.03,1.02
								C113.26,129.49,129.98,113.1,150.54,113.1z"/>
						</g>
					</g>
					<g>
						<g>
							<circle class="st7" cx="452.25" cy="150.16" r="42.87"/>
							
								<radialGradient id="SVGID_5_" cx="452.25" cy="716.16" r="42.87" gradientTransform="matrix(1 0 0 1 0 -566)" gradientUnits="userSpaceOnUse">
								<stop  offset="0.7152" style="stop-color:#000000"/>
								<stop  offset="0.7514" style="stop-color:#2C2C2C"/>
								<stop  offset="0.8329" style="stop-color:#9B9B9B"/>
								<stop  offset="0.903" style="stop-color:#FFFFFF"/>
								<stop  offset="1" style="stop-color:#000000"/>
							</radialGradient>
							<circle class="st22" cx="452.25" cy="150.16" r="42.87"/>
							<circle class="st16" cx="452.25" cy="150.16" r="27.24"/>
							<circle class="st17" cx="452.25" cy="150.16" r="26"/>
							<circle class="st23" cx="452.25" cy="150.16" r="18.53"/>
							<circle class="st24" cx="452.25" cy="150.16" r="16"/>
							<g>
								<g>
									<g>
										<defs>
											<circle id="SVGID_6_" cx="452.25" cy="150.16" r="27.24"/>
										</defs>
										<clipPath id="SVGID_7_">
											<use xlink:href="#SVGID_6_"  style="overflow:visible;"/>
										</clipPath>
										<g class="st25">
											<g>
												<path class="st19" d="M429.24,127.93l11.71,17.1c0.2,0.29,0.62,0.33,0.87,0.08l5.39-5.39c0.25-0.25,0.21-0.67-0.08-0.87
													l-17.1-11.71C429.51,126.79,428.89,127.41,429.24,127.93z"/>
												<polygon class="st20" points="430.85,128.75 446.35,139.36 441.46,144.25 												"/>
												<path class="st19" d="M430.03,173.17l17.1-11.71c0.29-0.2,0.33-0.62,0.08-0.87l-5.39-5.39
													c-0.25-0.25-0.67-0.21-0.87,0.08l-11.71,17.1C428.88,172.9,429.51,173.53,430.03,173.17z"/>
												<polygon class="st20" points="441.46,156.07 446.34,160.95 430.85,171.56 												"/>
												<path class="st19" d="M475.27,172.39l-11.71-17.1c-0.2-0.29-0.62-0.33-0.87-0.08l-5.39,5.39
													c-0.25,0.25-0.21,0.67,0.08,0.87l17.1,11.71C475,173.53,475.62,172.9,475.27,172.39z"/>
												<polygon class="st20" points="458.16,160.95 463.05,156.07 473.66,171.56 												"/>
												<path class="st19" d="M474.48,127.14l-17.1,11.71c-0.29,0.2-0.33,0.62-0.08,0.87l5.39,5.39
													c0.25,0.25,0.67,0.21,0.87-0.08l11.71-17.1C475.62,127.41,475,126.79,474.48,127.14z"/>
												<polygon class="st20" points="458.16,139.37 473.66,128.75 463.05,144.25 												"/>
											</g>
											<g>
												<path class="st19" d="M420.26,150.71l20.37,3.81c0.35,0.07,0.67-0.2,0.67-0.56v-7.62c0-0.35-0.32-0.62-0.67-0.56
													l-20.37,3.81C419.65,149.71,419.65,150.6,420.26,150.71z"/>
												<polygon class="st20" points="421.98,150.16 440.44,146.7 440.44,153.61 												"/>
												<path class="st19" d="M452.81,182.15l3.81-20.37c0.07-0.35-0.2-0.67-0.56-0.67h-7.62c-0.35,0-0.62,0.32-0.56,0.67
													l3.81,20.37C451.81,182.77,452.7,182.77,452.81,182.15z"/>
												<polygon class="st20" points="448.8,161.97 455.71,161.97 452.25,180.43 												"/>
												<path class="st19" d="M484.24,149.6l-20.37-3.81c-0.35-0.07-0.67,0.2-0.67,0.56v7.62c0,0.35,0.32,0.62,0.67,0.56
													l20.37-3.81C484.86,150.6,484.86,149.72,484.24,149.6z"/>
												<polygon class="st20" points="464.06,146.71 482.53,150.16 464.06,153.61 												"/>
												<path class="st19" d="M451.7,118.17l-3.81,20.37c-0.07,0.35,0.2,0.67,0.56,0.67h7.62c0.35,0,0.62-0.32,0.56-0.67
													l-3.81-20.37C452.7,117.55,451.81,117.55,451.7,118.17z"/>
												<polygon class="st20" points="448.8,138.35 452.26,119.89 455.71,138.35 												"/>
											</g>
										</g>
									</g>
								</g>
							</g>
							<circle class="st7" cx="452.25" cy="150.16" r="12"/>
							<circle class="st19" cx="452.25" cy="150.16" r="8.13"/>
							<circle class="st20" cx="452.25" cy="150.16" r="6.16"/>
							<path class="st21" d="M452.25,113.1c20.56,0,37.28,16.4,37.82,36.83c0.01-0.34,0.03-0.68,0.03-1.02
								c0-20.9-16.94-37.85-37.85-37.85c-20.9,0-37.85,16.94-37.85,37.85c0,0.34,0.02,0.68,0.03,1.02
								C414.98,129.49,431.69,113.1,452.25,113.1z"/>
							<g>
								<circle class="st7" cx="452.26" cy="135.82" r="1.98"/>
								<circle class="st7" cx="437.91" cy="150.16" r="1.98"/>
								<circle class="st7" cx="452.25" cy="164.5" r="1.98"/>
								<circle class="st7" cx="466.6" cy="150.16" r="1.98"/>
							</g>
							<g>
								<circle class="st7" cx="442.11" cy="140.02" r="1.98"/>
								<circle class="st7" cx="442.11" cy="160.3" r="1.98"/>
								<circle class="st7" cx="462.39" cy="160.3" r="1.98"/>
								<circle class="st7" cx="462.4" cy="140.02" r="1.98"/>
							</g>
						</g>
						
							<linearGradient id="SVGID_8_" gradientUnits="userSpaceOnUse" x1="452.25" y1="743.4" x2="452.25" y2="688.92" gradientTransform="matrix(1 0 0 1 0 -566)">
							<stop  offset="0" style="stop-color:#000000"/>
							<stop  offset="0.1931" style="stop-color:#2C2C2C"/>
							<stop  offset="0.6266" style="stop-color:#9B9B9B"/>
							<stop  offset="1" style="stop-color:#FFFFFF"/>
						</linearGradient>
						<circle class="st26" cx="452.25" cy="150.16" r="27.24"/>
					</g>
					<g class="st27">
						<g>
							<g>
								<defs>
									<path id="SVGID_9_" d="M538.92,61.73l-3.65-0.02l-2.9-0.02l-2.9-0.02l-15.35-0.1l-5.13-0.03c-0.23,0-0.36,0.25-0.24,0.43
										c1.26,1.88,6.37,9.21,10.16,10.98c1.1,0.51,3.48,1.4,6.6,2.43c1.62,0.54,3.45,1.12,5.39,1.72c1.1,0.34,2.23,0.68,3.4,1.02
										c1.13,0.33,2.29,0.66,3.46,0.99c0.7,0.19,1.4,0.39,2.1,0.58c0,0,0.25-0.65,0.25-2.1s0-14.7,0-14.7
										C540.08,62.25,539.56,61.73,538.92,61.73z"/>
								</defs>
								<clipPath id="SVGID_10_">
									<use xlink:href="#SVGID_9_"  style="overflow:visible;"/>
								</clipPath>
								<g class="st28">
									<g>
										<rect x="480.48" y="60.14" class="st29" width="93.97" height="0.39"/>
									</g>
									<g>
										<rect x="480.48" y="61.82" class="st29" width="93.97" height="0.39"/>
									</g>
									<g>
										<rect x="480.48" y="63.51" class="st29" width="93.97" height="0.39"/>
									</g>
									<g>
										<rect x="480.48" y="65.2" class="st29" width="93.97" height="0.39"/>
									</g>
									<g>
										<rect x="480.48" y="66.88" class="st29" width="93.97" height="0.39"/>
									</g>
									<g>
										<rect x="480.48" y="68.57" class="st29" width="93.97" height="0.39"/>
									</g>
									<g>
										<rect x="480.48" y="50.01" class="st29" width="93.97" height="0.39"/>
									</g>
									<g>
										<rect x="480.48" y="51.7" class="st29" width="93.97" height="0.39"/>
									</g>
									<g>
										<rect x="480.48" y="53.39" class="st29" width="93.97" height="0.39"/>
									</g>
									<g>
										<rect x="480.48" y="55.07" class="st29" width="93.97" height="0.39"/>
									</g>
									<g>
										<rect x="480.48" y="56.76" class="st29" width="93.97" height="0.39"/>
									</g>
									<g>
										<rect x="480.48" y="58.45" class="st29" width="93.97" height="0.39"/>
									</g>
									<g>
										<rect x="480.48" y="70.26" class="st29" width="93.97" height="0.39"/>
									</g>
									<g>
										<rect x="480.48" y="71.95" class="st29" width="93.97" height="0.39"/>
									</g>
									<g>
										<rect x="480.48" y="73.63" class="st29" width="93.97" height="0.39"/>
									</g>
									<g>
										<rect x="480.48" y="75.32" class="st29" width="93.97" height="0.39"/>
									</g>
									<g>
										<rect x="480.48" y="77.01" class="st29" width="93.97" height="0.39"/>
									</g>
									<g>
										<rect x="480.48" y="78.69" class="st29" width="93.97" height="0.39"/>
									</g>
									<g>
										<rect x="480.48" y="80.38" class="st29" width="93.97" height="0.39"/>
									</g>
									<g>
										<rect x="480.48" y="82.07" class="st29" width="93.97" height="0.39"/>
									</g>
									<g>
										<rect x="480.48" y="83.76" class="st29" width="93.97" height="0.39"/>
									</g>
									<g>
										<rect x="480.48" y="85.44" class="st29" width="93.97" height="0.39"/>
									</g>
									<g>
										<rect x="480.48" y="87.13" class="st29" width="93.97" height="0.39"/>
									</g>
									<g>
										<rect x="480.48" y="88.82" class="st29" width="93.97" height="0.39"/>
									</g>
								</g>
							</g>
						</g>
					</g>
					<g>
						<g>
							<g>
								
									<ellipse transform="matrix(0.9986 -0.0527 0.0527 0.9986 -3.5351 15.9733)" class="st7" cx="301.12" cy="75.02" rx="6.32" ry="4.39"/>
							</g>
							<g class="st30">
								
									<ellipse transform="matrix(0.9986 -0.0527 0.0527 0.9986 -3.5351 15.9733)" class="st31" cx="301.12" cy="75.02" rx="6.32" ry="4.39"/>
							</g>
						</g>
						<path class="st7" d="M316.08,75.97l-25.76,1.36c-0.53,0.03-0.99-0.38-1.02-0.92l-0.07-1.29c-0.03-0.53,0.38-0.99,0.92-1.02
							l25.76-1.36c0.53-0.03,0.99,0.38,1.02,0.92l0.07,1.29C317.02,75.49,316.61,75.95,316.08,75.97z"/>
					</g>
					<g>
						<g>
							<g>
								
									<ellipse transform="matrix(0.9986 -0.0527 0.0527 0.9986 -3.1045 21.5051)" class="st7" cx="406.23" cy="69.62" rx="6.32" ry="4.39"/>
							</g>
							<g class="st30">
								
									<ellipse transform="matrix(0.9986 -0.0527 0.0527 0.9986 -3.1045 21.5051)" class="st31" cx="406.23" cy="69.62" rx="6.32" ry="4.39"/>
							</g>
						</g>
						<path class="st7" d="M421.2,70.57l-25.76,1.36c-0.53,0.03-0.99-0.38-1.02-0.92l-0.07-1.29c-0.03-0.53,0.38-0.99,0.92-1.02
							l25.76-1.36c0.53-0.03,0.99,0.38,1.02,0.92l0.07,1.29C422.14,70.08,421.73,70.54,421.2,70.57z"/>
					</g>
					<path class="st4" d="M330.3,16.06c-9.26,0-20.81,0.34-40.78,4.37c-14.74,2.98-34.69,12.71-59.37,28.94v15.9l88.33-5.79
						c1.29-5.21,2.85-11.34,4.53-17.55c2.39-8.85,7.11-21.87,8.58-25.87C331.17,16.06,330.74,16.06,330.3,16.06z"/>
					<path class="st8" d="M222.12,54.77l-0.44,0.3c-4.48,3.07-7.28,6.44-9.28,11.36l17.76-1.16v-15.9
						C227.53,51.1,224.85,52.9,222.12,54.77z"/>
					<g>
						<path class="st8" d="M220.45,57.48c0,0-3,2.42-3.97,3.48c-0.75,0.83-1.63,2.96-1.97,3.86c-0.07,0.19,0.08,0.39,0.28,0.38
							l6.36-0.44c0.08-0.01,0.16-0.05,0.21-0.12l2.28-3.29L220.45,57.48z"/>
						<path class="st5" d="M216.6,54c0.48-2.03,6.85-6,8.59-6.67c1.74-0.68,7-0.95,7.93-0.48c1.93,0.97,3.87,3.19,3.87,5.51
							c0,1.74,0,8.03,0,9.38s-2.32,2.71-5.32,2.71c-1.84,0-8.54,0.35-10.35-0.29C219.51,63.52,216.12,56.03,216.6,54z"/>
					</g>
					<path class="st13" d="M269.36,16.78c5.16-1.81,11.61-4.39,31.99-6.45S347.78,7.26,366.87,7s52.62,0.52,68.87,0.77
						c16.25,0.26,42.82,2.06,49.78,2.58s28.89,3.35,28.89,3.35"/>
					<path class="st13" d="M93.6,73.75c5.16-1.29,25.8-6.45,37.92-8.51s49.53-6.19,49.53-6.19"/>
				</g>
			</g>
		</g>
	</g>
	<g>
		<g>
			<path class="st32" d="M15.3,177.59h6.13c1.62,0,3.1,0.94,3.79,2.41l3.1,6.61c0.15,0.32,0.26,0.66,0.33,1.01l0.03,0.18
				c0.48,2.57-1.5,4.95-4.11,4.95H12.62c-2.47,0-4.41-2.14-4.16-4.6l0,0c0.04-0.38,0.13-0.76,0.27-1.12l2.68-6.79
				C12.04,178.64,13.58,177.59,15.3,177.59z"/>
			<path class="st32" d="M41.7,177.59h6.86c0.41,0,0.81,0.09,1.17,0.26l19.45,9.12c0.97,0.46,1.59,1.43,1.59,2.5l0,0
				c0,1.53-1.24,2.76-2.76,2.76H41.09c-1.6,0-2.87-1.35-2.76-2.95l0.62-9.12C39.04,178.72,40.25,177.59,41.7,177.59z"/>
			<path class="st33" d="M112.58,72.77l-35.81-3.65c0,0-13.48-14.84-18.22-19.12s1.61-14.39,10.01-7.24s20.37,17.42,20.37,17.42
				l29.82,4.11L112.58,72.77z"/>
			<g>
				
					<linearGradient id="SVGID_11_" gradientUnits="userSpaceOnUse" x1="145.096" y1="628.24" x2="145.096" y2="647.24" gradientTransform="matrix(1 0 0 1 0 -566)">
					<stop  offset="0" style="stop-color:#FFFFFF;stop-opacity:0.9151"/>
					<stop  offset="1" style="stop-color:#FFFFFF;stop-opacity:0.1"/>
				</linearGradient>
				<path class="st34" d="M153.99,64.73c0,0,21.93-2.49,26-2.49c4.07,0,15.23,1.31,20.12,2.94c2.71,0.9,3.49,3.7-2.03,2.49
					c-9.27-2.03-17.52,6.71-24.19,5.43c-12.89-2.49-17.41,2.51-26.91,3.62c-9.72,1.13-17.79-0.97-31.69,0.1
					c-10.43,0.8-23.47,4.42-25.51,4.42C85.03,81.24,84.86,73.69,153.99,64.73z"/>
				<ellipse class="st35" cx="136.51" cy="75.03" rx="16.83" ry="5.34"/>
				<path d="M136.76,76.21h-0.5c-2.91,0-5.27-2.36-5.27-5.27l0,0c0-2.91,2.36-5.27,5.27-5.27h0.5c2.91,0,5.27,2.36,5.27,5.27l0,0
					C142.04,73.85,139.68,76.21,136.76,76.21z"/>
				<path class="st36" d="M119.67,62.65h12.83c5.83,0,10.55,4.72,10.55,10.55l0,0H118.7c-2.65,0-4.79-2.15-4.79-4.79l0,0
					C113.91,65.23,116.49,62.65,119.67,62.65z"/>
			</g>
			<path class="st37" d="M112.18,62.15l11.01,0.1c1.07,0.01,1.67,1.25,0.99,2.09l0,0c-0.23,0.28-0.56,0.46-0.92,0.48l-3.58,0.24
				c-1.18,0.08-1.64,1.58-0.7,2.3l5.92,4.57c0.97,0.75,0.45,2.3-0.77,2.31l-8.93,0.08c-0.27,0-0.53-0.08-0.75-0.23l-8.26-5.81
				c-0.72-0.51-0.73-1.58-0.01-2.1l5.24-3.78C111.64,62.23,111.9,62.15,112.18,62.15z"/>
			<path class="st38" d="M8.02,97.49l2.99,82.2h14.06l4.77-78.1l7.78,77.09l15.07-0.5l-2.01-80.57c0-5.14,1.22-10.22,3.56-14.8
				l14.99-29.36c2.89-5.66-0.05-12.57-6.15-14.39l-15.67-4.7c-4.56-1.37-9.45,0.6-11.79,4.74L11.79,81.19
				C8.99,86.15,7.68,91.81,8.02,97.49z"/>
			<path class="st39" d="M112.45,74.13l-39.86-1.36L40.76,49.6c-7.71-5.91,0.16-17.26,9.38-10.54l26.83,20.21l35.74,1.85
				L112.45,74.13z"/>
			<ellipse class="st37" cx="48.92" cy="24.5" rx="3.52" ry="4.77"/>
			<path class="st37" d="M67,13.2c4.47,1.19,5.02,14.06,5.02,19.59C68,32.29,68,32.29,68,32.29s0,5.02-4.02,7.03
				c-5.02,2.51-14.56-0.45-15.07-7.53c-0.5-7.03,0.41-14.13,5.02-18.08C57.46,10.68,59.47,11.19,67,13.2z"/>
			<g>
				<path class="st33" d="M52.73,18c0,0,24.32,8.26,30.35,6.75C87.49,23.64,70.09,15.26,52.73,18z"/>
				<polygon class="st40" points="50.49,18.84 51.5,27.95 56.06,18.51 				"/>
				<path class="st33" d="M48.42,19.98c0-6.8,5.51-12.31,12.31-12.31s12.31,5.51,12.31,12.31"/>
			</g>
			
				<ellipse transform="matrix(0.4032 -0.9151 0.9151 0.4032 15.4537 73.7092)" class="st13" cx="64.24" cy="25.01" rx="2.26" ry="0.75"/>
			<path class="st41" d="M64.49,34.29l-6.53-3.52C57.96,30.77,58.47,36.8,64.49,34.29z"/>
		</g>
		<path class="st39" d="M16.27,75.21c0,0,12.3,8.56,31.02,8.56"/>
		<g>
			<line class="st13" x1="137.85" y1="45.49" x2="137.85" y2="26.5"/>
			<line class="st13" x1="149.98" y1="47.82" x2="156.47" y2="29.97"/>
			<line class="st13" x1="159.28" y1="53.3" x2="174.3" y2="41.68"/>
		</g>
		<path class="st42" d="M190.54,42.19L190.54,42.19L190.54,42.19c-4.76-1.16-8.48-4.88-9.65-9.65l-1.73-7.1l-1.73,7.1
			c-1.16,4.76-4.88,8.48-9.65,9.65l0,0l0,0c4.76,1.16,8.48,4.88,9.65,9.65l1.73,7.1l1.73-7.1
			C182.05,47.08,185.77,43.36,190.54,42.19z"/>
		<path class="st42" d="M165.68,58.16L165.68,58.16L165.68,58.16c-2.72-0.66-4.84-2.78-5.5-5.5l-0.99-4.05l-0.99,4.05
			c-0.66,2.72-2.78,4.84-5.5,5.5l0,0l0,0c2.72,0.66,4.84,2.78,5.5,5.5l0.99,4.05l0.99-4.05C160.85,60.94,162.97,58.82,165.68,58.16z
			"/>
	</g>
</g>
</svg>
