<?xml version="1.0" encoding="utf-8"?>
<!-- Generator: Adobe Illustrator 24.0.1, SVG Export Plug-In . SVG Version: 6.00 Build 0)  -->
<svg version="1.1" id="レイヤー_1" xmlns="http://www.w3.org/2000/svg" xmlns:xlink="http://www.w3.org/1999/xlink" x="0px"
	 y="0px" viewBox="0 0 280 200" style="enable-background:new 0 0 280 200;" xml:space="preserve">
<style type="text/css">
	.st0{fill:none;}
	.st1{fill:#D0A867;}
	.st2{fill:#00395B;}
</style>
<g>
	<g>
		<rect class="st0" width="280" height="160"/>
		<g>
			<rect x="49.77" y="94.86" class="st1" width="183.16" height="31.13"/>
			<g>
				<g>
					<path class="st2" d="M65.6,85.58v-9.45h24.23v-6.33l-0.3-0.6H65.6v-9.45h18.1L62.18,25.05h15.69l18.9,31.98l18.9-31.98h15.69
						l-21.42,34.69h18v9.45h-23.83l-0.4,0.6v6.33h24.23v9.45h-24.23v19.71H89.83V85.58H65.6z"/>
					<path class="st2" d="M161.52,65.17c0-14.18,2.51-23.53,6.74-30.07c5.13-8.04,13.68-11.66,22.02-11.66
						c28.76,0,28.76,34.39,28.76,41.73c0,7.44,0,41.73-28.76,41.73C161.52,106.9,161.52,72.51,161.52,65.17z M204.86,65.17
						c0-17.3-3.92-28.76-14.58-28.76c-11.36,0-14.58,12.87-14.58,28.76c0,17.4,3.92,28.76,14.58,28.76
						C201.34,93.93,204.86,81.66,204.86,65.17z"/>
				</g>
			</g>
		</g>
	</g>
	<g>
		<g>
			<path class="st2" d="M104.82,185.78c-1.01,2.47-3.17,6.68-5.23,9.05l-2-3.17c1.72-2.03,3.59-5.07,4.65-7.72L104.82,185.78z
				 M99.23,177.33c0.78,0.34,2.63,1.12,4.47,2.57l-1.85,2.83c-2.13-1.69-3.51-2.31-4.21-2.65L99.23,177.33z M100.27,170.36
				c0.6,0.26,2.78,1.3,4.52,2.6l-1.95,2.76c-1.46-1.17-2.99-2.05-4.37-2.78L100.27,170.36z M108.33,170.54
				c0.81,1.14,1.92,3.09,2.63,5.17l-3.09,1.01c-0.16-0.42-1.17-3.22-2.44-5.04L108.33,170.54z M112.13,177.07v-6.63h3.2v6.63h6.03
				v15.7c0,1.56-0.94,2.21-2.29,2.21h-4.52l-0.52-3.09h3.59c0.49,0,0.55-0.08,0.55-0.65v-2.21h-8.92v5.96h-3.2v-17.92H112.13z
				 M109.24,179.88v1.98h8.92v-1.98H109.24z M109.24,184.48v1.95h8.92v-1.95H109.24z M122.32,171.63c-0.52,1.38-1.51,3.51-2.91,5.28
				l-2.81-1.22c1.14-1.56,2.05-3.25,2.73-5.07L122.32,171.63z"/>
			<path class="st2" d="M148.27,190.77h-4.73c2.37,0.91,4.16,1.22,7.49,1.46l-1.74,2.91c-3.02-0.36-5.49-0.99-8.35-2.34l1.51-2.03
				h-7.67l1.56,1.9c-2.39,1.4-6.66,2.24-8.61,2.37l-1.43-2.83c3.3-0.21,5.64-0.83,7.25-1.43h-4.32v-6.94
				c-0.65,0.26-1.01,0.42-2,0.75l-1.2-2.86c2.34-0.65,4.52-1.53,5.88-2.65h-4.78c0.39-2.03,0.44-2.26,0.7-4.42h6.24v-1.14h-7.1
				v-2.03h7.1v-1.07h3.07v1.07h2.91v-1.07h3.09v1.07h6.45v4.73h-6.45v1.14h7.93c-0.16,3.82-0.47,5.12-2.05,5.12h-0.75V190.77z
				 M133.24,177.36c0.21-0.42,0.34-0.7,0.47-1.14h-2.89c-0.05,0.42-0.1,0.75-0.18,1.14H133.24z M145.07,182.27h-12.66v1.12h12.66
				V182.27z M145.07,184.9h-12.66v1.17h12.66V184.9z M145.07,187.57h-12.66v1.27h12.66V187.57z M140.05,180.45v-1.38h-4.39
				c-0.47,0.75-0.86,1.12-1.09,1.38H140.05z M140.05,176.21h-3.17c-0.1,0.42-0.18,0.7-0.34,1.14h3.51V176.21z M137.14,174.65h2.91
				v-1.14h-2.91V174.65z M143.15,174.65h3.33v-1.14h-3.33V174.65z M145.77,180.45l-0.1-0.6h1.72c0.31,0,0.49,0,0.47-0.78h-4.71v1.38
				H145.77z"/>
			<path class="st2" d="M165.06,184.79l-1.46,2.81c-0.52-0.65-1.09-1.4-1.85-2.94v10.24h-3.07v-9.65c-1.04,2.34-2.05,3.85-2.99,5.15
				l-1.2-3.8c2.24-2.5,3.74-6.21,3.93-6.71h-3.51v-2.99h3.77v-2.65c-1.56,0.18-2.42,0.26-3.25,0.34l-0.57-2.96
				c1.12-0.08,5.02-0.31,8.48-1.38l1.2,2.83c-0.86,0.23-1.72,0.49-2.78,0.68v3.15h2.47v2.99h-2.47v0.26c0.7,1.22,1.77,2.86,3.3,4.42
				v-8.74h2.08c-0.6-1.95-1.74-3.74-2.13-4.39l3.17-1.12c0.96,1.48,1.69,3.07,2.24,4.76l-2.29,0.75h4.94
				c0.78-1.35,1.95-3.62,2.7-5.59l3.25,1.09c-0.29,0.73-0.83,1.95-2.34,4.5h2.03v9.62h-3.59v5.85c0,0.44,0.23,0.6,0.65,0.6h0.47
				c0.31,0,0.47-0.13,0.57-0.42c0.18-0.49,0.26-2.21,0.26-3.07l2.89,0.7c-0.29,4.55-0.42,5.77-2.57,5.77h-3.17
				c-1.59,0-2.24-0.52-2.24-2.18v-7.25h-1.77c-0.39,5.23-2.18,7.36-5.93,9.59l-1.87-2.76c3.41-1.69,4.58-3.56,4.76-6.84h-2.11
				V184.79z M168.18,178.79v3.77h7.41v-3.77H168.18z"/>
		</g>
	</g>
</g>
</svg>
