<?xml version="1.0" encoding="utf-8"?>
<!-- Generator: Adobe Illustrator 24.0.1, SVG Export Plug-In . SVG Version: 6.00 Build 0)  -->
<svg version="1.1" id="レイヤー_1" xmlns="http://www.w3.org/2000/svg" xmlns:xlink="http://www.w3.org/1999/xlink" x="0px"
	 y="0px" viewBox="0 0 280 200" style="enable-background:new 0 0 280 200;" xml:space="preserve">
<style type="text/css">
	.st0{fill:none;}
	.st1{fill:#00395B;}
	.st2{fill:#D0A867;}
	.st3{fill:#FFFFFF;}
</style>
<g>
	<rect class="st0" width="280" height="160"/>
	<g>
		<g>
			<polyline class="st1" points="77,96.45 136.82,96.45 136.82,105.39 165.5,80 136.82,54.61 136.82,63.55 77,63.55 			"/>
		</g>
		<circle class="st1" cx="58.93" cy="80" r="52.93"/>
		<circle class="st2" cx="222.93" cy="80" r="53"/>
		<g>
			<g>
				<path class="st3" d="M46.15,72.28c-0.78-0.06-0.86-0.09-1.24-0.09c-1.29,0-5.57,0-7.41,6.55c0.69-0.63,2.18-1.95,4.88-1.95
					c3.65,0,7.5,2.7,7.5,7.59c0,4.65-3.59,7.96-8.04,7.96c-4.14,0-8.68-2.79-8.68-10.34c0-6.98,4.05-13.5,11.46-13.5
					c0.6,0,1.26,0.06,1.52,0.06V72.28z M41.78,80.36c-2.47,0-4.45,1.69-4.45,3.88c0,2.21,1.7,4.4,4.4,4.4c2.79,0,4.11-2.1,4.11-4.17
					C45.83,81.88,44.14,80.36,41.78,80.36z"/>
				<path class="st3" d="M82.92,68.72V93.6H58.1V68.72H82.92z M61.63,72.05v18.1h17.73v-18.1H61.63z M76.95,74.58v12.93H63.99V74.58
					H76.95z M67.18,77.54v6.95h6.52v-6.95H67.18z"/>
			</g>
		</g>
		<g>
			<g>
				<path class="st3" d="M188.95,78.52h3.59v22.93h-4.08V82.89l-4.17,2.9l-0.52-3.76L188.95,78.52z"/>
				<path class="st3" d="M215.12,97.75v3.71h-17.3c2.53-2.59,5.29-5.43,8.19-8.94c3.48-4.17,4.08-5.69,4.08-7.3
					c0-1.84-1.21-3.45-3.45-3.45c-3.3,0-5.06,3.02-5.6,3.96l-1.75-3.94c1.78-2.33,4.51-3.74,7.41-3.74c3.71,0,7.47,2.21,7.47,7.04
					c0,3.48-1.67,6.03-7.76,12.64H215.12z"/>
				<path class="st3" d="M217.76,89.99c0-4.05,0.72-6.72,1.92-8.59c1.47-2.3,3.91-3.33,6.29-3.33c8.22,0,8.22,9.83,8.22,11.92
					c0,2.13,0,11.92-8.22,11.92C217.76,101.91,217.76,92.09,217.76,89.99z M230.14,89.99c0-4.94-1.12-8.22-4.17-8.22
					c-3.25,0-4.17,3.68-4.17,8.22c0,4.97,1.12,8.22,4.17,8.22C229.14,98.21,230.14,94.7,230.14,89.99z"/>
				<path class="st3" d="M265.08,78.29v24.88h-24.82V78.29H265.08z M243.79,81.63v18.1h17.73v-18.1H243.79z M259.1,84.16v12.93
					h-12.96V84.16H259.1z M249.33,87.12v6.95h6.52v-6.95H249.33z"/>
			</g>
		</g>
		<g>
			<g>
				<path class="st3" d="M200.61,66.13h1.28v-6.66h-1.2v-1.96h19.31v1.96h-9.94v9.8h-2.34v-1.51c-2.3,0.29-4.58,0.47-6.88,0.55
					L200.61,66.13z M202.39,50.65h15.91v6.03h-15.91V50.65z M204.2,59.47v1.06h3.52v-1.06H204.2z M204.2,62.12v1.08h3.52v-1.08
					H204.2z M207.72,64.76h-3.52v1.3c0.86-0.04,1.96-0.08,3.52-0.24V64.76z M204.93,52.28v0.86h10.82v-0.86H204.93z M204.93,54.31
					v0.88h10.82v-0.88H204.93z M213.28,62.5c0.29,0.55,0.73,1.32,1.73,2.24c0.98-0.9,1.45-1.85,1.75-2.46h-6.15v-1.85h8.64v1.89
					c-0.26,0.71-0.77,2.06-2.34,3.65c1.22,0.57,2.24,0.86,3.2,1.1l-1.28,2.22c-0.69-0.22-2.12-0.65-3.83-1.77
					c-1.73,1.12-3.1,1.53-3.91,1.75l-0.96-2.14c0.77-0.2,1.85-0.51,3-1.12c-1.26-1.34-1.71-2.34-1.96-2.93L213.28,62.5z"/>
				<path class="st3" d="M225.13,66.78c0.35-0.02,2.04-0.14,2.4-0.16v-4.89h-2.4v-2.16h2.4v-8.88h15.09v2.16H230.2v1.06h11.73v1.75
					H230.2v1.08h11.73v1.77H230.2v1.06h13.87v2.16h-2.34l1.41,1.02c-1.16,1.04-2.12,1.69-3.65,2.55c2.26,1.04,3.99,1.3,4.99,1.47
					l-1.16,2.61c-4.24-1.16-8.86-3.22-10.98-7.64h-2.14v4.69c2.02-0.16,2.55-0.2,5.24-0.61v2.26c-3.18,0.59-7.62,0.98-9.8,1.1
					L225.13,66.78z M234.97,61.73c0.35,0.55,0.79,1.28,2.28,2.3c0.73-0.43,1.81-1.14,3.12-2.3H234.97z"/>
			</g>
		</g>
	</g>
</g>
<g>
	<g>
		<path class="st1" d="M59.01,178.29c-1.01,0.88-1.64,1.33-2.29,1.77l-2.13-2.86c3.98-2.68,6.06-5.41,7.49-9.18l3.2,0.65
			c-1.27,3.43-2.6,5.75-5.04,8.4h14.27c-2.44-2.76-4.11-5.49-5.17-8.22l3.2-0.86c1.74,4.13,3.98,6.81,7.28,9.15l-2.13,2.76
			c-0.65-0.44-1.22-0.83-2.34-1.95c0.08,4.11-0.36,10.58-1.25,12.64c-0.83,1.9-2.42,1.95-3.3,1.95h-4.24l-0.62-3.25h3.87
			c1.07,0,1.33-0.68,1.43-0.96c0.57-1.56,0.65-3.93,0.83-8.16h-5.38c-0.73,7.41-5.12,10.5-9.54,12.38l-1.92-2.99
			c5.56-2.24,7.85-4.89,8.19-9.39h-4.39V178.29z"/>
		<path class="st1" d="M96.4,176.24h-3.82v1.17h4.65v2.24h-4.65v1.22h5.75v2.52H83.68v-2.52h6.03v-1.22h-4.5v-2.24h4.5v-1.17h-3.69
			v-1.01H84.2v-5.38h5.3v-1.79h3.17v1.79h5.64v5.38H96.4V176.24z M97.39,184.43v7.75H85.06v-7.75H97.39z M95.54,174v-1.61h-8.55V174
			h2.73v-1.12h2.86V174H95.54z M94.32,186.82h-6.16v2.94h6.16V186.82z M102.17,169.42v16.95h-2.86v-16.95H102.17z M107.11,189.63
			c0,1.51-0.21,2.94-2.57,2.94h-3.82l-0.62-3.35h3.17c0.65,0,0.75-0.23,0.75-0.78v-20.38h3.09V189.63z"/>
		<path class="st1" d="M122.22,181.88c-0.83,0.36-1.46,0.62-3.17,1.2v7.23c0,2.26-2,2.29-2.76,2.29h-3.41l-0.47-3.2h2.6
			c0.65,0,0.86-0.03,0.86-0.65v-4.63c-1.82,0.57-2.55,0.75-3.48,0.99l-0.44-3.22c0.94-0.23,2.13-0.52,3.93-1.04v-5.38h-3.74v-2.99
			h3.74v-4.37h3.17v4.37h3.04v2.99h-3.04v4.42c1.4-0.44,2.24-0.75,3.04-1.07L122.22,181.88z M129.44,168.2
			c-0.73,6.14-2.47,14.48-4.21,19.71c2.16-0.23,5.38-0.6,7.41-0.96c-0.34-1.27-0.99-3.59-2.39-6.99l3.09-0.88
			c1.4,3.28,3.3,9.05,3.69,12.82l-3.41,0.81c-0.1-1.04-0.18-1.79-0.39-2.86c-2.94,0.68-10.17,1.53-12.77,1.77l-0.55-3.33
			c0.65,0,0.83,0,1.92-0.08c1.4-4.39,3.46-12.92,4.11-20.15L129.44,168.2z"/>
		<path class="st1" d="M146.32,170.57c-0.26,1.74-0.68,4.5-0.68,7.96c0,2.7,0.13,8.22,2.5,8.22c1.48,0,2.76-2.86,3.56-5.2l2.81,1.66
			c-1.38,3.93-3.46,7.49-6.55,7.49c-4.84,0-5.75-7.12-5.75-12.66c0-2.78,0.26-5.64,0.47-7.8L146.32,170.57z M160.36,188.25
			c0.13-3.33,0.34-11.41-4.52-15.42l2.76-1.9c3.87,3.59,5.54,7.1,5.54,17.13L160.36,188.25z"/>
		<path class="st1" d="M190.75,190.15c0,1.56-0.83,2.39-2.65,2.39h-5.62l-0.62-3.33h4.94c0.47,0,0.7-0.31,0.7-0.83V172h-18.12v-3.15
			h24.34V172h-2.96V190.15z M184.2,186.69h-12.69v-12.43h12.69V186.69z M181.03,177.17h-6.32v6.58h6.32V177.17z"/>
		<path class="st1" d="M207.96,176.03c-0.16-0.42-0.26-0.75-0.6-1.48c-2.99,0.42-6.29,0.78-9.31,0.91l-0.26-2.81h1.64
			c0.23-0.49,1.25-2.7,1.72-4.6l3.2,0.34c-0.29,0.83-0.57,1.59-1.9,4.19c0.42-0.03,3.15-0.29,3.77-0.34
			c-0.55-1.01-0.91-1.53-1.27-2.11l2.55-1.17c1.43,2.03,2.42,3.56,3.33,5.8L207.96,176.03z M198.94,176.55h10.3v13.88
			c0,1.79-1.51,2.11-1.9,2.11h-3.43l-0.52-2.94h2.37c0.31,0,0.49-0.21,0.49-0.49v-1.72h-4.29v5.15h-3.02V176.55z M201.96,179.12
			v1.82h4.29v-1.82H201.96z M201.96,183.15v1.92h4.29v-1.92H201.96z M214.59,168.04v3.22c1.46-0.42,4.32-1.69,5.69-2.6l1.77,2.37
			c-1.85,1.12-4.78,2.18-7.46,2.86v2.13c0,0.55,0.34,0.62,0.68,0.62h3.04c0.62,0,1.04,0,1.09-2.94l3.04,0.83
			c-0.13,3.48-0.78,4.99-2.83,4.99h-5.85c-2.31,0-2.44-1.85-2.44-2.13v-9.36H214.59z M211.4,180.27h3.2v3.04
			c1.64-0.6,3.51-1.4,5.41-2.73l1.9,2.42c-2.81,1.69-6.32,2.73-7.31,3.02v2.63c0,0.36,0.13,0.78,0.73,0.78h2.94
			c0.78,0,0.91-0.21,1.12-3.41l3.07,0.81c-0.36,4.13-0.75,5.51-3.2,5.51h-5.67c-1.35,0-2.18-0.81-2.18-2.24V180.27z"/>
	</g>
</g>
</svg>
