<?xml version="1.0" encoding="utf-8"?>
<!-- Generator: Adobe Illustrator 24.0.1, SVG Export Plug-In . SVG Version: 6.00 Build 0)  -->
<svg version="1.1" id="レイヤー_1" xmlns="http://www.w3.org/2000/svg" xmlns:xlink="http://www.w3.org/1999/xlink" x="0px"
	 y="0px" viewBox="0 0 240 200" style="enable-background:new 0 0 240 200;" xml:space="preserve">
<style type="text/css">
	.st0{fill:none;}
	.st1{fill:#00395B;}
	.st2{fill:#FFFFFF;}
	.st3{fill:#535353;}
	.st4{fill:#D0A867;}
</style>
<g>
	<rect y="-0.22" class="st0" width="240" height="200"/>
	<g>
		<circle class="st1" cx="27" cy="24.78" r="20"/>
		<g>
			<path class="st2" d="M20.96,30.44c0.66,0.46,2.39,1.6,5.52,1.6c3.44,0,4.56-1.83,4.56-3.36c0-1.63-1.32-2.95-4.38-2.95H24.5
				v-3.05h2.01c2.54,0,3.41-1.48,3.41-2.67c0-1.78-1.6-2.52-3.03-2.52c-2.01,0-3.69,0.94-4.96,2.34l-1.27-3.16
				c1.78-1.6,3.92-2.47,6.31-2.47c3.67,0,6.49,2.16,6.49,5.52c0,2.7-1.78,3.74-2.52,4.17c1.09,0.48,3.72,1.65,3.72,5.14
				c0,2.88-2.16,6.29-8.17,6.29c-3.56,0-5.75-1.22-6.57-1.65L20.96,30.44z"/>
		</g>
	</g>
</g>
<g>
	<g>
		<path class="st3" d="M21.04,174.9H28c0.38,0,0.87-0.01,1.12-0.03c-0.01,0.31-0.03,0.81-0.03,1.18v7.24c0,0.49,0.03,1.18,0.06,1.48
			h-1.6c0-0.2,0.01-0.46,0.01-0.76h-6.64c-0.57,0-1.28,0.03-1.68,0.06v-1.58c0.41,0.03,1.02,0.07,1.62,0.07h6.71v-6.25h-6.54
			c-0.55,0-1.26,0.03-1.62,0.06v-1.55C19.9,174.86,20.57,174.9,21.04,174.9z"/>
		<path class="st3" d="M39.13,181.54c2.25-1.39,4.01-3.49,4.86-5.28l0.85,1.53c-1.01,1.82-2.73,3.73-4.92,5.07
			c-1.42,0.87-3.19,1.7-5.37,2.09l-0.94-1.44C35.96,183.15,37.78,182.37,39.13,181.54z M38.65,177.06l-1.11,1.13
			c-0.73-0.74-2.47-2.27-3.5-2.97l1.02-1.09C36.04,174.79,37.87,176.25,38.65,177.06z"/>
		<path class="st3" d="M51.77,178.75L50.96,180c-0.74-0.53-2.23-1.48-3.12-1.96l0.8-1.21C49.51,177.3,51.11,178.29,51.77,178.75z
			 M53.18,182.04c2.34-1.33,4.23-3.21,5.37-5.2l0.85,1.48c-1.26,1.91-3.21,3.7-5.48,5.01c-1.41,0.83-3.38,1.5-4.65,1.74l-0.83-1.44
			C50,183.38,51.71,182.86,53.18,182.04z M53.87,175.66l-0.83,1.21c-0.71-0.52-2.21-1.51-3.08-2l0.8-1.21
			C51.63,174.14,53.21,175.18,53.87,175.66z"/>
		<path class="st3" d="M65.04,177.24h6.44c0.34,0,0.71-0.03,1.02-0.07v1.4c-0.32-0.03-0.71-0.04-1.02-0.04h-2.59v4.86h3.24
			c0.36,0,0.71-0.03,1-0.07v1.47c-0.29-0.04-0.76-0.06-1-0.06h-7.75c-0.32,0-0.71,0.01-1.06,0.06v-1.47
			c0.34,0.04,0.74,0.07,1.06,0.07h3.07v-4.86h-2.41c-0.25,0-0.73,0.01-1.02,0.04v-1.4C64.31,177.21,64.79,177.24,65.04,177.24z"/>
		<path class="st3" d="M79.08,180.73c0.41-1.25,0.41-3.98,0.41-5.59c0-0.48-0.03-0.81-0.11-1.13H81c-0.01,0.11-0.07,0.63-0.07,1.12
			c0,1.6-0.06,4.58-0.43,5.98c-0.42,1.54-1.3,2.91-2.49,3.92l-1.34-0.9C77.88,183.29,78.67,182.02,79.08,180.73z M83.21,183.38
			v-8.29c0-0.57-0.08-1.04-0.08-1.12h1.62c-0.01,0.08-0.07,0.55-0.07,1.12v7.75c1.22-0.55,2.8-1.74,3.81-3.22l0.85,1.21
			c-1.19,1.58-3.17,3.05-4.78,3.87c-0.25,0.14-0.42,0.27-0.53,0.35l-0.92-0.77C83.17,184.02,83.21,183.7,83.21,183.38z"/>
		<path class="st3" d="M95.69,178.84l-0.81,1.25c-0.73-0.53-2.23-1.48-3.11-1.96l0.79-1.21C93.43,177.39,95.03,178.38,95.69,178.84z
			 M97.1,182.13c2.34-1.33,4.24-3.21,5.37-5.2l0.85,1.48c-1.26,1.91-3.21,3.7-5.48,5.03c-1.41,0.81-3.38,1.49-4.65,1.72l-0.83-1.44
			C93.92,183.46,95.63,182.94,97.1,182.13z M97.8,175.74l-0.84,1.21c-0.71-0.52-2.21-1.5-3.07-1.99l0.8-1.22
			C95.56,174.23,97.13,175.27,97.8,175.74z M102,176.16l-0.98,0.42c-0.36-0.8-0.77-1.53-1.26-2.2l0.95-0.41
			C101.09,174.52,101.68,175.5,102,176.16z M103.92,175.43l-0.98,0.43c-0.39-0.8-0.83-1.5-1.32-2.16l0.97-0.41
			C102.98,173.82,103.57,174.79,103.92,175.43z"/>
		<path class="st3" d="M115.64,178.4c-0.11,0.9-0.5,3.52-0.7,4.82h1.18c0.32,0,0.9-0.03,1.22-0.06v1.43
			c-0.27-0.01-0.85-0.03-1.19-0.03h-7.55c-0.46,0-0.79,0.01-1.26,0.03v-1.44c0.36,0.04,0.81,0.07,1.26,0.07h4.85
			c0.2-1.19,0.56-3.6,0.6-4.38h-4.16c-0.42,0-0.87,0.03-1.25,0.04v-1.46c0.35,0.04,0.88,0.07,1.23,0.07h3.98
			c0.25,0,0.7-0.04,0.84-0.11l1.06,0.52C115.71,178.05,115.67,178.26,115.64,178.4z"/>
		<path class="st3" d="M126.28,177.59c1.23-0.74,2.62-1.43,3.35-1.83c0.46-0.27,0.8-0.48,1.12-0.74l0.77,1.27
			c-0.36,0.22-0.76,0.43-1.21,0.66c-0.92,0.48-2.79,1.34-4.12,2.21c-1.23,0.81-2.02,1.7-2.02,2.72c0,1.09,1.05,1.74,3.14,1.74
			c1.5,0,3.38-0.21,4.52-0.5l-0.01,1.6c-1.11,0.2-2.67,0.34-4.45,0.34c-2.7,0-4.69-0.77-4.69-3.01c0-1.49,0.95-2.63,2.38-3.64
			c-0.64-1.18-1.34-2.76-2-4.26l1.39-0.57C125,175.07,125.69,176.5,126.28,177.59z"/>
		<path class="st3" d="M137.71,182.65c-0.35,1.15-0.95,2.3-1.58,3.04c-0.22-0.2-0.71-0.52-0.98-0.67c0.63-0.66,1.15-1.64,1.42-2.65
			L137.71,182.65z M139.95,182.16h-4.08v-8.83h4.08V182.16z M138.78,174.4h-1.76v1.56h1.76V174.4z M138.78,176.95h-1.76v1.58h1.76
			V176.95z M138.78,179.51h-1.76v1.6h1.76V179.51z M139.24,182.35c0.45,0.69,0.94,1.6,1.16,2.2l-1.02,0.49
			c-0.18-0.6-0.69-1.57-1.12-2.27L139.24,182.35z M148.12,183.4h-0.74v1.01c0,0.57-0.13,0.88-0.53,1.06
			c-0.42,0.18-1.06,0.18-2.03,0.18c-0.04-0.29-0.2-0.76-0.35-1.05c0.64,0.03,1.29,0.03,1.47,0.01c0.2,0,0.24-0.06,0.24-0.22v-1
			h-4.05v2.28h-1.16v-2.28h-0.83v-0.95h0.83v-3.54h2.58v-0.67h-3.35v-0.97h1.89v-0.74h-1.26v-0.92h1.26v-0.69h-1.61v-0.97h1.61
			v-1.13h1.15v1.13h1.79v-1.13h1.16v1.13h1.61v0.97h-1.61v0.69h1.39v0.92h-1.39v0.74h1.91v0.97h-3.4v0.67h2.69v3.54h0.74V183.4z
			 M142.12,179.87v0.83h1.42v-0.83H142.12z M142.12,182.45h1.42v-0.9h-1.42V182.45z M143.23,175.6h1.79v-0.69h-1.79V175.6z
			 M143.23,177.27h1.79v-0.74h-1.79V177.27z M144.69,179.87v0.83h1.49v-0.83H144.69z M146.17,182.45v-0.9h-1.49v0.9H146.17z"/>
		<path class="st3" d="M157.26,173.63c0,2.54,0.32,7.73,5.66,10.88c-0.29,0.22-0.83,0.78-1.05,1.11c-3.18-1.92-4.68-4.78-5.37-7.35
			c-1.04,3.38-2.79,5.83-5.38,7.38c-0.25-0.27-0.85-0.81-1.21-1.05c3.01-1.55,4.71-4.31,5.52-8.11l0.71,0.13
			c-0.1-0.59-0.15-1.16-0.18-1.67h-3.33v-1.32H157.26z"/>
		<path class="st3" d="M171.65,185.1l-0.83-1.32c0.48-0.04,0.9-0.11,1.25-0.2c1.79-0.41,3.39-1.72,3.39-3.98
			c0-2.03-1.23-3.64-3.39-3.91c-0.2,1.26-0.43,2.62-0.84,3.94c-0.84,2.86-2,4.44-3.39,4.44s-2.66-1.54-2.66-3.88
			c0-3.14,2.75-5.83,6.26-5.83c3.36,0,5.49,2.35,5.49,5.28C176.93,182.59,175.05,184.61,171.65,185.1z M167.88,182.41
			c0.63,0,1.29-0.91,1.93-3.07c0.35-1.11,0.6-2.38,0.77-3.61c-2.52,0.41-3.99,2.59-3.99,4.33
			C166.59,181.67,167.28,182.41,167.88,182.41z"/>
		<path class="st3" d="M184.73,179.92l-1.93,0.55v3.61c0,0.67-0.15,1.02-0.56,1.22c-0.43,0.22-1.04,0.25-2.02,0.25
			c-0.04-0.34-0.22-0.88-0.39-1.23c0.62,0.03,1.22,0.03,1.39,0.01c0.2,0,0.27-0.07,0.27-0.27v-3.22l-1.72,0.48l-0.36-1.29
			c0.59-0.14,1.3-0.32,2.09-0.53v-2.72h-1.96v-1.23h1.96v-2.72h1.32v2.72h1.78v1.23h-1.78v2.38l1.78-0.48L184.73,179.92z
			 M192.25,175.24h-2.38v8.63c0,0.83-0.2,1.25-0.76,1.47c-0.56,0.24-1.46,0.27-2.76,0.27c-0.07-0.39-0.32-1.04-0.52-1.43
			c0.94,0.06,1.96,0.04,2.27,0.04c0.27-0.01,0.36-0.1,0.36-0.35v-8.63h-3.77v-1.3h7.55V175.24z"/>
		<path class="st3" d="M201.06,172.84c1.5,2.09,3.87,3.94,6.07,4.89c-0.32,0.32-0.63,0.77-0.85,1.16c-0.74-0.39-1.53-0.87-2.27-1.42
			v0.99h-6.98v-0.95c-0.71,0.53-1.49,1.01-2.25,1.43c-0.15-0.31-0.53-0.77-0.8-1.04c2.4-1.22,4.69-3.32,5.76-5.07H201.06z
			 M196.23,180.06h8.63v5.63h-1.33v-0.55h-6.02v0.55h-1.28V180.06z M203.77,177.31c-1.32-0.98-2.52-2.12-3.31-3.19
			c-0.71,1.04-1.83,2.18-3.15,3.19H203.77z M197.51,181.23v2.75h6.02v-2.75H197.51z"/>
		<path class="st3" d="M218.65,174.79c-0.01,0.6-0.01,1.21-0.03,1.76c0.48-0.04,0.94-0.07,1.33-0.1c0.36-0.01,0.84-0.06,1.2-0.08
			v1.37c-0.24-0.01-0.85,0-1.22,0.01c-0.36,0-0.83,0.03-1.34,0.06c-0.03,1.06-0.08,2.26-0.21,2.89c-0.14,0.67-0.46,0.85-1.13,0.85
			c-0.5,0-1.54-0.14-1.96-0.21l0.03-1.22c0.46,0.1,1.05,0.18,1.34,0.18c0.32,0,0.46-0.06,0.49-0.36c0.07-0.42,0.11-1.23,0.14-2.03
			c-1.36,0.11-2.88,0.25-4.19,0.39c-0.01,1.37-0.03,2.76,0,3.33c0.04,1.44,0.1,1.89,2.38,1.89c1.46,0,3.21-0.17,4.17-0.35l-0.04,1.5
			c-0.94,0.11-2.66,0.24-4.05,0.24c-3.4,0-3.77-0.76-3.82-3.07c-0.01-0.6-0.01-2.04-0.01-3.39c-0.52,0.06-0.95,0.1-1.26,0.14
			c-0.43,0.06-1.16,0.15-1.53,0.21l-0.15-1.43c0.42,0,0.99-0.03,1.58-0.08c0.31-0.03,0.77-0.07,1.36-0.13c0-0.81,0-1.47,0-1.71
			c0-0.49-0.03-0.9-0.1-1.34h1.56c-0.04,0.38-0.07,0.77-0.07,1.27c0,0.39,0,0.98-0.01,1.65c1.29-0.13,2.82-0.27,4.22-0.39
			c0-0.6,0-1.25,0-1.82c0-0.32-0.06-0.9-0.1-1.15h1.5C218.68,173.91,218.65,174.45,218.65,174.79z"/>
	</g>
</g>
<g>
	<g>
		<path class="st4" d="M159.57,123.12c-2.57-3.84-6.46-5.97-10.13-7.35c-1.83-0.69-3.63-1.2-5.21-1.63
			c-1.58-0.43-2.95-0.79-3.87-1.14c-1.61-0.6-3.32-1.38-4.51-2.21c-0.6-0.41-1.05-0.84-1.32-1.21c-0.27-0.37-0.34-0.63-0.35-0.85
			c0-1.55,0-3.49,0-6.05c2.07-2.3,5.03-5.86,6.25-11.5c0.43-0.19,0.85-0.41,1.25-0.69c1.01-0.7,1.87-1.71,2.59-3.09
			c0.73-1.38,1.38-3.15,2.07-5.57c0.35-1.23,0.51-2.29,0.51-3.24c0-1.09-0.22-2.04-0.64-2.81c-0.37-0.7-0.89-1.2-1.41-1.56
			c1.1-3.16,1.67-6.14,1.67-8.91c0.01-5.06-1.87-9.45-5.32-12.68c-3.38-3.18-8.16-5.28-14.03-6.31c-2.37-1.52-5.33-2.25-8.48-2.25
			c-3.33,0-6.87,0.8-10.2,2.44c-3.32,1.64-6.41,4.12-8.74,7.48c-2.74,3.94-3.96,7.55-3.95,11.23c0.01,3.07,0.81,6.1,2.02,9.48
			c-0.07,0.05-0.15,0.09-0.22,0.15c-0.42,0.36-0.78,0.86-1,1.45c-0.23,0.59-0.34,1.26-0.34,2.01c0,0.99,0.18,2.13,0.58,3.52
			c0.92,3.22,1.76,5.3,2.84,6.82c0.54,0.76,1.15,1.37,1.82,1.83c0.41,0.28,0.83,0.5,1.25,0.69c1.22,5.65,4.19,9.21,6.25,11.51
			c0,2.55,0,4.5,0,6.05c0,0.19-0.08,0.47-0.37,0.86c-0.43,0.58-1.33,1.29-2.4,1.89c-1.07,0.61-2.29,1.13-3.37,1.51
			c-1.26,0.45-3.29,0.91-5.56,1.56c-3.42,0.99-7.46,2.41-10.74,5.23c-1.64,1.41-3.08,3.18-4.09,5.38c-1.01,2.2-1.6,4.81-1.59,7.87
			c0,0.71,0.03,1.44,0.09,2.2c0.05,0.53,0.25,0.97,0.49,1.32c0.45,0.67,1.05,1.16,1.8,1.67c1.32,0.87,3.14,1.72,5.47,2.56
			c6.99,2.49,18.56,4.77,32.89,4.78c11.65,0,21.48-1.51,28.49-3.41c3.51-0.95,6.31-1.99,8.34-3.03c1.01-0.52,1.83-1.04,2.48-1.61
			c0.33-0.29,0.61-0.59,0.85-0.95c0.24-0.36,0.44-0.79,0.49-1.32c0.06-0.76,0.1-1.49,0.1-2.2
			C162.32,128.96,161.27,125.68,159.57,123.12z M102.31,55.79c2-2.89,4.66-5.02,7.54-6.44c2.88-1.42,5.98-2.11,8.8-2.11
			c2.79,0,5.28,0.68,7,1.88l0.29,0.2l0.35,0.06c5.59,0.93,9.88,2.87,12.71,5.55c2.83,2.69,4.31,6.08,4.33,10.38
			c0,2.85-0.69,6.1-2.17,9.72l0.07,0.03l-1.18,3.3l-0.19-1.65l0-0.03l0-0.02c-0.92-5.62-2.63-8.78-4.16-10.92
			c-0.76-1.07-1.45-1.88-1.94-2.59c-0.48-0.72-0.76-1.3-0.86-2.04l-0.27-2.18l-1.56,1.55c-0.27,0.27-0.63,0.47-1.14,0.6
			c-0.51,0.14-1.15,0.2-1.9,0.2c-2.45,0.01-5.88-0.7-9.38-0.71c-2.74,0-5.59,0.45-8.06,2.18c-3.69,2.59-5.69,5.84-6.73,8.65
			c-1.05,2.82-1.17,5.21-1.17,6.2c0,0.15,0,0.26,0.01,0.34l-1.3-2.78l-0.05,0.03c-1.5-3.95-2.42-7.1-2.41-9.98
			C98.93,62.23,99.82,59.4,102.31,55.79z M121.82,142.38c-0.08,0-0.17,0-0.25,0c-0.13,0-0.25-0.01-0.38-0.01l-14.22-27.75
			c0.7-0.36,1.39-0.74,2.02-1.19c0.8-0.56,1.53-1.19,2.11-1.95c0.57-0.75,1.02-1.7,1.02-2.77c0-1.68,0-3.78,0-6.65v-0.61l-0.41-0.45
			c-2.16-2.4-5.08-5.59-6.09-11.26l-0.16-0.91l-0.87-0.31c-0.55-0.2-0.97-0.4-1.34-0.65c-0.54-0.38-1.03-0.9-1.6-1.97
			c-0.57-1.06-1.17-2.65-1.82-4.95c-0.34-1.19-0.46-2.07-0.46-2.65c0-0.45,0.07-0.72,0.12-0.87c0.1-0.22,0.11-0.19,0.16-0.22
			l0.28-0.05l4.91,10.52l0-9.7l0-0.04v-0.01c0-0.04-0.01-0.15-0.01-0.33c0-0.81,0.11-2.96,1.03-5.45c0.93-2.49,2.66-5.32,5.95-7.64
			c1.95-1.37,4.3-1.79,6.82-1.79c3.22-0.01,6.57,0.7,9.38,0.71c0.87,0,1.69-0.07,2.46-0.28c0.23-0.06,0.46-0.14,0.69-0.24
			c0.22,0.52,0.49,0.99,0.79,1.43c0.88,1.28,1.96,2.42,3.01,4.26c1.04,1.83,2.07,4.36,2.73,8.36l1.24,10.79l3.96-11.03
			c0.02,0.01,0.04,0.02,0.06,0.03c0.18,0.11,0.33,0.25,0.46,0.5c0.13,0.25,0.26,0.64,0.26,1.32c0,0.58-0.1,1.36-0.39,2.37
			c-0.87,3.07-1.65,4.86-2.37,5.85c-0.36,0.5-0.69,0.81-1.05,1.07c-0.37,0.25-0.79,0.46-1.34,0.65l-0.87,0.31l-0.16,0.91
			c-1.01,5.67-3.93,8.86-6.09,11.26l-0.41,0.45v0.61c0,2.88,0,4.97,0,6.65c0,1.04,0.4,1.98,0.96,2.73c0.84,1.13,2.01,1.97,3.28,2.69
			c0.26,0.15,0.55,0.27,0.82,0.41L121.82,142.38z"/>
		<polygon class="st4" points="112.58,113.27 112.58,122.5 121.63,119.14 130.68,122.5 130.68,113.27 121.63,116.26 		"/>
		<path class="st4" d="M120.21,81.51c0.45-0.19,1.03-0.37,1.67-0.36c0.5,0,1.04,0.1,1.6,0.38c0.1,2.92,2.48,5.27,5.43,5.27
			c3.01,0,5.44-2.44,5.45-5.45c0-3.01-2.44-5.45-5.45-5.45c-2.6,0-4.76,1.82-5.31,4.25c-0.6-0.22-1.18-0.32-1.72-0.32
			c-0.69,0-1.3,0.14-1.8,0.31c-0.55-2.43-2.71-4.24-5.31-4.24c-3.01,0-5.45,2.44-5.45,5.45c0,3.01,2.44,5.45,5.45,5.45
			C117.74,86.79,120.12,84.44,120.21,81.51z M128.92,77.88c1.91,0,3.46,1.55,3.46,3.47c0,1.92-1.55,3.47-3.46,3.47
			c-1.92,0-3.47-1.55-3.47-3.47C125.45,79.43,127,77.88,128.92,77.88z M111.31,81.34c0-1.91,1.55-3.46,3.47-3.47
			c1.91,0,3.46,1.55,3.47,3.47c0,1.92-1.55,3.47-3.47,3.47C112.86,84.81,111.32,83.26,111.31,81.34z"/>
		<path class="st4" d="M121.51,124.42c-0.86,0-1.56,0.7-1.56,1.56c0,0.86,0.7,1.56,1.56,1.56c0.86,0,1.56-0.7,1.56-1.56
			C123.06,125.11,122.37,124.42,121.51,124.42z"/>
		<path class="st4" d="M121.51,132.09c-0.86,0-1.56,0.7-1.56,1.56c0,0.86,0.7,1.56,1.56,1.56c0.86,0,1.56-0.7,1.56-1.56
			C123.06,132.79,122.37,132.09,121.51,132.09z"/>
	</g>
	<g>
		<path class="st4" d="M80.87,74.11l-28.53,0c-2.66,0-4.84,2.22-4.84,4.93l0,20.04c0,2.71,2.18,4.93,4.84,4.93l16.17,0l7.4,7.47
			c0.24,0.24,0.59,0.31,0.9,0.18c0.31-0.13,0.51-0.44,0.51-0.77l0-6.88l3.55,0c2.66,0,4.84-2.22,4.84-4.93l0-20.04
			C85.71,76.33,83.53,74.11,80.87,74.11z M71.68,97.69l-17.02,0l0-2.39l17.02,0L71.68,97.69z M78.55,90.23l-23.88,0l0-2.39l23.88,0
			L78.55,90.23L78.55,90.23z M78.55,82.77l-23.88,0l0-2.39l23.88,0L78.55,82.77L78.55,82.77z"/>
	</g>
	<g>
		<path class="st4" d="M158.38,49.24l0,16.85c0,2.28,1.83,4.14,4.07,4.14l2.98,0l0,5.78c0,0.29,0.17,0.54,0.43,0.65
			c0.26,0.11,0.56,0.05,0.75-0.15l6.22-6.28l13.6,0c2.24,0,4.07-1.87,4.07-4.14l0-16.85c0-2.28-1.83-4.14-4.07-4.14l-23.98,0
			C160.21,45.09,158.38,46.96,158.38,49.24z M170.17,62.91l14.3,0l0,2.01l-14.3,0L170.17,62.91z M164.4,58.64l0-2.01l20.08,0l0,2.01
			L164.4,58.64L164.4,58.64z M164.4,52.37l0-2.01l20.08,0l0,2.01L164.4,52.37L164.4,52.37z"/>
	</g>
</g>
</svg>
