<?xml version="1.0" encoding="utf-8"?>
<!-- Generator: Adobe Illustrator 24.0.1, SVG Export Plug-In . SVG Version: 6.00 Build 0)  -->
<svg version="1.1" id="レイヤー_1" xmlns="http://www.w3.org/2000/svg" xmlns:xlink="http://www.w3.org/1999/xlink" x="0px"
	 y="0px" viewBox="0 0 240 200" style="enable-background:new 0 0 240 200;" xml:space="preserve">
<style type="text/css">
	.st0{fill:none;}
	.st1{fill:#00395B;}
	.st2{fill:#FFFFFF;}
	.st3{fill:#535353;}
	.st4{fill:none;stroke:#D0A867;stroke-width:4;stroke-miterlimit:10;}
	.st5{fill:#FFFFFF;stroke:#D0A867;stroke-width:4;stroke-miterlimit:10;}
	.st6{fill:#D0A867;}
</style>
<g>
	<rect class="st0" width="240" height="200"/>
	<g>
		<circle class="st1" cx="27" cy="25" r="20"/>
		<g>
			<path class="st2" d="M30.48,17.78c-0.69-0.05-0.76-0.08-1.09-0.08c-1.15,0-4.94,0-6.57,5.8c0.61-0.56,1.93-1.73,4.33-1.73
				c3.23,0,6.64,2.39,6.64,6.72c0,4.12-3.18,7.05-7.13,7.05c-3.67,0-7.69-2.47-7.69-9.16c0-6.18,3.59-11.96,10.16-11.96
				c0.53,0,1.12,0.05,1.35,0.05V17.78z M26.61,24.94c-1.86,0-3.94,1.22-3.94,3.44c0,1.96,1.5,3.89,3.89,3.89
				c2.47,0,3.64-1.86,3.64-3.69C30.2,25.16,27.29,24.94,26.61,24.94z"/>
		</g>
	</g>
</g>
<g>
	<g>
		<path class="st3" d="M67.35,180.25h-5.67v1.99h-1.34v-1.99H54.8v-1.18h5.53v-0.97h-4.1v-5.49h4.1v-0.87h-5.13v-1.19h5.13v-1.2
			h1.34v1.2h5.21v1.19h-5.21v0.87h4.2v5.49h-4.2v0.97h5.67V180.25z M57.49,174.85h2.84v-1.16h-2.84V174.85z M60.33,177.04v-1.19
			h-2.84v1.19H60.33z M61.68,173.69v1.16h2.9v-1.16H61.68z M64.58,175.85h-2.9v1.19h2.9V175.85z"/>
		<path class="st3" d="M72.51,178.75h1.97v1.12h-1.97v2.34h-1.12v-2.34H69.3v-1.12h2.09v-0.95h-1.68v-5.03h1.68v-0.9h-1.95v-1.09
			h1.95v-1.43h1.12v1.43h1.89v1.09h-1.89v0.9h1.74v5.03h-1.74V178.75z M70.59,174.81h0.94v-1.11h-0.94V174.81z M70.59,176.84h0.94
			v-1.12h-0.94V176.84z M73.34,173.71h-0.95v1.11h0.95V173.71z M73.34,175.72h-0.95v1.12h0.95V175.72z M78.84,171.53v1.25h3.05v8.11
			c0,0.57-0.1,0.9-0.46,1.08c-0.39,0.17-0.97,0.18-1.82,0.18c-0.06-0.28-0.2-0.77-0.34-1.05c0.6,0.01,1.18,0.01,1.36,0
			c0.18,0,0.24-0.06,0.24-0.22v-1.51c-0.13,0.11-0.25,0.24-0.32,0.34c-0.35-0.52-0.57-1.13-0.71-1.78c-0.18,0.76-0.45,1.39-0.8,1.81
			c-0.08-0.15-0.21-0.35-0.35-0.49v2.83h-0.81v-2.76c-0.14,0.1-0.31,0.25-0.39,0.36c-0.28-0.49-0.48-1.05-0.59-1.65
			c-0.18,0.73-0.42,1.33-0.74,1.74c-0.08-0.2-0.25-0.43-0.41-0.59v3.01h-0.97v-9.4h2.93v-1.25h-3.05v-1.12h7.4v1.12H78.84z
			 M77.29,174.92c0,1.47,0.04,2.84,0.59,3.98v-5.06h-2.13v5.22c0.49-0.63,0.74-1.85,0.87-3.35h-0.53v-0.8H77.29z M80.87,173.85
			h-2.19v5.14c0.46-0.67,0.74-1.86,0.87-3.26H79v-0.8h1.23c0,1.44,0.04,2.79,0.64,3.92V173.85z"/>
		<path class="st3" d="M87.35,178.73h2.12v1.16h-2.12v2.3H86.2v-2.3H84v-1.16h2.2v-0.99h-1.83v-4.92h1.82v-0.92h-2.02v-1.13h2.02
			v-1.43h1.16v1.43h2.16v1.13h-2.16v0.92h1.88V173c1.37-0.83,2.66-2.35,3.28-3.61h1.15c0.87,1.4,2.21,2.79,3.5,3.47
			c-0.22,0.29-0.49,0.77-0.67,1.12c-0.49-0.31-0.98-0.7-1.46-1.13v1.04H91.2v-0.9c-0.43,0.42-0.91,0.8-1.39,1.11
			c-0.13-0.29-0.36-0.71-0.59-0.99v4.64h-1.88V178.73z M85.29,174.83h1.08v-1.05h-1.08V174.83z M85.29,176.8h1.08v-1.08h-1.08V176.8
			z M88.26,173.78H87.2v1.05h1.06V173.78z M88.26,175.72H87.2v1.08h1.06V175.72z M92.98,181.16c0,0.42-0.06,0.7-0.31,0.85
			c-0.27,0.17-0.59,0.18-1.09,0.18c-0.01-0.25-0.13-0.66-0.24-0.91h0.6c0.1,0,0.11-0.03,0.11-0.14v-1.64h-1.32v2.65h-0.92v-7.33
			h3.17V181.16z M90.74,175.78v0.92h1.32v-0.92H90.74z M92.06,178.57v-0.98h-1.32v0.98H92.06z M95.01,172.84
			c-0.74-0.7-1.42-1.51-1.88-2.25c-0.42,0.73-1.04,1.54-1.77,2.25H95.01z M94.58,180.08h-0.94v-4.92h0.94V180.08z M95.47,174.6h1.04
			v6.42c0,0.53-0.1,0.81-0.43,0.98c-0.36,0.15-0.88,0.17-1.71,0.17c-0.04-0.27-0.17-0.69-0.31-0.97c0.55,0.01,1.05,0.01,1.21,0.01
			c0.15-0.01,0.21-0.06,0.21-0.2V174.6z"/>
		<path class="st3" d="M101.94,179.21c0.62,0.97,1.76,1.41,3.31,1.47c1.55,0.06,4.67,0.01,6.42-0.1c-0.15,0.31-0.36,0.92-0.43,1.33
			c-1.58,0.07-4.4,0.1-6,0.03c-1.78-0.07-2.98-0.53-3.87-1.61c-0.66,0.57-1.33,1.13-2.06,1.74l-0.67-1.34
			c0.63-0.39,1.37-0.91,2.03-1.44v-3.29h-1.79v-1.21h3.07V179.21z M101.29,172.67c-0.45-0.66-1.46-1.6-2.34-2.21l0.97-0.78
			c0.88,0.6,1.92,1.47,2.4,2.14L101.29,172.67z M107.91,175.9c0.59,1.56,1.77,2.66,3.54,3.12c-0.29,0.25-0.66,0.77-0.84,1.09
			c-1.7-0.57-2.83-1.67-3.53-3.24c-0.5,1.15-1.53,2.3-3.54,3.19c-0.15-0.27-0.56-0.71-0.85-0.94c2.3-0.9,3.11-2.12,3.38-3.24h-3.43
			v-1.16h3.57v-0.17v-1.5h-3.11v-1.18h1.6c-0.2-0.6-0.66-1.43-1.13-2.06l1.11-0.46c0.53,0.66,1.06,1.57,1.25,2.19l-0.77,0.34h3.46
			l-0.8-0.28c0.43-0.62,0.97-1.58,1.23-2.28l1.33,0.42c-0.46,0.77-0.98,1.58-1.42,2.14h2.03v1.18h-3.46v1.51v0.15h3.89v1.16H107.91z
			"/>
		<path class="st3" d="M119.12,174.13c1.23-0.74,2.62-1.43,3.35-1.83c0.46-0.27,0.8-0.48,1.12-0.74l0.77,1.27
			c-0.36,0.22-0.76,0.43-1.21,0.66c-0.92,0.48-2.79,1.34-4.12,2.21c-1.23,0.81-2.02,1.7-2.02,2.72c0,1.09,1.05,1.74,3.14,1.74
			c1.5,0,3.38-0.21,4.52-0.5l-0.01,1.6c-1.11,0.2-2.67,0.34-4.45,0.34c-2.7,0-4.69-0.77-4.69-3.01c0-1.49,0.95-2.63,2.38-3.64
			c-0.64-1.18-1.34-2.76-2-4.26l1.39-0.57C117.84,171.6,118.53,173.03,119.12,174.13z"/>
		<path class="st3" d="M139.98,182.22h-1.34v-0.58h-5.29v0.55h-1.3v-4.2c-1.05,0.6-2.16,1.11-3.28,1.47
			c-0.15-0.35-0.49-0.88-0.74-1.16c1.75-0.52,3.52-1.4,5.03-2.56c-0.57-0.66-1.53-1.48-2.35-2.12c-0.53,0.41-1.11,0.81-1.72,1.18
			c-0.2-0.32-0.62-0.8-0.92-1.01c2.3-1.25,3.87-2.98,4.68-4.5l1.47,0.28c-0.22,0.39-0.48,0.77-0.74,1.15h3.57l0.24-0.07l0.88,0.48
			c-0.77,1.99-2.03,3.67-3.54,5.01h5.38V182.22z M132.51,171.88c-0.27,0.29-0.55,0.6-0.85,0.88c0.84,0.62,1.82,1.42,2.44,2.07
			c0.92-0.87,1.71-1.86,2.27-2.96H132.51z M138.64,180.47v-3.14h-5.29v3.14H138.64z"/>
		<path class="st3" d="M154.48,178.69c-0.46,0.62-1.08,1.15-1.78,1.62c0.46,0.45,0.97,0.7,1.48,0.69c0.36,0,0.46-0.29,0.53-1.19
			c0.25,0.21,0.66,0.42,0.98,0.5c-0.2,1.51-0.6,1.88-1.58,1.88c-0.95,0-1.81-0.45-2.49-1.22c-0.94,0.49-1.97,0.9-2.98,1.2
			c-0.13-0.25-0.45-0.8-0.67-1.04c1.04-0.24,2.09-0.59,3.01-1.05c-0.32-0.53-0.59-1.16-0.8-1.85h-3.01V179
			c0.76-0.06,1.54-0.11,2.31-0.17v0.91c-0.77,0.07-1.55,0.14-2.31,0.2v1.05c0,0.63-0.14,0.91-0.6,1.05
			c-0.45,0.15-1.13,0.17-2.18,0.17c-0.07-0.31-0.24-0.73-0.38-1.02c0.7,0.04,1.44,0.04,1.62,0.03c0.22,0,0.28-0.06,0.28-0.25v-0.91
			l-2.8,0.22l-0.11-1.01c0.8-0.04,1.81-0.1,2.91-0.18v-0.84h-2.86v-1h2.86v-0.78c-0.81,0.08-1.62,0.14-2.38,0.17
			c-0.04-0.22-0.15-0.59-0.28-0.81c1.85-0.1,4.03-0.34,5.27-0.64l0.77,0.78c-0.62,0.15-1.34,0.27-2.12,0.38v0.91h2.76
			c-0.13-0.6-0.21-1.26-0.25-1.93h1.26c0.03,0.69,0.11,1.33,0.25,1.93h2.8c-0.48-0.41-1.46-0.95-2.25-1.29l0.73-0.76
			c0.8,0.29,1.79,0.8,2.3,1.23l-0.74,0.81h1.47v1h-4.01c0.15,0.46,0.35,0.88,0.57,1.25c0.53-0.35,0.98-0.74,1.32-1.18L154.48,178.69
			z M155.44,175.12h-12.37v-1.02h5.49v-0.71h-4.13v-0.94h4.13v-0.71h-4.88v-0.98h2.69c-0.17-0.34-0.42-0.71-0.67-1.02l1.13-0.38
			c0.39,0.39,0.76,0.98,0.92,1.37l-0.07,0.03h3.11c0.25-0.42,0.57-1.02,0.74-1.43l1.42,0.31c-0.28,0.41-0.55,0.8-0.8,1.12h2.68v0.98
			h-4.94v0.71h4.2v0.94h-4.2v0.71h5.55V175.12z"/>
		<path class="st3" d="M168.18,177.19c-0.67,1.18-1.64,2.1-2.82,2.83c1.41,0.52,3.14,0.84,5.07,0.97c-0.28,0.32-0.62,0.87-0.77,1.22
			c-2.24-0.21-4.15-0.67-5.7-1.46c-1.71,0.76-3.71,1.22-5.79,1.49c-0.08-0.31-0.39-0.9-0.63-1.16c1.86-0.18,3.63-0.53,5.15-1.08
			c-0.63-0.45-1.18-0.97-1.65-1.57c-0.67,0.45-1.43,0.87-2.28,1.23c-0.18-0.32-0.56-0.77-0.83-0.97c2.17-0.78,3.64-1.95,4.41-3.05
			l1.37,0.25c-0.2,0.27-0.41,0.53-0.63,0.78h4.01l0.22-0.06L168.18,177.19z M161.05,172.81c-0.57,1.05-1.55,2.16-2.55,2.83
			c-0.22-0.25-0.64-0.59-0.9-0.77c0.92-0.57,1.82-1.54,2.21-2.4L161.05,172.81z M163.5,171.88c0,1.44-0.24,3.29-2.37,4.62
			c-0.21-0.28-0.66-0.69-0.95-0.88c1.91-1.12,2.09-2.62,2.09-3.77h-4.4v-1.2h5.41v-1.3h1.33v1.3h5.48v1.2h-3.7v2.83
			c0,0.59-0.07,0.92-0.52,1.11c-0.42,0.18-1.05,0.18-1.95,0.18c-0.04-0.34-0.21-0.81-0.35-1.15c0.59,0.03,1.18,0.03,1.34,0.01
			c0.17,0,0.21-0.04,0.21-0.2v-2.79h-1.62V171.88z M161.99,177.74c0.5,0.66,1.2,1.22,2.04,1.68c0.88-0.46,1.64-1.02,2.21-1.7H162
			L161.99,177.74z M167.98,172.42c0.87,0.77,1.89,1.89,2.38,2.66l-1.11,0.66c-0.42-0.74-1.43-1.92-2.27-2.73L167.98,172.42z"/>
		<path class="st3" d="M179.25,177.75c-0.17,0.8-0.52,1.54-1.16,2.2c1.79,0.7,4.15,0.85,7.12,0.88c-0.24,0.31-0.48,0.85-0.55,1.29
			c-3.14-0.11-5.69-0.35-7.65-1.32c-0.91,0.57-2.19,1.05-3.89,1.42c-0.15-0.29-0.5-0.85-0.8-1.15c1.53-0.27,2.63-0.62,3.47-1.02
			c-0.63-0.48-1.16-1.08-1.62-1.81l1.13-0.45c0.43,0.63,0.95,1.13,1.57,1.54c0.53-0.48,0.83-1.01,1-1.58h-4.03v-5.52h4.24v-1.01
			h-5.48v-1.18h12.12v1.18h-5.28v1.01h4.4v5.52H179.25z M175.06,174.49h3.01v-1.19h-3.01V174.49z M178.04,176.69
			c0.03-0.22,0.03-0.45,0.03-0.69v-0.5h-3.01v1.19H178.04z M182.54,175.5h-3.11v0.52c0,0.24,0,0.45-0.03,0.67h3.14V175.5z
			 M179.43,173.3v1.19h3.11v-1.19H179.43z"/>
	</g>
</g>
<g>
	<g>
		<g>
			<path class="st4" d="M146.67,91.16c3.12,2.42,3.63,9.93,3.27,11.55c-0.36,1.61-3.95,2.81-9.07,2.81c-5.12,0-68.47,0-68.47,0
				s-8.71-0.44-11.32-1.09c-2.61-0.65-8.27-2.94-8.27-3.81c0-0.87,0-4.5,0-5.9s0.93-1.86,1.44-3.15s-0.64-5.54,1.14-6.25
				c1.77-0.71,6.56,0.05,12.39-2.61s12.27-5.15,29.51-5.15s17.3,7.75,24.02,9.09C128.03,88,143.55,88.75,146.67,91.16z"/>
			<circle class="st5" cx="134.86" cy="102.11" r="7.59"/>
			<circle class="st5" cx="71.97" cy="102.11" r="7.5"/>
		</g>
	</g>
	<path class="st6" d="M41.09,123.4h-4.37c-1.1,0-2-0.9-2-2V91.25c0-1.1,0.9-2,2-2h4.37c1.1,0,2,0.9,2,2v30.15
		C43.09,122.51,42.19,123.4,41.09,123.4z"/>
	<g>
		<path class="st6" d="M54.4,129.94l13.22,5.01c0.23,0.09,0.47,0.13,0.71,0.13h127.93c1.1,0,2-0.9,2-2v-16.1c0-1.1-0.9-2-2-2H55.11
			c-1.1,0-2,0.9-2,2v11.09C53.11,128.9,53.62,129.64,54.4,129.94z"/>
	</g>
	<g>
		<path class="st5" d="M199.31,78.8h-35.5c-1.1,0-2,0.9-2,2v30.53c0,1.1,0.89,2,1.99,2c5.71,0,21.91,0.26,25.28,3.03
			c2.86,2.36,4.43,11.8,5.21,18.52c0.12,1.01,0.97,1.77,1.99,1.77h9.01c1.1,0,2-0.9,2-2v-33.94c0-0.19-0.03-0.39-0.08-0.58
			l-5.98-19.91C200.97,79.38,200.19,78.8,199.31,78.8z"/>
	</g>
	<path class="st5" d="M159.81,113.35H34.71c-1.1,0-2,0.9-2,2v6c0,1.1,0.9,2,2,2h125.09c1.1,0,2-0.9,2-2v-6
		C161.81,114.24,160.91,113.35,159.81,113.35z"/>
	<circle class="st5" cx="79.09" cy="133.32" r="10"/>
	<circle class="st5" cx="176.23" cy="133.32" r="10"/>
	<g>
		<path class="st6" d="M170.42,85.93h23.81c0.88,0,1.66,0.58,1.92,1.43L199.62,99c0.06,0.19,0.08,0.38,0.08,0.57v5.82
			c0,1.4-1.4,2.36-2.7,1.87l-27.28-10.25c-0.78-0.29-1.3-1.04-1.3-1.87v-7.21C168.42,86.83,169.32,85.93,170.42,85.93z"/>
	</g>
</g>
</svg>
