<?xml version="1.0" encoding="utf-8"?>
<!-- Generator: Adobe Illustrator 24.0.1, SVG Export Plug-In . SVG Version: 6.00 Build 0)  -->
<svg version="1.1" id="レイヤー_1" xmlns="http://www.w3.org/2000/svg" xmlns:xlink="http://www.w3.org/1999/xlink" x="0px"
	 y="0px" viewBox="0 0 240 200" style="enable-background:new 0 0 240 200;" xml:space="preserve">
<style type="text/css">
	.st0{fill:none;}
	.st1{fill:#00395B;}
	.st2{fill:#FFFFFF;}
	.st3{fill:#535353;}
	.st4{fill:#D0A867;}
</style>
<g>
	<rect y="-0.38" class="st0" width="240" height="200"/>
	<g>
		<circle class="st1" cx="27" cy="24.62" r="20"/>
		<g>
			<path class="st2" d="M33.05,17.73h-8.27v4.38c0.58-0.18,1.37-0.43,2.65-0.43c4.12,0,7.15,2.72,7.15,6.62
				c0,3.23-2.21,6.87-8.12,6.87c-3.36,0-5.6-1.2-6.31-1.55l0.92-3.31c2.39,1.58,4.73,1.58,5.35,1.58c4,0,4.58-2.44,4.58-3.56
				c0-2.14-1.68-3.41-3.82-3.41c-1.02,0-2.04,0.28-2.75,0.99H21.4V14.45h11.66V17.73z"/>
		</g>
	</g>
</g>
<g>
	<g>
		<path class="st3" d="M64.29,182.17c0,1,0.98,1.68,3.14,1.68c1.91,0,3.7-0.21,4.83-0.55l0.01,1.54c-1.09,0.28-2.83,0.49-4.8,0.49
			c-3.01,0-4.64-1.01-4.64-2.84c0-0.76,0.15-1.43,0.28-1.97l1.44,0.14C64.4,181.19,64.29,181.67,64.29,182.17z M67.49,175.06
			c1.36,0,2.86-0.08,3.89-0.2v1.46c-0.97,0.08-2.58,0.17-3.89,0.17c-1.43,0-2.63-0.06-3.75-0.15v-1.44
			C64.75,175,66.04,175.06,67.49,175.06z M72.89,175.29l-0.92,0.41c-0.28-0.57-0.73-1.42-1.12-1.95l0.91-0.38
			C72.11,173.88,72.61,174.75,72.89,175.29z M74.52,174.69l-0.91,0.41c-0.31-0.6-0.76-1.42-1.15-1.93l0.9-0.38
			C73.72,173.31,74.25,174.19,74.52,174.69z"/>
		<path class="st3" d="M83.38,173.78c0,2.54,0.32,7.73,5.66,10.88c-0.29,0.22-0.83,0.78-1.05,1.11c-3.18-1.92-4.68-4.78-5.37-7.35
			c-1.04,3.38-2.79,5.83-5.38,7.38c-0.25-0.27-0.85-0.81-1.21-1.05c3.01-1.55,4.71-4.31,5.52-8.11l0.71,0.13
			c-0.1-0.59-0.15-1.16-0.18-1.67h-3.33v-1.32H83.38z"/>
		<path class="st3" d="M97.84,184.27h5.29v1.13H91.32v-1.13h5.14v-3.18H92v-1.12h4.47v-1.67h-2.75v-0.73
			c-0.7,0.5-1.43,0.97-2.18,1.37c-0.15-0.29-0.53-0.78-0.81-1.05c2.38-1.18,4.66-3.24,5.71-4.96h1.33c1.48,2.04,3.82,3.85,6,4.79
			c-0.31,0.34-0.62,0.79-0.84,1.16c-0.74-0.38-1.5-0.85-2.24-1.39v0.8h-2.84v1.67h4.57v1.12h-4.57V184.27z M94.08,181.3
			c0.55,0.74,1.11,1.74,1.3,2.41l-1.13,0.5c-0.17-0.67-0.7-1.72-1.23-2.49L94.08,181.3z M100.21,177.16
			c-1.22-0.92-2.31-1.96-3.04-2.94c-0.67,0.95-1.7,1.99-2.9,2.94H100.21z M98.76,183.78c0.48-0.66,1.08-1.72,1.42-2.49l1.25,0.46
			c-0.55,0.88-1.18,1.83-1.69,2.47L98.76,183.78z"/>
		<path class="st3" d="M111.19,177.75c1.23-0.74,2.62-1.43,3.35-1.83c0.46-0.27,0.8-0.48,1.12-0.74l0.77,1.27
			c-0.36,0.22-0.76,0.43-1.21,0.66c-0.92,0.48-2.79,1.34-4.12,2.21c-1.23,0.81-2.02,1.7-2.02,2.72c0,1.09,1.05,1.74,3.14,1.74
			c1.5,0,3.38-0.21,4.52-0.5l-0.01,1.6c-1.11,0.2-2.67,0.34-4.45,0.34c-2.7,0-4.69-0.77-4.69-3.01c0-1.49,0.95-2.63,2.38-3.64
			c-0.64-1.18-1.34-2.76-2-4.26l1.39-0.57C109.92,175.22,110.61,176.65,111.19,177.75z"/>
		<path class="st3" d="M132.83,179.96v0.94h-12.41v-0.94h5.49v-0.67h-4.52v-0.84h4.52v-0.64h-4.19v-0.83h4.19v-0.69h-5.48v-0.94
			h5.48v-0.67h-4.02v-0.8h4.02v-0.95h1.32v0.95h3.94v1.47h1.65v0.94h-1.65v1.51h-3.94v0.64h4.62v0.84h-4.62v0.67H132.83z
			 M122.18,181.47h9.05v4.37h-1.32v-0.41h-6.46v0.42h-1.27V181.47z M123.46,182.31v0.7h6.46v-0.7H123.46z M129.91,184.57v-0.74
			h-6.46v0.74H129.91z M127.22,175.35h2.65v-0.67h-2.65V175.35z M127.22,176.98h2.65v-0.69h-2.65V176.98z"/>
		<path class="st3" d="M140.09,184.92c-0.42-0.43-1.22-1.05-1.96-1.6c-0.42,0.85-1.19,1.67-2.65,2.3c-0.13-0.29-0.48-0.76-0.69-0.98
			c1.86-0.8,2.41-1.86,2.55-2.86h-2.25v-1.13h2.31v-1.08h1.18v1.08h2.45v1.13h-2.48c-0.01,0.15-0.04,0.29-0.07,0.45
			c0.84,0.55,1.88,1.32,2.44,1.81L140.09,184.92z M137.44,177.51c-0.55,0.76-1.22,1.43-1.86,1.85c-0.17-0.25-0.52-0.64-0.77-0.85
			c0.81-0.42,1.68-1.25,2.25-2.07h-1.97v-1.04h2.35v-2.27h1.13v2.27h2.37v1.04h-2.37v0.1c0.55,0.29,2.12,1.27,2.49,1.55l-0.7,0.91
			c-0.36-0.34-1.15-0.95-1.79-1.43v1.72h-1.13V177.51z M136,175.25c-0.1-0.45-0.41-1.13-0.71-1.64l0.88-0.32
			c0.35,0.49,0.67,1.13,0.77,1.57L136,175.25z M140.89,173.54c-0.34,0.63-0.67,1.26-0.97,1.69l-0.85-0.31
			c0.25-0.46,0.56-1.21,0.73-1.7L140.89,173.54z M143.82,183.91c-0.7,0.73-1.88,1.48-2.87,1.92c-0.21-0.25-0.59-0.63-0.87-0.87
			c0.99-0.39,2.12-1.11,2.66-1.71L143.82,183.91z M143.3,175.83c0.1-0.36,0.2-0.77,0.28-1.13h-2.52v-1.12h6.6v1.12h-2.69
			c-0.14,0.39-0.28,0.78-0.41,1.13h2.67v7.26h-5.74v-7.26H143.3z M146,176.81h-3.33v1.13H146V176.81z M146,178.87h-3.33v1.15H146
			V178.87z M146,180.94h-3.33v1.16H146V180.94z M145.62,183.32c0.8,0.5,1.82,1.26,2.35,1.78l-1,0.71c-0.49-0.5-1.5-1.3-2.3-1.85
			L145.62,183.32z"/>
		<path class="st3" d="M160.56,184.4c0.5,0,0.59-0.22,0.63-1.76c0.28,0.21,0.83,0.41,1.19,0.5c-0.15,1.95-0.52,2.47-1.71,2.47h-1.99
			c-1.43,0-1.78-0.39-1.78-1.67v-3.22h-2.17c-0.31,2.48-1.11,4.23-4.47,5.14c-0.11-0.34-0.48-0.88-0.76-1.15
			c2.97-0.7,3.59-2.06,3.82-3.99h-3.49v-1.25h12.34v1.25h-3.96v3.21c0,0.41,0.1,0.48,0.63,0.48H160.56z M151.47,177.48h-1.32v-3.08
			h5.14v-1.43h1.39v1.43h5.21v3.08h-1.39v-1.85h-9.04V177.48z M152.29,178.12v-1.18h7.41v1.18H152.29z"/>
		<path class="st3" d="M168.1,173.36c-0.31,0.92-0.67,1.86-1.09,2.76v9.69h-1.23v-7.42c-0.36,0.57-0.73,1.09-1.12,1.54
			c-0.11-0.32-0.45-1.05-0.64-1.37c1.16-1.36,2.24-3.43,2.89-5.53L168.1,173.36z M177.17,177.94h-7.69v1.88
			c0,1.76-0.2,4.34-1.33,6.02c-0.2-0.22-0.69-0.66-0.95-0.81c1-1.51,1.09-3.66,1.09-5.23v-3.01h8.88V177.94z M170.25,175.32h-2.13
			v-1.15h2.13v-1.11h1.21v1.11h2.37v-1.11h1.23v1.11h2.06v1.15h-2.06v1.04h-1.23v-1.04h-2.37v1.04h-1.21V175.32z M176.83,184.65
			c0,0.52-0.08,0.81-0.43,1c-0.36,0.17-0.88,0.18-1.65,0.18c-0.04-0.29-0.17-0.73-0.31-0.99c0.5,0.01,0.94,0.01,1.08,0
			c0.15-0.01,0.2-0.06,0.2-0.2v-1.05h-1.75v2.17h-1.04v-2.17h-1.65v2.23h-1.09v-7h6.65V184.65z M171.27,179.79v1.04h1.65v-1.04
			H171.27z M172.92,182.72v-1.02h-1.65v1.02H172.92z M173.96,179.79v1.04h1.75v-1.04H173.96z M175.71,182.72v-1.02h-1.75v1.02
			H175.71z"/>
	</g>
</g>
<g>
	<path class="st4" d="M185,139.68H73.61v-57.5H185V139.68z M78.19,135.09h102.22V86.76H78.19V135.09z"/>
	<polygon class="st4" points="68.89,128.08 64.3,128.08 64.3,72.87 173.4,72.87 173.4,77.45 68.89,77.45 	"/>
	<polygon class="st4" points="59.58,118.77 55,118.77 55,63.57 164.1,63.57 164.1,68.15 59.58,68.15 	"/>
	<g>
		<path class="st4" d="M154.8,105.28c0.37,3.82,2.84,6.34,6.34,6.34c3.5,0,5.97-2.52,6.34-6.34l0.52-4.13
			c0.32-4.05-2.98-6.99-6.87-6.99c-3.88,0-7.19,2.93-6.87,6.99L154.8,105.28z"/>
		<path class="st4" d="M174.72,121.83l-0.25-1.59c-0.21-1.34-1.05-2.49-2.26-3.1l-5.27-2.66c-0.16-0.08-0.3-0.21-0.41-0.35
			c-1.53,1.61-3.38,2.56-5.38,2.56c-2,0-3.85-0.95-5.38-2.56c-0.11,0.14-0.25,0.27-0.41,0.35l-5.27,2.66
			c-1.21,0.61-2.05,1.76-2.26,3.1l-0.25,1.59c-0.09,0.57,0.03,1.4,0.54,1.82c0.68,0.56,3.2,4.03,13.03,4.03
			c9.83,0,12.35-3.48,13.03-4.03C174.69,123.24,174.8,122.4,174.72,121.83z"/>
	</g>
	<path class="st4" d="M129.31,125.96c-8.29,0-15.03-6.74-15.03-15.03s6.74-15.03,15.03-15.03c8.29,0,15.03,6.74,15.03,15.03
		S137.59,125.96,129.31,125.96z M129.31,98.18c-7.03,0-12.74,5.72-12.74,12.74c0,7.03,5.72,12.74,12.74,12.74
		c7.03,0,12.74-5.72,12.74-12.74C142.05,103.9,136.33,98.18,129.31,98.18z"/>
	<g>
		<path class="st4" d="M83.7,93.1h-0.48v-1.13c0.76,0,1.13-0.17,1.42-0.57h0.65v9.22H83.7V93.1z"/>
		<path class="st4" d="M87.63,93.72c0-1.28,0.68-2.4,2.21-2.4s2.22,1.12,2.22,2.4v4.57c0,1.28-0.69,2.42-2.22,2.42
			s-2.21-1.13-2.21-2.42V93.72z M89.22,93.44v5.12c0,0.39,0.25,0.69,0.62,0.69c0.37,0,0.64-0.3,0.64-0.69v-5.12
			c0-0.39-0.26-0.68-0.64-0.68C89.47,92.76,89.22,93.05,89.22,93.44z"/>
		<path class="st4" d="M94.28,93.72c0-1.28,0.68-2.4,2.21-2.4c1.53,0,2.22,1.12,2.22,2.4v4.57c0,1.28-0.69,2.42-2.22,2.42
			c-1.53,0-2.21-1.13-2.21-2.42V93.72z M95.87,93.44v5.12c0,0.39,0.25,0.69,0.62,0.69c0.37,0,0.64-0.3,0.64-0.69v-5.12
			c0-0.39-0.26-0.68-0.64-0.68C96.11,92.76,95.87,93.05,95.87,93.44z"/>
		<path class="st4" d="M100.92,93.72c0-1.28,0.68-2.4,2.21-2.4s2.22,1.12,2.22,2.4v4.57c0,1.28-0.69,2.42-2.22,2.42
			s-2.21-1.13-2.21-2.42V93.72z M102.51,93.44v5.12c0,0.39,0.25,0.69,0.62,0.69c0.37,0,0.64-0.3,0.64-0.69v-5.12
			c0-0.39-0.26-0.68-0.64-0.68C102.76,92.76,102.51,93.05,102.51,93.44z"/>
		<path class="st4" d="M107.56,93.72c0-1.28,0.68-2.4,2.21-2.4c1.53,0,2.22,1.12,2.22,2.4v4.57c0,1.28-0.69,2.42-2.22,2.42
			c-1.53,0-2.21-1.13-2.21-2.42V93.72z M109.15,93.44v5.12c0,0.39,0.25,0.69,0.62,0.69c0.37,0,0.64-0.3,0.64-0.69v-5.12
			c0-0.39-0.26-0.68-0.64-0.68C109.4,92.76,109.15,93.05,109.15,93.44z"/>
	</g>
</g>
</svg>
