<?xml version="1.0" encoding="utf-8"?>
<!-- Generator: Adobe Illustrator 24.0.1, SVG Export Plug-In . SVG Version: 6.00 Build 0)  -->
<svg version="1.1" id="レイヤー_1" xmlns="http://www.w3.org/2000/svg" xmlns:xlink="http://www.w3.org/1999/xlink" x="0px"
	 y="0px" viewBox="0 0 280 200" style="enable-background:new 0 0 280 200;" xml:space="preserve">
<style type="text/css">
	.st0{fill:#00395B;}
	.st1{fill:none;}
	.st2{fill:#FFFFFF;}
	.st3{fill:#D0A867;}
	.st4{fill:#00AEB6;}
	.st5{clip-path:url(#SVGID_2_);}
	.st6{stroke:#000000;stroke-linecap:round;stroke-linejoin:round;stroke-miterlimit:10;}
	.st7{fill:#000F31;}
	.st8{fill:#C7E5EE;}
	.st9{fill:#FFD29C;}
	.st10{fill:#FF9F7C;}
	.st11{fill:#EEF2FB;}
</style>
<g>
	<g>
		<path class="st0" d="M57.53,172.08v3.17h-5.8v2.42c0.57-0.08,1.46-0.23,2.94-0.23c2.91,0,5.07,0.62,6.47,1.72
			c1.66,1.3,2.47,3.25,2.47,5.23c0,2.24-1.07,4.86-4.42,6.16c-1.51,0.57-3.3,0.75-5.04,0.75l-0.52-3.04
			c2.44-0.05,6.32-0.29,6.32-3.87c0-1.82-1.2-3.95-5.07-3.95c-1.04,0-2.18,0.13-3.15,0.29v6.73c0,2.63-1.92,3.35-3.98,3.35
			c-4.16,0-5.8-2.76-5.8-5.25c0-4.45,4.32-6.27,6.45-7.15v-3.15h-5.9v-3.17h5.9v-2.86h3.33v2.86H57.53z M48.43,181.59
			c-1.17,0.6-3.25,1.61-3.25,3.72c0,1.38,1.14,2.18,2.29,2.18c0.96,0,0.96-0.39,0.96-0.86V181.59z M59.66,169.21
			c2.44,1.95,3.98,4.39,5.1,6.73l-2.94,1.79c-1.92-3.8-3.22-5.43-4.81-6.84L59.66,169.21z"/>
		<path class="st0" d="M93.04,185.57c-1.46-0.29-1.79-0.34-2.44-0.49v7.1H72.3v-7.05c-0.65,0.13-1.77,0.39-2.29,0.49l-1.01-3.09
			c1.27-0.18,5.23-0.75,9.59-2.29c-0.96-0.7-1.59-1.2-2.73-2.24c-1.33,0.88-2.39,1.53-4.65,2.47l-1.35-2.6
			c5.3-1.98,7.02-4.26,7.72-5.17h-4.42v3.04h-3.2v-5.88h9.85v-1.79h3.25v1.79h10.01v5.96h-3.25v-3.12H77.96l2.81,0.49
			c-0.16,0.23-0.52,0.7-0.65,0.86h9v2.31c-0.57,0.7-1.87,2.26-4.55,4c3.93,1.4,7.46,1.79,9.44,1.98L93.04,185.57z M87.48,186.66
			H75.44v2.91h12.04V186.66z M87.04,184.19c-2.42-0.7-3.85-1.25-5.54-2.13c-1.9,0.91-3.64,1.53-5.69,2.13H87.04z M77.99,176.5
			c0.75,0.68,1.66,1.46,3.54,2.5c2.03-1.01,2.68-1.69,3.43-2.5H77.99z"/>
		<path class="st0" d="M106.28,180.73l-1.33,2.03c-0.36-0.44-0.65-0.75-1.3-1.92v11.73h-2.99v-9.54c-0.75,2.29-1.64,3.54-2.24,4.45
			l-1.04-4.32c1.43-1.92,2.52-3.95,3.17-7.59H97.8v-2.91h2.86v-4.58h2.99v4.58h2.21v2.91h-2.21v0.91c0.52,1.25,1.66,2.89,2.63,3.74
			v-1.43h6.47v-1.53h-5.36v-2.44h5.36v-1.4h-6.08v-2.65h2.91c-0.26-0.73-0.55-1.54-0.99-2.37l3.04-0.36
			c0.29,0.52,0.78,1.48,1.17,2.73h3.25c0.68-1.61,0.81-2.24,0.91-2.73l3.12,0.39c-0.34,0.96-0.55,1.51-0.99,2.34h2.83v2.65h-6.08
			v1.4h5.49v2.44h-5.49v1.53h6.53v2.73h-6.53v0.73c0.34,1.04,2.7,5.1,6.81,6.73l-1.35,2.99c-2.03-1.17-3.95-2.63-5.46-5.02v3.28
			c0,1.27-0.49,2.34-2.26,2.34h-3.33l-0.49-2.63c-2.37,1.3-3.38,1.72-4.08,2l-1.04-2.81c2.7-0.91,4.71-1.98,6.53-3.02l0.57,2.65
			c-0.34,0.23-0.62,0.42-1.2,0.73h1.38c0.55,0,0.83-0.08,0.83-0.83v-7.15h-4.6c0.42,0.23,1.85,1.2,3.17,2.81l-2.08,2.05
			c-0.81-0.99-2.11-2.16-3.15-2.78l1.87-2.08h-1.69V180.73z M122.5,183.28c-0.42,0.6-1.2,1.64-2.83,2.96l-2.13-1.74
			c1.48-1.22,2.11-2.05,2.68-2.91L122.5,183.28z"/>
		<path class="st0" d="M150.09,173.82v3.28h-4.16v2.63c0,8.84-6.79,10.92-12.43,11.73l-1.3-3.25c8.24-0.81,10.22-4.24,10.22-8.5
			v-2.6h-7.49v6.4h-3.48v-6.4h-4v-3.28h4v-4.5h3.48v4.5h7.49v-4.58h3.51v4.58H150.09z"/>
		<path class="st0" d="M156.09,187.83c2.65-2.55,3.56-6.16,3.77-8.94l3.22,0.34c-0.34,3.69-1.38,7.93-4.29,11.02L156.09,187.83z
			 M173.85,173.4c-0.57-0.7-0.83-1.53-0.83-2.29c0-1.92,1.59-3.54,3.56-3.54c1.98,0,3.56,1.59,3.56,3.56c0,1.61-1.07,2.99-2.57,3.43
			v2.08h-8.5v14.69h-3.54v-14.69h-8.61v-3.25h8.61v-4.06h3.54v4.06H173.85z M174.68,178.81c0.57,3.33,1.2,5.98,3.82,9.26l-2.81,2.18
			c-2.34-2.81-3.38-5.69-4.16-11.02L174.68,178.81z M174.74,171.14c0,1.04,0.86,1.85,1.85,1.85c1.04,0,1.87-0.83,1.87-1.85
			c0-1.04-0.86-1.87-1.87-1.87C175.59,169.27,174.74,170.07,174.74,171.14z"/>
		<path class="st0" d="M207.05,178.5v3.61h-22.31v-3.61H207.05z"/>
		<path class="st0" d="M233.26,184.43c-3.74-2.42-6.29-3.77-10.48-5.41v12.35h-3.74v-22.2h3.74v6.24c5.85,1.85,10.01,4.16,12.3,5.41
			L233.26,184.43z"/>
	</g>
</g>
<g>
	<rect class="st1" width="280" height="160"/>
	<g>
		<g>
			<circle class="st0" cx="136.8" cy="57.53" r="42.57"/>
			<g>
				<path class="st2" d="M121.71,41.56l2.78,3.3c-0.47,2.41-1.22,4.46-2.78,6.13c-1.63,1.74-4.1,3.22-7.35,3.85l-1.21-2.51
					c7-1.29,8.08-4.94,8.58-8.13h-9.63v-2.65H121.71z M127.41,41.53c0,1.26-1.02,2.28-2.28,2.28c-1.26,0-2.28-1.02-2.28-2.28
					c0-1.27,1.02-2.28,2.28-2.28C126.37,39.25,127.41,40.25,127.41,41.53z M123.99,41.53c0,0.64,0.5,1.14,1.14,1.14
					c0.6,0,1.14-0.49,1.14-1.14s-0.54-1.14-1.14-1.14C124.49,40.39,123.99,40.91,123.99,41.53z"/>
				<path class="st2" d="M144.02,45c-0.23,2.46-1.04,5.83-3.54,7.61c-1.98,1.41-4.99,2.06-7.46,2.25l-0.8-2.51
					c4.57-0.23,7.72-1.26,8.61-4.88h-10.3V45H144.02z M142.97,41.01v2.45h-11.21v-2.45H142.97z"/>
				<path class="st2" d="M154.24,46.12c-1.69-1.12-3.15-1.83-5.23-2.55l1.19-2.28c0.92,0.27,3,0.89,5.44,2.4L154.24,46.12z
					 M149.33,51.82c5.63-0.49,9.63-2.43,11.56-9.8l2.35,1.62c-2.25,7.35-6.35,10.19-13.3,11.06L149.33,51.82z"/>
				<path class="st2" d="M133.97,77.27l-1.28,3.87h-4.12l6.46-17.79h4.67l6.46,17.79h-4.12l-1.28-3.87H133.97z M139.7,74.1
					l-2.32-7.01l-2.35,7.01H139.7z"/>
			</g>
		</g>
		<g>
			<circle class="st3" cx="184.95" cy="108.47" r="42.57"/>
			<g>
				<path class="st2" d="M169.86,92.51l2.78,3.3c-0.47,2.41-1.22,4.46-2.78,6.13c-1.63,1.74-4.11,3.22-7.36,3.85l-1.21-2.51
					c7-1.29,8.08-4.94,8.58-8.13h-9.63v-2.65H169.86z M175.56,92.47c0,1.26-1.02,2.28-2.28,2.28c-1.26,0-2.28-1.02-2.28-2.28
					c0-1.27,1.02-2.28,2.28-2.28C174.52,90.2,175.56,91.2,175.56,92.47z M172.14,92.47c0,0.64,0.5,1.14,1.14,1.14
					c0.6,0,1.14-0.49,1.14-1.14s-0.54-1.14-1.14-1.14C172.65,91.33,172.14,91.85,172.14,92.47z"/>
				<path class="st2" d="M192.17,95.94c-0.23,2.46-1.04,5.83-3.54,7.61c-1.98,1.41-4.99,2.06-7.46,2.25l-0.8-2.51
					c4.57-0.24,7.72-1.26,8.61-4.88h-10.3v-2.46H192.17z M191.12,91.95v2.45h-11.21v-2.45H191.12z"/>
				<path class="st2" d="M202.39,97.06c-1.69-1.12-3.15-1.83-5.23-2.55l1.19-2.28c0.92,0.27,3,0.89,5.44,2.4L202.39,97.06z
					 M197.48,102.76c5.63-0.49,9.63-2.43,11.56-9.8l2.35,1.62c-2.25,7.36-6.35,10.19-13.3,11.06L197.48,102.76z"/>
				<path class="st2" d="M185.98,114.3c1.33,0,2.34,0.22,3.05,0.51c1.53,0.62,2.77,2.08,2.77,4.16c0,2.19-1.15,3.16-1.84,3.74
					c0.73,0.46,2.34,1.53,2.34,4.31c0,5.07-4.91,5.07-6.5,5.07h-6.26V114.3H185.98z M183.28,117.73v3.61H186
					c1.7,0,2.06-1.26,2.06-1.81c0-0.64-0.31-1.79-2.23-1.79H183.28z M183.28,124.41v4.25H186c0.58,0,2.57,0,2.57-2.1
					c0-1.57-1.17-2.15-2.35-2.15H183.28z"/>
			</g>
		</g>
		<g>
			<circle class="st4" cx="235.2" cy="57.53" r="42.57"/>
			<g>
				<path class="st2" d="M220.11,41.56l2.78,3.3c-0.47,2.41-1.22,4.46-2.78,6.13c-1.63,1.74-4.11,3.22-7.36,3.85l-1.21-2.51
					c7-1.29,8.08-4.94,8.58-8.13h-9.63v-2.65H220.11z M225.81,41.53c0,1.26-1.02,2.28-2.28,2.28c-1.26,0-2.28-1.02-2.28-2.28
					c0-1.27,1.02-2.28,2.28-2.28C224.77,39.25,225.81,40.25,225.81,41.53z M222.39,41.53c0,0.64,0.5,1.14,1.14,1.14
					c0.6,0,1.14-0.49,1.14-1.14s-0.54-1.14-1.14-1.14C222.89,40.39,222.39,40.91,222.39,41.53z"/>
				<path class="st2" d="M242.42,45c-0.23,2.46-1.04,5.83-3.54,7.61c-1.98,1.41-4.99,2.06-7.46,2.25l-0.8-2.51
					c4.57-0.23,7.72-1.26,8.61-4.88h-10.3V45H242.42z M241.37,41.01v2.45h-11.21v-2.45H241.37z"/>
				<path class="st2" d="M252.64,46.12c-1.69-1.12-3.15-1.83-5.23-2.55l1.19-2.28c0.92,0.27,3,0.89,5.44,2.4L252.64,46.12z
					 M247.73,51.82c5.63-0.49,9.63-2.43,11.56-9.8l2.35,1.62c-2.25,7.35-6.35,10.19-13.3,11.06L247.73,51.82z"/>
				<path class="st2" d="M243.37,80.21c-1.84,0.89-3.67,1.28-5.71,1.28c-6.42,0-9.51-4.45-9.51-9.23c0-5.66,4.2-9.27,9.49-9.27
					c2.04,0,4.03,0.6,5.73,1.7l-1.22,3.41c-0.51-0.44-1.9-1.68-4.49-1.68c-3.74,0-5.77,2.63-5.77,5.82c0,3.1,1.9,5.82,6.02,5.82
					c2.77,0,4.6-1.24,5.46-1.81V80.21z"/>
			</g>
		</g>
	</g>
	<g>
		<defs>
			<rect id="SVGID_1_" width="280" height="160"/>
		</defs>
		<clipPath id="SVGID_2_">
			<use xlink:href="#SVGID_1_"  style="overflow:visible;"/>
		</clipPath>
		<g class="st5">
			<path class="st6" d="M80.23,84.76c0,0-15.75,19.33-24.18,10.93c-8.97-8.94-2.78-24.44,6.44-28.08
				c9.22-3.64,18.18-3.15,23.91,1.26C93.88,74.61,81.92,83.54,80.23,84.76z"/>
			<path class="st6" d="M37.51,76.97l18.55,18.72c0,0-4.67-16.31,10.96-25.79c11.6-7.04,19.39-1.03,19.39-1.03L63.08,49.02
				L37.51,76.97z"/>
			<path class="st7" d="M59.76,68.7c15.77-13.63,21.44-7.47,28.95-0.51c3.05,2.83-4.38,9.78-13.07,17.3s-18.97,15.52-26.72,8.28
				C40.55,85.95,51.06,76.22,59.76,68.7z"/>
			<path class="st8" d="M80.23,84.76c0,0-15.75,19.33-24.18,10.93c-8.97-8.94-2.78-24.44,6.44-28.08
				c9.22-3.64,18.18-3.15,23.91,1.26C93.88,74.61,81.92,83.54,80.23,84.76z"/>
			<g>
				<path class="st9" d="M75.58,96.17c18.27,2.26,23.58-7.3,23.58-7.3s10.02,5.73,24.49,11.19c14.04,5.3,12.81-5.35,5.07-8.12
					c-10.76-3.84-10.42-8.67-20.57-14.36c-8.61-4.83-19.79-4.66-19.79-4.66l-35.02-27.4L23.5,63.72l47.63,41.41
					c0,0,0.7-0.43,8.08,9.86c3.64,5.07,15.44,14.9,30.59,27.09c5.41,4.35,11.61-2.56,2.89-8.47s-17.21-17.75-17.21-17.75
					L75.58,96.17z"/>
				<path class="st9" d="M118.6,101.55c0,0,19.67,14.98,24.3,20.62c3.65,4.44,0.02,8.95-6.16,5.7c7.76,7.24,0.63,14.28-5.43,10.29
					c-6.06-3.98-6.06-3.98-6.06-3.98s7.39,4.95,2.31,8.59c-5.07,3.64-13.79-5.82-21.44-14.26c-7.64-8.43-39.4-37.53-39.4-37.53
					l17.04-8.38C83.78,82.6,101.67,76.28,118.6,101.55z"/>
				<path class="st10" d="M115.15,107.32c0,0,23.32,20.37,21.69,20.14C135.38,127.25,117.56,112.42,115.15,107.32z"/>
				<path class="st10" d="M101.13,122.44c0,0,17.45,16.57,16.22,16.4C116.25,138.69,104.24,129.06,101.13,122.44z"/>
				<path class="st10" d="M109.83,117.46c0,0,18.79,18.25,17.47,18.06C126.11,135.35,113.38,123.9,109.83,117.46z"/>
				<path class="st10" d="M87.34,92.7c0,0,6.65,4.8,15.18,3.97c6.9-0.67,8.1-3.14,8.1-3.14s-3.74,1.49-9.76,1.64
					C96.71,95.26,93,94.83,87.34,92.7z"/>
			</g>
			<path class="st11" d="M37.51,76.97l18.55,18.72c0,0-4.67-16.31,10.96-25.79c11.6-7.04,19.39-1.03,19.39-1.03L63.08,49.02
				L37.51,76.97z"/>
			<path class="st0" d="M-39.3,22.55l88.21,71.22c0,0-3.78-13.3,10.84-25.06c16.24-13.07,29.16-0.42,29.16-0.42L-3-23L-39.3,22.55z"
				/>
		</g>
	</g>
</g>
</svg>
