<?xml version="1.0" encoding="utf-8"?>
<!-- Generator: Adobe Illustrator 24.0.1, SVG Export Plug-In . SVG Version: 6.00 Build 0)  -->
<svg version="1.1" id="レイヤー_1" xmlns="http://www.w3.org/2000/svg" xmlns:xlink="http://www.w3.org/1999/xlink" x="0px"
	 y="0px" viewBox="0 0 280 200" style="enable-background:new 0 0 280 200;" xml:space="preserve">
<style type="text/css">
	.st0{fill:#00395B;}
	.st1{fill:none;}
	.st2{fill:#009EAB;}
	.st3{fill:#EAF4E6;}
	.st4{fill:#0079B6;}
	.st5{clip-path:url(#SVGID_2_);fill:#D0A867;}
	.st6{clip-path:url(#SVGID_2_);}
	.st7{fill:#D0A867;}
	.st8{clip-path:url(#SVGID_4_);fill:#D0A867;}
	.st9{clip-path:url(#SVGID_4_);}
	.st10{clip-path:url(#SVGID_6_);fill:#00395B;}
	.st11{clip-path:url(#SVGID_6_);fill:#FFC89E;}
	.st12{clip-path:url(#SVGID_6_);}
	.st13{fill:#FFDAB0;}
	.st14{fill:#271700;}
	.st15{fill:#271700;stroke:#271700;stroke-linecap:round;stroke-linejoin:round;stroke-miterlimit:10;}
	.st16{fill:#FFA69D;}
	.st17{fill:#481600;}
	.st18{clip-path:url(#SVGID_6_);fill:#FFFFFF;}
	.st19{clip-path:url(#SVGID_6_);fill:#828785;}
	.st20{fill:none;stroke:#26546E;stroke-linecap:round;stroke-linejoin:round;stroke-miterlimit:10;}
	.st21{fill:#00AEB6;stroke:#EAF4E6;stroke-miterlimit:10;}
	.st22{fill:#EAF4E6;stroke:#EAF4E6;stroke-miterlimit:10;}
</style>
<g>
	<g>
		<g>
			<path class="st0" d="M106.06,169.26v2.83H86.04v17.37h20.44v2.86H82.84v-23.06H106.06z M96.59,177.3
				c-0.18,0.44-0.23,0.57-0.44,1.04h9.54v2.37H94.88c-0.29,0.47-0.49,0.75-0.88,1.22h9.54v6.5h-13.1v-3.33
				c-0.94,0.6-1.46,0.88-2.42,1.38l-1.66-2.6c1.9-0.65,3.56-1.64,5.02-3.17h-4.6v-2.37H93c0.16-0.36,0.23-0.52,0.34-0.81h-2.65
				v-1.35h-3.93v-2.39h3.93v-1.12h3.02v1.12h4.84v-1.12h2.99v1.12h4v2.39h-4v1.35h-2.99v-1.35h-4.84v0.78L96.59,177.3z
				 M93.37,184.06v2.16h7.23v-2.16H93.37z"/>
			<path class="st0" d="M110.84,175.19c2.11-0.7,6.24-2.34,9.33-6.99l3.74,0.52c-0.47,0.73-0.68,1.04-1.14,1.72h9.59v2.89
				c-2.83,4.29-5.62,6.32-8.06,7.98h9.85v11.08h-17.29v-7.33c-1.69,0.62-2.99,1.07-5.25,1.66l-1.33-3.35
				c5.25-0.96,7.88-2.26,9.8-3.22c-1.69-1.72-3.3-2.91-4.26-3.59c-1.09,0.62-1.85,1.01-3.38,1.64L110.84,175.19z M120.15,173.32
				c-0.31,0.29-0.99,0.91-1.66,1.43c2.78,1.85,4,3.04,4.6,3.64c1.4-0.99,2.99-2.13,5.2-5.07L120.15,173.32L120.15,173.32z
				 M130.91,184.29H120.1v5.04h10.82L130.91,184.29L130.91,184.29z"/>
			<path class="st0" d="M162.22,192.79c-1.01-0.7-2.81-1.98-4.76-4.5c-2,2.44-3.64,3.74-4.86,4.68l-1.71-2.57v2.55h-3.12v-4.39
				c-1.14,0.34-5.2,1.4-8.22,1.79l-0.49-3.15c0.23-0.03,1.3-0.18,1.53-0.21v-14.95h-1.35v-2.96h13.21v1.22h10.87v3.09
				c0,1.53-0.65,6.92-3.85,12.04c1.85,2.24,3.54,3.46,4.6,4.19L162.22,192.79z M143.65,172.04v2.86h4.11v-2.86H143.65z
				 M143.65,177.63v2.78h4.11v-2.78H143.65z M147.76,183.2h-4.11v3.33c1.48-0.23,2.7-0.44,4.11-0.83V183.2z M155.25,174.18
				c0.31,2.73,0.91,5.62,2.21,8.14c1.92-3.77,2.44-7.12,2.68-8.92h-8.09v-1.35h-1.17v17.89c2.03-1.43,3.15-2.55,4.65-4.58
				c-2.65-4.65-3.07-9.41-3.17-10.53L155.25,174.18z"/>
			<path class="st0" d="M168.25,169.29h13.6v8.81h-9.57c-0.13,0.78-0.21,1.33-0.49,2.78h10.14c-0.29,11.34-1.77,12.14-5.07,12.14
				h-5.95l-0.62-3.33h5.59c1.87,0,2.29,0,2.68-5.75h-10.58c0.65-2.55,1.17-5.1,1.46-8.87h9.23v-2.76h-10.4v-3.02H168.25z
				 M187.44,168.43h3.43v24.54h-3.43V168.43z"/>
		</g>
	</g>
	<g>
		<rect class="st1" width="280" height="160"/>
		<g>
			<g>
				<path class="st2" d="M16.65,159.74c3.91-5.61,5.9-8.41,9.94-13.97c-5.31-4.37-8-6.54-13.44-10.83
					c12.4-1.75,24.84-3.24,37.31-4.48c0.99,9.97,1.48,14.96,2.47,24.93C40.81,156.59,28.71,158.04,16.65,159.74z"/>
				<path class="st3" d="M50,130.98c0.48,4.79,0.72,7.19,1.2,11.98c0.48,4.79,0.72,7.19,1.2,11.98c-6.95,0.69-10.43,1.08-17.37,1.91
					c-6.94,0.83-10.41,1.28-17.34,2.25c3.77-5.39,5.68-8.08,9.58-13.43c-5.11-4.21-7.69-6.29-12.91-10.43
					c7.12-0.99,10.68-1.46,17.81-2.31C39.29,132.09,42.86,131.7,50,130.98 M50.91,129.93c-0.4,0.04-0.61,0.06-1.01,0.1
					c-7.15,0.71-10.72,1.11-17.86,1.96s-10.7,1.32-17.83,2.31c-0.91,0.13-1.36,0.19-2.27,0.32c0.7,0.55,1.05,0.83,1.74,1.38
					c4.94,3.91,7.39,5.88,12.23,9.86c-3.68,5.07-5.49,7.61-9.05,12.72c-0.5,0.72-0.75,1.08-1.25,1.8c0.88-0.13,1.32-0.19,2.2-0.31
					c6.92-0.97,10.39-1.42,17.32-2.25s10.41-1.21,17.35-1.9c0.39-0.04,0.59-0.06,0.98-0.1c-0.04-0.38-0.06-0.57-0.09-0.96
					c-0.47-4.79-0.71-7.19-1.18-11.99c-0.47-4.79-0.71-7.19-1.18-11.99C50.97,130.5,50.95,130.31,50.91,129.93L50.91,129.93z"/>
			</g>
			<path class="st4" d="M52.39,154.95c-5.98-2.62-9-3.91-15.08-6.43c5.71-0.66,8.57-0.97,14.29-1.54
				C51.91,150.17,52.07,151.76,52.39,154.95z"/>
		</g>
		<g>
			<g>
				<path class="st2" d="M228.22,155.38c0.99-9.97,1.48-14.96,2.47-24.93c12.47,1.24,24.91,2.73,37.31,4.48
					c-5.44,4.29-8.13,6.46-13.44,10.83c4.05,5.57,6.03,8.36,9.94,13.97C252.44,158.04,240.35,156.59,228.22,155.38z"/>
				<path class="st3" d="M266.81,135.25c-5.22,4.13-7.8,6.22-12.91,10.43c3.89,5.35,5.81,8.04,9.58,13.43
					c-6.93-0.97-10.4-1.42-17.34-2.25s-10.42-1.21-17.37-1.91c0.48-4.79,0.72-7.19,1.2-11.98c0.48-4.79,0.72-7.19,1.2-11.98
					c7.14,0.71,10.71,1.1,17.84,1.96C256.13,133.8,259.69,134.26,266.81,135.25 M269.21,134.62c-0.91-0.13-1.36-0.19-2.27-0.32
					c-7.12-1-10.69-1.46-17.83-2.31s-10.71-1.25-17.86-1.96c-0.4-0.04-0.61-0.06-1.01-0.1c-0.04,0.38-0.06,0.57-0.09,0.96
					c-0.47,4.79-0.71,7.19-1.18,11.99s-0.71,7.19-1.18,11.99c-0.04,0.38-0.06,0.57-0.09,0.96c0.39,0.04,0.59,0.06,0.98,0.1
					c6.95,0.69,10.42,1.07,17.35,1.9c6.93,0.83,10.4,1.28,17.32,2.25c0.88,0.12,1.32,0.19,2.2,0.31c-0.5-0.72-0.75-1.08-1.25-1.8
					c-3.57-5.11-5.38-7.65-9.05-12.72c4.84-3.98,7.29-5.95,12.23-9.86C268.16,135.45,268.51,135.17,269.21,134.62L269.21,134.62z"/>
			</g>
			<path class="st4" d="M228.76,154.95c5.99-2.62,9-3.91,15.08-6.43c-5.71-0.66-8.57-0.97-14.29-1.54
				C229.24,150.17,229.08,151.76,228.76,154.95z"/>
		</g>
		<g>
			<g>
				<defs>
					<rect id="SVGID_1_" x="149.19" y="26.66" width="107.82" height="133.34"/>
				</defs>
				<clipPath id="SVGID_2_">
					<use xlink:href="#SVGID_1_"  style="overflow:visible;"/>
				</clipPath>
				<path class="st5" d="M176.35,160.16c0,0-2.07-36.04-2.07-45.7s16.26-13.5,31.07-12.86c14.8,0.64,26.02,3.57,27.17,9.9
					c1.18,6.5-0.59,49.09-0.59,49.09L176.35,160.16z"/>
				<polygon class="st5" points="193.55,93.43 194.83,109.4 210.92,108.8 211.57,89.81 				"/>
				<g class="st6">
					<path class="st7" d="M200.7,41.41c15.41,0,19.5,11.63,19.84,15.74s-0.6,26.51-1.71,28.74c-1.71,3.42-12.66,12.32-16.08,12.32
						c-2.76,0-15.92-6.16-17.29-8.55c-1.37-2.39-3.92-30.45-4.26-32.84C180.85,54.41,186.33,41.41,200.7,41.41z"/>
					<path class="st7" d="M184.21,65.43c-0.95-2.11-6.05-6.01-7.59-2.15c-1.54,3.87,0.58,12.2,6.01,13.64
						C188.05,78.37,184.21,65.43,184.21,65.43z"/>
					<path class="st7" d="M218.48,64.61c1.03-2.06,6.29-5.76,7.67-1.83s-1.09,12.17-6.56,13.38
						C214.12,77.38,218.48,64.61,218.48,64.61z"/>
					<ellipse class="st7" cx="209.08" cy="63.31" rx="1.54" ry="2.39"/>
					<ellipse class="st7" cx="192.83" cy="64.33" rx="1.37" ry="2.39"/>
					<path class="st7" d="M193.51,84.52c0,0,3.84-0.23,7.88-1c5.15-0.98,8.89-2.08,8.89-2.08s-3.67,7.1-8.17,7.55
						C196.38,89.57,193.51,84.52,193.51,84.52z"/>
					<path class="st7" d="M184.46,58.52l-0.69,12.42c0,0-7.49-15.58-3.39-23.62c4.42-8.68,11.76-8.64,11.76-8.64s-1.37-0.34-4.11,0
						c4.79-3.08,14.71-5.13,22.24-1.71c-0.2-1.06-0.87-1.66-0.87-1.66s8.24,1.53,10.59,7.4c6.84,5.13,4.65,12.73,3.62,16.84
						c-1.03,4.11-4.56,10.48-4.56,10.48l-1.2-12.42c-3.64-1.5-7.19-4.01-8.21-8.12c0,0-8.6,4.24-13.73,5.95
						c2.05-1.87,2.25-3.82,2.25-3.82S191.99,57.15,184.46,58.52z"/>
				</g>
				<path class="st5" d="M191.61,111.89c0,0,12.63,42.86,12.63,41.9s10.71-42.67,10.71-42.67l-12.24-3.25L191.61,111.89z"/>
				<polygon class="st5" points="200.41,108.83 202.14,113.61 205.58,113.8 206.54,108.83 202.71,107.87 				"/>
				<polygon class="st5" points="202.14,112.96 199.84,140.02 204.24,153.79 207.49,140.02 205.58,113.8 				"/>
				<polygon class="st5" points="192.95,104.05 202.71,107.87 212.66,103.28 214.95,111.13 202.71,107.87 191.61,111.89 				"/>
			</g>
			<g>
				<defs>
					<rect id="SVGID_3_" x="22.99" y="26.66" width="107.82" height="133.34"/>
				</defs>
				<clipPath id="SVGID_4_">
					<use xlink:href="#SVGID_3_"  style="overflow:visible;"/>
				</clipPath>
				<path class="st8" d="M50.15,160.16c0,0-2.07-36.04-2.07-45.7s16.26-13.5,31.07-12.86c14.8,0.64,26.02,3.57,27.17,9.9
					c1.18,6.5-0.59,49.09-0.59,49.09L50.15,160.16z"/>
				<polygon class="st8" points="67.34,93.43 68.63,109.4 84.72,108.8 85.36,89.81 				"/>
				<g class="st9">
					<g>
						<path class="st7" d="M74.49,41.41c15.41,0,19.5,11.63,19.84,15.74s-0.6,26.51-1.71,28.74C90.92,89.31,79.97,98.2,76.55,98.2
							c-2.76,0-15.92-6.16-17.29-8.55c-1.37-2.39-3.92-30.45-4.26-32.84C54.65,54.41,60.12,41.41,74.49,41.41z"/>
						<path class="st7" d="M58.01,65.43c-0.95-2.11-6.05-6.01-7.59-2.15c-1.54,3.87,0.58,12.2,6.01,13.64
							C61.85,78.37,58.01,65.43,58.01,65.43z"/>
						<path class="st7" d="M92.28,64.61c1.03-2.06,6.29-5.76,7.67-1.83c1.38,3.93-1.09,12.17-6.56,13.38S92.28,64.61,92.28,64.61z"
							/>
						<ellipse class="st7" cx="82.88" cy="63.31" rx="1.54" ry="2.39"/>
						<ellipse class="st7" cx="66.62" cy="64.33" rx="1.37" ry="2.39"/>
						<path class="st7" d="M67.31,84.52c0,0,3.84-0.23,7.88-1c5.15-0.98,8.89-2.08,8.89-2.08s-3.67,7.1-8.17,7.55
							C70.17,89.57,67.31,84.52,67.31,84.52z"/>
						<path class="st7" d="M58.26,58.52l-0.69,12.42c0,0-7.49-15.58-3.39-23.62c4.42-8.68,11.76-8.64,11.76-8.64s-1.37-0.34-4.11,0
							c4.79-3.08,14.71-5.13,22.24-1.71c-0.2-1.06-0.87-1.66-0.87-1.66s8.24,1.53,10.59,7.4c6.84,5.13,4.65,12.73,3.62,16.84
							s-4.56,10.48-4.56,10.48l-1.2-12.42c-3.64-1.5-7.19-4.01-8.21-8.12c0,0-8.6,4.24-13.73,5.95c2.05-1.87,2.25-3.82,2.25-3.82
							S65.78,57.15,58.26,58.52z"/>
					</g>
				</g>
				<path class="st8" d="M65.41,111.89c0,0,12.63,42.86,12.63,41.9s10.71-42.67,10.71-42.67l-12.24-3.25L65.41,111.89z"/>
				<polygon class="st8" points="74.21,108.83 75.93,113.61 79.37,113.8 80.33,108.83 76.5,107.87 				"/>
				<polygon class="st8" points="75.93,112.96 73.63,140.02 78.03,153.79 81.29,140.02 79.37,113.8 				"/>
				<polygon class="st8" points="66.75,104.05 76.5,107.87 86.45,103.28 88.75,111.13 76.5,107.87 65.41,111.89 				"/>
			</g>
		</g>
		<g>
			<defs>
				<rect id="SVGID_5_" x="72.64" y="3.39" width="134.73" height="156.61"/>
			</defs>
			<clipPath id="SVGID_6_">
				<use xlink:href="#SVGID_5_"  style="overflow:visible;"/>
			</clipPath>
			<path class="st10" d="M95.9,160.2c0,0-1.89-39.94-1.89-52s30.31-21.96,48.81-21.16s45.04,7.49,45.04,15.53
				s-1.63,58.17-1.63,58.17L95.9,160.2z"/>
			<path class="st10" d="M126.12,97.5c0,0-1.43-8.37-1.67-9.8s8.37-1.91,15.54-1.91s15.06-0.48,15.06,1.43s-2.15,11-2.15,11
				L126.12,97.5z"/>
			<polygon class="st11" points="128.06,76.82 129.67,96.78 149.77,96.03 150.57,72.29 			"/>
			<g class="st12">
				<path class="st13" d="M137,11.82c19.26,0,24.37,14.53,24.79,19.66c0.43,5.13-0.75,33.13-2.14,35.91
					c-2.14,4.27-15.82,15.39-20.09,15.39c-3.45,0-19.9-7.69-21.61-10.69c-1.71-2.99-4.9-38.05-5.32-41.04
					C112.2,28.07,119.04,11.82,137,11.82z"/>
				<path class="st13" d="M116.4,41.84c-1.19-2.63-7.56-7.52-9.49-2.68s0.73,15.24,7.5,17.05C121.19,58,116.4,41.84,116.4,41.84z"/>
				<path class="st13" d="M159.22,40.82c1.29-2.58,7.86-7.2,9.59-2.29c1.72,4.91-1.36,15.2-8.2,16.72S159.22,40.82,159.22,40.82z"/>
				<ellipse class="st14" cx="147.47" cy="39.18" rx="1.92" ry="2.99"/>
				<ellipse class="st14" cx="127.16" cy="40.46" rx="1.71" ry="2.99"/>
				<polygon class="st15" points="139.91,55.66 132.72,56.71 137,39.61 133.63,55.97 				"/>
				<path class="st16" d="M128.02,65.69c0,0,4.8-0.29,9.85-1.25c6.43-1.22,11.1-2.6,11.1-2.6s-4.59,8.87-10.21,9.44
					C131.6,72,128.02,65.69,128.02,65.69z"/>
				<path class="st17" d="M116.71,33.2l-0.86,15.51c0,0-9.35-19.46-4.23-29.52C117.14,8.34,126.31,8.4,126.31,8.4s-1.71-0.43-5.13,0
					c5.98-3.85,18.38-6.41,27.79-2.14c-0.26-1.33-1.09-2.07-1.09-2.07s10.3,1.91,13.23,9.24c8.55,6.41,5.81,15.91,4.53,21.04
					s-5.7,13.09-5.7,13.09l-1.5-15.52c-4.55-1.88-8.98-5.01-10.26-10.14c0,0-10.75,5.3-17.16,7.43c2.56-2.34,2.81-4.77,2.81-4.77
					S126.11,31.49,116.71,33.2z"/>
			</g>
			<path class="st18" d="M125.64,99.89c0,0,15.78,53.55,15.78,52.35s13.39-53.31,13.39-53.31l-15.3-4.06L125.64,99.89z"/>
			<polygon class="st19" points="136.64,96.06 138.79,102.04 143.09,102.28 144.29,96.06 139.51,94.87 			"/>
			<polygon class="st19" points="138.79,101.22 135.92,135.03 141.42,152.24 145.49,135.03 143.09,102.28 			"/>
			<polygon class="st18" points="127.32,90.09 139.51,94.87 151.94,89.13 154.81,98.93 139.51,94.87 125.64,99.89 			"/>
			<g class="st12">
				<polyline class="st20" points="122.54,94.15 115.12,111.84 123.25,114.47 117.04,117.82 136.88,157.74 				"/>
				<polyline class="st20" points="155.76,92.48 164.85,109.21 156.48,113.75 164.85,117.1 144.92,157.74 				"/>
				<line class="st20" x1="110.7" y1="155.69" x2="109.3" y2="113.23"/>
				<line class="st20" x1="173.62" y1="116.07" x2="171.5" y2="156.39"/>
			</g>
		</g>
		<g>
			<g>
				<path class="st21" d="M243.84,148.52c-68.93-7.48-137.6-7.48-206.53,0c-1.09-9.38-2.18-18.77-3.27-28.15
					c71.09-7.74,141.98-7.74,213.07,0C246.02,129.75,244.93,139.13,243.84,148.52z"/>
				<g>
					<path class="st22" d="M86.58,122.34c0.29-0.66,0.44-0.99,0.73-1.66c0.3-0.02,0.45-0.03,0.75-0.04
						c0.28,2.67,0.42,4.01,0.69,6.68c-0.32,0.02-0.48,0.03-0.79,0.05c-0.63-1.85-1.37-3.2-2.22-4.05c-1.05-1.05-2.26-1.55-3.63-1.46
						c-1.48,0.09-2.64,0.8-3.49,2.1s-1.16,3.45-0.96,6.41c0.17,2.5,0.83,4.37,1.97,5.6c0.96,1.05,2.25,1.52,3.87,1.42
						c1.41-0.09,2.56-0.59,3.47-1.52c0.9-0.92,1.45-2.27,1.64-4.03c0.34-0.02,0.5-0.03,0.84-0.05c-0.13,1.99-0.76,3.56-1.87,4.69
						c-1.11,1.13-2.55,1.76-4.34,1.87c-1.45,0.09-2.79-0.17-4.05-0.78c-1.26-0.61-2.29-1.55-3.11-2.81
						c-0.82-1.26-1.29-2.66-1.4-4.22c-0.12-1.66,0.14-3.24,0.8-4.75c0.65-1.51,1.55-2.67,2.68-3.48s2.39-1.26,3.76-1.35
						c0.76-0.05,1.51,0.03,2.24,0.23C84.9,121.42,85.7,121.79,86.58,122.34z"/>
					<path class="st22" d="M98.81,126.21c1.5-0.07,2.78,0.39,3.83,1.37c1.06,0.98,1.62,2.31,1.69,3.99
						c0.05,1.16-0.14,2.15-0.56,2.98c-0.42,0.83-1.03,1.5-1.85,2.01c-0.81,0.51-1.7,0.78-2.66,0.83c-1.42,0.07-2.65-0.39-3.7-1.38
						c-1.04-0.99-1.61-2.3-1.69-3.95c-0.09-1.66,0.35-3.03,1.3-4.12C96.12,126.85,97.34,126.27,98.81,126.21z M98.85,127.01
						c-0.89,0.04-1.6,0.46-2.13,1.25c-0.53,0.79-0.76,2.01-0.68,3.65c0.08,1.67,0.42,2.88,1.02,3.63c0.6,0.75,1.34,1.1,2.22,1.06
						c0.92-0.04,1.64-0.46,2.17-1.26c0.53-0.8,0.77-2.07,0.69-3.83c-0.07-1.63-0.4-2.8-1-3.5S99.79,126.96,98.85,127.01z"/>
					<path class="st22" d="M108.16,126.14c1.47-0.14,2.21-0.21,3.69-0.34c0.17,0.66,0.31,1.43,0.4,2.31
						c0.47-0.78,1.04-1.37,1.71-1.78c0.67-0.4,1.43-0.62,2.28-0.64c0.74-0.02,1.36,0.1,1.86,0.36c0.51,0.26,0.92,0.69,1.23,1.27
						c0.31,0.59,0.48,1.25,0.5,1.98c0.05,2.06,0.07,3.08,0.12,5.14c0.01,0.38,0.11,0.65,0.29,0.81s0.49,0.23,0.91,0.22
						c0.31-0.01,0.47-0.01,0.78-0.02c0.01,0.34,0.01,0.51,0.02,0.85c-2.32,0.05-3.48,0.08-5.8,0.14c-0.01-0.34-0.01-0.51-0.02-0.85
						c0.22-0.01,0.33-0.01,0.55-0.01c0.52-0.01,0.88-0.1,1.07-0.26c0.2-0.16,0.3-0.4,0.29-0.72c-0.05-1.81-0.07-2.71-0.11-4.52
						c-0.02-0.98-0.2-1.71-0.53-2.17c-0.46-0.66-1.14-0.99-2.04-0.96c-0.89,0.02-1.63,0.39-2.2,1.09s-0.85,1.6-0.81,2.7
						c0.05,1.56,0.07,2.35,0.12,3.91c0.01,0.38,0.11,0.65,0.3,0.81c0.19,0.16,0.49,0.23,0.92,0.21c0.31-0.01,0.46-0.01,0.76-0.02
						c0.01,0.34,0.01,0.51,0.02,0.85c-2.33,0.07-3.49,0.1-5.82,0.19c-0.01-0.34-0.02-0.51-0.03-0.84c0.31-0.01,0.46-0.02,0.76-0.03
						c0.38-0.01,0.67-0.1,0.87-0.26c0.19-0.16,0.29-0.35,0.28-0.57c-0.09-2.73-0.14-4.09-0.23-6.82c-0.01-0.45-0.15-0.79-0.42-1.01
						c-0.26-0.22-0.64-0.33-1.12-0.31c-0.23,0.01-0.34,0.01-0.57,0.02C108.18,126.58,108.17,126.43,108.16,126.14z"/>
					<path class="st22" d="M134.01,133.02c0.31,0.08,0.46,0.13,0.77,0.21c-0.6,2.16-1.94,3.25-4.02,3.27
						c-1.53,0.02-2.78-0.45-3.77-1.41c-0.99-0.95-1.5-2.23-1.52-3.84c-0.03-1.86,0.48-3.32,1.54-4.36c1.06-1.04,2.32-1.57,3.78-1.59
						c1.09-0.01,2,0.27,2.72,0.83c0.72,0.57,1.08,1.2,1.08,1.9c0,0.42-0.13,0.77-0.39,1.05c-0.26,0.28-0.57,0.42-0.94,0.42
						c-0.35,0-0.66-0.11-0.9-0.34c-0.25-0.23-0.37-0.51-0.37-0.84c0-0.33,0.13-0.65,0.39-0.95c0.13-0.14,0.19-0.26,0.19-0.34
						c0-0.22-0.16-0.43-0.47-0.63c-0.31-0.2-0.73-0.3-1.26-0.3c-0.97,0.01-1.69,0.35-2.18,1.03c-0.7,0.98-1.04,2.26-1.01,3.84
						c0.02,1.51,0.35,2.65,0.99,3.41c0.64,0.77,1.44,1.15,2.41,1.14C132.38,135.51,133.37,134.68,134.01,133.02z"/>
					<path class="st22" d="M138.47,125.57c1.77-0.05,2.66-0.08,4.43-0.12c-0.01,3.63-0.01,5.45-0.02,9.08
						c0,0.25,0.06,0.42,0.19,0.53c0.18,0.15,0.41,0.23,0.68,0.23c0.5,0,0.75,0,1.25,0.01c0,0.34,0,0.51,0,0.85
						c-2.5-0.01-3.75-0.01-6.26-0.01c0-0.34,0-0.51,0-0.85c0.47,0,0.7,0,1.16,0c0.34,0,0.6-0.08,0.76-0.24
						c0.16-0.16,0.24-0.4,0.24-0.7c0-2.66,0-3.99,0-6.65c0-0.42-0.13-0.74-0.38-0.95c-0.25-0.21-0.63-0.32-1.13-0.32
						c-0.37,0-0.55,0-0.91,0C138.47,126.08,138.47,125.91,138.47,125.57z M141.56,119.27c0.36,0,0.67,0.13,0.94,0.38
						c0.27,0.26,0.41,0.56,0.4,0.9c0,0.34-0.13,0.63-0.4,0.88c-0.26,0.25-0.58,0.37-0.94,0.37c-0.37,0-0.68-0.13-0.95-0.38
						c-0.27-0.25-0.4-0.55-0.4-0.88c0-0.34,0.14-0.64,0.41-0.89C140.9,119.39,141.21,119.27,141.56,119.27z"/>
					<path class="st22" d="M159.1,131.11c-3.17-0.06-4.75-0.09-7.92-0.13c0.02,1.61,0.32,2.75,0.9,3.42
						c0.66,0.75,1.52,1.14,2.56,1.15c1.54,0.02,2.78-0.79,3.75-2.45c0.3,0.13,0.46,0.2,0.76,0.33c-1.19,2.11-2.86,3.14-5.02,3.11
						c-1.47-0.02-2.7-0.55-3.7-1.58c-1-1.03-1.49-2.34-1.47-3.94c0.02-1.71,0.53-3.09,1.54-4.14c1.01-1.04,2.25-1.56,3.72-1.54
						c1.08,0.02,2,0.29,2.78,0.83c0.77,0.54,1.35,1.31,1.72,2.3C158.98,129.18,159.11,130.06,159.1,131.11z M151.19,130.18
						c1.92,0.02,2.88,0.04,4.8,0.07c0.28,0,0.51-0.08,0.67-0.26c0.16-0.18,0.25-0.49,0.25-0.94c0.01-0.83-0.24-1.53-0.77-2.12
						c-0.53-0.59-1.17-0.89-1.9-0.9c-0.82-0.01-1.53,0.33-2.11,1.02C151.54,127.74,151.23,128.78,151.19,130.18z"/>
					<path class="st22" d="M163.19,125.85c1.6-0.04,2.4-0.05,4.01-0.08c-0.05,1.71-0.07,2.56-0.12,4.27
						c0.47-1.39,1.01-2.44,1.64-3.14c0.62-0.7,1.38-1.04,2.27-1.01c0.6,0.02,1.08,0.21,1.42,0.57c0.35,0.36,0.51,0.84,0.49,1.42
						c-0.02,0.47-0.15,0.84-0.4,1.09s-0.56,0.38-0.92,0.36c-0.35-0.01-0.64-0.13-0.85-0.37c-0.21-0.23-0.31-0.54-0.3-0.92
						c0.01-0.25,0.08-0.48,0.21-0.69c0.12-0.19,0.19-0.31,0.19-0.34c0-0.11-0.07-0.17-0.22-0.18c-0.32-0.01-0.7,0.16-1.12,0.51
						c-0.59,0.49-1.05,1.16-1.38,2.03c-0.52,1.35-0.78,2.44-0.81,3.26c-0.03,0.91-0.04,1.36-0.07,2.26
						c-0.01,0.26,0.08,0.45,0.26,0.59s0.5,0.22,0.96,0.23c0.56,0.02,0.84,0.03,1.4,0.04c-0.01,0.34-0.02,0.51-0.03,0.84
						c-2.73-0.09-4.1-0.13-6.83-0.2c0.01-0.34,0.01-0.51,0.02-0.85c0.44,0.01,0.66,0.02,1.09,0.03c0.37,0.01,0.65-0.05,0.84-0.19
						c0.19-0.13,0.29-0.3,0.3-0.49c0.07-2.69,0.11-4.04,0.18-6.73c0.01-0.51-0.09-0.89-0.31-1.13c-0.22-0.24-0.55-0.37-0.98-0.38
						c-0.39-0.01-0.58-0.02-0.97-0.02C163.18,126.33,163.18,126.17,163.19,125.85z"/>
					<path class="st22" d="M185.08,127.25c0.83-0.72,1.58-1.06,2.24-1.03c0.4,0.02,0.72,0.16,0.97,0.41
						c0.25,0.25,0.36,0.55,0.35,0.9c-0.01,0.28-0.12,0.5-0.3,0.68c-0.19,0.17-0.4,0.26-0.64,0.24c-0.45-0.02-0.74-0.3-0.87-0.83
						c-0.05-0.23-0.15-0.35-0.3-0.35c-0.27-0.01-0.57,0.14-0.9,0.46c0.32,0.46,0.53,0.86,0.64,1.19c0.11,0.33,0.16,0.69,0.14,1.06
						c-0.03,0.65-0.23,1.22-0.58,1.7c-0.36,0.48-0.93,0.9-1.71,1.24c-0.78,0.35-1.53,0.5-2.22,0.47c-0.51-0.02-0.77-0.03-1.28-0.06
						c-0.91-0.04-1.52,0.02-1.83,0.19c-0.31,0.17-0.47,0.44-0.48,0.8c-0.01,0.29,0.1,0.52,0.34,0.69c0.24,0.17,0.69,0.27,1.37,0.3
						c1.16,0.03,1.74,0.04,2.91,0.08c1.47,0.07,2.51,0.36,3.13,0.86s0.91,1.16,0.87,1.98c-0.05,0.9-0.45,1.64-1.22,2.22
						c-1.06,0.82-2.61,1.18-4.63,1.09c-1.67-0.08-2.9-0.43-3.69-1.05c-0.62-0.49-0.92-1.03-0.9-1.6c0.02-0.44,0.24-0.84,0.66-1.19
						c0.43-0.35,1.13-0.6,2.1-0.74c-0.77-0.21-1.34-0.5-1.72-0.87s-0.56-0.81-0.53-1.32c0.02-0.48,0.2-0.89,0.53-1.24
						c0.33-0.34,0.9-0.63,1.69-0.85c-0.65-0.38-1.14-0.83-1.46-1.34c-0.32-0.51-0.46-1.09-0.44-1.74c0.04-1.02,0.5-1.86,1.37-2.52
						s1.99-0.95,3.34-0.89c0.55,0.03,1.08,0.13,1.59,0.3S184.62,126.92,185.08,127.25z M182.2,137.1c-1.44-0.07-2.47,0.08-3.1,0.44
						c-0.63,0.36-0.96,0.81-0.98,1.35c-0.02,0.51,0.19,0.92,0.64,1.23c0.59,0.41,1.45,0.65,2.57,0.7c1.34,0.06,2.36-0.1,3.06-0.5
						c0.7-0.39,1.06-0.85,1.09-1.38c0.02-0.31-0.08-0.6-0.27-0.88c-0.2-0.28-0.52-0.5-0.98-0.66
						C183.77,137.24,183.1,137.14,182.2,137.1z M181.97,126.91c-0.7-0.03-1.3,0.19-1.78,0.66c-0.48,0.47-0.74,1.15-0.78,2.04
						c-0.04,0.95,0.16,1.69,0.59,2.23c0.43,0.54,1,0.83,1.71,0.86c0.71,0.03,1.3-0.19,1.77-0.68s0.74-1.2,0.78-2.15
						c0.04-0.88-0.16-1.58-0.59-2.12C183.25,127.23,182.68,126.94,181.97,126.91z"/>
					<path class="st22" d="M202.14,133.01c-3.16-0.22-4.75-0.32-7.91-0.5c-0.06,1.61,0.19,2.76,0.74,3.45
						c0.62,0.78,1.46,1.21,2.5,1.27c1.53,0.1,2.82-0.66,3.86-2.27c0.3,0.15,0.45,0.22,0.74,0.37c-1.29,2.05-3.01,3.01-5.16,2.87
						c-1.47-0.09-2.67-0.68-3.62-1.75s-1.38-2.41-1.29-4c0.1-1.71,0.67-3.06,1.73-4.06s2.33-1.45,3.79-1.36
						c1.08,0.07,1.99,0.39,2.74,0.97c0.75,0.58,1.29,1.37,1.61,2.38C202.11,131.08,202.19,131.96,202.14,133.01z M194.27,131.71
						c1.92,0.11,2.88,0.17,4.79,0.3c0.28,0.02,0.51-0.06,0.68-0.23c0.17-0.17,0.27-0.48,0.3-0.92c0.05-0.82-0.17-1.54-0.67-2.16
						c-0.5-0.61-1.12-0.94-1.86-0.99c-0.82-0.05-1.54,0.25-2.16,0.92C194.74,129.29,194.38,130.31,194.27,131.71z"/>
				</g>
			</g>
		</g>
	</g>
</g>
</svg>
