<?xml version="1.0" encoding="utf-8"?>
<!-- Generator: Adobe Illustrator 24.0.1, SVG Export Plug-In . SVG Version: 6.00 Build 0)  -->
<svg version="1.1" id="レイヤー_1" xmlns="http://www.w3.org/2000/svg" xmlns:xlink="http://www.w3.org/1999/xlink" x="0px"
	 y="0px" viewBox="0 0 240 200" style="enable-background:new 0 0 240 200;" xml:space="preserve">
<style type="text/css">
	.st0{fill:none;}
	.st1{fill:#00395B;}
	.st2{fill:#FFFFFF;}
	.st3{fill:#535353;}
	.st4{fill:#D0A867;}
	.st5{fill:none;stroke:#D0A867;stroke-width:5;stroke-miterlimit:10;}
	.st6{fill:#FFFFFF;stroke:#D0A867;stroke-width:5;stroke-miterlimit:10;}
</style>
<g>
	<rect class="st0" width="240" height="200"/>
	<g>
		<circle class="st1" cx="27" cy="25" r="20"/>
		<g>
			<path class="st2" d="M34.78,14.83v3.36l-9.82,16.95h-4.02l10-17.03H19.97v-3.28H34.78z"/>
		</g>
	</g>
</g>
<g>
	<g>
		<path class="st3" d="M96.39,178.55c0,1,0.98,1.68,3.14,1.68c1.91,0,3.7-0.21,4.83-0.55l0.01,1.54c-1.09,0.28-2.83,0.49-4.8,0.49
			c-3.01,0-4.64-1.01-4.64-2.84c0-0.76,0.15-1.43,0.28-1.97l1.44,0.14C96.5,177.57,96.39,178.05,96.39,178.55z M99.58,171.44
			c1.36,0,2.86-0.08,3.89-0.2v1.46c-0.97,0.08-2.58,0.17-3.89,0.17c-1.43,0-2.63-0.06-3.75-0.15v-1.44
			C96.85,171.38,98.14,171.44,99.58,171.44z M104.99,171.67l-0.92,0.41c-0.28-0.57-0.73-1.42-1.12-1.95l0.91-0.38
			C104.2,170.26,104.71,171.13,104.99,171.67z M106.61,171.07l-0.91,0.41c-0.31-0.6-0.76-1.42-1.15-1.93l0.9-0.38
			C105.81,169.69,106.35,170.57,106.61,171.07z"/>
		<path class="st3" d="M109.93,177.56c-0.18,1.32-0.5,2.68-0.94,3.57c-0.21-0.15-0.73-0.39-0.99-0.49c0.42-0.84,0.69-2.07,0.83-3.28
			L109.93,177.56z M112.31,173.85c0.56,0.91,1.11,2.12,1.27,2.9l-0.95,0.42c-0.04-0.22-0.13-0.48-0.22-0.76l-0.91,0.06v5.76h-1.16
			v-5.69c-0.77,0.04-1.48,0.08-2.11,0.13l-0.11-1.15l0.98-0.03c0.25-0.34,0.53-0.71,0.8-1.11c-0.43-0.63-1.12-1.39-1.74-1.96
			l0.63-0.85c0.13,0.1,0.25,0.21,0.38,0.32c0.43-0.77,0.9-1.78,1.15-2.54l1.15,0.45c-0.49,0.94-1.08,2.02-1.58,2.79
			c0.25,0.27,0.49,0.53,0.67,0.77c0.5-0.83,0.98-1.68,1.33-2.4l1.08,0.49c-0.79,1.27-1.79,2.8-2.7,3.98
			c0.56-0.01,1.15-0.04,1.75-0.08c-0.18-0.39-0.38-0.79-0.57-1.13L112.31,173.85z M112.7,177.25c0.35,0.8,0.73,1.85,0.88,2.54
			l-0.99,0.34c-0.14-0.69-0.48-1.75-0.83-2.56L112.7,177.25z M120.71,180.79c0,0.63-0.13,1-0.53,1.21c-0.41,0.2-1.02,0.21-1.93,0.21
			c-0.04-0.32-0.21-0.88-0.38-1.2c0.6,0.04,1.23,0.03,1.42,0.03c0.18,0,0.25-0.06,0.25-0.25v-2.59l-0.77,0.7
			c-0.34-0.79-0.94-1.93-1.55-2.98c-0.36,1.28-0.94,2.35-1.85,3.17c-0.13-0.21-0.38-0.49-0.62-0.69v3.8h-1.16v-10.32h3
			c0.03-0.8,0.04-1.64,0.06-2.52h1.22c-0.01,0.87-0.03,1.71-0.07,2.52h2.93V180.79z M114.74,178.03c1.13-1.18,1.57-2.89,1.75-4.96
			h-1.75V178.03z M117.69,173.08c-0.03,0.42-0.08,0.81-0.14,1.21c0.73,1.11,1.51,2.45,1.99,3.43v-4.64H117.69z"/>
		<path class="st3" d="M135.62,180.25h-5.67v1.99h-1.34v-1.99h-5.53v-1.18h5.53v-0.97h-4.1v-5.49h4.1v-0.87h-5.13v-1.19h5.13v-1.2
			h1.34v1.2h5.21v1.19h-5.21v0.87h4.2v5.49h-4.2v0.97h5.67V180.25z M125.76,174.85h2.84v-1.16h-2.84V174.85z M128.6,177.04v-1.19
			h-2.84v1.19H128.6z M129.95,173.69v1.16h2.9v-1.16H129.95z M132.85,175.85h-2.9v1.19h2.9V175.85z"/>
		<path class="st3" d="M142.97,180.13c0-0.63,0.46-1.06,1.05-1.06c0.59,0,1.05,0.43,1.05,1.06c0,0.63-0.46,1.06-1.05,1.06
			C143.43,181.2,142.97,180.77,142.97,180.13z M143.12,172.47l-0.04-1.85h1.88l-0.04,1.85l-0.32,5.16h-1.15L143.12,172.47z"/>
	</g>
</g>
<g>
	<g>
		<path class="st4" d="M188.15,77.49c-3.42,0-4.6-0.86-5.27-1.52c-0.66-0.67-1.52-1.85-1.52-5.27c0-0.13-0.01-0.5-0.42-0.5
			c-0.41,0-0.42,0.37-0.42,0.5c0,3.42-0.86,4.6-1.52,5.27c-0.67,0.66-1.85,1.52-5.26,1.52c-0.13,0-0.5,0.01-0.5,0.42
			c0,0.41,0.37,0.42,0.5,0.42c3.41,0,4.6,0.86,5.26,1.52c0.66,0.66,1.52,1.85,1.52,5.27c0,0.13,0.01,0.5,0.42,0.5
			c0.41,0,0.42-0.36,0.42-0.5c0-3.42,0.86-4.6,1.52-5.27c0.67-0.67,1.85-1.52,5.27-1.52c0.13,0,0.5-0.01,0.5-0.42
			C188.65,77.51,188.28,77.49,188.15,77.49z"/>
		<path class="st4" d="M81.1,68.64c5.7,0,7.67,1.44,8.78,2.54c1.11,1.11,2.54,3.08,2.54,8.78c0,0.22,0.03,0.83,0.71,0.83
			c0.68,0,0.7-0.61,0.7-0.83c0-5.7,1.43-7.67,2.54-8.78c1.11-1.11,3.08-2.54,8.78-2.54c0.22,0,0.83-0.02,0.83-0.7
			c0-0.68-0.61-0.71-0.83-0.71c-5.7,0-7.67-1.43-8.78-2.54c-1.11-1.11-2.54-3.08-2.54-8.78c0-0.22-0.02-0.83-0.7-0.83
			c-0.68,0-0.71,0.61-0.71,0.83c0,5.7-1.43,7.67-2.54,8.78c-1.11,1.11-3.08,2.54-8.78,2.54c-0.22,0-0.83,0.03-0.83,0.71
			C80.27,68.62,80.89,68.64,81.1,68.64z"/>
		<path class="st4" d="M77.98,88.24c0-0.45-0.41-0.47-0.56-0.47c-3.81,0-5.13-0.96-5.87-1.7c-0.74-0.74-1.7-2.06-1.7-5.87
			c0-0.14-0.02-0.56-0.47-0.56c-0.45,0-0.47,0.41-0.47,0.56c0,3.81-0.96,5.13-1.7,5.87c-0.74,0.74-2.06,1.7-5.87,1.7
			c-0.15,0-0.55,0.02-0.55,0.47s0.41,0.47,0.56,0.47c3.81,0,5.13,0.96,5.87,1.7c0.74,0.74,1.7,2.06,1.7,5.88
			c0,0.14,0.02,0.55,0.47,0.55c0.46,0,0.47-0.41,0.47-0.55c0-3.82,0.96-5.14,1.7-5.88c0.74-0.74,2.06-1.7,5.87-1.7
			C77.57,88.71,77.98,88.7,77.98,88.24z"/>
	</g>
	<g>
		<path class="st5" d="M39.97,115.67c-5.51,4.28-6.43,17.57-5.79,20.43c0.64,2.85,6.99,4.97,16.04,4.97s121.12,0,121.12,0
			s15.4-0.77,20.03-1.93c4.62-1.16,14.63-5.2,14.63-6.74s0-7.97,0-10.43c0-2.47-1.64-3.29-2.55-5.57s1.13-9.79-2.01-11.05
			c-3.14-1.25-11.61,0.09-21.91-4.62c-10.3-4.72-21.7-9.11-52.2-9.11s-30.6,13.7-42.49,16.08S45.48,111.39,39.97,115.67z"/>
		<circle class="st6" cx="60.85" cy="135.03" r="13.42"/>
		<circle class="st6" cx="172.11" cy="135.03" r="13.42"/>
	</g>
</g>
</svg>
