<?xml version="1.0" encoding="utf-8"?>
<!-- Generator: Adobe Illustrator 24.0.1, SVG Export Plug-In . SVG Version: 6.00 Build 0)  -->
<svg version="1.1" id="レイヤー_1" xmlns="http://www.w3.org/2000/svg" xmlns:xlink="http://www.w3.org/1999/xlink" x="0px"
	 y="0px" viewBox="0 0 280 200" style="enable-background:new 0 0 280 200;" xml:space="preserve">
<style type="text/css">
	.st0{fill:#00395B;}
	.st1{clip-path:url(#SVGID_1_);}
	.st2{stroke:#2F2426;stroke-width:0.4;stroke-miterlimit:10;}
	.st3{fill:#CCCCCC;}
	.st4{fill:#C6000B;stroke:#A30000;stroke-width:0.5;stroke-miterlimit:10;}
	.st5{fill:#DDEAEC;}
	.st6{fill:#E57E2E;}
	.st7{fill:#666666;}
	.st8{fill:#18191A;}
	.st9{fill:#C8C9CA;}
	.st10{fill:#3E3A39;}
	.st11{fill:#EEEEEF;}
	.st12{fill:#717071;}
	.st13{fill:#595757;}
	.st14{opacity:0.03;fill:#FFFFFF;}
	.st15{fill:#4C4948;}
	.st16{fill:#9E9E9F;}
	.st17{opacity:0.2;fill:url(#SVGID_2_);}
	.st18{opacity:0.2;fill:url(#SVGID_4_);}
	.st19{clip-path:url(#SVGID_6_);}
	.st20{fill:#FFFFFF;}
	.st21{fill:#2A2622;}
	.st22{fill:#78C3E1;}
	.st23{fill:#071011;}
	.st24{fill:#CCCCCC;stroke:#666666;stroke-width:0.5;stroke-miterlimit:10;}
	.st25{opacity:0.5;}
	.st26{clip-path:url(#SVGID_10_);}
	.st27{opacity:0.03;fill:none;}
	.st28{opacity:0.1;}
	.st29{fill:url(#SVGID_11_);}
	.st30{fill:url(#SVGID_12_);}
	.st31{fill:url(#SVGID_13_);}
	.st32{fill:url(#SVGID_14_);}
	.st33{fill:#1B151A;}
	.st34{fill:#FFD29C;}
	.st35{fill:#002230;}
	.st36{fill:#204D7E;}
	.st37{fill:#481600;}
	.st38{fill:none;}
	.st39{fill:#FFA69D;}
</style>
<g>
	<g>
		<g>
			<path class="st0" d="M69.07,168.33c-0.34,1.07-0.49,1.56-0.83,2.39h12.69v3.09H66.86c-0.6,1.07-0.75,1.35-1.07,1.87H78.3v14.85
				c0,1.38-0.94,2.37-2.26,2.37h-4.71l-0.57-2.86h3.67c0.49,0,0.65-0.26,0.65-0.78v-1.74H64.31V193h-3.22v-11.49
				c-0.81,0.75-1.43,1.33-3.17,2.55L56,180.97c1.14-0.68,4.37-2.68,6.99-7.15h-6.68v-3.09h8.16c0.31-0.78,0.44-1.27,0.78-2.5
				L69.07,168.33z M75.08,178.57H64.31v1.85h10.76v-1.85H75.08z M75.08,183.04H64.31v1.9h10.76v-1.9H75.08z"/>
			<path class="st0" d="M86.86,180.96c-0.44,0.7-0.6,0.94-1.01,1.53l-1.22-4.34c1.95-2.91,2.86-6.68,3.07-9.83l3.07,0.34
				c-0.16,1.09-0.36,2.57-0.88,4.65v19.58h-3.02v-11.93H86.86z M90.39,190.35c1.64-0.16,3.54-0.55,5.1-1.07h-3.67v-9.7h16.22v9.7
				h-3.69c2.42,0.91,4.39,1.09,5.28,1.17l-1.04,2.57c-2.73-0.42-4.81-1.04-6.76-2.21l1.22-1.53h-6.14l1.01,1.59
				c-2.78,1.43-5.46,1.92-6.42,2.11L90.39,190.35z M93.3,175.97h-2.26v-5.23h2.81c-0.23-0.6-0.52-1.22-0.78-1.74l2.86-0.62
				c0.29,0.49,0.86,1.77,1.12,2.37h1.3v-2.37h3.15v2.37h1.35c0.42-0.7,0.96-2.13,1.07-2.37l2.94,0.62
				c-0.18,0.55-0.49,1.25-0.75,1.74h2.91v5.23h-2.29v2.63H93.3V175.97z M106.12,174.18v-1.22H93.93v1.22H106.12z M94.81,181.22v0.99
				h10.22v-0.99H94.81z M94.81,183.75v1.07h10.22v-1.07H94.81z M94.81,186.29v1.07h10.22v-1.07H94.81z M96.14,175.74v1.25h7.72
				v-1.25H96.14z"/>
			<path class="st0" d="M115.69,181.02c-0.6,0.73-0.81,0.96-1.4,1.59l-1.12-4.34c3.15-3.93,3.85-8.63,4.03-9.93l3.22,0.36
				c-0.18,1.17-0.55,3.48-1.61,6.4v17.84h-3.12C115.69,192.94,115.69,181.02,115.69,181.02z M119.49,189.02
				c1.33-0.73,4.13-2.26,6.63-5.95h-5.77v-2.94h7.28v-2.16h-5.82v-8.79h14.87v8.79h-5.95v2.16H138v2.94h-5.69
				c2.08,3.25,4.24,4.86,6.14,6.11l-1.9,2.89c-1.14-0.88-3.72-2.83-5.82-6.47v7.33h-3.09v-7.25c-2.76,4.03-5.15,5.51-6.27,6.19
				L119.49,189.02z M124.95,171.99v3.22h8.61v-3.22H124.95z"/>
			<path class="st0" d="M152.32,172.9v2.65h-10.27v-2.65H152.32z M151.49,169.21v2.55h-8.69v-2.55H151.49z M151.49,176.72v2.6h-8.69
				v-2.6H151.49z M151.49,180.6v2.6h-8.69v-2.6H151.49z M151.49,184.42v8.01h-8.69v-8.01H151.49z M148.61,186.94h-2.78v2.94h2.78
				V186.94z M156.64,175.45v13.62h2.42v-16.82h-6.29v-3.04h13.6v3.04h-4.11v6.16h3.59v3.02h-3.59v7.64h4.47v3.04H152.3v-3.04h1.22
				v-13.62L156.64,175.45L156.64,175.45z"/>
			<path class="st0" d="M174.24,173.89c-0.29,0.86-0.55,1.35-0.81,1.82l-2.68-1.3c1.2-2.18,1.61-4.32,1.74-5.69l2.94,0.29
				c-0.1,0.57-0.21,1.14-0.39,2h1.77v-2.52h3.02V171h5.2v2.89h-5.2v2.03h5.9v2.94h-5.9v1.82h4.99v8.45c0,1.38-0.42,2.03-1.74,2.03
				h-2.13l-0.65-3.15h1.27c0.44,0,0.52-0.26,0.52-0.68v-3.74h-2.37v9.28h-2.91v-9.28h-2.16v7.77h-2.89v-10.69h5.04v-1.82h-5.98
				v-2.94h5.98v-2.03L174.24,173.89L174.24,173.89z M186.41,169.89h2.94v16.82h-2.94V169.89z M191.12,168.48h3.22v22.13
				c0,1.22-0.78,2.26-2.26,2.26h-4.19l-0.6-3.33h3.09c0.55,0,0.73-0.13,0.73-0.73v-20.33H191.12z"/>
			<path class="st0" d="M201.05,170.15h9.26v-1.79h3.35v1.79h10.11v2.86h-3.74v1.64h3.87v2.5h-3.87v3.95h-12.61v-3.95h-3.2v4.79
				c0,2.18-0.16,7.02-2.39,10.92l-2.73-2.42c1.46-2.65,1.95-5.59,1.95-8.66V170.15z M208.95,185.04h-4.11v-2.73h16.62v2.73
				c-0.47,0.75-1.3,2.16-3.87,3.8c2.86,0.73,4.97,0.91,6.42,1.01l-1.27,3.09c-1.56-0.18-4.84-0.6-8.76-2.21
				c-4.03,1.66-7.96,2.05-9.31,2.18l-1.17-2.89c1.33-0.1,3.61-0.31,6.84-1.17c-1.85-1.2-2.44-1.79-3.09-2.5L208.95,185.04z
				 M204.19,173.01v1.64h3.2v-1.64H204.19z M210.04,185.04c1.43,1.3,2.81,2,3.8,2.5c2.08-1.01,2.65-1.69,3.33-2.5H210.04z
				 M210.46,173.01v1.64h6.53v-1.64H210.46z M210.46,177.14v1.64h6.53v-1.64H210.46z"/>
		</g>
	</g>
</g>
<g>
	<defs>
		<rect id="SVGID_3_" width="280" height="160"/>
	</defs>
	<clipPath id="SVGID_1_">
		<use xlink:href="#SVGID_3_"  style="overflow:visible;"/>
	</clipPath>
	<g class="st1">
		<g>
			<g>
				<polygon class="st2" points="348.5,127.44 308.43,137.19 -28.92,137.19 -50.58,129.61 -50.58,76.09 -2.93,62.46 319.26,62.46 
					360.95,88.46 				"/>
				<path class="st3" d="M363.18,54.94l1.9,1.9c0.25,0.25,0.58,0.38,0.92,0.38h24.26c0-1.55,0-3.08,0-4.51h-26.16
					C362.94,52.71,362.36,54.12,363.18,54.94z"/>
				<path class="st4" d="M366,57.22c-0.35,0-0.68-0.14-0.92-0.38l-1.9-1.9c-0.82-0.82-0.24-2.23,0.92-2.23h26.16
					c0-0.72-0.01-1.42-0.01-2.08h-28.39c-2.18,0-3.41,2.51-2.06,4.23c1.33,1.69,3.19,3.7,5.66,5.61c6.13,4.73,11.12,7.59,13.09,8.65
					c0.57,0.31,1.21,0.47,1.86,0.47h9.78c0.01-2.11,0.06-7.3,0.08-12.36H366z"/>
				<path class="st5" d="M-36.88,68.14h-13.24c-2.42,3.42-6.09,10.09-9.23,16.06h8.89c1.31,0,2.59-0.39,3.68-1.13
					c1.76-1.2,4.66-3.2,7.55-5.37c-1.48,0-2.84,0-3.31,0h-3.2c-0.38,0-0.75-0.17-1-0.46c-0.74-0.88-2.2-2.74-1.58-3.15
					c0.81-0.54,2.08-1.17,3.61-1.17c0.66,0,1.94,0,3.17,0C-40.02,71.27-38.12,69.37-36.88,68.14z"/>
				<path class="st3" d="M-61.73,109.34c-0.75-0.9-1.85-1.43-3.03-1.43h-2.06v9.26l5.7-7.09L-61.73,109.34z"/>
				<path class="st3" d="M-56.81,115.31l-4.31-5.22l-5.7,7.09v0.4l3.58,1.34c1.17,0.44,2.42,0.67,3.67,0.67h0.74
					C-56.62,119.59-55.41,117.01-56.81,115.31z"/>
				<path class="st6" d="M-31.96,68.14h-4.92c-2.32,2.29-6.97,6.99-7.1,7.94c-0.18,1.26,0.27,1.62,1.44,1.62c0.47,0,1.83,0,3.31,0
					c0.08-0.06,0.16-0.12,0.24-0.18c2.85-2.13,5.96-5.13,7.97-7.16C-30.21,69.54-30.8,68.14-31.96,68.14z"/>
				<path class="st7" d="M-48.32,74.1c-0.62,0.41,0.84,2.27,1.58,3.15c0.25,0.29,0.61,0.46,1,0.46h3.2c-1.17,0-1.62-0.36-1.44-1.62
					c0.06-0.44,1.11-1.71,2.45-3.16c-1.23,0-2.51,0-3.17,0C-46.24,72.93-47.51,73.56-48.32,74.1z"/>
				<g>
					
						<ellipse transform="matrix(0.9239 -0.3827 0.3827 0.9239 -45.6102 6.5533)" class="st8" cx="-6.33" cy="117.93" rx="34.36" ry="34.36"/>
					<circle class="st9" cx="-6.33" cy="117.93" r="21.83"/>
					<circle class="st10" cx="-6.33" cy="117.93" r="20.31"/>
					<circle class="st11" cx="-6.33" cy="117.93" r="12.46"/>
					<g>
						<rect x="-7.6" y="97.27" class="st11" width="2.53" height="8.2"/>
						
							<rect x="-19.3" y="102.12" transform="matrix(0.7071 -0.7071 0.7071 0.7071 -80.393 18.357)" class="st11" width="2.53" height="8.2"/>
						
							<rect x="-24.15" y="113.83" transform="matrix(4.244966e-11 -1 1 4.244966e-11 -140.8138 95.0459)" class="st11" width="2.53" height="8.2"/>
						
							<rect x="-19.3" y="125.54" transform="matrix(-0.7071 -0.7071 0.7071 -0.7071 -122.4485 208.5518)" class="st11" width="2.53" height="8.2"/>
						
							<rect x="-7.59" y="130.38" transform="matrix(-1 -9.065561e-11 9.065561e-11 -1 -12.6466 268.9642)" class="st11" width="2.53" height="8.2"/>
						
							<rect x="4.12" y="125.53" transform="matrix(-0.7071 0.7071 -0.7071 -0.7071 100.8509 217.4859)" class="st11" width="2.53" height="8.2"/>
						
							<rect x="8.96" y="113.82" transform="matrix(-1.359830e-10 1 -1 -1.359830e-10 128.1504 107.6925)" class="st11" width="2.53" height="8.2"/>
						
							<rect x="4.11" y="102.11" transform="matrix(0.7071 0.7071 -0.7071 0.7071 76.6805 27.3079)" class="st11" width="2.53" height="8.2"/>
					</g>
					<g>
						<g>
							<rect x="-7.6" y="97.27" class="st9" width="2.53" height="8.2"/>
							
								<rect x="-19.3" y="102.12" transform="matrix(0.7071 -0.7071 0.7071 0.7071 -80.393 18.357)" class="st9" width="2.53" height="8.2"/>
							
								<rect x="-24.15" y="113.83" transform="matrix(4.244966e-11 -1 1 4.244966e-11 -140.8138 95.0459)" class="st9" width="2.53" height="8.2"/>
							
								<rect x="-19.3" y="125.54" transform="matrix(-0.7071 -0.7071 0.7071 -0.7071 -122.4485 208.5518)" class="st9" width="2.53" height="8.2"/>
							
								<rect x="-7.59" y="130.38" transform="matrix(-1 -9.065561e-11 9.065561e-11 -1 -12.6466 268.9642)" class="st9" width="2.53" height="8.2"/>
							
								<rect x="4.12" y="125.53" transform="matrix(-0.7071 0.7071 -0.7071 -0.7071 100.8509 217.4859)" class="st9" width="2.53" height="8.2"/>
							
								<rect x="8.96" y="113.82" transform="matrix(-1.359830e-10 1 -1 -1.359830e-10 128.1504 107.6925)" class="st9" width="2.53" height="8.2"/>
							
								<rect x="4.11" y="102.11" transform="matrix(0.7071 0.7071 -0.7071 0.7071 76.6805 27.3079)" class="st9" width="2.53" height="8.2"/>
						</g>
						<g>
							
								<rect x="-13.93" y="98.53" transform="matrix(0.9239 -0.3827 0.3827 0.9239 -40.2395 2.9648)" class="st9" width="2.53" height="8.2"/>
							
								<rect x="-22.89" y="107.49" transform="matrix(0.3827 -0.9239 0.9239 0.3827 -116.4487 48.9094)" class="st9" width="2.53" height="8.2"/>
							
								<rect x="-22.89" y="120.16" transform="matrix(-0.3827 -0.9239 0.9239 -0.3827 -144.7028 151.8435)" class="st9" width="2.53" height="8.2"/>
							
								<rect x="-13.92" y="129.12" transform="matrix(-0.9239 -0.3827 0.3827 -0.9239 -75.3378 251.4612)" class="st9" width="2.53" height="8.2"/>
							
								<rect x="-1.25" y="129.12" transform="matrix(-0.9239 0.3827 -0.3827 -0.9239 51.0047 256.295)" class="st9" width="2.53" height="8.2"/>
							
								<rect x="7.71" y="120.16" transform="matrix(-0.3827 0.9239 -0.9239 -0.3827 127.2021 163.5216)" class="st9" width="2.53" height="8.2"/>
							
								<rect x="7.7" y="107.49" transform="matrix(0.3827 0.9239 -0.9239 0.3827 108.6274 60.5993)" class="st9" width="2.53" height="8.2"/>
							
								<rect x="-1.26" y="98.53" transform="matrix(0.9239 0.3827 -0.3827 0.9239 39.2743 7.8104)" class="st9" width="2.53" height="8.2"/>
						</g>
					</g>
					<circle class="st12" cx="-6.33" cy="117.93" r="10.8"/>
					<circle class="st13" cx="-6.33" cy="117.93" r="4.2"/>
					<circle class="st10" cx="-6.33" cy="117.93" r="2.9"/>
					<path class="st14" d="M-6.33,88.22c16.48,0,29.88,13.14,30.31,29.51c0.01-0.27,0.02-0.54,0.02-0.82
						c0-16.75-13.58-30.33-30.33-30.33c-16.75,0-30.33,13.58-30.33,30.33c0,0.27,0.01,0.54,0.02,0.82
						C-36.21,101.37-22.81,88.22-6.33,88.22z"/>
					<g>
						<g>
							<circle class="st15" cx="-6.39" cy="110.16" r="2.32"/>
							<circle class="st16" cx="-6.39" cy="110.16" r="1.19"/>
						</g>
						<g>
							<circle class="st15" cx="-14.09" cy="117.99" r="2.32"/>
							<circle class="st16" cx="-14.09" cy="117.99" r="1.19"/>
						</g>
						<g>
							<circle class="st15" cx="-6.27" cy="125.69" r="2.32"/>
							<circle class="st16" cx="-6.27" cy="125.69" r="1.19"/>
						</g>
						<g>
							<circle class="st15" cx="1.43" cy="117.86" r="2.32"/>
							<circle class="st16" cx="1.43" cy="117.86" r="1.19"/>
						</g>
					</g>
					<g>
						<g>
							<circle class="st15" cx="-11.87" cy="112.48" r="2.32"/>
							<circle class="st16" cx="-11.87" cy="112.48" r="1.19"/>
						</g>
						<g>
							<circle class="st15" cx="-11.78" cy="123.46" r="2.32"/>
							<circle class="st16" cx="-11.78" cy="123.46" r="1.19"/>
						</g>
						<g>
							<circle class="st15" cx="-0.8" cy="123.37" r="2.32"/>
							<circle class="st16" cx="-0.8" cy="123.37" r="1.19"/>
						</g>
						<g>
							<circle class="st15" cx="-0.89" cy="112.39" r="2.32"/>
							<circle class="st16" cx="-0.89" cy="112.39" r="1.19"/>
						</g>
					</g>
					
						<linearGradient id="SVGID_2_" gradientUnits="userSpaceOnUse" x1="2736.0134" y1="139.7562" x2="2736.0134" y2="96.0948" gradientTransform="matrix(1 0 0 1 -2742.3457 0)">
						<stop  offset="0" style="stop-color:#000000"/>
						<stop  offset="0.1931" style="stop-color:#2C2C2C"/>
						<stop  offset="0.6266" style="stop-color:#9B9B9B"/>
						<stop  offset="1" style="stop-color:#FFFFFF"/>
					</linearGradient>
					<circle class="st17" cx="-6.33" cy="117.93" r="21.83"/>
				</g>
				<g>
					
						<ellipse transform="matrix(0.9239 -0.3827 0.3827 0.9239 -21.9252 125.6256)" class="st8" cx="304.82" cy="117.93" rx="34.36" ry="34.36"/>
					<circle class="st9" cx="304.82" cy="117.93" r="21.83"/>
					<circle class="st10" cx="304.82" cy="117.93" r="20.31"/>
					<circle class="st11" cx="304.82" cy="117.93" r="12.46"/>
					<g>
						<rect x="303.55" y="97.27" class="st11" width="2.53" height="8.2"/>
						
							<rect x="291.85" y="102.12" transform="matrix(0.7071 -0.7071 0.7071 0.7071 10.7408 238.3736)" class="st11" width="2.53" height="8.2"/>
						
							<rect x="287" y="113.83" transform="matrix(4.604678e-11 -1 1 4.604678e-11 170.3366 406.1963)" class="st11" width="2.53" height="8.2"/>
						
							<rect x="291.85" y="125.54" transform="matrix(-0.7071 -0.7071 0.7071 -0.7071 408.7185 428.5684)" class="st11" width="2.53" height="8.2"/>
						
							<rect x="303.56" y="130.38" transform="matrix(-1 -8.921631e-11 8.921631e-11 -1 609.6542 268.9642)" class="st11" width="2.53" height="8.2"/>
						
							<rect x="315.27" y="125.53" transform="matrix(-0.7071 0.7071 -0.7071 -0.7071 632.0179 -2.5306)" class="st11" width="2.53" height="8.2"/>
						
							<rect x="320.12" y="113.82" transform="matrix(-1.345441e-10 1 -1 -1.345441e-10 439.3008 -203.4579)" class="st11" width="2.53" height="8.2"/>
						
							<rect x="315.26" y="102.11" transform="matrix(0.7071 0.7071 -0.7071 0.7071 167.8143 -192.7087)" class="st11" width="2.53" height="8.2"/>
					</g>
					<g>
						<g>
							<rect x="303.55" y="97.27" class="st9" width="2.53" height="8.2"/>
							
								<rect x="291.85" y="102.12" transform="matrix(0.7071 -0.7071 0.7071 0.7071 10.7408 238.3736)" class="st9" width="2.53" height="8.2"/>
							
								<rect x="287" y="113.83" transform="matrix(4.604678e-11 -1 1 4.604678e-11 170.3366 406.1963)" class="st9" width="2.53" height="8.2"/>
							
								<rect x="291.85" y="125.54" transform="matrix(-0.7071 -0.7071 0.7071 -0.7071 408.7185 428.5684)" class="st9" width="2.53" height="8.2"/>
							
								<rect x="303.56" y="130.38" transform="matrix(-1 -8.921631e-11 8.921631e-11 -1 609.6542 268.9642)" class="st9" width="2.53" height="8.2"/>
							
								<rect x="315.27" y="125.53" transform="matrix(-0.7071 0.7071 -0.7071 -0.7071 632.0179 -2.5306)" class="st9" width="2.53" height="8.2"/>
							
								<rect x="320.12" y="113.82" transform="matrix(-1.345441e-10 1 -1 -1.345441e-10 439.3008 -203.4579)" class="st9" width="2.53" height="8.2"/>
							
								<rect x="315.26" y="102.11" transform="matrix(0.7071 0.7071 -0.7071 0.7071 167.8143 -192.7087)" class="st9" width="2.53" height="8.2"/>
						</g>
						<g>
							
								<rect x="297.22" y="98.53" transform="matrix(0.9239 -0.3827 0.3827 0.9239 -16.5545 122.0369)" class="st9" width="2.53" height="8.2"/>
							
								<rect x="288.26" y="107.49" transform="matrix(0.3827 -0.9239 0.9239 0.3827 75.6296 336.3749)" class="st9" width="2.53" height="8.2"/>
							
								<rect x="288.26" y="120.16" transform="matrix(-0.3827 -0.9239 0.9239 -0.3827 285.5198 439.309)" class="st9" width="2.53" height="8.2"/>
							
								<rect x="297.23" y="129.12" transform="matrix(-0.9239 -0.3827 0.3827 -0.9239 523.2781 370.5334)" class="st9" width="2.53" height="8.2"/>
							
								<rect x="309.9" y="129.12" transform="matrix(-0.9239 0.3827 -0.3827 -0.9239 649.6207 137.2229)" class="st9" width="2.53" height="8.2"/>
							
								<rect x="318.86" y="120.16" transform="matrix(-0.3827 0.9239 -0.9239 -0.3827 557.4247 -123.944)" class="st9" width="2.53" height="8.2"/>
							
								<rect x="318.85" y="107.49" transform="matrix(0.3827 0.9239 -0.9239 0.3827 300.7057 -226.8662)" class="st9" width="2.53" height="8.2"/>
							
								<rect x="309.89" y="98.53" transform="matrix(0.9239 0.3827 -0.3827 0.9239 62.9592 -111.2617)" class="st9" width="2.53" height="8.2"/>
						</g>
					</g>
					<circle class="st12" cx="304.82" cy="117.93" r="10.8"/>
					<circle class="st13" cx="304.82" cy="117.93" r="4.2"/>
					<circle class="st10" cx="304.82" cy="117.93" r="2.9"/>
					<path class="st14" d="M304.82,88.22c16.48,0,29.88,13.14,30.31,29.51c0.01-0.27,0.02-0.54,0.02-0.82
						c0-16.75-13.58-30.33-30.33-30.33c-16.75,0-30.33,13.58-30.33,30.33c0,0.27,0.01,0.54,0.02,0.82
						C274.94,101.37,288.34,88.22,304.82,88.22z"/>
					<g>
						<g>
							<circle class="st15" cx="304.76" cy="110.16" r="2.32"/>
							<circle class="st16" cx="304.76" cy="110.16" r="1.19"/>
						</g>
						<g>
							<circle class="st15" cx="297.06" cy="117.99" r="2.32"/>
							<circle class="st16" cx="297.06" cy="117.99" r="1.19"/>
						</g>
						<g>
							<circle class="st15" cx="304.88" cy="125.69" r="2.32"/>
							<circle class="st16" cx="304.88" cy="125.69" r="1.19"/>
						</g>
						<g>
							<circle class="st15" cx="312.58" cy="117.86" r="2.32"/>
							<circle class="st16" cx="312.58" cy="117.86" r="1.19"/>
						</g>
					</g>
					<g>
						<g>
							<circle class="st15" cx="299.29" cy="112.48" r="2.32"/>
							<circle class="st16" cx="299.29" cy="112.48" r="1.19"/>
						</g>
						<g>
							<circle class="st15" cx="299.37" cy="123.46" r="2.32"/>
							<circle class="st16" cx="299.37" cy="123.46" r="1.19"/>
						</g>
						<g>
							<circle class="st15" cx="310.35" cy="123.37" r="2.32"/>
							<circle class="st16" cx="310.35" cy="123.37" r="1.19"/>
						</g>
						<g>
							<circle class="st15" cx="310.26" cy="112.39" r="2.32"/>
							<circle class="st16" cx="310.26" cy="112.39" r="1.19"/>
						</g>
					</g>
					
						<linearGradient id="SVGID_4_" gradientUnits="userSpaceOnUse" x1="3047.1641" y1="139.7562" x2="3047.1641" y2="96.0948" gradientTransform="matrix(1 0 0 1 -2742.3457 0)">
						<stop  offset="0" style="stop-color:#000000"/>
						<stop  offset="0.1931" style="stop-color:#2C2C2C"/>
						<stop  offset="0.6266" style="stop-color:#9B9B9B"/>
						<stop  offset="1" style="stop-color:#FFFFFF"/>
					</linearGradient>
					<circle class="st18" cx="304.82" cy="117.93" r="21.83"/>
				</g>
				<g>
					<defs>
						<path id="SVGID_5_" d="M390.27,52.71c0-0.72-0.01-1.42-0.01-2.08h-28.39c-2.18,0-3.41,2.51-2.06,4.23
							c1.33,1.69,3.19,3.7,5.66,5.61c6.13,4.73,11.12,7.59,13.09,8.65c0.57,0.31,1.21,0.47,1.86,0.47h9.78
							c0.01-2.11,0.06-7.3,0.08-12.36C390.27,55.68,390.27,54.14,390.27,52.71z"/>
					</defs>
					<clipPath id="SVGID_6_">
						<use xlink:href="#SVGID_5_"  style="overflow:visible;"/>
					</clipPath>
					<g class="st19">
						<g>
							<path class="st20" d="M353.05,55.47c-0.14,0-0.25-0.11-0.25-0.25v-0.2c0-0.14,0.11-0.25,0.25-0.25h43.11
								c0.14,0,0.25,0.11,0.25,0.25v0.2c0,0.14-0.11,0.25-0.25,0.25H353.05z"/>
							<path class="st3" d="M396.16,55.02v0.2h-43.11v-0.2H396.16 M396.16,54.52h-43.11c-0.28,0-0.5,0.22-0.5,0.5v0.2
								c0,0.28,0.22,0.5,0.5,0.5h43.11c0.28,0,0.5-0.22,0.5-0.5v-0.2C396.66,54.74,396.44,54.52,396.16,54.52L396.16,54.52z"/>
						</g>
						<g>
							<path class="st20" d="M353.05,56.34c-0.14,0-0.25-0.11-0.25-0.25v-0.2c0-0.14,0.11-0.25,0.25-0.25h43.11
								c0.14,0,0.25,0.11,0.25,0.25v0.2c0,0.14-0.11,0.25-0.25,0.25H353.05z"/>
							<path class="st3" d="M396.16,55.89v0.2h-43.11v-0.2H396.16 M396.16,55.39h-43.11c-0.28,0-0.5,0.22-0.5,0.5v0.2
								c0,0.28,0.22,0.5,0.5,0.5h43.11c0.28,0,0.5-0.22,0.5-0.5v-0.2C396.66,55.61,396.44,55.39,396.16,55.39L396.16,55.39z"/>
						</g>
						<g>
							<path class="st20" d="M353.05,57.22c-0.14,0-0.25-0.11-0.25-0.25v-0.2c0-0.14,0.11-0.25,0.25-0.25h43.11
								c0.14,0,0.25,0.11,0.25,0.25v0.2c0,0.14-0.11,0.25-0.25,0.25H353.05z"/>
							<path class="st3" d="M396.16,56.77v0.2h-43.11v-0.2H396.16 M396.16,56.27h-43.11c-0.28,0-0.5,0.22-0.5,0.5v0.2
								c0,0.28,0.22,0.5,0.5,0.5h43.11c0.28,0,0.5-0.22,0.5-0.5v-0.2C396.66,56.49,396.44,56.27,396.16,56.27L396.16,56.27z"/>
						</g>
						<g>
							<path class="st20" d="M353.05,58.1c-0.14,0-0.25-0.11-0.25-0.25v-0.2c0-0.14,0.11-0.25,0.25-0.25h43.11
								c0.14,0,0.25,0.11,0.25,0.25v0.2c0,0.14-0.11,0.25-0.25,0.25H353.05z"/>
							<path class="st3" d="M396.16,57.64v0.2h-43.11v-0.2H396.16 M396.16,57.14h-43.11c-0.28,0-0.5,0.22-0.5,0.5v0.2
								c0,0.28,0.22,0.5,0.5,0.5h43.11c0.28,0,0.5-0.22,0.5-0.5v-0.2C396.66,57.37,396.44,57.14,396.16,57.14L396.16,57.14z"/>
						</g>
						<g>
							<path class="st20" d="M353.05,58.97c-0.14,0-0.25-0.11-0.25-0.25v-0.2c0-0.14,0.11-0.25,0.25-0.25h43.11
								c0.14,0,0.25,0.11,0.25,0.25v0.2c0,0.14-0.11,0.25-0.25,0.25H353.05z"/>
							<path class="st3" d="M396.16,58.52v0.2h-43.11v-0.2H396.16 M396.16,58.02h-43.11c-0.28,0-0.5,0.22-0.5,0.5v0.2
								c0,0.28,0.22,0.5,0.5,0.5h43.11c0.28,0,0.5-0.22,0.5-0.5v-0.2C396.66,58.24,396.44,58.02,396.16,58.02L396.16,58.02z"/>
						</g>
						<g>
							<path class="st20" d="M353.05,59.85c-0.14,0-0.25-0.11-0.25-0.25v-0.2c0-0.14,0.11-0.25,0.25-0.25h43.11
								c0.14,0,0.25,0.11,0.25,0.25v0.2c0,0.14-0.11,0.25-0.25,0.25H353.05z"/>
							<path class="st3" d="M396.16,59.39v0.2h-43.11v-0.2H396.16 M396.16,58.89h-43.11c-0.28,0-0.5,0.22-0.5,0.5v0.2
								c0,0.28,0.22,0.5,0.5,0.5h43.11c0.28,0,0.5-0.22,0.5-0.5v-0.2C396.66,59.12,396.44,58.89,396.16,58.89L396.16,58.89z"/>
						</g>
						<g>
							<path class="st20" d="M353.05,50.22c-0.14,0-0.25-0.11-0.25-0.25v-0.2c0-0.14,0.11-0.25,0.25-0.25h43.11
								c0.14,0,0.25,0.11,0.25,0.25v0.2c0,0.14-0.11,0.25-0.25,0.25H353.05z"/>
							<path class="st3" d="M396.16,49.76v0.2h-43.11v-0.2H396.16 M396.16,49.26h-43.11c-0.28,0-0.5,0.22-0.5,0.5v0.2
								c0,0.28,0.22,0.5,0.5,0.5h43.11c0.28,0,0.5-0.22,0.5-0.5v-0.2C396.66,49.49,396.44,49.26,396.16,49.26L396.16,49.26z"/>
						</g>
						<g>
							<path class="st20" d="M353.05,51.09c-0.14,0-0.25-0.11-0.25-0.25v-0.2c0-0.14,0.11-0.25,0.25-0.25h43.11
								c0.14,0,0.25,0.11,0.25,0.25v0.2c0,0.14-0.11,0.25-0.25,0.25H353.05z"/>
							<path class="st3" d="M396.16,50.64v0.2h-43.11v-0.2H396.16 M396.16,50.14h-43.11c-0.28,0-0.5,0.22-0.5,0.5v0.2
								c0,0.28,0.22,0.5,0.5,0.5h43.11c0.28,0,0.5-0.22,0.5-0.5v-0.2C396.66,50.36,396.44,50.14,396.16,50.14L396.16,50.14z"/>
						</g>
						<g>
							<path class="st20" d="M353.05,51.97c-0.14,0-0.25-0.11-0.25-0.25v-0.2c0-0.14,0.11-0.25,0.25-0.25h43.11
								c0.14,0,0.25,0.11,0.25,0.25v0.2c0,0.14-0.11,0.25-0.25,0.25H353.05z"/>
							<path class="st3" d="M396.16,51.51v0.2h-43.11v-0.2H396.16 M396.16,51.01h-43.11c-0.28,0-0.5,0.22-0.5,0.5v0.2
								c0,0.28,0.22,0.5,0.5,0.5h43.11c0.28,0,0.5-0.22,0.5-0.5v-0.2C396.66,51.24,396.44,51.01,396.16,51.01L396.16,51.01z"/>
						</g>
						<g>
							<path class="st20" d="M353.05,52.84c-0.14,0-0.25-0.11-0.25-0.25v-0.2c0-0.14,0.11-0.25,0.25-0.25h43.11
								c0.14,0,0.25,0.11,0.25,0.25v0.2c0,0.14-0.11,0.25-0.25,0.25H353.05z"/>
							<path class="st3" d="M396.16,52.39v0.2h-43.11v-0.2H396.16 M396.16,51.89h-43.11c-0.28,0-0.5,0.22-0.5,0.5v0.2
								c0,0.28,0.22,0.5,0.5,0.5h43.11c0.28,0,0.5-0.22,0.5-0.5v-0.2C396.66,52.11,396.44,51.89,396.16,51.89L396.16,51.89z"/>
						</g>
						<g>
							<path class="st20" d="M353.05,53.72c-0.14,0-0.25-0.11-0.25-0.25v-0.2c0-0.14,0.11-0.25,0.25-0.25h43.11
								c0.14,0,0.25,0.11,0.25,0.25v0.2c0,0.14-0.11,0.25-0.25,0.25H353.05z"/>
							<path class="st3" d="M396.16,53.26v0.2h-43.11v-0.2H396.16 M396.16,52.76h-43.11c-0.28,0-0.5,0.22-0.5,0.5v0.2
								c0,0.28,0.22,0.5,0.5,0.5h43.11c0.28,0,0.5-0.22,0.5-0.5v-0.2C396.66,52.99,396.44,52.76,396.16,52.76L396.16,52.76z"/>
						</g>
						<g>
							<path class="st20" d="M353.05,54.59c-0.14,0-0.25-0.11-0.25-0.25v-0.2c0-0.14,0.11-0.25,0.25-0.25h43.11
								c0.14,0,0.25,0.11,0.25,0.25v0.2c0,0.14-0.11,0.25-0.25,0.25H353.05z"/>
							<path class="st3" d="M396.16,54.14v0.2h-43.11v-0.2H396.16 M396.16,53.64h-43.11c-0.28,0-0.5,0.22-0.5,0.5v0.2
								c0,0.28,0.22,0.5,0.5,0.5h43.11c0.28,0,0.5-0.22,0.5-0.5v-0.2C396.66,53.86,396.44,53.64,396.16,53.64L396.16,53.64z"/>
						</g>
						<g>
							<path class="st20" d="M353.05,60.72c-0.14,0-0.25-0.11-0.25-0.25v-0.2c0-0.14,0.11-0.25,0.25-0.25h43.11
								c0.14,0,0.25,0.11,0.25,0.25v0.2c0,0.14-0.11,0.25-0.25,0.25H353.05z"/>
							<path class="st3" d="M396.16,60.27v0.2h-43.11v-0.2H396.16 M396.16,59.77h-43.11c-0.28,0-0.5,0.22-0.5,0.5v0.2
								c0,0.28,0.22,0.5,0.5,0.5h43.11c0.28,0,0.5-0.22,0.5-0.5v-0.2C396.66,59.99,396.44,59.77,396.16,59.77L396.16,59.77z"/>
						</g>
						<g>
							<path class="st20" d="M353.05,61.6c-0.14,0-0.25-0.11-0.25-0.25v-0.2c0-0.14,0.11-0.25,0.25-0.25h43.11
								c0.14,0,0.25,0.11,0.25,0.25v0.2c0,0.14-0.11,0.25-0.25,0.25H353.05z"/>
							<path class="st3" d="M396.16,61.14v0.2h-43.11v-0.2H396.16 M396.16,60.64h-43.11c-0.28,0-0.5,0.22-0.5,0.5v0.2
								c0,0.28,0.22,0.5,0.5,0.5h43.11c0.28,0,0.5-0.22,0.5-0.5v-0.2C396.66,60.87,396.44,60.64,396.16,60.64L396.16,60.64z"/>
						</g>
						<g>
							<path class="st20" d="M353.05,62.47c-0.14,0-0.25-0.11-0.25-0.25v-0.2c0-0.14,0.11-0.25,0.25-0.25h43.11
								c0.14,0,0.25,0.11,0.25,0.25v0.2c0,0.14-0.11,0.25-0.25,0.25H353.05z"/>
							<path class="st3" d="M396.16,62.02v0.2h-43.11v-0.2H396.16 M396.16,61.52h-43.11c-0.28,0-0.5,0.22-0.5,0.5v0.2
								c0,0.28,0.22,0.5,0.5,0.5h43.11c0.28,0,0.5-0.22,0.5-0.5v-0.2C396.66,61.74,396.44,61.52,396.16,61.52L396.16,61.52z"/>
						</g>
						<g>
							<path class="st20" d="M353.05,63.35c-0.14,0-0.25-0.11-0.25-0.25v-0.2c0-0.14,0.11-0.25,0.25-0.25h43.11
								c0.14,0,0.25,0.11,0.25,0.25v0.2c0,0.14-0.11,0.25-0.25,0.25H353.05z"/>
							<path class="st3" d="M396.16,62.89v0.2h-43.11v-0.2H396.16 M396.16,62.39h-43.11c-0.28,0-0.5,0.22-0.5,0.5v0.2
								c0,0.28,0.22,0.5,0.5,0.5h43.11c0.28,0,0.5-0.22,0.5-0.5v-0.2C396.66,62.62,396.44,62.39,396.16,62.39L396.16,62.39z"/>
						</g>
						<g>
							<path class="st20" d="M353.05,64.22c-0.14,0-0.25-0.11-0.25-0.25v-0.2c0-0.14,0.11-0.25,0.25-0.25h43.11
								c0.14,0,0.25,0.11,0.25,0.25v0.2c0,0.14-0.11,0.25-0.25,0.25H353.05z"/>
							<path class="st3" d="M396.16,63.77v0.2h-43.11v-0.2H396.16 M396.16,63.27h-43.11c-0.28,0-0.5,0.22-0.5,0.5v0.2
								c0,0.28,0.22,0.5,0.5,0.5h43.11c0.28,0,0.5-0.22,0.5-0.5v-0.2C396.66,63.49,396.44,63.27,396.16,63.27L396.16,63.27z"/>
						</g>
						<g>
							<path class="st20" d="M353.05,65.1c-0.14,0-0.25-0.11-0.25-0.25v-0.2c0-0.14,0.11-0.25,0.25-0.25h43.11
								c0.14,0,0.25,0.11,0.25,0.25v0.2c0,0.14-0.11,0.25-0.25,0.25H353.05z"/>
							<path class="st3" d="M396.16,64.65v0.2h-43.11v-0.2H396.16 M396.16,64.15h-43.11c-0.28,0-0.5,0.22-0.5,0.5v0.2
								c0,0.28,0.22,0.5,0.5,0.5h43.11c0.28,0,0.5-0.22,0.5-0.5v-0.2C396.66,64.37,396.44,64.15,396.16,64.15L396.16,64.15z"/>
						</g>
						<g>
							<path class="st20" d="M353.05,65.97c-0.14,0-0.25-0.11-0.25-0.25v-0.2c0-0.14,0.11-0.25,0.25-0.25h43.11
								c0.14,0,0.25,0.11,0.25,0.25v0.2c0,0.14-0.11,0.25-0.25,0.25H353.05z"/>
							<path class="st3" d="M396.16,65.52v0.2h-43.11v-0.2H396.16 M396.16,65.02h-43.11c-0.28,0-0.5,0.22-0.5,0.5v0.2
								c0,0.28,0.22,0.5,0.5,0.5h43.11c0.28,0,0.5-0.22,0.5-0.5v-0.2C396.66,65.25,396.44,65.02,396.16,65.02L396.16,65.02z"/>
						</g>
						<g>
							<path class="st20" d="M353.05,66.85c-0.14,0-0.25-0.11-0.25-0.25v-0.2c0-0.14,0.11-0.25,0.25-0.25h43.11
								c0.14,0,0.25,0.11,0.25,0.25v0.2c0,0.14-0.11,0.25-0.25,0.25H353.05z"/>
							<path class="st3" d="M396.16,66.4v0.2h-43.11v-0.2H396.16 M396.16,65.9h-43.11c-0.28,0-0.5,0.22-0.5,0.5v0.2
								c0,0.28,0.22,0.5,0.5,0.5h43.11c0.28,0,0.5-0.22,0.5-0.5v-0.2C396.66,66.12,396.44,65.9,396.16,65.9L396.16,65.9z"/>
						</g>
						<g>
							<path class="st20" d="M353.05,67.73c-0.14,0-0.25-0.11-0.25-0.25v-0.2c0-0.14,0.11-0.25,0.25-0.25h43.11
								c0.14,0,0.25,0.11,0.25,0.25v0.2c0,0.14-0.11,0.25-0.25,0.25H353.05z"/>
							<path class="st3" d="M396.16,67.27v0.2h-43.11v-0.2H396.16 M396.16,66.77h-43.11c-0.28,0-0.5,0.22-0.5,0.5v0.2
								c0,0.28,0.22,0.5,0.5,0.5h43.11c0.28,0,0.5-0.22,0.5-0.5v-0.2C396.66,67,396.44,66.77,396.16,66.77L396.16,66.77z"/>
						</g>
						<g>
							<path class="st20" d="M353.05,68.6c-0.14,0-0.25-0.11-0.25-0.25v-0.2c0-0.14,0.11-0.25,0.25-0.25h43.11
								c0.14,0,0.25,0.11,0.25,0.25v0.2c0,0.14-0.11,0.25-0.25,0.25H353.05z"/>
							<path class="st3" d="M396.16,68.15v0.2h-43.11v-0.2H396.16 M396.16,67.65h-43.11c-0.28,0-0.5,0.22-0.5,0.5v0.2
								c0,0.28,0.22,0.5,0.5,0.5h43.11c0.28,0,0.5-0.22,0.5-0.5v-0.2C396.66,67.87,396.44,67.65,396.16,67.65L396.16,67.65z"/>
						</g>
						<g>
							<path class="st20" d="M353.05,69.48c-0.14,0-0.25-0.11-0.25-0.25v-0.2c0-0.14,0.11-0.25,0.25-0.25h43.11
								c0.14,0,0.25,0.11,0.25,0.25v0.2c0,0.14-0.11,0.25-0.25,0.25H353.05z"/>
							<path class="st3" d="M396.16,69.02v0.2h-43.11v-0.2H396.16 M396.16,68.52h-43.11c-0.28,0-0.5,0.22-0.5,0.5v0.2
								c0,0.28,0.22,0.5,0.5,0.5h43.11c0.28,0,0.5-0.22,0.5-0.5v-0.2C396.66,68.75,396.44,68.52,396.16,68.52L396.16,68.52z"/>
						</g>
						<g>
							<path class="st20" d="M353.05,70.35c-0.14,0-0.25-0.11-0.25-0.25v-0.2c0-0.14,0.11-0.25,0.25-0.25h43.11
								c0.14,0,0.25,0.11,0.25,0.25v0.2c0,0.14-0.11,0.25-0.25,0.25H353.05z"/>
							<path class="st3" d="M396.16,69.9v0.2h-43.11v-0.2H396.16 M396.16,69.4h-43.11c-0.28,0-0.5,0.22-0.5,0.5v0.2
								c0,0.28,0.22,0.5,0.5,0.5h43.11c0.28,0,0.5-0.22,0.5-0.5v-0.2C396.66,69.62,396.44,69.4,396.16,69.4L396.16,69.4z"/>
						</g>
					</g>
				</g>
				<path class="st21" d="M35.71,137.87c0.04,0.48,0.43,0.85,0.91,0.85h223.92c0.03,0,0.07,0,0.1-0.01l2.61-0.28
					c0.46-0.05,0.8-0.43,0.82-0.89c0.04-1.43,0.08-2.84,0.12-4.24H35.36C35.48,134.81,35.6,136.33,35.71,137.87z"/>
				<path class="st21" d="M184.47,13.03l-0.52,0.01c-1.87,0.03-3.66,0.07-5.34,0.08l-8.04,34.65l9.07-0.42
					C181.31,35.16,183.22,21.7,184.47,13.03z"/>
				<path class="st3" d="M72.42,49.95c5.74-4.83,12.69-11.08,22.01-16.88c15.19-9.45,25.4-14.86,38.92-18.72
					c12.97-3.71,30.92-5.36,42.96-5.36c2.29,0,4.89-0.05,7.64-0.1l1.12-0.02c0.07-0.46,0.13-0.91,0.19-1.31
					c-3.32,0.06-6.32,0.12-8.95,0.12c-12.63,0-30.68,1.8-43.32,5.41c-12.63,3.61-23.46,8.3-39.71,18.41
					c-13.5,8.4-28.73,19.53-33.5,23.06L179.4,49.1c0.08-0.58,0.16-1.16,0.24-1.74l-106.31,4.9C72.08,52.31,71.47,50.76,72.42,49.95z
					"/>
				<path class="st21" d="M59.13,55.04c-0.56,0.41-0.92,1.03-1.03,1.71l-5.11,34.07c-0.09,0.61,0.03,1.23,0.35,1.75
					c0.91,1.47,2.85,4.83,4.19,8.6c1.8,5.05,2.08,14.17,2.17,21.66c0.01,0.87,0.01,1.68,0.01,2.3c0,0.72,0.58,1.31,1.3,1.3
					c9.69-0.05,71.14-0.36,119.26-1.01v-8.58c0-1.29-0.08-2.58-0.25-3.86c-0.92-7.07-4.03-31.75-3.72-38.53
					c0.13-2.94,1.47-13.38,3.1-25.36L59.78,54.57C59.54,54.74,59.31,54.91,59.13,55.04z"/>
				<path class="st21" d="M185.28,13.01l-0.21,0l-0.6,0.01c-1.25,8.67-3.16,22.13-4.83,34.33l8.69-0.4l1.36-34.01
					C188.13,12.97,186.65,12.99,185.28,13.01z"/>
				<path class="st21" d="M183.95,8.89c-2.75,0.05-5.36,0.1-7.64,0.1c-12.04,0-29.99,1.66-42.96,5.36
					c-13.51,3.86-23.72,9.27-38.92,18.72c-9.31,5.79-16.27,12.05-22.01,16.88c-0.96,0.8-0.34,2.36,0.9,2.3l1.35-0.06
					c5.29-4.5,11.63-9.91,19.75-14.97c15.19-9.45,25.4-14.86,38.92-18.72c12.97-3.71,30.92-5.36,42.96-5.36
					c2.29,0,4.89-0.05,7.64-0.1l0.52-0.01c0.22-1.55,0.42-2.95,0.6-4.16L183.95,8.89z"/>
				<path class="st3" d="M236.23,10.57c-20.87-3.43-38.33-3.24-50.97-3.01c-0.06,0.41-0.12,0.85-0.19,1.31l0.21,0
					c2.9-0.05,6.3-0.11,9.99-0.11c9.39,0,23.83,0.32,40.74,3.1C255.14,15,271,21.92,280.95,28.22c2.7,1.71,3.26,5.4,1.18,7.83
					l-1.09,1.28c-1.06,1.24-2.35,2.28-3.8,3.04l-2.81,1.49c-1.53,0.81-3.22,1.28-4.96,1.36l-89.83,4.14
					c-0.08,0.58-0.16,1.16-0.24,1.74l92.76-4.24c3.37-0.15,6.58-1.49,9.07-3.77l10.34-9.49C283.23,24.4,260.18,14.5,236.23,10.57z"
					/>
				<path class="st21" d="M280.95,28.22c-9.95-6.3-25.8-13.22-44.93-16.36c-16.91-2.78-31.35-3.1-40.74-3.1
					c-3.69,0-7.09,0.06-9.99,0.11l-0.21,0c-0.17,1.21-0.38,2.61-0.6,4.16l0.6-0.01l0.21,0c2.9-0.05,6.3-0.11,9.99-0.11
					c9.39,0,27.06,0.32,43.97,3.1c19.12,3.14,30.8,7.75,40.74,14.05c2.39,1.51,2.6,5.07,0.32,8.03c0.25-0.25,0.5-0.5,0.73-0.77
					l1.09-1.28C284.2,33.62,283.64,29.92,280.95,28.22z"/>
				<path class="st21" d="M291.57,31.6l-10.34,9.49c-2.49,2.28-5.7,3.62-9.07,3.77L179.4,49.1c-1.63,11.98-2.96,22.42-3.1,25.36
					c-0.31,6.78,2.81,31.46,3.72,38.53c0.17,1.28,0.25,2.57,0.25,3.86v8.58c28.2-0.38,51.82-0.88,57.76-1.51
					c16.97-1.8,19.13-16.97,24.91-26.71s18.77-25.63,27.07-36.82c8.3-11.19,9.39-19.49,3.61-26.71
					C293.1,33.01,292.41,32.32,291.57,31.6z"/>
				<path class="st22" d="M176.31,13.14c-12.04,0-29.99,1.66-42.96,5.36c-13.51,3.86-23.72,9.27-38.92,18.72
					c-8.13,5.06-14.46,10.46-19.75,14.97l95.9-4.42l8.04-34.65C177.81,13.13,177.04,13.14,176.31,13.14z"/>
				<path class="st22" d="M279.99,30.06c-9.95-6.3-21.62-10.91-40.74-14.05c-16.91-2.78-34.58-3.1-43.97-3.1
					c-1.95,0-3.82,0.02-5.58,0.04l-1.36,34.01l81.14-3.74c1.73-0.08,3.43-0.55,4.96-1.36l2.81-1.49c1.13-0.6,2.16-1.37,3.07-2.27
					C282.59,35.13,282.38,31.57,279.99,30.06z"/>
				<g>
					<defs>
						<path id="SVGID_7_" d="M178.61,13.12l-8.04,34.65l-95.9,4.42c5.29-4.5,11.63-9.91,19.75-14.97
							c15.19-9.45,25.4-14.86,38.92-18.72c12.97-3.71,30.92-5.36,42.96-5.36C177.04,13.14,177.81,13.13,178.61,13.12z M279.99,30.06
							c-9.95-6.3-21.62-10.91-40.74-14.05c-16.91-2.78-34.58-3.1-43.97-3.1c-1.95,0-3.82,0.02-5.58,0.04l-1.36,34.01l81.14-3.74
							c1.73-0.08,3.43-0.55,4.96-1.36l2.81-1.49c1.13-0.6,2.16-1.37,3.07-2.27C282.59,35.13,282.38,31.57,279.99,30.06z"/>
					</defs>
					<clipPath id="SVGID_8_">
						<use xlink:href="#SVGID_7_"  style="overflow:visible;"/>
					</clipPath>
				</g>
				<path class="st21" d="M352.17,100.51l8.41-8.41c0.74-0.74,1.73-1.15,2.77-1.15h27.68c1.04,0,2.04,0.41,2.77,1.15l4.51,4.51
					c0-4.46,0-9.37,0-11.49c0-1.47-1.34-3.83-2.94-6.27c-1.25,2-3.03,2.78-10.06,3.56c-7.19,0.8-39.73,2.38-56.3,3.16
					c5.48,3.73,9.59,9.09,12.18,16.09h8.19C350.44,101.66,351.44,101.24,352.17,100.51z"/>
				<path class="st21" d="M393.81,92.1c-0.74-0.74-1.73-1.15-2.77-1.15h-27.68c-1.04,0-2.04,0.41-2.77,1.15l-8.41,8.41
					c-0.74,0.74-1.73,1.15-2.77,1.15h-8.19c1,2.71,1.78,5.65,2.32,8.86c0.74,4.43,1.45,10.76,2.12,17.99
					c0.05,0.51,0.5,0.88,1.01,0.83l0,0c0.03,0,0.05-0.01,0.08-0.01c1.18-0.24,30.6-6.18,36.96-8.84
					c6.5-2.71,14.62-12.45,14.62-16.24c0-1.57,0-4.49,0-7.64L393.81,92.1z"/>
				<path class="st21" d="M326.9,60.02h-14.81c-1.1,0-1.99-0.89-1.99-1.99v-9.75c0-1.1,0.89-1.99,1.99-1.99h14.81
					c1.1,0,1.99,0.89,1.99,1.99v9.75C328.88,59.13,327.99,60.02,326.9,60.02z"/>
				<g>
					<path class="st23" d="M166.65,63.31c0.1,2.92-0.67,5.32-7.97,5.58c-7.31,0.26-13.31-1.91-13.41-4.83s5.74-5.5,13.04-5.75
						C165.62,58.05,166.55,60.38,166.65,63.31z"/>
					<path class="st24" d="M173.58,61.3l-7.13,0.37c0.13,0.51,0.18,1.06,0.2,1.64c0.02,0.57,0.01,1.13-0.08,1.65l7.14-0.13
						c0.37-0.01,0.65-0.31,0.64-0.68l-0.08-2.22C174.26,61.57,173.95,61.28,173.58,61.3z"/>
					<path class="st3" d="M166.45,61.67l-19.15,0.99c-0.36,0.02-0.63,0.32-0.62,0.68l0.05,1.34c0.01,0.36,0.31,0.64,0.67,0.63
						l19.17-0.35c0.09-0.52,0.1-1.07,0.08-1.65C166.63,62.73,166.58,62.18,166.45,61.67z"/>
				</g>
				<g>
					<path class="st23" d="M274.63,58.86c0.1,2.92-0.67,5.32-7.97,5.58c-7.31,0.26-13.31-1.91-13.41-4.83s5.74-5.5,13.04-5.75
						C273.6,53.6,274.53,55.94,274.63,58.86z"/>
					<path class="st3" d="M281.56,56.85l-7.13,0.37c0.13,0.51,0.18,1.06,0.2,1.64c0.02,0.57,0.01,1.13-0.08,1.65l7.14-0.13
						c0.37-0.01,0.65-0.31,0.64-0.68l-0.08-2.22C282.24,57.12,281.93,56.83,281.56,56.85z"/>
					<path class="st3" d="M274.43,57.22l-19.15,0.99c-0.36,0.02-0.63,0.32-0.62,0.68l0.05,1.34c0.01,0.36,0.31,0.64,0.67,0.63
						l19.17-0.35c0.09-0.52,0.1-1.07,0.08-1.65C274.61,58.29,274.56,57.74,274.43,57.22z"/>
				</g>
				<path class="st21" d="M56.14,45.81c0.48,0.42,1.44,0.78,3.85-0.66c1.03-0.62,2.92-1.8,4.74-2.94c0-0.01,0-0.03-0.01-0.04
					c-0.35,0.11-4.06,1.19-8.2,1.99C56.08,44.82,55.84,45.55,56.14,45.81z"/>
				<path class="st21" d="M58.1,56.76c0.1-0.68,0.47-1.3,1.03-1.71c0.19-0.14,0.41-0.3,0.65-0.48c1.62-1.2,4.46-3.29,8.03-5.84
					c-2.34-3.53-2.89-5.31-3.07-6.52c-1.82,1.15-3.71,2.33-4.74,2.94c-2.41,1.44-3.37,1.08-3.85,0.66c-0.3-0.26-0.06-0.98,0.38-1.65
					c-1.6,0.31-3.27,0.58-4.83,0.74c-14.19,1.41-31.33,1.9-50.11,5.2c-31.77,5.6-47.65,12.82-51.44,16.06
					c-0.25,0.21-0.53,0.52-0.85,0.92c-0.34,0.43-0.04,1.07,0.51,1.07l16.85,0c1.16,0,1.75,1.4,0.93,2.23
					c-2.01,2.03-5.12,5.03-7.97,7.16c-2.06,1.54-4.13,3.01-5.81,4.18c0.61,4.15,0.64,6.83,6.41,7.36
					c6.67-9.83,18.39-15.79,33.17-15.79c21.52,0,35.44,10.29,38.97,31.46c1.08,6.49,2.11,17.05,3.01,28.56h24.35v-8.17
					c0-0.63,0-1.43-0.01-2.3c-0.09-7.49-0.36-16.61-2.17-21.66c-1.34-3.76-3.29-7.13-4.19-8.6c-0.32-0.52-0.45-1.14-0.35-1.75
					L58.1,56.76z"/>
				<path class="st21" d="M-46.19,81.71c-0.75,0.52-1.42,0.98-1.98,1.36c-1.09,0.74-2.36,1.13-3.68,1.13h-8.1
					c-0.49,0-0.93,0.27-1.16,0.7c-1.51,2.88-2.87,5.55-3.89,7.57c-0.56,1.11-0.99,2.28-1.3,3.47c5.7,1.06,14.46,3.52,21.1,6.37
					c0.94-4.93,2.79-9.39,5.41-13.25C-45.55,88.54-45.58,85.87-46.19,81.71z"/>
				<path class="st21" d="M-66.29,95.95c-0.35,1.36-0.53,2.77-0.53,4.19v7.78h2.06c1.17,0,2.28,0.52,3.03,1.43l4.92,5.97
					c1.41,1.71,0.19,4.28-2.02,4.28h-0.74c-1.25,0-2.5-0.23-3.67-0.67l-3.58-1.34v2.86c0,1.02,0.39,1.99,1.1,2.72
					c1.39,1.44,4.06,3.85,7.74,5.63c3.31,1.6,7.26,2.19,9.92,2.41c0.52,0.04,0.97-0.36,0.99-0.89c0.28-10.31,0.74-19.77,1.48-25.57
					c0.1-0.82,0.24-1.62,0.39-2.42C-51.83,99.47-60.6,97.01-66.29,95.95z"/>
				<path class="st21" d="M390.19,69.59h-9.78c-0.65,0-1.29-0.16-1.86-0.47c-1.97-1.06-6.96-3.91-13.09-8.65
					c-2.48-1.91-4.33-3.91-5.66-5.61c-1.35-1.72-0.12-4.23,2.06-4.23h28.39c-0.01-1.25-0.03-2.36-0.06-3.25
					c-0.18-5.78-3.43-6.32-5.41-7.04c-1.99-0.72-17.33-1.99-22.92-2.53c-5.6-0.54-12.45-1.62-17.33-3.07
					c-4.87-1.44-18.77-6.86-18.77-6.86s-31.41-14.98-65.52-20.22c-34.11-5.23-65.34-4.33-75.09-4.33s-26.35-0.18-44.94,3.61
					s-27.07,7.4-46.93,18.41c-15.27,8.47-27.25,16.61-28.55,16.8c0.18,1.21,0.71,2.99,3.08,6.56c6.91-4.95,16.57-11.68,25.47-17.22
					c16.24-10.11,27.07-14.8,39.71-18.41c12.63-3.61,30.68-5.41,43.32-5.41c2.63,0,5.63-0.06,8.95-0.12
					c12.64-0.23,30.11-0.42,50.97,3.01c23.95,3.94,47.01,13.84,55.34,21.03c0.84,0.72,1.53,1.42,2.05,2.07
					c5.78,7.22,4.69,15.52-3.61,26.71c-8.3,11.19-21.3,27.07-27.07,36.82s-7.94,24.91-24.91,26.71c-5.94,0.63-29.56,1.13-57.76,1.51
					c-48.12,0.65-109.57,0.96-119.26,1.01c-0.72,0-1.3-0.58-1.3-1.3v8.17h204.47c0.29-9.21,0.73-17.51,1.4-22.79
					c2.41-18.83,17.45-31.46,38.97-31.46c9.83,0,18.07,2.16,24.46,6.51c16.57-0.78,49.11-2.36,56.3-3.16
					c7.03-0.78,8.8-1.56,10.06-3.56c-2.33-3.55-5.18-7.25-5.18-8.53C390.19,70.14,390.19,69.9,390.19,69.59z"/>
				<path class="st3" d="M48.56,119.82c-0.27,0.01-0.35,0.37-0.12,0.49l2.52,1.34c0.04,0.02,0.08,0.03,0.13,0.03l8.6-0.14
					c-0.01-0.66-0.02-1.33-0.04-2L48.56,119.82z"/>
				<path class="st3" d="M180.27,116.51l-120.62,3.03c0.01,0.67,0.03,1.34,0.04,2l120.59-2.02v-2.67
					C180.28,116.74,180.27,116.62,180.27,116.51z"/>
				<path class="st3" d="M247.96,114.81l-67.69,1.7c0,0.12,0.01,0.23,0.01,0.35v2.67l62.99-1.05c0.05,0,0.1-0.02,0.14-0.04l4.7-3.14
					C248.33,115.14,248.22,114.8,247.96,114.81z"/>
				<g class="st25">
					<defs>
						<path id="SVGID_9_" class="st25" d="M-37.37,68.63c-0.01,0.01-0.01,0.01-0.02,0.02C-37.38,68.64-37.38,68.63-37.37,68.63z
							 M-37.9,69.16c-0.01,0.01-0.02,0.02-0.03,0.03C-37.93,69.18-37.92,69.17-37.9,69.16z M-43.78,75.63
							c0.01-0.01,0.01-0.02,0.02-0.03C-43.76,75.61-43.77,75.62-43.78,75.63z M-43.92,75.89c0-0.01,0-0.01,0.01-0.02
							C-43.92,75.88-43.92,75.89-43.92,75.89z M-42.02,73.45c0,0-0.01,0.01-0.01,0.01C-42.02,73.46-42.02,73.46-42.02,73.45z
							 M-42.45,73.94c-0.01,0.02-0.03,0.03-0.04,0.05C-42.48,73.97-42.46,73.96-42.45,73.94z M-42.86,74.42
							c-0.02,0.02-0.03,0.04-0.05,0.05C-42.89,74.45-42.87,74.43-42.86,74.42z M-43.22,74.86c-0.01,0.02-0.03,0.04-0.04,0.06
							C-43.25,74.89-43.23,74.87-43.22,74.86z M-43.52,75.25c-0.01,0.02-0.02,0.03-0.04,0.05C-43.54,75.28-43.53,75.27-43.52,75.25z
							 M-38.47,69.73c-0.02,0.02-0.03,0.03-0.05,0.05C-38.51,69.77-38.49,69.75-38.47,69.73z M-39.07,70.34
							c-0.02,0.02-0.04,0.04-0.06,0.06C-39.11,70.38-39.09,70.36-39.07,70.34z M-39.69,70.98c-0.02,0.02-0.03,0.03-0.05,0.05
							C-39.73,71.01-39.71,71-39.69,70.98z M-40.33,71.64c-0.01,0.01-0.02,0.02-0.03,0.03C-40.34,71.65-40.33,71.64-40.33,71.64z
							 M-40.95,72.29C-40.95,72.29-40.95,72.3-40.95,72.29C-40.95,72.3-40.95,72.29-40.95,72.29z"/>
					</defs>
					<use xlink:href="#SVGID_9_"  style="overflow:visible;fill:#DDEAEC;"/>
					<clipPath id="SVGID_10_">
						<use xlink:href="#SVGID_9_"  style="overflow:visible;"/>
					</clipPath>
					<g class="st26">
						<g>
							<path class="st20" d="M-64.97,71.72c-0.14,0-0.25-0.11-0.25-0.25v-0.2c0-0.14,0.11-0.25,0.25-0.25h43.11
								c0.14,0,0.25,0.11,0.25,0.25v0.2c0,0.14-0.11,0.25-0.25,0.25H-64.97z"/>
							<path class="st3" d="M-21.86,71.27v0.2h-43.11v-0.2H-21.86 M-21.86,70.77h-43.11c-0.28,0-0.5,0.22-0.5,0.5v0.2
								c0,0.28,0.22,0.5,0.5,0.5h43.11c0.28,0,0.5-0.22,0.5-0.5v-0.2C-21.36,71-21.59,70.77-21.86,70.77L-21.86,70.77z"/>
						</g>
						<g>
							<path class="st20" d="M-64.97,72.56c-0.14,0-0.25-0.11-0.25-0.25v-0.2c0-0.14,0.11-0.25,0.25-0.25h43.11
								c0.14,0,0.25,0.11,0.25,0.25v0.2c0,0.14-0.11,0.25-0.25,0.25H-64.97z"/>
							<path class="st3" d="M-21.86,72.11v0.2h-43.11v-0.2H-21.86 M-21.86,71.61h-43.11c-0.28,0-0.5,0.22-0.5,0.5v0.2
								c0,0.28,0.22,0.5,0.5,0.5h43.11c0.28,0,0.5-0.22,0.5-0.5v-0.2C-21.36,71.84-21.59,71.61-21.86,71.61L-21.86,71.61z"/>
						</g>
						<g>
							<path class="st20" d="M-64.97,73.4c-0.14,0-0.25-0.11-0.25-0.25v-0.2c0-0.14,0.11-0.25,0.25-0.25h43.11
								c0.14,0,0.25,0.11,0.25,0.25v0.2c0,0.14-0.11,0.25-0.25,0.25H-64.97z"/>
							<path class="st3" d="M-21.86,72.95v0.2h-43.11v-0.2H-21.86 M-21.86,72.45h-43.11c-0.28,0-0.5,0.22-0.5,0.5v0.2
								c0,0.28,0.22,0.5,0.5,0.5h43.11c0.28,0,0.5-0.22,0.5-0.5v-0.2C-21.36,72.68-21.59,72.45-21.86,72.45L-21.86,72.45z"/>
						</g>
						<g>
							<path class="st20" d="M-64.97,74.24c-0.14,0-0.25-0.11-0.25-0.25v-0.2c0-0.14,0.11-0.25,0.25-0.25h43.11
								c0.14,0,0.25,0.11,0.25,0.25v0.2c0,0.14-0.11,0.25-0.25,0.25H-64.97z"/>
							<path class="st3" d="M-21.86,73.79v0.2h-43.11v-0.2H-21.86 M-21.86,73.29h-43.11c-0.28,0-0.5,0.22-0.5,0.5v0.2
								c0,0.28,0.22,0.5,0.5,0.5h43.11c0.28,0,0.5-0.22,0.5-0.5v-0.2C-21.36,73.52-21.59,73.29-21.86,73.29L-21.86,73.29z"/>
						</g>
						<g>
							<path class="st20" d="M-64.97,75.08c-0.14,0-0.25-0.11-0.25-0.25v-0.2c0-0.14,0.11-0.25,0.25-0.25h43.11
								c0.14,0,0.25,0.11,0.25,0.25v0.2c0,0.14-0.11,0.25-0.25,0.25H-64.97z"/>
							<path class="st3" d="M-21.86,74.63v0.2h-43.11v-0.2H-21.86 M-21.86,74.13h-43.11c-0.28,0-0.5,0.22-0.5,0.5v0.2
								c0,0.28,0.22,0.5,0.5,0.5h43.11c0.28,0,0.5-0.22,0.5-0.5v-0.2C-21.36,74.36-21.59,74.13-21.86,74.13L-21.86,74.13z"/>
						</g>
						<g>
							<path class="st20" d="M-64.97,75.92c-0.14,0-0.25-0.11-0.25-0.25v-0.2c0-0.14,0.11-0.25,0.25-0.25h43.11
								c0.14,0,0.25,0.11,0.25,0.25v0.2c0,0.14-0.11,0.25-0.25,0.25H-64.97z"/>
							<path class="st3" d="M-21.86,75.47v0.2h-43.11v-0.2H-21.86 M-21.86,74.97h-43.11c-0.28,0-0.5,0.22-0.5,0.5v0.2
								c0,0.28,0.22,0.5,0.5,0.5h43.11c0.28,0,0.5-0.22,0.5-0.5v-0.2C-21.36,75.2-21.59,74.97-21.86,74.97L-21.86,74.97z"/>
						</g>
						<g>
							<path class="st20" d="M-64.97,66.68c-0.14,0-0.25-0.11-0.25-0.25v-0.2c0-0.14,0.11-0.25,0.25-0.25h43.11
								c0.14,0,0.25,0.11,0.25,0.25v0.2c0,0.14-0.11,0.25-0.25,0.25H-64.97z"/>
							<path class="st3" d="M-21.86,66.23v0.2h-43.11v-0.2H-21.86 M-21.86,65.73h-43.11c-0.28,0-0.5,0.22-0.5,0.5v0.2
								c0,0.28,0.22,0.5,0.5,0.5h43.11c0.28,0,0.5-0.22,0.5-0.5v-0.2C-21.36,65.96-21.59,65.73-21.86,65.73L-21.86,65.73z"/>
						</g>
						<g>
							<path class="st20" d="M-64.97,67.52c-0.14,0-0.25-0.11-0.25-0.25v-0.2c0-0.14,0.11-0.25,0.25-0.25h43.11
								c0.14,0,0.25,0.11,0.25,0.25v0.2c0,0.14-0.11,0.25-0.25,0.25H-64.97z"/>
							<path class="st3" d="M-21.86,67.07v0.2h-43.11v-0.2H-21.86 M-21.86,66.57h-43.11c-0.28,0-0.5,0.22-0.5,0.5v0.2
								c0,0.28,0.22,0.5,0.5,0.5h43.11c0.28,0,0.5-0.22,0.5-0.5v-0.2C-21.36,66.8-21.59,66.57-21.86,66.57L-21.86,66.57z"/>
						</g>
						<g>
							<path class="st20" d="M-64.97,68.36c-0.14,0-0.25-0.11-0.25-0.25v-0.2c0-0.14,0.11-0.25,0.25-0.25h43.11
								c0.14,0,0.25,0.11,0.25,0.25v0.2c0,0.14-0.11,0.25-0.25,0.25H-64.97z"/>
							<path class="st3" d="M-21.86,67.91v0.2h-43.11v-0.2H-21.86 M-21.86,67.41h-43.11c-0.28,0-0.5,0.22-0.5,0.5v0.2
								c0,0.28,0.22,0.5,0.5,0.5h43.11c0.28,0,0.5-0.22,0.5-0.5v-0.2C-21.36,67.64-21.59,67.41-21.86,67.41L-21.86,67.41z"/>
						</g>
						<g>
							<path class="st20" d="M-64.97,69.2c-0.14,0-0.25-0.11-0.25-0.25v-0.2c0-0.14,0.11-0.25,0.25-0.25h43.11
								c0.14,0,0.25,0.11,0.25,0.25v0.2c0,0.14-0.11,0.25-0.25,0.25H-64.97z"/>
							<path class="st3" d="M-21.86,68.75v0.2h-43.11v-0.2H-21.86 M-21.86,68.25h-43.11c-0.28,0-0.5,0.22-0.5,0.5v0.2
								c0,0.28,0.22,0.5,0.5,0.5h43.11c0.28,0,0.5-0.22,0.5-0.5v-0.2C-21.36,68.48-21.59,68.25-21.86,68.25L-21.86,68.25z"/>
						</g>
						<g>
							<path class="st20" d="M-64.97,70.04c-0.14,0-0.25-0.11-0.25-0.25v-0.2c0-0.14,0.11-0.25,0.25-0.25h43.11
								c0.14,0,0.25,0.11,0.25,0.25v0.2c0,0.14-0.11,0.25-0.25,0.25H-64.97z"/>
							<path class="st3" d="M-21.86,69.59v0.2h-43.11v-0.2H-21.86 M-21.86,69.09h-43.11c-0.28,0-0.5,0.22-0.5,0.5v0.2
								c0,0.28,0.22,0.5,0.5,0.5h43.11c0.28,0,0.5-0.22,0.5-0.5v-0.2C-21.36,69.32-21.59,69.09-21.86,69.09L-21.86,69.09z"/>
						</g>
						<g>
							<path class="st20" d="M-64.97,70.88c-0.14,0-0.25-0.11-0.25-0.25v-0.2c0-0.14,0.11-0.25,0.25-0.25h43.11
								c0.14,0,0.25,0.11,0.25,0.25v0.2c0,0.14-0.11,0.25-0.25,0.25H-64.97z"/>
							<path class="st3" d="M-21.86,70.43v0.2h-43.11v-0.2H-21.86 M-21.86,69.93h-43.11c-0.28,0-0.5,0.22-0.5,0.5v0.2
								c0,0.28,0.22,0.5,0.5,0.5h43.11c0.28,0,0.5-0.22,0.5-0.5v-0.2C-21.36,70.16-21.59,69.93-21.86,69.93L-21.86,69.93z"/>
						</g>
						<g>
							<path class="st20" d="M-64.97,76.76c-0.14,0-0.25-0.11-0.25-0.25v-0.2c0-0.14,0.11-0.25,0.25-0.25h43.11
								c0.14,0,0.25,0.11,0.25,0.25v0.2c0,0.14-0.11,0.25-0.25,0.25H-64.97z"/>
							<path class="st3" d="M-21.86,76.31v0.2h-43.11v-0.2H-21.86 M-21.86,75.81h-43.11c-0.28,0-0.5,0.22-0.5,0.5v0.2
								c0,0.28,0.22,0.5,0.5,0.5h43.11c0.28,0,0.5-0.22,0.5-0.5v-0.2C-21.36,76.04-21.59,75.81-21.86,75.81L-21.86,75.81z"/>
						</g>
						<g>
							<path class="st20" d="M-64.97,77.6c-0.14,0-0.25-0.11-0.25-0.25v-0.2c0-0.14,0.11-0.25,0.25-0.25h43.11
								c0.14,0,0.25,0.11,0.25,0.25v0.2c0,0.14-0.11,0.25-0.25,0.25H-64.97z"/>
							<path class="st3" d="M-21.86,77.15v0.2h-43.11v-0.2H-21.86 M-21.86,76.65h-43.11c-0.28,0-0.5,0.22-0.5,0.5v0.2
								c0,0.28,0.22,0.5,0.5,0.5h43.11c0.28,0,0.5-0.22,0.5-0.5v-0.2C-21.36,76.88-21.59,76.65-21.86,76.65L-21.86,76.65z"/>
						</g>
						<g>
							<path class="st20" d="M-64.97,78.44c-0.14,0-0.25-0.11-0.25-0.25v-0.2c0-0.14,0.11-0.25,0.25-0.25h43.11
								c0.14,0,0.25,0.11,0.25,0.25v0.2c0,0.14-0.11,0.25-0.25,0.25H-64.97z"/>
							<path class="st3" d="M-21.86,77.99v0.2h-43.11v-0.2H-21.86 M-21.86,77.49h-43.11c-0.28,0-0.5,0.22-0.5,0.5v0.2
								c0,0.28,0.22,0.5,0.5,0.5h43.11c0.28,0,0.5-0.22,0.5-0.5v-0.2C-21.36,77.72-21.59,77.49-21.86,77.49L-21.86,77.49z"/>
						</g>
						<g>
							<path class="st20" d="M-64.97,79.28c-0.14,0-0.25-0.11-0.25-0.25v-0.2c0-0.14,0.11-0.25,0.25-0.25h43.11
								c0.14,0,0.25,0.11,0.25,0.25v0.2c0,0.14-0.11,0.25-0.25,0.25H-64.97z"/>
							<path class="st3" d="M-21.86,78.83v0.2h-43.11v-0.2H-21.86 M-21.86,78.33h-43.11c-0.28,0-0.5,0.22-0.5,0.5v0.2
								c0,0.28,0.22,0.5,0.5,0.5h43.11c0.28,0,0.5-0.22,0.5-0.5v-0.2C-21.36,78.56-21.59,78.33-21.86,78.33L-21.86,78.33z"/>
						</g>
						<g>
							<path class="st20" d="M-64.97,80.12c-0.14,0-0.25-0.11-0.25-0.25v-0.2c0-0.14,0.11-0.25,0.25-0.25h43.11
								c0.14,0,0.25,0.11,0.25,0.25v0.2c0,0.14-0.11,0.25-0.25,0.25H-64.97z"/>
							<path class="st3" d="M-21.86,79.67v0.2h-43.11v-0.2H-21.86 M-21.86,79.17h-43.11c-0.28,0-0.5,0.22-0.5,0.5v0.2
								c0,0.28,0.22,0.5,0.5,0.5h43.11c0.28,0,0.5-0.22,0.5-0.5v-0.2C-21.36,79.4-21.59,79.17-21.86,79.17L-21.86,79.17z"/>
						</g>
						<g>
							<path class="st20" d="M-64.97,80.96c-0.14,0-0.25-0.11-0.25-0.25v-0.2c0-0.14,0.11-0.25,0.25-0.25h43.11
								c0.14,0,0.25,0.11,0.25,0.25v0.2c0,0.14-0.11,0.25-0.25,0.25H-64.97z"/>
							<path class="st3" d="M-21.86,80.51v0.2h-43.11v-0.2H-21.86 M-21.86,80.01h-43.11c-0.28,0-0.5,0.22-0.5,0.5v0.2
								c0,0.28,0.22,0.5,0.5,0.5h43.11c0.28,0,0.5-0.22,0.5-0.5v-0.2C-21.36,80.24-21.59,80.01-21.86,80.01L-21.86,80.01z"/>
						</g>
						<g>
							<path class="st20" d="M-64.97,81.8c-0.14,0-0.25-0.11-0.25-0.25v-0.2c0-0.14,0.11-0.25,0.25-0.25h43.11
								c0.14,0,0.25,0.11,0.25,0.25v0.2c0,0.14-0.11,0.25-0.25,0.25H-64.97z"/>
							<path class="st3" d="M-21.86,81.35v0.2h-43.11v-0.2H-21.86 M-21.86,80.85h-43.11c-0.28,0-0.5,0.22-0.5,0.5v0.2
								c0,0.28,0.22,0.5,0.5,0.5h43.11c0.28,0,0.5-0.22,0.5-0.5v-0.2C-21.36,81.08-21.59,80.85-21.86,80.85L-21.86,80.85z"/>
						</g>
						<g>
							<path class="st20" d="M-64.97,82.64c-0.14,0-0.25-0.11-0.25-0.25v-0.2c0-0.14,0.11-0.25,0.25-0.25h43.11
								c0.14,0,0.25,0.11,0.25,0.25v0.2c0,0.14-0.11,0.25-0.25,0.25H-64.97z"/>
							<path class="st3" d="M-21.86,82.19v0.2h-43.11v-0.2H-21.86 M-21.86,81.69h-43.11c-0.28,0-0.5,0.22-0.5,0.5v0.2
								c0,0.28,0.22,0.5,0.5,0.5h43.11c0.28,0,0.5-0.22,0.5-0.5v-0.2C-21.36,81.92-21.59,81.69-21.86,81.69L-21.86,81.69z"/>
						</g>
						<g>
							<path class="st20" d="M-64.97,83.48c-0.14,0-0.25-0.11-0.25-0.25v-0.2c0-0.14,0.11-0.25,0.25-0.25h43.11
								c0.14,0,0.25,0.11,0.25,0.25v0.2c0,0.14-0.11,0.25-0.25,0.25H-64.97z"/>
							<path class="st3" d="M-21.86,83.03v0.2h-43.11v-0.2H-21.86 M-21.86,82.53h-43.11c-0.28,0-0.5,0.22-0.5,0.5v0.2
								c0,0.28,0.22,0.5,0.5,0.5h43.11c0.28,0,0.5-0.22,0.5-0.5v-0.2C-21.36,82.76-21.59,82.53-21.86,82.53L-21.86,82.53z"/>
						</g>
						<g>
							<path class="st20" d="M-64.97,84.32c-0.14,0-0.25-0.11-0.25-0.25v-0.2c0-0.14,0.11-0.25,0.25-0.25h43.11
								c0.14,0,0.25,0.11,0.25,0.25v0.2c0,0.14-0.11,0.25-0.25,0.25H-64.97z"/>
							<path class="st3" d="M-21.86,83.87v0.2h-43.11v-0.2H-21.86 M-21.86,83.37h-43.11c-0.28,0-0.5,0.22-0.5,0.5v0.2
								c0,0.28,0.22,0.5,0.5,0.5h43.11c0.28,0,0.5-0.22,0.5-0.5v-0.2C-21.36,83.6-21.59,83.37-21.86,83.37L-21.86,83.37z"/>
						</g>
						<g>
							<path class="st20" d="M-64.97,85.16c-0.14,0-0.25-0.11-0.25-0.25v-0.2c0-0.14,0.11-0.25,0.25-0.25h43.11
								c0.14,0,0.25,0.11,0.25,0.25v0.2c0,0.14-0.11,0.25-0.25,0.25H-64.97z"/>
							<path class="st3" d="M-21.86,84.71v0.2h-43.11v-0.2H-21.86 M-21.86,84.21h-43.11c-0.28,0-0.5,0.22-0.5,0.5v0.2
								c0,0.28,0.22,0.5,0.5,0.5h43.11c0.28,0,0.5-0.22,0.5-0.5v-0.2C-21.36,84.44-21.59,84.21-21.86,84.21L-21.86,84.21z"/>
						</g>
						<g>
							<path class="st20" d="M-64.97,86c-0.14,0-0.25-0.11-0.25-0.25v-0.2c0-0.14,0.11-0.25,0.25-0.25h43.11
								c0.14,0,0.25,0.11,0.25,0.25v0.2c0,0.14-0.11,0.25-0.25,0.25H-64.97z"/>
							<path class="st3" d="M-21.86,85.55v0.2h-43.11v-0.2H-21.86 M-21.86,85.05h-43.11c-0.28,0-0.5,0.22-0.5,0.5v0.2
								c0,0.28,0.22,0.5,0.5,0.5h43.11c0.28,0,0.5-0.22,0.5-0.5v-0.2C-21.36,85.28-21.59,85.05-21.86,85.05L-21.86,85.05z"/>
						</g>
					</g>
				</g>
				<line class="st27" x1="373.83" y1="45.76" x2="62.67" y2="59.6"/>
				<g>
					<path class="st21" d="M80.55,51.36c-0.63,1.08-1.34,3.61-0.72,4.96c0.99,2.17,1.9,3.61,3.07,3.61h7.65
						c0.99,0,1.62-1.06,1.15-1.93l-3.92-7.28L80.55,51.36z"/>
					<path class="st21" d="M78.96,48.99L78.96,48.99c0-1.02,0.46-1.98,1.24-2.62l9.01-7.36c0.6-0.49,1.36-0.76,2.14-0.76h5.99
						c1.87,0,3.39,1.52,3.39,3.39v6.04c0,0.9-0.36,1.76-0.99,2.39l-1.33,1.33c-0.64,0.64-1.5,0.99-2.39,0.99H82.34
						C80.47,52.38,78.96,50.87,78.96,48.99z"/>
				</g>
				<g class="st28">
					<path class="st20" d="M106.62,18.28c8.28-4.62,17.37-7.58,26.55-9.81c9.21-2.18,18.59-3.64,28.04-4.23
						c9.44-0.62,18.91-0.75,28.38-0.73c9.46,0.08,18.93-0.03,28.38,0.45c9.45,0.43,18.89,1.17,28.3,2.23
						c9.4,1.09,18.78,2.45,28.03,4.47c4.62,1.01,9.2,2.22,13.74,3.56l6.79,2.07c2.26,0.7,4.53,1.39,6.75,2.19
						c8.91,3.2,17.57,7.05,26.11,11.12c0.01,0.01,0.02,0.02,0.01,0.03c-0.01,0.01-0.02,0.02-0.03,0.01
						c-8.57-4-17.27-7.76-26.18-10.9c-2.22-0.8-4.48-1.47-6.75-2.17l-6.79-2.04c-4.54-1.33-9.11-2.52-13.73-3.52
						c-18.5-3.89-37.4-5.59-56.27-6.58c-9.44-0.5-18.9-0.42-28.36-0.53c-9.46-0.05-18.92,0.05-28.35,0.64
						c-9.43,0.57-18.81,1.99-28.02,4.12c-9.18,2.18-18.27,5.1-26.57,9.67c-0.01,0.01-0.03,0-0.03-0.01
						C106.61,18.3,106.61,18.29,106.62,18.28z"/>
				</g>
				<g class="st28">
					<path class="st20" d="M-42.22,62.32c7.06-3.21,14.49-5.53,21.98-7.5c3.75-0.97,7.53-1.83,11.33-2.61
						c3.79-0.78,7.59-1.55,11.42-2.19c7.64-1.28,15.36-2.11,23.09-2.67l23.17-1.89c0.01,0,0.03,0.01,0.03,0.02
						c0,0.01-0.01,0.03-0.02,0.03l-11.57,1.16L25.62,47.7c-7.72,0.61-15.42,1.49-23.03,2.82c-3.82,0.62-7.62,1.35-11.41,2.11
						c-3.8,0.75-7.57,1.58-11.33,2.53c-3.75,0.94-7.47,2.02-11.15,3.2c-3.69,1.17-7.34,2.45-10.89,4.01c-0.01,0.01-0.03,0-0.03-0.01
						C-42.24,62.34-42.24,62.33-42.22,62.32z"/>
				</g>
			</g>
		</g>
		<g>
			
				<linearGradient id="SVGID_11_" gradientUnits="userSpaceOnUse" x1="-2575.2268" y1="-3121.0386" x2="-2483.5625" y2="-3121.0386" gradientTransform="matrix(-0.8495 -4.203298e-03 -4.203298e-03 -1.9391 -2044.6932 -5965.3101)">
				<stop  offset="0" style="stop-color:#FFFFFF"/>
				<stop  offset="0.519" style="stop-color:#9B9B9B"/>
				<stop  offset="1" style="stop-color:#FFFFFF"/>
			</linearGradient>
			<path class="st29" d="M78.26,97.45c0,0.53,17.44,0.89,38.94,0.81s38.93-1.11,38.93-1.11s-17.44-0.89-38.94-0.81
				S78.26,96.93,78.26,97.45z"/>
			
				<linearGradient id="SVGID_12_" gradientUnits="userSpaceOnUse" x1="-2571.2166" y1="-3120.2432" x2="-2479.5522" y2="-3120.2432" gradientTransform="matrix(-0.8495 -4.203298e-03 -4.203298e-03 -1.9391 -2044.6932 -5965.3101)">
				<stop  offset="0" style="stop-color:#FFFFFF"/>
				<stop  offset="0.519" style="stop-color:#9B9B9B"/>
				<stop  offset="1" style="stop-color:#FFFFFF"/>
			</linearGradient>
			<path class="st30" d="M74.85,95.9c0,0.62,17.44,1.06,38.94,0.98c21.5-0.08,38.93-1.28,38.93-1.28s-17.44-1.06-38.94-0.98
				S74.85,95.27,74.85,95.9z"/>
			
				<linearGradient id="SVGID_13_" gradientUnits="userSpaceOnUse" x1="-2570.6101" y1="-3117.8362" x2="-2478.9458" y2="-3117.8362" gradientTransform="matrix(-0.8495 -4.203298e-03 -4.203298e-03 -1.9391 -2044.6932 -5965.3101)">
				<stop  offset="0" style="stop-color:#FFFFFF"/>
				<stop  offset="0.519" style="stop-color:#9B9B9B"/>
				<stop  offset="1" style="stop-color:#FFFFFF"/>
			</linearGradient>
			<path class="st31" d="M74.33,91.23c0,0.62,17.44,1.06,38.94,0.98c21.5-0.08,38.93-1.28,38.93-1.28s-17.44-1.06-38.94-0.98
				C91.75,90.03,74.32,90.6,74.33,91.23z"/>
			
				<linearGradient id="SVGID_14_" gradientUnits="userSpaceOnUse" x1="-2567.7183" y1="-3115.416" x2="-2497.1772" y2="-3115.416" gradientTransform="matrix(-0.8495 -4.203298e-03 -4.203298e-03 -1.9391 -2044.6932 -5965.3101)">
				<stop  offset="0" style="stop-color:#FFFFFF"/>
				<stop  offset="0.519" style="stop-color:#9B9B9B"/>
				<stop  offset="1" style="stop-color:#FFFFFF"/>
			</linearGradient>
			<path class="st32" d="M89.8,86.53c0,0.36,13.42,0.61,29.96,0.54c16.55-0.06,29.96-0.78,29.96-0.78s-13.42-0.61-29.96-0.54
				C103.21,85.82,89.8,86.17,89.8,86.53z"/>
		</g>
		<g>
			<g>
				<path class="st33" d="M165.11,138.68h-6.37c-0.38,0-0.75,0.08-1.09,0.24l-18.07,8.47c-0.9,0.43-1.48,1.33-1.48,2.32l0,0
					c0,1.42,1.15,2.56,2.56,2.56h25.02c1.49,0,2.67-1.25,2.56-2.74l-0.58-8.47C167.58,139.72,166.47,138.68,165.11,138.68z"/>
				<path class="st33" d="M234.77,131.24l2.06,6.03c0.12,0.35,0.33,0.68,0.59,0.96l7.83,7.04l0.9,6.61c0.13,0.98,0.83,1.8,1.77,2.1
					l0,0c1.36,0.43,2.8-0.33,3.22-1.68l1.91-6.11l-5.59-19.9c-0.48-1.4-2.05-2.11-3.42-1.53l-7.83,3.29
					C234.95,128.56,234.32,129.97,234.77,131.24z"/>
				<path class="st34" d="M126.91,91.45l-15.12,3.99c-0.96,0.25-1.23,1.5-0.43,2.11l0,0c0.27,0.2,0.61,0.29,0.94,0.23l6.25-0.58
					c1.08-0.19,1.03,7.74,4.61,6.07c3.57-1.67,7.03-4.38,7.03-4.38c0.54-0.62-1.4-3.37-2.17-3.68l-0.35-3.7
					C127.41,91.4,127.15,91.39,126.91,91.45z"/>
				<path class="st35" d="M162.26,109.62l10.59-21.28l-5.21-36.21c-1.51-8.9-14.25-7.36-12.73,3.13l4.95,30.82l-8.39,18.11
					L162.26,109.62z"/>
				<path class="st0" d="M212.04,99.41l3.48,30.15l23.2-3.32l0.73,16.58l-38.4,3.74c-3.77,0.37-7.09-2.46-7.32-6.24l-4.37-24.02
					l-20.61-0.37l0.56,26.89l-18.26-1.84l-0.33-37.21c-0.03-2.48,1.68-4.64,4.09-5.19l17.57,0.94c0-4.78-1.13-9.5-3.31-13.75
					l-13.93-27.28c-2.69-5.26,0.05-11.68,5.71-13.37l14.56-4.37c4.24-1.27,8.78,0.56,10.96,4.4l22.15,39.11
					C211.14,88.87,212.36,94.14,212.04,99.41z"/>
				<path class="st36" d="M129.32,101.65l33.83-15.13l19.28-31.09c4.57-7.79-6.18-14.8-11.76-5.79l-16.01,26.79l-30.11,14.11
					L129.32,101.65z"/>
				<ellipse class="st34" cx="174.03" cy="31.58" rx="3.27" ry="4.43"/>
				<path class="st34" d="M157.23,21.08c-4.15,1.11-4.66,13.06-4.66,18.2c3.74-0.46,3.74-0.46,3.74-0.46s0,4.66,3.74,6.53
					c4.66,2.33,13.53-0.42,14-7c0.46-6.53-0.38-13.13-4.66-16.8C166.1,18.75,164.23,19.22,157.23,21.08z"/>
				<g>
					<path class="st35" d="M170.5,25.54c0,0-22.6,7.68-28.2,6.27C138.2,30.79,154.36,23,170.5,25.54z"/>
					<polygon class="st37" points="172.57,26.33 171.63,34.8 167.41,26.01 					"/>
					<path class="st35" d="M174.5,27.38c0-6.32-5.12-11.44-11.44-11.44s-11.44,5.12-11.44,11.44"/>
				</g>
				
					<ellipse transform="matrix(0.9151 -0.4032 0.4032 0.9151 0.6435 67.1505)" class="st38" cx="159.8" cy="32.05" rx="0.7" ry="2.1"/>
				<path class="st39" d="M159.56,40.69l6.07-3.27C165.63,37.42,165.17,43.02,159.56,40.69z"/>
			</g>
			<path class="st36" d="M204.38,83.36c0,0-11.43,7.95-28.82,7.95"/>
		</g>
	</g>
</g>
</svg>
