<?xml version="1.0" encoding="utf-8"?>
<!-- Generator: Adobe Illustrator 24.0.1, SVG Export Plug-In . SVG Version: 6.00 Build 0)  -->
<svg version="1.1" id="レイヤー_1" xmlns="http://www.w3.org/2000/svg" xmlns:xlink="http://www.w3.org/1999/xlink" x="0px"
	 y="0px" viewBox="0 0 280 200" style="enable-background:new 0 0 280 200;" xml:space="preserve">
<style type="text/css">
	.st0{clip-path:url(#SVGID_2_);}
	.st1{fill:#717071;}
	.st2{fill:#261C19;}
	.st3{fill:#3C3736;}
	.st4{fill:#78C3E1;}
	.st5{fill:#2E2624;}
	.st6{fill:#3B3D40;}
	.st7{fill:#383231;}
	.st8{fill:#E7372F;}
	.st9{fill:#DDEAEC;}
	.st10{fill:#666666;}
	.st11{fill:none;}
	.st12{fill:#1D1D1D;}
	.st13{fill:#888888;}
	.st14{fill:#231815;}
	.st15{fill:#5D5F66;}
	.st16{fill:#B4B4B4;}
	.st17{clip-path:url(#SVGID_4_);}
	.st18{fill:none;stroke:#B4B4B4;stroke-width:4;stroke-miterlimit:10;}
	.st19{opacity:0.03;fill:#FFFFFF;enable-background:new    ;}
	.st20{clip-path:url(#SVGID_6_);}
	.st21{opacity:0.4;}
	.st22{fill:#040000;}
	.st23{fill:#1B151A;}
	.st24{fill:#002230;}
	.st25{opacity:0.25;fill:url(#SVGID_7_);enable-background:new    ;}
	.st26{fill:#D3E7EA;}
	.st27{fill:#5F9500;}
	.st28{fill:#FFDAB0;}
	.st29{fill:#00395B;}
	.st30{fill:#204D7E;}
	.st31{fill:#481600;}
	.st32{fill:#FFA69D;}
	.st33{fill:#FFEB6C;stroke:#FFEB6C;stroke-linecap:round;stroke-linejoin:round;stroke-miterlimit:10;}
</style>
<g>
	<g>
		<g>
			<g>
				<defs>
					<rect id="SVGID_1_" x="0" width="280" height="200"/>
				</defs>
				<clipPath id="SVGID_2_">
					<use xlink:href="#SVGID_1_"  style="overflow:visible;"/>
				</clipPath>
				<g class="st0">
					<g>
						<g>
							<g>
								<g>
									<path class="st1" d="M535.09,142.68h-19.7v-8.51h23.34c1.11,0,1.78,1.22,1.18,2.16l-3.65,5.71
										C536.01,142.44,535.56,142.68,535.09,142.68z"/>
									<polygon class="st2" points="99.73,154.49 201.31,155.07 479.02,155.07 521.11,138.08 504.28,80.78 91.03,91.22 									
										"/>
									<path class="st2" d="M358.86,159.26l-46.12-2.89v-10.21h47.59v11.7C360.34,158.66,359.67,159.3,358.86,159.26z"/>
									<path class="st2" d="M396.66,160h-22.73c-3.66,0-6.63-2.97-6.63-6.63v-4.4h35.98v4.4C403.29,157.03,400.32,160,396.66,160z
										"/>
									<path class="st3" d="M77.54,125l3.74-14.3H69.41c-0.14,0-0.26,0.1-0.28,0.24c-0.26,1.88-0.54,3.83-0.79,5.63
										c-0.67,4.74-0.59,9.56,0.22,14.28l0.69,4.01c0.02,0.13,0.14,0.23,0.28,0.23h11.19l-2.19-3.53
										C77.31,129.61,76.96,127.23,77.54,125z"/>
									<path class="st4" d="M271.34,19.43c-1.37-0.01-3.74-0.13-6.3-0.33c-8.94,3.79-17.53,8.91-30.84,16.01
										c-17.03,9.08-32.73,20.06-37.02,22.93c0,0-0.71,1.55,1.45,3.87c5.08-3.46,11.86-7.92,18.15-11.9
										c28.86-18.22,48.75-27.05,54.68-30.05C271.73,19.83,271.64,19.43,271.34,19.43z"/>
									<path class="st5" d="M194.69,58.77c-2.13,0.21-6.52,0.66-12.13,1.25l1.14,0.96c0.5,0.42,1.14,0.65,1.8,0.65h14.23
										c-1.56-1.68-2.17-2.9-2.38-3.45c-0.06-0.16-0.26-0.22-0.41-0.13C196.25,58.45,195.48,58.69,194.69,58.77z"/>
									<path class="st4" d="M521.88,36.66c-3.91-3.74-12.59-11.5-14.65-13.34c-0.26-0.23-0.31-0.61-0.12-0.9l-3.29,5.54
										c4.61,4.91,8.86,9.83,10.71,12.18c3.48,4.45,7.55,9.87,7.55,9.87h11.45C532.46,48.67,525.96,40.55,521.88,36.66z"/>
									<path class="st6" d="M198.48,58.07l-3.18-0.37c-0.08-0.01-0.16,0.02-0.22,0.07l-1.05,0.95c-0.07,0.06-0.1,0.15-0.09,0.24
										l0.31,2.47c0.02,0.16,0.17,0.27,0.33,0.24l1.14-0.2c0.14-0.02,0.24-0.15,0.23-0.29l-0.06-1.88c0-0.15,0.1-0.27,0.25-0.29
										l1.98-0.23c0.12-0.01,0.21-0.1,0.24-0.21L198.48,58.07z"/>
									<path class="st6" d="M183.7,60.49l-0.69-0.57c-0.29-0.24-0.66-0.36-1.04-0.32c-15.43,1.64-39.53,4.34-51.47,6.48
										c-12.39,2.22-27.42,5.84-35.9,7.97c-4.28,1.07-8.02,3.66-10.53,7.28c-0.4,0.57-0.82,1.18-1.25,1.8
										c-0.21,0.3,0.04,0.71,0.4,0.66c24.53-3.16,49.26-6.27,60.11-7.39c15.09-1.56,28.68-3.02,41.37-4.22
										c4.17-3.41,9.18-7.06,15.01-11.03h-14.23C184.84,61.14,184.2,60.91,183.7,60.49z"/>
									<path class="st7" d="M339.12,13.96c-11.87,0-24.25-0.77-49.78,4.39c-25.54,5.16-59.84,28.89-68.87,35.08
										c-6.05,4.15-9.43,8.88-11.71,16.74l120.3-7.89c3.89-17.52,9.49-42.43,10.81-48.32L339.12,13.96z"/>
									<path class="st6" d="M325.45,78.71c0.57-2.69,1.93-8.87,3.6-16.42l-120.3,7.89c-1.12,3.87-1.97,8.51-2.74,14.21
										c-1.62,12.06,1.03,43.59,2.78,61.54l116.15-3.42C324.51,119.23,324.11,85.06,325.45,78.71z"/>
									<path class="st7" d="M417.6,13.96h-8.14l1.32,1.98c1.76,0.06,5.11,0.18,9.23,0.33l-1.27-1.74
										C418.47,14.17,418.05,13.96,417.6,13.96z"/>
									<path class="st6" d="M426.41,39.39c1.51,2.27,1.57,5.2,0.16,7.53l-2.65,4.36c-1.9,3.12-5.2,5.13-8.85,5.36l-86.02,5.64
										c-1.68,7.55-3.04,13.73-3.6,16.42c-1.34,6.35-0.94,40.52-0.5,63.8l73.11-2.15c0,0,3.72-35.01,34-46.23l11.22-35.31
										c1.49-4.68,0.65-9.8-2.25-13.77L420,16.27c-4.12-0.15-7.46-0.27-9.23-0.33L426.41,39.39z"/>
									<path class="st6" d="M208.76,70.17c1.04-3.58,2.3-6.51,3.94-9.03h-12.98c-5.83,3.97-10.84,7.62-15.01,11.03
										C193.06,71.38,201.03,70.69,208.76,70.17z"/>
									<path class="st6" d="M493.25,17.55c-3.35-3.06-6.15-5.48-7.72-6.82c-7.85-0.68-15.77-1.28-21.88-1.54
										c-18.38-0.77-94.02-3.1-143.36,0c-29,1.82-42.49,4.51-55.25,9.92c2.57,0.2,4.93,0.32,6.3,0.33c0.29,0,0.39,0.4,0.12,0.53
										c-5.93,2.99-25.82,11.82-54.68,30.05c-6.3,3.98-11.99,7.67-17.06,11.12h12.98c1.96-3.01,4.47-5.45,7.76-7.71
										c9.03-6.19,43.34-29.92,68.87-35.08c25.54-5.16,37.92-4.39,49.78-4.39h77h1.48c15.48,0.26,45.27,1.81,58.04,2.39
										C480.02,16.54,486.55,17.01,493.25,17.55z"/>
									<path class="st5" d="M452.47,90.71c-7.88,0-14.62,1.28-20.4,3.42c-30.28,11.23-34,46.23-34,46.23l-73.11,2.15l-116.15,3.42
										l-3.68,0.11v-5.16c0,0-5.16-47.72-54.43-47.72S98.06,143.2,98.06,143.2l-26.3-1.26c-0.31-0.02-0.58-0.24-0.65-0.54
										l-0.53-2.29c-0.07-0.32-0.36-0.54-0.68-0.54h-0.65c-0.43,0-0.76,0.39-0.69,0.82l0.07,0.39c0.64,3.69,3.01,6.84,6.39,8.47
										l14.49,6.99c1.9,0.92,3.98,1.39,6.09,1.39h6.66c0.89,0,1.55-0.82,1.37-1.69c-0.65-3.09-0.99-6.28-0.99-9.56
										c0-26.15,21.76-47.36,48.6-47.36s48.6,21.2,48.6,47.36c0,4.04-0.05,7.25-0.14,9.79c-0.03,0.79,0.61,1.45,1.4,1.45h8.81
										h115.36h77.07l0,0c1-0.07,1.76-0.91,1.72-1.91c-0.11-3.02-0.13-6.69-0.13-11.31c0-18.12,10.45-33.86,25.79-41.82
										c6.8-3.53,14.57-5.53,22.81-5.53c26.84,0,48.6,21.2,48.6,47.36c0,1.46-0.01,2.8-0.02,4.05c-0.01,0.98,0.97,1.67,1.89,1.33
										l4.19-1.55v-7.89C507.18,139.33,501.61,90.71,452.47,90.71z"/>
									<path class="st5" d="M507.18,139.33v7.89l13.57-5.01c1.26-1.65,4.33-6,7.52-12.97c0.67-1.47,1.31-2.87,1.91-4.19l-25.2,4.8
										C506.73,135.43,507.18,139.33,507.18,139.33z"/>
									<path class="st6" d="M543.94,112.7v-3.27c-4.22,0.12-5.33,1.06-6.87,2.5c-0.42,0.39-0.89,1.05-1.43,1.93
										c1.31,0,2.44,0,2.97,0C540.36,113.86,543.94,112.7,543.94,112.7z"/>
									<path class="st5" d="M543.94,112.7L543.94,112.7c0,0-3.58,1.16-5.32,1.16c-0.53,0-1.66,0-2.97,0
										c-1.77,2.93-4.18,8.4-7.38,15.38c-3.19,6.97-6.26,11.32-7.52,12.97l11.28-4.16c1.74-0.64,3.34-1.59,4.74-2.8l4.29-3.71
										c0.48-0.42,0.81-0.99,0.92-1.62l2.91-16.07C545,113.24,544.54,112.7,543.94,112.7z"/>
									<path class="st7" d="M433.71,14.44c-6.05-0.23-11.67-0.41-16.11-0.49c0.45,0,0.87,0.21,1.13,0.57l1.27,1.74
										c4.75,0.17,10.52,0.39,16.11,0.6L433.71,14.44z"/>
									<path class="st7" d="M487.57,19.9c-0.5-0.51-1.16-0.81-1.87-0.84c-4.54-0.22-22.13-1.05-32.18-1.5
										c-4.03-0.18-10.57-0.44-17.4-0.69l30.41,30.65c1.58,1.59,3.73,2.49,5.97,2.49h41.52c-2.18-2.71-5.43-6.78-8.13-10.25
										C502,34.75,490.64,23.04,487.57,19.9z"/>
									<path class="st4" d="M472.5,47.2c-1.48,0-2.93-0.6-3.98-1.66l-25.4-25.6c4.46,0.17,7.9,0.32,10.28,0.42
										c10.26,0.46,28.6,1.33,32.17,1.5c6.78,6.95,15.11,15.76,18.1,19.61c1.43,1.84,3.01,3.84,4.51,5.73H472.5z"/>
									<path class="st7" d="M514.53,40.14c-2.81-3.6-11.22-13.16-17.99-19.54c-1.14-1.07-2.24-2.09-3.29-3.05
										c-6.7-0.53-13.23-1.01-17.61-1.2c-9.11-0.41-26.87-1.32-41.93-1.9l2.41,2.43c6.83,0.26,13.37,0.52,17.4,0.69
										c10.05,0.45,27.64,1.28,32.18,1.5c0.71,0.03,1.37,0.33,1.87,0.84c3.07,3.14,14.43,14.85,18.32,19.85
										c2.7,3.47,5.95,7.54,8.13,10.25h8.05C522.07,50.01,518.01,44.59,514.53,40.14z"/>
									<path class="st7" d="M426.41,39.39l-16.95-25.43h-69.59c-1.32,5.89-6.92,30.8-10.81,48.32l86.02-5.64
										c3.65-0.24,6.95-2.24,8.85-5.36l2.65-4.36C427.99,44.59,427.92,41.66,426.41,39.39z"/>
									<path class="st4" d="M424.08,40.95l-16.12-24.19h-63.35l-4.43,41.98l74.71-4.9c2.73-0.18,5.21-1.68,6.64-4.02l2.65-4.36
										C425.02,44.07,424.98,42.3,424.08,40.95z"/>
									<path class="st6" d="M419.35,32.14"/>
									<path class="st8" d="M509.35,62.21c-0.23,0-0.36,0.25-0.24,0.43c1.26,1.88,6.37,9.21,10.16,10.98
										c1.1,0.51,3.48,1.4,6.6,2.43l-11.39-13.81L509.35,62.21z"/>
									<path class="st9" d="M529.83,62.34l-15.35-0.1l11.39,13.81c1.62,0.54,3.45,1.12,5.39,1.72c-0.88-1.98-1.42-4.17-1.42-6.67
										C529.83,66.18,529.83,63.61,529.83,62.34z"/>
									<path class="st8" d="M538.11,79.79c0.7,0.19,1.4,0.39,2.1,0.58c0,0,0.25-0.65,0.25-2.1s0-14.7,0-14.7
										c0-0.64-0.52-1.16-1.16-1.16l-3.65-0.02c0,1.28,0,3.86,0,8.73C535.64,74.48,536.63,77.31,538.11,79.79z"/>
									<path class="st9" d="M535.64,71.1c0-4.87,0-7.45,0-8.73l-2.9-0.02c0,1.28,0,3.85,0,8.75c0,2.94,0.75,5.46,1.92,7.69
										c1.13,0.33,2.29,0.66,3.46,0.99C536.63,77.31,535.64,74.48,535.64,71.1z"/>
									<path class="st10" d="M532.74,62.36l-2.9-0.02c0,1.27,0,3.85,0,8.77c0,2.5,0.54,4.69,1.42,6.67
										c1.1,0.34,2.23,0.68,3.4,1.02c-1.17-2.24-1.92-4.75-1.92-7.69C532.74,66.21,532.74,63.63,532.74,62.36z"/>
									<path class="st6" d="M515.32,87.84l3.95-14.22c-3.79-1.77-8.89-9.1-10.16-10.98c-0.13-0.19,0.01-0.44,0.24-0.43l29.94,0.19
										c0,0-0.19-2.9-0.58-4.45c-0.33-1.32-2.92-6.04-3.67-7.38c-0.12-0.22-0.36-0.36-0.61-0.36h-0.75c0,0-0.06-0.07-0.15-0.19
										h-11.46H472.5c-2.24,0-4.39-0.89-5.97-2.49l-30.41-30.65c-5.59-0.21-11.37-0.43-16.11-0.6l21.03,28.77
										c2.9,3.97,3.74,9.08,2.25,13.77l-11.22,35.31c5.78-2.14,12.53-3.42,20.4-3.42c14.57,0,25.3,4.28,33.2,10.29l25.12-8.39
										C513,91.87,514.7,90.08,515.32,87.84z"/>
									<path class="st6" d="M540.2,80.36c-9.33-2.52-18.43-5.57-20.94-6.74l-3.95,14.22c-0.62,2.25-2.32,4.03-4.53,4.77
										L485.66,101c11.2,8.53,16.69,20.55,19.3,28.85l25.2-4.8c3.14-6.88,5.38-11.7,6.89-13.12c1.53-1.44,2.65-2.38,6.87-2.5
										v-1.17V88.13c0-1.02-0.28-2.01-0.8-2.88L540.2,80.36z"/>
									<path class="st11" d="M99.03,94.18c-0.87,0.72-1.93,1.16-3.05,1.27l-9.31,0.88c0.12,0.2,0.26,0.38,0.42,0.53
										c1.56,1.34,13.13,0.45,19.74-8.38c-0.84,0.2-1.62,0.58-2.29,1.13L99.03,94.18z"/>
									<path class="st9" d="M123.62,78.68c-3.95,0.48-8.23,1.01-12.7,1.57c-2.22,0.28-4.49,0.56-6.8,0.86
										c-3.24,0.41-6.54,0.83-9.88,1.26c-3.43,0.44-6.9,0.88-10.37,1.33c-0.19,0.02-5.4,5.7-7.27,8.39
										c0.41,1.29,0.55,2.66,0.6,3.66c0.04,0.8,0.73,1.41,1.53,1.33l7.95-0.75l5.37-0.51l3.94-0.37c1.12-0.11,2.18-0.55,3.05-1.27
										l5.52-4.58c0.66-0.55,1.45-0.93,2.29-1.13c0.06-0.01,0.12-0.04,0.18-0.05l5.42-1.1l6.47-1.31
										c0.69-0.14,1.33-0.45,1.87-0.91l8.44-7.11C127.45,78.21,125.57,78.44,123.62,78.68z"/>
									<path class="st8" d="M123.62,78.68c-1.75,1.63-5.85,5.25-11.18,8.65l6.47-1.31c0.69-0.14,1.33-0.45,1.87-0.91l8.44-7.11
										C127.45,78.21,125.57,78.44,123.62,78.68z"/>
									<path class="st7" d="M90.78,115.84c-0.07-0.54-0.29-1.06-0.66-1.48l-1.9-2.2c-0.8-0.92-1.96-1.45-3.18-1.45h-4.25
										l-1.34,5.14L77.32,124l-0.27,1.02c-0.58,2.23-0.23,4.6,0.99,6.56l2.19,3.53h2.36c1.9,0,3.56-1.27,4.06-3.11l2.16-8
										l1.91-7.08C90.81,116.55,90.83,116.19,90.78,115.84z"/>
									<path class="st6" d="M208.8,145.93c-1.75-17.95-4.4-49.48-2.78-61.54c0.77-5.71,1.62-10.34,2.74-14.21
										c-19.5,1.31-40.42,3.64-65.42,6.22c-3.45,0.36-8.31,0.91-14.11,1.61l-8.44,7.11c-0.54,0.45-1.18,0.77-1.87,0.91
										l-11.88,2.41c-0.91,0.18-1.75,0.59-2.46,1.18l-5.52,4.58c-0.87,0.72-1.93,1.16-3.05,1.27L78.74,97.1
										c-0.8,0.08-1.49-0.52-1.53-1.32c-0.05-1-0.19-2.37-0.6-3.67c-2.26,3.25-4.3,6.2-5.51,7.94c-0.75,1.08-1.23,2.32-1.42,3.62
										c-0.21,1.53-0.53,3.79-0.88,6.25c-0.06,0.42,0.27,0.8,0.69,0.8h15.56c1.22,0,2.38,0.53,3.18,1.45l1.9,2.2
										c0.6,0.7,0.83,1.65,0.59,2.55l-4.07,15.09c-0.5,1.83-2.16,3.11-4.06,3.11H69.64c-0.43,0-0.76,0.39-0.69,0.82l0.46,2.64h0.5
										c0.33,0,0.61,0.23,0.68,0.54l0.53,2.29c0.07,0.31,0.34,0.53,0.65,0.54l26.3,1.26c0,0,3.35-50.04,52.62-50.04
										s54.43,47.72,54.43,47.72v5.16L208.8,145.93z"/>
									<path class="st5" d="M502.77,26.85c0.35,0.37,0.7,0.74,1.05,1.11l3.29-5.54l2.32-3.65c0.04-0.06,0.11-0.11,0.18-0.12
										l-3.41,0.6L502.77,26.85z"/>
									<path class="st7" d="M515.92,13.73c-3.57-0.39-16.89-1.82-30.4-3c2.07,1.76,6.25,5.38,11.01,9.87
										c2,1.88,4.14,4.05,6.24,6.25l3.44-7.6l3.41-0.6l5.32-1.06c0.23-0.05,0.42-0.2,0.51-0.42l1.04-2.47
										C516.67,14.26,516.39,13.78,515.92,13.73z"/>
									<g>
										<g>
											<circle class="st12" cx="150.91" cy="150.83" r="42.87"/>
											<circle class="st13" cx="150.91" cy="150.83" r="27.24"/>
											<circle class="st14" cx="150.91" cy="150.83" r="26"/>
											<circle class="st15" cx="150.91" cy="150.83" r="20"/>
											<polygon class="st16" points="135.28,151.62 142.91,147.94 143.84,137.52 150.46,142.23 158.77,138.09 158.35,147.94 
												167.63,151.11 159.35,155.28 159.22,164.24 151.13,160.46 143.62,164.36 143.91,156.29 											"/>
											<g>
												<defs>
													<circle id="SVGID_3_" cx="150.91" cy="150.83" r="26.27"/>
												</defs>
												<clipPath id="SVGID_4_">
													<use xlink:href="#SVGID_3_"  style="overflow:visible;"/>
												</clipPath>
												<g class="st17">
													<path class="st18" d="M142.82,125c0,0,0.45,8.53,1.8,11.23c1.35,2.69,6.29,6.26,6.29,6.26s4.94-3.56,6.29-6.26
														c1.35-2.69,1.8-11.23,1.8-11.23"/>
													<path class="st18" d="M124.5,144.92c0,0,7.61,3.88,10.62,4.06c3.01,0.18,8.56-2.32,8.56-2.32s-0.61-6.06-2.27-8.57
														c-1.66-2.51-8.83-7.17-8.83-7.17"/>
													<path class="st18" d="M132.58,170.74c0,0,7.17-4.66,8.83-7.17c1.66-2.51,2.27-8.57,2.27-8.57s-5.55-2.5-8.56-2.32
														c-3.01,0.18-10.62,4.06-10.62,4.06"/>
													<path class="st18" d="M158.99,176.65c0,0-0.45-8.53-1.8-11.23c-1.35-2.69-6.29-6.26-6.29-6.26s-4.94,3.56-6.29,6.26
														c-1.35,2.69-1.8,11.23-1.8,11.23"/>
													<path class="st18" d="M177.31,156.74c0,0-7.61-3.88-10.62-4.06c-3.01-0.18-8.56,2.32-8.56,2.32s0.61,6.06,2.27,8.57
														c1.66,2.51,8.83,7.17,8.83,7.17"/>
													<path class="st18" d="M169.23,130.91c0,0-7.17,4.66-8.83,7.17c-1.66,2.51-2.27,8.57-2.27,8.57s5.55,2.5,8.56,2.32
														c3.01-0.18,10.62-4.06,10.62-4.06"/>
												</g>
											</g>
											<circle class="st15" cx="150.91" cy="150.83" r="6.16"/>
											<path class="st19" d="M150.91,113.77c20.56,0,37.28,16.4,37.82,36.83c0.01-0.34,0.03-0.68,0.03-1.02
												c0-20.9-16.94-37.85-37.85-37.85c-20.9,0-37.85,16.94-37.85,37.85c0,0.34,0.02,0.68,0.03,1.02
												C113.62,130.16,130.35,113.77,150.91,113.77z"/>
										</g>
									</g>
									<g>
										<g>
											<circle class="st12" cx="452.62" cy="150.83" r="42.87"/>
											<circle class="st13" cx="452.62" cy="150.83" r="27.24"/>
											<circle class="st14" cx="452.62" cy="150.83" r="26"/>
											<circle class="st15" cx="452.62" cy="150.83" r="20"/>
											<polygon class="st16" points="437,151.62 445.62,147.94 446.56,137.52 452.17,142.23 460.48,139.09 460.07,147.94 
												468.34,152.11 460.07,156.28 460.93,164.24 452.85,160.46 446.34,165.36 445.62,156.29 											"/>
											<g>
												<defs>
													<circle id="SVGID_5_" cx="452.62" cy="150.83" r="26.27"/>
												</defs>
												<clipPath id="SVGID_6_">
													<use xlink:href="#SVGID_5_"  style="overflow:visible;"/>
												</clipPath>
												<g class="st20">
													<path class="st18" d="M444.54,125c0,0,0.45,8.53,1.8,11.23c1.35,2.69,6.29,6.26,6.29,6.26s4.94-3.56,6.29-6.26
														c1.35-2.69,1.8-11.23,1.8-11.23"/>
													<path class="st18" d="M426.22,144.92c0,0,7.61,3.88,10.62,4.06c3.01,0.18,8.56-2.32,8.56-2.32s-0.61-6.06-2.27-8.57
														c-1.66-2.51-8.83-7.17-8.83-7.17"/>
													<path class="st18" d="M434.3,170.74c0,0,7.17-4.66,8.83-7.17c1.66-2.51,2.27-8.57,2.27-8.57s-5.55-2.5-8.56-2.32
														c-3.01,0.18-10.62,4.06-10.62,4.06"/>
													<path class="st18" d="M460.71,176.65c0,0-0.45-8.53-1.8-11.23c-1.35-2.69-6.29-6.26-6.29-6.26s-4.94,3.56-6.29,6.26
														c-1.35,2.69-1.8,11.23-1.8,11.23"/>
													<path class="st18" d="M479.03,156.74c0,0-7.61-3.88-10.62-4.06c-3.01-0.18-8.56,2.32-8.56,2.32s0.61,6.06,2.27,8.57
														c1.66,2.51,8.83,7.17,8.83,7.17"/>
													<path class="st18" d="M470.95,130.91c0,0-7.17,4.66-8.83,7.17c-1.66,2.51-2.27,8.57-2.27,8.57s5.55,2.5,8.56,2.32
														c3.01-0.18,10.62-4.06,10.62-4.06"/>
												</g>
											</g>
											<circle class="st15" cx="452.62" cy="150.83" r="6.16"/>
											<path class="st19" d="M452.62,113.77c20.56,0,37.28,16.4,37.82,36.83c0.01-0.34,0.03-0.68,0.03-1.02
												c0-20.9-16.94-37.85-37.85-37.85c-20.9,0-37.85,16.94-37.85,37.85c0,0.34,0.02,0.68,0.03,1.02
												C415.34,130.16,432.06,113.77,452.62,113.77z"/>
										</g>
									</g>
									<g>
										<g>
											<g>
												
													<ellipse transform="matrix(0.9986 -0.0527 0.0527 0.9986 -3.5697 15.9937)" class="st6" cx="301.49" cy="75.68" rx="6.32" ry="4.39"/>
											</g>
											<g class="st21">
												
													<ellipse transform="matrix(0.9986 -0.0527 0.0527 0.9986 -3.5697 15.9937)" class="st22" cx="301.49" cy="75.68" rx="6.32" ry="4.39"/>
											</g>
										</g>
										<path class="st6" d="M316.45,76.64L290.69,78c-0.53,0.03-0.99-0.38-1.02-0.92l-0.07-1.29c-0.03-0.53,0.38-0.99,0.92-1.02
											l25.76-1.36c0.53-0.03,0.99,0.38,1.02,0.92l0.07,1.29C317.39,76.16,316.98,76.62,316.45,76.64z"/>
									</g>
									<g>
										<g>
											<g>
												
													<ellipse transform="matrix(0.9986 -0.0527 0.0527 0.9986 -3.139 21.5256)" class="st6" cx="406.6" cy="70.29" rx="6.32" ry="4.39"/>
											</g>
											<g class="st21">
												
													<ellipse transform="matrix(0.9986 -0.0527 0.0527 0.9986 -3.139 21.5256)" class="st22" cx="406.6" cy="70.29" rx="6.32" ry="4.39"/>
											</g>
										</g>
										<path class="st6" d="M421.57,71.24l-25.76,1.36c-0.53,0.03-0.99-0.38-1.02-0.92l-0.07-1.29
											c-0.03-0.53,0.38-0.99,0.92-1.02l25.76-1.36c0.53-0.03,0.99,0.38,1.02,0.92l0.07,1.29
											C422.51,70.75,422.1,71.21,421.57,71.24z"/>
									</g>
									<path class="st4" d="M330.67,16.72c-9.26,0-20.81,0.34-40.78,4.37c-14.74,2.98-34.69,12.71-59.37,28.94v15.9l88.33-5.79
										c1.29-5.21,2.85-11.34,4.53-17.55c2.39-8.85,7.11-21.87,8.58-25.87C331.54,16.72,331.11,16.72,330.67,16.72z"/>
									<path class="st7" d="M222.49,55.44l-0.44,0.3c-4.48,3.07-7.28,6.44-9.28,11.36l17.76-1.16v-15.9
										C227.9,51.76,225.22,53.57,222.49,55.44z"/>
									<g>
										<path class="st7" d="M220.82,58.15c0,0-3,2.42-3.97,3.48c-0.75,0.83-1.63,2.96-1.97,3.86c-0.07,0.19,0.08,0.39,0.28,0.38
											l6.36-0.44c0.08-0.01,0.16-0.05,0.21-0.12l2.28-3.29L220.82,58.15z"/>
										<path class="st5" d="M216.97,54.67c0.48-2.03,6.85-6,8.59-6.67c1.74-0.68,7-0.95,7.93-0.48c1.93,0.97,3.87,3.19,3.87,5.51
											c0,1.74,0,8.03,0,9.38s-2.32,2.71-5.32,2.71c-1.84,0-8.54,0.35-10.35-0.29C219.88,64.19,216.49,56.7,216.97,54.67z"/>
									</g>
									<path class="st11" d="M269.73,17.44c5.16-1.81,11.61-4.39,31.99-6.45s46.43-3.07,65.52-3.33s52.62,0.52,68.87,0.77
										c16.25,0.26,42.82,2.06,49.78,2.58c6.96,0.52,28.89,3.35,28.89,3.35"/>
									<path class="st11" d="M93.96,74.42c5.16-1.29,25.8-6.45,37.92-8.51c12.12-2.06,49.53-6.19,49.53-6.19"/>
								</g>
							</g>
						</g>
					</g>
				</g>
			</g>
		</g>
	</g>
	<g>
		<g>
			<path class="st23" d="M15.3,177.59h6.13c1.62,0,3.1,0.94,3.79,2.41l3.1,6.61c0.15,0.32,0.26,0.66,0.33,1.01l0.03,0.18
				c0.48,2.57-1.5,4.95-4.11,4.95H12.62c-2.47,0-4.41-2.14-4.16-4.6l0,0c0.04-0.38,0.13-0.76,0.27-1.12l2.68-6.79
				C12.04,178.64,13.58,177.59,15.3,177.59z"/>
			<path class="st23" d="M41.7,177.59h6.86c0.41,0,0.81,0.09,1.17,0.26l19.45,9.12c0.97,0.46,1.59,1.43,1.59,2.5l0,0
				c0,1.53-1.24,2.76-2.76,2.76H41.09c-1.6,0-2.87-1.35-2.76-2.95l0.62-9.12C39.04,178.72,40.25,177.59,41.7,177.59z"/>
			<path class="st24" d="M112.58,72.77l-35.81-3.65c0,0-13.48-14.84-18.22-19.12s1.61-14.39,10.01-7.24s20.37,17.42,20.37,17.42
				l29.82,4.11L112.58,72.77z"/>
			<g>
				
					<linearGradient id="SVGID_7_" gradientUnits="userSpaceOnUse" x1="145.096" y1="628.24" x2="145.096" y2="647.24" gradientTransform="matrix(1 0 0 1 0 -566)">
					<stop  offset="0" style="stop-color:#FFFFFF;stop-opacity:0.9151"/>
					<stop  offset="1" style="stop-color:#FFFFFF;stop-opacity:0.1"/>
				</linearGradient>
				<path class="st25" d="M153.99,64.73c0,0,21.93-2.49,26-2.49c4.07,0,15.23,1.31,20.12,2.94c2.71,0.9,3.49,3.7-2.03,2.49
					c-9.27-2.03-17.52,6.71-24.19,5.43c-12.89-2.49-17.41,2.51-26.91,3.62c-9.72,1.13-17.79-0.97-31.69,0.1
					c-10.43,0.8-23.47,4.42-25.51,4.42C85.03,81.24,84.86,73.69,153.99,64.73z"/>
				<ellipse class="st26" cx="136.51" cy="75.03" rx="16.83" ry="5.34"/>
				<path d="M136.76,76.21h-0.5c-2.91,0-5.27-2.36-5.27-5.27l0,0c0-2.91,2.36-5.27,5.27-5.27h0.5c2.91,0,5.27,2.36,5.27,5.27l0,0
					C142.04,73.85,139.68,76.21,136.76,76.21z"/>
				<path class="st27" d="M119.67,62.65h12.83c5.83,0,10.55,4.72,10.55,10.55l0,0H118.7c-2.65,0-4.79-2.15-4.79-4.79l0,0
					C113.91,65.23,116.49,62.65,119.67,62.65z"/>
			</g>
			<path class="st28" d="M112.18,62.15l11.01,0.1c1.07,0.01,1.67,1.25,0.99,2.09l0,0c-0.23,0.28-0.56,0.46-0.92,0.48l-3.58,0.24
				c-1.18,0.08-1.64,1.58-0.7,2.3l5.92,4.57c0.97,0.75,0.45,2.3-0.77,2.31l-8.93,0.08c-0.27,0-0.53-0.08-0.75-0.23l-8.26-5.81
				c-0.72-0.51-0.73-1.58-0.01-2.1l5.24-3.78C111.64,62.23,111.9,62.15,112.18,62.15z"/>
			<path class="st29" d="M8.02,97.49l2.99,82.2h14.06l4.77-78.1l7.78,77.09l15.07-0.5l-2.01-80.57c0-5.14,1.22-10.22,3.56-14.8
				l14.99-29.36c2.89-5.66-0.05-12.57-6.15-14.39l-15.67-4.7c-4.56-1.37-9.45,0.6-11.79,4.74L11.79,81.19
				C8.99,86.15,7.68,91.81,8.02,97.49z"/>
			<path class="st30" d="M112.45,74.13l-39.86-1.36L40.76,49.6c-7.71-5.91,0.16-17.26,9.38-10.54l26.83,20.21l35.74,1.85
				L112.45,74.13z"/>
			<ellipse class="st28" cx="48.92" cy="24.5" rx="3.52" ry="4.77"/>
			<path class="st28" d="M67,13.2c4.47,1.19,5.02,14.06,5.02,19.59C68,32.29,68,32.29,68,32.29s0,5.02-4.02,7.03
				c-5.02,2.51-14.56-0.45-15.07-7.53c-0.5-7.03,0.41-14.13,5.02-18.08C57.46,10.68,59.47,11.19,67,13.2z"/>
			<g>
				<path class="st24" d="M52.73,18c0,0,24.32,8.26,30.35,6.75C87.49,23.64,70.09,15.26,52.73,18z"/>
				<polygon class="st31" points="50.49,18.84 51.5,27.95 56.06,18.51 				"/>
				<path class="st24" d="M48.42,19.98c0-6.8,5.51-12.31,12.31-12.31s12.31,5.51,12.31,12.31"/>
			</g>
			
				<ellipse transform="matrix(0.4032 -0.9151 0.9151 0.4032 15.4537 73.7092)" class="st11" cx="64.24" cy="25.01" rx="2.26" ry="0.75"/>
			<path class="st32" d="M64.49,34.29l-6.53-3.52C57.96,30.77,58.47,36.8,64.49,34.29z"/>
		</g>
		<path class="st30" d="M16.27,75.21c0,0,12.3,8.56,31.02,8.56"/>
		<g>
			<line class="st11" x1="137.85" y1="45.49" x2="137.85" y2="26.5"/>
			<line class="st11" x1="149.98" y1="47.82" x2="156.47" y2="29.97"/>
			<line class="st11" x1="159.28" y1="53.3" x2="174.3" y2="41.68"/>
		</g>
		<path class="st33" d="M190.54,42.19L190.54,42.19L190.54,42.19c-4.76-1.16-8.48-4.88-9.65-9.65l-1.73-7.1l-1.73,7.1
			c-1.16,4.76-4.88,8.48-9.65,9.65l0,0l0,0c4.76,1.16,8.48,4.88,9.65,9.65l1.73,7.1l1.73-7.1
			C182.05,47.08,185.77,43.36,190.54,42.19z"/>
		<path class="st33" d="M165.68,58.16L165.68,58.16L165.68,58.16c-2.72-0.66-4.84-2.78-5.5-5.5l-0.99-4.05l-0.99,4.05
			c-0.66,2.72-2.78,4.84-5.5,5.5l0,0l0,0c2.72,0.66,4.84,2.78,5.5,5.5l0.99,4.05l0.99-4.05C160.85,60.94,162.97,58.82,165.68,58.16z
			"/>
	</g>
</g>
</svg>
