<?xml version="1.0" encoding="utf-8"?>
<!-- Generator: Adobe Illustrator 24.0.3, SVG Export Plug-In . SVG Version: 6.00 Build 0)  -->
<svg version="1.1" id="レイヤー_1" xmlns="http://www.w3.org/2000/svg" xmlns:xlink="http://www.w3.org/1999/xlink" x="0px"
	 y="0px" viewBox="0 0 280 200" style="enable-background:new 0 0 280 200;" xml:space="preserve">
<style type="text/css">
	.st0{clip-path:url(#SVGID_1_);}
	.st1{fill:none;stroke:#8D8E8F;stroke-width:6;stroke-miterlimit:10;}
	.st2{fill:#CBD1D5;stroke:#8D8E8F;stroke-width:3;stroke-miterlimit:10;}
	.st3{stroke:#8D8E8F;stroke-width:3;stroke-miterlimit:10;}
	.st4{clip-path:url(#SVGID_1_);fill:#A69F82;}
	.st5{clip-path:url(#SVGID_1_);fill:#20212A;}
	.st6{fill:#2E3231;}
	.st7{fill:#3B3D40;}
	.st8{fill:#FFFFFF;}
	.st9{fill:#ADD35F;}
	.st10{fill:#8D8E8F;}
	.st11{fill:none;stroke:#8D8E8F;stroke-width:3;stroke-miterlimit:10;}
	.st12{fill:#FF827C;}
	.st13{fill:#FFF7BA;}
	.st14{fill:#6A6D72;}
	.st15{fill:#FF595A;stroke:#FFFFFF;stroke-miterlimit:10;}
	.st16{fill:#CBD1D5;stroke:#8D8E8F;stroke-linecap:round;stroke-linejoin:round;stroke-miterlimit:10;}
	.st17{stroke:#8D8E8F;stroke-miterlimit:10;}
</style>
<g>
	<defs>
		<rect id="SVGID_3_" width="280" height="200"/>
	</defs>
	<clipPath id="SVGID_1_">
		<use xlink:href="#SVGID_3_"  style="overflow:visible;"/>
	</clipPath>
	<g class="st0">
		<line class="st1" x1="0" y1="56.3" x2="280" y2="56.3"/>
		<line class="st1" x1="0" y1="31.5" x2="280" y2="31.5"/>
		<g>
			<polyline class="st1" points="0,33.9 31.1,53.9 62.2,33.9 93.3,53.9 124.4,33.9 155.5,53.9 186.7,33.9 217.8,53.9 248.9,33.9 
				280,53.9 			"/>
		</g>
		<g>
			<g>
				<g>
					<rect x="52.3" y="7.9" class="st2" width="23.5" height="23.5"/>
					<circle class="st3" cx="64.1" cy="19.6" r="4.9"/>
				</g>
				<g>
					<rect x="89.6" y="7.9" class="st2" width="23.5" height="23.5"/>
					<circle class="st3" cx="101.3" cy="19.6" r="4.9"/>
				</g>
			</g>
			<g>
				<g>
					<rect x="166.9" y="7.9" class="st2" width="23.5" height="23.5"/>
					<circle class="st3" cx="178.7" cy="19.6" r="4.9"/>
				</g>
				<g>
					<rect x="204.2" y="7.9" class="st2" width="23.5" height="23.5"/>
					<circle class="st3" cx="215.9" cy="19.6" r="4.9"/>
				</g>
			</g>
		</g>
	</g>
	<ellipse class="st4" cx="46.7" cy="201.9" rx="301" ry="46"/>
	<ellipse class="st5" cx="36.7" cy="221.9" rx="301" ry="46"/>
	<g class="st0">
		<path class="st6" d="M201,169.9h-32.6c-2.3,0-4-2.2-3.3-4.4l4.6-15.6c0.4-1.5,1.8-2.5,3.3-2.5h23.5c1.5,0,2.9,1,3.3,2.5l4.6,15.6
			C204.9,167.7,203.3,169.9,201,169.9z"/>
		<path class="st7" d="M251,153.8H118.4c-2.9,0-5.2-2.3-5.2-5.2V78.7c0-2.9,2.3-5.2,5.2-5.2H251c2.9,0,5.2,2.3,5.2,5.2v69.9
			C256.2,151.5,253.9,153.8,251,153.8z"/>
		
			<rect x="152.6" y="50.2" transform="matrix(-1.836970e-16 1 -1 -1.836970e-16 298.3368 -71.0518)" class="st8" width="64.3" height="126.9"/>
		<rect x="121.2" y="81.5" class="st9" width="36.1" height="20.9"/>
		<rect x="156.6" y="81.5" class="st10" width="2.4" height="64.3"/>
		<rect x="225.7" y="81.5" class="st10" width="2.4" height="64.3"/>
		<rect x="169.6" y="81.5" class="st10" width="11.7" height="64.3"/>
		<rect x="198.4" y="81.5" class="st10" width="2.4" height="64.3"/>
		
			<rect x="180.3" y="42.6" transform="matrix(6.123234e-17 -1 1 6.123234e-17 78.6831 290.7055)" class="st10" width="8.8" height="126.9"/>
		<rect x="121.2" y="125" class="st10" width="126.9" height="2.9"/>
		<polyline class="st11" points="121.6,141.4 219.2,92.8 219.2,81.8 		"/>
		<rect x="180.7" y="132.1" class="st12" width="67.5" height="13.7"/>
		<g>
			<rect x="121.7" y="115.9" class="st13" width="31.9" height="29.3"/>
			<path class="st14" d="M153.2,116.4v28.3h-30.9v-28.3H153.2 M154.2,115.4h-32.9v30.3h32.9V115.4L154.2,115.4z"/>
		</g>
		<g>
			<path class="st8" d="M186.7,141.4v-3.8c0-0.2,0-0.5-0.1-0.7h0.8c0,0.2-0.1,0.5-0.1,0.7v3.7c1.2-0.3,2.7-1.2,3.6-2.3l0.4,0.6
				c-0.9,1.1-2.3,1.9-3.9,2.4c-0.1,0-0.2,0.1-0.3,0.1l-0.5-0.4C186.7,141.6,186.7,141.5,186.7,141.4z"/>
			<path class="st8" d="M193.5,139.1h3.7c0.3,0,0.6,0,0.8,0v0.8c-0.1,0-0.5,0-0.8,0h-3.7c-0.4,0-0.8,0-1,0V139
				C192.8,139,193.2,139.1,193.5,139.1z"/>
			<path class="st8" d="M204.3,137.5l-0.4,0.2l0.4,0.2c-0.1,0.1-0.1,0.3-0.2,0.4c-0.2,0.6-0.5,1.3-1,2c0.3,0.2,0.6,0.4,0.8,0.6
				l-0.5,0.6c-0.2-0.2-0.4-0.4-0.7-0.6c-0.6,0.6-1.4,1.2-2.5,1.7l-0.6-0.5c1.1-0.3,1.9-0.9,2.5-1.5c-0.5-0.3-0.9-0.7-1.3-0.9
				l0.5-0.5c0.4,0.2,0.9,0.5,1.3,0.8c0.4-0.5,0.7-1.2,0.8-1.7h-2.1c-0.4,0.6-1.1,1.3-1.8,1.8l-0.6-0.4c1.2-0.7,1.8-1.7,2.1-2.3
				c0.1-0.1,0.2-0.4,0.3-0.6l0.8,0.2c-0.1,0.2-0.3,0.5-0.3,0.6c0,0,0,0.1-0.1,0.1h1.6c0.2,0,0.4,0,0.5-0.1l0,0
				c-0.1-0.3-0.3-0.6-0.5-0.8l0.4-0.2C203.9,136.8,204.2,137.2,204.3,137.5z M205.1,137.2l-0.4,0.2c-0.1-0.3-0.4-0.7-0.6-0.9
				l0.4-0.2C204.7,136.5,205,136.9,205.1,137.2z"/>
			<path class="st8" d="M206.9,139.1h3.7c0.3,0,0.6,0,0.8,0v0.8c-0.1,0-0.5,0-0.8,0h-3.7c-0.4,0-0.8,0-1,0V139
				C206.2,139,206.6,139.1,206.9,139.1z"/>
		</g>
		<polygon class="st15" points="175.3,103.8 169.6,120.5 175.3,116.6 181,120.5 		"/>
		<g>
			<path class="st8" d="M220.1,142.7c2-1.9,3.2-3.2,3.2-4.3c0-0.8-0.4-1.3-1.2-1.3c-0.6,0-1,0.4-1.4,0.8l-0.6-0.6
				c0.6-0.7,1.2-1.1,2.2-1.1c1.3,0,2.1,0.8,2.1,2.1c0,1.3-1.1,2.5-2.6,4.1c0.4,0,0.8-0.1,1.2-0.1h1.8v0.9h-4.6V142.7z"/>
			<path class="st8" d="M225.7,139.9c0-2.3,0.9-3.6,2.3-3.6c1.4,0,2.3,1.2,2.3,3.6c0,2.3-0.9,3.6-2.3,3.6
				C226.6,143.5,225.7,142.2,225.7,139.9z M229.2,139.9c0-2-0.5-2.7-1.2-2.7c-0.7,0-1.2,0.7-1.2,2.7s0.5,2.7,1.2,2.7
				C228.7,142.6,229.2,141.9,229.2,139.9z"/>
			<path class="st8" d="M231.5,135.7h1.1v4.9h0l2.1-2.6h1.2l-1.8,2.2l2,3.1H235l-1.4-2.4l-0.9,1v1.4h-1.1V135.7z"/>
			<path class="st8" d="M237.1,138.1h0.9l0.1,0.7h0c0.5-0.5,1-0.9,1.6-0.9c0.8,0,1.2,0.4,1.5,1c0.5-0.6,1.1-1,1.7-1
				c1.1,0,1.6,0.8,1.6,2.1v3.3h-1.1v-3.2c0-0.9-0.3-1.3-0.9-1.3c-0.4,0-0.8,0.2-1.2,0.7v3.8h-1.1v-3.2c0-0.9-0.3-1.3-0.9-1.3
				c-0.4,0-0.8,0.2-1.2,0.7v3.8h-1.1V138.1z"/>
		</g>
		<g>
			<g>
				<polygon class="st16" points="129.6,124.1 137.7,127.1 137.7,140.1 129.6,137.1 				"/>
				
					<ellipse transform="matrix(0.9794 -0.2019 0.2019 0.9794 -23.9235 29.7148)" class="st17" cx="133.7" cy="132.1" rx="1.6" ry="2.8"/>
			</g>
			<polygon class="st16" points="145.8,124.1 137.7,127.1 137.7,140.1 145.8,137.1 			"/>
			<polygon class="st16" points="145.8,124.1 137.7,121.1 129.6,124.1 137.7,127.1 			"/>
		</g>
	</g>
</g>
</svg>
