<?xml version="1.0" encoding="utf-8"?>
<!-- Generator: Adobe Illustrator 24.0.1, SVG Export Plug-In . SVG Version: 6.00 Build 0)  -->
<svg version="1.1" id="レイヤー_1" xmlns="http://www.w3.org/2000/svg" xmlns:xlink="http://www.w3.org/1999/xlink" x="0px"
	 y="0px" viewBox="0 0 240 200" style="enable-background:new 0 0 240 200;" xml:space="preserve">
<style type="text/css">
	.st0{fill:none;}
	.st1{fill:#00395B;}
	.st2{fill:#FFFFFF;}
	.st3{fill:#535353;}
	.st4{fill:#D0A867;}
</style>
<g>
	<rect y="-0.22" class="st0" width="240" height="200"/>
	<g>
		<circle class="st1" cx="27" cy="24.78" r="20"/>
		<g>
			<path class="st2" d="M27.83,34.92v-4.17h-8.96v-3l8.96-13.13h3.56v12.96h2.54v3.18h-2.54v4.17H27.83z M22.43,27.56h5.4v-8.02
				L22.43,27.56z"/>
		</g>
	</g>
</g>
<g>
	<g>
		<path class="st3" d="M60.18,175.97h-4.13v1.85h-1.16v-2.75h5.29v-0.71h-4.44v-0.99h10.2v0.99h-4.5v0.71h5.39v2.75h-1.21v-1.85
			h-4.19v3.07h-1.26V175.97z M65.31,184.57c0.7,0,0.84-0.24,0.92-1.54c0.27,0.2,0.76,0.38,1.11,0.42c-0.17,1.7-0.55,2.13-1.96,2.13
			h-3.07c-1.72,0-2.2-0.32-2.2-1.58v-0.27h-2.75v0.67h-1.25v-4.94h9.5v4.27h-4.26v0.27c0,0.49,0.17,0.57,1.04,0.57H65.31z
			 M56.43,178h3.14v0.76h-3.14V178z M59.55,176.6v0.76h-2.84v-0.76H59.55z M57.37,180.36v0.83h2.75v-0.83H57.37z M60.11,182.8V182
			h-2.75v0.8H60.11z M64.34,180.36h-2.98v0.83h2.98V180.36z M64.34,182.8V182h-2.98v0.8H64.34z M64.96,176.6v0.76h-2.87v-0.76H64.96
			z M62.09,178h3.22v0.76h-3.22V178z"/>
		<path class="st3" d="M81.9,180.25h-5.65v3.82c0,0.8-0.2,1.18-0.78,1.4c-0.57,0.2-1.51,0.24-2.82,0.22
			c-0.08-0.38-0.34-0.97-0.56-1.34c1.05,0.04,2.1,0.03,2.42,0.03c0.29-0.01,0.38-0.08,0.38-0.32v-3.81h-5.66v-1.3h5.66v-2.23h0.76
			c0.85-0.48,1.75-1.11,2.46-1.71h-7.44v-1.28h8.81l0.29-0.08l0.98,0.74c-1.19,1.22-2.94,2.52-4.51,3.39v1.16h5.65V180.25z"/>
		<path class="st3" d="M91.37,182.02c0.92,1.5,2.66,2.21,5.39,2.44c-0.29,0.29-0.64,0.85-0.8,1.23c-2.72-0.34-4.43-1.18-5.5-2.89
			c-0.6,1.18-2.16,2.3-5.9,2.89c-0.15-0.31-0.49-0.81-0.76-1.09c3.85-0.59,5.14-1.61,5.53-2.58h-5.18v-1.12h5.34v-0.92h1.33v0.92
			h5.56v1.12H91.37z M83.99,178.63c0.69-0.07,1.54-0.17,2.48-0.27v-1.4h-2.03v-1.01h2.03v-1.11h-2.23v-1.01h2.23v-1.02h1.22v1.02
			h2.1v1.01h-2.1v1.11h1.93v1.01h-1.93v1.25l2.16-0.27l0.03,0.8c1.57-0.85,1.93-2.24,2.06-4.22h-1.82v-1.11h6.18
			c0,0,0,0.36-0.01,0.52c-0.14,3.42-0.28,4.71-0.64,5.16c-0.24,0.31-0.5,0.42-0.9,0.46c-0.34,0.04-0.92,0.04-1.53,0.03
			c-0.03-0.35-0.15-0.87-0.35-1.16c0.55,0.06,1.05,0.06,1.26,0.06c0.21,0,0.34-0.03,0.46-0.17c0.2-0.27,0.34-1.25,0.45-3.78h-1.88
			c-0.18,2.46-0.7,4.2-2.75,5.27c-0.11-0.24-0.38-0.59-0.6-0.81c-2.05,0.29-4.16,0.56-5.69,0.76L83.99,178.63z"/>
		<path class="st3" d="M100.26,181.02c-0.18,1.32-0.5,2.68-0.94,3.57c-0.21-0.15-0.73-0.39-0.99-0.49c0.42-0.84,0.69-2.07,0.83-3.28
			L100.26,181.02z M102.85,177.28c0.57,0.91,1.15,2.1,1.34,2.87l-0.99,0.48c-0.06-0.22-0.14-0.49-0.25-0.78l-1.04,0.07v5.77h-1.16
			v-5.7c-0.8,0.04-1.54,0.08-2.19,0.13l-0.11-1.15l0.98-0.03c0.27-0.34,0.53-0.7,0.81-1.09c-0.43-0.62-1.15-1.37-1.76-1.96
			l0.63-0.87c0.13,0.11,0.25,0.22,0.38,0.34c0.43-0.77,0.9-1.78,1.15-2.54l1.18,0.42c-0.5,0.95-1.09,2.06-1.6,2.82
			c0.27,0.28,0.5,0.56,0.69,0.81c0.55-0.84,1.05-1.71,1.42-2.44l1.11,0.48c-0.8,1.27-1.85,2.82-2.79,3.98l1.86-0.07
			c-0.18-0.39-0.38-0.77-0.59-1.12L102.85,177.28z M103.2,180.76c0.38,0.84,0.76,1.93,0.91,2.65l-1.04,0.36
			c-0.13-0.73-0.5-1.83-0.85-2.69L103.2,180.76z M111.1,175.88c-0.24,6.18-0.42,8.36-1.01,9.08c-0.34,0.46-0.69,0.59-1.23,0.64
			c-0.48,0.07-1.33,0.06-2.16,0.01c-0.03-0.38-0.18-0.94-0.43-1.3c0.91,0.07,1.75,0.08,2.09,0.08c0.29,0,0.45-0.06,0.6-0.24
			c0.45-0.45,0.67-2.52,0.85-7.66h-4.27c-0.38,0.71-0.8,1.36-1.23,1.88c-0.25-0.22-0.84-0.6-1.15-0.78
			c1.06-1.13,1.93-2.96,2.42-4.79l1.33,0.31c-0.21,0.73-0.48,1.46-0.77,2.14h4.96V175.88z M106.8,182.12
			c-0.28-0.85-1.05-2.21-1.79-3.22l1.05-0.52c0.76,0.95,1.58,2.28,1.89,3.15L106.8,182.12z"/>
		<path class="st3" d="M114.4,179.58c0.71-0.71,1.83-2.24,2.69-3.25c0.88-1.02,1.7-1.13,2.66-0.17c0.88,0.88,1.97,2.3,2.84,3.22
			c0.87,0.95,2.19,2.34,3.47,3.49l-1.13,1.3c-1.04-0.98-2.28-2.37-3.21-3.45c-0.9-1.02-1.95-2.37-2.61-3.11
			c-0.55-0.6-0.81-0.5-1.26,0.04c-0.62,0.77-1.69,2.25-2.37,3.08c-0.29,0.42-0.62,0.87-0.85,1.19l-1.32-1.36
			C113.7,180.29,114.01,179.99,114.4,179.58z"/>
		<path class="st3" d="M134.9,185.1l-0.83-1.32c0.48-0.04,0.9-0.11,1.25-0.2c1.79-0.41,3.39-1.72,3.39-3.98
			c0-2.03-1.23-3.64-3.39-3.91c-0.2,1.26-0.43,2.62-0.84,3.94c-0.84,2.86-2,4.44-3.39,4.44s-2.66-1.54-2.66-3.88
			c0-3.14,2.75-5.83,6.26-5.83c3.36,0,5.49,2.35,5.49,5.28C140.18,182.59,138.3,184.61,134.9,185.1z M131.13,182.41
			c0.63,0,1.29-0.91,1.93-3.07c0.35-1.11,0.6-2.38,0.77-3.61c-2.52,0.41-3.99,2.59-3.99,4.33
			C129.84,181.67,130.53,182.41,131.13,182.41z"/>
		<path class="st3" d="M148.21,185.32l-1.19-1.12c2.62-0.97,3.85-2.17,3.85-5.88v-0.56h-3.7v2.1c0,0.58,0.04,1.16,0.07,1.36h-1.56
			c0.01-0.2,0.07-0.77,0.07-1.36v-2.1h-1.37c-0.66,0-1.23,0.03-1.46,0.06v-1.53c0.18,0.04,0.81,0.11,1.46,0.11h1.37v-1.61
			c0-0.35-0.03-0.76-0.08-1.12h1.58c-0.03,0.18-0.08,0.6-0.08,1.12v1.61h3.7v-1.62c0-0.56-0.04-1.02-0.07-1.22h1.58
			c-0.03,0.21-0.08,0.66-0.08,1.22v1.62h1.32c0.69,0,1.13-0.04,1.4-0.08v1.48c-0.22-0.03-0.71-0.04-1.39-0.04h-1.33v0.48
			C152.3,181.85,151.49,183.85,148.21,185.32z"/>
		<path class="st3" d="M163.92,176.76c1.46-0.9,2.94-2.2,3.89-3.33l1.18,1.12c-1.06,1.08-2.38,2.16-3.77,3.07v5.81
			c0,0.57,0.03,1.34,0.1,1.65h-1.74c0.04-0.31,0.08-1.08,0.08-1.65v-4.87c-1.47,0.8-3.32,1.61-5.17,2.17l-0.69-1.39
			C160.27,178.68,162.37,177.73,163.92,176.76z"/>
		<path class="st3" d="M178.78,181.54c2.25-1.39,4.01-3.49,4.86-5.28l0.85,1.53c-1.01,1.82-2.73,3.73-4.92,5.07
			c-1.41,0.87-3.19,1.7-5.36,2.09l-0.94-1.44C175.61,183.15,177.43,182.37,178.78,181.54z M178.3,177.06l-1.11,1.13
			c-0.73-0.74-2.47-2.27-3.5-2.97l1.02-1.09C175.69,174.79,177.51,176.25,178.3,177.06z"/>
	</g>
</g>
<g>
	<path class="st4" d="M172.74,82.86l-15.86,13.82l-0.07,1.39c-0.05,0.78-0.31,1.9-0.75,3.06c-0.24,0.61-0.52,1.21-0.82,1.82
		l-17.99-15.52c-0.7-0.61-1.64-0.88-2.55-0.77c-0.16,0.03-13.36,1.69-26.51,7.23c-1.31,0.56-2.29,0.72-2.94,0.72
		c-0.54,0-0.85-0.1-1.1-0.21c-0.36-0.18-0.61-0.41-0.85-0.88c-0.25-0.46-0.41-1.13-0.41-1.85c0-1.01,0.36-2.04,0.77-2.55
		c0.51-0.65,1.13-1.55,1.98-2.72c1.28-1.72,3.01-3.94,5.07-6.12c2.06-2.18,4.45-4.27,6.95-5.74c3.38-1.99,6.28-2.49,9.01-2.5
		c1.69,0,3.3,0.21,4.89,0.44c1.57,0.23,3.09,0.52,4.74,0.52c1.05,0,2.16-0.11,3.32-0.59h0.02c1.8-0.77,3.56-1.9,5.35-3.17
		c2.65-1.93,5.27-4.2,7.26-6.02c0.39-0.34,0.75-0.69,1.08-1l-4.46-4.76c-0.98,0.92-2.26,2.06-3.63,3.22
		c-1.41,1.21-2.93,2.44-4.37,3.45c-1.44,1.03-2.81,1.85-3.75,2.22c-0.05,0.03-0.31,0.1-0.82,0.1c-0.78,0.02-2.13-0.2-3.78-0.44
		c-1.65-0.24-3.63-0.52-5.86-0.52c-1.93-0.02-4.07,0.23-6.33,0.85c-2.24-0.62-4.38-0.85-6.33-0.85c-2.22,0-4.19,0.28-5.84,0.52
		c-1.65,0.25-2.99,0.46-3.79,0.44c-0.49,0-0.75-0.07-0.8-0.1c-1-0.39-2.49-1.31-4.02-2.42c-2.34-1.69-4.83-3.84-6.7-5.56
		c-0.51-0.46-0.97-0.88-1.38-1.26l-4.48,4.76c0.96,0.9,2.22,2.06,3.63,3.29c1.57,1.34,3.32,2.78,5.09,4.07
		c1.78,1.28,3.55,2.41,5.35,3.17c1.16,0.47,2.29,0.59,3.32,0.59c1.65,0,3.19-0.28,4.76-0.52c0.11-0.02,0.21-0.02,0.31-0.03
		c-2.18,1.87-4.07,3.89-5.67,5.77c-1.36,1.59-2.49,3.07-3.4,4.3c-0.88,1.21-1.57,2.19-1.88,2.58c-1.49,1.93-2.13,4.25-2.14,6.56
		c0.02,2.16,0.59,4.42,2.08,6.31c0.74,0.93,1.72,1.77,2.9,2.32c1.18,0.56,2.53,0.85,3.92,0.85c1.75,0,3.57-0.43,5.5-1.24
		c6.05-2.55,12.3-4.27,16.99-5.32c2.36-0.52,4.32-0.88,5.69-1.11c0.26-0.05,0.47-0.08,0.69-0.11l20.56,17.71v0.02h0.02
		c0,0.07-0.03,0.24-0.18,0.52c-0.24,0.46-0.78,1.06-1.47,1.49c-0.69,0.42-1.49,0.67-2.24,0.67c-0.28,0-0.54,0.05-0.8,0.1
		c-0.46-0.1-0.93-0.23-1.39-0.42c-1.42-0.56-2.75-1.44-3.68-2.21c-0.47-0.38-0.85-0.72-1.1-0.96l-0.28-0.26l-0.07-0.07v-0.02
		c-0.49-0.52-1.16-0.79-1.82-0.79c-0.59,0-1.18,0.21-1.65,0.64c-1,0.92-1.06,2.47-0.15,3.47c0.08,0.1,1.31,1.44,3.33,2.83
		c1,0.69,2.22,1.39,3.62,1.95c0.31,0.11,0.65,0.25,1,0.34c0.1,0.21,0.21,0.43,0.36,0.62h-0.02l0.02,0.02
		c0.05,0.1,0.15,0.49,0.13,0.96c0.02,0.9-0.31,2.08-0.78,2.73c-0.23,0.34-0.46,0.54-0.69,0.67c-0.25,0.13-0.47,0.21-0.92,0.23h-0.16
		c-0.08-0.02-0.18,0-0.26,0.02c-0.02,0-0.02,0-0.02,0c-2.13,0-4.1-0.92-5.56-1.91c-0.74-0.49-1.32-1-1.72-1.36
		c-0.2-0.18-0.34-0.33-0.42-0.42l-0.1-0.1l-0.02-0.02v-0.02c-0.47-0.56-1.16-0.83-1.85-0.83c-0.57,0-1.15,0.2-1.6,0.61
		c-1.03,0.88-1.14,2.44-0.24,3.45c0.08,0.11,1.23,1.41,3.19,2.75c1.29,0.88,2.99,1.8,5,2.32c-0.03,0.05-0.05,0.11-0.07,0.16
		c-0.26,0.59-0.62,1.18-1.64,1.77c-0.67,0.39-1.16,0.59-1.5,0.7c-0.34,0.1-0.52,0.11-0.77,0.11c-0.33,0-0.8-0.07-1.59-0.23
		c-0.15-0.03-0.3-0.03-0.44-0.05c-0.05-0.02-0.1-0.03-0.16-0.07c-0.8-0.39-1.8-1.08-2.54-1.67c-0.36-0.28-0.67-0.56-0.88-0.74
		l-0.24-0.23l-0.05-0.05h-0.02c-0.98-0.95-2.53-0.9-3.47,0.07c-0.93,0.98-0.9,2.53,0.08,3.47c0.05,0.05,1.08,1.05,2.53,2.08
		c0.25,0.2,0.54,0.38,0.82,0.56c-0.39,0.64-0.82,1.08-1.23,1.36c-0.65,0.46-1.36,0.67-2.27,0.67c-0.82,0-1.78-0.2-2.75-0.61
		c-0.33-0.13-0.64-0.33-0.95-0.49c0.18-0.7,0.28-1.41,0.28-2.13c0-1.47-0.39-2.98-1.23-4.32c-1.41-2.26-3.76-3.6-6.23-3.81
		c0-0.08,0.02-0.18,0.02-0.26c0-1.62-0.44-3.27-1.34-4.74c-1.69-2.72-4.61-4.24-7.59-4.24h-0.05c-0.13,0-0.25,0.02-0.36,0.02
		c-0.15-1.28-0.56-2.53-1.28-3.68c-1.39-2.24-3.61-3.65-6.02-4.09c-0.02-1.59-0.46-3.21-1.34-4.64c-1.7-2.73-4.64-4.24-7.64-4.24
		c-1.62,0-3.27,0.44-4.74,1.36l-3.14,1.95c-0.08-0.16-0.18-0.34-0.24-0.51c-0.56-1.31-0.9-2.62-0.93-3.5l-0.07-1.39L67.26,82.86
		l-4.48,4.76l14.05,12.25c0.24,1.47,0.7,2.88,1.24,4.19c0.34,0.85,0.74,1.65,1.13,2.41c-0.85,1.41-1.32,3.02-1.32,4.64
		c0,1.62,0.44,3.27,1.36,4.74c1.39,2.22,3.61,3.63,6.02,4.07c0.02,1.59,0.46,3.21,1.34,4.64c1.7,2.73,4.64,4.25,7.64,4.25
		c0.11,0,0.23-0.02,0.34-0.03c0.16,1.28,0.57,2.53,1.29,3.7c1.7,2.73,4.64,4.24,7.64,4.24c0.29,0,0.59-0.03,0.88-0.07
		c0.15,1.14,0.52,2.29,1.16,3.32c1.55,2.49,4.24,3.88,6.95,3.86c1.47,0,2.98-0.39,4.32-1.23l4.09-2.53c0.8,0.52,1.64,0.98,2.54,1.34
		c1.64,0.7,3.43,1.13,5.28,1.13c2.03,0.02,4.19-0.54,6.04-1.85c1.19-0.83,2.21-1.98,3.04-3.34c0.13,0,0.25,0.02,0.38,0.02
		c0.85,0,1.77-0.11,2.7-0.41c0.92-0.28,1.83-0.7,2.81-1.26c2.34-1.33,3.75-3.27,4.43-4.92c0.15-0.38,0.26-0.72,0.36-1.05
		c0.56-0.18,1.11-0.39,1.6-0.69c1.8-1.03,2.98-2.62,3.71-4.2c0.72-1.6,1.05-3.27,1.05-4.87c0-0.16-0.02-0.31-0.03-0.47
		c1.19-0.47,2.26-1.16,3.16-1.95c0.93-0.82,1.72-1.77,2.29-2.84c0.57-1.06,0.96-2.31,0.96-3.65c0-0.88-0.18-1.8-0.57-2.67
		c-0.11-0.28-0.3-0.52-0.47-0.79c0.7-1.24,1.41-2.63,1.98-4.14c0.44-1.15,0.8-2.34,1.01-3.58l14.05-12.27L172.74,82.86z
		 M88.31,113.08l-0.15,0.1c-0.41,0.25-0.85,0.36-1.29,0.36c-0.82,0-1.62-0.39-2.08-1.15c-0.26-0.41-0.38-0.85-0.38-1.29
		c0.02-0.82,0.41-1.6,1.16-2.08l5.38-3.35c0.42-0.24,0.85-0.36,1.29-0.36c0.83,0,1.62,0.41,2.08,1.15v0.02
		c0.26,0.41,0.38,0.83,0.38,1.28c-0.02,0.57-0.21,1.13-0.59,1.57l-4.63,2.88C89.07,112.46,88.69,112.75,88.31,113.08z M95.53,121.9
		c-0.41,0.26-0.85,0.38-1.29,0.38c-0.82,0-1.62-0.41-2.08-1.16c-0.26-0.41-0.38-0.84-0.38-1.28c0.02-0.57,0.21-1.13,0.59-1.57
		l4.63-2.88c0.43-0.26,0.8-0.57,1.16-0.88l0.16-0.1c0.42-0.26,0.85-0.38,1.29-0.38c0.83,0.02,1.62,0.41,2.08,1.16
		c0.26,0.41,0.38,0.83,0.38,1.28c-0.02,0.83-0.41,1.62-1.16,2.09L95.53,121.9z M110.18,126.46l-5.4,3.35
		c-0.41,0.25-0.84,0.36-1.28,0.36c-0.83,0-1.62-0.41-2.08-1.15c-0.26-0.42-0.38-0.85-0.38-1.29c0-0.83,0.41-1.62,1.16-2.08
		l5.38-3.35c0.41-0.24,0.85-0.36,1.29-0.36c0.82,0,1.6,0.39,2.08,1.15c0.25,0.41,0.36,0.85,0.36,1.29
		C111.32,125.2,110.93,125.99,110.18,126.46z M118,134.16l-4.63,2.88c-0.28,0.18-0.56,0.25-0.87,0.25c-0.54,0-1.08-0.26-1.39-0.77
		c-0.16-0.28-0.25-0.56-0.25-0.87c0-0.56,0.28-1.08,0.77-1.37v-0.02l4.63-2.88c0.3-0.16,0.57-0.24,0.87-0.24
		c0.56,0.02,1.08,0.28,1.39,0.78c0.18,0.28,0.25,0.56,0.25,0.85C118.77,133.33,118.5,133.85,118,134.16z"/>
	<path class="st2" d="M112.45,144.97c-3.16,0-6.17-1.68-7.87-4.4c-0.51-0.83-0.89-1.75-1.13-2.72c-3.51-0.02-6.7-1.8-8.55-4.78
		c-0.6-0.96-1.03-2.02-1.28-3.14c-3.24-0.2-6.26-1.99-7.99-4.77c-0.81-1.33-1.31-2.8-1.46-4.33c-2.44-0.68-4.55-2.24-5.89-4.39
		c-1-1.61-1.53-3.46-1.53-5.35c0-1.61,0.4-3.21,1.17-4.67c-0.27-0.55-0.6-1.23-0.89-1.95c-0.58-1.42-0.99-2.74-1.24-4.02
		L62.03,88.48c-0.23-0.2-0.38-0.5-0.39-0.81c-0.02-0.31,0.1-0.61,0.31-0.84l4.48-4.76c0.42-0.45,1.12-0.48,1.58-0.08l15.86,13.82
		c0.24,0.21,0.38,0.5,0.39,0.81l0.07,1.39c0.02,0.61,0.23,1.48,0.56,2.39l2.01-1.25c1.61-1,3.45-1.53,5.35-1.53
		c3.53,0,6.75,1.79,8.61,4.77c0.81,1.32,1.31,2.8,1.46,4.33c2.44,0.68,4.56,2.25,5.9,4.41c0.6,0.96,1.03,2.01,1.27,3.14
		c3.27,0.2,6.28,1.98,8,4.76c0.86,1.41,1.37,2.99,1.49,4.62c2.49,0.5,4.71,2.02,6.07,4.2c0.92,1.47,1.4,3.18,1.4,4.92
		c0,0.5-0.04,1.01-0.13,1.52c0.03,0.01,0.05,0.02,0.08,0.03c0.8,0.34,1.62,0.52,2.32,0.52c0.67,0,1.15-0.14,1.62-0.46
		c0.07-0.05,0.14-0.1,0.22-0.17c-1.32-0.95-2.3-1.87-2.49-2.05c-0.69-0.66-1.09-1.55-1.11-2.51c-0.02-0.96,0.33-1.87,0.99-2.57
		c1.35-1.39,3.54-1.47,4.97-0.21c0.05,0.04,0.1,0.08,0.15,0.13l0.42,0.38c0.18,0.16,0.4,0.35,0.65,0.54
		c0.76,0.61,1.64,1.19,2.27,1.51c0.17,0.02,0.29,0.03,0.42,0.06c0.64,0.13,1.09,0.2,1.33,0.2c0.14,0,0.22,0,0.46-0.07
		c0.35-0.12,0.77-0.32,1.24-0.59c0.19-0.11,0.34-0.21,0.47-0.31c-1.32-0.49-2.6-1.16-3.84-2c-1.88-1.29-3.08-2.55-3.4-2.93l0,0
		c-0.64-0.72-0.95-1.64-0.89-2.61c0.07-0.96,0.51-1.84,1.24-2.47c0.63-0.56,1.47-0.88,2.35-0.88c1.06,0,2.05,0.45,2.72,1.24
		c0.02,0.02,0.03,0.04,0.05,0.06l0,0c0.03,0.03,0.06,0.06,0.08,0.09c0.06,0.07,0.17,0.17,0.31,0.3c0.53,0.49,1.05,0.9,1.58,1.25
		c0.93,0.64,2.78,1.69,4.85,1.72c0.13-0.02,0.27-0.03,0.43-0.02h0.09c0.22-0.01,0.28-0.04,0.38-0.09c0.04-0.02,0.14-0.1,0.28-0.3
		c0.34-0.48,0.6-1.41,0.59-2.07c0.01-0.24-0.02-0.42-0.03-0.5c-0.04-0.06-0.07-0.12-0.11-0.17c-0.18-0.06-0.35-0.13-0.52-0.19
		c-1.43-0.57-2.72-1.26-3.94-2.1c-2.02-1.38-3.35-2.78-3.57-3.05c-0.61-0.66-0.94-1.58-0.9-2.54c0.04-0.96,0.45-1.85,1.16-2.5
		c1.45-1.29,3.79-1.17,5.08,0.21c0.02,0.02,0.04,0.05,0.07,0.08l0.23,0.22c0.15,0.15,0.49,0.48,1.02,0.9
		c1.05,0.87,2.28,1.61,3.38,2.04c0.31,0.13,0.63,0.24,1,0.32c0.24-0.04,0.49-0.07,0.78-0.07c0.53,0,1.13-0.18,1.64-0.5
		c0.35-0.22,0.65-0.5,0.85-0.74l-19.51-16.81c-0.04,0.01-0.09,0.02-0.13,0.02c-1.25,0.21-3.22,0.56-5.66,1.1
		c-4.2,0.94-10.53,2.61-16.8,5.25c-2.12,0.9-4.06,1.33-5.94,1.33c-1.56,0-3.08-0.33-4.41-0.96c-1.27-0.6-2.41-1.51-3.31-2.65
		c-1.5-1.91-2.3-4.34-2.32-7.01c0.02-2.76,0.84-5.27,2.38-7.26c0.19-0.24,0.51-0.69,0.93-1.26l0.94-1.3
		c1.01-1.35,2.12-2.8,3.46-4.37c1.06-1.24,2.09-2.37,3.12-3.41c-0.54,0.05-1.09,0.08-1.65,0.08c-1.43,0-2.63-0.21-3.75-0.67
		c-1.66-0.71-3.38-1.73-5.58-3.3c-1.54-1.13-3.18-2.44-5.16-4.13c-1.48-1.29-2.8-2.51-3.67-3.32c-0.22-0.21-0.35-0.5-0.36-0.8
		c-0.01-0.3,0.1-0.6,0.31-0.82l4.48-4.76c0.43-0.46,1.15-0.48,1.61-0.06l0.25,0.23c0.34,0.31,0.72,0.66,1.12,1.02
		c1.71,1.56,4.24,3.77,6.61,5.48c1.53,1.11,2.9,1.94,3.76,2.28c0.06,0.01,0.21,0.02,0.47,0.02c0.68,0,1.84-0.17,3.17-0.37l0.38-0.06
		c1.53-0.23,3.63-0.54,6.01-0.54c2.16,0,4.29,0.27,6.33,0.81c2.12-0.56,4.24-0.82,6.34-0.81c2.39,0,4.57,0.32,6.01,0.54l0.38,0.06
		c1.38,0.21,2.57,0.39,3.2,0.37c0.24,0,0.38-0.02,0.43-0.02c0.84-0.34,2.14-1.12,3.49-2.08c1.29-0.91,2.73-2.05,4.29-3.39
		c1.21-1.02,2.49-2.16,3.6-3.19c0.46-0.43,1.18-0.41,1.61,0.05l4.46,4.76c0.43,0.46,0.41,1.18-0.05,1.61
		c-0.38,0.36-0.73,0.7-1.12,1.03c-2.68,2.44-5.15,4.49-7.34,6.08c-2.21,1.58-3.93,2.6-5.57,3.3c-0.04,0.02-0.09,0.03-0.13,0.05
		c-1.44,0.57-2.77,0.63-3.65,0.63c-1.42,0-2.74-0.2-4.02-0.4l-0.89-0.13c-1.58-0.23-3.12-0.43-4.73-0.43
		c-2.09,0.01-4.95,0.29-8.43,2.34c-2.18,1.28-4.43,3.14-6.7,5.54c-2.14,2.25-3.87,4.51-4.98,6.01c-0.32,0.44-0.62,0.85-0.88,1.22
		c-0.43,0.6-0.79,1.11-1.11,1.52c-0.22,0.27-0.53,1.03-0.53,1.85c0,0.59,0.14,1.06,0.27,1.31c0.16,0.3,0.23,0.34,0.35,0.4
		c0.05,0.02,0.2,0.09,0.58,0.09c0.38,0,1.21-0.08,2.5-0.63c11.76-4.96,23.4-6.84,26.69-7.29c0.01,0,0.12-0.02,0.12-0.02
		c1.24-0.15,2.49,0.22,3.44,1.04l16.84,14.53c0.05-0.13,0.11-0.26,0.16-0.38c0.37-0.98,0.63-2,0.67-2.7l0.06-1.37
		c0.01-0.31,0.16-0.6,0.39-0.81l15.86-13.82c0.46-0.4,1.16-0.37,1.58,0.08l4.48,4.76c0.21,0.23,0.33,0.53,0.31,0.84
		c-0.02,0.31-0.16,0.6-0.39,0.81l-13.75,12c-0.22,1.1-0.54,2.21-1,3.39c-0.45,1.18-1.01,2.39-1.71,3.68c0.07,0.12,0.14,0.25,0.2,0.4
		c0.43,0.94,0.66,2.03,0.66,3.1c0,1.42-0.37,2.83-1.1,4.19c-0.62,1.16-1.47,2.22-2.54,3.16c-0.85,0.74-1.77,1.35-2.74,1.82
		c-0.03,1.76-0.42,3.47-1.14,5.08c-0.96,2.08-2.41,3.71-4.19,4.73c-0.35,0.21-0.76,0.4-1.26,0.59c-0.06,0.18-0.13,0.37-0.21,0.57
		c-0.56,1.34-1.92,3.8-4.93,5.5c-1.13,0.64-2.1,1.07-3.05,1.36c-0.88,0.28-1.82,0.43-2.79,0.46c-0.87,1.28-1.88,2.33-3,3.12
		c-1.9,1.34-4.25,2.07-6.7,2.05c-1.91,0-3.84-0.41-5.72-1.22c-0.68-0.27-1.38-0.62-2.09-1.05l-3.48,2.16
		C115.94,144.5,114.23,144.96,112.45,144.97z M104.35,135.51c0.57,0,1.1,0.42,1.17,0.99c0.13,1.03,0.48,2.02,1,2.86
		c1.29,2.06,3.56,3.36,5.97,3.32c1.33,0,2.61-0.36,3.72-1.05l4.09-2.54c0.38-0.23,0.86-0.23,1.23,0.01
		c0.81,0.53,1.57,0.93,2.34,1.24c1.65,0.71,3.32,1.06,4.93,1.05c1.93,0,3.81-0.58,5.3-1.64c1.03-0.72,1.95-1.73,2.73-3
		c0.26-0.42,0.78-0.56,1.24-0.53c0.94,0,1.72-0.11,2.46-0.35c0.8-0.24,1.62-0.61,2.6-1.16c2.42-1.37,3.51-3.32,3.94-4.37
		c0.12-0.32,0.23-0.63,0.32-0.93c0.11-0.36,0.39-0.65,0.75-0.76c0.59-0.19,1.02-0.37,1.37-0.58c1.4-0.8,2.49-2.04,3.26-3.7
		c0.62-1.38,0.94-2.86,0.94-4.39c0-0.11-0.01-0.21-0.02-0.31c-0.05-0.51,0.24-1.04,0.71-1.23c1.01-0.4,1.96-0.99,2.83-1.75
		c0.86-0.75,1.54-1.6,2.03-2.52c0.55-1.03,0.83-2.07,0.83-3.11c0-0.75-0.16-1.51-0.47-2.19c-0.07-0.16-0.18-0.32-0.31-0.51
		l-0.07-0.1c-0.25-0.36-0.27-0.83-0.05-1.21c0.8-1.42,1.43-2.72,1.91-3.98c0.46-1.19,0.77-2.29,0.96-3.37
		c0.04-0.26,0.18-0.49,0.37-0.67l13.15-11.48l-2.91-3.09l-14.67,12.78l-0.04,0.9c-0.06,0.95-0.36,2.19-0.83,3.41
		c-0.26,0.65-0.55,1.28-0.86,1.91c-0.16,0.32-0.45,0.55-0.8,0.62c-0.35,0.07-0.71-0.02-0.98-0.25L136.5,88.29
		c-0.46-0.39-1.06-0.58-1.66-0.5c-2.38,0.33-14.41,2.17-26.21,7.15c-1.58,0.67-2.71,0.81-3.39,0.81c-0.61,0-1.1-0.1-1.58-0.32
		c-0.64-0.32-1.04-0.73-1.39-1.4c-0.34-0.63-0.54-1.5-0.54-2.37c0-1.2,0.41-2.51,1.02-3.27c0.29-0.37,0.63-0.85,1.05-1.43
		c0.27-0.37,0.57-0.79,0.9-1.24c1.16-1.56,2.94-3.89,5.16-6.23c2.42-2.55,4.84-4.55,7.2-5.94c3.08-1.82,6.04-2.64,9.58-2.66
		c1.76,0,3.4,0.22,5.06,0.45l0.91,0.14c1.25,0.19,2.42,0.37,3.67,0.37c1.14,0,2.03-0.16,2.89-0.5c0.03-0.01,0.06-0.02,0.09-0.03
		c1.46-0.63,3.02-1.57,5.04-3.01c2.11-1.54,4.52-3.54,7.16-5.93c0.08-0.07,0.16-0.14,0.23-0.21l-2.9-3.1
		c-0.92,0.83-1.9,1.69-2.83,2.49c-1.61,1.38-3.11,2.57-4.45,3.51c-1.48,1.06-2.9,1.91-3.91,2.32c-0.2,0.1-0.61,0.21-1.41,0.21
		c-0.8,0-1.98-0.18-3.46-0.4l-0.38-0.06c-1.87-0.28-3.74-0.52-5.86-0.51c-1.93,0-3.9,0.27-5.85,0.81c-0.2,0.05-0.41,0.05-0.61,0
		c-1.94-0.54-3.96-0.81-6.02-0.81c-2.21,0-4.21,0.3-5.67,0.51l-0.37,0.06c-1.55,0.23-2.77,0.41-3.61,0.4c0,0,0,0,0,0
		c-0.72,0-1.08-0.11-1.27-0.21c-1.4-0.57-3.23-1.82-4.2-2.53c-2.46-1.77-5.06-4.05-6.81-5.64c-0.19-0.17-0.37-0.33-0.55-0.5
		l-2.92,3.1c0.77,0.71,1.73,1.58,2.76,2.48c1.93,1.65,3.52,2.92,5.01,4.01c2.05,1.47,3.63,2.41,5.12,3.04
		c0.83,0.34,1.74,0.5,2.87,0.5c1.38,0,2.68-0.21,4.05-0.43l0.53-0.08c0.09-0.01,0.16-0.02,0.23-0.02c0.51-0.09,1.04,0.16,1.27,0.63
		c0.22,0.47,0.13,1.02-0.26,1.36c-1.84,1.57-3.65,3.42-5.55,5.65c-1.3,1.52-2.38,2.94-3.36,4.24l-0.92,1.27
		c-0.44,0.62-0.79,1.09-0.98,1.34c-1.22,1.58-1.88,3.61-1.89,5.85c0.01,1.49,0.34,3.69,1.83,5.6c0.67,0.85,1.53,1.54,2.48,1.99
		c1.03,0.49,2.22,0.74,3.44,0.74c1.57,0,3.22-0.38,5.05-1.15c6.43-2.71,12.89-4.42,17.19-5.38c2.49-0.55,4.51-0.92,5.75-1.12
		c0.21-0.04,0.41-0.07,0.61-0.1c0.33-0.05,0.76,0.03,1.02,0.25l20.56,17.71c0.08,0.07,0.16,0.16,0.22,0.25
		c0.12,0.18,0.2,0.4,0.2,0.63c0,0.3-0.11,0.67-0.31,1.06c-0.38,0.7-1.1,1.44-1.88,1.93c-0.88,0.54-1.89,0.84-2.84,0.84
		c-0.2,0-0.38,0.04-0.57,0.07c-0.15,0.03-0.32,0.03-0.47,0c-0.61-0.13-1.13-0.29-1.6-0.49c-1.77-0.69-3.24-1.79-3.96-2.38
		c-0.43-0.34-0.86-0.72-1.18-1.04l-0.25-0.24c-0.01-0.01-0.08-0.08-0.09-0.09c-0.04-0.04-0.07-0.08-0.1-0.12
		c-0.49-0.44-1.28-0.46-1.79,0c-0.25,0.23-0.4,0.55-0.41,0.9c-0.02,0.35,0.11,0.68,0.34,0.94c0.04,0.05,1.17,1.31,3.14,2.66
		c1.08,0.75,2.23,1.36,3.39,1.83c0.31,0.12,0.6,0.22,0.89,0.31c0.32,0.09,0.58,0.32,0.72,0.62c0.09,0.19,0.16,0.32,0.24,0.42
		c0.09,0.12,0.15,0.25,0.19,0.39c0.12,0.35,0.19,0.85,0.17,1.32c0.02,1.11-0.39,2.51-1,3.36c-0.28,0.42-0.63,0.76-1.05,0.99
		c-0.47,0.25-0.88,0.36-1.44,0.38l-0.2,0c-0.02,0-0.05,0-0.07,0c-0.06,0.01-0.15,0.02-0.19,0.02c-2.6,0-4.82-1.15-6.22-2.11
		c-0.62-0.42-1.23-0.9-1.85-1.46c-0.21-0.19-0.38-0.36-0.49-0.49l-0.06-0.06c-0.05-0.05-0.1-0.11-0.14-0.17
		c-0.44-0.44-1.27-0.48-1.76-0.05c-0.28,0.24-0.44,0.56-0.47,0.91c-0.02,0.34,0.09,0.67,0.32,0.93c0.03,0.03,0.05,0.06,0.07,0.09
		c0,0,0,0,0,0c0,0,1.03,1.19,2.91,2.47c1.49,1.02,3.05,1.74,4.65,2.16c0.35,0.09,0.64,0.35,0.78,0.69c0.12,0.3,0.1,0.64-0.04,0.93
		c-0.01,0.04-0.03,0.09-0.04,0.12c-0.32,0.71-0.82,1.54-2.11,2.29c-0.6,0.35-1.17,0.62-1.72,0.8c-0.51,0.15-0.8,0.17-1.13,0.17
		c-0.42,0-0.97-0.08-1.82-0.25c-0.06-0.01-0.11-0.01-0.15-0.02l-0.18-0.02c-0.08-0.01-0.15-0.03-0.23-0.05
		c-0.1-0.03-0.2-0.07-0.33-0.14c-0.92-0.45-2.02-1.22-2.73-1.79c-0.27-0.21-0.53-0.43-0.73-0.61l-0.43-0.38
		c-0.04-0.03-0.08-0.06-0.12-0.1c-0.52-0.5-1.35-0.48-1.85,0.04c-0.24,0.25-0.36,0.58-0.36,0.93c0.01,0.35,0.15,0.67,0.4,0.91
		c0.11,0.11,1.07,1.03,2.41,1.97c0.23,0.18,0.44,0.31,0.64,0.44l0.13,0.09c0.52,0.34,0.68,1.03,0.36,1.56
		c-0.45,0.74-0.98,1.31-1.56,1.71c-0.84,0.59-1.77,0.87-2.92,0.87c-1.01,0-2.12-0.24-3.19-0.7c-0.25-0.1-0.52-0.24-0.78-0.39
		l-0.26-0.14c-0.47-0.25-0.71-0.78-0.58-1.29c0.16-0.64,0.24-1.24,0.24-1.84c0-1.32-0.36-2.6-1.05-3.71
		c-1.16-1.86-3.16-3.08-5.36-3.27c-0.59-0.05-1.05-0.55-1.05-1.14c0-0.08,0.01-0.16,0.01-0.24c0-1.48-0.4-2.91-1.17-4.17
		c-1.41-2.27-3.95-3.69-6.61-3.69l-0.16,0.01c-0.08,0.01-0.16,0.01-0.24,0.01c-0.58,0-1.07-0.44-1.14-1.01
		c-0.13-1.17-0.51-2.25-1.11-3.2c-1.16-1.87-3.07-3.17-5.26-3.57c-0.54-0.1-0.93-0.57-0.94-1.11c-0.02-1.43-0.42-2.83-1.17-4.06
		c-1.44-2.31-3.93-3.69-6.66-3.69c-1.46,0-2.89,0.41-4.14,1.18l-3.14,1.95c-0.27,0.17-0.61,0.21-0.92,0.13
		c-0.31-0.09-0.57-0.3-0.71-0.59l-0.06-0.11c-0.08-0.16-0.16-0.33-0.23-0.48c-0.6-1.41-0.98-2.84-1.01-3.88l-0.04-0.89L67.34,84.44
		l-2.91,3.09L77.58,99c0.2,0.17,0.33,0.41,0.38,0.68c0.21,1.23,0.59,2.52,1.17,3.94c0.28,0.71,0.62,1.42,1.09,2.31
		c0.18,0.35,0.17,0.78-0.04,1.12c-0.76,1.25-1.16,2.65-1.16,4.05c0,1.46,0.41,2.89,1.18,4.14c1.16,1.86,3.08,3.15,5.25,3.55
		c0.54,0.1,0.93,0.57,0.94,1.11c0.01,1.43,0.42,2.83,1.17,4.06c1.42,2.28,3.98,3.71,6.66,3.71c0.05,0,0.1-0.01,0.15-0.02
		c0.3-0.04,0.63,0.04,0.87,0.22c0.24,0.19,0.42,0.46,0.46,0.76c0.15,1.18,0.53,2.27,1.13,3.24c1.57,2.52,4.41,3.97,7.39,3.64
		C104.27,135.51,104.31,135.51,104.35,135.51z M145.73,124.73L145.73,124.73L145.73,124.73z M145.53,124.72
		C145.53,124.72,145.53,124.72,145.53,124.72C145.53,124.72,145.53,124.72,145.53,124.72z M136.47,65.41
		C136.47,65.41,136.47,65.41,136.47,65.41C136.47,65.41,136.47,65.41,136.47,65.41z M136.48,65.41
		C136.48,65.41,136.47,65.41,136.48,65.41C136.47,65.41,136.48,65.41,136.48,65.41z M104.21,65.41
		C104.21,65.41,104.21,65.41,104.21,65.41C104.21,65.41,104.21,65.41,104.21,65.41z M112.5,138.43c-0.98,0-1.86-0.49-2.37-1.32
		c-0.28-0.47-0.41-0.95-0.41-1.46c0-0.91,0.43-1.73,1.15-2.24c0.05-0.04,0.1-0.08,0.16-0.12l4.63-2.88
		c0.52-0.29,0.99-0.42,1.47-0.42c1,0.03,1.87,0.53,2.37,1.33c0.27,0.42,0.41,0.9,0.41,1.45c0,0.98-0.49,1.86-1.31,2.36l-4.62,2.88
		C113.55,138.29,113.06,138.43,112.5,138.43z M112.38,135.15c-0.05,0.04-0.1,0.08-0.15,0.11c-0.13,0.08-0.21,0.23-0.21,0.39
		c0,0.09,0.01,0.16,0.09,0.28c0.12,0.19,0.34,0.21,0.4,0.21c0.13,0,0.18-0.02,0.24-0.06l4.65-2.89c0,0,0,0,0.01,0
		c0.18-0.11,0.22-0.29,0.22-0.41c0-0.11-0.02-0.17-0.06-0.23c-0.13-0.21-0.32-0.26-0.46-0.26c-0.03,0-0.12,0.01-0.28,0.1
		L112.38,135.15z M103.51,131.32c-1.25,0-2.39-0.63-3.05-1.69c-0.36-0.59-0.55-1.23-0.55-1.9c0-1.26,0.64-2.4,1.71-3.05l5.37-3.35
		c1.69-1.02,3.93-0.46,4.94,1.15c0.36,0.59,0.54,1.24,0.54,1.9c0,1.24-0.63,2.38-1.68,3.04c0,0,0,0-0.01,0l-5.4,3.35
		C104.79,131.14,104.17,131.32,103.51,131.32z M108.89,123.09c-0.25,0-0.49,0.07-0.7,0.2l-5.36,3.34c-0.4,0.24-0.62,0.64-0.62,1.11
		c0,0.24,0.07,0.46,0.21,0.69c0.36,0.58,1.14,0.79,1.79,0.4l5.38-3.34c0.39-0.24,0.61-0.65,0.61-1.11c0-0.25-0.07-0.49-0.2-0.7
		C109.75,123.31,109.35,123.09,108.89,123.09z M110.18,126.46h0.01H110.18z M94.23,123.42c-1.26,0-2.4-0.64-3.06-1.71
		c-0.36-0.56-0.54-1.19-0.54-1.87c0.02-0.88,0.33-1.69,0.86-2.31c0.08-0.09,0.17-0.17,0.26-0.23l4.63-2.88
		c0.37-0.23,0.71-0.51,1.02-0.78c0.05-0.04,0.1-0.08,0.15-0.11l0.16-0.1c0.58-0.36,1.22-0.54,1.89-0.54
		c1.29,0.02,2.42,0.66,3.05,1.71c0.36,0.55,0.54,1.19,0.54,1.87c-0.02,1.29-0.64,2.4-1.69,3.06l-5.38,3.34
		C95.57,123.23,94.91,123.42,94.23,123.42z M93.15,119.13c-0.14,0.21-0.22,0.47-0.23,0.74c0,0.21,0.06,0.42,0.2,0.63
		c0.38,0.62,1.2,0.81,1.79,0.44c0.01,0,0.01-0.01,0.01-0.01l5.38-3.34c0.53-0.33,0.61-0.86,0.62-1.14c0-0.22-0.06-0.43-0.2-0.64
		c-0.24-0.4-0.65-0.63-1.14-0.63c-0.23,0-0.44,0.06-0.67,0.21l-0.09,0.05c-0.35,0.3-0.76,0.64-1.24,0.93L93.15,119.13z
		 M86.87,114.68c-1.27,0-2.41-0.63-3.06-1.69c-0.35-0.55-0.54-1.21-0.54-1.89c0.02-1.26,0.66-2.39,1.69-3.05l5.39-3.36
		c1.84-1.06,3.95-0.45,4.95,1.15c0.03,0.04,0.05,0.08,0.07,0.13c0.32,0.54,0.48,1.14,0.48,1.77c-0.02,0.88-0.33,1.69-0.86,2.31
		c-0.08,0.09-0.17,0.17-0.27,0.23l-4.63,2.88c-0.33,0.2-0.65,0.44-1.03,0.78c-0.04,0.03-0.08,0.06-0.12,0.09l-0.15,0.1
		C88.18,114.5,87.53,114.68,86.87,114.68z M88.31,113.08h0.01H88.31z M92.26,106.46c-0.25,0-0.48,0.07-0.72,0.21L86.19,110
		c-0.38,0.24-0.61,0.65-0.62,1.13c0,0.23,0.06,0.45,0.2,0.66c0.37,0.6,1.19,0.79,1.81,0.42l0.04-0.03c0.46-0.4,0.85-0.69,1.27-0.95
		l4.45-2.77c0.14-0.21,0.22-0.46,0.23-0.74c0-0.21-0.06-0.42-0.2-0.63c-0.02-0.04-0.04-0.07-0.06-0.11
		C93.06,106.65,92.69,106.46,92.26,106.46z"/>
</g>
</svg>
