<?xml version="1.0" encoding="utf-8"?>
<!-- Generator: Adobe Illustrator 24.0.1, SVG Export Plug-In . SVG Version: 6.00 Build 0)  -->
<svg version="1.1" id="レイヤー_1" xmlns="http://www.w3.org/2000/svg" xmlns:xlink="http://www.w3.org/1999/xlink" x="0px"
	 y="0px" viewBox="0 0 240 200" style="enable-background:new 0 0 240 200;" xml:space="preserve">
<style type="text/css">
	.st0{fill:none;}
	.st1{fill:#00395B;}
	.st2{fill:#FFFFFF;}
	.st3{fill:#535353;}
	.st4{fill:#D0A867;}
</style>
<g>
	<rect y="-0.22" class="st0" width="240" height="200"/>
	<g>
		<circle class="st1" cx="27" cy="24.78" r="20"/>
		<g>
			<path class="st2" d="M25.64,14.61h3.18v20.31h-3.61V18.47l-3.69,2.57l-0.46-3.33L25.64,14.61z"/>
		</g>
	</g>
</g>
<g>
	<g>
		<path class="st3" d="M74.81,178.52c-0.34,0.55-0.73,1.08-1.13,1.57h2.3v-1.27h1.26v1.27h3.96v3.4c0,0.62-0.13,0.94-0.58,1.12
			c-0.45,0.2-1.13,0.2-2.13,0.2c-0.07-0.34-0.25-0.81-0.42-1.12c0.7,0.03,1.39,0.03,1.57,0.03c0.2-0.01,0.27-0.06,0.27-0.24v-2.25
			h-2.68v4.45h-1.26v-4.45h-2.39v3.7h-1.29v-3.43c-0.55,0.46-1.15,0.9-1.79,1.26c-0.21-0.28-0.62-0.76-0.87-0.99
			c1.47-0.78,2.72-1.93,3.63-3.24h-3.28v-1.15h4.02c0.22-0.39,0.41-0.8,0.56-1.2c-1.09,0.31-2.2,0.57-3.26,0.8
			c-0.2-0.31-0.6-0.84-0.88-1.11c1.48-0.21,3.03-0.56,4.48-0.97c-1.22-0.42-2.47-0.8-3.59-1.09l0.9-0.79
			c1.34,0.34,2.91,0.8,4.43,1.29c1.22-0.43,2.31-0.95,3.15-1.51l1.09,0.73c-0.74,0.5-1.62,0.95-2.58,1.37
			c1.16,0.41,2.2,0.81,3.01,1.21l-0.99,0.92c-0.88-0.45-2.2-1-3.64-1.51c-0.41,0.15-0.85,0.28-1.28,0.42l0.66,0.18
			c-0.18,0.42-0.38,0.85-0.57,1.26h6.81v1.15H74.81z"/>
		<path class="st3" d="M85.42,175.32h-1.01v-1.11h2.73v-1.39h1.23v1.39h2.68v1.11h-4.43v2.12c0,0.42,0.08,0.55,0.45,0.55h2.14
			c0.32,0,0.83-0.03,1.09-0.07c0.03,0.24,0.06,0.6,0.1,0.88c1.29-1.13,1.43-3.03,1.48-5.52h4.93v0.5c-0.14,3.61-0.27,4.9-0.6,5.35
			c-0.24,0.28-0.5,0.39-0.88,0.43c-0.31,0.04-0.85,0.04-1.43,0.01c-0.03-0.29-0.14-0.74-0.31-1c0.5,0.04,0.97,0.04,1.16,0.04
			s0.31-0.01,0.42-0.17c0.08-0.11,0.15-0.36,0.21-0.84H92.5c-0.31,0.92-0.81,1.69-1.61,2.27c-0.14-0.25-0.42-0.62-0.69-0.83
			c-0.27,0.03-0.62,0.04-0.97,0.04h-2.17c-1.32,0-1.65-0.45-1.65-1.7V175.32z M96.99,184.3v1.09H84.66v-1.09h5.49v-0.99h-3.99v-1.06
			h3.99v-0.98h-4.58v-1.08h10.62v1.08h-4.73v0.98h4.06v1.06h-4.06v0.99H96.99z M95.49,176.72c0.01-0.24,0.03-0.52,0.06-0.83H92.9
			c-0.04,0.28-0.08,0.56-0.14,0.83H95.49z M93.04,174.23c-0.01,0.28-0.03,0.55-0.04,0.81h2.59l0.03-0.81H93.04z"/>
		<path class="st3" d="M111.83,183.71h-5.67v1.99h-1.34v-1.99h-5.53v-1.18h5.53v-0.97h-4.1v-5.49h4.1v-0.87h-5.13v-1.19h5.13v-1.2
			h1.34v1.2h5.21v1.19h-5.21v0.87h4.2v5.49h-4.2v0.97h5.67V183.71z M101.97,178.32h2.84v-1.16h-2.84V178.32z M104.81,180.5v-1.19
			h-2.84v1.19H104.81z M106.15,177.16v1.16h2.9v-1.16H106.15z M109.05,179.31h-2.9v1.19h2.9V179.31z"/>
		<path class="st3" d="M118.43,181.5c-0.21-0.39-0.67-1.05-1.09-1.62v5.77h-1.26v-5.66c-0.52,1.27-1.16,2.48-1.79,3.26
			c-0.13-0.36-0.43-0.9-0.63-1.21c0.83-0.95,1.72-2.62,2.26-4.1h-1.99v-1.23h2.16v-1.91c-0.64,0.14-1.29,0.24-1.89,0.32
			c-0.06-0.29-0.22-0.73-0.38-1.01c1.55-0.25,3.32-0.66,4.37-1.12l0.9,0.99c-0.5,0.2-1.11,0.38-1.74,0.55v2.17h1.64v1.23h-1.64v0.64
			c0.41,0.35,1.6,1.57,1.85,1.89L118.43,181.5z M126.71,184.36v1.05h-8.36v-1.05h3.7v-0.91h-2.91v-1.01h2.91v-0.84h-2.79v-4.54h2.79
			v-0.79h-3.31v-1.04h3.31v-0.78c-0.97,0.06-1.92,0.1-2.82,0.11c-0.03-0.27-0.17-0.71-0.29-0.97c2.31-0.08,5.1-0.31,6.7-0.63
			l0.77,0.95c-0.87,0.2-1.95,0.34-3.1,0.43v0.88h3.12v1.04h-3.12v0.79h2.87v4.54h-2.87v0.84h2.91v1.01h-2.91v0.91H126.71z
			 M120.41,178.92h1.64v-0.94h-1.64V178.92z M122.04,180.67v-0.94h-1.64v0.94H122.04z M123.31,177.98v0.94h1.68v-0.94H123.31z
			 M124.99,179.73h-1.68v0.94h1.68V179.73z"/>
		<path class="st3" d="M134.15,174.93c1.37-0.06,2.84-0.18,4.12-0.41v1.3c-1.37,0.2-3.1,0.32-4.61,0.36
			c-0.31,0.66-0.69,1.32-1.08,1.85c0.46-0.27,1.25-0.42,1.79-0.42c0.88,0,1.61,0.41,1.88,1.19c0.87-0.41,1.58-0.7,2.24-1.01
			c0.48-0.21,0.88-0.39,1.33-0.62l0.58,1.29c-0.41,0.13-1.01,0.35-1.43,0.52c-0.71,0.28-1.62,0.64-2.6,1.09
			c0.01,0.8,0.03,1.92,0.04,2.59h-1.33c0.03-0.49,0.04-1.29,0.06-1.98c-1.2,0.66-1.96,1.3-1.96,2.13c0,0.95,0.91,1.15,2.33,1.15
			c1.13,0,2.66-0.14,3.89-0.36l-0.04,1.41c-1.01,0.13-2.63,0.25-3.89,0.25c-2.09,0-3.71-0.49-3.71-2.23c0-1.72,1.68-2.82,3.31-3.64
			c-0.18-0.49-0.63-0.7-1.15-0.7c-0.85,0-1.74,0.45-2.33,1.01c-0.41,0.39-0.81,0.91-1.27,1.5l-1.21-0.9
			c1.64-1.54,2.59-2.9,3.17-4.09c-0.14,0-0.28,0-0.41,0c-0.59,0-1.55-0.03-2.34-0.08v-1.32c0.74,0.11,1.74,0.15,2.41,0.15
			c0.27,0,0.55,0,0.83-0.01c0.18-0.58,0.29-1.16,0.32-1.67l1.46,0.11C134.45,173.81,134.34,174.33,134.15,174.93z"/>
		<path class="st3" d="M147.51,179.86c-0.48,0.15-0.97,0.31-1.44,0.46v3.91c0,0.64-0.13,0.99-0.5,1.2c-0.38,0.2-0.92,0.24-1.82,0.24
			c-0.03-0.31-0.18-0.87-0.35-1.2c0.56,0.01,1.08,0.01,1.23,0c0.18,0,0.25-0.04,0.25-0.24v-3.54c-0.55,0.17-1.07,0.32-1.53,0.48
			l-0.29-1.26c0.5-0.13,1.13-0.31,1.82-0.5v-2.66h-1.62v-1.21h1.62v-2.7h1.19v2.7h1.4v1.21h-1.4v2.31l1.27-0.38L147.51,179.86z
			 M153.11,181.15c0.77,1.19,1.97,2.3,3.17,2.9c-0.28,0.22-0.69,0.69-0.88,1.01c-1.12-0.67-2.23-1.82-3.04-3.08v3.68h-1.27v-3.67
			c-0.87,1.36-2.07,2.49-3.39,3.15c-0.2-0.31-0.56-0.76-0.84-0.99c1.37-0.59,2.65-1.71,3.46-3h-2.66v-1.16h3.43v-1.46h1.27v1.46
			h3.53v1.16H153.11z M151.19,175.06c-0.14,2.13-0.63,3.32-3.03,3.96c-0.11-0.29-0.41-0.73-0.64-0.94c2.02-0.48,2.38-1.34,2.46-3.03
			H151.19z M148.95,176.16h-1.11v-2.63h7.96v2.58h-1.16v-1.47h-5.69V176.16z M153.39,175.03v2.25c0,0.32,0.04,0.36,0.35,0.36h0.94
			c0.27,0,0.32-0.14,0.35-1.15c0.24,0.18,0.71,0.35,1.05,0.43c-0.13,1.4-0.43,1.75-1.28,1.75h-1.25c-1.11,0-1.36-0.32-1.36-1.39
			v-2.27H153.39z"/>
		<path class="st3" d="M166.19,174.41c-0.01,0.17-0.01,0.42-0.01,0.7h4.2l-0.03,1.32c-0.83-0.04-2.16-0.07-4.19-0.07
			c0.01,0.76,0.01,1.57,0.01,2.2c0.32,0.5,0.49,1.15,0.49,1.86c0,1.86-1,4.06-4.31,5.03l-1.19-1.18c1.65-0.36,2.94-0.98,3.61-2.06
			c-0.28,0.14-0.62,0.21-0.98,0.21c-1.13,0-2.35-0.84-2.35-2.44c0-1.47,1.19-2.52,2.61-2.52c0.28,0,0.55,0.03,0.79,0.1
			c0-0.36-0.01-0.78-0.01-1.19c-2.13,0.03-4.43,0.11-6.16,0.22l-0.04-1.34c1.58-0.03,4.19-0.1,6.19-0.13
			c-0.01-0.31-0.01-0.55-0.03-0.71c-0.04-0.45-0.08-0.88-0.11-1.02h1.61C166.23,173.57,166.19,174.21,166.19,174.41z M164.03,181.21
			c0.73,0,1.27-0.58,1.09-1.89c-0.22-0.46-0.63-0.67-1.09-0.67c-0.64,0-1.27,0.48-1.27,1.32
			C162.76,180.73,163.36,181.21,164.03,181.21z"/>
	</g>
</g>
<g>
	<g>
		<path class="st4" d="M111.75,73.57C111.75,73.57,111.75,73.57,111.75,73.57c0.38,0.47,0.76,0.94,1.14,1.42
			c0,0,0.01-0.01,0.01-0.01c0,0,0,0,0,0c0.27,0.43,0.54,0.86,0.81,1.29c0.12,0.26,0.32,0.49,0.38,0.78
			c-0.13,0.28,0.11,0.49,0.16,0.73c0.04,0.11,0.08,0.21,0.12,0.32c0.1,0.18,0.07,0.4,0.19,0.57c0.18,0.12,0.3,0.03,0.38-0.14
			c0.02-0.11,0.01-0.22,0-0.33c-0.02-0.15-0.01-0.3-0.03-0.45c-0.1-0.73-0.22-1.47-0.37-2.19c-0.01-0.05-0.03-0.1-0.05-0.15
			c0-0.01,0-0.01,0-0.02c-0.03-0.42-0.12-0.82-0.27-1.21c-0.29-0.78-0.59-1.56-0.67-2.4c-0.06-0.62-0.03-1.23,0.26-1.8
			c0.45-0.89,1.42-1.35,2.44-1.18c0.16,0.03,0.33,0.11,0.49,0.06c0.01,0.02,0.02,0.03,0.03,0.05c0.22,0.15,0.38,0.37,0.64,0.46
			c0.07-0.01,0.13-0.04,0.17-0.09c0.03-0.15,0.1-0.3,0.02-0.46c-0.06-0.1-0.1-0.2-0.14-0.31c-0.04-0.1-0.08-0.21-0.21-0.24
			c-0.08-0.22-0.25-0.4-0.26-0.65c-0.17-0.01-0.23-0.15-0.32-0.26c-0.76-0.88-1.7-1.39-2.89-1.4c-1.38-0.01-2.43,0.55-3.15,1.73
			c0,0,0,0,0,0c-0.87,1.04-0.79,3.08,0.06,4.35C110.98,72.6,111.31,73.13,111.75,73.57z"/>
		<path class="st4" d="M129.98,87.65c-0.42-0.77-0.85-1.53-1.46-2.17c0,0,0,0,0,0c-0.96-1.32-2.13-2.44-3.36-3.5
			c-0.13-0.15-0.25-0.3-0.39-0.44c-1.36-1.34-2.62-2.76-3.77-4.27c-0.02-0.05-0.04-0.1-0.07-0.14c-0.97-1.39-1.89-2.82-2.53-4.41
			c-0.08-0.2-0.19-0.55-0.57-0.46c0.03,0.81,0.23,1.58,0.4,2.37c0.08,0.31,0.03,0.67,0.23,0.94c0.02,0.09,0.03,0.19,0.07,0.28
			c0.09,0.29,0.11,0.61,0.36,0.82c-0.03,0.05-0.03,0.12-0.01,0.2c0.3,0.86,0.58,1.74,1,2.55c0.12,0.24,0.12,0.54,0.37,0.71
			c0.07,0.01,0.11,0,0.15-0.01c0.19,0.4,0.35,0.82,0.62,1.18c0.14,0.37,0.31,0.73,0.57,1.04c0,0,0,0,0,0
			c0.53,0.95,1.06,1.89,1.59,2.84c0,0,0,0,0,0c0.07,0.18,0.14,0.37,0.22,0.55c0.68,1.59,1.17,3.22,1.22,4.96l0,0
			c0,0.02,0,0.04,0.01,0.06c0,0,0,0,0,0c-0.04,0.34-0.07,0.68-0.03,1.03c0,0,0,0,0,0c-0.16,0.69-0.27,1.4-0.56,2.05
			c0,0-0.01,0-0.01,0c-0.04,0.01-0.08,0.01-0.12,0.01c-0.18,0.1-0.26,0.29-0.36,0.45c-0.34,0.56-0.75,1.06-1.23,1.5
			c-0.24,0.22-0.55,0.35-0.76,0.6c0,0.01-0.01,0.02-0.01,0.02c-0.08-0.01-0.16,0.03-0.24,0.07c-1.12,0.58-2.3,0.79-3.55,0.6
			c-0.13-0.02-0.28-0.06-0.41,0.02c-0.09-0.19-0.29-0.24-0.47-0.28c-0.59-0.16-1.1-0.48-1.62-0.79c-0.2-0.12-0.38-0.28-0.48-0.49
			c-0.35-0.23-0.64-0.53-1.03-0.71c-0.05-0.06-0.1-0.13-0.16-0.19c-0.06-0.03-0.13-0.06-0.19-0.08c0.04,0.14,0.05,0.28-0.02,0.41
			c0.22,0.22,0.25,0.52,0.37,0.79c0.19,0.38,0.23,0.82,0.53,1.15c0,0,0,0,0,0c0.17,0.4,0.38,0.76,0.67,1.09
			c0.08,0.15,0.17,0.29,0.31,0.39c0,0,0,0,0,0c0.19,0.29,0.43,0.54,0.7,0.76c0.26,0.29,0.54,0.55,0.88,0.75c0,0,0,0,0,0
			c0.75,0.65,1.65,1.04,2.58,1.37c0.83,0.3,1.67,0.54,2.57,0.44c0.06,0.01,0.12,0.01,0.19,0.01c0.81,0.04,1.6-0.1,2.39-0.32
			c0,0,0,0,0,0c1.56-0.23,2.79-1.07,3.93-2.09c0.9-0.77,1.57-1.71,2.05-2.79c0,0,0,0,0,0c0.18-0.14,0.24-0.34,0.31-0.54
			c0.25-0.66,0.43-1.34,0.5-2.05C131.57,91.67,131.05,89.6,129.98,87.65z"/>
	</g>
	<g>
		<path class="st4" d="M153.1,50.78c-1.01-0.94-2.29-1.49-3.63-1.66c-1.34-0.16-2.74,0.05-4.08,0.6c-2.36,0.96-4.56,2.96-6.02,5.91
			c-1.22,2.46-1.91,5.58-1.81,9.31l-9.72-23.85c-0.64-1.56-2.42-2.31-3.98-1.67L84.17,55.6c-1.56,0.64-2.31,2.42-1.68,3.98
			l9.45,23.17l-6.91,0.19c-1.05,0.03-2.06,0.25-2.98,0.63c-1.6,0.65-2.95,1.76-3.88,3.18c-0.94,1.41-1.47,3.12-1.42,4.94
			c0.03,1.05,0.25,2.06,0.63,2.98c0.65,1.59,1.77,2.94,3.18,3.88c1.41,0.93,3.12,1.46,4.94,1.42l6.13-0.17
			c-0.26,0.29-0.5,0.6-0.72,0.93c-0.89,1.33-1.39,2.96-1.34,4.68c0.02,0.99,0.23,1.95,0.59,2.83c0.62,1.51,1.67,2.79,3.01,3.68
			c1.34,0.89,2.96,1.38,4.68,1.34l0.45-0.01c-0.11,0.14-0.22,0.29-0.32,0.44c-0.9,1.33-1.4,2.95-1.34,4.68
			c0.02,0.99,0.23,1.95,0.59,2.82c0.62,1.52,1.67,2.79,3.01,3.67c1.33,0.9,2.95,1.4,4.67,1.35l0.45-0.01
			c-0.12,0.15-0.23,0.3-0.33,0.46c-0.89,1.33-1.39,2.96-1.35,4.68c0.03,1,0.24,1.95,0.6,2.83c0.62,1.51,1.67,2.79,3.01,3.67
			c1.34,0.89,2.96,1.39,4.68,1.34l5.88-0.16c0.99-0.03,1.95-0.23,2.83-0.59c1.22-0.5,2.29-1.29,3.12-2.28
			c2.07,0.45,4.36,0.73,6.87,0.73c4.11,0,8.78-0.74,13.91-2.69c0.33-0.12,0.64-0.25,0.96-0.38c4.95-2.02,8.7-4.65,11.44-7.77
			c2.05-2.34,3.52-4.94,4.51-7.71c1.49-4.15,1.91-8.67,1.71-13.33c-0.2-4.65-1.01-9.47-2.04-14.29c-0.02-0.1-0.1-0.61-0.24-1.43
			c-0.55-3.24-1.93-11.35-3.2-18.85c-0.63-3.75-1.24-7.35-1.69-10.11c-0.23-1.38-0.42-2.55-0.56-3.42c-0.07-0.43-0.13-0.8-0.17-1.07
			c-0.04-0.27-0.07-0.46-0.07-0.51c-0.09-0.8-0.27-1.55-0.55-2.22C154.32,52.2,153.78,51.41,153.1,50.78z M85.41,96.91
			c-1.17,0.03-2.26-0.31-3.16-0.91c-0.91-0.6-1.62-1.47-2.04-2.49c-0.24-0.59-0.38-1.23-0.4-1.92c-0.03-1.17,0.3-2.26,0.91-3.17
			c0.6-0.9,1.47-1.62,2.49-2.04c0.59-0.24,1.23-0.38,1.91-0.4l8.06-0.22l4.41,10.81L85.41,96.91z M94.85,109.37
			c-0.83-0.56-1.49-1.35-1.88-2.29c-0.22-0.54-0.35-1.13-0.37-1.76c-0.03-1.08,0.28-2.07,0.83-2.91c0.55-0.83,1.35-1.49,2.28-1.87
			c0.54-0.22,1.13-0.35,1.76-0.37l0.01,0l1.54-0.04l4.35-0.12c0.8-0.02,1.56,0.15,2.24,0.46c0.23,0.1,0.45,0.23,0.67,0.37
			c0.83,0.55,1.49,1.35,1.87,2.28c0.22,0.54,0.35,1.13,0.37,1.76c0.02,0.68-0.1,1.32-0.32,1.91c-0.13,0.35-0.3,0.68-0.51,0.99
			c-0.55,0.83-1.34,1.49-2.28,1.87c-0.54,0.22-1.13,0.35-1.76,0.37l-0.57,0.01l-5.31,0.15C96.68,110.23,95.69,109.93,94.85,109.37z
			 M101.92,122.34c-0.83-0.56-1.49-1.35-1.87-2.29c-0.22-0.54-0.35-1.13-0.37-1.75c-0.03-1.08,0.28-2.07,0.83-2.91
			c0.55-0.83,1.35-1.49,2.28-1.87c0.48-0.19,0.99-0.32,1.53-0.35c0.08-0.01,0.15-0.01,0.23-0.01l5.89-0.16c0.09,0,0.17,0,0.26,0
			c0.98,0.02,1.88,0.32,2.64,0.83c0.84,0.56,1.49,1.35,1.88,2.29c0.22,0.54,0.35,1.13,0.37,1.76c0,0,0,0.01,0,0.02
			c0.03,1.07-0.29,2.06-0.83,2.89c-0.55,0.83-1.35,1.49-2.29,1.87c-0.54,0.22-1.13,0.35-1.75,0.37l-2.34,0.06l-3.54,0.09
			C103.75,123.2,102.76,122.89,101.92,122.34z M122.64,130.62c0.01,0.07,0.01,0.15,0.02,0.22c0.03,1.08-0.28,2.07-0.83,2.9
			c-0.55,0.83-1.34,1.49-2.28,1.88c-0.54,0.22-1.13,0.35-1.76,0.36l-5.89,0.16c-1.08,0.03-2.07-0.28-2.91-0.83
			c-0.83-0.55-1.49-1.35-1.87-2.28c-0.22-0.54-0.35-1.14-0.37-1.76c-0.03-1.08,0.28-2.08,0.83-2.91c0.53-0.81,1.31-1.45,2.21-1.84
			l0.08-0.03c0.54-0.22,1.13-0.35,1.76-0.37l0.26-0.01l5.63-0.15c1.08-0.03,2.08,0.28,2.91,0.83c0.83,0.56,1.49,1.35,1.87,2.29
			C122.48,129.56,122.61,130.07,122.64,130.62z M110.37,109.93l-0.47,0.01c0.11-0.14,0.22-0.29,0.32-0.45
			c0.89-1.33,1.39-2.96,1.35-4.68c-0.02-1-0.24-1.96-0.59-2.83c-0.62-1.51-1.67-2.79-3.01-3.67c-1.1-0.73-2.39-1.2-3.78-1.32
			L90.33,62.99l34.41-14.03l22.68,55.62l-28.93,11.8c-0.1-0.49-0.24-0.97-0.42-1.42c-0.62-1.52-1.67-2.79-3.01-3.68
			C113.71,110.39,112.09,109.89,110.37,109.93z M134.5,116.62c0.45,1.09-0.08,2.34-1.17,2.79c-1.09,0.45-2.34-0.08-2.79-1.17
			c-0.44-1.09,0.08-2.34,1.17-2.79C132.81,115,134.05,115.53,134.5,116.62z M152.21,55.67c0.02,0.17,0.05,0.4,0.11,0.76
			c0.2,1.32,0.67,4.14,1.25,7.65c1.76,10.52,4.6,27.17,4.6,27.17l0.01,0.03l0.01,0.03c0.9,4.21,1.62,8.38,1.9,12.34
			c0.21,2.97,0.17,5.83-0.21,8.52c-0.57,4.04-1.9,7.66-4.32,10.82c-2.43,3.16-5.97,5.88-11.14,7.99c-0.29,0.12-0.59,0.23-0.89,0.35
			c-4.8,1.82-9.08,2.5-12.82,2.49c-1.92,0-3.7-0.18-5.33-0.48c0.25-0.83,0.39-1.7,0.36-2.61c-0.01-0.45-0.06-0.9-0.15-1.32
			c-0.05-0.3-0.13-0.6-0.22-0.88l30-11.92c1.56-0.64,2.31-2.42,1.68-3.98l-15.38-37.74c-0.22-2.02-0.51-4.61-0.88-7.98
			c-0.47-4.31,0.2-7.6,1.36-9.95c1.17-2.35,2.84-3.79,4.44-4.44c1.22-0.5,2.38-0.53,3.29-0.23c0.45,0.15,0.85,0.38,1.19,0.7
			c0.34,0.32,0.63,0.72,0.84,1.25C152.03,54.66,152.15,55.13,152.21,55.67z"/>
	</g>
</g>
</svg>
