<?xml version="1.0" encoding="utf-8"?>
<!-- Generator: Adobe Illustrator 24.0.1, SVG Export Plug-In . SVG Version: 6.00 Build 0)  -->
<svg version="1.1" id="レイヤー_1" xmlns="http://www.w3.org/2000/svg" xmlns:xlink="http://www.w3.org/1999/xlink" x="0px"
	 y="0px" viewBox="0 0 240 200" style="enable-background:new 0 0 240 200;" xml:space="preserve">
<style type="text/css">
	.st0{fill:none;}
	.st1{fill:#00395B;}
	.st2{fill:#FFFFFF;}
	.st3{fill:#535353;}
	.st4{fill:#D0A867;}
</style>
<g>
	<rect x="-1" y="-0.22" class="st0" width="240" height="200"/>
	<g>
		<circle class="st1" cx="26" cy="24.78" r="20"/>
		<g>
			<path class="st2" d="M32.81,31.63v3.28H17.49c2.24-2.29,4.68-4.81,7.25-7.92c3.08-3.69,3.61-5.04,3.61-6.46
				c0-1.63-1.07-3.05-3.05-3.05c-2.93,0-4.48,2.67-4.96,3.51l-1.55-3.49c1.58-2.06,4-3.31,6.57-3.31c3.28,0,6.62,1.96,6.62,6.24
				c0,3.08-1.48,5.34-6.87,11.2H32.81z"/>
		</g>
	</g>
</g>
<g>
	<g>
		<path class="st3" d="M49.21,177.25c-0.77,0.55-1.6,1.05-2.44,1.46c-0.14-0.29-0.49-0.78-0.77-1.06c2.4-1.09,4.68-3.11,5.73-4.82
			h1.34c1.48,2.06,3.81,3.77,6,4.62c-0.31,0.32-0.6,0.79-0.83,1.18c-0.81-0.39-1.67-0.88-2.48-1.46v1.09h-6.56V177.25z M46.8,179.72
			h11.5v1.22h-6.42c-0.46,0.94-0.98,1.99-1.48,2.89c1.55-0.06,3.29-0.13,5-0.2c-0.52-0.59-1.08-1.18-1.62-1.67l1.12-0.6
			c1.28,1.08,2.61,2.56,3.25,3.6l-1.19,0.74c-0.15-0.27-0.36-0.57-0.62-0.91c-3.33,0.17-6.89,0.32-9.27,0.42l-0.17-1.27l2.07-0.07
			c0.46-0.87,0.97-1.99,1.3-2.93H46.8V179.72z M55.61,177.06c-1.26-0.9-2.41-1.95-3.15-2.97c-0.67,0.98-1.74,2.03-2.98,2.97H55.61z"
			/>
		<path class="st3" d="M69.51,183.31c1.42,0.41,3.11,1.02,4.17,1.47l-1.15,0.91c-1.05-0.48-2.94-1.19-4.41-1.61l1.04-0.77h-4.09
			l1.01,0.67c-1.12,0.67-2.91,1.34-4.34,1.69c-0.24-0.27-0.66-0.7-0.98-0.94c1.34-0.31,3-0.9,3.92-1.43h-2.45v-6.05h10v6.05H69.51z
			 M71.69,176.58h-8.85v-3.28h8.85V176.58z M63.52,178.99h7.35v-0.8h-7.35V178.99z M63.52,180.69h7.35v-0.81h-7.35V180.69z
			 M63.52,182.38h7.35v-0.83h-7.35V182.38z M70.31,174.34h-6.18v1.21h6.18V174.34z"/>
		<path class="st3" d="M88.04,175.24c-0.59,0.53-1.32,1.11-1.96,1.55c0.74,0.59,1.54,1.06,2.39,1.39c-0.29,0.25-0.69,0.74-0.87,1.08
			c-1.16-0.53-2.21-1.29-3.14-2.23v0.69h-5.13v-0.57c-0.98,0.98-2.13,1.75-3.28,2.28c-0.15-0.27-0.52-0.71-0.77-0.94
			c0.88-0.36,1.79-0.95,2.61-1.65c-0.42-0.43-1.09-0.95-1.67-1.32l0.7-0.71c0.62,0.35,1.33,0.87,1.74,1.29
			c0.49-0.52,0.92-1.09,1.26-1.68h-3.19v-1.08h3.82l0.22-0.06l0.84,0.43c-0.41,1.08-1.02,2.04-1.76,2.88h4.2
			c-0.88-0.99-1.61-2.14-2.16-3.4l1.11-0.34c0.24,0.55,0.53,1.08,0.88,1.58c0.59-0.48,1.23-1.05,1.62-1.5l0.98,0.7
			c-0.62,0.55-1.36,1.15-2,1.6c0.25,0.31,0.53,0.6,0.83,0.88c0.63-0.48,1.32-1.08,1.75-1.57L88.04,175.24z M85.1,182.54
			c-0.31,0.63-0.64,1.26-0.92,1.74h3.77v1.09H75.92v-1.09h3.6c-0.14-0.5-0.43-1.18-0.73-1.68l0.77-0.21H78v-3.68h7.83v3.68h-1.34
			L85.1,182.54z M79.26,181.33h5.24v-1.57h-5.24V181.33z M80.04,182.38c0.35,0.55,0.67,1.23,0.8,1.74l-0.56,0.15h3.08l-0.43-0.11
			c0.29-0.48,0.64-1.22,0.87-1.78H80.04z"/>
		<path class="st3" d="M98.44,182.83c-0.85,0.66-1.78,1.33-2.59,1.89l-0.34-0.59l0.01,0.11c-1.75,0.38-3.59,0.77-4.99,1.05
			l-0.27-1.19c0.62-0.1,1.37-0.24,2.2-0.39v-3.95h-2.04v-1.13h2.04v-1.27h-1.34v-0.62c-0.14,0.13-0.28,0.27-0.43,0.41
			c-0.17-0.27-0.56-0.66-0.8-0.83c1.22-1.04,2.09-2.41,2.54-3.5h1.11c0.83,0.71,1.85,1.75,2.34,2.45l-0.84,0.98h0.11v1.11h-1.54
			v1.27h1.89v1.13h-1.89v3.74l1.82-0.35l0.03,0.38c0.7-0.43,1.64-1.05,2.59-1.68L98.44,182.83z M91.52,180.39
			c0.27,0.83,0.49,1.85,0.55,2.54l-0.92,0.24c-0.03-0.69-0.24-1.75-0.48-2.55L91.52,180.39z M95.01,176.25
			c-0.39-0.6-1.15-1.54-1.85-2.21c-0.39,0.67-0.91,1.46-1.58,2.21H95.01z M93.96,182.69c0.21-0.66,0.45-1.71,0.55-2.41l0.98,0.25
			c-0.24,0.81-0.49,1.75-0.7,2.38L93.96,182.69z M100.58,180.98c0.59,1.13,1.46,2.2,2.69,2.83c-0.25,0.24-0.66,0.74-0.84,1.07
			c-1.22-0.76-2.07-1.99-2.65-3.19v2.69c0,0.59-0.08,0.91-0.46,1.11c-0.36,0.18-0.91,0.2-1.67,0.2c-0.03-0.32-0.18-0.81-0.32-1.13
			c0.46,0.01,0.91,0.01,1.05,0.01c0.15-0.01,0.2-0.06,0.2-0.21v-5.78h-3.01v-1.12h5.13v-0.99h-4.13v-1.02h4.13v-1h-4.41v-1.09h5.62
			v4.1h1.09v1.12h-3.21v0.35c0.17,0.6,0.39,1.26,0.7,1.89c0.5-0.5,1.12-1.29,1.47-1.85l1.02,0.64c-0.56,0.66-1.22,1.36-1.74,1.83
			L100.58,180.98z M96.65,179.17c0.57,0.53,1.22,1.29,1.5,1.81l-0.94,0.63c-0.25-0.53-0.87-1.32-1.43-1.88L96.65,179.17z"/>
		<path class="st3" d="M109.08,176.12c-0.32,0.59-0.71,1.18-1.13,1.75v7.83h-1.22v-6.37c-0.45,0.49-0.91,0.94-1.37,1.3
			c-0.13-0.27-0.5-0.91-0.71-1.19c1.23-0.9,2.51-2.31,3.29-3.73L109.08,176.12z M108.8,173.26c-0.84,1.2-2.13,2.52-3.32,3.35
			c-0.15-0.25-0.49-0.71-0.7-0.94c1.05-0.73,2.26-1.89,2.84-2.86L108.8,173.26z M116.5,180.34c-0.5,1.23-1.29,2.21-2.27,3.01
			c1.07,0.57,2.33,0.99,3.68,1.23c-0.27,0.27-0.62,0.79-0.78,1.12c-1.49-0.32-2.82-0.87-3.95-1.61c-1.23,0.76-2.66,1.29-4.16,1.62
			c-0.13-0.32-0.39-0.85-0.63-1.11c1.34-0.24,2.65-0.67,3.77-1.29c-0.53-0.45-1-0.97-1.4-1.53c-0.48,0.42-0.98,0.77-1.48,1.08
			c-0.17-0.25-0.59-0.76-0.87-0.97c1.28-0.66,2.51-1.67,3.32-2.83c-1.12,0.03-2.16,0.06-3.03,0.08l-0.11-1.18
			c0.62,0,1.34-0.01,2.16-0.03c0.25-0.21,0.53-0.45,0.8-0.69c-0.64-0.67-1.68-1.5-2.58-2.09l0.78-0.84
			c0.25,0.17,0.53,0.34,0.81,0.53c0.59-0.63,1.23-1.46,1.64-2.09l1.13,0.59c-0.62,0.73-1.32,1.53-1.93,2.13
			c0.41,0.31,0.77,0.62,1.06,0.91c0.9-0.87,1.75-1.78,2.38-2.58l1.16,0.64c-1.06,1.12-2.4,2.41-3.64,3.45
			c1.02-0.01,2.1-0.03,3.19-0.06c-0.29-0.39-0.6-0.76-0.9-1.09l1.02-0.55c0.84,0.91,1.82,2.17,2.21,3.03l-1.08,0.63
			c-0.13-0.28-0.32-0.62-0.55-0.98c-1.04,0.04-2.1,0.08-3.11,0.11c-0.21,0.34-0.43,0.67-0.69,0.99h3l0.22-0.04L116.5,180.34z
			 M111.58,181.05c0.41,0.6,0.95,1.15,1.58,1.62c0.66-0.48,1.21-1.04,1.61-1.67h-3.17L111.58,181.05z"/>
		<path class="st3" d="M119.66,182.33l1.15-1.01c0.99,0.81,2.3,2.13,3.1,3.1l-1.19,1.01C121.83,184.34,120.64,183.15,119.66,182.33z
			"/>
		<path class="st3" d="M145.27,184.31c0.55,0,0.63-0.22,0.69-1.92c0.28,0.24,0.85,0.43,1.22,0.53c-0.15,2.1-0.52,2.62-1.78,2.62
			h-2.07c-1.47,0-1.83-0.39-1.83-1.71v-2.54h-2.02c-0.32,2.23-1.19,3.66-4.47,4.4c-0.13-0.34-0.48-0.88-0.74-1.15
			c2.87-0.56,3.56-1.58,3.82-3.25h-1.81v-8.03h8.91v8.03h-2.37v2.54c0,0.42,0.1,0.48,0.66,0.48H145.27z M137.54,175.62h6.33v-1.18
			h-6.33V175.62z M137.54,177.87h6.33v-1.19h-6.33V177.87z M137.54,180.15h6.33v-1.21h-6.33V180.15z"/>
		<path class="st3" d="M153.44,181.39c-0.2-0.36-0.62-0.97-1.02-1.51v5.77h-1.26v-5.56c-0.52,1.23-1.13,2.4-1.74,3.17
			c-0.14-0.36-0.43-0.9-0.64-1.21c0.85-0.98,1.75-2.69,2.28-4.19h-1.92v-1.22h2.02v-1.88c-0.6,0.11-1.21,0.2-1.76,0.27
			c-0.06-0.29-0.22-0.73-0.38-1.01c1.5-0.21,3.24-0.6,4.23-1.02l0.9,0.99c-0.5,0.2-1.09,0.36-1.72,0.52v2.13h1.42v-0.24h3.29v-0.62
			h-2.58v-0.81h2.58v-0.6h-2.86v-0.84h2.86v-0.71h1.3v0.71h3.04v0.84h-3.04v0.6h2.7v0.81h-2.7v0.62h3.36v0.85h-7.87v0.6h-1.5v0.69
			c0.46,0.41,1.53,1.51,1.78,1.82L153.44,181.39z M161.05,183.43h-4.67l0.97,0.62c-0.84,0.66-2.21,1.33-3.33,1.68
			c-0.2-0.25-0.56-0.62-0.83-0.84c1.09-0.31,2.37-0.91,3.04-1.46h-1.48v-5.58h6.3V183.43z M159.83,178.7h-3.91v0.76h3.91V178.7z
			 M159.83,180.25h-3.91v0.77h3.91V180.25z M159.83,181.82h-3.91v0.77h3.91V181.82z M159.3,183.43c0.92,0.53,2,1.19,2.65,1.62
			l-1.13,0.63c-0.55-0.42-1.53-1.09-2.38-1.62L159.3,183.43z"/>
		<path class="st3" d="M175.64,174.66v8h-1.34v-0.7h-3.56v3.71h-1.34v-3.71h-3.46v0.77h-1.29v-8.07h4.75v-1.83h1.34v1.83H175.64z
			 M165.93,175.91v1.75h3.46v-1.75H165.93z M169.39,180.71v-1.85h-3.46v1.85H169.39z M170.73,175.91v1.75h3.56v-1.75H170.73z
			 M174.29,180.71v-1.85h-3.56v1.85H174.29z"/>
		<path class="st3" d="M183.58,176.16h-5.23v-1.04h5.23V176.16z M183.12,184.9h-3.01v0.59h-1.12v-4.71h4.13V184.9z M183.11,178.04
			H179v-1.01h4.1V178.04z M179,178.89h4.1v1.02H179V178.89z M183.08,174.3h-4.02v-1.02h4.02V174.3z M180.11,181.83v2.02H182v-2.02
			H180.11z M191.19,177v0.95h-7.63V177h3.18v-0.77h-2.48v-0.91h2.48v-0.7h-2.84v-0.95h2.84v-0.85h1.23v0.85h2.94v0.95h-2.94v0.7
			h2.72v0.91h-2.72V177H191.19z M190.39,184.37c0,0.59-0.13,0.9-0.52,1.08c-0.42,0.17-1.04,0.17-1.92,0.17
			c-0.04-0.31-0.18-0.76-0.34-1.05c0.57,0.03,1.15,0.01,1.32,0.01c0.18-0.01,0.24-0.06,0.24-0.22v-1.29h-3.4v2.58h-1.2v-6.99h5.83
			V184.37z M185.77,179.61v0.84h3.4v-0.84H185.77z M189.17,182.17v-0.84h-3.4v0.84H189.17z"/>
	</g>
</g>
<g>
	<g>
		<path class="st4" d="M136.13,47.99H85.31c-1.22,0-2.21,0.99-2.21,2.21v90.58c0,1.22,0.99,2.21,2.21,2.21h69.37
			c1.22,0,2.21-0.99,2.21-2.21V68.76L136.13,47.99z M135.46,54.83l15.04,15.04h-15.04V54.83z M151.59,137.69H88.41V53.29h42.64
			v16.69c0,1.18,0.49,2.27,1.26,3.04c0.77,0.77,1.86,1.26,3.04,1.26h16.24V137.69z"/>
		<rect x="100.53" y="100.34" class="st4" width="38.66" height="4.42"/>
		<rect x="100.53" y="111.52" class="st4" width="38.66" height="4.42"/>
		<rect x="100.53" y="122.71" class="st4" width="38.66" height="4.42"/>
	</g>
	<g>
		<g>
			<path class="st4" d="M101.07,83.63c-1.3,1.01-1.51,4.13-1.36,4.8c0.15,0.67,1.64,1.17,3.77,1.17c2.13,0,28.46,0,28.46,0
				s3.62-0.18,4.71-0.45c1.09-0.27,3.44-1.22,3.44-1.58c0-0.36,0-1.87,0-2.45s-0.39-0.77-0.6-1.31c-0.21-0.54,0.26-2.3-0.47-2.6
				c-0.74-0.29-2.73,0.02-5.15-1.09c-2.42-1.11-5.1-2.14-12.27-2.14c-7.17,0-7.19,3.22-9.98,3.78
				C108.82,82.32,102.36,82.63,101.07,83.63z"/>
			<g>
				<circle class="st4" cx="105.97" cy="88.18" r="3.15"/>
			</g>
			<g>
				<circle class="st4" cx="132.12" cy="88.18" r="3.15"/>
			</g>
		</g>
	</g>
</g>
</svg>
