<?xml version="1.0" encoding="utf-8"?>
<!-- Generator: Adobe Illustrator 24.0.1, SVG Export Plug-In . SVG Version: 6.00 Build 0)  -->
<svg version="1.1" id="レイヤー_1" xmlns="http://www.w3.org/2000/svg" xmlns:xlink="http://www.w3.org/1999/xlink" x="0px"
	 y="0px" viewBox="0 0 280 200" style="enable-background:new 0 0 280 200;" xml:space="preserve">
<style type="text/css">
	.st0{fill:none;}
	.st1{fill:url(#SVGID_1_);}
	.st2{fill:url(#SVGID_2_);}
	.st3{fill:url(#SVGID_3_);}
	.st4{fill:url(#SVGID_4_);}
	.st5{fill:url(#SVGID_5_);}
	.st6{fill:url(#SVGID_6_);}
	.st7{fill:url(#SVGID_7_);}
	.st8{fill:url(#SVGID_8_);}
	.st9{fill:#3E3A39;}
	.st10{fill:#053B7C;}
	.st11{fill-rule:evenodd;clip-rule:evenodd;}
	.st12{fill-rule:evenodd;clip-rule:evenodd;fill:#0082FC;}
	.st13{fill:#D0A867;}
	.st14{fill:#FFFFFF;}
</style>
<g>
	<rect y="-0.3" class="st0" width="280" height="200"/>
	<g id="レイヤー_2_1_">
		<g id="main">
			
				<linearGradient id="SVGID_1_" gradientUnits="userSpaceOnUse" x1="174.021" y1="745.9343" x2="174.021" y2="720.7151" gradientTransform="matrix(1 0 0 -1 0 770)">
				<stop  offset="0" style="stop-color:#1A266A"/>
				<stop  offset="1" style="stop-color:#2560A7"/>
			</linearGradient>
			<path class="st1" d="M160.14,48.15V24.52h18.67c1.47-0.03,2.94,0.12,4.38,0.43c1.03,0.22,1.99,0.69,2.79,1.38
				c0.73,0.67,1.24,1.55,1.47,2.51c0.31,1.23,0.46,2.51,0.43,3.78v7.41c0.03,1.28-0.12,2.55-0.43,3.79
				c-0.24,0.96-0.75,1.83-1.47,2.5c-0.8,0.69-1.76,1.16-2.79,1.38c-1.44,0.32-2.91,0.47-4.38,0.43L160.14,48.15z M182.67,32.87
				c0.01-0.61-0.05-1.22-0.19-1.82c-0.1-0.45-0.33-0.86-0.66-1.18c-0.35-0.31-0.77-0.52-1.23-0.62c-0.64-0.14-1.29-0.2-1.94-0.19
				h-13.21v14.58h13.23c0.61,0.01,1.23-0.05,1.83-0.17c0.46-0.1,0.89-0.31,1.25-0.61c0.33-0.3,0.58-0.69,0.71-1.11
				c0.16-0.6,0.24-1.22,0.22-1.84L182.67,32.87z"/>
			
				<linearGradient id="SVGID_2_" gradientUnits="userSpaceOnUse" x1="197.9162" y1="745.9343" x2="197.9162" y2="720.7151" gradientTransform="matrix(1 0 0 -1 0 770)">
				<stop  offset="0" style="stop-color:#1A266A"/>
				<stop  offset="1" style="stop-color:#2560A7"/>
			</linearGradient>
			<path class="st2" d="M191.84,48.15V37.27c-0.02-1.22,0.14-2.43,0.49-3.6c0.29-0.93,0.82-1.78,1.54-2.44
				c0.78-0.68,1.72-1.16,2.72-1.4c1.33-0.32,2.69-0.47,4.06-0.45h3.34v4.19h-3.21c-0.61-0.01-1.21,0.05-1.81,0.17
				c-0.42,0.1-0.8,0.3-1.11,0.59c-0.3,0.31-0.52,0.69-0.62,1.11c-0.14,0.6-0.2,1.22-0.19,1.84v10.84L191.84,48.15z"/>
			
				<linearGradient id="SVGID_3_" gradientUnits="userSpaceOnUse" x1="209.7188" y1="745.9343" x2="209.7188" y2="720.7151" gradientTransform="matrix(1 0 0 -1 0 770)">
				<stop  offset="0" style="stop-color:#1A266A"/>
				<stop  offset="1" style="stop-color:#2560A7"/>
			</linearGradient>
			<path class="st3" d="M208.85,28.3c-0.49,0.05-0.98-0.09-1.37-0.39c-0.3-0.33-0.44-0.76-0.4-1.2V24.7c-0.04-0.44,0.1-0.88,0.4-1.2
				c0.4-0.28,0.89-0.4,1.37-0.36h1.69c0.5-0.05,0.99,0.08,1.4,0.36c0.3,0.33,0.44,0.76,0.4,1.2v2.01c0.04,0.44-0.11,0.88-0.4,1.2
				c-0.4,0.3-0.9,0.44-1.4,0.39H208.85z M207.08,48.15v-18.3h5.27v18.3L207.08,48.15z"/>
			
				<linearGradient id="SVGID_4_" gradientUnits="userSpaceOnUse" x1="228.767" y1="745.9343" x2="228.767" y2="720.7151" gradientTransform="matrix(1 0 0 -1 0 770)">
				<stop  offset="0" style="stop-color:#1A266A"/>
				<stop  offset="1" style="stop-color:#2560A7"/>
			</linearGradient>
			<path class="st4" d="M232.22,46.9c-0.37,0.53-0.83,0.97-1.37,1.32c-0.66,0.36-1.41,0.53-2.16,0.49
				c-0.77,0.05-1.55-0.12-2.23-0.49c-0.53-0.34-0.98-0.77-1.35-1.28l-10.03-17.53h6.11l7.57,14.35l7.61-14.37h6.09L232.22,46.9z"/>
			
				<linearGradient id="SVGID_5_" gradientUnits="userSpaceOnUse" x1="255.0999" y1="745.9343" x2="255.0999" y2="720.7151" gradientTransform="matrix(1 0 0 -1 0 770)">
				<stop  offset="0" style="stop-color:#1A266A"/>
				<stop  offset="1" style="stop-color:#2560A7"/>
			</linearGradient>
			<path class="st5" d="M248.02,40.67v0.86c-0.01,0.47,0.04,0.93,0.14,1.38c0.07,0.32,0.25,0.6,0.5,0.81
				c0.29,0.21,0.62,0.35,0.97,0.4c0.5,0.07,1,0.11,1.51,0.1h16.18v3.91h-16.18c-2.97,0-5.1-0.56-6.38-1.69
				c-1.27-1.11-1.91-2.94-1.91-5.44v-4.31c-0.03-1.17,0.11-2.33,0.4-3.46c0.23-0.87,0.72-1.64,1.39-2.23
				c0.76-0.61,1.65-1.03,2.61-1.23c1.36-0.28,2.74-0.41,4.13-0.38h9.08c1.13-0.03,2.25,0.1,3.34,0.38c0.77,0.22,1.49,0.6,2.11,1.11
				c0.52,0.43,0.9,0.99,1.11,1.63c0.21,0.67,0.32,1.36,0.31,2.06v6.17L248.02,40.67z M262.16,34.91c0.06-0.47-0.11-0.94-0.47-1.25
				c-0.51-0.25-1.07-0.35-1.64-0.31h-8.6c-0.54,0-1.09,0.03-1.63,0.09c-0.38,0.04-0.75,0.17-1.06,0.4c-0.29,0.23-0.49,0.55-0.57,0.9
				c-0.13,0.52-0.19,1.06-0.18,1.59v1h14.14V34.91z"/>
			
				<linearGradient id="SVGID_6_" gradientUnits="userSpaceOnUse" x1="81.4304" y1="744.1951" x2="81.4304" y2="722.5323" gradientTransform="matrix(1 0 0 -1 0 770)">
				<stop  offset="0" style="stop-color:#4C4948"/>
				<stop  offset="1" style="stop-color:#717071"/>
			</linearGradient>
			<path class="st6" d="M77.07,43.54c-0.48-0.11-0.93-0.35-1.29-0.68c-0.32-0.32-0.54-0.73-0.65-1.17c-0.14-0.57-0.2-1.16-0.19-1.75
				V24.66h-5.25v15.5c-0.02,1.27,0.12,2.54,0.42,3.78c0.25,0.95,0.76,1.82,1.47,2.5c0.79,0.68,1.74,1.16,2.76,1.38
				c1.42,0.31,2.87,0.46,4.33,0.42h14.49v-4.48H79.13C78.44,43.77,77.75,43.7,77.07,43.54z"/>
			
				<linearGradient id="SVGID_7_" gradientUnits="userSpaceOnUse" x1="98.5288" y1="744.1951" x2="98.5288" y2="722.5323" gradientTransform="matrix(1 0 0 -1 0 770)">
				<stop  offset="0" style="stop-color:#4C4948"/>
				<stop  offset="1" style="stop-color:#717071"/>
			</linearGradient>
			<rect x="95.9" y="24.66" class="st7" width="5.25" height="23.58"/>
			
				<linearGradient id="SVGID_8_" gradientUnits="userSpaceOnUse" x1="130.2964" y1="744.1951" x2="130.2964" y2="722.5323" gradientTransform="matrix(1 0 0 -1 0 770)">
				<stop  offset="0" style="stop-color:#4C4948"/>
				<stop  offset="0.02" style="stop-color:#4D4A49"/>
				<stop  offset="1" style="stop-color:#717071"/>
			</linearGradient>
			<path class="st8" d="M148.14,48.21h7.19l-13.87-12.11l13.49-11.45h-7.09l-10.83,9.49h-4.2v-9.49h-4.97V41.7l-17.33-16.72
				c-0.28-0.27-0.61-0.48-0.97-0.62c-0.48-0.17-0.98-0.25-1.48-0.23c-0.72-0.03-1.42,0.15-2.03,0.54c-0.53,0.38-0.82,0.99-0.78,1.64
				v21.92h4.88V31.49l17.18,16.17c0.38,0.37,0.84,0.66,1.34,0.85c0.49,0.17,1.01,0.26,1.54,0.26c0.67,0.03,1.33-0.14,1.9-0.5
				c0.51-0.39,0.79-1.03,0.72-1.67v-7.8h4.46L148.14,48.21z"/>
			<path class="st9" d="M48.61,30.82l2.33-0.84l0,0c-2.78-7.69-11.26-11.68-18.95-8.92l0,0l0.78,2.31l0,0
				c6.41-2.33,13.5,0.98,15.83,7.39c0,0,0,0.01,0,0.01L48.61,30.82z"/>
			<path class="st9" d="M43.77,32.61l2.37-0.88l0,0c-1.81-5.02-7.34-7.63-12.37-5.83c-0.02,0.01-0.04,0.01-0.05,0.02l0,0l0.84,2.33
				l0,0c3.73-1.33,7.84,0.6,9.2,4.33L43.77,32.61z"/>
			<path class="st9" d="M30.99,18.3c9.2-3.31,19.35,1.46,22.67,10.66l0,0L56,28.15l0,0c-3.77-10.5-15.33-15.95-25.83-12.18
				c-0.01,0-0.01,0-0.02,0.01l0,0L30.99,18.3z"/>
			<path class="st9" d="M36.71,31.18c-0.34,0.13-0.65,0.32-0.91,0.57l1.17,3.27l3.27-1.17c0.03-0.38-0.02-0.76-0.14-1.11
				C39.58,31.38,38.07,30.69,36.71,31.18z"/>
			<path class="st10" d="M21.03,33.99c-3.49,7.44-0.28,16.31,7.17,19.79c7.44,3.49,16.31,0.28,19.79-7.17c1.87-4,1.87-8.62,0-12.62
				l-12.67,4.58h0.08c1.15,0.02,2.06,0.98,2.04,2.13c-0.02,1.15-0.98,2.06-2.13,2.04c-1.15-0.02-2.06-0.98-2.04-2.13
				c0.02-1.12,0.92-2.02,2.04-2.04l-4.6-12.65C26.44,27.04,22.89,29.99,21.03,33.99z M46.14,36.39c0.61,1.82,0.8,3.76,0.55,5.66
				c-0.25,1.9-0.93,3.72-2,5.32c-3.12-0.74-5.26-3.34-4.88-6.23S42.97,36.3,46.14,36.39z M35.45,45.66c2.8-0.59,5.57,1.34,6.59,4.38
				c-3.06,2.4-7.06,3.25-10.84,2.3c-0.31-3.19,1.48-6.09,4.27-6.68H35.45z M27.41,50.44c-3.19-2.23-5.18-5.79-5.4-9.68
				c2.94-1.24,6.29-0.36,7.64,2.11C31,45.34,30.03,48.63,27.41,50.44z M30.54,36.57c-2.17,2.11-5.58,2.23-7.9,0.29
				c1.08-3.74,3.84-6.76,7.46-8.18C32.2,31.07,32.44,34.47,30.54,36.57z"/>
			<path class="st10" d="M54.52,31.58l-4.91,1.78c3.82,8.34,0.16,18.2-8.18,22.02s-18.2,0.16-22.02-8.18S19.25,29,27.59,25.18
				c0.81-0.37,1.65-0.68,2.51-0.91l-1.8-4.91c-11.56,3.41-18.16,15.54-14.75,27.1s15.54,18.16,27.1,14.75
				c11.56-3.41,18.16-15.54,14.75-27.1c-0.25-0.85-0.55-1.68-0.9-2.49L54.52,31.58z"/>
			<g id="Bluetooth">
				<path class="st11" d="M217.02,62.9h0.62c1.17,0,1.61,0.58,1.61,1.75c0,1.17-0.38,1.75-1.42,1.75h-0.81V62.9z M217.02,58.24h0.74
					c0.87,0,1.28,0.55,1.28,1.61c0.09,0.71-0.42,1.35-1.13,1.44c-0.06,0.01-0.13,0.01-0.19,0.01h-0.7v-3.04V58.24z M215.05,68h3.09
					c2.23,0,3.07-1.42,3.07-3.34c0.13-1.15-0.51-2.25-1.58-2.7c0.9-0.44,1.44-1.39,1.36-2.39c0.2-1.46-0.83-2.81-2.29-3.01
					c-0.25-0.03-0.5-0.03-0.74,0h-2.9V68z"/>
				<polygon points="223.74,68 223.74,56.62 221.98,56.62 221.98,68 223.74,68 				"/>
				<path d="M228.48,59.53v6.69c-0.31,0.29-0.7,0.47-1.11,0.54c-0.31,0.03-0.59-0.2-0.62-0.52c-0.01-0.06,0-0.13,0.01-0.19v-6.52
					H225v6.86c0,1.11,0.55,1.77,1.48,1.77c0.83-0.01,1.61-0.37,2.14-1V68h1.67v-8.47L228.48,59.53z"/>
				<path class="st11" d="M233.09,62.71v-0.45c0-0.98,0.35-1.39,0.97-1.39s0.98,0.41,0.98,1.39v0.45H233.09z M236.81,62.57
					c0-1.86-0.72-3.16-2.74-3.16c-2.02,0-2.74,1.29-2.74,3.16v2.5c0,1.85,0.72,3.14,2.74,3.14c2.02,0,2.71-1.23,2.74-3.02h-1.76
					v0.19c0,0.98-0.35,1.38-0.98,1.38c-0.64,0-0.97-0.4-0.97-1.38v-1.23h3.7v-1.64L236.81,62.57z"/>
				<path d="M267.32,57.85c-0.01,0.68-0.57,1.23-1.25,1.24c-0.68,0.01-1.23-0.54-1.24-1.22c0-0.01,0-0.01,0-0.02
					c-0.07-0.69,0.44-1.3,1.13-1.36s1.3,0.44,1.36,1.13C267.33,57.69,267.33,57.77,267.32,57.85z M265.09,57.85
					c0,0.54,0.42,0.97,0.96,0.99c0.54,0,0.98-0.44,0.98-0.98c0-0.54-0.44-0.98-0.98-0.98c-0.52,0.01-0.94,0.44-0.94,0.96
					L265.09,57.85z M266.28,58.53l-0.38-0.6l0,0v0.6h-0.23v-1.39h0.41c0.32,0,0.46,0.13,0.46,0.33c0.01,0.21-0.15,0.39-0.36,0.4
					c0,0,0,0,0,0l0.13,0.19l0.28,0.43L266.28,58.53z M266.04,57.36h-0.16v0.41h0.1c0.21,0,0.29-0.12,0.29-0.23
					c0-0.11-0.04-0.19-0.21-0.19L266.04,57.36z"/>
				<path d="M238.37,60.98v5.27c0,1.29,0.74,1.91,2.06,1.91c0.3,0.02,0.59-0.01,0.88-0.09v-1.52h-0.58c-0.41,0-0.6-0.25-0.6-0.69
					v-4.88h1.18v-1.45h-1.17V57.3h-1.76v2.23h-0.98v1.45H238.37z"/>
				<path class="st11" d="M245.77,65.33c0,0.98-0.35,1.38-0.97,1.38c-0.62,0-0.98-0.4-0.98-1.38v-3.12c0-0.98,0.35-1.39,0.98-1.39
					c0.64,0,0.97,0.41,0.97,1.39V65.33z M242.05,65.02c0,1.85,0.74,3.14,2.75,3.14c2.02,0,2.74-1.29,2.74-3.14v-2.5
					c0-1.86-0.72-3.16-2.74-3.16c-2.02,0-2.75,1.29-2.75,3.16C242.05,62.52,242.05,65.02,242.05,65.02z"/>
				<path class="st11" d="M252.18,65.33c0,0.98-0.35,1.38-0.97,1.38s-0.98-0.4-0.98-1.38v-3.12c0-0.98,0.35-1.39,0.98-1.39
					c0.64,0,0.97,0.41,0.97,1.39V65.33z M248.47,65.02c0,1.85,0.72,3.14,2.74,3.14c2.02,0,2.74-1.29,2.74-3.14v-2.5
					c0-1.86-0.72-3.16-2.74-3.16c-2.02,0-2.74,1.29-2.74,3.16C248.47,62.52,248.47,65.02,248.47,65.02z"/>
				<path d="M255.46,60.98v5.27c0,1.29,0.75,1.91,2.07,1.91c0.3,0.01,0.59-0.02,0.88-0.09v-1.52h-0.59c-0.4,0-0.59-0.25-0.59-0.69
					v-4.88h1.18v-1.45h-1.18V57.3h-1.77v2.23h-0.97v1.45H255.46z"/>
				<path d="M261.32,68v-6.69c0.31-0.29,0.7-0.48,1.11-0.55c0.31-0.03,0.59,0.19,0.62,0.51c0,0.04,0,0.08,0,0.12v6.57h1.76v-6.81
					c0-1.11-0.55-1.78-1.47-1.78c-0.79-0.01-1.54,0.34-2.05,0.95v-3.69h-1.77V68H261.32z"/>
			</g>
			<path id="Bug" class="st12" d="M206.87,58.14l1.36,1.36l-1.36,1.37V58.14z M206.87,66.49l1.36-1.36l-1.36-1.37V66.49z
				 M205.41,62.31l-2.94-2.94l0.86-0.85l2.34,2.34v-5.57l4.27,4.28l-2.82,2.81l2.82,2.82l-4.27,4.2v-5.57l-2.34,2.34l-0.86-0.85
				l2.94-2.97L205.41,62.31z M206.2,70.56c3.6,0,6.09-1.71,6.09-8.25s-2.49-8.24-6.09-8.24c-3.6,0-6.08,1.71-6.08,8.24
				C200.12,68.84,202.6,70.56,206.2,70.56z"/>
		</g>
	</g>
	<path class="st13" d="M267.51,130.44H12.49c-6.6,0-12-5.4-12-12v-16.67c0-6.6,5.4-12,12-12h255.02c6.6,0,12,5.4,12,12v16.67
		C279.51,125.04,274.11,130.44,267.51,130.44z"/>
	<path class="st13" d="M267.51,182.08H12.49c-6.6,0-12-5.4-12-12v-16.67c0-6.6,5.4-12,12-12h255.02c6.6,0,12,5.4,12,12v16.67
		C279.51,176.68,274.11,182.08,267.51,182.08z"/>
	<g>
		<path class="st14" d="M97.24,103.19c-1.27,2.11-3.83,5.51-6.48,7.4l-2.81-2.24c2.16-1.32,4.26-3.7,4.97-5.02H78.86
			c-1.13,0-2.02,0.08-3.29,0.19v-3.75c1.03,0.16,2.16,0.27,3.29,0.27h14.55c0.76,0,2.24-0.08,2.75-0.24l2.13,2
			C98,102.14,97.49,102.78,97.24,103.19z M79.81,121.57l-3.16-2.56c0.86-0.3,1.84-0.76,2.83-1.48c3.43-2.38,4.08-5.24,4.08-9.66
			c0-0.84-0.05-1.57-0.19-2.43h3.91C87.28,112.12,87.15,117.63,79.81,121.57z"/>
		<path class="st14" d="M122.78,97.04c1.75,0,3.21,1.46,3.21,3.24c0,1.75-1.46,3.21-3.21,3.21c-0.11,0-0.24,0-0.35-0.03
			c-0.08,0.3-0.14,0.57-0.22,0.81c-0.62,2.65-1.78,6.83-4.05,9.83c-2.43,3.24-6.05,5.91-10.85,7.48l-2.94-3.24
			c5.34-1.24,8.39-3.59,10.58-6.34c1.78-2.24,2.81-5.29,3.16-7.61h-12.55c-1.24,0-2.54,0.05-3.21,0.11v-3.81
			c0.78,0.11,2.32,0.22,3.21,0.22h12.5c0.38,0,0.97-0.03,1.54-0.11c-0.03-0.16-0.05-0.32-0.05-0.51
			C119.55,98.49,121,97.04,122.78,97.04z M122.78,101.81c0.84,0,1.54-0.7,1.54-1.54c0-0.86-0.7-1.57-1.54-1.57
			c-0.86,0-1.57,0.7-1.57,1.57C121.22,101.11,121.92,101.81,122.78,101.81z"/>
		<path class="st14" d="M135.59,101.41v9.12c0,0.67,0.03,1.73,0.08,2.35h-3.91c0.03-0.51,0.13-1.57,0.13-2.38v-9.1
			c0-0.51-0.03-1.46-0.11-2.08h3.89C135.61,99.95,135.59,100.54,135.59,101.41z M148.08,101.81v5.34c0,5.8-1.13,8.31-3.13,10.53
			c-1.78,1.94-4.59,3.27-6.56,3.89l-2.81-2.97c2.67-0.62,4.86-1.65,6.48-3.4c1.86-2.02,2.21-4.05,2.21-8.26v-5.13
			c0-1.08-0.05-1.94-0.16-2.7h4.08C148.14,99.87,148.08,100.73,148.08,101.81z"/>
		<path class="st14" d="M158.54,104.35c-0.54,0.51-1.05,1-1.59,1.4c-0.59-0.57-1.89-1.59-2.62-2.11c2.27-1.48,4.4-3.94,5.59-6.45
			l3.13,0.92c-0.3,0.65-0.65,1.27-1.05,1.89h16.2v2.83h-2.54v3.46h3.51v2.86h-3.51v3.43h3.13v2.86h-23.46v-2.86h3.21v-3.43h-3.62
			v-2.86h3.62V104.35z M154.65,121.19c1.19-1.13,2.4-3.21,3.02-5.18l3.11,0.76c-0.59,2.05-1.76,4.26-3.08,5.67L154.65,121.19z
			 M161.37,106.29h1.94v-3.46h-1.94V106.29z M161.37,112.58h1.94v-3.43h-1.94V112.58z M165.48,116.6c0.32,1.65,0.65,3.78,0.67,5.05
			l-3.13,0.46c0-1.3-0.22-3.51-0.51-5.16L165.48,116.6z M167.99,106.29v-3.46h-2v3.46H167.99z M165.99,109.15v3.43h2v-3.43H165.99z
			 M170.87,116.5c0.65,1.59,1.32,3.7,1.57,5.02l-3.21,0.62c-0.16-1.29-0.78-3.48-1.38-5.13L170.87,116.5z M172.71,102.84h-2.05v3.46
			h2.05V102.84z M172.71,109.15h-2.05v3.43h2.05V109.15z M176.27,115.9c1.21,1.65,2.73,3.91,3.4,5.4l-3.29,1.11
			c-0.57-1.43-2-3.81-3.19-5.53L176.27,115.9z"/>
		<path class="st14" d="M190.59,116.36c-0.4-0.86-1.16-2.27-1.94-3.51v9.47h-2.97v-9.53c-0.86,2.51-1.94,5.02-3.11,6.64
			c-0.27-0.97-0.97-2.43-1.46-3.32c1.35-1.65,2.73-4.53,3.56-6.99h-3.08v-3h4.08V97.3h2.97v8.83h3.99v3h-3.99v0.19
			c0.78,0.78,3.35,3.81,3.91,4.56L190.59,116.36z M182.78,105.65c-0.05-1.67-0.59-4.29-1.21-6.24l2.24-0.59
			c0.7,1.94,1.24,4.51,1.38,6.18L182.78,105.65z M193.12,99.28c-0.7,2.16-1.48,4.72-2.16,6.29l-2.02-0.57
			c0.54-1.7,1.19-4.43,1.48-6.32L193.12,99.28z M203.6,115.09v7.29h-3.02v-6.75l-7.53,1.35l-0.49-3l8.02-1.43V97.17h3.02v14.85
			l2.75-0.51l0.49,3L203.6,115.09z M194.36,105.29c1.57,0.84,3.56,2.13,4.54,3.1l-1.62,2.56c-0.89-1-2.86-2.43-4.43-3.37
			L194.36,105.29z M198.28,104.32c-0.84-1.05-2.7-2.51-4.18-3.51l1.54-2.16c1.51,0.89,3.43,2.27,4.29,3.27L198.28,104.32z"/>
		<path class="st14" d="M59.37,169.52l2.29-2.75c1.43,1.32,3.32,2.21,5.07,2.21c2.08,0,3.19-0.89,3.19-2.29c0-1.49-1.21-1.94-3-2.7
			l-2.67-1.13c-2.02-0.84-4.05-2.46-4.05-5.37c0-3.27,2.86-5.78,6.91-5.78c2.32,0,4.64,0.92,6.26,2.56l-2.02,2.51
			c-1.27-1.05-2.59-1.65-4.24-1.65c-1.75,0-2.86,0.78-2.86,2.11c0,1.43,1.4,1.94,3.1,2.62l2.62,1.11c2.43,1,4.02,2.54,4.02,5.42
			c0,3.27-2.73,6.05-7.34,6.05C63.98,172.44,61.31,171.38,59.37,169.52z"/>
		<path class="st14" d="M77.54,152.06h3.99v20h-3.99V152.06z"/>
		<path class="st14" d="M86.45,152.06h4.43l3.4,9.37c0.43,1.24,0.81,2.56,1.21,3.83h0.13c0.43-1.27,0.78-2.59,1.21-3.83l3.32-9.37
			h4.43v20h-3.64v-8.34c0-1.89,0.3-4.67,0.51-6.56h-0.13l-1.62,4.7l-3.08,8.39h-2.29l-3.1-8.39l-1.59-4.7h-0.11
			c0.19,1.89,0.51,4.67,0.51,6.56v8.34h-3.59V152.06z"/>
		<path class="st14" d="M130.1,167.44c1.75,2.48,4.89,3.62,9.93,3.91c-0.7,0.76-1.51,2.13-1.94,3.08
			c-5.16-0.62-8.23-2.13-10.28-5.13c-1.32,2.19-4.43,4.18-11.31,5.16c-0.4-0.78-1.21-1.97-1.84-2.7c6.91-0.94,9.5-2.62,10.39-4.32
			h-9.72v-2.7h10.12v-1.59h3.24v1.59h10.61v2.7H130.1z M115.01,160.18c1.3-0.11,2.86-0.27,4.59-0.43v-2.24h-3.7v-2.4h3.7v-1.67
			h-4.16v-2.4h4.16v-1.84h2.97v1.84h3.78v2.4h-3.78v1.67H126v2.4h-3.43v1.92c1.27-0.13,2.56-0.27,3.83-0.4l0.03,1.43
			c2.75-1.62,3.4-4.1,3.62-7.5h-3.08v-2.7h12.12c0,0,0,0.86-0.03,1.21c-0.24,6.48-0.51,9.07-1.21,9.96
			c-0.54,0.7-1.11,0.94-1.89,1.05c-0.67,0.11-1.81,0.11-3,0.11c-0.03-0.89-0.38-2.13-0.84-2.86c0.97,0.08,1.84,0.08,2.24,0.08
			c0.38,0,0.59-0.05,0.84-0.32c0.38-0.46,0.59-2.19,0.78-6.53h-2.94c-0.32,4.56-1.32,7.91-5.24,10.01c-0.27-0.54-0.81-1.3-1.35-1.86
			v0.38c-3.97,0.51-8.15,1-11.2,1.35L115.01,160.18z"/>
		<path class="st14" d="M145.36,165.45c-0.27,2.54-0.84,5.24-1.62,6.96c-0.57-0.35-1.75-0.92-2.46-1.16c0.78-1.59,1.21-4,1.43-6.26
			L145.36,165.45z M166.36,153.76c0,0,0,1.08-0.03,1.48c-0.35,11.82-0.73,16.09-1.86,17.52c-0.76,1.03-1.46,1.32-2.59,1.48
			c-0.97,0.16-2.64,0.13-4.21,0.08c-0.05-0.92-0.49-2.32-1.08-3.24c1.7,0.16,3.24,0.16,3.97,0.16c0.51,0,0.81-0.11,1.13-0.46
			c0.81-0.84,1.21-4.78,1.51-13.98h-7.45c-0.73,1.32-1.48,2.51-2.29,3.48c-0.54-0.49-1.73-1.3-2.54-1.78
			c0.95,1.7,1.81,3.7,2.11,5.05l-2.43,1.13c-0.08-0.43-0.21-0.92-0.38-1.46l-1.54,0.11v11.09h-2.83v-10.88l-4,0.27l-0.27-2.81
			l2-0.08c0.4-0.51,0.84-1.08,1.24-1.67c-0.78-1.16-2.11-2.62-3.24-3.7l1.51-2.21c0.22,0.19,0.43,0.38,0.65,0.57
			c0.76-1.49,1.51-3.29,1.97-4.7l2.83,1c-0.97,1.86-2.08,3.94-3.05,5.45c0.35,0.38,0.68,0.78,0.95,1.13
			c0.97-1.51,1.84-3.08,2.48-4.43l2.73,1.13c-1.51,2.38-3.4,5.13-5.16,7.32l2.73-0.11c-0.3-0.65-0.62-1.3-0.94-1.86l2.27-1
			l0.19,0.32c2-2.13,3.59-5.59,4.45-8.99l3.29,0.7c-0.35,1.32-0.81,2.62-1.32,3.86H166.36z M151.11,164.83
			c0.73,1.59,1.43,3.7,1.75,5.08l-2.54,0.89c-0.22-1.38-0.92-3.56-1.59-5.21L151.11,164.83z M157.43,167.58
			c-0.51-1.7-1.92-4.29-3.29-6.24l2.56-1.3c1.4,1.86,2.94,4.35,3.51,6.05L157.43,167.58z"/>
		<path class="st14" d="M185.05,157.92c2.89,2.08,7.04,5.18,8.99,7.32l-2.73,2.46c-1.67-2-5.34-5.07-8.26-7.31v13.98h-3.51v-13.17
			c-2.46,2.62-5.34,4.97-8.58,6.64c-0.51-0.86-1.51-2.19-2.21-2.92c4.91-2.29,9.12-6.48,11.63-10.61h-10.77V151h23.4v3.29h-8.4
			c-0.46,0.84-1,1.67-1.57,2.48v2.81L185.05,157.92z"/>
		<path class="st14" d="M215.45,166.34c-0.67,1.38-1.51,2.51-2.51,3.46c2.62,0.73,4.97,1.46,6.8,2.11l-1.97,2.62
			c-2.05-0.84-4.78-1.78-7.83-2.67c-3.02,1.48-7.02,2.19-12.26,2.59c-0.21-0.92-0.73-2.05-1.21-2.75c3.56-0.13,6.48-0.46,8.88-1.08
			c-0.86-0.22-1.73-0.43-2.62-0.62l-0.3,0.4l-3.11-0.97c0.68-0.86,1.46-1.92,2.27-3.08h-5.61v-2.59h7.34
			c0.38-0.59,0.73-1.16,1.08-1.73h-6.69v-7.56h5.86v-1.54h-7.1v-2.78h23.51v2.78h-7.32v1.54h6.45v7.56h-11.04
			c-0.35,0.57-0.7,1.13-1.08,1.73h13.63v2.59H215.45z M200.74,159.51h2.83V157h-2.83V159.51z M204.38,167.66
			c1.67,0.35,3.37,0.76,5.02,1.19c1-0.67,1.81-1.51,2.46-2.51h-6.59L204.38,167.66z M206.6,154.46h3.05v-1.54h-3.05V154.46z
			 M209.65,159.51V157h-3.05v2.51H209.65z M212.67,157v2.51h3.24V157H212.67z"/>
	</g>
</g>
</svg>
