<?xml version="1.0" encoding="utf-8"?>
<!-- Generator: Adobe Illustrator 24.0.1, SVG Export Plug-In . SVG Version: 6.00 Build 0)  -->
<svg version="1.1" id="レイヤー_1" xmlns="http://www.w3.org/2000/svg" xmlns:xlink="http://www.w3.org/1999/xlink" x="0px"
	 y="0px" viewBox="0 0 694 430" style="enable-background:new 0 0 694 430;" xml:space="preserve">
<style type="text/css">
	.st0{fill:#EBEBEB;}
	.st1{fill:#00395B;}
	.st2{fill:#535353;}
	.st3{fill:#0089D9;}
	.st4{fill:#E62200;}
	.st5{fill:#20FF18;}
	.st6{fill:#CCCCCC;}
</style>
<g>
	<rect y="1" class="st0" width="694" height="57"/>
	<g>
		<g>
			<path class="st1" d="M123.77,30.11v0.49h4.48v1.01h-4.48v0.5h5.5v1.16h-12.56v-1.16h5.39v-0.5h-4.41V30.6h4.41v-0.49H118v-0.97
				h4.1v-0.53h-5.38v-1.15h5.38v-0.52h-3.95v-0.97h3.95v-0.88h1.67v0.88h3.91v1.48h1.6v1.15h-1.6v1.5H123.77z M118.47,33.71h9.29
				v4.54h-1.68v-0.41h-6v0.42h-1.61V33.71z M120.08,34.77v0.5h6v-0.5H120.08z M126.07,36.79v-0.55h-6v0.55H126.07z M123.77,27.46
				h2.25v-0.52h-2.25V27.46z M123.77,29.14h2.25v-0.53h-2.25V29.14z"/>
			<path class="st1" d="M135.81,37.13c0.95-0.42,2-1.13,2.54-1.74l1.36,0.87c-0.7,0.73-1.89,1.53-2.88,1.96
				c-0.25-0.31-0.7-0.76-1.05-1.05l-0.15,0.17c-0.39-0.39-1.12-0.97-1.82-1.48c-0.45,0.83-1.23,1.58-2.61,2.17
				c-0.15-0.36-0.59-0.94-0.88-1.23c1.69-0.69,2.28-1.65,2.46-2.58h-2.1v-1.43h2.18v-0.95h1.5v0.95h2.34v1.43h-2.38
				c-0.01,0.08-0.03,0.18-0.04,0.27c0.81,0.52,1.85,1.25,2.38,1.74L135.81,37.13z M132.9,30.22c-0.48,0.62-1.02,1.16-1.57,1.54
				c-0.22-0.34-0.66-0.83-0.95-1.08c0.74-0.41,1.51-1.12,2.06-1.86h-1.76v-1.3h2.23V25.3h1.44v2.21h2.25v1.3h-2.23
				c0.58,0.29,2.03,1.16,2.41,1.42l-0.87,1.16c-0.35-0.34-0.99-0.84-1.57-1.29v1.43h-1.44V30.22z M131.44,27.49
				c-0.07-0.45-0.35-1.12-0.66-1.64l1.12-0.42c0.31,0.5,0.62,1.15,0.71,1.6L131.44,27.49z M136.65,25.74
				c-0.34,0.64-0.66,1.26-0.94,1.69l-1.06-0.35c0.24-0.48,0.5-1.2,0.63-1.71L136.65,25.74z M138.9,27.99c0.08-0.29,0.14-0.6,0.2-0.9
				h-2.34v-1.42h6.64v1.42h-2.52c-0.11,0.31-0.24,0.62-0.35,0.9h2.52v7.38h-5.88v-7.38H138.9z M141.46,29.24h-2.8v0.85h2.8V29.24z
				 M141.46,31.24h-2.8v0.85h2.8V31.24z M141.46,33.26h-2.8v0.88h2.8V33.26z M141.42,35.49c0.76,0.52,1.81,1.29,2.33,1.82l-1.26,0.9
				c-0.46-0.53-1.47-1.34-2.24-1.9L141.42,35.49z"/>
		</g>
	</g>
	<g>
		<g>
			<path class="st1" d="M345.39,23.34h-5.59v1.89h-1.71v-1.89h-5.42v-1.5h5.42v-0.76h-4.03v-5.62h4.03V14.8h-5.08v-1.51h5.08v-1.13
				h1.71v1.13h5.18v1.51h-5.18v0.67h4.13v5.62h-4.13v0.76h5.59V23.34z M335.66,17.65h2.44V16.8h-2.44V17.65z M338.09,19.76V18.9
				h-2.44v0.85H338.09z M339.8,16.8v0.85h2.45V16.8H339.8z M342.25,18.9h-2.45v0.85h2.45V18.9z"/>
			<path class="st1" d="M359.46,23.72h-4.54v1.51h-1.6v-1.51h-4.23v-1.34h4.23v-0.66h-3.25v-4.38h3.25V16.7h-3.66v-1.25h3.66v-0.77
				h-4.17v3.07c0,2.23-0.21,5.45-1.5,7.45c-0.28-0.29-0.95-0.77-1.33-0.94c1.15-1.85,1.23-4.52,1.23-6.51v-4.52h5.01v-1.08h1.74
				v1.08h5.04v1.46h-4.43v0.77h4.06v1.25h-4.06v0.63h3.42v4.38h-3.42v0.66h4.54V23.72z M351.53,19.04h1.79v-0.69h-1.79V19.04z
				 M353.33,20.68v-0.69h-1.79v0.69H353.33z M354.92,18.35v0.69h1.89v-0.69H354.92z M356.81,19.99h-1.89v0.69h1.89V19.99z"/>
			<path class="st1" d="M372.05,11.95l1.33,0.59c-1.4,1.51-2.51,3.45-2.51,6.14s1.11,4.62,2.51,6.14l-1.33,0.59
				c-1.51-1.48-2.76-3.73-2.76-6.72S370.53,13.44,372.05,11.95z"/>
			<path class="st1" d="M387.38,22.99v1.64h-12.69v-1.64h5.41v-4.87h-4.5v-1.65h4.5v-4.3h1.79v4.3h4.57v1.65h-4.57v4.87H387.38z"/>
			<path class="st1" d="M391.7,20.25c0.43-0.18,0.87-0.36,1.29-0.55l0.38,1.47c-1.49,0.74-3.08,1.5-4.37,2.09l-0.67-1.68
				c0.5-0.18,1.12-0.42,1.82-0.69v-3.95h-1.64v-1.58h1.64v-3.04h1.55v3.04h1.42v1.58h-1.42V20.25z M399.18,23.47
				c0.77,0,0.91-0.32,1.04-1.75c0.35,0.25,0.99,0.52,1.46,0.6c-0.22,1.96-0.71,2.63-2.35,2.63h-2.98c-1.89,0-2.44-0.52-2.44-2.45
				v-3.6l-0.76,0.32l-0.62-1.48l1.37-0.57v-3.68h1.6v3l1.16-0.49v-3.87h1.55v3.19l1.11-0.48l0.29-0.2l0.29-0.2l1.16,0.41l-0.06,0.28
				c0,2.66-0.03,4.34-0.1,4.92c-0.04,0.64-0.29,0.98-0.71,1.16c-0.41,0.18-1.01,0.2-1.46,0.2c-0.04-0.43-0.17-1.05-0.35-1.4
				c0.24,0.03,0.55,0.03,0.67,0.03c0.17,0,0.25-0.06,0.31-0.31c0.03-0.22,0.04-1.25,0.04-3.24l-1.2,0.53v4.94h-1.55V17.7l-1.16,0.5
				v4.33c0,0.81,0.13,0.94,0.98,0.94H399.18z"/>
			<path class="st1" d="M403.96,25.4l-1.33-0.59c1.4-1.51,2.51-3.45,2.51-6.14s-1.11-4.62-2.51-6.14l1.33-0.59
				c1.51,1.48,2.76,3.73,2.76,6.72S405.47,23.92,403.96,25.4z"/>
			<path class="st1" d="M422.46,14.17c1.33-0.07,2.73-0.2,3.96-0.41l-0.01,1.62c-1.33,0.2-3.05,0.31-4.57,0.35
				c-0.24,0.52-0.52,1.02-0.8,1.43c0.36-0.17,1.12-0.28,1.58-0.28c0.85,0,1.55,0.36,1.86,1.08c0.73-0.34,1.32-0.57,1.89-0.83
				c0.55-0.24,1.04-0.46,1.55-0.73l0.7,1.62c-0.45,0.13-1.19,0.41-1.67,0.59c-0.63,0.25-1.43,0.56-2.28,0.95
				c0.01,0.78,0.04,1.82,0.06,2.47h-1.68c0.04-0.42,0.06-1.09,0.07-1.71c-1.05,0.6-1.61,1.15-1.61,1.85c0,0.77,0.66,0.98,2.03,0.98
				c1.19,0,2.75-0.15,3.98-0.39l-0.06,1.81c-0.92,0.13-2.65,0.24-3.96,0.24c-2.2,0-3.82-0.53-3.82-2.34c0-1.79,1.68-2.91,3.28-3.74
				c-0.21-0.35-0.59-0.48-0.98-0.48c-0.78,0-1.65,0.45-2.19,0.97c-0.42,0.42-0.83,0.92-1.3,1.54l-1.5-1.12
				c1.47-1.36,2.46-2.61,3.1-3.87c-0.07,0-0.13,0-0.18,0c-0.57,0-1.6-0.03-2.37-0.08v-1.64c0.71,0.11,1.75,0.17,2.47,0.17
				c0.21,0,0.45,0,0.67,0c0.15-0.56,0.25-1.11,0.28-1.61l1.85,0.15C422.74,13.12,422.64,13.58,422.46,14.17z"/>
			<path class="st1" d="M337.16,38.44v11.25h-1.78V49h-6.65v0.7h-1.7V38.44h3.59c0.15-0.6,0.31-1.27,0.38-1.83l2.02,0.22
				c-0.21,0.56-0.43,1.11-0.66,1.61H337.16z M328.73,40.04v1.44h6.65v-1.44H328.73z M328.73,43.02v1.44h6.65v-1.44H328.73z
				 M335.38,47.46v-1.46h-6.65v1.46H335.38z"/>
			<path class="st1" d="M349.03,47.8c1.4,0,1.6-0.35,1.78-2.37c0.45,0.25,1.21,0.55,1.7,0.63c-0.31,2.68-0.92,3.4-3.43,3.4h-4.54
				c-2.62,0-3.47-0.5-3.47-2.51v-5.04h7.98v-2.77h-8.15v-1.71h9.93v6.92h-1.78v-0.8h-6.25v3.38c0,0.74,0.25,0.87,1.75,0.87H349.03z"
				/>
			<path class="st1" d="M355.79,44.65c-0.08,1.71-0.38,3.71-1.25,5.08c-0.27-0.28-0.95-0.8-1.32-0.99c0.92-1.5,0.99-3.68,0.99-5.29
				v-3.56h5.45v4.76H355.79z M359.96,38.83h-6.19v-1.51h6.19V38.83z M355.82,41.37v1.78h2.26v-1.78H355.82z M366.57,42.97h-1.25
				v6.75h-1.65v-6.75h-1.62c-0.13,2.14-0.64,4.86-2.51,6.72c-0.22-0.35-0.84-0.92-1.23-1.12c1.95-1.98,2.14-4.75,2.14-6.82v-3.87
				l1.15,0.27c1.3-0.38,2.61-0.88,3.42-1.37l1.47,1.26c-1.29,0.62-2.9,1.13-4.41,1.5v1.82h4.5V42.97z"/>
			<path class="st1" d="M372.74,39.89c-0.17,0.38-0.35,0.74-0.56,1.11h6.49v6.92c0,0.83-0.15,1.27-0.73,1.53
				c-0.55,0.27-1.34,0.28-2.48,0.28c-0.07-0.46-0.29-1.16-0.5-1.61c0.71,0.04,1.53,0.04,1.77,0.04c0.24-0.01,0.32-0.08,0.32-0.28
				v-0.84h-5.06v2.68h-1.65v-6.09c-0.56,0.62-1.16,1.18-1.85,1.64c-0.24-0.36-0.77-0.97-1.09-1.27c1.48-0.99,2.65-2.47,3.49-4.09
				h-3.07v-1.57h3.77c0.22-0.57,0.41-1.13,0.55-1.69l1.72,0.39c-0.14,0.43-0.28,0.87-0.45,1.3h6.84v1.57H372.74z M377.04,42.45
				h-5.06v0.9h5.06V42.45z M377.04,45.64v-0.91h-5.06v0.91H377.04z"/>
			<path class="st1" d="M386.01,39.25c-0.06,1.51-0.17,4.65-0.17,6.39c0,1.41,0.84,1.88,1.93,1.88c2.31,0,3.78-1.33,4.79-2.86
				l1.27,1.54c-0.9,1.34-2.88,3.22-6.08,3.22c-2.3,0-3.78-1.01-3.78-3.4c0-1.88,0.14-5.56,0.14-6.77c0-0.66-0.06-1.33-0.18-1.89
				l2.26,0.03C386.11,37.98,386.04,38.69,386.01,39.25z"/>
			<path class="st1" d="M397.38,38.79c1.16-0.1,3.47-0.31,6.04-0.53c1.44-0.11,2.98-0.21,3.96-0.24l0.01,1.79
				c-0.76,0.01-1.96,0.01-2.7,0.18c-1.69,0.45-2.96,2.27-2.96,3.94c0,2.3,2.16,3.14,4.52,3.26l-0.66,1.92
				c-2.93-0.2-5.7-1.78-5.7-4.8c0-2.02,1.13-3.61,2.07-4.33c-1.32,0.14-4.17,0.45-5.8,0.8l-0.18-1.92
				C396.55,38.85,397.1,38.82,397.38,38.79z"/>
			<path class="st1" d="M412.47,40.19c-0.01,0.91,0,1.96,0.08,2.97c0.2,2.02,0.62,3.4,1.5,3.4c0.66,0,1.22-1.64,1.49-2.76l1.4,1.71
				c-0.92,2.44-1.81,3.29-2.93,3.29c-1.54,0-2.87-1.39-3.26-5.14c-0.14-1.29-0.15-2.93-0.15-3.78c0-0.39-0.03-0.99-0.11-1.43
				l2.16,0.03C412.54,38.99,412.47,39.8,412.47,40.19z M422.2,46.06l-1.83,0.71c-0.22-2.25-0.97-5.66-2.49-7.4l1.78-0.57
				C420.98,40.42,422.04,43.92,422.2,46.06z"/>
			<path class="st1" d="M427.36,37.9c0.74,0,3.74-0.06,4.54-0.13c0.57-0.06,0.9-0.1,1.06-0.15l0.91,1.25
				c-0.32,0.21-0.66,0.41-0.98,0.64c-0.76,0.53-2.23,1.76-3.11,2.47c0.46-0.11,0.88-0.15,1.33-0.15c2.38,0,4.19,1.48,4.19,3.53
				c0,2.21-1.68,3.96-5.07,3.96c-1.95,0-3.42-0.9-3.42-2.3c0-1.13,1.02-2.19,2.51-2.19c1.74,0,2.79,1.06,2.98,2.4
				c0.77-0.41,1.16-1.05,1.16-1.9c0-1.26-1.26-2.12-2.91-2.12c-2.14,0-3.54,1.13-5.04,2.84l-1.28-1.32c1-0.8,2.69-2.23,3.52-2.91
				c0.78-0.64,2.24-1.82,2.93-2.42c-0.71,0.01-2.65,0.1-3.39,0.14c-0.38,0.03-0.83,0.07-1.15,0.11l-0.06-1.82
				C426.47,37.88,426.96,37.9,427.36,37.9z M429.88,47.72c0.29,0,0.56-0.01,0.81-0.04c-0.08-0.91-0.6-1.5-1.36-1.5
				c-0.53,0-0.87,0.32-0.87,0.67C428.46,47.37,429.04,47.72,429.88,47.72z"/>
		</g>
	</g>
	<g>
		<g>
			<path class="st1" d="M517.75,23.09c0,1.01-0.24,1.48-0.88,1.77c-0.67,0.29-1.65,0.32-3.1,0.32c-0.1-0.49-0.43-1.29-0.7-1.75
				c0.98,0.06,2.16,0.04,2.46,0.04c0.34,0,0.45-0.11,0.45-0.41v-2.03h-6c-0.36,1.57-1.06,3.1-2.37,4.19
				c-0.25-0.35-0.92-0.97-1.29-1.2c2.12-1.81,2.31-4.48,2.31-6.61v-4.61h9.11V23.09z M515.99,19.42v-1.71h-5.62
				c-0.01,0.53-0.04,1.12-0.1,1.71H515.99z M510.37,14.42v1.71h5.62v-1.71H510.37z"/>
			<path class="st1" d="M524.36,20.89c-0.14-0.42-0.43-1.08-0.71-1.71v6.02h-1.49v-5.17c-0.32,1.02-0.7,1.96-1.12,2.63
				c-0.15-0.43-0.48-1.04-0.7-1.42c0.73-1.11,1.39-3.05,1.71-4.72h-1.39v-1.51h1.5v-2.89h1.49v2.89h1.27v1.51h-1.27v0.74
				c0.34,0.49,1.09,1.74,1.4,2.28v-2.7h2.87v4.23h-1.75v0.95h-1.12v-2.16L524.36,20.89z M524.69,23.36h8.87v1.4h-8.87V23.36z
				 M526.32,16.35c0.24-0.64,0.49-1.53,0.7-2.35h-2.07v-1.39h8.31V14h-4.71c-0.08,0.34-0.18,0.67-0.27,1.01h1.68
				c0,0-0.01,0.43-0.01,0.62l-0.01,1.6l1.01-0.24c0.13,0.57,0.31,1.13,0.52,1.67c0.17-0.59,0.31-1.23,0.39-1.9h-1.61v-1.23h1.96
				l0.24-0.03l0.81,0.17c-0.15,1.82-0.48,3.33-0.98,4.54c0.39,0.59,0.87,1.08,1.43,1.41c-0.31,0.25-0.71,0.76-0.94,1.12
				c-0.45-0.32-0.84-0.74-1.19-1.23c-0.32,0.48-0.69,0.88-1.09,1.22c-0.15-0.28-0.46-0.69-0.73-0.92c-0.06,0.35-0.13,0.56-0.21,0.7
				c-0.25,0.36-0.52,0.5-0.9,0.56c-0.35,0.06-0.87,0.07-1.4,0.06c-0.01-0.38-0.15-0.92-0.35-1.26c0.45,0.03,0.81,0.04,1.02,0.03
				c0.18,0.01,0.29-0.03,0.39-0.18c0.18-0.31,0.22-1.65,0.27-5.44h-0.69l-0.1,0.31L526.32,16.35z M526.16,17.96v2h0.63v-2H526.16z
				 M529.93,17.33c-0.03,2.2-0.07,3.52-0.17,4.29c0.42-0.35,0.77-0.84,1.08-1.41C530.45,19.34,530.16,18.37,529.93,17.33z"/>
			<path class="st1" d="M534.28,24.11c0.5-0.71,0.69-1.91,0.74-3.08l0.92,0.17c-0.08,1.29-0.22,2.59-0.81,3.39L534.28,24.11z
				 M540.67,19c0,0-0.01,0.38-0.03,0.56c-0.14,3.36-0.31,4.69-0.64,5.11c-0.25,0.32-0.49,0.43-0.84,0.49
				c-0.29,0.06-0.76,0.06-1.26,0.04c-0.03-0.41-0.15-0.95-0.35-1.3c0.39,0.04,0.71,0.04,0.88,0.04s0.28-0.03,0.38-0.17
				c0.11-0.14,0.2-0.5,0.28-1.26l-0.43,0.17c-0.08-0.5-0.36-1.25-0.64-1.81l0.67-0.24c0.17,0.35,0.35,0.76,0.48,1.13
				c0.03-0.42,0.06-0.91,0.08-1.48h-4.15v-7.65h5.35v1.34h-1.71v0.81h1.49v1.26h-1.49v0.83h1.49v1.25h-1.49V19H540.67z M536.8,21.07
				c0.13,0.81,0.2,1.88,0.15,2.56l-0.77,0.1c0.04-0.7,0-1.77-0.1-2.59L536.8,21.07z M536.49,13.98v0.81h0.9v-0.81H536.49z
				 M537.39,16.06h-0.9v0.83h0.9V16.06z M536.49,19h0.9v-0.87h-0.9V19z M537.75,20.92c0.24,0.71,0.42,1.64,0.48,2.25l-0.74,0.14
				c-0.03-0.6-0.22-1.54-0.43-2.27L537.75,20.92z M547.63,23.22v1.53h-7.17v-1.53h2.84v-2.98h-2.1v-1.51h2.1v-2.47h-2.45v-1.54h3.38
				c-0.69-0.53-1.65-1.09-2.46-1.47l0.99-1.19c1.06,0.45,2.47,1.23,3.15,1.86l-0.63,0.8h2.09v1.54h-2.44v2.47h2.19v1.51h-2.19v2.98
				H547.63z"/>
			<path class="st1" d="M561.39,23.34h-5.59v1.89h-1.71v-1.89h-5.42v-1.5h5.42v-0.76h-4.03v-5.62h4.03V14.8h-5.08v-1.51h5.08v-1.13
				h1.71v1.13h5.18v1.51h-5.18v0.67h4.13v5.62h-4.13v0.76h5.59V23.34z M551.66,17.65h2.44V16.8h-2.44V17.65z M554.09,19.76V18.9
				h-2.44v0.85H554.09z M555.8,16.8v0.85h2.45V16.8H555.8z M558.25,18.9h-2.45v0.85h2.45V18.9z"/>
			<path class="st1" d="M569.97,19.15c-0.11,0.22-0.25,0.45-0.39,0.67h5.69c0,0-0.01,0.38-0.03,0.57c-0.2,2.73-0.42,3.85-0.8,4.26
				c-0.27,0.32-0.57,0.43-0.92,0.48c-0.32,0.04-0.85,0.06-1.42,0.03c-0.03-0.39-0.17-0.95-0.38-1.3c0.45,0.04,0.81,0.04,0.99,0.04
				c0.2,0,0.31-0.03,0.42-0.15c0.2-0.21,0.36-0.92,0.52-2.62h-0.55c-0.57,1.57-1.67,3.26-2.8,4.15c-0.28-0.32-0.76-0.7-1.18-0.92
				c1.06-0.67,2-1.92,2.61-3.22h-0.83c-0.76,1.34-2.06,2.75-3.28,3.52c-0.27-0.32-0.7-0.74-1.09-0.98c1.04-0.52,2.12-1.5,2.86-2.54
				h-0.83c-0.52,0.55-1.06,1.01-1.64,1.37c-0.21-0.27-0.74-0.76-1.09-0.98c-1.01,0.5-2.02,1.01-2.87,1.43l-0.62-1.68
				c0.48-0.18,1.06-0.42,1.72-0.69v-3.95h-1.4v-1.57h1.4V12.3h1.54v2.76h1.32v1.57h-1.32v3.31l1.12-0.49l0.29,1.19
				c0.5-0.43,0.94-0.94,1.29-1.48h-1.58v-1.4h8.81v1.4H569.97z M574.59,17.22h-6.62v-4.73h6.62V17.22z M573.05,13.63h-3.61v0.67
				h3.61V13.63z M573.05,15.4h-3.61v0.67h3.61V15.4z"/>
			<path class="st1" d="M577.92,17.25c0.41-0.17,0.84-0.35,1.26-0.53c-0.2-0.42-0.41-0.83-0.62-1.19c-0.2-0.35-0.55-0.87-0.83-1.23
				l1.82-0.7c0.13,0.25,0.41,0.83,0.56,1.09c0.21,0.41,0.43,0.85,0.66,1.33c0.85-0.38,1.71-0.73,2.52-0.99
				c-0.5-0.52-1.4-1.39-1.93-1.79l1.29-0.9c0.5,0.38,1.55,1.29,2.03,1.79l-1.11,0.81c0.7-0.21,1.39-0.34,2.02-0.34
				c2.17,0,3.47,1.32,3.47,2.94c0,1.96-1.34,3.21-3.49,3.21c-0.76,0-1.62-0.2-2.16-0.39l0.04-1.76c0.63,0.27,1.33,0.48,1.95,0.48
				c1.05,0,1.82-0.57,1.82-1.58c0-0.71-0.63-1.29-1.68-1.29c-1.09,0-2.62,0.57-4.12,1.26c0.14,0.29,0.27,0.59,0.39,0.87
				c0.66,1.53,1.74,4.52,2.2,6.09l-1.92,0.5c-0.43-1.76-1.16-4.13-1.88-5.83c-0.13-0.29-0.25-0.59-0.38-0.87
				c-1.01,0.5-1.89,0.98-2.49,1.25l-0.83-1.78C577.08,17.56,577.7,17.35,577.92,17.25z"/>
			<path class="st1" d="M595.7,23.62c-0.25-0.34-0.7-0.85-1.15-1.33v2.91h-1.6v-2.65c-0.53,0.77-1.15,1.46-1.75,1.96
				c-0.21-0.39-0.6-0.97-0.92-1.27c0.87-0.57,1.75-1.62,2.33-2.72h-1.99v-1.39h2.34v-1.05h-2.45V16.7h1.37
				c-0.06-0.5-0.22-1.19-0.43-1.74l0.74-0.15h-1.46v-1.36h2.19v-1.25h1.6v1.25h2.17v1.36h-1.3l0.7,0.13
				c-0.24,0.66-0.45,1.29-0.63,1.77h1.36v1.39h-2.25v1.05h2.12v1.39h-2.12v0.08c0.6,0.46,1.85,1.51,2.17,1.81L595.7,23.62z
				 M592.77,14.81c0.24,0.55,0.41,1.25,0.46,1.72l-0.7,0.17h2.44l-0.83-0.18c0.14-0.48,0.34-1.18,0.42-1.71H592.77z M602.14,23.57
				c0.21,0,0.25-0.18,0.28-1.68c0.28,0.25,0.92,0.49,1.34,0.6c-0.13,2-0.52,2.49-1.44,2.49h-0.81c-1.18,0-1.43-0.45-1.43-1.79v-2.34
				h-0.67c-0.18,2.06-0.71,3.53-2.91,4.4c-0.15-0.36-0.56-0.94-0.88-1.22c1.78-0.63,2.14-1.67,2.28-3.18h-0.71v-8.1h5.73v8.1h-1.32
				v2.33c0,0.35,0.03,0.39,0.18,0.39H602.14z M598.67,15.05h2.68v-0.85h-2.68V15.05z M598.67,17.23h2.68v-0.88h-2.68V17.23z
				 M598.67,19.41h2.68v-0.87h-2.68V19.41z"/>
			<path class="st1" d="M605.92,17.25c0.41-0.17,0.84-0.35,1.26-0.53c-0.2-0.42-0.41-0.83-0.62-1.19c-0.2-0.35-0.55-0.87-0.83-1.23
				l1.82-0.7c0.13,0.25,0.41,0.83,0.56,1.09c0.21,0.41,0.43,0.85,0.66,1.33c0.85-0.38,1.71-0.73,2.52-0.99
				c-0.5-0.52-1.4-1.39-1.93-1.79l1.29-0.9c0.5,0.38,1.55,1.29,2.03,1.79l-1.11,0.81c0.7-0.21,1.39-0.34,2.02-0.34
				c2.17,0,3.47,1.32,3.47,2.94c0,1.96-1.34,3.21-3.49,3.21c-0.76,0-1.62-0.2-2.16-0.39l0.04-1.76c0.63,0.27,1.33,0.48,1.95,0.48
				c1.05,0,1.82-0.57,1.82-1.58c0-0.71-0.63-1.29-1.68-1.29c-1.09,0-2.62,0.57-4.12,1.26c0.14,0.29,0.27,0.59,0.39,0.87
				c0.66,1.53,1.74,4.52,2.2,6.09l-1.92,0.5c-0.43-1.76-1.16-4.13-1.88-5.83c-0.13-0.29-0.25-0.59-0.38-0.87
				c-1.01,0.5-1.89,0.98-2.49,1.25l-0.83-1.78C605.08,17.56,605.7,17.35,605.92,17.25z"/>
			<path class="st1" d="M623.7,23.62c-0.25-0.34-0.7-0.85-1.15-1.33v2.91h-1.6v-2.65c-0.53,0.77-1.15,1.46-1.75,1.96
				c-0.21-0.39-0.6-0.97-0.92-1.27c0.87-0.57,1.75-1.62,2.33-2.72h-1.99v-1.39h2.34v-1.05h-2.45V16.7h1.37
				c-0.06-0.5-0.22-1.19-0.43-1.74l0.74-0.15h-1.46v-1.36h2.19v-1.25h1.6v1.25h2.17v1.36h-1.3l0.7,0.13
				c-0.24,0.66-0.45,1.29-0.63,1.77h1.36v1.39h-2.25v1.05h2.12v1.39h-2.12v0.08c0.6,0.46,1.85,1.51,2.17,1.81L623.7,23.62z
				 M620.77,14.81c0.24,0.55,0.41,1.25,0.46,1.72l-0.7,0.17h2.44l-0.83-0.18c0.14-0.48,0.34-1.18,0.42-1.71H620.77z M630.14,23.57
				c0.21,0,0.25-0.18,0.28-1.68c0.28,0.25,0.92,0.49,1.34,0.6c-0.13,2-0.52,2.49-1.44,2.49h-0.81c-1.18,0-1.43-0.45-1.43-1.79v-2.34
				h-0.67c-0.18,2.06-0.71,3.53-2.91,4.4c-0.15-0.36-0.56-0.94-0.88-1.22c1.78-0.63,2.14-1.67,2.28-3.18h-0.71v-8.1h5.73v8.1h-1.32
				v2.33c0,0.35,0.03,0.39,0.18,0.39H630.14z M626.67,15.05h2.68v-0.85h-2.68V15.05z M626.67,17.23h2.68v-0.88h-2.68V17.23z
				 M626.67,19.41h2.68v-0.87h-2.68V19.41z"/>
			<path class="st1" d="M644.93,16.95c-0.46,1.98-1.13,3.71-2.05,5.17c0.31,0.99,0.67,1.58,1.05,1.58c0.28,0,0.42-0.71,0.48-2.38
				c0.34,0.35,0.85,0.69,1.25,0.84c-0.22,2.44-0.7,3.07-1.86,3.07c-0.83,0-1.47-0.62-1.96-1.67c-0.53,0.62-1.13,1.18-1.79,1.64
				c-0.24-0.29-0.83-0.88-1.18-1.16c0.92-0.57,1.72-1.33,2.37-2.21c-0.42-1.69-0.67-3.88-0.78-6.23h-5.38v2.63
				c0,2.07-0.21,5.07-1.44,6.96c-0.27-0.29-0.92-0.84-1.26-1.02c1.06-1.68,1.15-4.12,1.15-5.94v-4.19h6.88
				c-0.01-0.63-0.03-1.26-0.03-1.89h1.57c-0.01,0.64-0.01,1.27,0,1.89h1.7c-0.36-0.36-0.9-0.8-1.34-1.12l1.05-0.84
				c0.56,0.35,1.29,0.9,1.65,1.3l-0.8,0.66h1.15v1.56h-3.36c0.07,1.55,0.22,3,0.41,4.23c0.43-0.95,0.77-2.02,1.01-3.17L644.93,16.95
				z M636.95,20.74c-0.22,1.02-0.67,2.06-1.15,2.73c-0.25-0.2-0.77-0.52-1.08-0.67c0.48-0.6,0.81-1.47,0.98-2.33L636.95,20.74z
				 M638.43,20.04v3.74c0,0.62-0.07,0.94-0.46,1.15c-0.39,0.21-0.91,0.24-1.6,0.24c-0.07-0.38-0.27-0.91-0.43-1.25
				c0.39,0.01,0.8,0.01,0.92,0c0.13,0,0.17-0.04,0.17-0.17v-3.71h-1.77v-1.3H637v-2.86h1.42v0.9h1.61v1.16h-1.61v0.8h2.07v1.3
				H638.43z M639.34,22.91c-0.13-0.55-0.48-1.4-0.81-2.04l1.11-0.41c0.35,0.6,0.73,1.43,0.85,1.96L639.34,22.91z"/>
			<path class="st1" d="M653.65,24.66l-1.05-1.67c0.53-0.06,0.92-0.14,1.3-0.22c1.79-0.42,3.19-1.71,3.19-3.75
				c0-1.93-1.05-3.38-2.94-3.7c-0.2,1.19-0.43,2.48-0.84,3.8c-0.84,2.83-2.05,4.57-3.57,4.57c-1.55,0-2.84-1.71-2.84-4.08
				c0-3.24,2.8-6,6.43-6c3.47,0,5.66,2.41,5.66,5.46C658.99,22.02,657.18,24.11,653.65,24.66z M649.8,21.52
				c0.59,0,1.13-0.88,1.71-2.77c0.32-1.04,0.59-2.23,0.74-3.39c-2.31,0.48-3.56,2.52-3.56,4.06
				C648.69,20.83,649.25,21.52,649.8,21.52z"/>
			<path class="st1" d="M512.39,47.84h-5.59v1.89h-1.71v-1.89h-5.42v-1.5h5.42v-0.76h-4.03v-5.62h4.03V39.3h-5.08v-1.51h5.08v-1.13
				h1.71v1.13h5.18v1.51h-5.18v0.67h4.13v5.62h-4.13v0.76h5.59V47.84z M502.66,42.15h2.44V41.3h-2.44V42.15z M505.09,44.26V43.4
				h-2.44v0.85H505.09z M506.8,41.3v0.85h2.45V41.3H506.8z M509.25,43.4h-2.45v0.85h2.45V43.4z"/>
			<path class="st1" d="M526.46,48.22h-4.54v1.51h-1.6v-1.51h-4.23v-1.34h4.23v-0.66h-3.25v-4.38h3.25V41.2h-3.66v-1.25h3.66v-0.77
				h-4.17v3.07c0,2.23-0.21,5.45-1.5,7.45c-0.28-0.29-0.95-0.77-1.33-0.94c1.15-1.85,1.23-4.52,1.23-6.51v-4.52h5.01v-1.08h1.74
				v1.08h5.04v1.46h-4.43v0.77h4.06v1.25h-4.06v0.63h3.42v4.38h-3.42v0.66h4.54V48.22z M518.53,43.54h1.79v-0.69h-1.79V43.54z
				 M520.33,45.18v-0.69h-1.79v0.69H520.33z M521.92,42.85v0.69h1.89v-0.69H521.92z M523.81,44.49h-1.89v0.69h1.89V44.49z"/>
			<path class="st1" d="M539.05,36.45l1.33,0.59c-1.4,1.51-2.51,3.45-2.51,6.14s1.11,4.62,2.51,6.14l-1.33,0.59
				c-1.51-1.48-2.76-3.73-2.76-6.72S537.53,37.94,539.05,36.45z"/>
			<path class="st1" d="M554.38,47.49v1.64h-12.69v-1.64h5.41v-4.87h-4.5v-1.65h4.5v-4.3h1.79v4.3h4.57v1.65h-4.57v4.87H554.38z"/>
			<path class="st1" d="M558.7,44.75c0.43-0.18,0.87-0.36,1.29-0.55l0.38,1.47c-1.49,0.74-3.08,1.5-4.37,2.09l-0.67-1.68
				c0.5-0.18,1.12-0.42,1.82-0.69v-3.95h-1.64v-1.58h1.64v-3.04h1.55v3.04h1.42v1.58h-1.42V44.75z M566.18,47.97
				c0.77,0,0.91-0.32,1.04-1.75c0.35,0.25,0.99,0.52,1.46,0.6c-0.22,1.96-0.71,2.63-2.35,2.63h-2.98c-1.89,0-2.44-0.52-2.44-2.45
				v-3.6l-0.76,0.32l-0.62-1.48l1.37-0.57v-3.68h1.6v3l1.16-0.49v-3.87h1.55v3.19l1.11-0.48l0.29-0.2l0.29-0.2l1.16,0.41l-0.06,0.28
				c0,2.66-0.03,4.34-0.1,4.92c-0.04,0.64-0.29,0.98-0.71,1.16c-0.41,0.18-1.01,0.2-1.46,0.2c-0.04-0.43-0.17-1.05-0.35-1.4
				c0.24,0.03,0.55,0.03,0.67,0.03c0.17,0,0.25-0.06,0.31-0.31c0.03-0.22,0.04-1.25,0.04-3.24l-1.2,0.53v4.94h-1.55V42.2l-1.16,0.5
				v4.33c0,0.81,0.13,0.94,0.98,0.94H566.18z"/>
			<path class="st1" d="M570.96,49.9l-1.33-0.59c1.4-1.51,2.51-3.45,2.51-6.14s-1.11-4.62-2.51-6.14l1.33-0.59
				c1.51,1.48,2.76,3.73,2.76,6.72S572.47,48.42,570.96,49.9z"/>
			<path class="st1" d="M589.46,38.67c1.33-0.07,2.73-0.2,3.96-0.41l-0.01,1.62c-1.33,0.2-3.05,0.31-4.57,0.35
				c-0.24,0.52-0.52,1.02-0.8,1.43c0.36-0.17,1.12-0.28,1.58-0.28c0.85,0,1.55,0.36,1.86,1.08c0.73-0.34,1.32-0.57,1.89-0.83
				c0.55-0.24,1.04-0.46,1.55-0.73l0.7,1.62c-0.45,0.13-1.19,0.41-1.67,0.59c-0.63,0.25-1.43,0.56-2.28,0.95
				c0.01,0.78,0.04,1.82,0.06,2.47h-1.68c0.04-0.42,0.06-1.09,0.07-1.71c-1.05,0.6-1.61,1.15-1.61,1.85c0,0.77,0.66,0.98,2.03,0.98
				c1.19,0,2.75-0.15,3.98-0.39l-0.06,1.81c-0.92,0.13-2.65,0.24-3.96,0.24c-2.2,0-3.82-0.53-3.82-2.34c0-1.79,1.68-2.91,3.28-3.74
				c-0.21-0.35-0.59-0.48-0.98-0.48c-0.78,0-1.65,0.45-2.19,0.97c-0.42,0.42-0.83,0.92-1.3,1.54l-1.5-1.12
				c1.47-1.36,2.46-2.61,3.1-3.87c-0.07,0-0.13,0-0.18,0c-0.57,0-1.6-0.03-2.37-0.08v-1.64c0.71,0.11,1.75,0.17,2.47,0.17
				c0.21,0,0.45,0,0.67,0c0.15-0.56,0.25-1.11,0.28-1.61l1.85,0.15C589.74,37.62,589.64,38.08,589.46,38.67z"/>
			<path class="st1" d="M601.93,37.18c-0.36,0.97-0.83,1.95-1.34,2.89v9.62H599v-7.16c-0.31,0.41-0.63,0.78-0.95,1.12
				c-0.15-0.41-0.6-1.33-0.88-1.72c1.26-1.26,2.47-3.25,3.18-5.25L601.93,37.18z M610.6,41.05v1.5h-9.4v-1.5h2.14v-1.36h-1.64v-1.43
				h1.64v-1.51h1.62v1.51h1.89v-1.51h1.64v1.51h1.75v1.43h-1.75v1.36H610.6z M602.5,43.36h7.06v6.35h-1.68v-0.45h-3.78v0.52h-1.6
				V43.36z M604.1,44.72v0.94h3.78v-0.94H604.1z M607.88,47.9V46.9h-3.78v0.99H607.88z M604.97,41.05h1.89v-1.36h-1.89V41.05z"/>
			<path class="st1" d="M615.5,40.17c0.67-1.09,1.89-2.27,3.47-2.27c1.95,0,3.46,1.9,3.46,4.99c0,3.96-2.42,5.86-6.14,6.53
				l-1.06-1.62c3.11-0.48,5.31-1.5,5.31-4.89c0-2.16-0.73-3.36-1.9-3.36c-1.65,0-3.1,2.48-3.17,4.33c-0.03,0.38-0.01,0.83,0.07,1.48
				l-1.72,0.11c-0.08-0.55-0.18-1.4-0.18-2.34c0-1.3,0.2-3.04,0.39-4.48c0.07-0.53,0.11-1.09,0.11-1.47l1.92,0.08
				C615.86,37.94,615.58,39.38,615.5,40.17z"/>
			<path class="st1" d="M627.38,38.79c1.16-0.1,3.47-0.31,6.04-0.53c1.44-0.11,2.98-0.21,3.96-0.24l0.01,1.79
				c-0.76,0.01-1.96,0.01-2.7,0.18c-1.69,0.45-2.96,2.27-2.96,3.94c0,2.3,2.16,3.14,4.52,3.26l-0.66,1.92
				c-2.93-0.2-5.7-1.78-5.7-4.8c0-2.02,1.13-3.61,2.07-4.33c-1.32,0.14-4.17,0.45-5.8,0.8l-0.18-1.92
				C626.55,38.85,627.1,38.82,627.38,38.79z"/>
			<path class="st1" d="M642.47,40.19c-0.01,0.91,0,1.96,0.08,2.97c0.2,2.02,0.62,3.4,1.5,3.4c0.66,0,1.22-1.64,1.49-2.76l1.4,1.71
				c-0.92,2.44-1.81,3.29-2.93,3.29c-1.54,0-2.87-1.39-3.26-5.14c-0.14-1.29-0.15-2.93-0.15-3.78c0-0.39-0.03-0.99-0.11-1.43
				l2.16,0.03C642.54,38.99,642.47,39.8,642.47,40.19z M652.2,46.06l-1.83,0.71c-0.22-2.25-0.97-5.66-2.49-7.4l1.78-0.57
				C650.98,40.42,652.04,43.92,652.2,46.06z"/>
			<path class="st1" d="M657.36,37.9c0.74,0,3.74-0.06,4.54-0.13c0.57-0.06,0.9-0.1,1.06-0.15l0.91,1.25
				c-0.32,0.21-0.66,0.41-0.98,0.64c-0.76,0.53-2.23,1.76-3.11,2.47c0.46-0.11,0.88-0.15,1.33-0.15c2.38,0,4.19,1.48,4.19,3.53
				c0,2.21-1.68,3.96-5.07,3.96c-1.95,0-3.42-0.9-3.42-2.3c0-1.13,1.02-2.19,2.51-2.19c1.74,0,2.79,1.06,2.98,2.4
				c0.77-0.41,1.16-1.05,1.16-1.9c0-1.26-1.26-2.12-2.91-2.12c-2.14,0-3.54,1.13-5.04,2.84l-1.28-1.32c1-0.8,2.69-2.23,3.52-2.91
				c0.78-0.64,2.24-1.82,2.93-2.42c-0.71,0.01-2.65,0.1-3.39,0.14c-0.38,0.03-0.83,0.07-1.15,0.11l-0.06-1.82
				C656.47,37.88,656.96,37.9,657.36,37.9z M659.88,47.72c0.29,0,0.56-0.01,0.81-0.04c-0.08-0.91-0.6-1.5-1.36-1.5
				c-0.53,0-0.87,0.32-0.87,0.67C658.46,47.37,659.04,47.72,659.88,47.72z"/>
		</g>
	</g>
	<g>
		<g>
			<g>
				<g>
					<g>
						<path class="st2" d="M44.7,88.7v12.52h-1.57v-0.8h-8.1v0.86h-1.49V88.7h4.03c0.22-0.69,0.42-1.52,0.53-2.14l1.78,0.21
							c-0.26,0.67-0.51,1.36-0.78,1.94H44.7z M35.03,90.12v2.05h8.1v-2.05H35.03z M35.03,93.55v2.05h8.1v-2.05H35.03z M43.13,99.04
							v-2.06h-8.1v2.06H43.13z"/>
					</g>
					<g>
						<path class="st2" d="M62.81,90.22c0,0-0.02,0.51-0.02,0.69c-0.18,6.61-0.32,8.88-0.83,9.57c-0.3,0.48-0.64,0.61-1.14,0.69
							c-0.48,0.06-1.22,0.06-1.97,0.02c-0.03-0.4-0.19-1.01-0.42-1.41c0.74,0.06,1.39,0.06,1.68,0.06c0.27,0,0.42-0.05,0.58-0.26
							c0.35-0.45,0.51-2.48,0.64-7.99h-1.89c-0.21,4.26-0.93,7.65-3.68,9.76c-0.22-0.34-0.72-0.86-1.07-1.1
							c0.1-0.06,0.19-0.14,0.29-0.22c-2.31,0.27-4.61,0.51-6.32,0.67l-0.19-1.26c0.93-0.06,2.08-0.16,3.34-0.27v-1.22H48.9v-1.09
							h2.91v-0.82h-2.87v-4.82h2.87V90.4h-3.3v-1.1h3.3v-0.9c-0.98,0.08-1.95,0.13-2.85,0.16c-0.05-0.3-0.21-0.78-0.35-1.07
							c2.37-0.13,5.2-0.42,6.87-0.78l0.7,1.12c-0.85,0.18-1.91,0.34-3.01,0.45v1.02h3.23v0.93h1.68c0.02-1.09,0.02-2.23,0.02-3.43
							h1.42c0,1.18-0.02,2.34-0.03,3.43H62.81z M50.17,93.18h1.65v-0.98h-1.65V93.18z M51.82,95.07v-0.98h-1.65v0.98H51.82z
							 M53.18,99.04c0.99-0.1,2.02-0.19,3.03-0.3c1.31-1.81,1.71-4.23,1.84-7.14h-1.7v-1.2h-3.17v0.83h2.98v4.82h-2.98v0.82h3.01
							v1.09h-3.01V99.04z M54.89,93.18v-0.98h-1.71v0.98H54.89z M53.18,94.09v0.98h1.71v-0.98H53.18z"/>
					</g>
					<g>
						<path class="st2" d="M79.81,99.02h-6.48v2.27h-1.54v-2.27h-6.32v-1.34h6.32v-1.1H67.1V90.3h4.69v-0.99h-5.86v-1.36h5.86v-1.38
							h1.54v1.38h5.95v1.36h-5.95v0.99h4.8v6.27h-4.8v1.1h6.48V99.02z M68.54,92.86h3.25v-1.33h-3.25V92.86z M71.79,95.36V94h-3.25
							v1.36H71.79z M73.32,91.53v1.33h3.31v-1.33H73.32z M76.64,94h-3.31v1.36h3.31V94z"/>
					</g>
					<g>
						<path class="st2" d="M87.11,87.07c-0.45,1.1-0.98,2.19-1.57,3.25v10.92h-1.41v-8.76c-0.48,0.66-0.99,1.26-1.49,1.78
							c-0.14-0.35-0.56-1.15-0.83-1.5c1.55-1.47,3.03-3.78,3.91-6.13L87.11,87.07z M93.13,95.61c0.98,1.55,2.5,3.03,3.95,3.84
							c-0.32,0.29-0.82,0.82-1.04,1.18c-1.34-0.9-2.71-2.38-3.71-3.99v4.63h-1.49v-4.55c-1.07,1.6-2.48,3.02-3.91,3.87
							c-0.24-0.37-0.69-0.9-1.02-1.18c1.54-0.78,3.11-2.24,4.15-3.81h-3.63v-1.34h4.42v-1.74h-3.3v-5.22h8.28v5.22h-3.49v1.74h4.32
							v1.34H93.13z M88.94,91.2h5.39v-2.58h-5.39V91.2z"/>
					</g>
					<g>
						<path class="st2" d="M113.49,88.94h-3.1c0.3,0.42,0.61,0.85,0.77,1.2l-1.39,0.42c-0.16-0.43-0.59-1.07-1.01-1.62h-1.14
							c-0.24,0.32-0.5,0.61-0.77,0.88h0.03v1.17h6.16v3.06h-1.46v-1.89h-10.68v1.89h-1.39v-3.06h5.94v-1.17h0.08
							c-0.19-0.1-0.37-0.19-0.51-0.26c0.26-0.18,0.51-0.4,0.75-0.62h-2.42c0.24,0.43,0.46,0.86,0.58,1.18l-1.33,0.4
							c-0.13-0.42-0.45-1.04-0.75-1.58h-0.5c-0.42,0.62-0.88,1.18-1.33,1.62c-0.29-0.24-0.86-0.62-1.22-0.82
							c0.94-0.8,1.83-2.03,2.32-3.27l1.39,0.37c-0.13,0.29-0.27,0.59-0.43,0.88h3.89v1.01c0.62-0.66,1.14-1.44,1.46-2.26l1.44,0.35
							c-0.13,0.3-0.29,0.61-0.45,0.9h5.06V88.94z M103.29,97.26h8.45v3.99h-1.49v-0.46h-6.96v0.5h-1.41v-8.29h8.76v3.35h-7.35V97.26
							z M103.29,94.09v1.14h5.86v-1.14H103.29z M103.29,98.38v1.26h6.96v-1.26H103.29z"/>
					</g>
					<g>
						<path class="st2" d="M120.79,96.17c-1.6,0.82-3.33,1.68-4.67,2.32l-0.58-1.49c0.58-0.22,1.3-0.53,2.08-0.86v-4.77h-1.76v-1.41
							h1.76v-3.23H119v3.23h1.62v1.41H119v4.16c0.48-0.22,0.98-0.45,1.47-0.67L120.79,96.17z M123.9,94.29
							c-0.18,0.34-0.37,0.66-0.59,0.96H130c0,0-0.02,0.37-0.03,0.56c-0.26,3.2-0.5,4.45-0.93,4.93c-0.27,0.3-0.58,0.4-0.96,0.45
							c-0.37,0.03-0.96,0.05-1.6,0.02c-0.02-0.35-0.14-0.88-0.34-1.2c0.54,0.06,1.04,0.06,1.25,0.06c0.24,0,0.37-0.02,0.5-0.18
							c0.24-0.27,0.45-1.18,0.64-3.44h-0.96c-0.64,1.86-1.89,3.86-3.22,4.87c-0.24-0.27-0.7-0.62-1.07-0.83
							c1.25-0.83,2.37-2.42,3.04-4.03h-1.26c-0.87,1.58-2.39,3.28-3.81,4.18c-0.22-0.3-0.64-0.67-0.99-0.9
							c1.26-0.67,2.58-1.95,3.46-3.28h-1.34c-0.61,0.67-1.28,1.25-1.97,1.71c-0.21-0.24-0.72-0.72-1.01-0.93
							c1.2-0.69,2.29-1.73,3.03-2.95h-2.05v-1.26h10v1.26H123.9z M129.25,92.25h-7.4V87h7.4V92.25z M127.87,88.08h-4.67v1.04h4.67
							V88.08z M127.87,90.12h-4.67v1.06h4.67V90.12z"/>
					</g>
					<g>
						<path class="st2" d="M134.74,95.36c-0.06,1.94-0.35,4.31-1.41,5.92c-0.22-0.26-0.85-0.74-1.15-0.91
							c1.07-1.7,1.17-4.15,1.17-5.97v-4.18h6v5.14H134.74z M139.72,88.76h-6.92V87.4h6.92V88.76z M134.76,91.56v2.45h3.14v-2.45
							H134.76z M147.21,93.37h-1.6v7.89h-1.49v-7.89h-2.35c-0.1,2.46-0.62,5.63-2.77,7.86c-0.21-0.32-0.74-0.83-1.1-1.01
							c2.21-2.31,2.43-5.44,2.43-7.86v-4.31l1.14,0.27c1.58-0.43,3.22-1.01,4.21-1.58l1.31,1.1c-1.44,0.72-3.39,1.3-5.2,1.74v2.35
							h5.43V93.37z"/>
					</g>
					<g>
						<path class="st2" d="M149.24,89.26h5.83v1.18h-5.83V89.26z M154.6,100.56h-3.36v0.69h-1.28v-5.38h4.64V100.56z M154.51,92.64
							h-4.51v-1.15h4.51V92.64z M149.99,93.66h4.51v1.15h-4.51V93.66z M154.51,88.27h-4.42V87.1h4.42V88.27z M151.24,97.07v2.31
							h2.07v-2.31H151.24z M164,99.31v1.41h-8.92v-1.41h1.12v-7.76h1.38v7.76h1.62V88.88h-3.62v-1.41h8.15v1.41h-3.07v4.13h2.98
							v1.41h-2.98v4.9H164z"/>
					</g>
					<g>
						<path class="st2" d="M168.07,97.05v1.44h-1.38v-11h5.33v9.56H168.07z M168.07,88.86v2.69h2.58v-2.69H168.07z M170.65,95.68
							v-2.8h-2.58v2.8H170.65z M180.27,99.44c0,0.83-0.21,1.28-0.75,1.52c-0.56,0.24-1.44,0.27-2.79,0.27
							c-0.08-0.4-0.32-1.06-0.54-1.44c0.96,0.03,1.94,0.02,2.22,0.02c0.27-0.02,0.38-0.11,0.38-0.38v-3.2h-4.29
							c-0.37,1.89-1.2,3.79-3.01,5.15c-0.21-0.3-0.79-0.82-1.1-1.02c2.67-2,2.94-4.99,2.94-7.44v-5.68h6.93V99.44z M178.8,94.86
							V92.4h-4v0.53c0,0.61-0.02,1.26-0.08,1.94H178.8z M174.8,88.6v2.43h4V88.6H174.8z"/>
					</g>
					<g>
						<path class="st2" d="M196.53,88.68v9.14h-1.54v-0.8h-4.07v4.24h-1.54v-4.24h-3.95v0.88h-1.47v-9.22h5.43v-2.1h1.54v2.1H196.53
							z M185.43,90.11v2h3.95v-2H185.43z M189.39,95.6v-2.11h-3.95v2.11H189.39z M190.92,90.11v2h4.07v-2H190.92z M194.99,95.6
							v-2.11h-4.07v2.11H194.99z"/>
					</g>
					<g>
						<path class="st2" d="M205.61,90.4h-5.97v-1.18h5.97V90.4z M205.08,100.38h-3.44v0.67h-1.28v-5.38h4.72V100.38z M205.07,92.54
							h-4.69v-1.15h4.69V92.54z M200.38,93.52h4.69v1.17h-4.69V93.52z M205.03,88.27h-4.59V87.1h4.59V88.27z M201.64,96.88v2.3h2.16
							v-2.3H201.64z M214.3,91.36v1.09h-8.72v-1.09h3.63v-0.88h-2.83v-1.04h2.83v-0.8h-3.25v-1.09h3.25v-0.98h1.41v0.98h3.36v1.09
							h-3.36v0.8h3.11v1.04h-3.11v0.88H214.3z M213.39,99.78c0,0.67-0.14,1.02-0.59,1.23c-0.48,0.19-1.18,0.19-2.19,0.19
							c-0.05-0.35-0.21-0.86-0.38-1.2c0.66,0.03,1.31,0.02,1.5,0.02c0.21-0.02,0.27-0.06,0.27-0.26v-1.47h-3.89v2.95h-1.38v-7.99
							h6.66V99.78z M208.11,94.33v0.96H212v-0.96H208.11z M212,97.26V96.3h-3.89v0.96H212z"/>
					</g>
					<g>
						<path class="st2" d="M230.89,94.56v1.07h-14.18v-1.07h6.27v-0.77h-5.17v-0.96h5.17v-0.74h-4.79v-0.94h4.79v-0.78h-6.26v-1.07
							h6.26v-0.77h-4.59v-0.91h4.59v-1.09h1.5v1.09h4.5v1.68h1.89v1.07h-1.89v1.73h-4.5v0.74h5.28v0.96h-5.28v0.77H230.89z
							 M218.73,96.29h10.34v4.99h-1.5v-0.46h-7.38v0.48h-1.46V96.29z M220.19,97.25v0.8h7.38v-0.8H220.19z M227.56,99.82v-0.85
							h-7.38v0.85H227.56z M224.49,89.29h3.03v-0.77h-3.03V89.29z M224.49,91.15h3.03v-0.78h-3.03V91.15z"/>
					</g>
				</g>
			</g>
			<g>
				<g>
					<g>
						<path class="st3" d="M383.5,81.29c6.72,0,12.15,5.43,12.15,12.15s-5.43,12.15-12.15,12.15c-6.72,0-12.15-5.43-12.15-12.15
							S376.77,81.29,383.5,81.29z M394.64,93.44c0-6.15-4.99-11.15-11.15-11.15c-6.16,0-11.15,4.99-11.15,11.15
							s4.99,11.15,11.15,11.15C389.65,104.59,394.64,99.59,394.64,93.44z"/>
					</g>
				</g>
			</g>
			<g>
				<g>
					<g>
						<path class="st3" d="M584.5,81.29c6.72,0,12.15,5.43,12.15,12.15s-5.43,12.15-12.15,12.15c-6.72,0-12.15-5.43-12.15-12.15
							S577.77,81.29,584.5,81.29z M595.64,93.44c0-6.15-4.99-11.15-11.15-11.15c-6.16,0-11.15,4.99-11.15,11.15
							s4.99,11.15,11.15,11.15C590.65,104.59,595.64,99.59,595.64,93.44z"/>
					</g>
				</g>
			</g>
		</g>
	</g>
	<g>
		<g>
			<g>
				<g>
					<g>
						<path class="st2" d="M36.71,154.9c-0.45,1.1-0.98,2.19-1.57,3.25v10.92h-1.41v-8.76c-0.48,0.66-0.99,1.26-1.49,1.78
							c-0.14-0.35-0.56-1.15-0.83-1.5c1.55-1.47,3.03-3.78,3.91-6.13L36.71,154.9z M42.73,163.45c0.98,1.55,2.5,3.03,3.95,3.84
							c-0.32,0.29-0.82,0.82-1.04,1.18c-1.34-0.9-2.71-2.38-3.71-3.99v4.63h-1.49v-4.55c-1.07,1.6-2.48,3.02-3.91,3.87
							c-0.24-0.37-0.69-0.9-1.02-1.18c1.54-0.78,3.11-2.24,4.15-3.81h-3.63v-1.34h4.42v-1.74h-3.3v-5.22h8.28v5.22h-3.49v1.74h4.32
							v1.34H42.73z M38.54,159.03h5.39v-2.58h-5.39V159.03z"/>
					</g>
					<g>
						<path class="st2" d="M63.09,156.77h-3.1c0.3,0.42,0.61,0.85,0.77,1.2l-1.39,0.42c-0.16-0.43-0.59-1.07-1.01-1.62h-1.14
							c-0.24,0.32-0.5,0.61-0.77,0.88h0.03v1.17h6.16v3.06h-1.46v-1.89H50.5v1.89h-1.39v-3.06h5.94v-1.17h0.08
							c-0.19-0.1-0.37-0.19-0.51-0.26c0.26-0.18,0.51-0.4,0.75-0.62h-2.42c0.24,0.43,0.46,0.86,0.58,1.18l-1.33,0.4
							c-0.13-0.42-0.45-1.04-0.75-1.58h-0.5c-0.42,0.62-0.88,1.18-1.33,1.62c-0.29-0.24-0.86-0.62-1.22-0.82
							c0.94-0.8,1.83-2.03,2.32-3.27l1.39,0.37c-0.13,0.29-0.27,0.59-0.43,0.88h3.89v1.01c0.62-0.66,1.14-1.44,1.46-2.26l1.44,0.35
							c-0.13,0.3-0.29,0.61-0.45,0.9h5.06V156.77z M52.89,165.09h8.45v3.99h-1.49v-0.46h-6.96v0.5h-1.41v-8.29h8.76v3.35h-7.35
							V165.09z M52.89,161.93v1.14h5.86v-1.14H52.89z M52.89,166.22v1.26h6.96v-1.26H52.89z"/>
					</g>
					<g>
						<path class="st2" d="M70.39,164.01c-1.6,0.82-3.33,1.68-4.67,2.32l-0.58-1.49c0.58-0.22,1.3-0.53,2.08-0.86v-4.77h-1.76v-1.41
							h1.76v-3.23h1.38v3.23h1.62v1.41H68.6v4.16c0.48-0.22,0.98-0.45,1.47-0.67L70.39,164.01z M73.5,162.12
							c-0.18,0.34-0.37,0.66-0.59,0.96h6.69c0,0-0.02,0.37-0.03,0.56c-0.26,3.2-0.5,4.45-0.93,4.93c-0.27,0.3-0.58,0.4-0.96,0.45
							c-0.37,0.03-0.96,0.05-1.6,0.02c-0.02-0.35-0.14-0.88-0.34-1.2c0.54,0.06,1.04,0.06,1.25,0.06c0.24,0,0.37-0.02,0.5-0.18
							c0.24-0.27,0.45-1.18,0.64-3.44h-0.96c-0.64,1.86-1.89,3.86-3.22,4.87c-0.24-0.27-0.7-0.62-1.07-0.83
							c1.25-0.83,2.37-2.42,3.04-4.03h-1.26c-0.86,1.58-2.38,3.28-3.81,4.18c-0.22-0.3-0.64-0.67-0.99-0.9
							c1.26-0.67,2.58-1.95,3.46-3.28h-1.34c-0.61,0.67-1.28,1.25-1.97,1.71c-0.21-0.24-0.72-0.72-1.01-0.93
							c1.2-0.69,2.29-1.73,3.03-2.95h-2.05v-1.26h10v1.26H73.5z M78.85,160.08h-7.39v-5.25h7.39V160.08z M77.47,155.91H72.8v1.04
							h4.67V155.91z M77.47,157.96H72.8v1.06h4.67V157.96z"/>
					</g>
					<g>
						<path class="st2" d="M84.35,163.19c-0.06,1.94-0.35,4.31-1.41,5.92c-0.22-0.26-0.85-0.74-1.15-0.91
							c1.07-1.7,1.17-4.15,1.17-5.97v-4.18h6v5.14H84.35z M89.32,156.6h-6.92v-1.36h6.92V156.6z M84.36,159.4v2.45h3.14v-2.45H84.36
							z M96.81,161.21h-1.6v7.89h-1.49v-7.89h-2.35c-0.1,2.46-0.62,5.63-2.77,7.86c-0.21-0.32-0.74-0.83-1.1-1.01
							c2.21-2.31,2.43-5.44,2.43-7.86v-4.31l1.14,0.27c1.58-0.43,3.22-1.01,4.21-1.58l1.31,1.1c-1.44,0.72-3.39,1.3-5.2,1.74v2.35
							h5.43V161.21z"/>
					</g>
					<g>
						<path class="st2" d="M106.83,168.44l-0.94-1.5c0.54-0.05,1.02-0.13,1.42-0.22c2.05-0.46,3.87-1.97,3.87-4.55
							c0-2.32-1.41-4.16-3.87-4.47c-0.22,1.44-0.5,2.99-0.96,4.5c-0.96,3.27-2.29,5.07-3.87,5.07c-1.58,0-3.04-1.76-3.04-4.43
							c0-3.59,3.14-6.66,7.16-6.66c3.84,0,6.27,2.69,6.27,6.03C112.86,165.58,110.72,167.88,106.83,168.44z M102.52,165.37
							c0.72,0,1.47-1.04,2.21-3.51c0.4-1.26,0.69-2.72,0.88-4.13c-2.88,0.46-4.56,2.96-4.56,4.95
							C101.05,164.52,101.83,165.37,102.52,165.37z"/>
					</g>
					<g>
						<path class="st2" d="M115.88,155.01h7.17v1.31h-2.08v1.6h1.75v10.88h-1.2v-0.83h-4.11v1.06h-1.17v-11.11h1.87v-1.6h-2.22
							V155.01z M117.4,164.31h4.11v-1.3c-0.05,0-0.1,0-0.16,0h-0.67c-0.66,0-0.85-0.19-0.85-1.02v-2.82h-0.74v1.26
							c0,0.94-0.21,2.18-1.1,3.04c-0.13-0.16-0.42-0.42-0.59-0.53c0.8-0.75,0.93-1.73,0.93-2.53v-1.25h-0.93V164.31z M121.51,166.79
							v-1.41h-4.11v1.41H121.51z M119.93,156.32h-0.8v1.6h0.8V156.32z M121.51,159.17h-0.93v2.8c0,0.21,0.02,0.24,0.18,0.24h0.45
							c0.16,0,0.21-0.02,0.22-0.05c0.03,0.02,0.05,0.03,0.08,0.06V159.17z M128.24,167.53c0.66,0,0.77-0.4,0.86-2.62
							c0.34,0.27,0.94,0.53,1.34,0.62c-0.16,2.62-0.56,3.38-2.1,3.38h-2.48c-1.58,0-2.08-0.43-2.08-2.11v-6.75h4.63v-3.47h-4.67
							v-1.42h6.11v7.36h-1.44v-1.06h-3.15v5.35c0,0.62,0.13,0.74,0.8,0.74H128.24z"/>
					</g>
					<g>
						<path class="st2" d="M138.86,161.03c0.05-0.26,0.1-0.51,0.13-0.8h-6.07v-1.14h6.23c0.03-0.26,0.06-0.51,0.08-0.77h-5.59v-3.28
							h12.44v3.28h-5.33c-0.05,0.26-0.08,0.51-0.11,0.77h6.07v1.14h-6.26c-0.05,0.29-0.1,0.56-0.14,0.8h5.17v5.52h-8.82v-5.52
							H138.86z M147.09,168.49h-11.81v0.61h-1.5v-7.86h1.5v6.08h11.81V168.49z M137.26,156.08h-2.19v1.2h2.19V156.08z
							 M144.03,161.86h-6v0.74h6V161.86z M144.03,163.4h-6v0.75h6V163.4z M144.03,164.95h-6v0.77h6V164.95z M138.63,157.28h2.27
							v-1.2h-2.27V157.28z M142.27,157.28h2.3v-1.2h-2.3V157.28z"/>
					</g>
					<g>
						<path class="st2" d="M163.26,155.11v13.94h-1.55v-0.72h-10.23v0.72h-1.49v-13.94H163.26z M161.71,166.9v-10.37h-10.23v10.37
							H161.71z M160.86,157.91c-0.77,1.94-1.81,3.62-3.07,5.03c1.22,0.69,2.32,1.42,3.06,2.06l-0.91,1.17
							c-0.74-0.67-1.87-1.46-3.14-2.21c-1.15,1.07-2.46,1.97-3.91,2.67c-0.19-0.3-0.67-0.91-0.98-1.2c1.33-0.58,2.53-1.31,3.58-2.21
							c-1.01-0.54-2.03-1.04-2.98-1.42l0.82-1.01c1.01,0.4,2.11,0.91,3.17,1.46c1.26-1.31,2.24-2.9,2.93-4.71L160.86,157.91z
							 M153.59,160.77c-0.21-0.75-0.79-1.9-1.34-2.77l1.1-0.46c0.59,0.83,1.23,1.94,1.44,2.69L153.59,160.77z M156.28,160.41
							c-0.11-0.78-0.58-2-1.07-2.93l1.17-0.4c0.53,0.9,1.02,2.1,1.17,2.88L156.28,160.41z"/>
					</g>
					<g>
						<path class="st2" d="M175.26,161.75c0,1.02-0.83,1.86-1.86,1.86s-1.86-0.83-1.86-1.86s0.83-1.86,1.86-1.86
							S175.26,160.73,175.26,161.75z"/>
					</g>
					<g>
						<path class="st2" d="M185.15,163.19c-0.06,1.94-0.35,4.31-1.41,5.92c-0.22-0.26-0.85-0.74-1.15-0.91
							c1.07-1.7,1.17-4.15,1.17-5.97v-4.18h6v5.14H185.15z M190.12,156.6h-6.92v-1.36h6.92V156.6z M185.16,159.4v2.45h3.14v-2.45
							H185.16z M197.61,161.21h-1.6v7.89h-1.49v-7.89h-2.35c-0.1,2.46-0.62,5.63-2.77,7.86c-0.21-0.32-0.74-0.83-1.1-1.01
							c2.21-2.31,2.43-5.44,2.43-7.86v-4.31l1.14,0.27c1.58-0.43,3.22-1.01,4.21-1.58l1.31,1.1c-1.44,0.72-3.39,1.3-5.2,1.74v2.35
							h5.43V161.21z"/>
					</g>
					<g>
						<path class="st2" d="M214,156.74v1.42h-8.61c-0.54,1.14-1.17,2.23-1.9,3.22v7.68h-1.49v-5.95c-0.51,0.5-1.07,0.98-1.66,1.39
							c-0.16-0.4-0.5-1.04-0.74-1.39c1.76-1.2,3.12-2.99,4.11-4.95h-3.68v-1.42h4.32c0.34-0.78,0.58-1.57,0.78-2.35l1.55,0.38
							c-0.21,0.66-0.43,1.31-0.69,1.97H214z M209.96,167.32h4.02v1.39h-9.56v-1.39h4.03v-4.13h-3.42v-1.38h3.42v-2.88h1.5v2.88h3.41
							v1.38h-3.41V167.32z"/>
					</g>
					<g>
						<path class="st2" d="M230.46,155.11v13.94h-1.55v-0.72h-10.23v0.72h-1.49v-13.94H230.46z M228.91,166.9v-10.37h-10.23v10.37
							H228.91z M228.06,157.91c-0.77,1.94-1.81,3.62-3.07,5.03c1.22,0.69,2.32,1.42,3.06,2.06l-0.91,1.17
							c-0.74-0.67-1.87-1.46-3.14-2.21c-1.15,1.07-2.46,1.97-3.91,2.67c-0.19-0.3-0.67-0.91-0.98-1.2c1.33-0.58,2.53-1.31,3.59-2.21
							c-1.01-0.54-2.03-1.04-2.98-1.42l0.82-1.01c1.01,0.4,2.11,0.91,3.17,1.46c1.26-1.31,2.24-2.9,2.93-4.71L228.06,157.91z
							 M220.79,160.77c-0.21-0.75-0.78-1.9-1.34-2.77l1.1-0.46c0.59,0.83,1.23,1.94,1.44,2.69L220.79,160.77z M223.48,160.41
							c-0.11-0.78-0.58-2-1.07-2.93l1.17-0.4c0.53,0.9,1.02,2.1,1.17,2.88L223.48,160.41z"/>
					</g>
				</g>
			</g>
			<g>
				<g>
					<g>
						<path class="st3" d="M383.5,150.98c6.72,0,12.15,5.43,12.15,12.15s-5.43,12.15-12.15,12.15c-6.72,0-12.15-5.43-12.15-12.15
							S376.77,150.98,383.5,150.98z M394.64,163.12c0-6.15-4.99-11.15-11.15-11.15c-6.16,0-11.15,4.99-11.15,11.15
							s4.99,11.15,11.15,11.15C389.65,174.27,394.64,169.28,394.64,163.12z"/>
					</g>
				</g>
			</g>
			<g>
				<g>
					<g>
						<path class="st3" d="M584.5,150.98c6.72,0,12.15,5.43,12.15,12.15s-5.43,12.15-12.15,12.15c-6.72,0-12.15-5.43-12.15-12.15
							S577.77,150.98,584.5,150.98z M595.64,163.12c0-6.15-4.99-11.15-11.15-11.15c-6.16,0-11.15,4.99-11.15,11.15
							s4.99,11.15,11.15,11.15C590.65,174.27,595.64,169.28,595.64,163.12z"/>
					</g>
				</g>
			</g>
		</g>
	</g>
	<g>
		<g>
			<g>
				<g>
					<g>
						<path class="st2" d="M36.71,292.56c-0.45,1.1-0.98,2.19-1.57,3.25v10.92h-1.41v-8.76c-0.48,0.66-0.99,1.26-1.49,1.78
							c-0.14-0.35-0.56-1.15-0.83-1.5c1.55-1.47,3.03-3.78,3.91-6.13L36.71,292.56z M42.73,301.11c0.98,1.55,2.5,3.03,3.95,3.84
							c-0.32,0.29-0.82,0.82-1.04,1.18c-1.34-0.9-2.71-2.38-3.71-3.99v4.63h-1.49v-4.55c-1.07,1.6-2.48,3.02-3.91,3.87
							c-0.24-0.37-0.69-0.9-1.02-1.18c1.54-0.78,3.11-2.24,4.15-3.81h-3.63v-1.34h4.42v-1.74h-3.3v-5.22h8.28v5.22h-3.49v1.74h4.32
							v1.34H42.73z M38.54,296.69h5.39v-2.58h-5.39V296.69z"/>
					</g>
					<g>
						<path class="st2" d="M63.09,294.44h-3.1c0.3,0.42,0.61,0.85,0.77,1.2l-1.39,0.42c-0.16-0.43-0.59-1.07-1.01-1.62h-1.14
							c-0.24,0.32-0.5,0.61-0.77,0.88h0.03v1.17h6.16v3.06h-1.46v-1.89H50.5v1.89h-1.39v-3.06h5.94v-1.17h0.08
							c-0.19-0.1-0.37-0.19-0.51-0.26c0.26-0.18,0.51-0.4,0.75-0.62h-2.42c0.24,0.43,0.46,0.86,0.58,1.18l-1.33,0.4
							c-0.13-0.42-0.45-1.04-0.75-1.58h-0.5c-0.42,0.62-0.88,1.18-1.33,1.62c-0.29-0.24-0.86-0.62-1.22-0.82
							c0.94-0.8,1.83-2.03,2.32-3.27l1.39,0.37c-0.13,0.29-0.27,0.59-0.43,0.88h3.89v1.01c0.62-0.66,1.14-1.44,1.46-2.26l1.44,0.35
							c-0.13,0.3-0.29,0.61-0.45,0.9h5.06V294.44z M52.89,302.76h8.45v3.99h-1.49v-0.46h-6.96v0.5h-1.41v-8.29h8.76v3.35h-7.35
							V302.76z M52.89,299.59v1.14h5.86v-1.14H52.89z M52.89,303.88v1.26h6.96v-1.26H52.89z"/>
					</g>
					<g>
						<path class="st2" d="M70.39,301.67c-1.6,0.82-3.33,1.68-4.67,2.32l-0.58-1.49c0.58-0.22,1.3-0.53,2.08-0.86v-4.77h-1.76v-1.41
							h1.76v-3.23h1.38v3.23h1.62v1.41H68.6v4.16c0.48-0.22,0.98-0.45,1.47-0.67L70.39,301.67z M73.5,299.78
							c-0.18,0.34-0.37,0.66-0.59,0.96h6.69c0,0-0.02,0.37-0.03,0.56c-0.26,3.2-0.5,4.45-0.93,4.93c-0.27,0.3-0.58,0.4-0.96,0.45
							c-0.37,0.03-0.96,0.05-1.6,0.02c-0.02-0.35-0.14-0.88-0.34-1.2c0.54,0.06,1.04,0.06,1.25,0.06c0.24,0,0.37-0.02,0.5-0.18
							c0.24-0.27,0.45-1.18,0.64-3.44h-0.96c-0.64,1.86-1.89,3.86-3.22,4.87c-0.24-0.27-0.7-0.62-1.07-0.83
							c1.25-0.83,2.37-2.42,3.04-4.03h-1.26c-0.86,1.58-2.38,3.28-3.81,4.18c-0.22-0.3-0.64-0.67-0.99-0.9
							c1.26-0.67,2.58-1.95,3.46-3.28h-1.34c-0.61,0.67-1.28,1.25-1.97,1.71c-0.21-0.24-0.72-0.72-1.01-0.93
							c1.2-0.69,2.29-1.73,3.03-2.95h-2.05v-1.26h10v1.26H73.5z M78.85,297.75h-7.39v-5.25h7.39V297.75z M77.47,293.57H72.8v1.04
							h4.67V293.57z M77.47,295.62H72.8v1.06h4.67V295.62z"/>
					</g>
					<g>
						<path class="st2" d="M84.35,300.85c-0.06,1.94-0.35,4.31-1.41,5.92c-0.22-0.26-0.85-0.74-1.15-0.91
							c1.07-1.7,1.17-4.15,1.17-5.97v-4.18h6v5.14H84.35z M89.32,294.26h-6.92v-1.36h6.92V294.26z M84.36,297.06v2.45h3.14v-2.45
							H84.36z M96.81,298.87h-1.6v7.89h-1.49v-7.89h-2.35c-0.1,2.46-0.62,5.63-2.77,7.86c-0.21-0.32-0.74-0.83-1.1-1.01
							c2.21-2.31,2.43-5.44,2.43-7.86v-4.31l1.14,0.27c1.58-0.43,3.22-1.01,4.21-1.58l1.31,1.1c-1.44,0.72-3.39,1.3-5.2,1.74v2.35
							h5.43V298.87z"/>
					</g>
					<g>
						<path class="st2" d="M103.93,292.48c-0.45,1.07-0.98,2.18-1.58,3.22v11.12h-1.41v-8.98c-0.5,0.67-1.02,1.3-1.55,1.82
							c-0.14-0.35-0.56-1.15-0.82-1.5c1.57-1.47,3.07-3.79,3.97-6.15L103.93,292.48z M109.04,300.97c-0.13,1.06-0.38,2.05-0.98,2.93
							c1.54,0.8,3.47,1.31,5.68,1.54c-0.29,0.32-0.69,0.93-0.88,1.34c-2.21-0.32-4.11-0.91-5.67-1.82c-0.8,0.75-1.91,1.38-3.46,1.84
							c-0.18-0.34-0.59-0.93-0.91-1.25c1.42-0.34,2.45-0.83,3.15-1.44c-0.86-0.69-1.58-1.52-2.14-2.5l1.22-0.38
							c0.45,0.74,1.04,1.38,1.79,1.92c0.42-0.67,0.62-1.41,0.72-2.18h-3.71v-4.5h3.81v-1.38h-4.21v-1.36h4.21v-1.58h1.47v1.58h4.42
							v1.36h-4.42v1.38h3.95v4.5H109.04z M107.66,299.73v-0.5v-1.54h-2.45v2.03H107.66z M109.13,297.7v1.54c0,0.16,0,0.34,0,0.5
							h2.53v-2.03H109.13z"/>
					</g>
					<g>
						<path class="st2" d="M129.23,304.89c0,0.86-0.21,1.31-0.79,1.54c-0.59,0.24-1.52,0.27-2.99,0.26c-0.06-0.4-0.3-1.06-0.5-1.44
							c1.02,0.05,2.08,0.03,2.38,0.03c0.29,0,0.4-0.1,0.4-0.4v-2.87h-3.87v4.58h-1.49v-4.58h-3.68c-0.26,1.76-0.83,3.55-2,4.85
							c-0.22-0.29-0.83-0.8-1.17-0.98c1.75-1.94,1.91-4.77,1.91-7.03v-5.7h11.8V304.89z M122.38,300.6v-2.37h-3.47v0.64
							c0,0.54-0.02,1.14-0.06,1.73H122.38z M118.91,294.58v2.26h3.47v-2.26H118.91z M127.74,294.58h-3.87v2.26h3.87V294.58z
							 M127.74,300.6v-2.37h-3.87v2.37H127.74z"/>
					</g>
					<g>
						<path class="st2" d="M137.16,296.63c-0.58,4.02-1.98,7.17-3.79,8.85c-0.24-0.34-0.79-0.91-1.1-1.12
							c1.54-1.36,2.71-3.75,3.26-6.66h-2.75v-1.34h3.2l0.29-0.06L137.16,296.63z M140.48,302.52h3.12v1.25h-3.12v1.3
							c0,0.85-0.21,1.25-0.8,1.47c-0.59,0.22-1.54,0.26-2.88,0.26c-0.08-0.4-0.34-1.02-0.54-1.42c1.01,0.05,2.05,0.05,2.35,0.03
							c0.29-0.02,0.38-0.1,0.38-0.37v-1.26h-3.01v-1.25h3.01v-1.36h-2.16v-1.2h2.16v-1.3h-1.81v-1.22h1.81v-1.84h0.94
							c0.72-0.37,1.46-0.83,2.06-1.31h-7.2v-1.36h8.74l0.34-0.08l1.01,0.75c-1.14,1.15-2.79,2.34-4.4,3.1v0.74h1.98v1.22h-1.98v1.3
							h2.27v1.2h-2.27V302.52z M147.1,297.16c-0.77,0.88-1.7,1.92-2.48,2.69c0.61,1.86,1.49,3.43,2.71,4.39
							c-0.35,0.27-0.86,0.85-1.1,1.28c-2.16-1.92-3.23-5.38-3.83-9.4l1.33-0.22c0.13,0.86,0.29,1.71,0.48,2.53
							c0.62-0.72,1.28-1.54,1.7-2.19L147.1,297.16z"/>
					</g>
					<g>
						<path class="st2" d="M154.92,295.89h-5.68v-1.18h5.68V295.89z M158.94,299.05c-0.27,0.7-0.58,1.38-0.93,1.98h5.3v5.68h-1.44
							v-0.62h-3.49v0.67h-1.39v-4.23c-0.45,0.56-0.96,1.07-1.5,1.5c-0.18-0.27-0.66-0.75-0.96-1.04v2.88h-3.34v0.67h-1.25v-5.38
							h4.59v1.7c1.26-0.91,2.23-2.23,2.9-3.83h-2.51v-1.34h2.99c0.13-0.45,0.26-0.9,0.35-1.38h-1.44v-1.47h-1.73v-1.28h1.73v-1.5
							h1.44v1.5h2.46v-1.5h1.44v1.5h1.66v1.28h-1.66v1.47h-1.44v-1.47h-2.46v1.46l0.06-0.32l1.42,0.24
							c-0.11,0.51-0.22,0.99-0.37,1.47h4.59v1.34H158.94z M154.51,298.04h-4.56v-1.15h4.56V298.04z M149.95,299.01h4.56v1.17h-4.56
							V299.01z M154.46,293.76h-4.45v-1.17h4.45V293.76z M153.26,302.37h-2.08v2.3h2.08V302.37z M158.38,302.31v2.48h3.49v-2.48
							H158.38z"/>
					</g>
					<g>
						<path class="st2" d="M166.04,294.76h5.83v1.18h-5.83V294.76z M171.4,306.06h-3.36v0.69h-1.28v-5.38h4.64V306.06z
							 M171.31,298.13h-4.51v-1.15h4.51V298.13z M166.79,299.16h4.51v1.15h-4.51V299.16z M171.31,293.76h-4.42v-1.17h4.42V293.76z
							 M168.04,302.57v2.31h2.07v-2.31H168.04z M180.8,304.81v1.41h-8.92v-1.41H173v-7.76h1.38v7.76H176v-10.44h-3.62v-1.41h8.15
							v1.41h-3.07v4.13h2.98v1.41h-2.98v4.9H180.8z"/>
					</g>
					<g>
						<path class="st2" d="M184.87,302.55v1.44h-1.38v-11h5.33v9.56H184.87z M184.87,294.36v2.69h2.58v-2.69H184.87z M187.45,301.17
							v-2.8h-2.58v2.8H187.45z M197.07,304.94c0,0.83-0.21,1.28-0.75,1.52c-0.56,0.24-1.44,0.27-2.79,0.27
							c-0.08-0.4-0.32-1.06-0.54-1.44c0.96,0.03,1.94,0.02,2.22,0.02c0.27-0.02,0.38-0.11,0.38-0.38v-3.2h-4.29
							c-0.37,1.89-1.2,3.79-3.01,5.15c-0.21-0.3-0.78-0.82-1.1-1.02c2.67-2,2.95-4.99,2.95-7.44v-5.68h6.93V304.94z M195.6,300.36
							v-2.46h-4v0.53c0,0.61-0.02,1.26-0.08,1.94H195.6z M191.6,294.1v2.43h4v-2.43H191.6z"/>
					</g>
					<g>
						<path class="st2" d="M214.09,300.05v1.07h-14.18v-1.07h6.27v-0.77h-5.17v-0.96h5.17v-0.74h-4.79v-0.94h4.79v-0.78h-6.26v-1.07
							h6.26v-0.77h-4.59v-0.91h4.59v-1.09h1.5v1.09h4.5v1.68h1.89v1.07h-1.89v1.73h-4.5v0.74h5.28v0.96h-5.28v0.77H214.09z
							 M201.93,301.78h10.34v4.99h-1.5v-0.46h-7.38v0.48h-1.46V301.78z M203.39,302.74v0.8h7.38v-0.8H203.39z M210.76,305.32v-0.85
							h-7.38v0.85H210.76z M207.69,294.79h3.03v-0.77h-3.03V294.79z M207.69,296.64h3.03v-0.78h-3.03V296.64z"/>
					</g>
					<g>
						<path class="st2" d="M232.23,294.79l-4.62,4.62l4.62,4.62l-0.41,0.41l-4.62-4.62l-4.64,4.64l-0.41-0.41l4.64-4.64l-4.62-4.62
							l0.41-0.41l4.62,4.62l4.62-4.62L232.23,294.79z M223.21,300.46c-0.57,0-1.05-0.48-1.05-1.05s0.48-1.05,1.05-1.05
							s1.05,0.48,1.05,1.05S223.79,300.46,223.21,300.46z M226.15,295.42c0-0.57,0.48-1.05,1.05-1.05s1.05,0.48,1.05,1.05
							s-0.48,1.05-1.05,1.05S226.15,296,226.15,295.42z M228.25,303.41c0,0.57-0.48,1.05-1.05,1.05s-1.05-0.48-1.05-1.05
							c0-0.57,0.48-1.05,1.05-1.05S228.25,302.83,228.25,303.41z M231.2,298.36c0.57,0,1.05,0.48,1.05,1.05s-0.48,1.05-1.05,1.05
							c-0.58,0-1.05-0.48-1.05-1.05S230.62,298.36,231.2,298.36z"/>
					</g>
					<g>
						<path class="st2" d="M236.13,303.67h2.28v-7.37h-1.82v-0.83c0.91-0.15,1.57-0.39,2.13-0.73h0.98v8.92h2.06v1.06h-5.63V303.67z
							"/>
					</g>
				</g>
			</g>
			<g>
				<g>
					<g>
						<path class="st4" d="M376.13,308.92l-1.32-1.3l7.4-7.4l-7.4-7.37l1.32-1.32l7.37,7.4l7.4-7.4l1.3,1.3l-7.37,7.4l7.37,7.4
							l-1.3,1.3l-7.4-7.4L376.13,308.92z"/>
					</g>
				</g>
			</g>
			<g>
				<g>
					<g>
						<path class="st3" d="M584.5,287.98c6.72,0,12.15,5.43,12.15,12.15s-5.43,12.15-12.15,12.15c-6.72,0-12.15-5.43-12.15-12.15
							S577.77,287.98,584.5,287.98z M595.64,300.12c0-6.15-4.99-11.15-11.15-11.15c-6.16,0-11.15,4.99-11.15,11.15
							s4.99,11.15,11.15,11.15C590.65,311.27,595.64,306.28,595.64,300.12z"/>
					</g>
				</g>
			</g>
		</g>
	</g>
	<g>
		<g>
			<g>
				<g>
					<g>
						<path class="st2" d="M36.71,224.73c-0.45,1.1-0.98,2.19-1.57,3.25v10.92h-1.41v-8.76c-0.48,0.66-0.99,1.26-1.49,1.78
							c-0.14-0.35-0.56-1.15-0.83-1.5c1.55-1.47,3.03-3.78,3.91-6.13L36.71,224.73z M42.73,233.28c0.98,1.55,2.5,3.03,3.95,3.84
							c-0.32,0.29-0.82,0.82-1.04,1.18c-1.34-0.9-2.71-2.38-3.71-3.99v4.63h-1.49v-4.55c-1.07,1.6-2.48,3.02-3.91,3.87
							c-0.24-0.37-0.69-0.9-1.02-1.18c1.54-0.78,3.11-2.24,4.15-3.81h-3.63v-1.34h4.42v-1.74h-3.3v-5.22h8.28v5.22h-3.49v1.74h4.32
							v1.34H42.73z M38.54,228.86h5.39v-2.58h-5.39V228.86z"/>
					</g>
					<g>
						<path class="st2" d="M63.09,226.6h-3.1c0.3,0.42,0.61,0.85,0.77,1.2l-1.39,0.42c-0.16-0.43-0.59-1.07-1.01-1.62h-1.14
							c-0.24,0.32-0.5,0.61-0.77,0.88h0.03v1.17h6.16v3.06h-1.46v-1.89H50.5v1.89h-1.39v-3.06h5.94v-1.17h0.08
							c-0.19-0.1-0.37-0.19-0.51-0.26c0.26-0.18,0.51-0.4,0.75-0.62h-2.42c0.24,0.43,0.46,0.86,0.58,1.18l-1.33,0.4
							c-0.13-0.42-0.45-1.04-0.75-1.58h-0.5c-0.42,0.62-0.88,1.18-1.33,1.62c-0.29-0.24-0.86-0.62-1.22-0.82
							c0.94-0.8,1.83-2.03,2.32-3.27l1.39,0.37c-0.13,0.29-0.27,0.59-0.43,0.88h3.89v1.01c0.62-0.66,1.14-1.44,1.46-2.26l1.44,0.35
							c-0.13,0.3-0.29,0.61-0.45,0.9h5.06V226.6z M52.89,234.93h8.45v3.99h-1.49v-0.46h-6.96v0.5h-1.41v-8.29h8.76V234h-7.35V234.93
							z M52.89,231.76v1.14h5.86v-1.14H52.89z M52.89,236.05v1.26h6.96v-1.26H52.89z"/>
					</g>
					<g>
						<path class="st2" d="M70.39,233.84c-1.6,0.82-3.33,1.68-4.67,2.32l-0.58-1.49c0.58-0.22,1.3-0.53,2.08-0.86v-4.77h-1.76v-1.41
							h1.76v-3.23h1.38v3.23h1.62v1.41H68.6v4.16c0.48-0.22,0.98-0.45,1.47-0.67L70.39,233.84z M73.5,231.95
							c-0.18,0.34-0.37,0.66-0.59,0.96h6.69c0,0-0.02,0.37-0.03,0.56c-0.26,3.2-0.5,4.45-0.93,4.93c-0.27,0.3-0.58,0.4-0.96,0.45
							c-0.37,0.03-0.96,0.05-1.6,0.02c-0.02-0.35-0.14-0.88-0.34-1.2c0.54,0.06,1.04,0.06,1.25,0.06c0.24,0,0.37-0.02,0.5-0.18
							c0.24-0.27,0.45-1.18,0.64-3.44h-0.96c-0.64,1.86-1.89,3.86-3.22,4.87c-0.24-0.27-0.7-0.62-1.07-0.83
							c1.25-0.83,2.37-2.42,3.04-4.03h-1.26c-0.86,1.58-2.38,3.28-3.81,4.18c-0.22-0.3-0.64-0.67-0.99-0.9
							c1.26-0.67,2.58-1.95,3.46-3.28h-1.34c-0.61,0.67-1.28,1.25-1.97,1.71c-0.21-0.24-0.72-0.72-1.01-0.93
							c1.2-0.69,2.29-1.73,3.03-2.95h-2.05v-1.26h10v1.26H73.5z M78.85,229.92h-7.39v-5.25h7.39V229.92z M77.47,225.74H72.8v1.04
							h4.67V225.74z M77.47,227.79H72.8v1.06h4.67V227.79z"/>
					</g>
					<g>
						<path class="st2" d="M84.35,233.02c-0.06,1.94-0.35,4.31-1.41,5.92c-0.22-0.26-0.85-0.74-1.15-0.91
							c1.07-1.7,1.17-4.15,1.17-5.97v-4.18h6v5.14H84.35z M89.32,226.43h-6.92v-1.36h6.92V226.43z M84.36,229.23v2.45h3.14v-2.45
							H84.36z M96.81,231.04h-1.6v7.89h-1.49v-7.89h-2.35c-0.1,2.46-0.62,5.63-2.77,7.86c-0.21-0.32-0.74-0.83-1.1-1.01
							c2.21-2.31,2.43-5.44,2.43-7.86v-4.31l1.14,0.27c1.58-0.43,3.22-1.01,4.21-1.58l1.31,1.1c-1.44,0.72-3.39,1.3-5.2,1.74v2.35
							h5.43V231.04z"/>
					</g>
					<g>
						<path class="st2" d="M103.93,224.65c-0.45,1.07-0.98,2.18-1.58,3.22v11.12h-1.41v-8.98c-0.5,0.67-1.02,1.3-1.55,1.82
							c-0.14-0.35-0.56-1.15-0.82-1.5c1.57-1.47,3.07-3.79,3.97-6.15L103.93,224.65z M109.04,233.13c-0.13,1.06-0.38,2.05-0.98,2.93
							c1.54,0.8,3.47,1.31,5.68,1.54c-0.29,0.32-0.69,0.93-0.88,1.34c-2.21-0.32-4.11-0.91-5.67-1.82c-0.8,0.75-1.91,1.38-3.46,1.84
							c-0.18-0.34-0.59-0.93-0.91-1.25c1.42-0.34,2.45-0.83,3.15-1.44c-0.86-0.69-1.58-1.52-2.14-2.5l1.22-0.38
							c0.45,0.74,1.04,1.38,1.79,1.92c0.42-0.67,0.62-1.41,0.72-2.18h-3.71v-4.5h3.81v-1.38h-4.21v-1.36h4.21v-1.58h1.47v1.58h4.42
							v1.36h-4.42v1.38h3.95v4.5H109.04z M107.66,231.9v-0.5v-1.54h-2.45v2.03H107.66z M109.13,229.87v1.54c0,0.16,0,0.34,0,0.5
							h2.53v-2.03H109.13z"/>
					</g>
					<g>
						<path class="st2" d="M129.23,237.06c0,0.86-0.21,1.31-0.79,1.54c-0.59,0.24-1.52,0.27-2.99,0.26c-0.06-0.4-0.3-1.06-0.5-1.44
							c1.02,0.05,2.08,0.03,2.38,0.03c0.29,0,0.4-0.1,0.4-0.4v-2.87h-3.87v4.58h-1.49v-4.58h-3.68c-0.26,1.76-0.83,3.55-2,4.85
							c-0.22-0.29-0.83-0.8-1.17-0.98c1.75-1.94,1.91-4.77,1.91-7.03v-5.7h11.8V237.06z M122.38,232.77v-2.37h-3.47v0.64
							c0,0.54-0.02,1.14-0.06,1.73H122.38z M118.91,226.75V229h3.47v-2.26H118.91z M127.74,226.75h-3.87V229h3.87V226.75z
							 M127.74,232.77v-2.37h-3.87v2.37H127.74z"/>
					</g>
					<g>
						<path class="st2" d="M137.23,232.97c-0.22-0.46-0.67-1.26-1.1-1.97v7.91h-1.38v-6.77c-0.48,1.52-1.07,2.93-1.71,3.84
							c-0.14-0.4-0.5-0.96-0.7-1.28c0.94-1.31,1.86-3.68,2.29-5.71h-1.95v-1.38h2.08v-3.38h1.38v3.38h1.71v1.38h-1.71v0.35
							c0.48,0.59,1.63,2.14,1.89,2.53L137.23,232.97z M147.17,238.4h-6.27v0.5h-1.39v-5.59c-0.37,0.42-0.75,0.8-1.15,1.14
							c-0.21-0.27-0.74-0.85-1.04-1.1c1.18-0.9,2.19-2.13,2.99-3.57h-2.24v-1.26h1.15c-0.29-0.22-0.85-0.59-1.18-0.77
							c0.85-0.86,1.55-2.24,1.94-3.59l1.38,0.32c-0.14,0.45-0.3,0.88-0.48,1.31h5.83v1.25h-3.71c-0.18,0.5-0.35,0.99-0.54,1.47h4.72
							v1.26h-3.38l1.23,0.24c-0.19,0.37-0.4,0.75-0.59,1.09h2.48v1.07h-2.77v1.01h2.45v0.99h-2.45v1.02h2.46v0.99h-2.46v1.07h3.04
							V238.4z M140.92,228.51c0.21-0.48,0.4-0.96,0.56-1.47h-1.23c-0.32,0.56-0.66,1.07-1.01,1.47H140.92z M142.8,232.17h-1.91v1.01
							h1.91V232.17z M142.8,234.17h-1.91v1.02h1.91V234.17z M140.89,237.26h1.91v-1.07h-1.91V237.26z M141.85,229.77
							c-0.22,0.46-0.46,0.9-0.72,1.33h1.81c0.22-0.45,0.43-0.94,0.58-1.33H141.85z"/>
					</g>
					<g>
						<path class="st2" d="M158.57,233.58v3.83c0,0.7-0.13,1.1-0.66,1.3c-0.53,0.22-1.33,0.22-2.5,0.22
							c-0.06-0.38-0.27-0.94-0.45-1.31c0.83,0.02,1.63,0.02,1.87,0.02c0.22,0,0.29-0.06,0.29-0.26v-3.79h-3.76v-5.84h3.27
							c0.11-0.45,0.21-0.93,0.27-1.34h-4.8v3.28c0,2.67-0.22,6.61-1.65,9.2c-0.29-0.22-0.94-0.61-1.31-0.74
							c1.38-2.46,1.49-5.97,1.49-8.48v-4.63h13.05v1.36h-5.01c-0.13,0.46-0.27,0.93-0.42,1.34h4.19v5.84H158.57z M155.9,234.67
							c-0.78,1.36-2.03,2.71-3.15,3.57c-0.29-0.26-0.88-0.67-1.25-0.88c1.17-0.75,2.31-1.92,2.98-3.1L155.9,234.67z M154.83,230.11
							h6.08v-1.22h-6.08V230.11z M154.83,232.45h6.08v-1.25h-6.08V232.45z M160.85,234.19c1.12,0.91,2.48,2.23,3.1,3.15l-1.22,0.8
							c-0.58-0.91-1.89-2.29-3.04-3.25L160.85,234.19z"/>
					</g>
					<g>
						<path class="st2" d="M177.55,233.23c0.8,1.55,2.1,3.07,3.36,3.87c-0.32,0.26-0.78,0.78-1.01,1.15
							c-1.07-0.82-2.13-2.18-2.93-3.65v4.31h-1.41v-4.27c-0.99,1.57-2.32,2.95-3.75,3.76c-0.22-0.35-0.66-0.85-0.98-1.14
							c1.62-0.8,3.2-2.35,4.15-4.03h-2.45v-4.75h3.03v-1.26h-3.51v-0.96c-0.54,0.85-1.23,1.73-1.86,2.4v2h1.92v1.3h-1.92v3.07
							l1.98-0.56l0.18,1.2c-2.13,0.7-4.42,1.42-6.1,1.95l-0.35-1.41c0.26-0.06,0.56-0.14,0.86-0.22v-6.63h1.2v6.29l0.91-0.24v-7.56
							l0.37,0.05c0.35-0.4,0.7-0.91,0.99-1.41h-4.03v-1.31h4.95l0.27-0.08l0.93,0.67l-0.08,0.14h3.28v-1.68h1.41v1.68h3.65v1.3
							h-3.65v1.26h3.25v4.75H177.55z M173.87,232.08h1.7v-2.46h-1.7V232.08z M176.97,229.61v2.46h1.84v-2.46H176.97z"/>
					</g>
					<g>
						<path class="st2" d="M184.87,234.72v1.44h-1.38v-11h5.33v9.56H184.87z M184.87,226.52v2.69h2.58v-2.69H184.87z M187.45,233.34
							v-2.8h-2.58v2.8H187.45z M197.07,237.1c0,0.83-0.21,1.28-0.75,1.52c-0.56,0.24-1.44,0.27-2.79,0.27
							c-0.08-0.4-0.32-1.06-0.54-1.44c0.96,0.03,1.94,0.02,2.22,0.02c0.27-0.02,0.38-0.11,0.38-0.38v-3.2h-4.29
							c-0.37,1.89-1.2,3.79-3.01,5.15c-0.21-0.3-0.78-0.82-1.1-1.02c2.67-2,2.95-4.99,2.95-7.44v-5.68h6.93V237.1z M195.6,232.53
							v-2.46h-4v0.53c0,0.61-0.02,1.26-0.08,1.94H195.6z M191.6,226.27v2.43h4v-2.43H191.6z"/>
					</g>
					<g>
						<path class="st2" d="M214.09,232.22v1.07h-14.18v-1.07h6.27v-0.77h-5.17v-0.96h5.17v-0.74h-4.79v-0.94h4.79v-0.78h-6.26v-1.07
							h6.26v-0.77h-4.59v-0.91h4.59v-1.09h1.5v1.09h4.5v1.68h1.89v1.07h-1.89v1.73h-4.5v0.74h5.28v0.96h-5.28v0.77H214.09z
							 M201.93,233.95h10.34v4.99h-1.5v-0.46h-7.38v0.48h-1.46V233.95z M203.39,234.91v0.8h7.38v-0.8H203.39z M210.76,237.49v-0.85
							h-7.38v0.85H210.76z M207.69,226.96h3.03v-0.77h-3.03V226.96z M207.69,228.81h3.03v-0.78h-3.03V228.81z"/>
					</g>
					<g>
						<path class="st2" d="M224.46,226.64c-0.19,0.59-0.38,1.22-0.54,1.76h6.24v10.55h-1.52v-0.83h-9.75v0.83h-1.44V228.4h4.93
							c0.13-0.54,0.26-1.18,0.35-1.76h-5.97v-1.41h14.15v1.41H224.46z M218.89,236.74h2v-6.98h-2V236.74z M225.2,229.76h-2.98v1.5
							h2.98V229.76z M225.2,232.45h-2.98v1.52h2.98V232.45z M222.22,236.74h2.98v-1.58h-2.98V236.74z M228.64,229.76h-2.1v6.98h2.1
							V229.76z"/>
					</g>
					<g>
						<path class="st2" d="M246.67,223.93l1.22,0.58c-1.75,1.82-2.95,4.13-2.95,7.07s1.2,5.25,2.95,7.07l-1.22,0.58
							c-1.82-1.84-3.17-4.4-3.17-7.65C243.5,228.33,244.85,225.77,246.67,223.93z"/>
					</g>
					<g>
						<path class="st2" d="M263.1,226.36v12.52h-1.57v-0.8h-8.1v0.86h-1.49v-12.58h4.03c0.22-0.69,0.42-1.52,0.53-2.14l1.78,0.21
							c-0.26,0.67-0.51,1.36-0.79,1.94H263.1z M253.43,227.79v2.05h8.1v-2.05H253.43z M253.43,231.21v2.05h8.1v-2.05H253.43z
							 M261.53,236.7v-2.06h-8.1v2.06H261.53z"/>
					</g>
					<g>
						<path class="st2" d="M272.55,228.06h-5.71v-1.18h5.71V228.06z M272.12,238.05h-3.35v0.67h-1.25v-5.38h4.59V238.05z
							 M272.11,230.21h-4.56v-1.15h4.56V230.21z M267.54,231.18h4.56v1.17h-4.56V231.18z M272.06,225.93h-4.45v-1.17h4.45V225.93z
							 M268.78,234.54v2.3h2.08v-2.3H268.78z M272.16,237.38c0.7-0.78,1.02-2.15,1.18-3.44l1.2,0.3c-0.16,1.41-0.48,2.91-1.3,3.83
							L272.16,237.38z M273.82,226.83c0.56,0.18,1.14,0.4,1.73,0.66c0.13-0.43,0.22-0.88,0.3-1.33h-2.56v-1.28h7.75
							c0,0,0,0.42-0.02,0.59c-0.16,3.7-0.3,5.12-0.72,5.6c-0.27,0.35-0.56,0.48-1.01,0.53c-0.37,0.05-1.07,0.05-1.79,0.02
							c-0.02-0.42-0.16-0.99-0.38-1.36c0.66,0.06,1.25,0.06,1.49,0.06c0.24,0.02,0.38-0.02,0.51-0.18c0.21-0.27,0.37-1.3,0.48-3.99
							h-2.4c-0.1,0.64-0.24,1.28-0.45,1.89c0.66,0.32,1.25,0.66,1.68,0.94l-0.72,1.15c-0.38-0.29-0.9-0.59-1.46-0.9
							c-0.58,1.09-1.46,2.06-2.83,2.77c-0.16-0.34-0.54-0.83-0.86-1.07c1.23-0.56,2-1.38,2.5-2.31c-0.64-0.3-1.31-0.58-1.94-0.78
							L273.82,226.83z M277.9,237.5c0.38,0,0.45-0.21,0.5-1.76c0.26,0.24,0.85,0.46,1.23,0.56c-0.14,1.98-0.51,2.5-1.57,2.5h-1.57
							c-1.3,0-1.6-0.42-1.6-1.74v-3.7h1.36v3.68c0,0.4,0.06,0.46,0.46,0.46H277.9z M276.08,231.2c1.01,0.53,2.26,1.38,2.83,2.03
							l-0.93,0.98c-0.56-0.66-1.76-1.55-2.77-2.14L276.08,231.2z M280.01,233.61c0.85,1.18,1.55,2.75,1.78,3.84l-1.31,0.54
							c-0.19-1.07-0.88-2.71-1.68-3.91L280.01,233.61z"/>
					</g>
					<g>
						<path class="st2" d="M298.09,232.22v1.07h-14.18v-1.07h6.27v-0.77h-5.17v-0.96h5.17v-0.74h-4.79v-0.94h4.79v-0.78h-6.26v-1.07
							h6.26v-0.77h-4.59v-0.91h4.59v-1.09h1.5v1.09h4.5v1.68h1.89v1.07h-1.89v1.73h-4.5v0.74h5.28v0.96h-5.28v0.77H298.09z
							 M285.93,233.95h10.34v4.99h-1.5v-0.46h-7.38v0.48h-1.46V233.95z M287.39,234.91v0.8h7.38v-0.8H287.39z M294.76,237.49v-0.85
							h-7.38v0.85H294.76z M291.69,226.96h3.03v-0.77h-3.03V226.96z M291.69,228.81h3.03v-0.78h-3.03V228.81z"/>
					</g>
					<g>
						<path class="st2" d="M301.74,239.23l-1.22-0.58c1.74-1.82,2.95-4.13,2.95-7.07s-1.2-5.25-2.95-7.07l1.22-0.58
							c1.82,1.84,3.17,4.4,3.17,7.65C304.91,234.83,303.56,237.39,301.74,239.23z"/>
					</g>
				</g>
			</g>
			<g>
				<g>
					<g>
						<path class="st3" d="M383.5,214.98c6.72,0,12.15,5.43,12.15,12.15s-5.43,12.15-12.15,12.15c-6.72,0-12.15-5.43-12.15-12.15
							S376.77,214.98,383.5,214.98z M394.64,227.12c0-6.15-4.99-11.15-11.15-11.15c-6.16,0-11.15,4.99-11.15,11.15
							s4.99,11.15,11.15,11.15C389.65,238.27,394.64,233.28,394.64,227.12z"/>
					</g>
				</g>
			</g>
			<g>
				<g>
					<g>
						<path class="st4" d="M577.13,235.92l-1.32-1.3l7.4-7.4l-7.4-7.37l1.32-1.32l7.37,7.4l7.4-7.4l1.3,1.3l-7.37,7.4l7.37,7.4
							l-1.3,1.3l-7.4-7.4L577.13,235.92z"/>
					</g>
				</g>
			</g>
		</g>
	</g>
	<g>
		<g>
			<g>
				<g>
					<g>
						<path class="st2" d="M44.7,361.03v12.52h-1.57v-0.8h-8.1v0.86h-1.49v-12.58h4.03c0.22-0.69,0.42-1.52,0.53-2.14l1.78,0.21
							c-0.26,0.67-0.51,1.36-0.78,1.94H44.7z M35.03,362.45v2.05h8.1v-2.05H35.03z M35.03,365.88v2.05h8.1v-2.05H35.03z
							 M43.13,371.37v-2.06h-8.1v2.06H43.13z"/>
					</g>
					<g>
						<path class="st2" d="M62.81,362.55c0,0-0.02,0.51-0.02,0.69c-0.18,6.61-0.32,8.88-0.83,9.57c-0.3,0.48-0.64,0.61-1.14,0.69
							c-0.48,0.06-1.22,0.06-1.97,0.02c-0.03-0.4-0.19-1.01-0.42-1.41c0.74,0.06,1.39,0.06,1.68,0.06c0.27,0,0.42-0.05,0.58-0.26
							c0.35-0.45,0.51-2.48,0.64-7.99h-1.89c-0.21,4.26-0.93,7.65-3.68,9.76c-0.22-0.34-0.72-0.86-1.07-1.1
							c0.1-0.06,0.19-0.14,0.29-0.22c-2.31,0.27-4.61,0.51-6.32,0.67l-0.19-1.26c0.93-0.06,2.08-0.16,3.34-0.27v-1.22H48.9v-1.09
							h2.91v-0.82h-2.87v-4.82h2.87v-0.83h-3.3v-1.1h3.3v-0.9c-0.98,0.08-1.95,0.13-2.85,0.16c-0.05-0.3-0.21-0.78-0.35-1.07
							c2.37-0.13,5.2-0.42,6.87-0.78l0.7,1.12c-0.85,0.18-1.91,0.34-3.01,0.45v1.02h3.23v0.93h1.68c0.02-1.09,0.02-2.23,0.02-3.43
							h1.42c0,1.18-0.02,2.34-0.03,3.43H62.81z M50.17,365.51h1.65v-0.98h-1.65V365.51z M51.82,367.4v-0.98h-1.65v0.98H51.82z
							 M53.18,371.37c0.99-0.1,2.02-0.19,3.03-0.3c1.31-1.81,1.71-4.23,1.84-7.14h-1.7v-1.2h-3.17v0.83h2.98v4.82h-2.98v0.82h3.01
							v1.09h-3.01V371.37z M54.89,365.51v-0.98h-1.71v0.98H54.89z M53.18,366.42v0.98h1.71v-0.98H53.18z"/>
					</g>
					<g>
						<path class="st2" d="M79.81,371.35h-6.48v2.27h-1.54v-2.27h-6.32v-1.34h6.32v-1.1H67.1v-6.27h4.69v-0.99h-5.86v-1.36h5.86
							v-1.38h1.54v1.38h5.95v1.36h-5.95v0.99h4.8v6.27h-4.8v1.1h6.48V371.35z M68.54,365.19h3.25v-1.33h-3.25V365.19z M71.79,367.69
							v-1.36h-3.25v1.36H71.79z M73.32,363.86v1.33h3.31v-1.33H73.32z M76.64,366.33h-3.31v1.36h3.31V366.33z"/>
					</g>
					<g>
						<path class="st2" d="M90.03,372.94l-0.94-1.5c0.54-0.05,1.02-0.13,1.42-0.22c2.05-0.46,3.87-1.97,3.87-4.55
							c0-2.32-1.41-4.16-3.87-4.47c-0.22,1.44-0.5,2.99-0.96,4.5c-0.96,3.27-2.29,5.07-3.87,5.07s-3.04-1.76-3.04-4.43
							c0-3.59,3.14-6.66,7.15-6.66c3.84,0,6.28,2.69,6.28,6.03C96.06,370.07,93.92,372.38,90.03,372.94z M85.72,369.86
							c0.72,0,1.47-1.04,2.21-3.51c0.4-1.26,0.69-2.72,0.88-4.13c-2.88,0.46-4.56,2.96-4.56,4.95
							C84.25,369.01,85.03,369.86,85.72,369.86z"/>
					</g>
					<g>
						<path class="st2" d="M103.93,359.31c-0.45,1.07-0.98,2.18-1.58,3.22v11.12h-1.41v-8.98c-0.5,0.67-1.02,1.3-1.55,1.82
							c-0.14-0.35-0.56-1.15-0.82-1.5c1.57-1.47,3.07-3.79,3.97-6.15L103.93,359.31z M109.04,367.8c-0.13,1.06-0.38,2.05-0.98,2.93
							c1.54,0.8,3.47,1.31,5.68,1.54c-0.29,0.32-0.69,0.93-0.88,1.34c-2.21-0.32-4.11-0.91-5.67-1.82c-0.8,0.75-1.91,1.38-3.46,1.84
							c-0.18-0.34-0.59-0.93-0.91-1.25c1.42-0.34,2.45-0.83,3.15-1.44c-0.86-0.69-1.58-1.52-2.14-2.5l1.22-0.38
							c0.45,0.74,1.04,1.38,1.79,1.92c0.42-0.67,0.62-1.41,0.72-2.18h-3.71v-4.5h3.81v-1.38h-4.21v-1.36h4.21v-1.58h1.47v1.58h4.42
							v1.36h-4.42v1.38h3.95v4.5H109.04z M107.66,366.57v-0.5v-1.54h-2.45v2.03H107.66z M109.13,364.53v1.54c0,0.16,0,0.34,0,0.5
							h2.53v-2.03H109.13z"/>
					</g>
					<g>
						<path class="st2" d="M129.23,371.72c0,0.86-0.21,1.31-0.79,1.54c-0.59,0.24-1.52,0.27-2.99,0.26c-0.06-0.4-0.3-1.06-0.5-1.44
							c1.02,0.05,2.08,0.03,2.38,0.03c0.29,0,0.4-0.1,0.4-0.4v-2.87h-3.87v4.58h-1.49v-4.58h-3.68c-0.26,1.76-0.83,3.55-2,4.85
							c-0.22-0.29-0.83-0.8-1.17-0.98c1.75-1.94,1.91-4.77,1.91-7.03v-5.7h11.8V371.72z M122.38,367.43v-2.37h-3.47v0.64
							c0,0.54-0.02,1.14-0.06,1.73H122.38z M118.91,361.41v2.26h3.47v-2.26H118.91z M127.74,361.41h-3.87v2.26h3.87V361.41z
							 M127.74,367.43v-2.37h-3.87v2.37H127.74z"/>
					</g>
					<g>
						<path class="st2" d="M141.02,365.19c-0.72,0.54-1.47,1.02-2.24,1.5h6.21v6.83h-1.54v-0.43h-6.04v0.5h-1.47v-5.38
							c-0.9,0.42-1.81,0.8-2.72,1.15c-0.18-0.34-0.64-0.93-0.91-1.23c2.21-0.74,4.34-1.73,6.26-2.94h-5.86v-1.33h5.3v-1.79h-3.91
							v-1.3h3.91v-1.87h1.47v1.87h3.73v0.7c0.64-0.66,1.23-1.34,1.74-2.06l1.28,0.67c-1.01,1.38-2.21,2.62-3.54,3.78h4.19v1.33
							H141.02z M143.45,367.93h-6.04v1.33h6.04V367.93z M143.45,371.83v-1.41h-6.04v1.41H143.45z M140.52,363.86
							c0.75-0.56,1.44-1.17,2.1-1.79h-3.14v1.79H140.52z"/>
					</g>
					<g>
						<path class="st2" d="M157.23,372.94l-0.94-1.5c0.54-0.05,1.02-0.13,1.42-0.22c2.05-0.46,3.87-1.97,3.87-4.55
							c0-2.32-1.41-4.16-3.87-4.47c-0.22,1.44-0.5,2.99-0.96,4.5c-0.96,3.27-2.29,5.07-3.87,5.07s-3.04-1.76-3.04-4.43
							c0-3.59,3.14-6.66,7.15-6.66c3.84,0,6.28,2.69,6.28,6.03C163.26,370.07,161.12,372.38,157.23,372.94z M152.92,369.86
							c0.72,0,1.47-1.04,2.21-3.51c0.4-1.26,0.69-2.72,0.88-4.13c-2.88,0.46-4.56,2.96-4.56,4.95
							C151.45,369.01,152.23,369.86,152.92,369.86z"/>
					</g>
					<g>
						<path class="st2" d="M171.11,359.38c-0.43,1.07-0.98,2.16-1.57,3.19v10.98h-1.41v-8.84c-0.51,0.69-1.04,1.31-1.57,1.86
							c-0.14-0.34-0.58-1.14-0.82-1.5c1.57-1.47,3.07-3.78,3.97-6.13L171.11,359.38z M180.8,371.64v1.42h-10.28v-1.42h4.45v-3.63
							h-3.54v-1.41h3.54v-3.17h-4.07V362h5.06c-0.8-0.67-2.03-1.5-3.03-2.08l0.98-1.06c1.18,0.64,2.77,1.65,3.55,2.35l-0.7,0.78
							h3.79v1.42h-4.08v3.17h3.62v1.41h-3.62v3.63H180.8z"/>
					</g>
					<g>
						<path class="st2" d="M185.15,367.69c-0.06,1.94-0.35,4.31-1.41,5.92c-0.22-0.26-0.85-0.74-1.15-0.91
							c1.07-1.7,1.17-4.15,1.17-5.97v-4.18h6v5.14H185.15z M190.12,361.09h-6.92v-1.36h6.92V361.09z M185.16,363.89v2.45h3.14v-2.45
							H185.16z M197.61,365.7h-1.6v7.89h-1.49v-7.89h-2.35c-0.1,2.46-0.62,5.63-2.77,7.86c-0.21-0.32-0.74-0.83-1.1-1.01
							c2.21-2.31,2.43-5.44,2.43-7.86v-4.31l1.14,0.27c1.58-0.43,3.22-1.01,4.21-1.58l1.31,1.1c-1.44,0.72-3.39,1.3-5.2,1.74v2.35
							h5.43V365.7z"/>
					</g>
					<g>
						<path class="st2" d="M206.12,361.32c1.57-0.06,3.25-0.21,4.71-0.46v1.49c-1.57,0.22-3.54,0.37-5.27,0.42
							c-0.35,0.75-0.78,1.5-1.23,2.11c0.53-0.3,1.42-0.48,2.05-0.48c1.01,0,1.84,0.46,2.15,1.36c0.99-0.46,1.81-0.8,2.56-1.15
							c0.54-0.24,1.01-0.45,1.52-0.7l0.66,1.47c-0.46,0.14-1.15,0.4-1.63,0.59c-0.82,0.32-1.86,0.74-2.98,1.25
							c0.02,0.91,0.03,2.19,0.05,2.96h-1.52c0.03-0.56,0.05-1.47,0.06-2.26c-1.38,0.75-2.24,1.49-2.24,2.43
							c0,1.09,1.04,1.31,2.66,1.31c1.3,0,3.04-0.16,4.45-0.42l-0.05,1.62c-1.15,0.14-3.01,0.29-4.45,0.29
							c-2.38,0-4.24-0.56-4.24-2.54c0-1.97,1.92-3.22,3.78-4.16c-0.21-0.56-0.72-0.8-1.31-0.8c-0.98,0-1.98,0.51-2.66,1.15
							c-0.46,0.45-0.93,1.04-1.46,1.71l-1.38-1.02c1.87-1.76,2.96-3.31,3.62-4.67c-0.16,0-0.32,0-0.46,0c-0.67,0-1.78-0.03-2.67-0.1
							v-1.5c0.85,0.13,1.98,0.18,2.75,0.18c0.3,0,0.62,0,0.94-0.02c0.21-0.66,0.34-1.33,0.37-1.9l1.67,0.13
							C206.46,360.04,206.33,360.63,206.12,361.32z"/>
					</g>
					<g>
						<path class="st2" d="M231.15,372.94h-6.32v0.66h-1.42v-7.28c-0.21,0.19-0.42,0.37-0.62,0.53c-0.14-0.22-0.51-0.62-0.8-0.91
							v5.73h-2.99v1.25h-1.22v-4.61c-0.22,0.43-0.46,0.83-0.74,1.2c-0.16-0.34-0.58-1.07-0.83-1.41c1.15-1.63,1.79-4.13,2.18-6.82
							h-1.68v-1.34h5.63v0.53h3.23c0.18-0.51,0.34-1.02,0.46-1.57l1.42,0.27c-0.11,0.45-0.26,0.88-0.4,1.3h4.02v2.79h-1.34v-1.52
							h-3.15c-0.34,0.8-0.74,1.54-1.18,2.23h1.67c0.27-0.58,0.51-1.26,0.66-1.78l1.38,0.3c-0.22,0.5-0.46,1.01-0.7,1.47h2.32v1.25
							h-2.61v1.38h2.32v1.12h-2.32v1.44h2.32v1.12h-2.32v1.46h3.06V372.94z M220.71,365.85h-1.73v4.51h1.73V365.85z M221.98,365.56
							c1.28-0.94,2.3-2.27,3.06-3.84h-1.47v1.52h-1.26v-1.97h-2.5c-0.18,1.12-0.38,2.24-0.66,3.28h2.83V365.56z M226.72,365.19
							h-1.89v1.38h1.89V365.19z M226.72,367.69h-1.89v1.44h1.89V367.69z M224.83,371.7h1.89v-1.46h-1.89V371.7z"/>
					</g>
					<g>
						<path class="st2" d="M238.95,362.72h-5.71v-1.18h5.71V362.72z M238.52,372.71h-3.34v0.67h-1.25v-5.38h4.59V372.71z
							 M238.51,364.87h-4.56v-1.15h4.56V364.87z M233.95,365.85h4.56v1.17h-4.56V365.85z M238.46,360.6h-4.45v-1.17h4.45V360.6z
							 M235.18,369.21v2.3h2.08v-2.3H235.18z M238.55,372.04c0.7-0.78,1.02-2.15,1.18-3.44l1.2,0.3c-0.16,1.41-0.48,2.91-1.3,3.83
							L238.55,372.04z M240.22,361.49c0.56,0.18,1.14,0.4,1.73,0.66c0.13-0.43,0.22-0.88,0.3-1.33h-2.56v-1.28h7.75
							c0,0,0,0.42-0.02,0.59c-0.16,3.7-0.3,5.12-0.72,5.6c-0.27,0.35-0.56,0.48-1.01,0.53c-0.37,0.05-1.07,0.05-1.79,0.02
							c-0.02-0.42-0.16-0.99-0.38-1.36c0.66,0.06,1.25,0.06,1.49,0.06c0.24,0.02,0.38-0.02,0.51-0.18c0.21-0.27,0.37-1.3,0.48-3.99
							h-2.4c-0.1,0.64-0.24,1.28-0.45,1.89c0.66,0.32,1.25,0.66,1.68,0.94l-0.72,1.15c-0.38-0.29-0.9-0.59-1.46-0.9
							c-0.58,1.09-1.46,2.06-2.83,2.77c-0.16-0.34-0.54-0.83-0.86-1.07c1.23-0.56,2-1.38,2.5-2.31c-0.64-0.3-1.31-0.58-1.94-0.78
							L240.22,361.49z M244.3,372.17c0.38,0,0.45-0.21,0.5-1.76c0.26,0.24,0.85,0.46,1.23,0.56c-0.14,1.98-0.51,2.5-1.57,2.5h-1.57
							c-1.3,0-1.6-0.42-1.6-1.74v-3.7h1.36v3.68c0,0.4,0.06,0.46,0.46,0.46H244.3z M242.48,365.86c1.01,0.53,2.26,1.38,2.83,2.03
							l-0.93,0.98c-0.56-0.66-1.76-1.55-2.77-2.14L242.48,365.86z M246.41,368.28c0.85,1.18,1.55,2.75,1.78,3.84l-1.31,0.54
							c-0.19-1.07-0.88-2.71-1.68-3.91L246.41,368.28z"/>
					</g>
					<g>
						<path class="st2" d="M33.69,389.52c1.17-0.11,4.02-0.38,6.96-0.64c1.71-0.14,3.31-0.24,4.42-0.27v1.62
							c-0.9,0-2.29,0.02-3.12,0.22c-2.13,0.64-3.54,2.93-3.54,4.82c0,2.91,2.72,3.89,5.36,4l-0.58,1.71
							c-3.14-0.16-6.42-1.84-6.42-5.36c0-2.42,1.42-4.35,2.72-5.2c-1.62,0.16-5.35,0.54-7.14,0.93l-0.16-1.74
							C32.81,389.59,33.37,389.56,33.69,389.52z M44.08,394.21l-0.99,0.45c-0.38-0.82-0.8-1.55-1.28-2.24l0.96-0.42
							C43.15,392.56,43.74,393.54,44.08,394.21z M45.9,393.49l-0.98,0.46c-0.42-0.82-0.83-1.52-1.34-2.21l0.96-0.43
							C44.93,391.86,45.55,392.82,45.9,393.49z"/>
					</g>
					<g>
						<path class="st2" d="M55.18,387.62l1.71-0.19c0.06,0.59,0.19,1.2,0.34,1.81c1.12-0.14,2.21-0.38,3.23-0.72l0.21,1.46
							c-0.9,0.26-1.98,0.48-3.07,0.62c0.11,0.34,0.21,0.66,0.32,0.94c0.1,0.27,0.21,0.56,0.32,0.86c1.31-0.16,2.37-0.43,3.14-0.67
							l0.26,1.5c-0.77,0.19-1.71,0.38-2.77,0.53c0.3,0.62,0.64,1.22,0.99,1.74c0.19,0.29,0.4,0.51,0.66,0.75l-0.8,1.18
							c-0.9-0.21-2.5-0.38-3.62-0.5l0.13-1.22c0.77,0.08,1.73,0.18,2.22,0.22c-0.42-0.66-0.78-1.34-1.09-2.02
							c-1.95,0.16-4.56,0.16-7.01,0l-0.08-1.49c2.4,0.24,4.69,0.24,6.5,0.1c-0.1-0.24-0.19-0.48-0.27-0.7
							c-0.14-0.42-0.26-0.78-0.37-1.12c-1.54,0.08-3.46,0.06-5.46-0.13l-0.1-1.46c1.9,0.21,3.65,0.29,5.15,0.21
							c-0.02-0.05-0.03-0.1-0.05-0.14C55.53,388.69,55.37,388.15,55.18,387.62z M52.23,397.8c0,1.26,1.15,1.86,3.49,1.86
							c1.5,0,2.75-0.11,3.91-0.35l-0.08,1.62c-1.12,0.18-2.46,0.29-3.81,0.29c-3.17,0-5.03-0.94-5.06-3.11
							c-0.02-0.96,0.3-1.68,0.67-2.4l1.57,0.3C52.54,396.55,52.23,397.11,52.23,397.8z"/>
					</g>
					<g>
						<path class="st2" d="M69.56,388.42c0.83,0,4.48-0.1,5.35-0.18c0.56-0.05,0.85-0.08,1.02-0.14l0.88,1.15
							c-0.34,0.21-0.67,0.43-1.01,0.69c-0.82,0.61-2.79,2.27-3.92,3.2c0.64-0.19,1.28-0.27,1.92-0.27c2.67,0,4.66,1.65,4.66,3.89
							c0,2.54-2.03,4.37-5.63,4.37c-2.21,0-3.68-0.98-3.68-2.43c0-1.18,1.06-2.26,2.64-2.26c1.99,0,3.12,1.28,3.33,2.8
							c1.1-0.48,1.7-1.34,1.7-2.51c0-1.5-1.47-2.59-3.47-2.59c-2.56,0-4.07,1.2-5.95,3.22l-1.17-1.18c1.25-1.02,3.25-2.71,4.19-3.49
							c0.9-0.74,2.75-2.27,3.55-2.98c-0.85,0.03-3.62,0.16-4.45,0.21c-0.4,0.02-0.82,0.05-1.18,0.1l-0.05-1.65
							C68.68,388.4,69.18,388.42,69.56,388.42z M72.54,399.69c0.4,0,0.79-0.02,1.14-0.06c-0.13-1.17-0.83-1.98-1.89-1.98
							c-0.67,0-1.17,0.43-1.17,0.91C70.62,399.26,71.4,399.69,72.54,399.69z"/>
					</g>
					<g>
						<path class="st2" d="M88.43,388.9c-0.05,0.35-0.11,0.85-0.19,1.46c1.18,0,2.26-0.08,3.1-0.21l-0.05,1.5
							c-0.99,0.1-1.9,0.16-3.22,0.16h-0.03c-0.11,0.83-0.22,1.75-0.32,2.58c0.08,0,0.14,0,0.22,0c1.04,0,2.19-0.05,3.28-0.19
							l-0.05,1.5c-0.98,0.1-1.95,0.16-2.99,0.16c-0.21,0-0.4,0-0.61,0c-0.05,0.56-0.08,1.06-0.08,1.39c0,1.46,0.85,2.3,2.56,2.3
							c2.34,0,3.75-1.04,3.75-2.54c0-1.09-0.58-2.21-1.7-3.2l1.78-0.37c1.07,1.26,1.6,2.38,1.6,3.76c0,2.4-2.14,3.97-5.46,3.97
							c-2.32,0-4.1-1.01-4.1-3.67c0-0.42,0.05-1.02,0.11-1.74c-1.17-0.1-2.29-0.29-3.2-0.54l0.08-1.54
							c1.04,0.37,2.19,0.54,3.28,0.64c0.11-0.85,0.22-1.74,0.34-2.59c-1.15-0.1-2.35-0.3-3.33-0.56l0.08-1.47
							c0.98,0.32,2.22,0.51,3.41,0.61c0.08-0.58,0.13-1.09,0.16-1.5c0.05-0.64,0.05-0.94,0.02-1.26l1.79,0.1
							C88.55,388.13,88.49,388.52,88.43,388.9z"/>
					</g>
					<g>
						<path class="st2" d="M106.83,400.94l-0.94-1.5c0.54-0.05,1.02-0.13,1.42-0.22c2.05-0.46,3.87-1.97,3.87-4.55
							c0-2.32-1.41-4.16-3.87-4.47c-0.22,1.44-0.5,2.99-0.96,4.5c-0.96,3.27-2.29,5.07-3.87,5.07c-1.58,0-3.04-1.76-3.04-4.43
							c0-3.59,3.14-6.66,7.16-6.66c3.84,0,6.27,2.69,6.27,6.03C112.86,398.07,110.72,400.38,106.83,400.94z M102.52,397.86
							c0.72,0,1.47-1.04,2.21-3.51c0.4-1.26,0.69-2.72,0.88-4.13c-2.88,0.46-4.56,2.96-4.56,4.95
							C101.05,397.01,101.83,397.86,102.52,397.86z"/>
					</g>
					<g>
						<path class="st2" d="M129.07,386.59l1.22,0.58c-1.74,1.82-2.95,4.13-2.95,7.07s1.2,5.25,2.95,7.07l-1.22,0.58
							c-1.83-1.84-3.17-4.4-3.17-7.65C125.9,391,127.24,388.44,129.07,386.59z"/>
					</g>
					<g>
						<path class="st2" d="M135.91,398.23c0.69,1.1,1.95,1.6,3.73,1.68c1.81,0.08,5.52,0.03,7.55-0.11
							c-0.18,0.34-0.4,1.02-0.48,1.46c-1.84,0.08-5.23,0.11-7.09,0.05c-1.98-0.08-3.36-0.61-4.34-1.84
							c-0.67,0.66-1.38,1.3-2.16,1.98l-0.74-1.47c0.64-0.43,1.42-1.04,2.1-1.63v-3.86h-1.92v-1.38h3.35V398.23z M135.15,390.8
							c-0.45-0.8-1.52-1.9-2.46-2.67l1.14-0.83c0.93,0.72,2.05,1.78,2.53,2.56L135.15,390.8z M140.97,398.2h-4.37v-1.12h4.37v-0.78
							h-3.35v-4.58h3.35v-0.8h-3.78v-1.07h3.78v-0.99h1.46v0.99h3.84v1.07h-3.84v0.8h3.46v4.58h-3.46v0.78h4.51v1.12h-4.51v1.31
							h-1.46V398.2z M138.14,389.54h-1.31v-2.11h9.88v2.11h-1.38v-1.01h-7.19V389.54z M138.91,393.54h2.06v-0.86h-2.06V393.54z
							 M140.97,395.33v-0.9h-2.06v0.9H140.97z M142.43,392.68v0.86h2.13v-0.86H142.43z M144.56,394.44h-2.13v0.9h2.13V394.44z"/>
					</g>
					<g>
						<path class="st2" d="M153.63,398.94v2.64h-1.39v-2.64h-2.98v-1.33h2.98v-1.1h-2.37v-5.62h2.37v-1.07h-2.74v-1.3h2.74v-1.62
							h1.41v1.62h2.67v1.3h-2.67v1.07h2.46v5.62h-2.48v1.1h2.85v1.33H153.63z M151.02,393.17h1.34v-1.22h-1.34V393.17z
							 M151.02,395.41h1.34v-1.22h-1.34V395.41z M154.89,391.96h-1.41v1.22h1.41V391.96z M154.89,394.2h-1.41v1.22h1.41V394.2z
							 M162.69,401.56c-0.05-0.29-0.13-0.62-0.21-0.96c-2.22,0.19-4.51,0.4-6.19,0.54l-0.26-1.46l1.31-0.08
							c0.45-1.55,0.9-3.79,1.15-5.6h-2.06v-1.41h7.47v1.41h-3.79c-0.35,1.84-0.85,3.94-1.31,5.49l3.26-0.22
							c-0.34-0.94-0.75-1.92-1.17-2.75l1.25-0.53c0.88,1.58,1.65,3.65,1.92,5.03L162.69,401.56z M163.33,389.51h-6.24v-1.42h6.24
							V389.51z"/>
					</g>
					<g>
						<path class="st2" d="M178.59,400.12c0.58,0,0.69-0.29,0.74-2.15c0.34,0.26,0.98,0.48,1.39,0.59c-0.16,2.34-0.59,2.95-2,2.95
							h-2.26c-1.67,0-2.07-0.45-2.07-1.94v-3.59h-2.22c-0.37,2.75-1.33,4.61-5.36,5.6c-0.14-0.38-0.53-1.01-0.85-1.31
							c3.6-0.75,4.32-2.16,4.63-4.29h-2.87v-3.95c-0.21,0.14-0.43,0.3-0.66,0.45c-0.22-0.37-0.69-0.91-1.04-1.15
							c2.18-1.26,3.68-3.03,4.5-4.5l1.63,0.34c-0.18,0.29-0.35,0.58-0.56,0.86h3.58l0.24-0.06l1.04,0.67
							c-0.37,0.67-0.93,1.44-1.49,2.14h4.47v5.2h-3.49v3.57c0,0.48,0.1,0.56,0.72,0.56H178.59z M169.21,394.66h3.44v-2.54h-3.44
							V394.66z M170.67,389.27c-0.42,0.51-0.9,1.02-1.42,1.52h3.99c0.38-0.46,0.78-1.01,1.09-1.52H170.67z M177.87,392.12h-3.78
							v2.54h3.78V392.12z"/>
					</g>
					<g>
						<path class="st2" d="M189.23,390.72h-6.39v-1.18h6.39V390.72z M188.57,400.71h-3.7v0.67h-1.31v-5.38h5.01V400.71z
							 M197.58,395.46h-3.46v6.11h-1.49v-6.11h-3.55v-1.42h3.55v-3.49h-1.34c-0.43,0.99-0.91,1.87-1.46,2.56
							c-0.27-0.22-0.83-0.58-1.22-0.78v0.54h-5.03v-1.15h5.03v0.45c1.07-1.28,1.87-3.3,2.29-5.31l1.49,0.3
							c-0.16,0.69-0.35,1.38-0.59,2.03h5.43v1.36h-3.11v3.49h3.46V395.46z M183.59,393.85h5.03v1.17h-5.03V393.85z M188.63,388.6
							h-4.95v-1.17h4.95V388.6z M184.87,397.21v2.3h2.37v-2.3H184.87z"/>
					</g>
					<g>
						<path class="st2" d="M199.64,389.59h5.83v1.18h-5.83V389.59z M205,400.89h-3.36v0.69h-1.28v-5.38H205V400.89z M204.91,392.97
							h-4.51v-1.15h4.51V392.97z M200.39,393.99h4.51v1.15h-4.51V393.99z M204.91,388.6h-4.42v-1.17h4.42V388.6z M201.64,397.4v2.31
							h2.06v-2.31H201.64z M214.4,399.64v1.41h-8.92v-1.41h1.12v-7.76h1.38v7.76h1.62V389.2h-3.62v-1.41h8.15v1.41h-3.07v4.13h2.98
							v1.41h-2.98v4.9H214.4z"/>
					</g>
					<g>
						<path class="st2" d="M222.57,389.89c0.82-0.13,1.62-0.3,2.35-0.54l0.05,1.47c-0.8,0.22-1.79,0.43-2.87,0.58
							c-0.78,2.26-2.18,5.04-3.47,6.8l-1.54-0.78c1.31-1.57,2.64-4.03,3.36-5.84c-0.4,0.02-0.78,0.03-1.17,0.03
							c-0.61,0-1.28-0.02-1.92-0.05l-0.11-1.49c0.62,0.06,1.39,0.1,2.03,0.1c0.53,0,1.09-0.02,1.65-0.06
							c0.24-0.9,0.43-1.89,0.46-2.74l1.76,0.18C223.03,388.1,222.81,389,222.57,389.89z M226.92,394.37
							c0.02,0.53,0.06,1.46,0.11,2.37c1.38,0.5,2.5,1.3,3.31,2.02l-0.85,1.36c-0.62-0.58-1.44-1.26-2.4-1.79c0,0.16,0,0.32,0,0.45
							c0,1.36-0.82,2.47-2.93,2.47c-1.86,0-3.36-0.8-3.36-2.47c0-1.5,1.36-2.56,3.34-2.56c0.48,0,0.93,0.05,1.36,0.11
							c-0.05-1.26-0.13-2.77-0.16-3.83h1.57C226.89,393.17,226.91,393.73,226.92,394.37z M223.96,399.78c1.22,0,1.62-0.67,1.62-1.54
							c0-0.14,0-0.34-0.02-0.54c-0.46-0.13-0.96-0.21-1.49-0.21c-1.06,0-1.78,0.48-1.78,1.14
							C222.3,399.32,222.87,399.78,223.96,399.78z M226.19,390.87l0.82-1.23c1.15,0.51,3.04,1.57,3.84,2.15l-0.91,1.33
							C229.05,392.37,227.28,391.36,226.19,390.87z"/>
					</g>
					<g>
						<path class="st2" d="M239.32,392.58c1.31-0.8,2.62-1.44,3.44-1.89c0.53-0.3,0.93-0.54,1.3-0.85l0.8,1.47
							c-0.42,0.26-0.86,0.48-1.38,0.75c-1.06,0.53-2.72,1.31-4.24,2.3c-1.41,0.93-2.3,1.92-2.3,3.09c0,1.26,1.2,2,3.58,2
							c1.7,0,3.84-0.24,5.17-0.56l-0.02,1.81c-1.28,0.22-3.06,0.4-5.09,0.4c-3.09,0-5.36-0.9-5.36-3.46c0-1.7,1.09-3.01,2.72-4.18
							c-0.74-1.34-1.55-3.14-2.29-4.85l1.58-0.67C237.87,389.68,238.65,391.32,239.32,392.58z M246.38,389.97l-1.04,0.46
							c-0.32-0.66-0.85-1.62-1.28-2.24l1.04-0.43C245.5,388.36,246.08,389.35,246.38,389.97z M248.24,389.27l-1.04,0.46
							c-0.34-0.69-0.86-1.62-1.31-2.21l1.04-0.43C247.34,387.68,247.95,388.69,248.24,389.27z"/>
					</g>
					<g>
						<path class="st2" d="M251.34,401.9l-1.22-0.58c1.75-1.82,2.95-4.13,2.95-7.07s-1.2-5.25-2.95-7.07l1.22-0.58
							c1.83,1.84,3.17,4.4,3.17,7.65C254.51,397.5,253.16,400.06,251.34,401.9z"/>
					</g>
					<g>
						<path class="st2" d="M274.63,389.62l-4.62,4.62l4.62,4.62l-0.41,0.41l-4.62-4.62l-4.64,4.64l-0.41-0.41l4.64-4.64l-4.62-4.62
							l0.41-0.41l4.62,4.62l4.62-4.62L274.63,389.62z M265.61,395.3c-0.57,0-1.05-0.48-1.05-1.05s0.48-1.05,1.05-1.05
							s1.05,0.48,1.05,1.05S266.19,395.3,265.61,395.3z M268.55,390.25c0-0.57,0.48-1.05,1.05-1.05s1.05,0.48,1.05,1.05
							s-0.48,1.05-1.05,1.05S268.55,390.83,268.55,390.25z M270.65,398.24c0,0.57-0.48,1.05-1.05,1.05s-1.05-0.48-1.05-1.05
							c0-0.57,0.48-1.05,1.05-1.05S270.65,397.66,270.65,398.24z M273.6,393.19c0.57,0,1.05,0.48,1.05,1.05s-0.48,1.05-1.05,1.05
							s-1.05-0.48-1.05-1.05S273.02,393.19,273.6,393.19z"/>
					</g>
					<g>
						<path class="st2" d="M277.92,398.81c3.01-3,4.71-4.79,4.71-6.43c0-1.13-0.62-1.95-1.89-1.95c-0.84,0-1.57,0.53-2.13,1.19
							l-0.74-0.71c0.84-0.91,1.72-1.51,3.03-1.51c1.83,0,2.98,1.16,2.98,2.93c0,1.88-1.71,3.74-4.08,6.23
							c0.53-0.04,1.15-0.1,1.68-0.1h2.9v1.11h-6.46V398.81z"/>
					</g>
				</g>
			</g>
			<g>
				<g>
					<g>
						<path class="st3" d="M383.5,370.98c6.72,0,12.15,5.43,12.15,12.15s-5.43,12.15-12.15,12.15c-6.72,0-12.15-5.43-12.15-12.15
							S376.77,370.98,383.5,370.98z M394.64,383.12c0-6.15-4.99-11.15-11.15-11.15c-6.16,0-11.15,4.99-11.15,11.15
							s4.99,11.15,11.15,11.15C389.65,394.27,394.64,389.28,394.64,383.12z"/>
					</g>
				</g>
			</g>
			<g>
				<g>
					<g>
						<path class="st3" d="M584.5,370.98c6.72,0,12.15,5.43,12.15,12.15s-5.43,12.15-12.15,12.15c-6.72,0-12.15-5.43-12.15-12.15
							S577.77,370.98,584.5,370.98z M595.64,383.12c0-6.15-4.99-11.15-11.15-11.15c-6.16,0-11.15,4.99-11.15,11.15
							s4.99,11.15,11.15,11.15C590.65,394.27,595.64,389.28,595.64,383.12z"/>
					</g>
				</g>
			</g>
		</g>
	</g>
	<g>
		<line class="st5" x1="0" y1="59" x2="693" y2="59"/>
		<rect x="0" y="58.5" class="st6" width="693" height="1"/>
	</g>
	<g>
		<g>
			<line class="st5" x1="1" y1="127.38" x2="694" y2="127.38"/>
		</g>
		<rect x="1" y="126.87" class="st6" width="693" height="1"/>
	</g>
	<g>
		<g>
			<line class="st5" x1="1" y1="195.75" x2="694" y2="195.75"/>
		</g>
		<rect x="1" y="195.25" class="st6" width="693" height="1"/>
	</g>
	<g>
		<g>
			<line class="st5" x1="1" y1="264.13" x2="694" y2="264.13"/>
		</g>
		<rect x="1" y="263.62" class="st6" width="693" height="1"/>
	</g>
	<g>
		<g>
			<line class="st5" x1="1" y1="332.5" x2="694" y2="332.5"/>
		</g>
		<rect x="1" y="332" class="st6" width="693" height="1"/>
	</g>
	<g>
		<line class="st6" x1="1" y1="428.5" x2="694" y2="428.5"/>
		<rect x="1" y="428" class="st6" width="693" height="1"/>
	</g>
</g>
</svg>
