<?xml version="1.0" encoding="utf-8"?>
<!-- Generator: Adobe Illustrator 24.0.1, SVG Export Plug-In . SVG Version: 6.00 Build 0)  -->
<svg version="1.1" id="レイヤー_1" xmlns="http://www.w3.org/2000/svg" xmlns:xlink="http://www.w3.org/1999/xlink" x="0px"
	 y="0px" viewBox="0 0 240 200" style="enable-background:new 0 0 240 200;" xml:space="preserve">
<style type="text/css">
	.st0{fill:none;}
	.st1{fill:#00395B;}
	.st2{fill:#FFFFFF;}
	.st3{fill:#535353;}
	.st4{fill:#D0A867;}
</style>
<g>
	<rect y="-0.88" class="st0" width="240" height="200"/>
	<g>
		<circle class="st1" cx="27" cy="24.12" r="20"/>
		<g>
			<path class="st2" d="M34.78,13.95v3.36l-9.82,16.95h-4.02l10-17.03H19.97v-3.28C19.97,13.95,34.78,13.95,34.78,13.95z"/>
		</g>
	</g>
</g>
<g>
	<g>
		<path class="st3" d="M101.42,182.67c0,1,0.98,1.68,3.14,1.68c1.9,0,3.7-0.21,4.83-0.55l0.01,1.54c-1.09,0.28-2.83,0.49-4.8,0.49
			c-3.01,0-4.64-1.01-4.64-2.84c0-0.76,0.15-1.43,0.28-1.97l1.44,0.14C101.54,181.69,101.42,182.17,101.42,182.67z M104.62,175.56
			c1.36,0,2.86-0.08,3.89-0.2v1.46c-0.97,0.08-2.58,0.17-3.89,0.17c-1.43,0-2.63-0.06-3.75-0.15v-1.44
			C101.89,175.5,103.17,175.56,104.62,175.56z M110.03,175.79l-0.92,0.41c-0.28-0.57-0.73-1.42-1.12-1.95l0.91-0.38
			C109.24,174.38,109.75,175.25,110.03,175.79z M111.65,175.19l-0.91,0.41c-0.31-0.6-0.76-1.42-1.15-1.93l0.9-0.38
			C110.85,173.81,111.38,174.69,111.65,175.19z"/>
		<path class="st3" d="M120.51,174.28c0,2.54,0.32,7.73,5.66,10.88c-0.29,0.22-0.83,0.78-1.05,1.11c-3.18-1.92-4.68-4.78-5.36-7.35
			c-1.04,3.38-2.79,5.83-5.38,7.38c-0.25-0.27-0.85-0.81-1.21-1.05c3.01-1.55,4.71-4.31,5.52-8.11l0.71,0.13
			c-0.1-0.59-0.15-1.16-0.18-1.67h-3.33v-1.32H120.51z"/>
		<path class="st3" d="M134.97,184.77h5.29v1.13h-11.81v-1.13h5.14v-3.18h-4.47v-1.12h4.47v-1.67h-2.75v-0.73
			c-0.7,0.5-1.43,0.97-2.19,1.37c-0.15-0.29-0.53-0.78-0.81-1.05c2.38-1.18,4.67-3.24,5.71-4.96h1.33c1.49,2.04,3.82,3.85,6,4.79
			c-0.31,0.34-0.62,0.79-0.84,1.16c-0.74-0.38-1.5-0.85-2.24-1.39v0.8h-2.84v1.67h4.57v1.12h-4.57L134.97,184.77L134.97,184.77z
			 M131.22,181.8c0.55,0.74,1.11,1.74,1.3,2.41l-1.13,0.5c-0.17-0.67-0.7-1.72-1.23-2.49L131.22,181.8z M137.34,177.66
			c-1.22-0.92-2.31-1.96-3.04-2.94c-0.67,0.95-1.69,1.99-2.9,2.94H137.34z M135.89,184.28c0.48-0.66,1.08-1.72,1.42-2.49l1.25,0.46
			c-0.55,0.88-1.18,1.83-1.7,2.47L135.89,184.28z"/>
	</g>
</g>
<g>
	<path class="st4" d="M185,141.33H73.61v-57.5H185V141.33z M78.19,136.75h102.22V88.42H78.19V136.75z"/>
	<polygon class="st4" points="68.89,129.73 64.3,129.73 64.3,74.53 173.4,74.53 173.4,79.11 68.89,79.11 	"/>
	<polygon class="st4" points="59.58,120.43 55,120.43 55,65.22 164.1,65.22 164.1,69.81 59.58,69.81 	"/>
	<g>
		<path class="st4" d="M154.8,106.93c0.37,3.82,2.84,6.34,6.34,6.34s5.97-2.52,6.34-6.34l0.52-4.13c0.32-4.05-2.98-6.99-6.87-6.99
			c-3.88,0-7.19,2.93-6.87,6.99L154.8,106.93z"/>
		<path class="st4" d="M174.72,123.49l-0.25-1.59c-0.21-1.34-1.05-2.49-2.26-3.1l-5.27-2.66c-0.16-0.08-0.3-0.21-0.41-0.35
			c-1.53,1.61-3.38,2.56-5.38,2.56s-3.85-0.95-5.38-2.56c-0.11,0.14-0.25,0.27-0.41,0.35l-5.27,2.66c-1.21,0.61-2.05,1.76-2.26,3.1
			l-0.25,1.59c-0.09,0.57,0.03,1.4,0.54,1.82c0.68,0.56,3.2,4.03,13.03,4.03s12.35-3.48,13.03-4.03
			C174.69,124.89,174.8,124.06,174.72,123.49z"/>
	</g>
	<path class="st4" d="M129.31,127.62c-8.29,0-15.03-6.74-15.03-15.03s6.74-15.03,15.03-15.03s15.03,6.74,15.03,15.03
		S137.59,127.62,129.31,127.62z M129.31,99.84c-7.03,0-12.74,5.72-12.74,12.74s5.72,12.74,12.74,12.74
		c7.03,0,12.74-5.72,12.74-12.74S136.33,99.84,129.31,99.84z"/>
	<g>
		<path class="st4" d="M83.7,94.75h-0.48v-1.13c0.76,0,1.13-0.17,1.42-0.57h0.65v9.22H83.7V94.75z"/>
		<path class="st4" d="M87.63,95.37c0-1.28,0.68-2.4,2.21-2.4s2.22,1.12,2.22,2.4v4.57c0,1.28-0.69,2.42-2.22,2.42
			s-2.21-1.13-2.21-2.42V95.37z M89.22,95.1v5.12c0,0.39,0.25,0.69,0.62,0.69s0.64-0.3,0.64-0.69V95.1c0-0.39-0.26-0.68-0.64-0.68
			C89.47,94.42,89.22,94.71,89.22,95.1z"/>
		<path class="st4" d="M94.28,95.37c0-1.28,0.68-2.4,2.21-2.4s2.22,1.12,2.22,2.4v4.57c0,1.28-0.69,2.42-2.22,2.42
			s-2.21-1.13-2.21-2.42V95.37z M95.87,95.1v5.12c0,0.39,0.25,0.69,0.62,0.69s0.64-0.3,0.64-0.69V95.1c0-0.39-0.26-0.68-0.64-0.68
			C96.11,94.42,95.87,94.71,95.87,95.1z"/>
		<path class="st4" d="M100.92,95.37c0-1.28,0.68-2.4,2.21-2.4s2.22,1.12,2.22,2.4v4.57c0,1.28-0.69,2.42-2.22,2.42
			s-2.21-1.13-2.21-2.42V95.37z M102.51,95.1v5.12c0,0.39,0.25,0.69,0.62,0.69s0.64-0.3,0.64-0.69V95.1c0-0.39-0.26-0.68-0.64-0.68
			C102.76,94.42,102.51,94.71,102.51,95.1z"/>
		<path class="st4" d="M107.56,95.37c0-1.28,0.68-2.4,2.21-2.4s2.22,1.12,2.22,2.4v4.57c0,1.28-0.69,2.42-2.22,2.42
			s-2.21-1.13-2.21-2.42V95.37z M109.15,95.1v5.12c0,0.39,0.25,0.69,0.62,0.69s0.64-0.3,0.64-0.69V95.1c0-0.39-0.26-0.68-0.64-0.68
			C109.4,94.42,109.15,94.71,109.15,95.1z"/>
	</g>
</g>
</svg>
