<?xml version="1.0" encoding="utf-8"?>
<!-- Generator: Adobe Illustrator 24.0.1, SVG Export Plug-In . SVG Version: 6.00 Build 0)  -->
<svg version="1.1" id="レイヤー_1" xmlns="http://www.w3.org/2000/svg" xmlns:xlink="http://www.w3.org/1999/xlink" x="0px"
	 y="0px" viewBox="0 0 240 200" style="enable-background:new 0 0 240 200;" xml:space="preserve">
<style type="text/css">
	.st0{fill:none;}
	.st1{fill:#00395B;}
	.st2{fill:#FFFFFF;}
	.st3{fill:#535353;}
	.st4{fill:#D0A867;}
</style>
<g>
	<g>
		<rect y="-0.22" class="st0" width="240" height="200"/>
		<g>
			<circle class="st1" cx="27" cy="24.78" r="20"/>
			<g>
				<path class="st2" d="M34.58,30.63v3.28H19.26c2.24-2.29,4.68-4.81,7.25-7.92c3.08-3.69,3.61-5.04,3.61-6.46
					c0-1.63-1.07-3.05-3.05-3.05c-2.93,0-4.48,2.67-4.96,3.51l-1.55-3.49c1.58-2.06,4-3.31,6.57-3.31c3.28,0,6.62,1.96,6.62,6.24
					c0,3.08-1.48,5.34-6.87,11.2H34.58z"/>
			</g>
		</g>
	</g>
	<g>
		<g>
			<path class="st3" d="M89.16,157.16h-5.35v-1.04h5.35V157.16z M88.66,165.9h-3.1v0.59h-1.12v-4.71h4.22V165.9z M84.47,158.03h4.2
				v1.01h-4.2V158.03z M84.47,159.89h4.2v1.02h-4.2V159.89z M88.63,155.3h-4.1v-1.02h4.1V155.3z M85.56,162.83v2.02h1.96v-2.02
				H85.56z M96.72,163.34h-3.19v3.32h-1.27v-3.32h-3.25v-1.19h3.25v-1.74h-2.54v-1.18h2.54v-1.61h-2.8v-1.18h1.46
				c-0.18-0.64-0.55-1.51-0.94-2.18l1.05-0.38c0.45,0.73,0.9,1.68,1.05,2.33l-0.59,0.24h2.82l-0.59-0.21
				c0.34-0.66,0.8-1.71,1.01-2.45l1.29,0.38c-0.41,0.8-0.83,1.67-1.19,2.28h1.69v1.18h-2.98v1.61h2.68v1.18h-2.68v1.74h3.19V163.34z
				"/>
			<path class="st3" d="M100.28,162.01c-0.17,1.32-0.48,2.67-0.91,3.56c-0.22-0.14-0.73-0.38-0.99-0.48
				c0.42-0.84,0.67-2.09,0.8-3.28L100.28,162.01z M110.96,154.89v11.47h-1.22v-0.63h-4.27v0.74h-1.18v-5.32l-0.97,0.46
				c-0.07-0.28-0.18-0.62-0.32-0.98l-1.08,0.11v5.9h-1.16v-5.79c-0.78,0.08-1.53,0.15-2.17,0.21l-0.17-1.16
				c0.32-0.01,0.7-0.04,1.11-0.07c0.24-0.29,0.48-0.62,0.73-0.97c-0.42-0.62-1.15-1.4-1.78-1.99l0.63-0.87
				c0.13,0.11,0.25,0.22,0.39,0.35c0.43-0.8,0.9-1.81,1.16-2.56l1.16,0.45c-0.5,0.95-1.09,2.04-1.6,2.83
				c0.27,0.28,0.5,0.56,0.69,0.81c0.56-0.84,1.08-1.72,1.44-2.45l1.09,0.52c-0.77,1.21-1.78,2.65-2.69,3.8l1.78-0.13
				c-0.18-0.34-0.36-0.66-0.55-0.97l0.97-0.42c0.53,0.83,1.08,1.88,1.33,2.65v-6H110.96z M103.23,161.76
				c0.38,0.85,0.76,1.96,0.91,2.68l-1.04,0.38c-0.13-0.74-0.52-1.86-0.87-2.73L103.23,161.76z M105.47,156.11v3.56h1.51v-3.56
				H105.47z M105.47,164.53h1.51v-3.67h-1.51V164.53z M109.74,156.11h-1.61v3.56h1.61V156.11z M109.74,164.53v-3.67h-1.61v3.67
				H109.74z"/>
			<path class="st3" d="M120.51,154.63c0,2.54,0.32,7.73,5.66,10.88c-0.29,0.22-0.83,0.78-1.05,1.11c-3.18-1.92-4.68-4.78-5.36-7.35
				c-1.04,3.38-2.79,5.83-5.38,7.38c-0.25-0.27-0.85-0.81-1.21-1.05c3.01-1.55,4.71-4.31,5.52-8.11l0.71,0.13
				c-0.1-0.59-0.15-1.16-0.18-1.67h-3.33v-1.32H120.51z"/>
			<path class="st3" d="M140.05,156.78c0,0-0.01,0.46-0.03,0.64c-0.31,5.67-0.57,7.75-1.19,8.46c-0.38,0.45-0.74,0.59-1.29,0.64
				c-0.5,0.06-1.4,0.04-2.23,0c-0.03-0.38-0.21-0.95-0.46-1.34c0.92,0.08,1.78,0.08,2.13,0.08c0.31,0,0.48-0.04,0.64-0.21
				c0.48-0.45,0.77-2.37,1.01-6.95h-4.38c-0.21,2.89-1.16,6.28-5.14,8.63c-0.21-0.32-0.7-0.81-1.01-1.05
				c3.64-2.09,4.55-5.06,4.76-7.58h-4.34v-1.33h4.41v-0.35v-2.59h1.37v2.59v0.35H140.05z"/>
			<path class="st3" d="M148.33,158.59c1.23-0.74,2.62-1.43,3.35-1.83c0.46-0.27,0.8-0.48,1.12-0.74l0.77,1.27
				c-0.36,0.22-0.76,0.43-1.2,0.66c-0.92,0.48-2.79,1.34-4.12,2.21c-1.23,0.81-2.02,1.7-2.02,2.72c0,1.09,1.05,1.74,3.14,1.74
				c1.5,0,3.38-0.21,4.52-0.5l-0.01,1.6c-1.11,0.2-2.68,0.34-4.45,0.34c-2.7,0-4.69-0.77-4.69-3.01c0-1.49,0.95-2.63,2.38-3.64
				c-0.64-1.18-1.34-2.76-2-4.26l1.39-0.57C147.05,156.07,147.74,157.5,148.33,158.59z"/>
			<path class="st3" d="M30.22,184.24l0.95-1.12c0.74,0.74,1.75,1.22,2.75,1.22c1.25,0,1.95-0.59,1.95-1.46
				c0-0.94-0.7-1.23-1.65-1.65l-1.43-0.62c-1-0.42-2.1-1.2-2.1-2.7c0-1.62,1.43-2.84,3.39-2.84c1.21,0,2.34,0.5,3.12,1.3l-0.85,1.04
				c-0.64-0.57-1.36-0.92-2.27-0.92c-1.05,0-1.74,0.5-1.74,1.32c0,0.9,0.83,1.23,1.67,1.57l1.41,0.6c1.22,0.52,2.1,1.28,2.1,2.79
				c0,1.65-1.37,3-3.63,3C32.47,185.75,31.16,185.19,30.22,184.24z"/>
			<path class="st3" d="M40.16,175.24h1.62v4.22h4.41v-4.22h1.62v10.32H46.2v-4.69h-4.41v4.69h-1.62V175.24z"/>
			<path class="st3" d="M51.22,175.24h1.62v10.32h-1.62V175.24z"/>
			<path class="st3" d="M56.24,175.24h6.11v1.37h-4.48v3.15h3.81v1.36h-3.81v4.44h-1.62V175.24z"/>
			<path class="st3" d="M66.97,176.62h-3.03v-1.37h7.69v1.37h-3.04v8.95h-1.62V176.62z"/>
			<path class="st3" d="M73.55,180.44c0-3.36,2.07-5.38,4.8-5.38c1.46,0,2.44,0.64,3.07,1.3l-0.87,1.04
				c-0.52-0.52-1.15-0.92-2.14-0.92c-1.92,0-3.19,1.48-3.19,3.91c0,2.45,1.13,3.95,3.26,3.95c0.63,0,1.26-0.18,1.62-0.5v-2.42h-2.04
				v-1.33h3.52v4.47c-0.69,0.69-1.85,1.2-3.26,1.2C75.56,185.75,73.55,183.82,73.55,180.44z"/>
			<path class="st3" d="M86.68,175.24h1.88l3.42,10.32h-1.72l-0.87-2.94H85.8l-0.88,2.94h-1.65L86.68,175.24z M86.18,181.35h2.82
				l-0.41-1.39c-0.35-1.12-0.66-2.27-0.97-3.43h-0.07c-0.29,1.18-0.62,2.31-0.95,3.43L86.18,181.35z"/>
			<path class="st3" d="M96.13,176.62h-3.03v-1.37h7.69v1.37h-3.04v8.95h-1.62V176.62z"/>
			<path class="st3" d="M103.27,175.24h6.09v1.37h-4.47v2.87h3.78v1.37h-3.78v3.33h4.62v1.37h-6.25V175.24z"/>
			<path class="st3" d="M119.13,174.22c-0.35,0.97-0.8,1.95-1.3,2.87v9.57h-1.22v-7.62c-0.36,0.49-0.73,0.95-1.11,1.34
				c-0.11-0.28-0.49-0.97-0.69-1.27c1.25-1.28,2.42-3.25,3.14-5.27L119.13,174.22z M125.23,176.36v2.04h2.46v7.93h-1.26v-0.78h-6.12
				v0.85h-1.21v-8h2.35v-2.04h-2.51v-1.18h8.84v1.18H125.23z M120.31,184.42h1.26v-4.85h-1.26V184.42z M123.99,176.36h-1.32v2.04
				h1.32V176.36z M122.68,179.57v4.85h1.32v-4.85H122.68z M126.43,179.57h-1.33v4.85h1.33V179.57z"/>
			<path class="st3" d="M141.72,175.62c-0.48,1.44-1.25,2.66-2.19,3.68c0.91,0.73,2.03,1.34,3.33,1.72
				c-0.27,0.25-0.63,0.77-0.81,1.09c-0.15-0.06-0.31-0.11-0.46-0.18v4.69h-1.26v-0.5h-3.46v0.55h-1.21v-4.62
				c-0.31,0.14-0.62,0.27-0.94,0.38c-0.15-0.31-0.48-0.78-0.74-1.05l0.08-0.03c-0.21-0.39-0.57-0.95-0.91-1.46v6.77h-1.22v-6.05
				c-0.46,1.39-1.05,2.69-1.67,3.53c-0.11-0.36-0.43-0.87-0.63-1.16c0.88-1.16,1.75-3.22,2.17-5.03h-1.85v-1.21h1.98v-2.93h1.22
				v2.93h1.71v0.76c1.02-0.98,1.89-2.3,2.42-3.7l1.25,0.34c-0.15,0.39-0.34,0.78-0.53,1.16h2.66l0.24-0.06L141.72,175.62z
				 M134.34,181.27c1.23-0.43,2.42-1.11,3.45-1.97c-0.5-0.55-0.92-1.12-1.27-1.7c-0.41,0.49-0.81,0.92-1.23,1.3
				c-0.21-0.24-0.71-0.67-1.01-0.87l0.1-0.08h-1.2v0.48c0.38,0.41,1.47,1.75,1.74,2.07L134.34,181.27z M140.74,181.55
				c-0.77-0.39-1.47-0.88-2.07-1.4c-0.62,0.53-1.29,1.01-2,1.4H140.74z M140.33,184.99v-2.34h-3.46v2.34H140.33z M137.36,176.42
				l-0.13,0.2c0.34,0.63,0.81,1.28,1.4,1.88c0.57-0.62,1.06-1.32,1.44-2.07H137.36z"/>
			<path class="st3" d="M150.14,175.93c1.37-0.06,2.84-0.18,4.12-0.41v1.3c-1.37,0.2-3.1,0.32-4.61,0.36
				c-0.31,0.66-0.69,1.32-1.08,1.85c0.46-0.27,1.25-0.42,1.79-0.42c0.88,0,1.61,0.41,1.88,1.19c0.87-0.41,1.58-0.7,2.24-1.01
				c0.48-0.21,0.88-0.39,1.33-0.62l0.57,1.29c-0.41,0.13-1.01,0.35-1.43,0.52c-0.71,0.28-1.62,0.64-2.61,1.09
				c0.01,0.8,0.03,1.92,0.04,2.59h-1.33c0.03-0.49,0.04-1.29,0.06-1.98c-1.21,0.66-1.96,1.3-1.96,2.13c0,0.95,0.91,1.15,2.33,1.15
				c1.13,0,2.66-0.14,3.89-0.36l-0.04,1.41c-1.01,0.13-2.63,0.25-3.89,0.25c-2.09,0-3.71-0.49-3.71-2.23c0-1.72,1.68-2.82,3.31-3.64
				c-0.18-0.49-0.63-0.7-1.15-0.7c-0.85,0-1.74,0.45-2.33,1.01c-0.41,0.39-0.81,0.91-1.27,1.5l-1.2-0.9
				c1.64-1.54,2.59-2.9,3.17-4.09c-0.14,0-0.28,0-0.41,0c-0.59,0-1.55-0.03-2.34-0.08v-1.32c0.74,0.11,1.74,0.15,2.41,0.15
				c0.27,0,0.55,0,0.83-0.01c0.18-0.58,0.29-1.16,0.32-1.67l1.46,0.11C150.44,174.81,150.33,175.33,150.14,175.93z"/>
			<path class="st3" d="M162.08,183.02c0,1,0.98,1.68,3.14,1.68c1.91,0,3.7-0.21,4.83-0.55l0.01,1.54c-1.09,0.28-2.83,0.49-4.8,0.49
				c-3.01,0-4.64-1.01-4.64-2.84c0-0.76,0.15-1.43,0.28-1.97l1.44,0.14C162.2,182.04,162.08,182.51,162.08,183.02z M165.28,175.9
				c1.36,0,2.86-0.08,3.89-0.2v1.46c-0.97,0.08-2.58,0.17-3.89,0.17c-1.43,0-2.63-0.06-3.75-0.15v-1.44
				C162.55,175.84,163.83,175.9,165.28,175.9z M170.69,176.14l-0.92,0.41c-0.28-0.57-0.73-1.42-1.12-1.95l0.91-0.38
				C169.9,174.72,170.41,175.59,170.69,176.14z M172.31,175.54l-0.91,0.41c-0.31-0.6-0.76-1.42-1.15-1.93l0.9-0.38
				C171.51,174.15,172.04,175.03,172.31,175.54z"/>
			<path class="st3" d="M177.46,179.04c0.49,0.5,1.74,1.97,2.02,2.34l-0.78,1.05c-0.24-0.46-0.76-1.23-1.23-1.91v6.14h-1.25v-6.18
				c-0.5,1.44-1.15,2.82-1.82,3.68c-0.14-0.36-0.45-0.9-0.64-1.19c0.94-1.15,1.85-3.21,2.3-5h-1.97v-1.23h2.14v-2.93h1.25v2.93h1.88
				v1.23h-1.88V179.04z M186.27,174.6v11.89h-1.3v-0.76h-3.81v0.83h-1.25V174.6H186.27z M181.16,175.83v2.06h3.81v-2.06H181.16z
				 M181.16,181.21h3.81v-2.13h-3.81V181.21z M184.96,184.54v-2.14h-3.81v2.14H184.96z"/>
			<path class="st3" d="M193.8,177.16h-5.23v-1.04h5.23V177.16z M193.33,185.9h-3.01v0.59h-1.12v-4.71h4.13V185.9z M193.32,179.04
				h-4.1v-1.01h4.1V179.04z M189.21,179.89h4.1v1.02h-4.1V179.89z M193.29,175.3h-4.02v-1.02h4.02V175.3z M190.32,182.83v2.02h1.89
				v-2.02H190.32z M198.29,181.67c0,0.83,0.52,2.87,3.25,3.91c-0.22,0.29-0.59,0.8-0.76,1.11c-1.97-0.77-2.93-2.47-3.15-3.31
				c-0.24,0.85-1.29,2.48-3.5,3.31c-0.15-0.29-0.49-0.8-0.74-1.05c3-1.06,3.57-3.12,3.57-3.96v-2.04h1.33V181.67z M193.61,183.12
				c0.64-0.5,1.06-1.47,1.26-2.44l1.15,0.24c-0.18,1.05-0.64,2.14-1.36,2.79L193.61,183.12z M200.55,180.12
				c-0.66-0.6-1.89-1.47-3.03-2.18c-0.55,1.02-1.46,1.76-3.03,2.3c-0.14-0.31-0.48-0.78-0.74-1.04c2.87-0.88,3.19-2.51,3.32-5.38
				h1.27c-0.06,1.16-0.15,2.17-0.39,3.03c1.2,0.7,2.67,1.64,3.45,2.28L200.55,180.12z M196.09,174.91c-0.13,0.94-0.5,1.96-1.13,2.55
				l-0.99-0.48c0.55-0.49,0.91-1.41,1.06-2.28L196.09,174.91z M198.84,183.02c0.43-0.64,0.95-1.71,1.23-2.44l1.27,0.42
				c-0.49,0.84-1.05,1.79-1.5,2.4L198.84,183.02z M201.19,175.03c-0.45,0.8-0.97,1.67-1.37,2.23l-0.97-0.38
				c0.39-0.62,0.85-1.58,1.09-2.25L201.19,175.03z"/>
			<path class="st3" d="M207.61,184.32c0,1.21-0.97,2.19-2.19,2.19c-1.2,0-2.2-0.98-2.2-2.19c0-1.2,1-2.2,2.2-2.2
				C206.65,182.12,207.61,183.12,207.61,184.32z M206.77,184.32c0-0.74-0.6-1.34-1.34-1.34c-0.74,0-1.34,0.6-1.34,1.34
				c0,0.74,0.6,1.34,1.34,1.34C206.17,185.66,206.77,185.06,206.77,184.32z"/>
		</g>
	</g>
	<g>
		<g>
			<path class="st4" d="M136.13,38.75H85.31c-1.22,0-2.21,0.99-2.21,2.21v90.58c0,1.22,0.99,2.21,2.21,2.21h69.37
				c1.22,0,2.21-0.99,2.21-2.21V59.52L136.13,38.75z M135.46,45.58l15.04,15.04h-15.04V45.58z M151.59,128.44H88.41V44.05h42.64
				v16.69c0,1.18,0.49,2.27,1.26,3.04c0.77,0.77,1.86,1.26,3.04,1.26h16.24V128.44z"/>
			<rect x="100.53" y="91.09" class="st4" width="38.66" height="4.42"/>
			<rect x="100.53" y="102.28" class="st4" width="38.66" height="4.42"/>
			<rect x="100.53" y="113.46" class="st4" width="38.66" height="4.42"/>
		</g>
		<g>
			<g>
				<path class="st4" d="M101.07,74.39c-1.3,1.01-1.51,4.13-1.36,4.8c0.15,0.67,1.64,1.17,3.77,1.17c2.13,0,28.46,0,28.46,0
					s3.62-0.18,4.71-0.45c1.09-0.27,3.44-1.22,3.44-1.58c0-0.36,0-1.87,0-2.45s-0.39-0.77-0.6-1.31c-0.21-0.54,0.26-2.3-0.47-2.6
					c-0.74-0.29-2.73,0.02-5.15-1.09c-2.42-1.11-5.1-2.14-12.27-2.14c-7.17,0-7.19,3.22-9.98,3.78
					C108.82,73.07,102.36,73.38,101.07,74.39z"/>
				<g>
					<circle class="st4" cx="105.97" cy="78.94" r="3.15"/>
				</g>
				<g>
					<circle class="st4" cx="132.12" cy="78.94" r="3.15"/>
				</g>
			</g>
		</g>
	</g>
</g>
</svg>
