<?xml version="1.0" encoding="utf-8"?>
<!-- Generator: Adobe Illustrator 24.0.1, SVG Export Plug-In . SVG Version: 6.00 Build 0)  -->
<svg version="1.1" id="レイヤー_1" xmlns="http://www.w3.org/2000/svg" xmlns:xlink="http://www.w3.org/1999/xlink" x="0px"
	 y="0px" viewBox="0 0 240 200" style="enable-background:new 0 0 240 200;" xml:space="preserve">
<style type="text/css">
	.st0{fill:none;}
	.st1{fill:#00395B;}
	.st2{fill:#FFFFFF;}
	.st3{fill:#535353;}
	.st4{fill:none;stroke:#D0A867;stroke-width:4;stroke-miterlimit:10;}
	.st5{fill:#FFFFFF;stroke:#D0A867;stroke-width:4;stroke-miterlimit:10;}
	.st6{fill:#D0A867;}
</style>
<g>
	<g>
		<rect y="-0.38" class="st0" width="240" height="200"/>
		<g>
			<circle class="st1" cx="27" cy="23.62" r="20"/>
			<g>
				<path class="st2" d="M30.48,16.4c-0.69-0.05-0.76-0.08-1.09-0.08c-1.15,0-4.94,0-6.57,5.8c0.61-0.56,1.93-1.73,4.33-1.73
					c3.23,0,6.64,2.39,6.64,6.72c0,4.12-3.18,7.05-7.13,7.05c-3.67,0-7.69-2.47-7.69-9.16c0-6.18,3.59-11.96,10.16-11.96
					c0.53,0,1.12,0.05,1.35,0.05V16.4z M26.61,23.56c-1.86,0-3.94,1.22-3.94,3.44c0,1.96,1.5,3.89,3.89,3.89
					c2.47,0,3.64-1.86,3.64-3.69C30.2,23.78,27.29,23.56,26.61,23.56z"/>
			</g>
		</g>
	</g>
	<g>
		<g>
			<path class="st3" d="M89.21,184.87h-5.67v1.99h-1.34v-1.99h-5.53v-1.18h5.53v-0.97h-4.1v-5.49h4.1v-0.87h-5.13v-1.19h5.13v-1.2
				h1.34v1.2h5.21v1.19h-5.21v0.87h4.2v5.49h-4.2v0.97h5.67V184.87z M79.35,179.47h2.84v-1.16h-2.84V179.47z M82.19,181.66v-1.19
				h-2.84v1.19H82.19z M83.53,178.31v1.16h2.9v-1.16H83.53z M86.43,180.47h-2.9v1.19h2.9V180.47z"/>
			<path class="st3" d="M94.37,183.37h1.97v1.12h-1.97v2.34h-1.12v-2.34h-2.09v-1.12h2.09v-0.95h-1.68v-5.03h1.68v-0.9H91.3v-1.09
				h1.95v-1.43h1.12v1.43h1.89v1.09h-1.89v0.9h1.74v5.03h-1.74V183.37z M92.45,179.43h0.94v-1.11h-0.94V179.43z M92.45,181.46h0.94
				v-1.12h-0.94V181.46z M95.19,178.33h-0.95v1.11h0.95V178.33z M95.19,180.34h-0.95v1.12h0.95V180.34z M100.7,176.15v1.25h3.05
				v8.11c0,0.57-0.1,0.9-0.46,1.08c-0.39,0.17-0.97,0.18-1.82,0.18c-0.06-0.28-0.2-0.77-0.34-1.05c0.6,0.01,1.18,0.01,1.36,0
				c0.18,0,0.24-0.06,0.24-0.22v-1.51c-0.13,0.11-0.25,0.24-0.32,0.34c-0.35-0.52-0.57-1.13-0.71-1.78
				c-0.18,0.76-0.45,1.39-0.8,1.81c-0.08-0.15-0.21-0.35-0.35-0.49v2.83h-0.81v-2.76c-0.14,0.1-0.31,0.25-0.39,0.36
				c-0.28-0.49-0.48-1.05-0.59-1.65c-0.18,0.73-0.42,1.33-0.74,1.74c-0.08-0.2-0.25-0.43-0.41-0.59v3.01h-0.97v-9.4h2.93v-1.25
				h-3.05v-1.12h7.4v1.12H100.7z M99.14,179.54c0,1.47,0.04,2.84,0.59,3.98v-5.06H97.6v5.22c0.49-0.63,0.74-1.85,0.87-3.35h-0.53
				v-0.8H99.14z M102.73,178.47h-2.19v5.14c0.46-0.67,0.74-1.86,0.87-3.26h-0.56v-0.8h1.23c0,1.44,0.04,2.79,0.64,3.92V178.47z"/>
			<path class="st3" d="M112.85,186.25l-0.83-1.32c0.48-0.04,0.9-0.11,1.25-0.2c1.79-0.41,3.39-1.72,3.39-3.98
				c0-2.03-1.23-3.64-3.39-3.91c-0.2,1.26-0.43,2.62-0.84,3.94c-0.84,2.86-2,4.44-3.39,4.44s-2.66-1.54-2.66-3.88
				c0-3.14,2.75-5.83,6.26-5.83c3.36,0,5.49,2.35,5.49,5.28C118.13,183.75,116.25,185.76,112.85,186.25z M109.08,183.56
				c0.63,0,1.29-0.91,1.93-3.07c0.35-1.11,0.6-2.38,0.77-3.61c-2.52,0.41-3.99,2.59-3.99,4.33
				C107.79,182.82,108.48,183.56,109.08,183.56z"/>
			<path class="st3" d="M127.17,180.65c0,0-0.01,0.41-0.06,0.57c-0.24,3.19-0.48,4.52-0.97,5.03c-0.32,0.36-0.69,0.46-1.23,0.5
				c-0.45,0.06-1.32,0.04-2.18,0c-0.04-0.41-0.21-0.97-0.48-1.36c0.88,0.08,1.79,0.1,2.14,0.1c0.28,0,0.46-0.01,0.63-0.15
				c0.31-0.27,0.53-1.26,0.71-3.49h-3.32l-0.14,0.67l-1.3-0.21c0.29-1.22,0.63-3.14,0.83-4.62h3.99v-1.96h-4.41v-1.21h5.69v4.38
				h-4.13c-0.08,0.57-0.2,1.18-0.29,1.74H127.17z M131.91,174.14v12.68h-1.32v-12.68H131.91z"/>
			<path class="st3" d="M137.61,180.2c-0.49-0.46-1.53-1.08-2.38-1.44l0.73-0.98c0.83,0.32,1.89,0.88,2.41,1.33L137.61,180.2z
				 M138.61,182.15c-0.59,1.49-1.34,3.15-2.02,4.5l-1.19-0.74c0.63-1.09,1.5-2.9,2.14-4.51L138.61,182.15z M138.33,176.55
				c-0.48-0.48-1.5-1.11-2.31-1.5l0.73-0.95c0.81,0.34,1.85,0.91,2.35,1.39L138.33,176.55z M140.62,179.05
				c0,2.24-0.22,5.55-1.62,7.72c-0.24-0.2-0.78-0.5-1.09-0.63c1.36-2.06,1.47-4.99,1.47-7.1v-3.75h3.8v-1.32h1.32v1.32h3.52v1.09
				h-7.38v1.34H142v-1.02h1.15v1.02h2.24v-1.02h1.19v1.02h1.5v1.04h-1.5v2.12H142v-2.12h-1.37V179.05z M147.52,181.84
				c-0.49,1.25-1.26,2.21-2.24,2.97c0.87,0.43,1.88,0.74,3,0.91c-0.27,0.25-0.62,0.76-0.79,1.09c-1.27-0.27-2.38-0.69-3.32-1.26
				c-1.02,0.56-2.17,0.97-3.39,1.23c-0.11-0.31-0.41-0.8-0.63-1.05c1.06-0.18,2.09-0.49,3-0.94c-0.62-0.56-1.13-1.2-1.54-1.96
				l0.84-0.25h-1.54v-1.04h5.59l0.22-0.06L147.52,181.84z M142.77,182.58c0.35,0.6,0.84,1.13,1.46,1.58
				c0.63-0.43,1.18-0.97,1.58-1.58H142.77z M143.15,178.76v1.09h2.24v-1.09H143.15z"/>
			<path class="st3" d="M154.21,176.34c-0.07,1.55-0.17,4.79-0.17,6.72c0,1.48,0.91,1.99,2.13,1.99c2.45,0,3.92-1.39,4.93-2.89
				l0.99,1.22c-0.92,1.33-2.82,3.14-5.95,3.14c-2.13,0-3.56-0.91-3.56-3.24c0-1.99,0.14-5.6,0.14-6.95c0-0.59-0.06-1.16-0.15-1.62
				l1.79,0.01C154.28,175.24,154.22,175.83,154.21,176.34z"/>
		</g>
	</g>
	<g>
		<g>
			<g>
				<path class="st4" d="M146.67,88.96c3.12,2.42,3.63,9.93,3.27,11.55s-3.95,2.81-9.07,2.81c-5.12,0-68.47,0-68.47,0
					s-8.71-0.44-11.32-1.09c-2.61-0.65-8.27-2.94-8.27-3.81s0-4.5,0-5.9c0-1.39,0.93-1.86,1.44-3.15s-0.64-5.54,1.14-6.25
					c1.77-0.71,6.56,0.05,12.39-2.61c5.82-2.67,12.27-5.15,29.51-5.15s17.3,7.75,24.02,9.09C128.03,85.8,143.55,86.54,146.67,88.96z
					"/>
				<circle class="st5" cx="134.86" cy="99.91" r="7.59"/>
				<circle class="st5" cx="71.97" cy="99.91" r="7.5"/>
			</g>
		</g>
		<path class="st6" d="M41.09,121.2h-4.37c-1.1,0-2-0.9-2-2V89.05c0-1.1,0.9-2,2-2h4.37c1.1,0,2,0.9,2,2v30.15
			C43.09,120.31,42.19,121.2,41.09,121.2z"/>
		<g>
			<path class="st6" d="M54.4,127.74l13.22,5.01c0.23,0.09,0.47,0.13,0.71,0.13h127.93c1.1,0,2-0.9,2-2v-16.1c0-1.1-0.9-2-2-2H55.11
				c-1.1,0-2,0.9-2,2v11.09C53.11,126.7,53.62,127.44,54.4,127.74z"/>
		</g>
		<g>
			<path class="st5" d="M199.31,76.6h-35.5c-1.1,0-2,0.9-2,2v30.53c0,1.1,0.89,2,1.99,2c5.71,0,21.91,0.26,25.28,3.03
				c2.86,2.36,4.43,11.8,5.21,18.52c0.12,1.01,0.97,1.77,1.99,1.77h9.01c1.1,0,2-0.9,2-2V98.51c0-0.19-0.03-0.39-0.08-0.58
				l-5.98-19.91C200.97,77.18,200.19,76.6,199.31,76.6z"/>
		</g>
		<path class="st5" d="M159.81,111.15H34.71c-1.1,0-2,0.9-2,2v6c0,1.1,0.9,2,2,2h125.09c1.1,0,2-0.9,2-2v-6
			C161.81,112.04,160.91,111.15,159.81,111.15z"/>
		<circle class="st5" cx="79.09" cy="131.12" r="10"/>
		<circle class="st5" cx="176.23" cy="131.12" r="10"/>
		<g>
			<path class="st6" d="M170.42,83.73h23.81c0.88,0,1.66,0.58,1.92,1.43l3.47,11.64c0.06,0.19,0.08,0.38,0.08,0.57v5.82
				c0,1.4-1.4,2.36-2.7,1.87l-27.28-10.25c-0.78-0.29-1.3-1.04-1.3-1.87v-7.21C168.42,84.63,169.32,83.73,170.42,83.73z"/>
		</g>
	</g>
</g>
</svg>
