<?xml version="1.0" encoding="utf-8"?>
<!-- Generator: Adobe Illustrator 24.0.1, SVG Export Plug-In . SVG Version: 6.00 Build 0)  -->
<svg version="1.1" id="レイヤー_1" xmlns="http://www.w3.org/2000/svg" xmlns:xlink="http://www.w3.org/1999/xlink" x="0px"
	 y="0px" viewBox="0 0 280 200" style="enable-background:new 0 0 280 200;" xml:space="preserve">
<style type="text/css">
	.st0{fill:none;}
	.st1{fill:#D0A867;}
	.st2{fill:#00395B;}
</style>
<g>
	<rect class="st0" width="280" height="160"/>
	<g>
		<rect x="49.77" y="94.86" class="st1" width="183.16" height="31.13"/>
		<g>
			<g>
				<path class="st2" d="M65.6,85.58v-9.45h24.23V69.8l-0.3-0.6H65.6v-9.45h18.1l-21.52-34.7h15.69l18.9,31.98l18.9-31.98h15.69
					l-21.42,34.69h18v9.45h-23.83l-0.4,0.6v6.33h24.23v9.45h-24.23v19.71H89.83v-19.7H65.6z"/>
				<path class="st2" d="M161.52,65.17c0-14.18,2.51-23.53,6.74-30.07c5.13-8.04,13.68-11.66,22.02-11.66
					c28.76,0,28.76,34.39,28.76,41.73c0,7.44,0,41.73-28.76,41.73C161.52,106.9,161.52,72.51,161.52,65.17z M204.86,65.17
					c0-17.3-3.92-28.76-14.58-28.76c-11.36,0-14.58,12.87-14.58,28.76c0,17.4,3.92,28.76,14.58,28.76
					C201.34,93.93,204.86,81.66,204.86,65.17z"/>
			</g>
		</g>
	</g>
</g>
<g>
	<g>
		<path class="st2" d="M89.48,172.39v6.73h5.46v-8.71h3.3v8.71h5.49v-6.73h3.33v9.8h-8.81v9h6.37v-7.41h3.33v10.53H85.3v-10.53h3.28
			v7.41h6.37v-9h-8.74v-9.8H89.48z"/>
		<path class="st2" d="M124.09,182.45v11.88h-10.32v-11.88H124.09z M134.23,171.14v9.46h-17.99v-9.46H134.23z M116.78,185.34v6.08
			h4.26v-6.08H116.78z M119.36,174v3.8h11.78V174H119.36z M136.62,182.45v11.88h-10.74v-11.88H136.62z M128.92,185.34v6.08h4.68
			v-6.08H128.92z"/>
		<path class="st2" d="M145.17,176.26c-1.04,0.86-1.43,1.07-2.03,1.38l-1.92-2.57c3.64-2,4.68-3.93,5.15-4.94l3.12,0.6
			c-0.21,0.52-0.34,0.83-0.91,1.69h16.8v2.86h-2.29v3.2h2.96v2.89h-2.96v3.25h2.29v2.86h-23.14v-2.86h2.81v-3.25h-3.43v-2.89h3.56
			V176.26z M147.33,188.95c-1.22,3.93-2.24,5.25-3.15,6.19l-2.7-2c0.78-0.78,1.92-2.11,2.96-5.1L147.33,188.95z M147.85,175.28v3.2
			h2.31v-3.2H147.85z M147.85,181.36v3.25h2.31v-3.25H147.85z M151.93,188.64c0.34,1.74,0.44,4.71,0.42,5.98l-3.25,0.05
			c0.05-0.86,0.13-1.87,0.13-3.38c0-1.17-0.03-2-0.08-2.57L151.93,188.64z M152.82,175.28v3.2h2.37v-3.2H152.82z M152.82,181.36
			v3.25h2.37v-3.25H152.82z M157.16,188.41c0.21,0.52,1.53,3.82,1.74,6.06l-3.22,0.21c-0.36-2.81-0.73-4.13-1.4-6.03L157.16,188.41z
			 M157.78,175.28v3.2h2.44v-3.2H157.78z M157.78,181.36v3.25h2.44v-3.25H157.78z M162.62,187.86c1.43,1.79,2.31,3.22,3.54,5.59
			l-2.96,1.59c-0.34-0.83-0.96-2.39-3.38-5.93L162.62,187.86z"/>
		<path class="st2" d="M180.27,186.64l-1.04,1.95c-0.94-1.27-1.56-2.44-1.72-2.73v9.05h-2.96v-8.89c-1.2,2.42-2.26,3.77-3.59,5.23
			l-1.14-3.72c2.52-2.31,3.85-4.97,4.37-6.03h-3.95v-2.94h4.32v-8.14h2.96v8.14h3.95v2.94h-3.67c1.17,2.24,2.29,3.38,3.02,4.13
			l-0.49,0.91l8.74-1.82v-14.33h3.33v13.65l2-0.42l0.31,3.12l-2.31,0.49v7.64h-3.33v-6.94l-8.35,1.72L180.27,186.64z M172.45,171.61
			c0.29,0.83,1.01,2.86,1.22,5.15l-2.47,0.81c-0.1-2.34-0.68-4.11-1.12-5.36L172.45,171.61z M182.17,172.1
			c-0.26,1.38-0.94,3.9-1.66,5.49l-2.34-0.88c0.81-1.95,1.17-3.98,1.33-5.17L182.17,172.1z M183.55,177.95
			c1.66,0.99,3.15,2.24,4.45,3.59l-2.13,2.39c-1.74-2.08-3.17-3.02-4.21-3.67L183.55,177.95z M184.3,171.48
			c2.44,1.43,3.74,2.83,4.47,3.61l-2.11,2.39c-1.38-1.64-2.68-2.76-4.26-3.85L184.3,171.48z"/>
	</g>
</g>
</svg>
