<?xml version="1.0" encoding="utf-8"?>
<!-- Generator: Adobe Illustrator 24.0.1, SVG Export Plug-In . SVG Version: 6.00 Build 0)  -->
<svg version="1.1" id="レイヤー_1" xmlns="http://www.w3.org/2000/svg" xmlns:xlink="http://www.w3.org/1999/xlink" x="0px"
	 y="0px" viewBox="0 0 240 200" style="enable-background:new 0 0 240 200;" xml:space="preserve">
<style type="text/css">
	.st0{fill:none;}
	.st1{fill:#00395B;}
	.st2{fill:#FFFFFF;}
	.st3{fill:#535353;}
	.st4{fill:#D0A867;}
</style>
<g>
	<g>
		<rect y="-0.22" class="st0" width="240" height="200"/>
		<g>
			<circle class="st1" cx="27" cy="24.78" r="20"/>
			<g>
				<path class="st2" d="M27.83,34.92v-4.17h-8.96v-3l8.96-13.13h3.56v12.96h2.54v3.18h-2.54v4.17H27.83z M22.43,27.56h5.4v-8.02
					L22.43,27.56z"/>
			</g>
		</g>
	</g>
	<g>
		<g>
			<path class="st3" d="M64.21,163.65c-0.35,1.15-0.95,2.3-1.58,3.04c-0.22-0.2-0.71-0.52-0.98-0.67c0.63-0.66,1.15-1.64,1.42-2.65
				L64.21,163.65z M66.45,163.16h-4.08v-8.83h4.08V163.16z M65.28,155.4h-1.76v1.56h1.76V155.4z M65.28,157.95h-1.76v1.58h1.76
				V157.95z M65.28,160.51h-1.76v1.6h1.76V160.51z M65.74,163.35c0.45,0.69,0.94,1.6,1.16,2.2l-1.02,0.49
				c-0.18-0.6-0.69-1.57-1.12-2.27L65.74,163.35z M74.62,164.4h-0.74v1.01c0,0.57-0.13,0.88-0.53,1.06
				c-0.42,0.18-1.06,0.18-2.03,0.18c-0.04-0.29-0.2-0.76-0.35-1.05c0.64,0.03,1.29,0.03,1.47,0.01c0.2,0,0.24-0.06,0.24-0.22v-1
				h-4.05v2.28h-1.16v-2.28h-0.83v-0.95h0.83v-3.54h2.58v-0.67h-3.35v-0.97h1.89v-0.74h-1.26v-0.92h1.26v-0.69h-1.61v-0.97h1.61
				v-1.13h1.15v1.13h1.79v-1.13h1.16v1.13h1.61v0.97h-1.61v0.69h1.39v0.92h-1.39v0.74h1.91v0.97h-3.4v0.67h2.69v3.54h0.74V164.4z
				 M68.62,160.87v0.83h1.42v-0.83H68.62z M68.62,163.45h1.42v-0.9h-1.42V163.45z M69.73,156.6h1.79v-0.69h-1.79V156.6z
				 M69.73,158.27h1.79v-0.74h-1.79V158.27z M71.19,160.87v0.83h1.49v-0.83H71.19z M72.67,163.45v-0.9h-1.49v0.9H72.67z"/>
			<path class="st3" d="M83.76,154.63c0,2.54,0.32,7.73,5.66,10.88c-0.29,0.22-0.83,0.78-1.05,1.11c-3.18-1.92-4.68-4.78-5.36-7.35
				c-1.04,3.38-2.79,5.83-5.38,7.38c-0.25-0.27-0.85-0.81-1.21-1.05c3.01-1.55,4.71-4.31,5.52-8.11l0.71,0.13
				c-0.1-0.59-0.15-1.16-0.18-1.67h-3.33v-1.32H83.76z"/>
			<path class="st3" d="M96.29,159.52c-0.34,0.55-0.73,1.08-1.13,1.57h2.3v-1.27h1.26v1.27h3.96v3.4c0,0.62-0.13,0.94-0.57,1.12
				c-0.45,0.2-1.13,0.2-2.13,0.2c-0.07-0.34-0.25-0.81-0.42-1.12c0.7,0.03,1.39,0.03,1.57,0.03c0.2-0.01,0.27-0.06,0.27-0.24v-2.25
				h-2.67v4.45h-1.26v-4.45h-2.4v3.7h-1.29v-3.43c-0.55,0.46-1.15,0.9-1.79,1.26c-0.21-0.28-0.62-0.76-0.87-0.99
				c1.47-0.78,2.72-1.93,3.63-3.24h-3.28v-1.15h4.02c0.22-0.39,0.41-0.8,0.56-1.2c-1.09,0.31-2.2,0.57-3.26,0.8
				c-0.2-0.31-0.6-0.84-0.88-1.11c1.49-0.21,3.03-0.56,4.48-0.97c-1.22-0.42-2.46-0.8-3.59-1.09l0.9-0.79
				c1.34,0.34,2.91,0.8,4.43,1.29c1.22-0.43,2.31-0.95,3.15-1.51l1.09,0.73c-0.74,0.5-1.62,0.95-2.58,1.37
				c1.16,0.41,2.2,0.81,3.01,1.21l-1,0.92c-0.88-0.45-2.2-1-3.64-1.51c-0.41,0.15-0.85,0.28-1.27,0.42l0.66,0.18
				c-0.18,0.42-0.38,0.85-0.57,1.26h6.81v1.15H96.29z"/>
			<path class="st3" d="M106.9,156.32h-1.01v-1.11h2.73v-1.39h1.23v1.39h2.68v1.11h-4.43v2.12c0,0.42,0.08,0.55,0.45,0.55h2.14
				c0.32,0,0.83-0.03,1.09-0.07c0.03,0.24,0.06,0.6,0.1,0.88c1.29-1.13,1.43-3.03,1.49-5.52h4.93v0.5c-0.14,3.61-0.27,4.9-0.6,5.35
				c-0.24,0.28-0.5,0.39-0.88,0.43c-0.31,0.04-0.85,0.04-1.43,0.01c-0.03-0.29-0.14-0.74-0.31-1c0.5,0.04,0.97,0.04,1.16,0.04
				s0.31-0.01,0.42-0.17c0.08-0.11,0.15-0.36,0.21-0.84h-2.89c-0.31,0.92-0.81,1.69-1.61,2.27c-0.14-0.25-0.42-0.62-0.69-0.83
				c-0.27,0.03-0.62,0.04-0.97,0.04h-2.17c-1.32,0-1.65-0.45-1.65-1.7V156.32z M118.47,165.3v1.09h-12.33v-1.09h5.49v-0.99h-3.99
				v-1.06h3.99v-0.98h-4.58v-1.08h10.62v1.08h-4.73v0.98H117v1.06h-4.06v0.99H118.47z M116.97,157.72c0.01-0.24,0.03-0.52,0.06-0.83
				h-2.65c-0.04,0.28-0.08,0.56-0.14,0.83H116.97z M114.52,155.23c-0.01,0.28-0.03,0.55-0.04,0.81h2.59l0.03-0.81H114.52z"/>
			<path class="st3" d="M125.92,155.62c-0.08,0.43-0.21,1.11-0.34,1.76c0.58-0.06,1.09-0.08,1.42-0.08c1.34,0,2.38,0.55,2.38,2.51
				c0,1.65-0.21,3.91-0.8,5.08c-0.46,0.97-1.19,1.23-2.16,1.23c-0.55,0-1.21-0.1-1.67-0.21l-0.24-1.46
				c0.57,0.17,1.33,0.28,1.72,0.28c0.49,0,0.88-0.13,1.15-0.66c0.42-0.88,0.62-2.66,0.62-4.12c0-1.2-0.55-1.41-1.43-1.41
				c-0.29,0-0.76,0.03-1.27,0.08c-0.52,2.06-1.51,5.29-2.9,7.54l-1.44-0.57c1.4-1.89,2.41-4.92,2.9-6.82
				c-0.63,0.07-1.2,0.14-1.53,0.18c-0.35,0.04-1.01,0.13-1.39,0.2l-0.14-1.51c0.46,0.03,0.88,0.01,1.36,0
				c0.45-0.01,1.2-0.07,1.99-0.14c0.21-1.04,0.34-2.1,0.34-3.01l1.64,0.17C126.06,154.95,125.99,155.31,125.92,155.62z
				 M132.06,156.11l-0.9,0.38c0.85,1.26,1.91,3.53,2.31,4.73l-1.39,0.66c-0.39-1.5-1.46-3.95-2.44-5.13l1.3-0.57
				c0.01,0.03,0.04,0.06,0.06,0.08c-0.27-0.55-0.66-1.25-0.99-1.71l0.91-0.38C131.28,154.68,131.78,155.57,132.06,156.11z
				 M133.68,155.5l-0.91,0.41c-0.31-0.6-0.76-1.4-1.16-1.93l0.91-0.38C132.89,154.11,133.42,154.99,133.68,155.5z"/>
			<path class="st3" d="M141.28,155.08c-0.06,0.27-0.11,0.59-0.17,0.92c1.75-0.07,3.36-0.25,4.85-0.6l0.01,1.3
				c-1.42,0.25-3.29,0.43-5.01,0.52c-0.04,0.48-0.08,1-0.13,1.51c0.74-0.2,1.54-0.31,2.24-0.31c0.14,0,0.28,0,0.41,0.01
				c0.07-0.25,0.14-0.67,0.17-0.91l1.37,0.34c-0.08,0.18-0.2,0.53-0.29,0.78c1.69,0.5,2.76,1.78,2.76,3.36c0,2-1.25,3.82-4.58,4.34
				l-0.76-1.16c2.61-0.29,3.98-1.62,3.98-3.24c0-0.98-0.62-1.85-1.78-2.21c-0.77,1.95-1.9,3.47-3.04,4.41
				c0.1,0.39,0.22,0.76,0.34,1.11l-1.27,0.38c-0.07-0.21-0.14-0.43-0.21-0.69c-0.73,0.41-1.53,0.67-2.28,0.67
				c-0.97,0-1.77-0.59-1.77-1.88c0-1.81,1.54-3.67,3.49-4.58c0.03-0.64,0.08-1.3,0.14-1.91c-0.24,0-0.46,0-0.69,0
				c-0.66,0-1.75-0.07-2.35-0.1l-0.04-1.3c0.49,0.08,1.72,0.18,2.44,0.18c0.25,0,0.52,0,0.77,0c0.03-0.35,0.07-0.66,0.1-0.94
				c0.03-0.25,0.04-0.55,0.04-0.74l1.44,0.04C141.38,154.61,141.33,154.86,141.28,155.08z M138.17,164.28
				c0.48,0,1.08-0.21,1.69-0.62c-0.18-0.99-0.31-2.13-0.31-3.17c-1.25,0.76-2.13,1.99-2.13,3
				C137.43,164.01,137.67,164.28,138.17,164.28z M141,162.74c0.81-0.8,1.57-1.82,2.12-3.19h-0.1c-0.85,0-1.61,0.17-2.23,0.39
				c0,0.11,0,0.22,0,0.34C140.79,161.17,140.88,161.98,141,162.74z"/>
			<path class="st3" d="M153.32,154.35l1.62,0.06c-0.07,0.36-0.18,1.11-0.29,2.03l0.04-0.01l0.46,0.59
				c-0.17,0.25-0.43,0.66-0.66,1.01c-0.01,0.2-0.03,0.39-0.06,0.6c1.11-1,2.83-2.26,4.22-2.26s2.06,0.81,2.06,1.98
				c0,1.41-0.5,3.67-0.5,5.11c0,0.42,0.21,0.76,0.64,0.76c0.6,0,1.3-0.39,1.99-1.09l0.21,1.53c-0.71,0.69-1.57,1.12-2.61,1.12
				c-0.98,0-1.64-0.67-1.64-1.92c0-1.54,0.52-3.74,0.52-5.06c0-0.77-0.39-1.11-1.06-1.11c-1.09,0-2.7,1.32-3.92,2.63
				c-0.03,0.5-0.04,1-0.04,1.43c0,1.22-0.01,2.21,0.07,3.49c0.01,0.25,0.04,0.66,0.07,0.95h-1.51c0.03-0.29,0.04-0.7,0.04-0.92
				c0.01-1.32,0.01-2.11,0.06-3.67c-0.66,0.97-1.48,2.17-2.07,2.98l-0.87-1.22c0.77-0.98,2.3-3,3.05-4.13
				c0.03-0.41,0.06-0.81,0.08-1.22c-0.66,0.08-1.82,0.24-2.66,0.35l-0.14-1.43c0.35,0.01,0.64,0.01,1.05-0.01
				c0.43-0.03,1.16-0.11,1.83-0.21c0.04-0.6,0.07-1.06,0.07-1.22C153.38,155.12,153.38,154.72,153.32,154.35z"/>
			<path class="st3" d="M167.2,156.06c-0.25,1.13-0.67,4.05-0.67,5.55c0,0.5,0.03,0.98,0.1,1.5c0.21-0.58,0.5-1.26,0.73-1.79
				l0.7,0.55c-0.36,1.06-0.87,2.49-1.01,3.21c-0.04,0.2-0.07,0.48-0.07,0.64c0.01,0.14,0.01,0.35,0.03,0.53l-1.23,0.08
				c-0.28-0.98-0.55-2.55-0.55-4.46c0-2.07,0.45-4.75,0.62-5.87c0.06-0.35,0.1-0.78,0.11-1.16l1.54,0.14
				C167.39,155.23,167.25,155.8,167.2,156.06z M174.27,155.72c-0.01,0.35-0.03,0.95-0.04,1.6c0.83-0.07,1.61-0.18,2.33-0.32v1.36
				c-0.73,0.11-1.51,0.21-2.33,0.27c0.03,1.4,0.11,2.67,0.17,3.74c1.15,0.46,2.04,1.18,2.75,1.81l-0.76,1.18
				c-0.66-0.62-1.29-1.13-1.93-1.54c0,0.01,0,0.04,0,0.06c0,1.29-0.62,2.4-2.56,2.4c-1.91,0-3.01-0.78-3.01-2.13
				c0-1.29,1.11-2.24,2.98-2.24c0.41,0,0.79,0.03,1.13,0.1c-0.04-0.98-0.1-2.2-0.13-3.29c-0.39,0.01-0.8,0.03-1.19,0.03
				c-0.81,0-1.57-0.04-2.4-0.1v-1.32c0.8,0.08,1.57,0.13,2.4,0.13c0.39,0,0.8-0.01,1.19-0.03c0-0.7-0.01-1.3-0.01-1.65
				c0-0.24-0.03-0.63-0.07-0.9h1.58C174.31,155.13,174.28,155.44,174.27,155.72z M171.69,164.95c1.04,0,1.36-0.52,1.36-1.42
				c0-0.11,0-0.24,0-0.38c-0.42-0.13-0.85-0.2-1.3-0.2c-0.94,0-1.58,0.41-1.58,1.02C170.17,164.63,170.79,164.95,171.69,164.95z
				 M176.34,156.29l-0.84,0.28c-0.2-0.62-0.49-1.41-0.76-1.97l0.8-0.24C175.81,154.88,176.16,155.73,176.34,156.29z M177.79,155.84
				l-0.83,0.27c-0.21-0.62-0.5-1.4-0.8-1.93l0.81-0.27C177.24,154.44,177.59,155.29,177.79,155.84z"/>
			<path class="st3" d="M43.09,175.9h6.96c0.38,0,0.87-0.01,1.12-0.03c-0.01,0.31-0.03,0.81-0.03,1.18v7.24
				c0,0.49,0.03,1.18,0.06,1.48h-1.6c0-0.2,0.01-0.46,0.01-0.76h-6.64c-0.57,0-1.27,0.03-1.68,0.06v-1.58
				c0.41,0.03,1.02,0.07,1.62,0.07h6.71v-6.25h-6.54c-0.55,0-1.26,0.03-1.62,0.06v-1.55C41.95,175.86,42.62,175.9,43.09,175.9z"/>
			<path class="st3" d="M61.18,182.54c2.25-1.39,4.01-3.49,4.86-5.28l0.85,1.53c-1.01,1.82-2.73,3.73-4.92,5.07
				c-1.42,0.87-3.19,1.7-5.37,2.09l-0.94-1.44C58.01,184.15,59.83,183.37,61.18,182.54z M60.7,178.06l-1.11,1.13
				c-0.73-0.74-2.46-2.27-3.5-2.97l1.02-1.09C58.09,175.79,59.92,177.25,60.7,178.06z"/>
			<path class="st3" d="M73.82,179.75L73,181c-0.74-0.53-2.23-1.48-3.12-1.96l0.8-1.21C71.56,178.3,73.16,179.29,73.82,179.75z
				 M75.23,183.04c2.34-1.33,4.23-3.21,5.36-5.2l0.85,1.48c-1.26,1.91-3.21,3.7-5.48,5.01c-1.42,0.83-3.38,1.5-4.65,1.74l-0.83-1.44
				C72.05,184.38,73.76,183.86,75.23,183.04z M75.92,176.66l-0.83,1.21c-0.71-0.52-2.21-1.51-3.08-2l0.8-1.21
				C73.68,175.14,75.26,176.18,75.92,176.66z"/>
			<path class="st3" d="M87.09,178.24h6.44c0.34,0,0.71-0.03,1.02-0.07v1.4c-0.32-0.03-0.71-0.04-1.02-0.04h-2.59v4.86h3.24
				c0.36,0,0.71-0.03,0.99-0.07v1.47c-0.29-0.04-0.76-0.06-0.99-0.06h-7.75c-0.32,0-0.71,0.01-1.06,0.06v-1.47
				c0.34,0.04,0.74,0.07,1.06,0.07h3.07v-4.86h-2.41c-0.25,0-0.73,0.01-1.02,0.04v-1.4C86.36,178.21,86.84,178.24,87.09,178.24z"/>
			<path class="st3" d="M101.13,181.73c0.41-1.25,0.41-3.98,0.41-5.59c0-0.48-0.03-0.81-0.11-1.13h1.62
				c-0.01,0.11-0.07,0.63-0.07,1.12c0,1.6-0.06,4.58-0.43,5.98c-0.42,1.54-1.3,2.91-2.49,3.92l-1.34-0.9
				C99.92,184.29,100.72,183.02,101.13,181.73z M105.26,184.38v-8.29c0-0.57-0.08-1.04-0.08-1.12h1.62
				c-0.01,0.08-0.07,0.55-0.07,1.12v7.75c1.22-0.55,2.8-1.74,3.81-3.22l0.85,1.21c-1.19,1.58-3.17,3.05-4.78,3.87
				c-0.25,0.14-0.42,0.27-0.53,0.35l-0.92-0.77C105.22,185.02,105.26,184.7,105.26,184.38z"/>
			<path class="st3" d="M117.73,179.84l-0.81,1.25c-0.73-0.53-2.23-1.48-3.11-1.96l0.78-1.21
				C115.48,178.39,117.08,179.38,117.73,179.84z M119.15,183.13c2.34-1.33,4.24-3.21,5.36-5.2l0.85,1.48
				c-1.26,1.91-3.21,3.7-5.48,5.03c-1.42,0.81-3.38,1.49-4.65,1.72l-0.83-1.44C115.97,184.46,117.68,183.94,119.15,183.13z
				 M119.85,176.74l-0.84,1.21c-0.71-0.52-2.21-1.5-3.07-1.99l0.8-1.22C117.61,175.23,119.18,176.27,119.85,176.74z M124.05,177.16
				l-0.98,0.42c-0.36-0.8-0.77-1.53-1.26-2.2l0.95-0.41C123.14,175.52,123.73,176.5,124.05,177.16z M125.97,176.43l-0.98,0.43
				c-0.39-0.8-0.83-1.5-1.32-2.16l0.97-0.41C125.03,174.82,125.62,175.79,125.97,176.43z"/>
			<path class="st3" d="M137.69,179.4c-0.11,0.9-0.5,3.52-0.7,4.82h1.18c0.32,0,0.9-0.03,1.22-0.06v1.43
				c-0.27-0.01-0.85-0.03-1.19-0.03h-7.55c-0.46,0-0.78,0.01-1.26,0.03v-1.44c0.36,0.04,0.81,0.07,1.26,0.07h4.85
				c0.2-1.19,0.56-3.6,0.6-4.38h-4.16c-0.42,0-0.87,0.03-1.25,0.04v-1.46c0.35,0.04,0.88,0.07,1.23,0.07h3.98
				c0.25,0,0.7-0.04,0.84-0.11l1.06,0.52C137.76,179.05,137.72,179.26,137.69,179.4z"/>
			<path class="st3" d="M148.13,175.55c-0.08,0.43-0.21,1.11-0.34,1.77c0.57-0.06,1.08-0.08,1.4-0.08c1.36,0,2.38,0.55,2.38,2.51
				c0,1.65-0.21,3.91-0.8,5.08c-0.45,0.97-1.18,1.22-2.16,1.22c-0.53,0-1.2-0.08-1.67-0.2l-0.22-1.46c0.56,0.17,1.33,0.28,1.71,0.28
				c0.5,0,0.9-0.13,1.15-0.67c0.42-0.87,0.63-2.65,0.63-4.1c0-1.21-0.55-1.42-1.43-1.42c-0.29,0-0.76,0.03-1.29,0.08
				c-0.52,2.06-1.51,5.29-2.9,7.54l-1.44-0.57c1.4-1.89,2.41-4.92,2.91-6.82c-0.64,0.07-1.22,0.14-1.54,0.18
				c-0.35,0.04-1,0.13-1.39,0.2l-0.14-1.51c0.48,0.03,0.88,0.01,1.36,0c0.45-0.01,1.2-0.07,2-0.14c0.2-1.04,0.34-2.1,0.32-3.01
				l1.64,0.17C148.26,174.88,148.19,175.24,148.13,175.55z M155.67,181.1l-1.39,0.64c-0.39-1.48-1.44-3.99-2.42-5.18l1.3-0.56
				C154.03,177.16,155.22,179.78,155.67,181.1z"/>
			<path class="st3" d="M160.74,180.78c1.3-1.06,2.79-1.55,4.37-1.55c2.28,0,3.71,1.39,3.71,3.05c0,2.52-2.13,4.34-7.61,3.88
				l-0.42-1.44c4.33,0.55,6.51-0.62,6.51-2.46c0-1.04-0.97-1.78-2.31-1.78c-1.72,0-3.21,0.66-4.13,1.78
				c-0.24,0.27-0.36,0.5-0.48,0.74l-1.29-0.31c0.28-1.32,0.62-4.17,0.71-5.76l1.49,0.2C161.11,178,160.87,179.92,160.74,180.78z
				 M166.93,175.54l-0.32,1.36c-1.37-0.18-4.45-0.83-5.53-1.11l0.35-1.33C162.69,174.85,165.7,175.41,166.93,175.54z"/>
			<path class="st3" d="M175.05,183.73c0.6,0.97,1.71,1.4,3.26,1.47c1.58,0.07,4.83,0.03,6.61-0.1c-0.15,0.29-0.35,0.9-0.42,1.27
				c-1.61,0.07-4.58,0.1-6.21,0.04c-1.74-0.07-2.94-0.53-3.8-1.61c-0.59,0.58-1.21,1.13-1.89,1.74l-0.64-1.29
				c0.56-0.38,1.25-0.91,1.83-1.43v-3.38h-1.68v-1.21h2.93V183.73z M174.38,177.23c-0.39-0.7-1.33-1.67-2.16-2.34l0.99-0.73
				c0.81,0.63,1.79,1.55,2.21,2.24L174.38,177.23z M179.41,183.31h-3.84v-1.06h3.84v-0.83h-3.04v-4.59h3.04v-0.8h-3.64v-1.08h3.64
				v-1.13h1.26v1.13h3.81v1.08h-3.81v0.8h3.14v4.59h-3.14v0.83h4.01v1.06h-4.01v1.47h-1.26V183.31z M177.57,178.66h1.83v-0.91h-1.83
				V178.66z M179.41,180.48v-0.92h-1.83v0.92H179.41z M180.67,177.75v0.91h1.89v-0.91H180.67z M182.56,179.56h-1.89v0.92h1.89
				V179.56z"/>
			<path class="st3" d="M188.46,182.02c-0.18,1.32-0.5,2.68-0.94,3.57c-0.21-0.15-0.73-0.39-1-0.49c0.42-0.84,0.69-2.07,0.83-3.28
				L188.46,182.02z M198.86,175.51c-0.52,1.33-1.26,2.48-2.17,3.45c0.97,0.73,2.07,1.3,3.18,1.68c-0.28,0.27-0.66,0.74-0.85,1.05
				l-0.28-0.11v5.07h-1.28v-0.6h-3.52v0.63h-1.22v-4.92c-0.13,0.06-0.27,0.11-0.39,0.17c-0.08-0.17-0.25-0.42-0.43-0.64l-0.73,0.34
				c-0.04-0.22-0.13-0.48-0.21-0.74l-0.92,0.06v5.76h-1.16V181c-0.77,0.04-1.49,0.08-2.12,0.13l-0.11-1.15l0.98-0.03
				c0.25-0.34,0.53-0.71,0.8-1.11c-0.43-0.63-1.12-1.39-1.74-1.96l0.63-0.85c0.13,0.1,0.25,0.21,0.38,0.32
				c0.43-0.77,0.9-1.78,1.15-2.54l1.15,0.45c-0.49,0.94-1.08,2.02-1.58,2.79c0.25,0.27,0.49,0.53,0.67,0.77
				c0.5-0.83,0.98-1.68,1.33-2.4l1.08,0.49c-0.78,1.27-1.79,2.8-2.7,3.98c0.56-0.01,1.15-0.04,1.75-0.08
				c-0.18-0.39-0.38-0.79-0.57-1.13l0.88-0.36c0.46,0.74,0.9,1.67,1.13,2.41c1.05-0.43,2.06-1.01,2.93-1.72
				c-0.52-0.5-0.98-1.05-1.39-1.62c-0.42,0.46-0.87,0.91-1.39,1.33c-0.17-0.27-0.59-0.67-0.87-0.84c1.54-1.16,2.56-2.75,3.1-4.05
				l1.26,0.22c-0.15,0.35-0.34,0.71-0.53,1.08h2.75l0.22-0.06L198.86,175.51z M191.24,181.71c0.35,0.8,0.73,1.85,0.88,2.54
				l-0.99,0.34c-0.14-0.69-0.48-1.75-0.83-2.56L191.24,181.71z M198.49,181.46c-0.94-0.42-1.85-0.99-2.68-1.67
				c-0.77,0.67-1.6,1.22-2.46,1.67H198.49z M197.45,184.91v-2.33h-3.52v2.33H197.45z M194.26,176.43c0.39,0.62,0.91,1.22,1.51,1.76
				c0.57-0.59,1.05-1.25,1.43-1.96h-2.8L194.26,176.43z"/>
		</g>
	</g>
	<g>
		<g>
			<path class="st4" d="M159.61,117.51c-2.57-3.84-6.46-5.97-10.13-7.35c-1.83-0.69-3.63-1.2-5.21-1.63
				c-1.58-0.43-2.95-0.79-3.87-1.14c-1.61-0.6-3.32-1.38-4.51-2.21c-0.6-0.41-1.05-0.84-1.32-1.21c-0.27-0.37-0.34-0.63-0.35-0.85
				c0-1.55,0-3.49,0-6.05c2.07-2.3,5.03-5.86,6.25-11.5c0.43-0.19,0.85-0.41,1.25-0.69c1.01-0.7,1.87-1.71,2.59-3.09
				c0.73-1.38,1.38-3.15,2.07-5.57c0.35-1.23,0.51-2.29,0.51-3.24c0-1.09-0.22-2.04-0.64-2.81c-0.37-0.7-0.89-1.2-1.41-1.56
				c1.1-3.16,1.67-6.14,1.67-8.91c0.01-5.06-1.87-9.45-5.32-12.68c-3.38-3.18-8.16-5.28-14.03-6.31c-2.37-1.52-5.33-2.25-8.48-2.25
				c-3.33,0-6.87,0.8-10.2,2.44c-3.32,1.64-6.41,4.12-8.74,7.48c-2.74,3.94-3.96,7.55-3.95,11.23c0.01,3.07,0.81,6.1,2.02,9.48
				c-0.07,0.05-0.15,0.09-0.22,0.15c-0.42,0.36-0.78,0.86-1,1.45c-0.23,0.59-0.34,1.26-0.34,2.01c0,0.99,0.18,2.13,0.58,3.52
				c0.92,3.22,1.76,5.3,2.84,6.82c0.54,0.76,1.15,1.37,1.82,1.83c0.41,0.28,0.83,0.5,1.25,0.69c1.22,5.65,4.19,9.21,6.25,11.51
				c0,2.55,0,4.5,0,6.05c0,0.19-0.08,0.47-0.37,0.86c-0.43,0.58-1.33,1.29-2.4,1.89c-1.07,0.61-2.29,1.13-3.37,1.51
				c-1.26,0.45-3.29,0.91-5.56,1.56c-3.42,0.99-7.46,2.41-10.74,5.23c-1.64,1.41-3.08,3.18-4.09,5.38s-1.6,4.81-1.59,7.87
				c0,0.71,0.03,1.44,0.09,2.2c0.05,0.53,0.25,0.97,0.49,1.32c0.45,0.67,1.05,1.16,1.8,1.67c1.32,0.87,3.14,1.72,5.47,2.56
				c6.99,2.49,18.56,4.77,32.89,4.78c11.65,0,21.48-1.51,28.49-3.41c3.51-0.95,6.31-1.99,8.34-3.03c1.01-0.52,1.83-1.04,2.48-1.61
				c0.33-0.29,0.61-0.59,0.85-0.95c0.24-0.36,0.44-0.79,0.49-1.32c0.06-0.76,0.1-1.49,0.1-2.2
				C162.36,123.34,161.31,120.06,159.61,117.51z M102.35,50.17c2-2.89,4.66-5.02,7.54-6.44c2.88-1.42,5.98-2.11,8.8-2.11
				c2.79,0,5.28,0.68,7,1.88l0.29,0.2l0.35,0.06c5.59,0.93,9.88,2.87,12.71,5.55c2.83,2.69,4.31,6.08,4.33,10.38
				c0,2.85-0.69,6.1-2.17,9.72l0.07,0.03l-1.18,3.3l-0.19-1.65l0-0.03l0-0.02c-0.92-5.62-2.63-8.78-4.16-10.92
				c-0.76-1.07-1.45-1.88-1.94-2.59c-0.48-0.72-0.76-1.3-0.86-2.04l-0.27-2.18l-1.56,1.55c-0.27,0.27-0.63,0.47-1.14,0.6
				c-0.51,0.14-1.15,0.2-1.9,0.2c-2.45,0.01-5.88-0.7-9.38-0.71c-2.74,0-5.59,0.45-8.06,2.18c-3.69,2.59-5.69,5.84-6.73,8.65
				c-1.05,2.82-1.17,5.21-1.17,6.2c0,0.15,0,0.26,0.01,0.34l-1.3-2.78l-0.05,0.03c-1.5-3.95-2.42-7.1-2.41-9.98
				C98.97,56.62,99.86,53.78,102.35,50.17z M121.86,136.77c-0.08,0-0.17,0-0.25,0c-0.13,0-0.25-0.01-0.38-0.01l-14.22-27.75
				c0.7-0.36,1.39-0.74,2.02-1.19c0.8-0.56,1.53-1.19,2.11-1.95c0.57-0.75,1.02-1.7,1.02-2.77c0-1.68,0-3.78,0-6.65l0-0.61
				l-0.41-0.45c-2.16-2.4-5.08-5.59-6.09-11.26l-0.16-0.91l-0.87-0.31c-0.55-0.2-0.97-0.4-1.34-0.65c-0.54-0.38-1.03-0.9-1.6-1.97
				c-0.57-1.06-1.17-2.65-1.82-4.95c-0.34-1.19-0.46-2.07-0.46-2.65c0-0.45,0.07-0.72,0.12-0.87c0.1-0.22,0.11-0.19,0.16-0.22
				l0.28-0.05l4.91,10.52l0-9.7l0-0.04v-0.01c0-0.04-0.01-0.15-0.01-0.33c0-0.81,0.11-2.96,1.03-5.45c0.93-2.49,2.66-5.32,5.95-7.64
				c1.95-1.37,4.3-1.79,6.82-1.79c3.22-0.01,6.57,0.7,9.38,0.71c0.87,0,1.69-0.07,2.46-0.28c0.23-0.06,0.46-0.14,0.69-0.24
				c0.22,0.52,0.49,0.99,0.79,1.43c0.88,1.28,1.96,2.42,3.01,4.26c1.04,1.83,2.07,4.36,2.73,8.36l1.24,10.79l3.96-11.03
				c0.02,0.01,0.04,0.02,0.06,0.03c0.18,0.11,0.33,0.25,0.46,0.5c0.13,0.25,0.26,0.64,0.26,1.32c0,0.58-0.1,1.36-0.39,2.37
				c-0.87,3.07-1.65,4.86-2.37,5.85c-0.36,0.5-0.69,0.81-1.05,1.07c-0.37,0.25-0.79,0.46-1.34,0.65l-0.87,0.31l-0.16,0.91
				c-1.01,5.67-3.93,8.86-6.09,11.26l-0.41,0.45l0,0.61c0,2.88,0,4.97,0,6.65c0,1.04,0.4,1.98,0.96,2.73
				c0.84,1.13,2.01,1.97,3.28,2.69c0.26,0.15,0.55,0.27,0.82,0.41L121.86,136.77z"/>
			<polygon class="st4" points="112.62,107.65 112.62,116.88 121.67,113.53 130.72,116.88 130.72,107.65 121.67,110.65 			"/>
			<path class="st4" d="M120.25,75.89c0.45-0.19,1.03-0.37,1.67-0.36c0.5,0,1.04,0.1,1.6,0.38c0.1,2.92,2.48,5.27,5.43,5.27
				c3.01,0,5.44-2.44,5.45-5.45c0-3.01-2.44-5.45-5.45-5.45c-2.6,0-4.76,1.82-5.31,4.25c-0.6-0.22-1.18-0.32-1.72-0.32
				c-0.69,0-1.3,0.14-1.8,0.31c-0.55-2.43-2.71-4.24-5.31-4.24c-3.01,0-5.45,2.44-5.45,5.45c0,3.01,2.44,5.45,5.45,5.45
				C117.78,81.18,120.16,78.82,120.25,75.89z M128.96,72.26c1.91,0,3.46,1.55,3.46,3.47c0,1.92-1.55,3.47-3.46,3.47
				c-1.92,0-3.47-1.55-3.47-3.47C125.49,73.82,127.04,72.26,128.96,72.26z M111.35,75.73c0-1.91,1.55-3.46,3.47-3.47
				c1.91,0,3.46,1.55,3.47,3.47c0,1.92-1.55,3.47-3.47,3.47C112.9,79.19,111.36,77.64,111.35,75.73z"/>
			<path class="st4" d="M121.55,118.8c-0.86,0-1.56,0.7-1.56,1.56c0,0.86,0.7,1.56,1.56,1.56c0.86,0,1.56-0.7,1.56-1.56
				C123.1,119.5,122.41,118.8,121.55,118.8z"/>
			<path class="st4" d="M121.55,126.47c-0.86,0-1.56,0.7-1.56,1.56c0,0.86,0.7,1.56,1.56,1.56c0.86,0,1.56-0.7,1.56-1.56
				C123.1,127.17,122.41,126.47,121.55,126.47z"/>
		</g>
		<g>
			<path class="st4" d="M80.91,68.49l-28.53,0c-2.66,0-4.84,2.22-4.84,4.93l0,20.04c0,2.71,2.18,4.93,4.84,4.93l16.17,0l7.4,7.47
				c0.24,0.24,0.59,0.31,0.9,0.18c0.31-0.13,0.51-0.44,0.51-0.77l0-6.88l3.55,0c2.66,0,4.84-2.22,4.84-4.93l0-20.04
				C85.75,70.71,83.57,68.49,80.91,68.49z M71.72,92.08l-17.02,0l0-2.39l17.02,0L71.72,92.08z M78.59,84.61l-23.88,0l0-2.39l23.88,0
				L78.59,84.61L78.59,84.61z M78.59,77.15l-23.88,0l0-2.39l23.88,0L78.59,77.15L78.59,77.15z"/>
		</g>
		<g>
			<path class="st4" d="M158.42,43.62l0,16.85c0,2.28,1.83,4.14,4.07,4.14l2.98,0l0,5.78c0,0.29,0.17,0.54,0.43,0.65
				c0.26,0.11,0.56,0.05,0.75-0.15l6.22-6.28l13.6,0c2.24,0,4.07-1.87,4.07-4.14l0-16.85c0-2.28-1.83-4.14-4.07-4.14l-23.98,0
				C160.25,39.48,158.42,41.34,158.42,43.62z M170.21,57.29l14.3,0l0,2.01l-14.3,0L170.21,57.29z M164.44,53.03l0-2.01l20.08,0
				l0,2.01L164.44,53.03L164.44,53.03z M164.44,46.75l0-2.01l20.08,0l0,2.01L164.44,46.75L164.44,46.75z"/>
		</g>
	</g>
</g>
</svg>
