<?xml version="1.0" encoding="utf-8"?>
<!-- Generator: Adobe Illustrator 24.0.1, SVG Export Plug-In . SVG Version: 6.00 Build 0)  -->
<svg version="1.1" id="レイヤー_1" xmlns="http://www.w3.org/2000/svg" xmlns:xlink="http://www.w3.org/1999/xlink" x="0px"
	 y="0px" viewBox="0 0 280 200" style="enable-background:new 0 0 280 200;" xml:space="preserve">
<style type="text/css">
	.st0{fill:none;}
	.st1{stroke:#2F2426;stroke-width:0.4;stroke-miterlimit:10;}
	.st2{fill:#CCCCCC;}
	.st3{fill:#C6000B;stroke:#A30000;stroke-width:0.5;stroke-miterlimit:10;}
	.st4{fill:#DDEAEC;}
	.st5{fill:#E57E2E;}
	.st6{fill:#666666;}
	.st7{fill:#18191A;}
	.st8{fill:#C8C9CA;}
	.st9{fill:#3E3A39;}
	.st10{fill:#EEEEEF;}
	.st11{fill:#717071;}
	.st12{fill:#595757;}
	.st13{opacity:0.03;fill:#FFFFFF;enable-background:new    ;}
	.st14{fill:#4C4948;}
	.st15{fill:#9E9E9F;}
	.st16{opacity:0.2;fill:url(#SVGID_1_);enable-background:new    ;}
	.st17{opacity:0.2;fill:url(#SVGID_2_);enable-background:new    ;}
	.st18{clip-path:url(#SVGID_4_);}
	.st19{fill:#FFFFFF;}
	.st20{fill:#2A2622;}
	.st21{fill:#78C3E1;}
	.st22{fill:#071011;}
	.st23{opacity:0.5;}
	.st24{opacity:0.5;fill:#DDEAEC;enable-background:new    ;}
	.st25{clip-path:url(#SVGID_6_);}
	.st26{opacity:0.1;}
	.st27{clip-path:url(#SVGID_9_);}
	.st28{fill:#1B151A;}
	.st29{fill:#FFDAB0;}
	.st30{fill:#FFA69D;}
	.st31{fill:#271700;}
	.st32{fill:#00395B;}
</style>
<g>
	<rect class="st0" width="280" height="160"/>
	<g>
		<g>
			<g>
				<polygon class="st1" points="244.86,107.87 222.37,113.34 33.05,113.34 20.9,109.08 20.9,79.04 47.64,71.4 228.45,71.4 
					251.85,85.99 				"/>
				<path class="st2" d="M253.1,67.18l1.06,1.06c0.14,0.14,0.32,0.21,0.52,0.21h13.62c0-0.87,0-1.73,0-2.53h-14.68
					C252.97,65.93,252.64,66.72,253.1,67.18z"/>
				<path class="st3" d="M254.69,68.46c-0.19,0-0.38-0.08-0.52-0.21l-1.06-1.06c-0.46-0.46-0.13-1.25,0.52-1.25h14.68
					c0-0.41,0-0.8-0.01-1.16h-15.93c-1.22,0-1.91,1.41-1.16,2.37c0.75,0.95,1.79,2.07,3.18,3.15c3.44,2.66,6.24,4.26,7.35,4.85
					c0.32,0.17,0.68,0.26,1.04,0.26h5.49c0.01-1.18,0.04-4.1,0.04-6.94h-13.62V68.46z"/>
				<path class="st4" d="M28.58,74.59h-7.43c-1.36,1.92-3.42,5.66-5.18,9.02h4.99c0.74,0,1.45-0.22,2.06-0.64
					c0.99-0.67,2.61-1.8,4.24-3.01c-0.83,0-1.59,0-1.86,0h-1.79c-0.22,0-0.42-0.09-0.56-0.26c-0.42-0.49-1.23-1.54-0.89-1.77
					c0.46-0.3,1.16-0.66,2.03-0.66c0.37,0,1.09,0,1.78,0C26.83,76.34,27.89,75.27,28.58,74.59z"/>
				<path class="st2" d="M14.64,97.71c-0.42-0.51-1.04-0.8-1.7-0.8h-1.16v5.2l3.2-3.98L14.64,97.71z"/>
				<path class="st2" d="M17.4,101.05l-2.42-2.93l-3.2,3.98v0.22l2.01,0.75c0.66,0.25,1.36,0.37,2.06,0.37h0.41
					C17.51,103.46,18.19,102.01,17.4,101.05z"/>
				<path class="st5" d="M31.35,74.59h-2.76c-1.3,1.29-3.91,3.93-3.99,4.46c-0.1,0.71,0.15,0.91,0.81,0.91c0.26,0,1.03,0,1.86,0
					c0.05-0.03,0.09-0.07,0.14-0.1c1.6-1.2,3.34-2.88,4.47-4.02C32.33,75.37,32,74.59,31.35,74.59z"/>
				<path class="st6" d="M22.17,77.93c-0.35,0.23,0.47,1.28,0.89,1.77c0.14,0.16,0.34,0.26,0.56,0.26h1.79
					c-0.66,0-0.91-0.2-0.81-0.91c0.04-0.25,0.62-0.96,1.37-1.77c-0.69,0-1.41,0-1.78,0C23.33,77.27,22.62,77.63,22.17,77.93z"/>
				<g>
					<ellipse class="st7" cx="45.73" cy="102.52" rx="19.28" ry="19.28"/>
					<circle class="st8" cx="45.73" cy="102.52" r="12.25"/>
					<circle class="st9" cx="45.73" cy="102.52" r="11.4"/>
					<circle class="st10" cx="45.73" cy="102.52" r="6.99"/>
					<g>
						<rect x="45.02" y="90.93" class="st10" width="1.42" height="4.6"/>
						
							<rect x="38.44" y="93.65" transform="matrix(0.7071 -0.7071 0.7071 0.7071 -56.3783 55.7894)" class="st10" width="1.42" height="4.6"/>
						<rect x="34.14" y="101.82" class="st10" width="4.6" height="1.42"/>
						
							<rect x="36.87" y="108.39" transform="matrix(0.7071 -0.7071 0.7071 0.7071 -65.6704 59.6494)" class="st10" width="4.6" height="1.42"/>
						<rect x="45.02" y="109.52" class="st10" width="1.42" height="4.6"/>
						
							<rect x="51.6" y="106.79" transform="matrix(0.7071 -0.7071 0.7071 0.7071 -61.8178 68.941)" class="st10" width="1.42" height="4.6"/>
						<rect x="52.73" y="101.81" class="st10" width="4.6" height="1.42"/>
						
							<rect x="50" y="95.24" transform="matrix(0.7071 -0.7071 0.7071 0.7071 -52.5258 65.0859)" class="st10" width="4.6" height="1.42"/>
					</g>
					<g>
						<g>
							<rect x="45.02" y="90.93" class="st8" width="1.42" height="4.6"/>
							
								<rect x="38.44" y="93.65" transform="matrix(0.7071 -0.7071 0.7071 0.7071 -56.3783 55.7894)" class="st8" width="1.42" height="4.6"/>
							<rect x="34.14" y="101.82" class="st8" width="4.6" height="1.42"/>
							
								<rect x="36.87" y="108.39" transform="matrix(0.7071 -0.7071 0.7071 0.7071 -65.6704 59.6494)" class="st8" width="4.6" height="1.42"/>
							<rect x="45.02" y="109.52" class="st8" width="1.42" height="4.6"/>
							
								<rect x="51.6" y="106.79" transform="matrix(0.7071 -0.7071 0.7071 0.7071 -61.8178 68.941)" class="st8" width="1.42" height="4.6"/>
							<rect x="52.73" y="101.81" class="st8" width="4.6" height="1.42"/>
							
								<rect x="50" y="95.24" transform="matrix(0.7071 -0.7071 0.7071 0.7071 -52.5258 65.0859)" class="st8" width="4.6" height="1.42"/>
						</g>
						<g>
							
								<rect x="41.46" y="91.64" transform="matrix(0.9239 -0.3827 0.3827 0.9239 -32.7402 23.2903)" class="st8" width="1.42" height="4.6"/>
							
								<rect x="36.44" y="96.67" transform="matrix(0.3827 -0.9239 0.9239 0.3827 -68.5002 95.4159)" class="st8" width="1.42" height="4.6"/>
							
								<rect x="34.85" y="105.37" transform="matrix(0.9239 -0.3827 0.3827 0.9239 -37.7669 22.2912)" class="st8" width="4.6" height="1.42"/>
							
								<rect x="39.88" y="110.39" transform="matrix(0.3827 -0.9239 0.9239 0.3827 -76.6085 107.5534)" class="st8" width="4.6" height="1.42"/>
							
								<rect x="48.58" y="108.8" transform="matrix(0.9239 -0.3827 0.3827 0.9239 -38.7659 27.3187)" class="st8" width="1.42" height="4.6"/>
							
								<rect x="53.6" y="103.78" transform="matrix(0.3827 -0.9239 0.9239 0.3827 -64.4752 115.6588)" class="st8" width="1.42" height="4.6"/>
							
								<rect x="52.01" y="98.26" transform="matrix(0.9239 -0.3827 0.3827 0.9239 -33.7418 28.319)" class="st8" width="4.6" height="1.42"/>
							
								<rect x="46.99" y="93.23" transform="matrix(0.3827 -0.9239 0.9239 0.3827 -56.3657 103.5283)" class="st8" width="4.6" height="1.42"/>
						</g>
					</g>
					<circle class="st11" cx="45.73" cy="102.52" r="6.06"/>
					<circle class="st12" cx="45.73" cy="102.52" r="2.36"/>
					<circle class="st9" cx="45.73" cy="102.52" r="1.63"/>
					<path class="st13" d="M45.73,85.86c9.25,0,16.77,7.38,17.01,16.56c0-0.15,0.01-0.3,0.01-0.46c0-9.4-7.62-17.02-17.02-17.02
						s-17.02,7.62-17.02,17.02c0,0.15,0.01,0.31,0.01,0.46C28.96,93.23,36.48,85.86,45.73,85.86z"/>
					<g>
						<g>
							<circle class="st14" cx="45.69" cy="98.17" r="1.3"/>
							<circle class="st15" cx="45.69" cy="98.17" r="0.67"/>
						</g>
						<g>
							<circle class="st14" cx="41.37" cy="102.56" r="1.3"/>
							<circle class="st15" cx="41.37" cy="102.56" r="0.67"/>
						</g>
						<g>
							<circle class="st14" cx="45.76" cy="106.88" r="1.3"/>
							<circle class="st15" cx="45.76" cy="106.88" r="0.67"/>
						</g>
						<g>
							<circle class="st14" cx="50.09" cy="102.49" r="1.3"/>
							<circle class="st15" cx="50.09" cy="102.49" r="0.67"/>
						</g>
					</g>
					<g>
						<g>
							<circle class="st14" cx="42.62" cy="99.47" r="1.3"/>
							<circle class="st15" cx="42.62" cy="99.47" r="0.67"/>
						</g>
						<g>
							<circle class="st14" cx="42.67" cy="105.63" r="1.3"/>
							<circle class="st15" cx="42.67" cy="105.63" r="0.67"/>
						</g>
						<g>
							<circle class="st14" cx="48.83" cy="105.58" r="1.3"/>
							<circle class="st15" cx="48.83" cy="105.58" r="0.67"/>
						</g>
						<g>
							<circle class="st14" cx="48.78" cy="99.42" r="1.3"/>
							<circle class="st15" cx="48.78" cy="99.42" r="0.67"/>
						</g>
					</g>
					
						<linearGradient id="SVGID_1_" gradientUnits="userSpaceOnUse" x1="2788.0757" y1="47.232" x2="2788.0757" y2="71.732" gradientTransform="matrix(1 0 0 -1 -2742.3457 162)">
						<stop  offset="0" style="stop-color:#000000"/>
						<stop  offset="0.1931" style="stop-color:#2C2C2C"/>
						<stop  offset="0.6266" style="stop-color:#9B9B9B"/>
						<stop  offset="1" style="stop-color:#FFFFFF"/>
					</linearGradient>
					<circle class="st16" cx="45.73" cy="102.52" r="12.25"/>
				</g>
				<g>
					<ellipse class="st7" cx="220.35" cy="102.52" rx="19.28" ry="19.28"/>
					<circle class="st8" cx="220.35" cy="102.52" r="12.25"/>
					<circle class="st9" cx="220.35" cy="102.52" r="11.4"/>
					<circle class="st10" cx="220.35" cy="102.52" r="6.99"/>
					<g>
						<rect x="219.64" y="90.93" class="st10" width="1.42" height="4.6"/>
						
							<rect x="213.06" y="93.65" transform="matrix(0.7071 -0.7071 0.7071 0.7071 -5.2345 179.2638)" class="st10" width="1.42" height="4.6"/>
						<rect x="208.76" y="101.82" class="st10" width="4.6" height="1.42"/>
						
							<rect x="211.49" y="108.39" transform="matrix(0.7071 -0.7071 0.7071 0.7071 -14.5258 183.1254)" class="st10" width="4.6" height="1.42"/>
						<rect x="219.65" y="109.52" class="st10" width="1.42" height="4.6"/>
						
							<rect x="226.22" y="106.79" transform="matrix(0.7071 -0.7071 0.7071 0.7071 -10.6717 192.4164)" class="st10" width="1.42" height="4.6"/>
						<rect x="227.35" y="101.81" class="st10" width="4.6" height="1.42"/>
						
							<rect x="224.62" y="95.24" transform="matrix(0.7071 -0.7071 0.7071 0.7071 -1.3803 188.5597)" class="st10" width="4.6" height="1.42"/>
					</g>
					<g>
						<g>
							<rect x="219.64" y="90.93" class="st8" width="1.42" height="4.6"/>
							
								<rect x="213.06" y="93.65" transform="matrix(0.7071 -0.7071 0.7071 0.7071 -5.2345 179.2638)" class="st8" width="1.42" height="4.6"/>
							<rect x="208.76" y="101.82" class="st8" width="4.6" height="1.42"/>
							
								<rect x="211.49" y="108.39" transform="matrix(0.7071 -0.7071 0.7071 0.7071 -14.5258 183.1254)" class="st8" width="4.6" height="1.42"/>
							<rect x="219.65" y="109.52" class="st8" width="1.42" height="4.6"/>
							
								<rect x="226.22" y="106.79" transform="matrix(0.7071 -0.7071 0.7071 0.7071 -10.6717 192.4164)" class="st8" width="1.42" height="4.6"/>
							<rect x="227.35" y="101.81" class="st8" width="4.6" height="1.42"/>
							
								<rect x="224.62" y="95.24" transform="matrix(0.7071 -0.7071 0.7071 0.7071 -1.3803 188.5597)" class="st8" width="4.6" height="1.42"/>
						</g>
						<g>
							
								<rect x="216.09" y="91.64" transform="matrix(0.9239 -0.3827 0.3827 0.9239 -19.4462 90.1168)" class="st8" width="1.42" height="4.6"/>
							
								<rect x="211.06" y="96.66" transform="matrix(0.3827 -0.9239 0.9239 0.3827 39.2995 256.7436)" class="st8" width="1.42" height="4.6"/>
							
								<rect x="209.46" y="105.36" transform="matrix(0.9239 -0.3827 0.3827 0.9239 -24.473 89.1151)" class="st8" width="4.6" height="1.42"/>
							
								<rect x="214.5" y="110.39" transform="matrix(0.3827 -0.9239 0.9239 0.3827 31.1865 268.8753)" class="st8" width="4.6" height="1.42"/>
							
								<rect x="223.19" y="108.8" transform="matrix(0.9239 -0.3827 0.3827 0.9239 -25.4746 94.1429)" class="st8" width="1.42" height="4.6"/>
							
								<rect x="228.22" y="103.78" transform="matrix(0.3827 -0.9239 0.9239 0.3827 43.3142 276.9855)" class="st8" width="1.42" height="4.6"/>
							
								<rect x="226.64" y="98.27" transform="matrix(0.9239 -0.3827 0.3827 0.9239 -20.4503 95.1457)" class="st8" width="4.6" height="1.42"/>
							
								<rect x="221.61" y="93.24" transform="matrix(0.3827 -0.9239 0.9239 0.3827 51.4284 264.8607)" class="st8" width="4.6" height="1.42"/>
						</g>
					</g>
					<circle class="st11" cx="220.35" cy="102.52" r="6.06"/>
					<circle class="st12" cx="220.35" cy="102.52" r="2.36"/>
					<circle class="st9" cx="220.35" cy="102.52" r="1.63"/>
					<path class="st13" d="M220.35,85.86c9.25,0,16.77,7.38,17.01,16.56c0-0.15,0.01-0.3,0.01-0.46c0-9.4-7.62-17.02-17.02-17.02
						c-9.4,0-17.02,7.62-17.02,17.02c0,0.15,0.01,0.31,0.01,0.46C203.58,93.23,211.1,85.86,220.35,85.86z"/>
					<g>
						<g>
							<circle class="st14" cx="220.31" cy="98.17" r="1.3"/>
							<circle class="st15" cx="220.31" cy="98.17" r="0.67"/>
						</g>
						<g>
							<circle class="st14" cx="215.99" cy="102.56" r="1.3"/>
							<circle class="st15" cx="215.99" cy="102.56" r="0.67"/>
						</g>
						<g>
							<circle class="st14" cx="220.38" cy="106.88" r="1.3"/>
							<circle class="st15" cx="220.38" cy="106.88" r="0.67"/>
						</g>
						<g>
							<circle class="st14" cx="224.71" cy="102.49" r="1.3"/>
							<circle class="st15" cx="224.71" cy="102.49" r="0.67"/>
						</g>
					</g>
					<g>
						<g>
							<circle class="st14" cx="217.24" cy="99.47" r="1.3"/>
							<circle class="st15" cx="217.24" cy="99.47" r="0.67"/>
						</g>
						<g>
							<circle class="st14" cx="217.29" cy="105.63" r="1.3"/>
							<circle class="st15" cx="217.29" cy="105.63" r="0.67"/>
						</g>
						<g>
							<circle class="st14" cx="223.45" cy="105.58" r="1.3"/>
							<circle class="st15" cx="223.45" cy="105.58" r="0.67"/>
						</g>
						<g>
							<circle class="st14" cx="223.4" cy="99.42" r="1.3"/>
							<circle class="st15" cx="223.4" cy="99.42" r="0.67"/>
						</g>
					</g>
					
						<linearGradient id="SVGID_2_" gradientUnits="userSpaceOnUse" x1="2962.6958" y1="47.232" x2="2962.6958" y2="71.732" gradientTransform="matrix(1 0 0 -1 -2742.3457 162)">
						<stop  offset="0" style="stop-color:#000000"/>
						<stop  offset="0.1931" style="stop-color:#2C2C2C"/>
						<stop  offset="0.6266" style="stop-color:#9B9B9B"/>
						<stop  offset="1" style="stop-color:#FFFFFF"/>
					</linearGradient>
					<circle class="st17" cx="220.35" cy="102.52" r="12.25"/>
				</g>
				<g>
					<g>
						<defs>
							<path id="SVGID_3_" d="M268.3,65.93c0-0.41,0-0.8-0.01-1.16h-15.93c-1.22,0-1.91,1.41-1.16,2.37
								c0.75,0.95,1.79,2.07,3.18,3.15c3.44,2.66,6.24,4.26,7.35,4.85c0.32,0.17,0.68,0.26,1.04,0.26h5.49
								c0.01-1.18,0.04-4.1,0.04-6.94C268.31,67.59,268.31,66.73,268.3,65.93z"/>
						</defs>
						<clipPath id="SVGID_4_">
							<use xlink:href="#SVGID_3_"  style="overflow:visible;"/>
						</clipPath>
						<g class="st18">
							<g>
								<path class="st19" d="M247.42,67.58c-0.14,0-0.25-0.11-0.25-0.25v-0.11c0-0.14,0.11-0.25,0.25-0.25h24.19
									c0.14,0,0.25,0.11,0.25,0.25v0.11c0,0.14-0.11,0.25-0.25,0.25H247.42z"/>
								<path class="st2" d="M271.61,67.22v0.11h-24.19v-0.11H271.61 M271.61,66.72h-24.19c-0.28,0-0.5,0.22-0.5,0.5v0.11
									c0,0.28,0.22,0.5,0.5,0.5h24.19c0.28,0,0.5-0.22,0.5-0.5v-0.11C272.11,66.94,271.89,66.72,271.61,66.72L271.61,66.72z"/>
							</g>
							<g>
								<path class="st19" d="M247.42,68.07c-0.14,0-0.25-0.11-0.25-0.25v-0.11c0-0.14,0.11-0.25,0.25-0.25h24.19
									c0.14,0,0.25,0.11,0.25,0.25v0.11c0,0.14-0.11,0.25-0.25,0.25H247.42z"/>
								<path class="st2" d="M271.61,67.71v0.11h-24.19v-0.11H271.61 M271.61,67.21h-24.19c-0.28,0-0.5,0.22-0.5,0.5v0.11
									c0,0.28,0.22,0.5,0.5,0.5h24.19c0.28,0,0.5-0.22,0.5-0.5v-0.11C272.11,67.43,271.89,67.21,271.61,67.21L271.61,67.21z"/>
							</g>
							<g>
								<path class="st19" d="M247.42,68.57c-0.14,0-0.25-0.11-0.25-0.25v-0.11c0-0.14,0.11-0.25,0.25-0.25h24.19
									c0.14,0,0.25,0.11,0.25,0.25v0.11c0,0.14-0.11,0.25-0.25,0.25H247.42z"/>
								<path class="st2" d="M271.61,68.2v0.11h-24.19V68.2H271.61 M271.61,67.7h-24.19c-0.28,0-0.5,0.22-0.5,0.5v0.11
									c0,0.28,0.22,0.5,0.5,0.5h24.19c0.28,0,0.5-0.22,0.5-0.5V68.2C272.11,67.93,271.89,67.7,271.61,67.7L271.61,67.7z"/>
							</g>
							<g>
								<path class="st19" d="M247.42,69.06c-0.14,0-0.25-0.11-0.25-0.25V68.7c0-0.14,0.11-0.25,0.25-0.25h24.19
									c0.14,0,0.25,0.11,0.25,0.25v0.11c0,0.14-0.11,0.25-0.25,0.25H247.42z"/>
								<path class="st2" d="M271.61,68.69v0.11h-24.19v-0.11H271.61 M271.61,68.19h-24.19c-0.28,0-0.5,0.22-0.5,0.5v0.11
									c0,0.28,0.22,0.5,0.5,0.5h24.19c0.28,0,0.5-0.22,0.5-0.5v-0.11C272.11,68.42,271.89,68.19,271.61,68.19L271.61,68.19z"/>
							</g>
							<g>
								<path class="st19" d="M247.42,69.55c-0.14,0-0.25-0.11-0.25-0.25v-0.11c0-0.14,0.11-0.25,0.25-0.25h24.19
									c0.14,0,0.25,0.11,0.25,0.25v0.11c0,0.14-0.11,0.25-0.25,0.25H247.42z"/>
								<path class="st2" d="M271.61,69.18v0.11h-24.19v-0.11H271.61 M271.61,68.68h-24.19c-0.28,0-0.5,0.22-0.5,0.5v0.11
									c0,0.28,0.22,0.5,0.5,0.5h24.19c0.28,0,0.5-0.22,0.5-0.5v-0.11C272.11,68.91,271.89,68.68,271.61,68.68L271.61,68.68z"/>
							</g>
							<g>
								<path class="st19" d="M247.42,70.04c-0.14,0-0.25-0.11-0.25-0.25v-0.11c0-0.14,0.11-0.25,0.25-0.25h24.19
									c0.14,0,0.25,0.11,0.25,0.25v0.11c0,0.14-0.11,0.25-0.25,0.25H247.42z"/>
								<path class="st2" d="M271.61,69.68v0.11h-24.19v-0.11H271.61 M271.61,69.18h-24.19c-0.28,0-0.5,0.22-0.5,0.5v0.11
									c0,0.28,0.22,0.5,0.5,0.5h24.19c0.28,0,0.5-0.22,0.5-0.5v-0.11C272.11,69.4,271.89,69.18,271.61,69.18L271.61,69.18z"/>
							</g>
							<g>
								<path class="st19" d="M247.42,64.64c-0.14,0-0.25-0.11-0.25-0.25v-0.11c0-0.14,0.11-0.25,0.25-0.25h24.19
									c0.14,0,0.25,0.11,0.25,0.25v0.11c0,0.14-0.11,0.25-0.25,0.25H247.42z"/>
								<path class="st2" d="M271.61,64.27v0.11h-24.19v-0.11H271.61 M271.61,63.77h-24.19c-0.28,0-0.5,0.22-0.5,0.5v0.11
									c0,0.28,0.22,0.5,0.5,0.5h24.19c0.28,0,0.5-0.22,0.5-0.5v-0.11C272.11,64,271.89,63.77,271.61,63.77L271.61,63.77z"/>
							</g>
							<g>
								<path class="st19" d="M247.42,65.13c-0.14,0-0.25-0.11-0.25-0.25v-0.11c0-0.14,0.11-0.25,0.25-0.25h24.19
									c0.14,0,0.25,0.11,0.25,0.25v0.11c0,0.14-0.11,0.25-0.25,0.25H247.42z"/>
								<path class="st2" d="M271.61,64.76v0.11h-24.19v-0.11H271.61 M271.61,64.26h-24.19c-0.28,0-0.5,0.22-0.5,0.5v0.11
									c0,0.28,0.22,0.5,0.5,0.5h24.19c0.28,0,0.5-0.22,0.5-0.5v-0.11C272.11,64.49,271.89,64.26,271.61,64.26L271.61,64.26z"/>
							</g>
							<g>
								<path class="st19" d="M247.42,65.62c-0.14,0-0.25-0.11-0.25-0.25v-0.11c0-0.14,0.11-0.25,0.25-0.25h24.19
									c0.14,0,0.25,0.11,0.25,0.25v0.11c0,0.14-0.11,0.25-0.25,0.25H247.42z"/>
								<path class="st2" d="M271.61,65.25v0.11h-24.19v-0.11H271.61 M271.61,64.75h-24.19c-0.28,0-0.5,0.22-0.5,0.5v0.11
									c0,0.28,0.22,0.5,0.5,0.5h24.19c0.28,0,0.5-0.22,0.5-0.5v-0.11C272.11,64.98,271.89,64.75,271.61,64.75L271.61,64.75z"/>
							</g>
							<g>
								<path class="st19" d="M247.42,66.11c-0.14,0-0.25-0.11-0.25-0.25v-0.12c0-0.14,0.11-0.25,0.25-0.25h24.19
									c0.14,0,0.25,0.11,0.25,0.25v0.11c0,0.14-0.11,0.25-0.25,0.25h-24.19V66.11z"/>
								<path class="st2" d="M271.61,65.75v0.11h-24.19v-0.11H271.61 M271.61,65.25h-24.19c-0.28,0-0.5,0.22-0.5,0.5v0.11
									c0,0.28,0.22,0.5,0.5,0.5h24.19c0.28,0,0.5-0.22,0.5-0.5v-0.11C272.11,65.47,271.89,65.25,271.61,65.25L271.61,65.25z"/>
							</g>
							<g>
								<path class="st19" d="M247.42,66.6c-0.14,0-0.25-0.11-0.25-0.25v-0.11c0-0.14,0.11-0.25,0.25-0.25h24.19
									c0.14,0,0.25,0.11,0.25,0.25v0.11c0,0.14-0.11,0.25-0.25,0.25H247.42z"/>
								<path class="st2" d="M271.61,66.24v0.11h-24.19v-0.11H271.61 M271.61,65.74h-24.19c-0.28,0-0.5,0.22-0.5,0.5v0.11
									c0,0.28,0.22,0.5,0.5,0.5h24.19c0.28,0,0.5-0.22,0.5-0.5v-0.11C272.11,65.96,271.89,65.74,271.61,65.74L271.61,65.74z"/>
							</g>
							<g>
								<path class="st19" d="M247.42,67.09c-0.14,0-0.25-0.11-0.25-0.25v-0.11c0-0.14,0.11-0.25,0.25-0.25h24.19
									c0.14,0,0.25,0.11,0.25,0.25v0.11c0,0.14-0.11,0.25-0.25,0.25H247.42z"/>
								<path class="st2" d="M271.61,66.73v0.11h-24.19v-0.11H271.61 M271.61,66.23h-24.19c-0.28,0-0.5,0.22-0.5,0.5v0.11
									c0,0.28,0.22,0.5,0.5,0.5h24.19c0.28,0,0.5-0.22,0.5-0.5v-0.11C272.11,66.45,271.89,66.23,271.61,66.23L271.61,66.23z"/>
							</g>
							<g>
								<path class="st19" d="M247.42,70.53c-0.14,0-0.25-0.11-0.25-0.25v-0.11c0-0.14,0.11-0.25,0.25-0.25h24.19
									c0.14,0,0.25,0.11,0.25,0.25v0.11c0,0.14-0.11,0.25-0.25,0.25H247.42z"/>
								<path class="st2" d="M271.61,70.17v0.11h-24.19v-0.11H271.61 M271.61,69.67h-24.19c-0.28,0-0.5,0.22-0.5,0.5v0.11
									c0,0.28,0.22,0.5,0.5,0.5h24.19c0.28,0,0.5-0.22,0.5-0.5v-0.11C272.11,69.89,271.89,69.67,271.61,69.67L271.61,69.67z"/>
							</g>
							<g>
								<path class="st19" d="M247.42,71.02c-0.14,0-0.25-0.11-0.25-0.25v-0.11c0-0.14,0.11-0.25,0.25-0.25h24.19
									c0.14,0,0.25,0.11,0.25,0.25v0.11c0,0.14-0.11,0.25-0.25,0.25H247.42z"/>
								<path class="st2" d="M271.61,70.66v0.11h-24.19v-0.11H271.61 M271.61,70.16h-24.19c-0.28,0-0.5,0.22-0.5,0.5v0.11
									c0,0.28,0.22,0.5,0.5,0.5h24.19c0.28,0,0.5-0.22,0.5-0.5v-0.11C272.11,70.38,271.89,70.16,271.61,70.16L271.61,70.16z"/>
							</g>
							<g>
								<path class="st19" d="M247.42,71.51c-0.14,0-0.25-0.11-0.25-0.25v-0.11c0-0.14,0.11-0.25,0.25-0.25h24.19
									c0.14,0,0.25,0.11,0.25,0.25v0.11c0,0.14-0.11,0.25-0.25,0.25H247.42z"/>
								<path class="st2" d="M271.61,71.15v0.11h-24.19v-0.11H271.61 M271.61,70.65h-24.19c-0.28,0-0.5,0.22-0.5,0.5v0.11
									c0,0.28,0.22,0.5,0.5,0.5h24.19c0.28,0,0.5-0.22,0.5-0.5v-0.11C272.11,70.87,271.89,70.65,271.61,70.65L271.61,70.65z"/>
							</g>
							<g>
								<path class="st19" d="M247.42,72.01c-0.14,0-0.25-0.11-0.25-0.25v-0.11c0-0.14,0.11-0.25,0.25-0.25h24.19
									c0.14,0,0.25,0.11,0.25,0.25v0.11c0,0.14-0.11,0.25-0.25,0.25H247.42z"/>
								<path class="st2" d="M271.61,71.64v0.11h-24.19v-0.11H271.61 M271.61,71.14h-24.19c-0.28,0-0.5,0.22-0.5,0.5v0.11
									c0,0.28,0.22,0.5,0.5,0.5h24.19c0.28,0,0.5-0.22,0.5-0.5v-0.11C272.11,71.36,271.89,71.14,271.61,71.14L271.61,71.14z"/>
							</g>
							<g>
								<path class="st19" d="M247.42,72.5c-0.14,0-0.25-0.11-0.25-0.25v-0.11c0-0.14,0.11-0.25,0.25-0.25h24.19
									c0.14,0,0.25,0.11,0.25,0.25v0.11c0,0.14-0.11,0.25-0.25,0.25H247.42z"/>
								<path class="st2" d="M271.61,72.13v0.11h-24.19v-0.11H271.61 M271.61,71.63h-24.19c-0.28,0-0.5,0.22-0.5,0.5v0.11
									c0,0.28,0.22,0.5,0.5,0.5h24.19c0.28,0,0.5-0.22,0.5-0.5v-0.11C272.11,71.86,271.89,71.63,271.61,71.63L271.61,71.63z"/>
							</g>
							<g>
								<path class="st19" d="M247.42,72.99c-0.14,0-0.25-0.11-0.25-0.25v-0.11c0-0.14,0.11-0.25,0.25-0.25h24.19
									c0.14,0,0.25,0.11,0.25,0.25v0.11c0,0.14-0.11,0.25-0.25,0.25H247.42z"/>
								<path class="st2" d="M271.61,72.62v0.12h-24.19v-0.11h24.19 M271.61,72.12h-24.19c-0.28,0-0.5,0.22-0.5,0.5v0.12
									c0,0.28,0.22,0.5,0.5,0.5h24.19c0.28,0,0.5-0.22,0.5-0.5v-0.11C272.11,72.35,271.89,72.12,271.61,72.12L271.61,72.12z"/>
							</g>
							<g>
								<path class="st19" d="M247.42,73.48c-0.14,0-0.25-0.11-0.25-0.25v-0.11c0-0.14,0.11-0.25,0.25-0.25h24.19
									c0.14,0,0.25,0.11,0.25,0.25v0.11c0,0.14-0.11,0.25-0.25,0.25H247.42z"/>
								<path class="st2" d="M271.61,73.11v0.11h-24.19v-0.11H271.61 M271.61,72.61h-24.19c-0.28,0-0.5,0.22-0.5,0.5v0.11
									c0,0.28,0.22,0.5,0.5,0.5h24.19c0.28,0,0.5-0.22,0.5-0.5v-0.11C272.11,72.84,271.89,72.61,271.61,72.61L271.61,72.61z"/>
							</g>
							<g>
								<path class="st19" d="M247.42,73.97c-0.14,0-0.25-0.11-0.25-0.25v-0.11c0-0.14,0.11-0.25,0.25-0.25h24.19
									c0.14,0,0.25,0.11,0.25,0.25v0.11c0,0.14-0.11,0.25-0.25,0.25H247.42z"/>
								<path class="st2" d="M271.61,73.61v0.11h-24.19v-0.11H271.61 M271.61,73.11h-24.19c-0.28,0-0.5,0.22-0.5,0.5v0.11
									c0,0.28,0.22,0.5,0.5,0.5h24.19c0.28,0,0.5-0.22,0.5-0.5v-0.11C272.11,73.33,271.89,73.11,271.61,73.11L271.61,73.11z"/>
							</g>
							<g>
								<path class="st19" d="M247.42,74.46c-0.14,0-0.25-0.11-0.25-0.25V74.1c0-0.14,0.11-0.25,0.25-0.25h24.19
									c0.14,0,0.25,0.11,0.25,0.25v0.11c0,0.14-0.11,0.25-0.25,0.25H247.42z"/>
								<path class="st2" d="M271.61,74.1v0.11h-24.19V74.1H271.61 M271.61,73.6h-24.19c-0.28,0-0.5,0.22-0.5,0.5v0.11
									c0,0.28,0.22,0.5,0.5,0.5h24.19c0.28,0,0.5-0.22,0.5-0.5V74.1C272.11,73.82,271.89,73.6,271.61,73.6L271.61,73.6z"/>
							</g>
							<g>
								<path class="st19" d="M247.42,74.95c-0.14,0-0.25-0.11-0.25-0.25v-0.11c0-0.14,0.11-0.25,0.25-0.25h24.19
									c0.14,0,0.25,0.11,0.25,0.25v0.11c0,0.14-0.11,0.25-0.25,0.25H247.42z"/>
								<path class="st2" d="M271.61,74.59v0.11h-24.19v-0.11H271.61 M271.61,74.09h-24.19c-0.28,0-0.5,0.22-0.5,0.5v0.11
									c0,0.28,0.22,0.5,0.5,0.5h24.19c0.28,0,0.5-0.22,0.5-0.5v-0.11C272.11,74.31,271.89,74.09,271.61,74.09L271.61,74.09z"/>
							</g>
							<g>
								<path class="st19" d="M247.42,75.44c-0.14,0-0.25-0.11-0.25-0.25v-0.11c0-0.14,0.11-0.25,0.25-0.25h24.19
									c0.14,0,0.25,0.11,0.25,0.25v0.11c0,0.14-0.11,0.25-0.25,0.25H247.42z"/>
								<path class="st2" d="M271.61,75.08v0.11h-24.19v-0.11H271.61 M271.61,74.58h-24.19c-0.28,0-0.5,0.22-0.5,0.5v0.11
									c0,0.28,0.22,0.5,0.5,0.5h24.19c0.28,0,0.5-0.22,0.5-0.5v-0.11C272.11,74.8,271.89,74.58,271.61,74.58L271.61,74.58z"/>
							</g>
							<g>
								<path class="st19" d="M247.42,75.94c-0.14,0-0.25-0.11-0.25-0.25v-0.11c0-0.14,0.11-0.25,0.25-0.25h24.19
									c0.14,0,0.25,0.11,0.25,0.25v0.11c0,0.14-0.11,0.25-0.25,0.25H247.42z"/>
								<path class="st2" d="M271.61,75.57v0.11h-24.19v-0.11H271.61 M271.61,75.07h-24.19c-0.28,0-0.5,0.22-0.5,0.5v0.11
									c0,0.28,0.22,0.5,0.5,0.5h24.19c0.28,0,0.5-0.22,0.5-0.5v-0.11C272.11,75.3,271.89,75.07,271.61,75.07L271.61,75.07z"/>
							</g>
						</g>
					</g>
				</g>
				<path class="st20" d="M69.32,113.72c0.02,0.27,0.24,0.48,0.51,0.48H195.5c0.02,0,0.04,0,0.06,0l1.46-0.16
					c0.26-0.03,0.45-0.24,0.46-0.5c0.02-0.8,0.04-1.6,0.07-2.38H69.13C69.19,112,69.26,112.86,69.32,113.72z"/>
				<path class="st20" d="M152.81,43.66l-0.29,0.01c-1.05,0.02-2.06,0.04-3,0.05l-4.51,19.45l5.09-0.23
					C151.03,56.07,152.11,48.52,152.81,43.66z"/>
				<path class="st2" d="M89.93,64.38c3.22-2.71,7.12-6.22,12.35-9.47c8.53-5.3,14.26-8.34,21.84-10.51
					c7.28-2.08,17.35-3.01,24.11-3.01c1.28,0,2.74-0.03,4.29-0.06l0.63-0.01c0.04-0.26,0.07-0.51,0.11-0.74
					c-1.87,0.03-3.55,0.07-5.02,0.07c-7.09,0-17.22,1.01-24.31,3.04s-13.17,4.66-22.28,10.33c-7.58,4.71-16.13,10.96-18.8,12.94
					l67.14-3.07c0.04-0.32,0.09-0.65,0.13-0.98l-59.66,2.75C89.73,65.7,89.39,64.83,89.93,64.38z"/>
				<path class="st20" d="M82.47,67.24c-0.31,0.23-0.52,0.58-0.58,0.96l-2.87,19.12c-0.05,0.34,0.02,0.69,0.2,0.98
					c0.51,0.83,1.6,2.71,2.35,4.83c1.01,2.84,1.16,7.95,1.22,12.16c0.01,0.49,0.01,0.94,0.01,1.29c0,0.41,0.33,0.73,0.73,0.73
					c5.44-0.03,39.92-0.2,66.93-0.57v-4.81c0-0.73-0.05-1.45-0.14-2.17c-0.51-3.97-2.26-17.82-2.09-21.62
					c0.08-1.65,0.82-7.51,1.74-14.23l-67.14,3.07C82.69,67.07,82.57,67.16,82.47,67.24z"/>
				<path class="st20" d="M153.26,43.65h-0.12l-0.34,0.01c-0.7,4.86-1.77,12.42-2.71,19.26l4.88-0.22l0.76-19.09
					C154.86,43.62,154.03,43.63,153.26,43.65z"/>
				<path class="st20" d="M152.52,41.33c-1.55,0.03-3.01,0.06-4.29,0.06c-6.76,0-16.83,0.93-24.11,3.01
					c-7.58,2.17-13.31,5.2-21.84,10.51c-5.23,3.25-9.13,6.76-12.35,9.47c-0.54,0.45-0.19,1.32,0.51,1.29l0.76-0.03
					c2.97-2.53,6.52-5.56,11.09-8.4c8.53-5.3,14.26-8.34,21.84-10.51c7.28-2.08,17.35-3.01,24.11-3.01c1.28,0,2.74-0.03,4.29-0.06
					l0.29-0.01c0.13-0.87,0.24-1.66,0.34-2.34L152.52,41.33z"/>
				<path class="st2" d="M181.86,42.27c-11.71-1.92-21.51-1.82-28.61-1.69c-0.03,0.23-0.07,0.48-0.11,0.74h0.12
					c1.63-0.03,3.54-0.06,5.61-0.06c5.27,0,13.37,0.18,22.87,1.74c10.73,1.76,19.63,5.65,25.21,9.18c1.51,0.96,1.83,3.03,0.66,4.39
					L207,57.29c-0.6,0.7-1.32,1.28-2.13,1.71l-1.58,0.84c-0.86,0.46-1.81,0.72-2.78,0.76l-50.41,2.32
					c-0.04,0.33-0.09,0.65-0.13,0.98l52.06-2.38c1.89-0.09,3.69-0.84,5.09-2.12l5.8-5.33C208.24,50.04,195.3,44.48,181.86,42.27z"/>
				<path class="st20" d="M206.95,52.18c-5.58-3.53-14.48-7.42-25.21-9.18c-9.49-1.56-17.6-1.74-22.87-1.74
					c-2.07,0-3.98,0.03-5.61,0.06h-0.12c-0.1,0.68-0.21,1.46-0.34,2.34l0.34-0.01h0.12c1.63-0.03,3.54-0.06,5.61-0.06
					c5.27,0,15.19,0.18,24.68,1.74c10.73,1.76,17.28,4.35,22.87,7.89c1.34,0.85,1.46,2.84,0.18,4.51c0.14-0.14,0.28-0.28,0.41-0.43
					l0.61-0.72C208.78,55.21,208.47,53.14,206.95,52.18z"/>
				<path class="st20" d="M212.92,54.08l-5.8,5.33c-1.4,1.28-3.2,2.03-5.09,2.12l-52.06,2.38c-0.91,6.72-1.66,12.58-1.74,14.23
					c-0.17,3.81,1.57,17.66,2.09,21.62c0.09,0.72,0.14,1.44,0.14,2.17v4.81c15.83-0.21,29.08-0.49,32.41-0.85
					c9.52-1.01,10.74-9.52,13.98-14.99c3.24-5.47,10.53-14.38,15.19-20.66s5.27-10.94,2.03-14.99
					C213.77,54.87,213.39,54.48,212.92,54.08z"/>
				<path class="st21" d="M148.23,43.72c-6.76,0-16.83,0.93-24.11,3.01c-7.58,2.17-13.31,5.2-21.84,10.51
					c-4.56,2.84-8.11,5.87-11.09,8.4l53.82-2.48l4.51-19.45C149.07,43.71,148.64,43.72,148.23,43.72z"/>
				<path class="st21" d="M206.42,53.21c-5.58-3.53-12.13-6.12-22.87-7.89c-9.49-1.56-19.41-1.74-24.68-1.74
					c-1.1,0-2.14,0.01-3.13,0.02l-0.76,19.09l45.54-2.1c0.97-0.05,1.92-0.31,2.78-0.76l1.58-0.84c0.64-0.34,1.21-0.77,1.72-1.27
					C207.88,56.06,207.76,54.06,206.42,53.21z"/>
				<path class="st20" d="M246.93,92.75l4.72-4.72c0.41-0.41,0.97-0.64,1.56-0.64h15.53c0.58,0,1.14,0.23,1.56,0.64l2.53,2.53
					c0-2.51,0-5.26,0-6.45c0-0.82-0.75-2.15-1.65-3.52c-0.7,1.12-1.7,1.56-5.64,2c-4.04,0.45-22.29,1.34-31.59,1.77
					c3.08,2.09,5.38,5.1,6.84,9.03h4.6C245.95,93.39,246.51,93.16,246.93,92.75z"/>
				<path class="st20" d="M270.29,88.03c-0.41-0.41-0.97-0.64-1.56-0.64H253.2c-0.58,0-1.14,0.23-1.56,0.64l-4.72,4.72
					c-0.41,0.41-0.97,0.64-1.56,0.64h-4.6c0.56,1.52,1,3.17,1.3,4.97c0.41,2.49,0.81,6.04,1.19,10.1c0.03,0.29,0.28,0.5,0.57,0.47
					l0,0c0.02,0,0.03,0,0.04-0.01c0.66-0.13,17.17-3.47,20.74-4.96c3.65-1.52,8.2-6.99,8.2-9.12c0-0.88,0-2.52,0-4.29L270.29,88.03z
					"/>
				<path class="st20" d="M231.87,70.03h-6.57c-1.1,0-1.99-0.89-1.99-1.99v-3.73c0-1.1,0.89-1.99,1.99-1.99h6.57
					c1.1,0,1.99,0.89,1.99,1.99v3.73C233.85,69.14,232.97,70.03,231.87,70.03z"/>
				<g>
					<path class="st22" d="M142.81,71.87c0.06,1.64-0.37,2.99-4.47,3.13s-7.47-1.07-7.53-2.71s3.22-3.09,7.32-3.23
						C142.23,68.92,142.75,70.23,142.81,71.87z"/>
					<path class="st2" d="M146.7,70.75l-4,0.21c0.07,0.29,0.1,0.6,0.11,0.92s0,0.63-0.05,0.93l4.01-0.07c0.21,0,0.37-0.17,0.36-0.38
						l-0.04-1.25C147.08,70.89,146.91,70.74,146.7,70.75z"/>
					<path class="st2" d="M142.7,70.95l-10.75,0.56c-0.2,0.01-0.35,0.18-0.35,0.38l0.03,0.75c0.01,0.2,0.17,0.36,0.37,0.35
						l10.76-0.2c0.05-0.29,0.06-0.6,0.05-0.93C142.8,71.55,142.77,71.24,142.7,70.95z"/>
				</g>
				<g>
					<path class="st22" d="M203.41,69.38c0.06,1.64-0.37,2.99-4.47,3.13s-7.47-1.07-7.53-2.71s3.22-3.09,7.32-3.23
						C202.83,66.42,203.35,67.74,203.41,69.38z"/>
					<path class="st2" d="M207.3,68.25l-4,0.21c0.07,0.29,0.1,0.6,0.11,0.92s0,0.63-0.05,0.93l4.01-0.07c0.2,0,0.37-0.17,0.36-0.38
						l-0.04-1.25C207.68,68.4,207.5,68.24,207.3,68.25z"/>
					<path class="st2" d="M203.3,68.46l-10.75,0.56c-0.2,0.01-0.35,0.18-0.35,0.38l0.03,0.75c0.01,0.2,0.17,0.36,0.37,0.35
						l10.76-0.2c0.05-0.29,0.06-0.6,0.05-0.93S203.37,68.75,203.3,68.46z"/>
				</g>
				<path class="st20" d="M80.79,62.05c0.27,0.24,0.81,0.44,2.16-0.37c0.58-0.35,1.64-1.01,2.66-1.65c0-0.01,0-0.02,0-0.02
					c-0.2,0.06-2.28,0.67-4.6,1.12C80.75,61.5,80.62,61.91,80.79,62.05z"/>
				<path class="st20" d="M81.89,68.2c0.06-0.38,0.26-0.73,0.58-0.96c0.1-0.08,0.23-0.17,0.36-0.27c0.91-0.67,2.5-1.84,4.51-3.28
					c-1.32-1.98-1.62-2.98-1.73-3.66c-1.02,0.64-2.08,1.31-2.66,1.65c-1.35,0.81-1.89,0.61-2.16,0.37
					c-0.17-0.15-0.04-0.55,0.22-0.93c-0.9,0.17-1.84,0.33-2.71,0.41c-7.96,0.79-17.59,1.06-28.12,2.92
					c-17.83,3.14-26.74,7.19-28.87,9.02c-0.14,0.12-0.3,0.29-0.48,0.52c-0.19,0.24-0.02,0.6,0.28,0.6h9.46
					c0.65,0,0.98,0.79,0.52,1.25c-1.13,1.14-2.87,2.82-4.47,4.02c-1.15,0.87-2.32,1.69-3.26,2.35c0.34,2.33,0.36,3.83,3.6,4.13
					c3.74-5.52,10.32-6.86,18.61-6.86c12.08,0,19.89,3.78,21.87,15.66c0.61,3.64,1.18,9.57,1.69,16.03H82.8v-4.58
					c0-0.35,0-0.8-0.01-1.29c-0.05-4.2-0.2-9.32-1.22-12.16c-0.75-2.11-1.85-4-2.35-4.83c-0.18-0.29-0.25-0.64-0.2-0.98L81.89,68.2z
					"/>
				<path class="st20" d="M23.36,82.2c-0.42,0.29-0.8,0.55-1.11,0.77c-0.61,0.41-1.33,0.64-2.06,0.64h-4.54
					c-0.27,0-0.52,0.15-0.65,0.39c-0.85,1.62-1.61,3.12-2.18,4.25c-0.31,0.62-0.56,1.28-0.73,1.95c3.2,0.6,8.12,1.97,11.84,3.57
					c0.53-2.77,1.56-5.27,3.03-7.44C23.72,86.04,23.71,84.53,23.36,82.2z"/>
				<path class="st20" d="M12.08,90.19c-0.19,0.77-0.3,1.55-0.3,2.35v4.36h1.16c0.66,0,1.28,0.29,1.7,0.8l2.76,3.35
					c0.79,0.96,0.11,2.4-1.13,2.4h-0.41c-0.7,0-1.4-0.13-2.06-0.37l-2.01-0.75v1.6c0,0.57,0.22,1.12,0.62,1.53
					c0.78,0.81,2.28,2.16,4.35,3.16c1.86,0.9,4.07,1.23,5.57,1.35c0.29,0.02,0.55-0.2,0.55-0.5c0.16-5.78,0.42-11.09,0.83-14.35
					c0.06-0.46,0.14-0.91,0.22-1.36C20.2,92.17,15.28,90.79,12.08,90.19z"/>
				<path class="st20" d="M268.26,75.4h-5.49c-0.37,0-0.72-0.09-1.04-0.26c-1.1-0.59-3.91-2.2-7.35-4.85
					c-1.39-1.07-2.43-2.2-3.18-3.15c-0.76-0.96-0.07-2.37,1.16-2.37h15.93c-0.01-0.7-0.02-1.32-0.03-1.82
					c-0.1-3.24-1.92-3.55-3.04-3.95c-1.11-0.41-9.72-1.11-12.86-1.42c-3.14-0.3-6.99-0.91-9.72-1.72s-10.53-3.85-10.53-3.85
					s-17.63-8.41-36.77-11.35c-19.14-2.94-36.67-2.43-42.14-2.43s-14.79-0.1-25.22,2.03s-15.19,4.15-26.34,10.33
					c-8.57,4.75-15.3,9.32-16.02,9.43c0.1,0.68,0.4,1.68,1.73,3.68c3.88-2.78,9.3-6.55,14.29-9.66c9.12-5.67,15.19-8.31,22.28-10.33
					c7.09-2.03,17.22-3.04,24.31-3.04c1.48,0,3.16-0.04,5.02-0.07c7.09-0.13,16.9-0.24,28.61,1.69c13.44,2.21,26.38,7.77,31.06,11.8
					c0.47,0.4,0.86,0.79,1.15,1.16c3.24,4.05,2.63,8.71-2.03,14.99s-11.95,15.19-15.19,20.66c-3.24,5.47-4.46,13.98-13.98,14.99
					c-3.33,0.35-16.59,0.63-32.41,0.85c-27,0.37-61.49,0.54-66.93,0.57c-0.41,0-0.73-0.33-0.73-0.73v4.58h114.75
					c0.16-5.17,0.41-9.83,0.79-12.79c1.35-10.57,9.79-17.66,21.87-17.66c5.52,0,10.14,1.21,13.73,3.65
					c9.3-0.44,27.56-1.33,31.59-1.77c3.94-0.44,4.94-0.88,5.64-2c-1.3-1.99-2.91-4.07-2.91-4.79
					C268.26,75.71,268.26,75.57,268.26,75.4z"/>
				<path class="st2" d="M76.53,103.59c-0.15,0-0.2,0.21-0.07,0.28l1.41,0.75c0.02,0.01,0.05,0.02,0.07,0.02l4.83-0.08
					c-0.01-0.37-0.01-0.74-0.02-1.12L76.53,103.59z"/>
				<path class="st2" d="M150.45,101.73l-67.69,1.7c0.01,0.38,0.02,0.75,0.02,1.12l67.67-1.13v-1.5
					C150.46,101.86,150.45,101.79,150.45,101.73z"/>
				<path class="st2" d="M188.44,100.77l-37.99,0.96c0,0.06,0,0.13,0,0.19v1.5l35.35-0.59c0.03,0,0.06-0.01,0.08-0.02l2.64-1.76
					C188.65,100.96,188.59,100.77,188.44,100.77z"/>
				<g class="st23">
					<g>
						<path id="SVGID_7_" class="st24" d="M28.31,74.86l-0.01,0.01C28.3,74.86,28.31,74.86,28.31,74.86z M28.01,75.16
							C28,75.17,28,75.17,27.99,75.18C28,75.17,28,75.16,28.01,75.16z M24.71,78.79c0-0.01,0.01-0.01,0.01-0.02
							C24.72,78.78,24.72,78.78,24.71,78.79z M24.63,78.94C24.63,78.93,24.64,78.93,24.63,78.94
							C24.64,78.93,24.63,78.93,24.63,78.94z M25.7,77.57L25.7,77.57L25.7,77.57z M25.46,77.84c-0.01,0.01-0.02,0.02-0.02,0.03
							C25.45,77.86,25.45,77.85,25.46,77.84z M25.23,78.11c-0.01,0.01-0.02,0.02-0.03,0.03C25.21,78.13,25.22,78.12,25.23,78.11z
							 M25.03,78.35c-0.01,0.01-0.02,0.02-0.02,0.03C25.01,78.37,25.02,78.36,25.03,78.35z M24.86,78.58
							c-0.01,0.01-0.01,0.02-0.02,0.03C24.85,78.59,24.85,78.58,24.86,78.58z M27.69,75.48c-0.01,0.01-0.02,0.02-0.03,0.03
							C27.67,75.5,27.68,75.49,27.69,75.48z M27.36,75.82c-0.01,0.01-0.02,0.02-0.03,0.04C27.33,75.84,27.34,75.83,27.36,75.82z
							 M27.01,76.18c-0.01,0.01-0.02,0.02-0.03,0.03C26.99,76.2,27,76.19,27.01,76.18z M26.65,76.55l-0.01,0.01L26.65,76.55z
							 M26.3,76.92L26.3,76.92L26.3,76.92z"/>
					</g>
					<g>
						<defs>
							<path id="SVGID_5_" d="M28.31,74.86l-0.01,0.01C28.3,74.86,28.31,74.86,28.31,74.86z M28.01,75.16
								C28,75.17,28,75.17,27.99,75.18C28,75.17,28,75.16,28.01,75.16z M24.71,78.79c0-0.01,0.01-0.01,0.01-0.02
								C24.72,78.78,24.72,78.78,24.71,78.79z M24.63,78.94C24.63,78.93,24.64,78.93,24.63,78.94
								C24.64,78.93,24.63,78.93,24.63,78.94z M25.7,77.57L25.7,77.57L25.7,77.57z M25.46,77.84c-0.01,0.01-0.02,0.02-0.02,0.03
								C25.45,77.86,25.45,77.85,25.46,77.84z M25.23,78.11c-0.01,0.01-0.02,0.02-0.03,0.03C25.21,78.13,25.22,78.12,25.23,78.11z
								 M25.03,78.35c-0.01,0.01-0.02,0.02-0.02,0.03C25.01,78.37,25.02,78.36,25.03,78.35z M24.86,78.58
								c-0.01,0.01-0.01,0.02-0.02,0.03C24.85,78.59,24.85,78.58,24.86,78.58z M27.69,75.48c-0.01,0.01-0.02,0.02-0.03,0.03
								C27.67,75.5,27.68,75.49,27.69,75.48z M27.36,75.82c-0.01,0.01-0.02,0.02-0.03,0.04C27.33,75.84,27.34,75.83,27.36,75.82z
								 M27.01,76.18c-0.01,0.01-0.02,0.02-0.03,0.03C26.99,76.2,27,76.19,27.01,76.18z M26.65,76.55l-0.01,0.01L26.65,76.55z
								 M26.3,76.92L26.3,76.92L26.3,76.92z"/>
						</defs>
						<clipPath id="SVGID_6_">
							<use xlink:href="#SVGID_5_"  style="overflow:visible;"/>
						</clipPath>
						<g class="st25">
							<g>
								<path class="st19" d="M12.82,76.7c-0.14,0-0.25-0.11-0.25-0.25v-0.11c0-0.14,0.11-0.25,0.25-0.25h24.19
									c0.14,0,0.25,0.11,0.25,0.25v0.11c0,0.14-0.11,0.25-0.25,0.25H12.82z"/>
								<path class="st2" d="M37.01,76.34v0.11H12.82v-0.11H37.01 M37.01,75.84H12.82c-0.28,0-0.5,0.22-0.5,0.5v0.11
									c0,0.28,0.22,0.5,0.5,0.5h24.19c0.28,0,0.5-0.22,0.5-0.5v-0.11C37.51,76.07,37.29,75.84,37.01,75.84L37.01,75.84z"/>
							</g>
							<g>
								<path class="st19" d="M12.82,77.17c-0.14,0-0.25-0.11-0.25-0.25v-0.11c0-0.14,0.11-0.25,0.25-0.25h24.19
									c0.14,0,0.25,0.11,0.25,0.25v0.11c0,0.14-0.11,0.25-0.25,0.25H12.82z"/>
								<path class="st2" d="M37.01,76.81v0.11H12.82v-0.11H37.01 M37.01,76.31H12.82c-0.28,0-0.5,0.22-0.5,0.5v0.11
									c0,0.28,0.22,0.5,0.5,0.5h24.19c0.28,0,0.5-0.22,0.5-0.5v-0.11C37.51,76.54,37.29,76.31,37.01,76.31L37.01,76.31z"/>
							</g>
							<g>
								<path class="st19" d="M12.82,77.65c-0.14,0-0.25-0.11-0.25-0.25v-0.11c0-0.14,0.11-0.25,0.25-0.25h24.19
									c0.14,0,0.25,0.11,0.25,0.25v0.11c0,0.14-0.11,0.25-0.25,0.25H12.82z"/>
								<path class="st2" d="M37.01,77.29v0.11H12.82v-0.11H37.01 M37.01,76.79H12.82c-0.28,0-0.5,0.22-0.5,0.5v0.11
									c0,0.28,0.22,0.5,0.5,0.5h24.19c0.28,0,0.5-0.22,0.5-0.5v-0.11C37.51,77.01,37.29,76.79,37.01,76.79L37.01,76.79z"/>
							</g>
							<g>
								<path class="st19" d="M12.82,78.12c-0.14,0-0.25-0.11-0.25-0.25v-0.11c0-0.14,0.11-0.25,0.25-0.25h24.19
									c0.14,0,0.25,0.11,0.25,0.25v0.11c0,0.14-0.11,0.25-0.25,0.25H12.82z"/>
								<path class="st2" d="M37.01,77.76v0.11H12.82v-0.11H37.01 M37.01,77.26H12.82c-0.28,0-0.5,0.22-0.5,0.5v0.11
									c0,0.28,0.22,0.5,0.5,0.5h24.19c0.28,0,0.5-0.22,0.5-0.5v-0.11C37.51,77.48,37.29,77.26,37.01,77.26L37.01,77.26z"/>
							</g>
							<g>
								<path class="st19" d="M12.82,78.59c-0.14,0-0.25-0.11-0.25-0.25v-0.11c0-0.14,0.11-0.25,0.25-0.25h24.19
									c0.14,0,0.25,0.11,0.25,0.25v0.11c0,0.14-0.11,0.25-0.25,0.25H12.82z"/>
								<path class="st2" d="M37.01,78.23v0.11H12.82v-0.11H37.01 M37.01,77.73H12.82c-0.28,0-0.5,0.22-0.5,0.5v0.11
									c0,0.28,0.22,0.5,0.5,0.5h24.19c0.28,0,0.5-0.22,0.5-0.5v-0.11C37.51,77.95,37.29,77.73,37.01,77.73L37.01,77.73z"/>
							</g>
							<g>
								<path class="st19" d="M12.82,79.06c-0.14,0-0.25-0.11-0.25-0.25V78.7c0-0.14,0.11-0.25,0.25-0.25h24.19
									c0.14,0,0.25,0.11,0.25,0.25v0.11c0,0.14-0.11,0.25-0.25,0.25H12.82z"/>
								<path class="st2" d="M37.01,78.7v0.11H12.82V78.7H37.01 M37.01,78.2H12.82c-0.28,0-0.5,0.22-0.5,0.5v0.11
									c0,0.28,0.22,0.5,0.5,0.5h24.19c0.28,0,0.5-0.22,0.5-0.5V78.7C37.51,78.42,37.29,78.2,37.01,78.2L37.01,78.2z"/>
							</g>
							<g>
								<path class="st19" d="M12.82,73.87c-0.14,0-0.25-0.11-0.25-0.25v-0.11c0-0.14,0.11-0.25,0.25-0.25h24.19
									c0.14,0,0.25,0.11,0.25,0.25v0.11c0,0.14-0.11,0.25-0.25,0.25H12.82z"/>
								<path class="st2" d="M37.01,73.52v0.11H12.82v-0.11H37.01 M37.01,73.02H12.82c-0.28,0-0.5,0.22-0.5,0.5v0.11
									c0,0.28,0.22,0.5,0.5,0.5h24.19c0.28,0,0.5-0.22,0.5-0.5v-0.11C37.51,73.24,37.29,73.02,37.01,73.02L37.01,73.02z"/>
							</g>
							<g>
								<path class="st19" d="M12.82,74.35c-0.14,0-0.25-0.11-0.25-0.25v-0.11c0-0.14,0.11-0.25,0.25-0.25h24.19
									c0.14,0,0.25,0.11,0.25,0.25v0.11c0,0.14-0.11,0.25-0.25,0.25H12.82z"/>
								<path class="st2" d="M37.01,73.99v0.11H12.82v-0.11H37.01 M37.01,73.49H12.82c-0.28,0-0.5,0.22-0.5,0.5v0.11
									c0,0.28,0.22,0.5,0.5,0.5h24.19c0.28,0,0.5-0.22,0.5-0.5v-0.11C37.51,73.71,37.29,73.49,37.01,73.49L37.01,73.49z"/>
							</g>
							<g>
								<path class="st19" d="M12.82,74.82c-0.14,0-0.25-0.11-0.25-0.25v-0.11c0-0.14,0.11-0.25,0.25-0.25h24.19
									c0.14,0,0.25,0.11,0.25,0.25v0.11c0,0.14-0.11,0.25-0.25,0.25H12.82z"/>
								<path class="st2" d="M37.01,74.46v0.11H12.82v-0.11H37.01 M37.01,73.96H12.82c-0.28,0-0.5,0.22-0.5,0.5v0.11
									c0,0.28,0.22,0.5,0.5,0.5h24.19c0.28,0,0.5-0.22,0.5-0.5v-0.11C37.51,74.18,37.29,73.96,37.01,73.96L37.01,73.96z"/>
							</g>
							<g>
								<path class="st19" d="M12.82,75.29c-0.14,0-0.25-0.11-0.25-0.25v-0.11c0-0.14,0.11-0.25,0.25-0.25h24.19
									c0.14,0,0.25,0.11,0.25,0.25v0.11c0,0.14-0.11,0.25-0.25,0.25H12.82z"/>
								<path class="st2" d="M37.01,74.93v0.11H12.82v-0.11H37.01 M37.01,74.43H12.82c-0.28,0-0.5,0.22-0.5,0.5v0.11
									c0,0.28,0.22,0.5,0.5,0.5h24.19c0.28,0,0.5-0.22,0.5-0.5v-0.11C37.51,74.65,37.29,74.43,37.01,74.43L37.01,74.43z"/>
							</g>
							<g>
								<path class="st19" d="M12.82,75.76c-0.14,0-0.25-0.11-0.25-0.25V75.4c0-0.14,0.11-0.25,0.25-0.25h24.19
									c0.14,0,0.25,0.11,0.25,0.25v0.11c0,0.14-0.11,0.25-0.25,0.25H12.82z"/>
								<path class="st2" d="M37.01,75.4v0.11H12.82V75.4H37.01 M37.01,74.9H12.82c-0.28,0-0.5,0.22-0.5,0.5v0.11
									c0,0.28,0.22,0.5,0.5,0.5h24.19c0.28,0,0.5-0.22,0.5-0.5V75.4C37.51,75.12,37.29,74.9,37.01,74.9L37.01,74.9z"/>
							</g>
							<g>
								<path class="st19" d="M12.82,76.23c-0.14,0-0.25-0.11-0.25-0.25v-0.11c0-0.14,0.11-0.25,0.25-0.25h24.19
									c0.14,0,0.25,0.11,0.25,0.25v0.11c0,0.14-0.11,0.25-0.25,0.25H12.82z"/>
								<path class="st2" d="M37.01,75.87v0.11H12.82v-0.11H37.01 M37.01,75.37H12.82c-0.28,0-0.5,0.22-0.5,0.5v0.11
									c0,0.28,0.22,0.5,0.5,0.5h24.19c0.28,0,0.5-0.22,0.5-0.5v-0.11C37.51,75.6,37.29,75.37,37.01,75.37L37.01,75.37z"/>
							</g>
							<g>
								<path class="st19" d="M12.82,79.53c-0.14,0-0.25-0.11-0.25-0.25v-0.11c0-0.14,0.11-0.25,0.25-0.25h24.19
									c0.14,0,0.25,0.11,0.25,0.25v0.11c0,0.14-0.11,0.25-0.25,0.25H12.82z"/>
								<path class="st2" d="M37.01,79.17v0.11H12.82v-0.11H37.01 M37.01,78.67H12.82c-0.28,0-0.5,0.22-0.5,0.5v0.11
									c0,0.28,0.22,0.5,0.5,0.5h24.19c0.28,0,0.5-0.22,0.5-0.5v-0.11C37.51,78.9,37.29,78.67,37.01,78.67L37.01,78.67z"/>
							</g>
							<g>
								<path class="st19" d="M12.82,80c-0.14,0-0.25-0.11-0.25-0.25v-0.11c0-0.14,0.11-0.25,0.25-0.25h24.19
									c0.14,0,0.25,0.11,0.25,0.25v0.11c0,0.14-0.11,0.25-0.25,0.25H12.82z"/>
								<path class="st2" d="M37.01,79.64v0.11H12.82v-0.11H37.01 M37.01,79.14H12.82c-0.28,0-0.5,0.22-0.5,0.5v0.11
									c0,0.28,0.22,0.5,0.5,0.5h24.19c0.28,0,0.5-0.22,0.5-0.5v-0.11C37.51,79.37,37.29,79.14,37.01,79.14L37.01,79.14z"/>
							</g>
							<g>
								<path class="st19" d="M12.82,80.47c-0.14,0-0.25-0.11-0.25-0.25v-0.11c0-0.14,0.11-0.25,0.25-0.25h24.19
									c0.14,0,0.25,0.11,0.25,0.25v0.11c0,0.14-0.11,0.25-0.25,0.25H12.82z"/>
								<path class="st2" d="M37.01,80.11v0.11H12.82v-0.11H37.01 M37.01,79.61H12.82c-0.28,0-0.5,0.22-0.5,0.5v0.11
									c0,0.28,0.22,0.5,0.5,0.5h24.19c0.28,0,0.5-0.22,0.5-0.5v-0.11C37.51,79.84,37.29,79.61,37.01,79.61L37.01,79.61z"/>
							</g>
							<g>
								<path class="st19" d="M12.82,80.95c-0.14,0-0.25-0.11-0.25-0.25v-0.11c0-0.14,0.11-0.25,0.25-0.25h24.19
									c0.14,0,0.25,0.11,0.25,0.25v0.11c0,0.14-0.11,0.25-0.25,0.25H12.82z"/>
								<path class="st2" d="M37.01,80.59v0.11H12.82v-0.11H37.01 M37.01,80.09H12.82c-0.28,0-0.5,0.22-0.5,0.5v0.11
									c0,0.28,0.22,0.5,0.5,0.5h24.19c0.28,0,0.5-0.22,0.5-0.5v-0.11C37.51,80.31,37.29,80.09,37.01,80.09L37.01,80.09z"/>
							</g>
							<g>
								<path class="st19" d="M12.82,81.42c-0.14,0-0.25-0.11-0.25-0.25v-0.11c0-0.14,0.11-0.25,0.25-0.25h24.19
									c0.14,0,0.25,0.11,0.25,0.25v0.11c0,0.14-0.11,0.25-0.25,0.25H12.82z"/>
								<path class="st2" d="M37.01,81.06v0.11H12.82v-0.11H37.01 M37.01,80.56H12.82c-0.28,0-0.5,0.22-0.5,0.5v0.11
									c0,0.28,0.22,0.5,0.5,0.5h24.19c0.28,0,0.5-0.22,0.5-0.5v-0.11C37.51,80.78,37.29,80.56,37.01,80.56L37.01,80.56z"/>
							</g>
							<g>
								<path class="st19" d="M12.82,81.89c-0.14,0-0.25-0.11-0.25-0.25v-0.11c0-0.14,0.11-0.25,0.25-0.25h24.19
									c0.14,0,0.25,0.11,0.25,0.25v0.11c0,0.14-0.11,0.25-0.25,0.25H12.82z"/>
								<path class="st2" d="M37.01,81.53v0.11H12.82v-0.11H37.01 M37.01,81.03H12.82c-0.28,0-0.5,0.22-0.5,0.5v0.11
									c0,0.28,0.22,0.5,0.5,0.5h24.19c0.28,0,0.5-0.22,0.5-0.5v-0.11C37.51,81.25,37.29,81.03,37.01,81.03L37.01,81.03z"/>
							</g>
							<g>
								<path class="st19" d="M12.82,82.36c-0.14,0-0.25-0.11-0.25-0.25V82c0-0.14,0.11-0.25,0.25-0.25h24.19
									c0.14,0,0.25,0.11,0.25,0.25v0.11c0,0.14-0.11,0.25-0.25,0.25H12.82z"/>
								<path class="st2" d="M37.01,82v0.11H12.82V82H37.01 M37.01,81.5H12.82c-0.28,0-0.5,0.22-0.5,0.5v0.11
									c0,0.28,0.22,0.5,0.5,0.5h24.19c0.28,0,0.5-0.22,0.5-0.5V82C37.51,81.72,37.29,81.5,37.01,81.5L37.01,81.5z"/>
							</g>
							<g>
								<path class="st19" d="M12.82,82.83c-0.14,0-0.25-0.11-0.25-0.25v-0.11c0-0.14,0.11-0.25,0.25-0.25h24.19
									c0.14,0,0.25,0.11,0.25,0.25v0.11c0,0.14-0.11,0.25-0.25,0.25H12.82z"/>
								<path class="st2" d="M37.01,82.47v0.11H12.82v-0.11H37.01 M37.01,81.97H12.82c-0.28,0-0.5,0.22-0.5,0.5v0.11
									c0,0.28,0.22,0.5,0.5,0.5h24.19c0.28,0,0.5-0.22,0.5-0.5v-0.11C37.51,82.19,37.29,81.97,37.01,81.97L37.01,81.97z"/>
							</g>
							<g>
								<path class="st19" d="M12.82,83.3c-0.14,0-0.25-0.11-0.25-0.25v-0.11c0-0.14,0.11-0.25,0.25-0.25h24.19
									c0.14,0,0.25,0.11,0.25,0.25v0.11c0,0.14-0.11,0.25-0.25,0.25H12.82z"/>
								<path class="st2" d="M37.01,82.94v0.11H12.82v-0.11H37.01 M37.01,82.44H12.82c-0.28,0-0.5,0.22-0.5,0.5v0.11
									c0,0.28,0.22,0.5,0.5,0.5h24.19c0.28,0,0.5-0.22,0.5-0.5v-0.11C37.51,82.67,37.29,82.44,37.01,82.44L37.01,82.44z"/>
							</g>
							<g>
								<path class="st19" d="M12.82,83.77c-0.14,0-0.25-0.11-0.25-0.25v-0.11c0-0.14,0.11-0.25,0.25-0.25h24.19
									c0.14,0,0.25,0.11,0.25,0.25v0.11c0,0.14-0.11,0.25-0.25,0.25H12.82z"/>
								<path class="st2" d="M37.01,83.41v0.11H12.82v-0.11H37.01 M37.01,82.91H12.82c-0.28,0-0.5,0.22-0.5,0.5v0.11
									c0,0.28,0.22,0.5,0.5,0.5h24.19c0.28,0,0.5-0.22,0.5-0.5v-0.11C37.51,83.14,37.29,82.91,37.01,82.91L37.01,82.91z"/>
							</g>
							<g>
								<path class="st19" d="M12.82,84.24c-0.14,0-0.25-0.11-0.25-0.25v-0.11c0-0.14,0.11-0.25,0.25-0.25h24.19
									c0.14,0,0.25,0.11,0.25,0.25v0.11c0,0.14-0.11,0.25-0.25,0.25H12.82z"/>
								<path class="st2" d="M37.01,83.89V84H12.82v-0.11H37.01 M37.01,83.39H12.82c-0.28,0-0.5,0.22-0.5,0.5V84
									c0,0.28,0.22,0.5,0.5,0.5h24.19c0.28,0,0.5-0.22,0.5-0.5v-0.11C37.51,83.61,37.29,83.39,37.01,83.39L37.01,83.39z"/>
							</g>
							<g>
								<path class="st19" d="M12.82,84.72c-0.14,0-0.25-0.11-0.25-0.25v-0.11c0-0.14,0.11-0.25,0.25-0.25h24.19
									c0.14,0,0.25,0.11,0.25,0.25v0.11c0,0.14-0.11,0.25-0.25,0.25H12.82z"/>
								<path class="st2" d="M37.01,84.36v0.11H12.82v-0.11H37.01 M37.01,83.86H12.82c-0.28,0-0.5,0.22-0.5,0.5v0.11
									c0,0.28,0.22,0.5,0.5,0.5h24.19c0.28,0,0.5-0.22,0.5-0.5v-0.11C37.51,84.08,37.29,83.86,37.01,83.86L37.01,83.86z"/>
							</g>
						</g>
					</g>
				</g>
				<line class="st0" x1="259.08" y1="62.02" x2="84.46" y2="69.79"/>
				<g>
					<path class="st20" d="M94.49,65.17c-0.35,0.61-0.75,2.02-0.41,2.79c0.56,1.22,1.06,2.03,1.72,2.03h4.29
						c0.56,0,0.91-0.59,0.65-1.08l-2.2-4.08L94.49,65.17z"/>
					<path class="st20" d="M93.6,63.84L93.6,63.84c0-0.57,0.26-1.11,0.7-1.47l5.06-4.13c0.34-0.28,0.76-0.43,1.2-0.43h3.36
						c1.05,0,1.9,0.85,1.9,1.9v3.39c0,0.5-0.2,0.99-0.56,1.34l-0.74,0.74c-0.36,0.36-0.84,0.56-1.34,0.56H95.5
						C94.45,65.74,93.6,64.89,93.6,63.84z"/>
				</g>
				<g class="st26">
					<path class="st19" d="M109.11,46.59c4.65-2.59,9.75-4.26,14.9-5.51c5.17-1.22,10.44-2.05,15.74-2.38
						c5.3-0.35,10.62-0.43,15.93-0.41c5.31,0.04,10.62-0.02,15.93,0.25c10.6,0.52,21.21,1.56,31.61,3.76
						c5.19,1.14,10.27,2.73,15.31,4.39c5,1.8,9.86,3.96,14.65,6.24c0.01,0.01,0.02,0.02,0.01,0.03c-0.01,0.01-0.02,0.02-0.03,0.01
						c-4.82-2.22-9.72-4.29-14.72-6.03c-5.03-1.63-10.12-3.19-15.3-4.3c-10.37-2.17-20.98-3.07-31.56-3.65
						c-5.29-0.29-10.6-0.26-15.91-0.33c-5.31-0.04-10.61,0-15.9,0.32c-5.29,0.31-10.55,1.09-15.72,2.26
						c-5.15,1.2-10.26,2.82-14.92,5.37c-0.01,0.01-0.03,0-0.03-0.01C109.1,46.62,109.1,46.6,109.11,46.59z"/>
				</g>
				<g class="st26">
					<path class="st19" d="M25.58,71.31c3.96-1.8,8.13-3.11,12.34-4.21c4.21-1.08,8.48-1.94,12.76-2.7
						c4.29-0.72,8.62-1.18,12.96-1.49l13-1.05c0.01,0,0.03,0.01,0.03,0.02c0,0.01-0.01,0.03-0.02,0.03l-6.48,0.74l-6.49,0.65
						c-4.33,0.39-8.64,0.85-12.91,1.6c-4.27,0.71-8.54,1.57-12.75,2.58c-2.11,0.5-4.2,1.08-6.27,1.72
						c-2.08,0.63-4.14,1.32-6.14,2.16c-0.01,0.01-0.03,0-0.03-0.01C25.56,71.33,25.57,71.31,25.58,71.31z"/>
				</g>
			</g>
		</g>
		<g>
			<g>
				<defs>
					<path id="SVGID_8_" d="M148.23,43.72c-6.76,0-16.83,0.93-24.11,3.01c-7.58,2.17-13.31,5.2-21.84,10.51
						c-4.56,2.84-8.11,5.87-11.09,8.4l53.82-2.48l4.51-19.45C149.07,43.71,148.64,43.72,148.23,43.72z"/>
				</defs>
				<clipPath id="SVGID_9_">
					<use xlink:href="#SVGID_8_"  style="overflow:visible;"/>
				</clipPath>
				<g class="st27">
					<path class="st28" d="M148.67,125.53h-3.18c-0.84,0-1.61,0.49-1.97,1.25l-1.61,3.43c-0.08,0.17-0.14,0.34-0.17,0.53l-0.02,0.09
						c-0.25,1.33,0.78,2.57,2.13,2.57h6.2c1.28,0,2.29-1.11,2.16-2.39l0,0c-0.02-0.2-0.07-0.39-0.14-0.58l-1.39-3.52
						C150.36,126.08,149.56,125.53,148.67,125.53z"/>
					<path class="st28" d="M134.97,125.53h-3.56c-0.21,0-0.42,0.05-0.61,0.14l-10.09,4.73c-0.5,0.24-0.83,0.74-0.83,1.3l0,0
						c0,0.79,0.64,1.43,1.43,1.43h13.97c0.83,0,1.49-0.7,1.43-1.53l-0.32-4.73C136.35,126.12,135.72,125.53,134.97,125.53z"/>
					<path class="st19" d="M106.41,75.81l18.6-1.74c0,0,7.06-7.64,9.54-9.84s0.16-10.39-4.24-6.71
						c-4.39,3.67-11.57,11.86-11.57,11.86l-15.49,2L106.41,75.81z"/>
					<path class="st29" d="M106.67,70.3h-5.71c-0.56,0-0.87,0.64-0.53,1.08l0,0c0.12,0.15,0.29,0.24,0.48,0.25l1.85,0.14
						c0.61,0.05,0.84,0.83,0.35,1.2l-3.09,2.34c-0.51,0.38-0.24,1.19,0.39,1.2l4.63,0.08c0.14,0,0.28-0.04,0.39-0.12l4.31-2.98
						c0.38-0.26,0.39-0.82,0.02-1.09l-2.7-1.99C106.95,70.35,106.81,70.3,106.67,70.3z"/>
					<path class="st19" d="M149.58,95.02l-17.13,39.09l-6.79-2.68l12.6-38.6l-18.47,35.72l-7.17-3.12l16.34-38.49
						c0.98-2.48,1.36-5.16,1.11-7.82l-1.63-17.03c-0.31-3.29,2.42-6.05,5.71-5.77l8.46,0.72c2.46,0.21,4.45,2.09,4.79,4.54
						l3.47,24.86C151.28,89.36,150.84,92.35,149.58,95.02z"/>
					<path class="st19" d="M106.48,76.51l20.69-0.53l16.62-11.88c4.03-3.03-0.01-8.96-4.82-5.51l-14.01,10.37l-18.55,0.8
						L106.48,76.51z"/>
					<path class="st29" d="M137.21,43.09c-2.39-0.28-5.11,5.83-6.16,8.49c2.03,0.52,2.03,0.52,2.03,0.52s-0.96,2.42,0.6,4.16
						c1.94,2.17,7.11,2.56,8.71-0.76c1.58-3.3,2.5-6.9,1.03-9.68C142.29,43.7,141.23,43.56,137.21,43.09z"/>
					<path class="st30" d="M134.4,53.75l3.82-0.45C138.22,53.3,136.83,56.11,134.4,53.75z"/>
					<path class="st31" d="M142.18,42.92c0,0-3.53-1.77-7.17-0.52s-1.14,3.52-1.14,3.52s4.46,1.88,6.96,2.19
						c0.1,4.16,0.31,4.88,0.31,4.88l2.49-3.53c1.35,0.32-1.19,5.8-1.19,5.8C148.18,52.53,147.27,44.79,142.18,42.92z"/>
					<path class="st29" d="M144.97,52.07c0.5-1.27,0.15-2.6-0.79-2.97s-0.41,1.03-0.91,2.3s-1.85,1.93-0.91,2.3
						C143.3,54.07,144.47,53.34,144.97,52.07z"/>
				</g>
			</g>
		</g>
	</g>
</g>
<g>
	<g>
		<path class="st32" d="M31.07,172.62v6.73h5.46v-8.71h3.3v8.71h5.49v-6.73h3.33v9.8h-8.81v9h6.37v-7.41h3.33v10.53H26.88v-10.53
			h3.28v7.41h6.37v-9h-8.74v-9.8H31.07z"/>
		<path class="st32" d="M65.68,182.69v11.88H55.35v-11.88H65.68z M75.82,171.38v9.46H57.82v-9.46H75.82z M58.37,185.57v6.08h4.26
			v-6.08H58.37z M60.94,174.24v3.8h11.78v-3.8H60.94z M78.21,182.69v11.88H67.47v-11.88H78.21z M70.51,185.57v6.08h4.68v-6.08H70.51
			z"/>
		<path class="st32" d="M93.73,174.86v-4.26h3.3v4.26h9.67v13.16h-9.67v7.1h-3.3v-7.1h-9.52v-13.16H93.73z M93.73,178.06h-6.24v6.79
			h6.24V178.06z M103.4,178.06h-6.37v6.79h6.37V178.06z"/>
		<path class="st32" d="M128.8,174.86v3.15h-7.49l-0.1,3.85h1.56c3.28,0,4.68-0.16,5.72-0.42l0.18,3.12
			c-1.27,0.39-2.94,0.49-5.85,0.49h-1.69c-0.08,4.58-0.1,5.46,4.6,5.46c2.68,0,5.59-0.1,5.59-4.16c0-1.98-0.6-3.64-1.38-5.36
			l3.17-0.86c0.96,1.85,1.77,3.87,1.77,6.58c0,7.05-5.64,7.15-9.26,7.15c-3.72,0-5.93-0.52-7.25-2.91c-0.65-1.2-0.81-3.04-0.75-5.9
			h-4.47v-3.2h4.55l0.05-3.85h-4.37v-3.15h4.42l0.08-3.15l3.61,0.03l-0.08,3.12H128.8z"/>
		<path class="st32" d="M151.06,174.29c-1.22,0.03-7.12,0.21-8.48,0.16l-0.55-2.7c2,0.05,5.36,0.1,10.5-0.21
			c5.25-0.31,7.8-0.83,9.15-1.12l1.3,2.86c-1.38,0.23-4.03,0.73-8.87,0.91v1.59h9.75v2.44h-2.6v2.08h3.59v2.55h-3.59v1.98h2.6v2.52
			h-7.23c1.38,1.04,3.95,2.68,8.63,3.95l-1.61,3.09c-3.59-1.22-6.92-3.15-9.54-5.85v6.58h-3.07v-6.37
			c-0.94,0.94-4.42,4.11-9.41,5.72l-1.72-3.04c1.27-0.36,5.43-1.51,8.74-4.08h-7.36v-2.52h2.55v-1.98h-3.48v-2.55h3.48v-2.08h-2.55
			v-2.44h9.75V174.29z M146.98,178.21v2.11h4.08v-2.11H146.98z M146.98,182.82v2h4.08v-2H146.98z M154.13,178.21v2.11h4.06v-2.11
			H154.13z M154.13,182.82v2h4.06v-2H154.13z"/>
		<path class="st32" d="M179.61,195.14v-3.72h-10.58v-2.86h10.58v-1.43h-8.53v-10.56h8.53v-1.35h-10.27v-2.81h10.27v-1.79h3.22v1.79
			h10.27v2.81h-10.27v1.35h8.63v10.56h-8.63v1.43h10.58v2.86h-10.58v3.72H179.61z M174.25,179.02v1.74h5.36v-1.74H174.25z
			 M174.25,182.79v1.82h5.36v-1.82H174.25z M182.83,179.02v1.74h5.46v-1.74H182.83z M182.83,182.79v1.82h5.46v-1.82H182.83z"/>
		<path class="st32" d="M218.97,192.7c0,1.56-0.83,2.39-2.65,2.39h-5.62l-0.62-3.33h4.94c0.47,0,0.7-0.31,0.7-0.83v-16.38H197.6
			v-3.15h24.34v3.15h-2.96V192.7z M212.42,189.24h-12.69v-12.43h12.69V189.24z M209.25,179.72h-6.32v6.58h6.32V179.72z"/>
		<path class="st32" d="M236.18,178.58c-0.16-0.42-0.26-0.75-0.6-1.48c-2.99,0.42-6.29,0.78-9.31,0.91l-0.26-2.81h1.64
			c0.23-0.49,1.25-2.7,1.72-4.6l3.2,0.34c-0.29,0.83-0.57,1.59-1.9,4.19c0.42-0.03,3.15-0.29,3.77-0.34
			c-0.55-1.01-0.91-1.53-1.27-2.11l2.55-1.17c1.43,2.03,2.42,3.56,3.33,5.8L236.18,178.58z M227.16,179.1h10.3v13.88
			c0,1.79-1.51,2.11-1.9,2.11h-3.43l-0.52-2.94h2.37c0.31,0,0.49-0.21,0.49-0.49v-1.72h-4.29v5.15h-3.02V179.1z M230.18,181.67v1.82
			h4.29v-1.82H230.18z M230.18,185.7v1.92h4.29v-1.92H230.18z M242.81,170.6v3.22c1.46-0.42,4.32-1.69,5.69-2.6l1.77,2.37
			c-1.85,1.12-4.78,2.18-7.46,2.86v2.13c0,0.55,0.34,0.62,0.68,0.62h3.04c0.62,0,1.04,0,1.09-2.94l3.04,0.83
			c-0.13,3.48-0.78,4.99-2.83,4.99h-5.85c-2.31,0-2.44-1.85-2.44-2.13v-9.36H242.81z M239.62,182.82h3.2v3.04
			c1.64-0.6,3.51-1.4,5.41-2.73l1.9,2.42c-2.81,1.69-6.32,2.73-7.31,3.02v2.63c0,0.36,0.13,0.78,0.73,0.78h2.94
			c0.78,0,0.91-0.21,1.12-3.41l3.07,0.81c-0.36,4.13-0.75,5.51-3.2,5.51h-5.67c-1.35,0-2.18-0.81-2.18-2.24V182.82z"/>
	</g>
</g>
</svg>
