<?xml version="1.0" encoding="utf-8"?>
<!-- Generator: Adobe Illustrator 24.0.1, SVG Export Plug-In . SVG Version: 6.00 Build 0)  -->
<svg version="1.1" id="レイヤー_1" xmlns="http://www.w3.org/2000/svg" xmlns:xlink="http://www.w3.org/1999/xlink" x="0px"
	 y="0px" viewBox="0 0 240 200" style="enable-background:new 0 0 240 200;" xml:space="preserve">
<style type="text/css">
	.st0{fill:none;}
	.st1{fill:#00395B;}
	.st2{fill:#FFFFFF;}
	.st3{fill:#535353;}
	.st4{fill:none;stroke:#D0A867;stroke-width:5;stroke-miterlimit:10;}
	.st5{fill:#FFFFFF;stroke:#D0A867;stroke-width:5;stroke-miterlimit:10;}
	.st6{fill:none;stroke:#D0A867;stroke-width:4;stroke-linecap:round;stroke-linejoin:round;stroke-miterlimit:10;}
</style>
<rect class="st0" width="240" height="200"/>
<circle class="st1" cx="27" cy="25" r="20"/>
<path class="st2" d="M20.96,30.66c0.66,0.46,2.39,1.6,5.52,1.6c3.44,0,4.56-1.83,4.56-3.36c0-1.63-1.32-2.95-4.38-2.95H24.5V22.9
	h2.01c2.54,0,3.41-1.48,3.41-2.67c0-1.78-1.6-2.52-3.03-2.52c-2.01,0-3.69,0.94-4.96,2.34l-1.27-3.16c1.78-1.6,3.92-2.47,6.31-2.47
	c3.67,0,6.49,2.16,6.49,5.52c0,2.7-1.78,3.74-2.52,4.17c1.09,0.48,3.72,1.65,3.72,5.14c0,2.88-2.16,6.29-8.17,6.29
	c-3.56,0-5.75-1.22-6.57-1.65L20.96,30.66z"/>
<path class="st3" d="M48.77,174.46l0.95-1.12c0.74,0.74,1.75,1.22,2.75,1.22c1.25,0,1.95-0.59,1.95-1.46c0-0.94-0.7-1.23-1.65-1.65
	l-1.43-0.62c-1-0.42-2.1-1.2-2.1-2.7c0-1.62,1.43-2.84,3.39-2.84c1.21,0,2.34,0.5,3.12,1.3l-0.85,1.04
	c-0.64-0.57-1.36-0.92-2.27-0.92c-1.05,0-1.74,0.5-1.74,1.32c0,0.9,0.83,1.23,1.67,1.57l1.41,0.6c1.22,0.52,2.1,1.28,2.1,2.79
	c0,1.65-1.37,3-3.63,3C51.02,175.97,49.71,175.41,48.77,174.46z"/>
<path class="st3" d="M58.71,165.47h1.62v4.22h4.41v-4.22h1.62v10.32h-1.62v-4.69h-4.41v4.69h-1.62V165.47z"/>
<path class="st3" d="M69.77,165.47h1.62v10.32h-1.62V165.47z"/>
<path class="st3" d="M74.79,165.47h6.11v1.37h-4.48v3.15h3.81v1.36h-3.81v4.44h-1.62V165.47z"/>
<path class="st3" d="M85.52,166.84h-3.03v-1.37h7.69v1.37h-3.04v8.95h-1.62V166.84z"/>
<path class="st3" d="M92.1,170.66c0-3.36,2.07-5.38,4.8-5.38c1.46,0,2.44,0.64,3.07,1.3l-0.87,1.04c-0.52-0.52-1.15-0.92-2.14-0.92
	c-1.92,0-3.19,1.48-3.19,3.91c0,2.45,1.13,3.95,3.26,3.95c0.63,0,1.26-0.18,1.62-0.5v-2.42h-2.04v-1.33h3.52v4.47
	c-0.69,0.69-1.85,1.2-3.26,1.2C94.12,175.97,92.1,174.04,92.1,170.66z"/>
<path class="st3" d="M105.23,165.47h1.88l3.42,10.32h-1.72l-0.87-2.94h-3.59l-0.88,2.94h-1.65L105.23,165.47z M104.73,171.58h2.82
	l-0.41-1.39c-0.35-1.12-0.66-2.27-0.97-3.43h-0.07c-0.29,1.18-0.62,2.31-0.95,3.43L104.73,171.58z"/>
<path class="st3" d="M114.68,166.84h-3.03v-1.37h7.69v1.37h-3.04v8.95h-1.62V166.84z"/>
<path class="st3" d="M121.82,165.47h6.09v1.37h-4.47v2.87h3.78v1.37h-3.78v3.33h4.62v1.37h-6.25V165.47z"/>
<path class="st3" d="M134.81,170.8c0.71-0.71,1.83-2.24,2.69-3.25c0.88-1.02,1.7-1.13,2.66-0.17c0.88,0.88,1.97,2.3,2.84,3.22
	c0.87,0.95,2.19,2.34,3.47,3.49l-1.13,1.3c-1.04-0.98-2.28-2.37-3.21-3.45c-0.9-1.02-1.95-2.37-2.61-3.11
	c-0.55-0.6-0.81-0.5-1.26,0.04c-0.62,0.77-1.69,2.25-2.37,3.08c-0.29,0.42-0.62,0.87-0.85,1.19l-1.32-1.36
	C134.11,171.52,134.42,171.21,134.81,170.8z"/>
<path class="st3" d="M160.27,171.08v5.79h-1.34v-0.83h-8.28v0.85h-1.32v-5.81h1.32v3.68h3.38v-4.52h-4.16v-4.89h1.3v3.63h2.86v-4.85
	h1.33v4.85h3v-3.64h1.37v4.9h-4.37v4.52h3.57v-3.68H160.27z"/>
<path class="st3" d="M163.62,170.76h5.07v6.04h-1.29v-0.63h-2.55v0.73h-1.23V170.76z M164.86,172.01v2.91h2.55v-2.91H164.86z
	 M173.43,169.4h-7.83v-4.78h7.83V169.4z M172.1,165.87h-5.25v2.28h5.25V165.87z M175.39,170.76v6.06h-1.3v-0.66h-2.77v0.73h-1.25
	v-6.13H175.39z M174.09,174.92v-2.91h-2.77v2.91H174.09z"/>
<path class="st3" d="M183.11,174.82c0-0.63,0.46-1.06,1.05-1.06c0.59,0,1.05,0.43,1.05,1.06c0,0.63-0.46,1.06-1.05,1.06
	C183.58,175.89,183.11,175.46,183.11,174.82z M183.27,167.16l-0.04-1.85h1.88l-0.04,1.85l-0.32,5.16h-1.15L183.27,167.16z"/>
<g>
	<path class="st4" d="M39.53,103.08c-5.54,4.3-6.46,17.67-5.82,20.54c0.64,2.87,7.03,5,16.13,5s121.78,0,121.78,0
		s15.49-0.77,20.14-1.94c4.65-1.16,14.71-5.23,14.71-6.78s0-8.01,0-10.49c0-2.48-1.65-3.3-2.57-5.6c-0.92-2.3,1.13-9.85-2.02-11.11
		c-3.15-1.26-11.68,0.09-22.03-4.65c-10.36-4.74-21.82-9.16-52.49-9.16S96.59,92.67,84.64,95.06
		C72.68,97.44,45.07,98.77,39.53,103.08z"/>
	<circle class="st5" cx="60.53" cy="122.55" r="13.49"/>
	<circle class="st5" cx="172.39" cy="122.55" r="13.49"/>
	<line class="st6" x1="162.56" y1="67.26" x2="162.56" y2="50.18"/>
	<line class="st6" x1="173.47" y1="69.35" x2="179.31" y2="53.3"/>
	<line class="st6" x1="181.83" y1="74.28" x2="195.35" y2="63.83"/>
</g>
</svg>
