<?xml version="1.0" encoding="utf-8"?>
<!-- Generator: Adobe Illustrator 24.0.1, SVG Export Plug-In . SVG Version: 6.00 Build 0)  -->
<svg version="1.1" id="レイヤー_1" xmlns="http://www.w3.org/2000/svg" xmlns:xlink="http://www.w3.org/1999/xlink" x="0px"
	 y="0px" viewBox="0 0 823 451" style="enable-background:new 0 0 823 451;" xml:space="preserve">
<style type="text/css">
	.st0{fill:#FFAE2D;}
	.st1{fill:#FFEDC5;}
	.st2{fill:#00395B;}
	.st3{fill:#D0A867;}
	.st4{fill:#FFFFFF;}
	.st5{fill:#FFBE6E;}
	.st6{opacity:0.15;}
	.st7{clip-path:url(#SVGID_1_);}
	.st8{fill:#FFA215;}
	.st9{fill:#A1A7B6;}
	.st10{fill:#347498;}
</style>
<g>
	<rect x="313.95" y="202.84" class="st0" width="110.17" height="220"/>
	<rect x="446.15" y="202.84" class="st0" width="110.17" height="220"/>
	<rect x="578.35" y="202.84" class="st0" width="110.17" height="220"/>
	<g>
		<rect x="314.28" y="22.84" class="st1" width="374" height="180"/>
	</g>
	<rect x="181.75" y="202.84" class="st2" width="110.17" height="220"/>
	<g>
		<rect x="181.75" y="112.84" class="st3" width="110.17" height="90"/>
		<path class="st4" d="M291.92,112.84v90H181.75v-90H291.92 M293.92,110.84h-2H181.75h-2v2v90v2h2h110.17h2v-2v-90V110.84
			L293.92,110.84z"/>
	</g>
	<rect x="710.55" y="112.84" class="st2" width="110.17" height="90"/>
	<g>
		<rect x="710.55" y="22.84" class="st3" width="110.17" height="90"/>
		<path class="st4" d="M820.72,22.84v90H710.55v-90H820.72 M822.72,20.84h-2H710.55h-2v2v90v2h2h110.17h2v-2v-90V20.84L822.72,20.84
			z"/>
	</g>
	<g>
		<g>
			<rect x="313.95" y="142.84" class="st5" width="110.17" height="60"/>
			<path class="st4" d="M424.12,142.84v60H313.95v-60H424.12 M426.12,140.84h-2H313.95h-2v2v60v2h2h110.17h2v-2v-60V140.84
				L426.12,140.84z"/>
		</g>
	</g>
	<g>
		<g>
			<rect x="446.15" y="142.84" class="st5" width="110.17" height="60"/>
			<path class="st4" d="M556.32,142.84v60H446.15v-60H556.32 M558.32,140.84h-2H446.15h-2v2v60v2h2h110.17h2v-2v-60V140.84
				L558.32,140.84z"/>
		</g>
		<g>
			<rect x="446.15" y="82.84" class="st5" width="110.17" height="60"/>
			<path class="st4" d="M556.32,82.84v60H446.15v-60H556.32 M558.32,80.84h-2H446.15h-2v2v60v2h2h110.17h2v-2v-60V80.84
				L558.32,80.84z"/>
		</g>
	</g>
	<g>
		<g>
			<rect x="578.35" y="142.84" class="st5" width="110.17" height="60"/>
			<path class="st4" d="M688.52,142.84v60H578.35v-60H688.52 M690.52,140.84h-2H578.35h-2v2v60v2h2h110.17h2v-2v-60V140.84
				L690.52,140.84z"/>
		</g>
		<g>
			<rect x="578.35" y="82.84" class="st5" width="110.17" height="60"/>
			<path class="st4" d="M688.52,82.84v60H578.35v-60H688.52 M690.52,80.84h-2H578.35h-2v2v60v2h2h110.17h2v-2v-60V80.84
				L690.52,80.84z"/>
		</g>
		<g>
			<rect x="578.35" y="22.84" class="st5" width="110.17" height="60"/>
			<path class="st4" d="M688.52,22.84v60H578.35v-60H688.52 M690.52,20.84h-2H578.35h-2v2v60v2h2h110.17h2v-2v-60V20.84
				L690.52,20.84z"/>
		</g>
	</g>
	<g class="st6">
		<defs>
			<rect id="SVGID_2_" x="313.58" y="22.84" class="st6" width="374" height="180"/>
		</defs>
		<clipPath id="SVGID_1_">
			<use xlink:href="#SVGID_2_"  style="overflow:visible;"/>
		</clipPath>
		<g class="st7">
			<g>
				<polygon class="st4" points="91.23,271.97 86.39,271.97 344.55,-46.29 349.39,-46.29 				"/>
				<path class="st4" d="M91.71,272.97h-7.42L344.07-47.29h7.42L91.71,272.97z M88.49,270.97h2.27L347.3-45.29h-2.27L88.49,270.97z"
					/>
			</g>
			<g>
				<polygon class="st4" points="106.11,271.97 101.27,271.97 359.43,-46.29 364.27,-46.29 				"/>
				<path class="st4" d="M106.59,272.97h-7.42L358.95-47.29h7.42L106.59,272.97z M103.37,270.97h2.27L362.17-45.29h-2.27
					L103.37,270.97z"/>
			</g>
			<g>
				<polygon class="st4" points="120.99,271.97 116.14,271.97 374.31,-46.29 379.15,-46.29 				"/>
				<path class="st4" d="M121.47,272.97h-7.42L373.83-47.29h7.42L121.47,272.97z M118.24,270.97h2.27L377.05-45.29h-2.27
					L118.24,270.97z"/>
			</g>
			<g>
				<polygon class="st4" points="135.87,271.97 131.02,271.97 389.18,-46.29 394.03,-46.29 				"/>
				<path class="st4" d="M136.34,272.97h-7.42L388.71-47.29h7.42L136.34,272.97z M133.12,270.97h2.27L391.93-45.29h-2.27
					L133.12,270.97z"/>
			</g>
			<g>
				<polygon class="st4" points="150.75,271.97 145.9,271.97 404.06,-46.29 408.91,-46.29 				"/>
				<path class="st4" d="M151.22,272.97h-7.42L403.59-47.29h7.42L151.22,272.97z M148,270.97h2.27L406.81-45.29h-2.27L148,270.97z"
					/>
			</g>
			<g>
				<polygon class="st4" points="165.62,271.97 160.78,271.97 418.94,-46.29 423.79,-46.29 				"/>
				<path class="st4" d="M166.1,272.97h-7.42L418.46-47.29h7.42L166.1,272.97z M162.88,270.97h2.27L421.69-45.29h-2.27
					L162.88,270.97z"/>
			</g>
			<g>
				<polygon class="st4" points="180.5,271.97 175.66,271.97 433.82,-46.29 438.66,-46.29 				"/>
				<path class="st4" d="M180.98,272.97h-7.42L433.34-47.29h7.42L180.98,272.97z M177.76,270.97h2.27L436.56-45.29h-2.27
					L177.76,270.97z"/>
			</g>
			<g>
				<polygon class="st4" points="195.38,271.97 190.54,271.97 448.7,-46.29 453.54,-46.29 				"/>
				<path class="st4" d="M195.86,272.97h-7.42L448.22-47.29h7.42L195.86,272.97z M192.63,270.97h2.27L451.44-45.29h-2.27
					L192.63,270.97z"/>
			</g>
			<g>
				<polygon class="st4" points="210.26,271.97 205.41,271.97 463.57,-46.29 468.42,-46.29 				"/>
				<path class="st4" d="M210.74,272.97h-7.42L463.1-47.29h7.42L210.74,272.97z M207.51,270.97h2.27L466.32-45.29h-2.27
					L207.51,270.97z"/>
			</g>
			<g>
				<polygon class="st4" points="225.14,271.97 220.29,271.97 478.45,-46.29 483.3,-46.29 				"/>
				<path class="st4" d="M225.61,272.97h-7.42L477.98-47.29h7.42L225.61,272.97z M222.39,270.97h2.27L481.2-45.29h-2.27
					L222.39,270.97z"/>
			</g>
			<g>
				<polygon class="st4" points="240.02,271.97 235.17,271.97 493.33,-46.29 498.18,-46.29 				"/>
				<path class="st4" d="M240.49,272.97h-7.42L492.85-47.29h7.42L240.49,272.97z M237.27,270.97h2.27L496.08-45.29h-2.27
					L237.27,270.97z"/>
			</g>
			<g>
				<polygon class="st4" points="254.89,271.97 250.05,271.97 508.21,-46.29 513.05,-46.29 				"/>
				<path class="st4" d="M255.37,272.97h-7.42L507.73-47.29h7.42L255.37,272.97z M252.15,270.97h2.27L510.96-45.29h-2.27
					L252.15,270.97z"/>
			</g>
			<g>
				<polygon class="st4" points="269.77,271.97 264.93,271.97 523.09,-46.29 527.93,-46.29 				"/>
				<path class="st4" d="M270.25,272.97h-7.42L522.61-47.29h7.42L270.25,272.97z M267.02,270.97h2.27L525.83-45.29h-2.27
					L267.02,270.97z"/>
			</g>
			<g>
				<polygon class="st4" points="284.65,271.97 279.8,271.97 537.97,-46.29 542.81,-46.29 				"/>
				<path class="st4" d="M285.13,272.97h-7.42L537.49-47.29h7.42L285.13,272.97z M281.9,270.97h2.27L540.71-45.29h-2.27
					L281.9,270.97z"/>
			</g>
			<g>
				<polygon class="st4" points="299.53,271.97 294.68,271.97 552.84,-46.29 557.69,-46.29 				"/>
				<path class="st4" d="M300,272.97h-7.42L552.37-47.29h7.42L300,272.97z M296.78,270.97h2.27L555.59-45.29h-2.27L296.78,270.97z"
					/>
			</g>
			<g>
				<polygon class="st4" points="314.41,271.97 309.56,271.97 567.72,-46.29 572.57,-46.29 				"/>
				<path class="st4" d="M314.88,272.97h-7.42L567.24-47.29h7.42L314.88,272.97z M311.66,270.97h2.27L570.47-45.29h-2.27
					L311.66,270.97z"/>
			</g>
			<g>
				<polygon class="st4" points="329.28,271.97 324.44,271.97 582.6,-46.29 587.44,-46.29 				"/>
				<path class="st4" d="M329.76,272.97h-7.42L582.12-47.29h7.42L329.76,272.97z M326.54,270.97h2.27L585.35-45.29h-2.27
					L326.54,270.97z"/>
			</g>
			<g>
				<polygon class="st4" points="344.16,271.97 339.32,271.97 597.48,-46.29 602.32,-46.29 				"/>
				<path class="st4" d="M344.64,272.97h-7.42L597-47.29h7.42L344.64,272.97z M341.42,270.97h2.27L600.22-45.29h-2.27L341.42,270.97
					z"/>
			</g>
			<g>
				<polygon class="st4" points="359.04,271.97 354.2,271.97 612.36,-46.29 617.2,-46.29 				"/>
				<path class="st4" d="M359.52,272.97h-7.42L611.88-47.29h7.42L359.52,272.97z M356.29,270.97h2.27L615.1-45.29h-2.27
					L356.29,270.97z"/>
			</g>
			<g>
				<polygon class="st4" points="373.92,271.97 369.07,271.97 627.23,-46.29 632.08,-46.29 				"/>
				<path class="st4" d="M374.4,272.97h-7.42L626.76-47.29h7.42L374.4,272.97z M371.17,270.97h2.27L629.98-45.29h-2.27
					L371.17,270.97z"/>
			</g>
			<g>
				<polygon class="st4" points="388.8,271.97 383.95,271.97 642.11,-46.29 646.96,-46.29 				"/>
				<path class="st4" d="M389.27,272.97h-7.42L641.64-47.29h7.42L389.27,272.97z M386.05,270.97h2.27L644.86-45.29h-2.27
					L386.05,270.97z"/>
			</g>
			<g>
				<polygon class="st4" points="403.67,271.97 398.83,271.97 656.99,-46.29 661.84,-46.29 				"/>
				<path class="st4" d="M404.15,272.97h-7.42L656.51-47.29h7.42L404.15,272.97z M400.93,270.97h2.27L659.74-45.29h-2.27
					L400.93,270.97z"/>
			</g>
			<g>
				<polygon class="st4" points="418.55,271.97 413.71,271.97 671.87,-46.29 676.71,-46.29 				"/>
				<path class="st4" d="M419.03,272.97h-7.42L671.39-47.29h7.42L419.03,272.97z M415.81,270.97h2.27L674.61-45.29h-2.27
					L415.81,270.97z"/>
			</g>
			<g>
				<polygon class="st4" points="433.43,271.97 428.59,271.97 686.75,-46.29 691.59,-46.29 				"/>
				<path class="st4" d="M433.91,272.97h-7.42L686.27-47.29h7.42L433.91,272.97z M430.69,270.97h2.27L689.49-45.29h-2.27
					L430.69,270.97z"/>
			</g>
			<g>
				<polygon class="st4" points="448.31,271.97 443.46,271.97 701.63,-46.29 706.47,-46.29 				"/>
				<path class="st4" d="M448.79,272.97h-7.42L701.15-47.29h7.42L448.79,272.97z M445.56,270.97h2.27L704.37-45.29h-2.27
					L445.56,270.97z"/>
			</g>
			<g>
				<polygon class="st4" points="463.19,271.97 458.34,271.97 716.5,-46.29 721.35,-46.29 				"/>
				<path class="st4" d="M463.66,272.97h-7.42L716.03-47.29h7.42L463.66,272.97z M460.44,270.97h2.27L719.25-45.29h-2.27
					L460.44,270.97z"/>
			</g>
			<g>
				<polygon class="st4" points="478.07,271.97 473.22,271.97 731.38,-46.29 736.23,-46.29 				"/>
				<path class="st4" d="M478.54,272.97h-7.42L730.9-47.29h7.42L478.54,272.97z M475.32,270.97h2.27L734.13-45.29h-2.27
					L475.32,270.97z"/>
			</g>
			<g>
				<polygon class="st4" points="492.94,271.97 488.1,271.97 746.26,-46.29 751.1,-46.29 				"/>
				<path class="st4" d="M493.42,272.97H486L745.78-47.29h7.42L493.42,272.97z M490.2,270.97h2.27L749.01-45.29h-2.27L490.2,270.97z
					"/>
			</g>
			<g>
				<polygon class="st4" points="507.82,271.97 502.98,271.97 761.14,-46.29 765.98,-46.29 				"/>
				<path class="st4" d="M508.3,272.97h-7.42L760.66-47.29h7.42L508.3,272.97z M505.08,270.97h2.27L763.88-45.29h-2.27
					L505.08,270.97z"/>
			</g>
			<g>
				<polygon class="st4" points="522.7,271.97 517.86,271.97 776.02,-46.29 780.86,-46.29 				"/>
				<path class="st4" d="M523.18,272.97h-7.42L775.54-47.29h7.42L523.18,272.97z M519.95,270.97h2.27L778.76-45.29h-2.27
					L519.95,270.97z"/>
			</g>
			<g>
				<polygon class="st4" points="537.58,271.97 532.73,271.97 790.89,-46.29 795.74,-46.29 				"/>
				<path class="st4" d="M538.06,272.97h-7.42L790.42-47.29h7.42L538.06,272.97z M534.83,270.97h2.27L793.64-45.29h-2.27
					L534.83,270.97z"/>
			</g>
			<g>
				<polygon class="st4" points="552.46,271.97 547.61,271.97 805.77,-46.29 810.62,-46.29 				"/>
				<path class="st4" d="M552.93,272.97h-7.42L805.3-47.29h7.42L552.93,272.97z M549.71,270.97h2.27L808.52-45.29h-2.27
					L549.71,270.97z"/>
			</g>
			<g>
				<polygon class="st4" points="567.33,271.97 562.49,271.97 820.65,-46.29 825.5,-46.29 				"/>
				<path class="st4" d="M567.81,272.97h-7.42L820.17-47.29h7.42L567.81,272.97z M564.59,270.97h2.27L823.4-45.29h-2.27
					L564.59,270.97z"/>
			</g>
			<g>
				<polygon class="st4" points="582.21,271.97 577.37,271.97 835.53,-46.29 840.37,-46.29 				"/>
				<path class="st4" d="M582.69,272.97h-7.42L835.05-47.29h7.42L582.69,272.97z M579.47,270.97h2.27L838.27-45.29h-2.27
					L579.47,270.97z"/>
			</g>
			<g>
				<polygon class="st4" points="597.09,271.97 592.25,271.97 850.41,-46.29 855.25,-46.29 				"/>
				<path class="st4" d="M597.57,272.97h-7.42L849.93-47.29h7.42L597.57,272.97z M594.34,270.97h2.27L853.15-45.29h-2.27
					L594.34,270.97z"/>
			</g>
			<g>
				<polygon class="st4" points="611.97,271.97 607.12,271.97 865.28,-46.29 870.13,-46.29 				"/>
				<path class="st4" d="M612.45,272.97h-7.42L864.81-47.29h7.42L612.45,272.97z M609.22,270.97h2.27L868.03-45.29h-2.27
					L609.22,270.97z"/>
			</g>
			<g>
				<polygon class="st4" points="626.85,271.97 622,271.97 880.16,-46.29 885.01,-46.29 				"/>
				<path class="st4" d="M627.32,272.97h-7.42L879.69-47.29h7.42L627.32,272.97z M624.1,270.97h2.27L882.91-45.29h-2.27
					L624.1,270.97z"/>
			</g>
			<g>
				<polygon class="st4" points="641.73,271.97 636.88,271.97 895.04,-46.29 899.89,-46.29 				"/>
				<path class="st4" d="M642.2,272.97h-7.42L894.57-47.29h7.42L642.2,272.97z M638.98,270.97h2.27L897.79-45.29h-2.27
					L638.98,270.97z"/>
			</g>
			<g>
				<polygon class="st4" points="656.6,271.97 651.76,271.97 909.92,-46.29 914.76,-46.29 				"/>
				<path class="st4" d="M657.08,272.97h-7.42L909.44-47.29h7.42L657.08,272.97z M653.86,270.97h2.27L912.67-45.29h-2.27
					L653.86,270.97z"/>
			</g>
		</g>
	</g>
	<path class="st4" d="M461.35,71.84H332.2c-3.27,0-5.93-2.65-5.93-5.93V40.77c0-3.27,2.65-5.93,5.93-5.93h129.15
		c3.27,0,5.93,2.65,5.93,5.93v25.15C467.28,69.19,464.62,71.84,461.35,71.84z"/>
	<g>
		<g>
			<path class="st8" d="M353.71,57.3c1.53,0.94,3.62,1.64,5.71,1.96c-0.49,0.47-1.12,1.37-1.44,1.94c-2.21-0.56-4.39-1.64-6.05-3.04
				v3.24h-2.11v-3.13c-1.67,1.31-3.89,2.36-6.03,2.92c-0.31-0.52-0.92-1.35-1.37-1.78c2.02-0.42,4.14-1.17,5.69-2.11h-5.17v-1.76
				h6.88v-0.79h-5.19V53.2h5.19v-0.81h-6.09v-1.67h3.42c-0.14-0.45-0.38-0.99-0.61-1.4l0.22-0.04H343v-1.75h2.41
				c-0.25-0.68-0.72-1.55-1.12-2.23l1.84-0.63c0.52,0.77,1.12,1.84,1.37,2.54l-0.88,0.32h1.64v-2.94h2v2.94h1.33v-2.94h2.02v2.94
				h1.6l-0.65-0.2c0.43-0.74,0.88-1.82,1.13-2.61l2.25,0.54c-0.5,0.83-0.99,1.64-1.4,2.27h2.34v1.75h-3.38
				c-0.29,0.52-0.58,1.01-0.85,1.44h3.53v1.67h-6.25v0.81h5.4v1.55h-5.4v0.79h7v1.76H353.71z M348.82,49.27
				c0.25,0.47,0.49,1.01,0.61,1.39l-0.31,0.05h3.37c0.22-0.43,0.43-0.95,0.63-1.44H348.82z"/>
			<path class="st8" d="M371.84,51.92c-0.7,0.5-1.39,0.97-2.12,1.44h6.55v8h-2.25v-0.47h-6.19v0.54h-2.14v-5.89
				c-0.9,0.4-1.84,0.79-2.75,1.13c-0.25-0.47-0.9-1.33-1.3-1.76c2.36-0.74,4.61-1.76,6.68-2.99h-6.12v-1.89h5.78v-1.64h-4.23v-1.85
				h4.23v-1.95h2.12v1.95H374v0.88c0.68-0.74,1.3-1.49,1.85-2.29l1.84,0.94c-1.03,1.42-2.23,2.75-3.55,3.96h4.18v1.89H371.84z
				 M374.02,55.1h-6.19v1.15h6.19V55.1z M374.02,59.1v-1.22h-6.19v1.22H374.02z M370.09,50.03h0.99c0.68-0.52,1.33-1.06,1.94-1.64
				h-2.93V50.03z"/>
			<path class="st8" d="M397.15,49.25c-1.3,2.11-3.6,4.99-6.14,7.04c1.03,1.03,2.09,2.2,2.79,3.04l-2.11,1.67
				c-0.76-1.01-2.27-2.7-3.44-3.89c-1.04-1.06-2.88-2.68-3.96-3.46l1.91-1.53c0.72,0.54,1.91,1.51,3.04,2.5
				c2.03-1.62,3.73-3.71,4.57-5.19h-9.52c-0.72,0-1.69,0.09-2.07,0.13v-2.52c0.47,0.07,1.46,0.16,2.07,0.16h9.99
				c0.68,0,1.3-0.07,1.67-0.2l1.8,1.48C397.51,48.78,397.29,49.02,397.15,49.25z"/>
			<path class="st8" d="M404.51,51.61h9.67c0.85,0,1.64-0.07,2.11-0.11v2.83c-0.43-0.02-1.35-0.09-2.11-0.09h-9.67
				c-1.03,0-2.23,0.04-2.9,0.09V51.5C402.26,51.56,403.57,51.61,404.51,51.61z"/>
			<path class="st8" d="M425.96,52.31l-1.31,2.02c-1.03-0.72-2.9-1.93-4.11-2.57l1.3-1.98C423.07,50.42,425.05,51.67,425.96,52.31z
				 M427.4,56.42c3.06-1.71,5.58-4.18,7-6.75l1.39,2.45c-1.66,2.5-4.21,4.77-7.15,6.48c-1.84,1.03-4.43,1.93-6.01,2.21l-1.35-2.36
				C423.3,58.11,425.46,57.5,427.4,56.42z M428.72,48.24l-1.33,1.98c-1.01-0.7-2.88-1.91-4.07-2.57l1.3-1.98
				C425.8,46.32,427.78,47.58,428.72,48.24z M434.08,48.8l-1.57,0.67c-0.52-1.13-0.94-1.91-1.58-2.83l1.51-0.63
				C432.95,46.77,433.67,47.97,434.08,48.8z M436.61,47.83l-1.53,0.68c-0.58-1.13-1.03-1.84-1.69-2.74l1.53-0.63
				C435.47,45.87,436.17,47.04,436.61,47.83z"/>
			<path class="st8" d="M447.64,55.79c3.08-1.82,5.42-4.57,6.55-7l1.4,2.54c-1.37,2.43-3.76,4.92-6.66,6.66
				c-1.82,1.1-4.14,2.11-6.68,2.54l-1.51-2.38C443.55,57.75,445.89,56.83,447.64,55.79z M447.64,49.97l-1.84,1.87
				c-0.94-1.01-3.19-2.97-4.5-3.89l1.69-1.8C444.25,47,446.59,48.88,447.64,49.97z"/>
		</g>
	</g>
	<g>
		<path class="st8" d="M819.19,24.34h-2c-0.55,0-1-0.45-1-1s0.45-1,1-1h2c0.55,0,1,0.45,1,1S819.74,24.34,819.19,24.34z"/>
		<path class="st8" d="M809.15,24.34h-4.02c-0.55,0-1-0.45-1-1s0.45-1,1-1h4.02c0.55,0,1,0.45,1,1S809.7,24.34,809.15,24.34z
			 M797.09,24.34h-4.02c-0.55,0-1-0.45-1-1s0.45-1,1-1h4.02c0.55,0,1,0.45,1,1S797.64,24.34,797.09,24.34z M785.03,24.34h-4.02
			c-0.55,0-1-0.45-1-1s0.45-1,1-1h4.02c0.55,0,1,0.45,1,1S785.59,24.34,785.03,24.34z M772.98,24.34h-4.02c-0.55,0-1-0.45-1-1
			s0.45-1,1-1h4.02c0.55,0,1,0.45,1,1S773.53,24.34,772.98,24.34z M760.92,24.34h-4.02c-0.55,0-1-0.45-1-1s0.45-1,1-1h4.02
			c0.55,0,1,0.45,1,1S761.47,24.34,760.92,24.34z M748.86,24.34h-4.02c-0.55,0-1-0.45-1-1s0.45-1,1-1h4.02c0.55,0,1,0.45,1,1
			S749.41,24.34,748.86,24.34z M736.81,24.34h-4.02c-0.55,0-1-0.45-1-1s0.45-1,1-1h4.02c0.55,0,1,0.45,1,1
			S737.36,24.34,736.81,24.34z M724.75,24.34h-4.02c-0.55,0-1-0.45-1-1s0.45-1,1-1h4.02c0.55,0,1,0.45,1,1S725.3,24.34,724.75,24.34
			z M712.69,24.34h-4.02c-0.55,0-1-0.45-1-1s0.45-1,1-1h4.02c0.55,0,1,0.45,1,1S713.24,24.34,712.69,24.34z M700.63,24.34h-4.02
			c-0.55,0-1-0.45-1-1s0.45-1,1-1h4.02c0.55,0,1,0.45,1,1S701.19,24.34,700.63,24.34z M688.58,24.34h-4.02c-0.55,0-1-0.45-1-1
			s0.45-1,1-1h4.02c0.55,0,1,0.45,1,1S689.13,24.34,688.58,24.34z M676.52,24.34h-4.02c-0.55,0-1-0.45-1-1s0.45-1,1-1h4.02
			c0.55,0,1,0.45,1,1S677.07,24.34,676.52,24.34z M664.46,24.34h-4.02c-0.55,0-1-0.45-1-1s0.45-1,1-1h4.02c0.55,0,1,0.45,1,1
			S665.02,24.34,664.46,24.34z M652.41,24.34h-4.02c-0.55,0-1-0.45-1-1s0.45-1,1-1h4.02c0.55,0,1,0.45,1,1
			S652.96,24.34,652.41,24.34z M640.35,24.34h-4.02c-0.55,0-1-0.45-1-1s0.45-1,1-1h4.02c0.55,0,1,0.45,1,1S640.9,24.34,640.35,24.34
			z M628.29,24.34h-4.02c-0.55,0-1-0.45-1-1s0.45-1,1-1h4.02c0.55,0,1,0.45,1,1S628.85,24.34,628.29,24.34z M616.24,24.34h-4.02
			c-0.55,0-1-0.45-1-1s0.45-1,1-1h4.02c0.55,0,1,0.45,1,1S616.79,24.34,616.24,24.34z M604.18,24.34h-4.02c-0.55,0-1-0.45-1-1
			s0.45-1,1-1h4.02c0.55,0,1,0.45,1,1S604.73,24.34,604.18,24.34z M592.12,24.34h-4.02c-0.55,0-1-0.45-1-1s0.45-1,1-1h4.02
			c0.55,0,1,0.45,1,1S592.67,24.34,592.12,24.34z M580.07,24.34h-4.02c-0.55,0-1-0.45-1-1s0.45-1,1-1h4.02c0.55,0,1,0.45,1,1
			S580.62,24.34,580.07,24.34z M568.01,24.34h-4.02c-0.55,0-1-0.45-1-1s0.45-1,1-1h4.02c0.55,0,1,0.45,1,1
			S568.56,24.34,568.01,24.34z M555.95,24.34h-4.02c-0.55,0-1-0.45-1-1s0.45-1,1-1h4.02c0.55,0,1,0.45,1,1S556.5,24.34,555.95,24.34
			z M543.89,24.34h-4.02c-0.55,0-1-0.45-1-1s0.45-1,1-1h4.02c0.55,0,1,0.45,1,1S544.45,24.34,543.89,24.34z M531.84,24.34h-4.02
			c-0.55,0-1-0.45-1-1s0.45-1,1-1h4.02c0.55,0,1,0.45,1,1S532.39,24.34,531.84,24.34z M519.78,24.34h-4.02c-0.55,0-1-0.45-1-1
			s0.45-1,1-1h4.02c0.55,0,1,0.45,1,1S520.33,24.34,519.78,24.34z M507.72,24.34h-4.02c-0.55,0-1-0.45-1-1s0.45-1,1-1h4.02
			c0.55,0,1,0.45,1,1S508.28,24.34,507.72,24.34z M495.67,24.34h-4.02c-0.55,0-1-0.45-1-1s0.45-1,1-1h4.02c0.55,0,1,0.45,1,1
			S496.22,24.34,495.67,24.34z M483.61,24.34h-4.02c-0.55,0-1-0.45-1-1s0.45-1,1-1h4.02c0.55,0,1,0.45,1,1
			S484.16,24.34,483.61,24.34z M471.55,24.34h-4.02c-0.55,0-1-0.45-1-1s0.45-1,1-1h4.02c0.55,0,1,0.45,1,1
			S472.11,24.34,471.55,24.34z M459.5,24.34h-4.02c-0.55,0-1-0.45-1-1s0.45-1,1-1h4.02c0.55,0,1,0.45,1,1S460.05,24.34,459.5,24.34z
			 M447.44,24.34h-4.02c-0.55,0-1-0.45-1-1s0.45-1,1-1h4.02c0.55,0,1,0.45,1,1S447.99,24.34,447.44,24.34z M435.38,24.34h-4.02
			c-0.55,0-1-0.45-1-1s0.45-1,1-1h4.02c0.55,0,1,0.45,1,1S435.93,24.34,435.38,24.34z M423.32,24.34h-4.02c-0.55,0-1-0.45-1-1
			s0.45-1,1-1h4.02c0.55,0,1,0.45,1,1S423.88,24.34,423.32,24.34z M411.27,24.34h-4.02c-0.55,0-1-0.45-1-1s0.45-1,1-1h4.02
			c0.55,0,1,0.45,1,1S411.82,24.34,411.27,24.34z M399.21,24.34h-4.02c-0.55,0-1-0.45-1-1s0.45-1,1-1h4.02c0.55,0,1,0.45,1,1
			S399.76,24.34,399.21,24.34z M387.15,24.34h-4.02c-0.55,0-1-0.45-1-1s0.45-1,1-1h4.02c0.55,0,1,0.45,1,1
			S387.71,24.34,387.15,24.34z M375.1,24.34h-4.02c-0.55,0-1-0.45-1-1s0.45-1,1-1h4.02c0.55,0,1,0.45,1,1S375.65,24.34,375.1,24.34z
			 M363.04,24.34h-4.02c-0.55,0-1-0.45-1-1s0.45-1,1-1h4.02c0.55,0,1,0.45,1,1S363.59,24.34,363.04,24.34z M350.98,24.34h-4.02
			c-0.55,0-1-0.45-1-1s0.45-1,1-1h4.02c0.55,0,1,0.45,1,1S351.54,24.34,350.98,24.34z M338.93,24.34h-4.02c-0.55,0-1-0.45-1-1
			s0.45-1,1-1h4.02c0.55,0,1,0.45,1,1S339.48,24.34,338.93,24.34z M326.87,24.34h-4.02c-0.55,0-1-0.45-1-1s0.45-1,1-1h4.02
			c0.55,0,1,0.45,1,1S327.42,24.34,326.87,24.34z M314.81,24.34h-4.02c-0.55,0-1-0.45-1-1s0.45-1,1-1h4.02c0.55,0,1,0.45,1,1
			S315.36,24.34,314.81,24.34z M302.75,24.34h-4.02c-0.55,0-1-0.45-1-1s0.45-1,1-1h4.02c0.55,0,1,0.45,1,1
			S303.31,24.34,302.75,24.34z M290.7,24.34h-4.02c-0.55,0-1-0.45-1-1s0.45-1,1-1h4.02c0.55,0,1,0.45,1,1S291.25,24.34,290.7,24.34z
			 M278.64,24.34h-4.02c-0.55,0-1-0.45-1-1s0.45-1,1-1h4.02c0.55,0,1,0.45,1,1S279.19,24.34,278.64,24.34z M266.58,24.34h-4.02
			c-0.55,0-1-0.45-1-1s0.45-1,1-1h4.02c0.55,0,1,0.45,1,1S267.14,24.34,266.58,24.34z M254.53,24.34h-4.02c-0.55,0-1-0.45-1-1
			s0.45-1,1-1h4.02c0.55,0,1,0.45,1,1S255.08,24.34,254.53,24.34z M242.47,24.34h-4.02c-0.55,0-1-0.45-1-1s0.45-1,1-1h4.02
			c0.55,0,1,0.45,1,1S243.02,24.34,242.47,24.34z M230.41,24.34h-4.02c-0.55,0-1-0.45-1-1s0.45-1,1-1h4.02c0.55,0,1,0.45,1,1
			S230.97,24.34,230.41,24.34z M218.36,24.34h-4.02c-0.55,0-1-0.45-1-1s0.45-1,1-1h4.02c0.55,0,1,0.45,1,1
			S218.91,24.34,218.36,24.34z M206.3,24.34h-4.02c-0.55,0-1-0.45-1-1s0.45-1,1-1h4.02c0.55,0,1,0.45,1,1S206.85,24.34,206.3,24.34z
			 M194.24,24.34h-4.02c-0.55,0-1-0.45-1-1s0.45-1,1-1h4.02c0.55,0,1,0.45,1,1S194.79,24.34,194.24,24.34z"/>
		<path class="st8" d="M182.19,24.34h-2c-0.55,0-1-0.45-1-1s0.45-1,1-1h2c0.55,0,1,0.45,1,1S182.74,24.34,182.19,24.34z"/>
	</g>
	<g>
		<path class="st2" d="M819.19,115.34h-4c-0.83,0-1.5-0.67-1.5-1.5s0.67-1.5,1.5-1.5h4c0.83,0,1.5,0.67,1.5,1.5
			S820.01,115.34,819.19,115.34z"/>
		<path class="st2" d="M805.11,115.34h-8.06c-0.83,0-1.5-0.67-1.5-1.5s0.67-1.5,1.5-1.5h8.06c0.83,0,1.5,0.67,1.5,1.5
			S805.94,115.34,805.11,115.34z M786.98,115.34h-8.06c-0.83,0-1.5-0.67-1.5-1.5s0.67-1.5,1.5-1.5h8.06c0.83,0,1.5,0.67,1.5,1.5
			S787.81,115.34,786.98,115.34z M768.84,115.34h-8.06c-0.83,0-1.5-0.67-1.5-1.5s0.67-1.5,1.5-1.5h8.06c0.83,0,1.5,0.67,1.5,1.5
			S769.67,115.34,768.84,115.34z M750.71,115.34h-8.06c-0.83,0-1.5-0.67-1.5-1.5s0.67-1.5,1.5-1.5h8.06c0.83,0,1.5,0.67,1.5,1.5
			S751.54,115.34,750.71,115.34z M732.58,115.34h-8.06c-0.83,0-1.5-0.67-1.5-1.5s0.67-1.5,1.5-1.5h8.06c0.83,0,1.5,0.67,1.5,1.5
			S733.4,115.34,732.58,115.34z M714.44,115.34h-8.06c-0.83,0-1.5-0.67-1.5-1.5s0.67-1.5,1.5-1.5h8.06c0.83,0,1.5,0.67,1.5,1.5
			S715.27,115.34,714.44,115.34z M696.31,115.34h-8.06c-0.83,0-1.5-0.67-1.5-1.5s0.67-1.5,1.5-1.5h8.06c0.83,0,1.5,0.67,1.5,1.5
			S697.14,115.34,696.31,115.34z M678.18,115.34h-8.06c-0.83,0-1.5-0.67-1.5-1.5s0.67-1.5,1.5-1.5h8.06c0.83,0,1.5,0.67,1.5,1.5
			S679,115.34,678.18,115.34z M660.04,115.34h-8.06c-0.83,0-1.5-0.67-1.5-1.5s0.67-1.5,1.5-1.5h8.06c0.83,0,1.5,0.67,1.5,1.5
			S660.87,115.34,660.04,115.34z M641.91,115.34h-8.06c-0.83,0-1.5-0.67-1.5-1.5s0.67-1.5,1.5-1.5h8.06c0.83,0,1.5,0.67,1.5,1.5
			S642.74,115.34,641.91,115.34z M623.78,115.34h-8.06c-0.83,0-1.5-0.67-1.5-1.5s0.67-1.5,1.5-1.5h8.06c0.83,0,1.5,0.67,1.5,1.5
			S624.6,115.34,623.78,115.34z M605.64,115.34h-8.06c-0.83,0-1.5-0.67-1.5-1.5s0.67-1.5,1.5-1.5h8.06c0.83,0,1.5,0.67,1.5,1.5
			S606.47,115.34,605.64,115.34z M587.51,115.34h-8.06c-0.83,0-1.5-0.67-1.5-1.5s0.67-1.5,1.5-1.5h8.06c0.83,0,1.5,0.67,1.5,1.5
			S588.34,115.34,587.51,115.34z M569.37,115.34h-8.06c-0.83,0-1.5-0.67-1.5-1.5s0.67-1.5,1.5-1.5h8.06c0.83,0,1.5,0.67,1.5,1.5
			S570.2,115.34,569.37,115.34z M551.24,115.34h-8.06c-0.83,0-1.5-0.67-1.5-1.5s0.67-1.5,1.5-1.5h8.06c0.83,0,1.5,0.67,1.5,1.5
			S552.07,115.34,551.24,115.34z M533.11,115.34h-8.06c-0.83,0-1.5-0.67-1.5-1.5s0.67-1.5,1.5-1.5h8.06c0.83,0,1.5,0.67,1.5,1.5
			S533.94,115.34,533.11,115.34z M514.97,115.34h-8.06c-0.83,0-1.5-0.67-1.5-1.5s0.67-1.5,1.5-1.5h8.06c0.83,0,1.5,0.67,1.5,1.5
			S515.8,115.34,514.97,115.34z M496.84,115.34h-8.06c-0.83,0-1.5-0.67-1.5-1.5s0.67-1.5,1.5-1.5h8.06c0.83,0,1.5,0.67,1.5,1.5
			S497.67,115.34,496.84,115.34z M478.71,115.34h-8.06c-0.83,0-1.5-0.67-1.5-1.5s0.67-1.5,1.5-1.5h8.06c0.83,0,1.5,0.67,1.5,1.5
			S479.54,115.34,478.71,115.34z M460.57,115.34h-8.06c-0.83,0-1.5-0.67-1.5-1.5s0.67-1.5,1.5-1.5h8.06c0.83,0,1.5,0.67,1.5,1.5
			S461.4,115.34,460.57,115.34z M442.44,115.34h-8.06c-0.83,0-1.5-0.67-1.5-1.5s0.67-1.5,1.5-1.5h8.06c0.83,0,1.5,0.67,1.5,1.5
			S443.27,115.34,442.44,115.34z M424.31,115.34h-8.06c-0.83,0-1.5-0.67-1.5-1.5s0.67-1.5,1.5-1.5h8.06c0.83,0,1.5,0.67,1.5,1.5
			S425.14,115.34,424.31,115.34z M406.17,115.34h-8.06c-0.83,0-1.5-0.67-1.5-1.5s0.67-1.5,1.5-1.5h8.06c0.83,0,1.5,0.67,1.5,1.5
			S407,115.34,406.17,115.34z M388.04,115.34h-8.06c-0.83,0-1.5-0.67-1.5-1.5s0.67-1.5,1.5-1.5h8.06c0.83,0,1.5,0.67,1.5,1.5
			S388.87,115.34,388.04,115.34z M369.91,115.34h-8.06c-0.83,0-1.5-0.67-1.5-1.5s0.67-1.5,1.5-1.5h8.06c0.83,0,1.5,0.67,1.5,1.5
			S370.73,115.34,369.91,115.34z M351.77,115.34h-8.06c-0.83,0-1.5-0.67-1.5-1.5s0.67-1.5,1.5-1.5h8.06c0.83,0,1.5,0.67,1.5,1.5
			S352.6,115.34,351.77,115.34z M333.64,115.34h-8.06c-0.83,0-1.5-0.67-1.5-1.5s0.67-1.5,1.5-1.5h8.06c0.83,0,1.5,0.67,1.5,1.5
			S334.47,115.34,333.64,115.34z M315.51,115.34h-8.06c-0.83,0-1.5-0.67-1.5-1.5s0.67-1.5,1.5-1.5h8.06c0.83,0,1.5,0.67,1.5,1.5
			S316.33,115.34,315.51,115.34z M297.37,115.34h-8.06c-0.83,0-1.5-0.67-1.5-1.5s0.67-1.5,1.5-1.5h8.06c0.83,0,1.5,0.67,1.5,1.5
			S298.2,115.34,297.37,115.34z M279.24,115.34h-8.06c-0.83,0-1.5-0.67-1.5-1.5s0.67-1.5,1.5-1.5h8.06c0.83,0,1.5,0.67,1.5,1.5
			S280.07,115.34,279.24,115.34z M261.1,115.34h-8.06c-0.83,0-1.5-0.67-1.5-1.5s0.67-1.5,1.5-1.5h8.06c0.83,0,1.5,0.67,1.5,1.5
			S261.93,115.34,261.1,115.34z M242.97,115.34h-8.06c-0.83,0-1.5-0.67-1.5-1.5s0.67-1.5,1.5-1.5h8.06c0.83,0,1.5,0.67,1.5,1.5
			S243.8,115.34,242.97,115.34z M224.84,115.34h-8.06c-0.83,0-1.5-0.67-1.5-1.5s0.67-1.5,1.5-1.5h8.06c0.83,0,1.5,0.67,1.5,1.5
			S225.67,115.34,224.84,115.34z M206.7,115.34h-8.06c-0.83,0-1.5-0.67-1.5-1.5s0.67-1.5,1.5-1.5h8.06c0.83,0,1.5,0.67,1.5,1.5
			S207.53,115.34,206.7,115.34z"/>
		<path class="st2" d="M188.57,115.34h-4c-0.83,0-1.5-0.67-1.5-1.5s0.67-1.5,1.5-1.5h4c0.83,0,1.5,0.67,1.5,1.5
			S189.4,115.34,188.57,115.34z"/>
	</g>
	<rect x="710.55" y="202.84" class="st2" width="110.17" height="220"/>
	<g>
		<path class="st2" d="M192.46,442.78c-0.32,4.02-1.2,6.56-6.66,7.86c-0.22-0.62-0.82-1.56-1.3-2.06c4.74-0.92,5.24-2.72,5.48-5.8
			H192.46z M192.51,435.66h-7.48v-2.16h7.48v-1.58h2.46v1.58h7.68v2.16h-7.68v1.3h5.84v2.08h-13.88v-2.08h5.58V435.66z M200,444.28
			v-2.12h-12.4v2.12h-2.3v-4.26h17.1v4.26H200z M200.12,448.2c0.66,0,0.78-0.34,0.86-2.38c0.48,0.38,1.5,0.74,2.14,0.9
			c-0.26,2.88-0.88,3.62-2.76,3.62h-2.58c-2.32,0-2.9-0.68-2.9-2.82v-4.74h2.4v4.72c0,0.62,0.12,0.7,0.84,0.7H200.12z"/>
		<path class="st2" d="M211.75,436.94c0.96-1.56,2.7-3.24,4.96-3.24c2.78,0,4.94,2.72,4.94,7.12c0,5.66-3.46,8.36-8.76,9.32
			l-1.52-2.32c4.44-0.68,7.58-2.14,7.58-6.98c0-3.08-1.04-4.8-2.72-4.8c-2.36,0-4.42,3.54-4.52,6.18c-0.04,0.54-0.02,1.18,0.1,2.12
			l-2.46,0.16c-0.12-0.78-0.26-2-0.26-3.34c0-1.86,0.28-4.34,0.56-6.4c0.1-0.76,0.16-1.56,0.16-2.1l2.74,0.12
			C212.27,433.76,211.87,435.82,211.75,436.94z"/>
		<path class="st2" d="M235.9,434.76c-0.04,0.22-0.1,0.48-0.16,0.76c1.12-0.16,2.24-0.38,3.34-0.64v2.5c-1.2,0.28-2.56,0.5-3.9,0.66
			c-0.18,0.86-0.38,1.74-0.6,2.56c-0.72,2.8-2.06,6.88-3.18,9.26l-2.78-0.94c1.2-2,2.72-6.2,3.46-9c0.14-0.54,0.3-1.1,0.42-1.68
			c-0.46,0.02-0.9,0.04-1.32,0.04c-0.96,0-1.72-0.04-2.42-0.08l-0.06-2.5c1.02,0.12,1.7,0.16,2.52,0.16c0.58,0,1.18-0.02,1.8-0.06
			c0.08-0.44,0.14-0.82,0.18-1.14c0.08-0.74,0.12-1.56,0.06-2.02l3.06,0.24C236.15,433.42,235.98,434.32,235.9,434.76z
			 M238.3,445.62c0,0.88,0.6,1.54,2.74,1.54c1.34,0,2.72-0.16,4.16-0.42l-0.1,2.56c-1.12,0.14-2.48,0.28-4.08,0.28
			c-3.36,0-5.18-1.16-5.18-3.18c0-0.92,0.2-1.88,0.36-2.68l2.38,0.24C238.42,444.52,238.3,445.18,238.3,445.62z M241.34,438.72
			c1.14,0,2.34,0.06,3.52,0.18l-0.06,2.4c-1-0.12-2.22-0.24-3.44-0.24c-1.36,0-2.6,0.06-3.86,0.2v-2.34
			C238.62,438.82,240.06,438.72,241.34,438.72z"/>
		<path class="st2" d="M253.29,436.98c-0.02,1.3,0,2.8,0.12,4.24c0.28,2.88,0.88,4.86,2.14,4.86c0.94,0,1.74-2.34,2.12-3.94l2,2.44
			c-1.32,3.48-2.58,4.7-4.18,4.7c-2.2,0-4.1-1.98-4.66-7.34c-0.2-1.84-0.22-4.18-0.22-5.4c0-0.56-0.04-1.42-0.16-2.04l3.08,0.04
			C253.39,435.26,253.29,436.42,253.29,436.98z M267.18,445.36l-2.62,1.02c-0.32-3.22-1.38-8.08-3.56-10.56l2.54-0.82
			C265.44,437.3,266.96,442.3,267.18,445.36z"/>
		<path class="st2" d="M280.9,432.36c-0.02,0.32-0.04,0.72-0.06,1.14c0.16,2.76,1.16,11.38,8.62,14.88
			c-0.74,0.56-1.46,1.38-1.84,2.02c-4.52-2.24-6.76-6.36-7.88-10.04c-1.08,3.6-3.18,7.46-7.4,10.04c-0.42-0.62-1.2-1.34-2-1.9
			c7.98-4.42,7.7-13.5,7.84-16.14H280.9z"/>
	</g>
	<g>
		<path class="st8" d="M343.16,447.4c1.91,0.61,3.98,1.4,5.24,1.96l-2.32,1.06c-1.12-0.59-3.1-1.42-5.06-2.09l1.46-0.94h-5.02
			l1.57,0.7c-1.51,0.99-3.87,1.85-5.74,2.38c-0.36-0.43-1.13-1.21-1.58-1.57c1.76-0.32,3.73-0.9,5.01-1.51h-2.77v-7.9h12.3v7.9
			H343.16z M347.18,438.76h-14.22v-4.43h14.22V438.76z M337.1,435.93h-2.16v1.24h2.16V435.93z M336.09,441.73h7.89v-0.88h-7.89
			V441.73z M336.09,443.89h7.89v-0.9h-7.89V443.89z M336.09,446.05h7.89v-0.9h-7.89V446.05z M341.06,435.93h-2.18v1.24h2.18V435.93z
			 M345.11,435.93h-2.27v1.24h2.27V435.93z"/>
		<path class="st8" d="M367.37,436.16c-0.38,3.92-1.24,7.02-2.59,9.43c0.88,1.21,1.96,2.21,3.26,2.92c-0.49,0.4-1.15,1.21-1.48,1.76
			c-1.22-0.74-2.23-1.66-3.1-2.75c-0.92,1.12-1.98,2.02-3.21,2.75c-0.27-0.47-0.76-1.13-1.19-1.57v1.69H357v-2.88
			c-2.07,0.36-4.18,0.68-5.83,0.94l-0.41-2.14c0.49-0.05,1.04-0.11,1.66-0.18v-9.56h-1.22v-1.98h9.04v1.28h5.38l0.36-0.05
			L367.37,436.16z M354.45,436.58v1.71H357v-1.71H354.45z M354.45,442.02H357v-1.8h-2.56V442.02z M354.45,445.89
			c0.83-0.11,1.69-0.23,2.56-0.34v-1.62h-2.56V445.89z M359.07,448.43c1.19-0.67,2.23-1.64,3.11-2.86c-1.1-2-1.87-4.41-2.43-7.13
			l2.05-0.41c0.36,1.93,0.9,3.75,1.66,5.33c0.7-1.55,1.24-3.35,1.55-5.37h-5.31v-1.4h-0.63V448.43z"/>
		<path class="st8" d="M381.52,446.3c1.53,0.94,3.62,1.64,5.71,1.96c-0.49,0.47-1.12,1.37-1.44,1.94c-2.21-0.56-4.39-1.64-6.05-3.04
			v3.24h-2.11v-3.13c-1.67,1.31-3.89,2.36-6.03,2.92c-0.31-0.52-0.92-1.35-1.37-1.78c2.02-0.42,4.14-1.17,5.69-2.11h-5.17v-1.76
			h6.88v-0.79h-5.19v-1.55h5.19v-0.81h-6.09v-1.67h3.42c-0.14-0.45-0.38-0.99-0.61-1.4l0.22-0.04h-3.76v-1.75h2.41
			c-0.25-0.68-0.72-1.55-1.12-2.23l1.84-0.63c0.52,0.77,1.12,1.84,1.37,2.54l-0.88,0.32h1.64v-2.94h2v2.94h1.33v-2.94h2.02v2.94h1.6
			l-0.65-0.2c0.43-0.74,0.88-1.82,1.13-2.61l2.25,0.54c-0.5,0.83-0.99,1.64-1.4,2.27h2.34v1.75h-3.38
			c-0.29,0.52-0.58,1.01-0.85,1.44h3.53v1.67h-6.25v0.81h5.4v1.55h-5.4v0.79h7v1.76H381.52z M376.62,438.27
			c0.25,0.47,0.49,1.01,0.61,1.39l-0.31,0.05h3.37c0.22-0.43,0.43-0.95,0.63-1.44H376.62z"/>
		<path class="st8" d="M399.65,440.92c-0.7,0.5-1.39,0.97-2.12,1.44h6.55v8h-2.25v-0.47h-6.19v0.54h-2.14v-5.89
			c-0.9,0.4-1.84,0.79-2.75,1.13c-0.25-0.47-0.9-1.33-1.3-1.76c2.36-0.74,4.61-1.76,6.68-2.99H390v-1.89h5.78v-1.64h-4.23v-1.85
			h4.23v-1.95h2.12v1.95h3.91v0.88c0.68-0.74,1.3-1.49,1.85-2.29l1.84,0.94c-1.03,1.42-2.23,2.75-3.55,3.96h4.18v1.89H399.65z
			 M401.82,444.1h-6.19v1.15h6.19V444.1z M401.82,448.1v-1.22h-6.19v1.22H401.82z M397.9,439.03h0.99c0.68-0.52,1.33-1.06,1.94-1.64
			h-2.93V439.03z"/>
	</g>
	<g>
		<path class="st8" d="M456.07,436.24c0,0.4,0.02,0.83,0.02,1.3h2.25c0.59,0,1.44-0.07,1.87-0.14v2.39
			c-0.58-0.02-1.26-0.05-1.75-0.05h-2.32c0.05,2.63,0.13,5.64,0.16,8.07c0.02,1.15-0.65,1.82-2.02,1.82c-1.1,0-2.11-0.04-3.13-0.11
			l-0.2-2.34c0.81,0.14,1.78,0.22,2.39,0.22c0.45,0,0.63-0.23,0.63-0.76c0-1.21,0-3.01-0.04-4.86c-1.58,2.07-4.5,4.57-7.35,6.09
			l-1.66-1.87c3.51-1.66,6.48-4.2,7.92-6.25h-4.92c-0.65,0-1.42,0.04-2.05,0.07v-2.39c0.52,0.07,1.39,0.13,2,0.13h5.96
			c-0.02-0.47-0.04-0.9-0.05-1.3c-0.05-0.77-0.11-1.35-0.18-1.82h2.56C456.1,434.98,456.07,435.68,456.07,436.24z"/>
		<path class="st8" d="M467.77,440.61h9.67c0.85,0,1.64-0.07,2.11-0.11v2.83c-0.43-0.02-1.35-0.09-2.11-0.09h-9.67
			c-1.03,0-2.23,0.04-2.9,0.09v-2.83C465.52,440.56,466.83,440.61,467.77,440.61z"/>
		<path class="st8" d="M491.78,436.63c-0.02,0.04-0.04,0.05-0.05,0.09h3.62c0.56,0,1.15-0.09,1.57-0.22l1.84,1.13
			c-0.2,0.34-0.45,0.85-0.59,1.3c-0.49,1.6-1.51,4-3.13,6.01c-1.71,2.09-3.89,3.74-7.27,5.08l-2.12-1.91
			c3.69-1.1,5.69-2.66,7.26-4.45c1.22-1.4,2.27-3.56,2.56-4.92h-5.06c-1.21,1.57-2.77,3.15-4.54,4.36l-2.02-1.49
			c3.15-1.93,4.72-4.25,5.62-5.8c0.27-0.45,0.65-1.28,0.81-1.89l2.63,0.86C492.46,435.43,492,436.24,491.78,436.63z"/>
		<path class="st8" d="M508.81,441.22l-1.31,2.02c-1.03-0.7-2.9-1.93-4.1-2.56l1.31-2C505.91,439.33,507.89,440.58,508.81,441.22z
			 M510.27,445.35c3.06-1.71,5.56-4.18,7-6.75l1.39,2.45c-1.67,2.48-4.21,4.77-7.17,6.46c-1.84,1.04-4.41,1.94-6.01,2.23l-1.35-2.38
			C506.14,447.02,508.3,446.43,510.27,445.35z M511.58,437.15l-1.35,2c-1.01-0.7-2.88-1.93-4.07-2.59l1.31-1.98
			C508.66,435.23,510.64,436.51,511.58,437.15z"/>
		<path class="st8" d="M527.33,438.76h6.81c0.43,0,1.1-0.02,1.39-0.04c-0.02,0.23-0.02,0.83-0.02,1.21v9.04
			c0,0.29,0.02,0.9,0.02,1.22h-2.27c0.02-0.16,0.02-0.45,0.02-0.72h-6.82c-0.5,0-1.24,0.04-1.55,0.05v-2.21
			c0.31,0.04,0.92,0.07,1.57,0.07h6.81v-2.4h-5.74c-0.68,0-1.55,0.02-1.96,0.04v-2.12c0.47,0.04,1.28,0.05,1.96,0.05h5.74v-2.18
			h-5.94c-0.67,0-1.8,0.04-2.23,0.07v-2.18C525.56,438.72,526.66,438.76,527.33,438.76z"/>
		<path class="st8" d="M549.6,444.79c3.08-1.82,5.42-4.57,6.55-7l1.4,2.54c-1.37,2.43-3.76,4.92-6.66,6.66
			c-1.82,1.1-4.14,2.11-6.68,2.54l-1.51-2.38C545.51,446.75,547.85,445.83,549.6,444.79z M549.6,438.97l-1.84,1.87
			c-0.94-1.01-3.19-2.97-4.5-3.89l1.69-1.8C546.21,436,548.55,437.87,549.6,438.97z"/>
	</g>
	<g>
		<path class="st8" d="M611.83,436.7v8.98h-2.25v-0.9h-4.07v5.62h-2.27v-5.62h-4.05v0.99h-2.16v-9.08h6.21v-3.12h2.27v3.12H611.83z
			 M603.24,442.68v-3.87h-4.05v3.87H603.24z M609.58,442.68v-3.87h-4.07v3.87H609.58z"/>
		<path class="st8" d="M624.94,438.74v3.22h5.2v8.37h-2.34v-0.77h-8.14v0.85h-2.25v-8.44h5.19v-3.22h-7v-2.09h7v-3.06h2.34v3.06
			h7.02v2.09H624.94z M627.8,444h-8.14v3.53h8.14V444z"/>
		<path class="st8" d="M651.32,447.99h-7.18v2.43h-2.2v-2.43h-6.97v-1.93h6.97v-0.97h-5.19v-7.22h5.19v-0.86h-6.54v-1.95h6.54v-1.46
			h2.2v1.46h6.66v1.95h-6.66v0.86h5.31v7.22h-5.31v0.97h7.18V447.99z M638.81,440.68h3.13v-1.1h-3.13V440.68z M641.94,443.38v-1.1
			h-3.13v1.1H641.94z M644.14,439.58v1.1h3.15v-1.1H644.14z M647.29,442.29h-3.15v1.1h3.15V442.29z"/>
		<path class="st8" d="M670.69,435.68v2.04h-13.05v2.5c0,2.9-0.27,7.35-1.89,10.16c-0.4-0.36-1.35-0.97-1.85-1.21
			c1.48-2.58,1.6-6.36,1.6-8.95v-4.54h6.41v-2.07h2.23v2.07H670.69z M664.84,439.67h5.62v1.89h-5.62v1.96h4.55v6.86h-2.2v-0.65
			h-6.39v0.67h-2.09v-6.88h3.94v-5.55h2.18V439.67z M667.2,445.42h-6.39v2.45h6.39V445.42z"/>
	</g>
	<g>
		<path class="st2" d="M726.14,447.24c2.12,0.68,4.42,1.56,5.82,2.18l-2.58,1.18c-1.24-0.66-3.44-1.58-5.62-2.32l1.62-1.04h-5.58
			l1.74,0.78c-1.68,1.1-4.3,2.06-6.38,2.64c-0.4-0.48-1.26-1.34-1.76-1.74c1.96-0.36,4.14-1,5.56-1.68h-3.08v-8.78h13.66v8.78
			H726.14z M730.6,437.64h-15.8v-4.92h15.8V437.64z M719.4,434.5H717v1.38h2.4V434.5z M718.28,440.94h8.76v-0.98h-8.76V440.94z
			 M718.28,443.34h8.76v-1h-8.76V443.34z M718.28,445.74h8.76v-1h-8.76V445.74z M723.8,434.5h-2.42v1.38h2.42V434.5z M728.3,434.5
			h-2.52v1.38h2.52V434.5z"/>
		<path class="st2" d="M739.1,436.98c-0.02,1.3,0,2.8,0.12,4.24c0.28,2.88,0.88,4.86,2.14,4.86c0.94,0,1.74-2.34,2.12-3.94l2,2.44
			c-1.32,3.48-2.58,4.7-4.18,4.7c-2.2,0-4.1-1.98-4.66-7.34c-0.2-1.84-0.22-4.18-0.22-5.4c0-0.56-0.04-1.42-0.16-2.04l3.08,0.04
			C739.2,435.26,739.1,436.42,739.1,436.98z M752.98,445.36l-2.62,1.02c-0.32-3.22-1.38-8.08-3.56-10.56l2.54-0.82
			C751.24,437.3,752.76,442.3,752.98,445.36z"/>
		<path class="st2" d="M764.7,434.76c-0.04,0.22-0.1,0.48-0.16,0.76c1.12-0.16,2.24-0.38,3.34-0.64v2.5c-1.2,0.28-2.56,0.5-3.9,0.66
			c-0.18,0.86-0.38,1.74-0.6,2.56c-0.72,2.8-2.06,6.88-3.18,9.26l-2.78-0.94c1.2-2,2.72-6.2,3.46-9c0.14-0.54,0.3-1.1,0.42-1.68
			c-0.46,0.02-0.9,0.04-1.32,0.04c-0.96,0-1.72-0.04-2.42-0.08l-0.06-2.5c1.02,0.12,1.7,0.16,2.52,0.16c0.58,0,1.18-0.02,1.8-0.06
			c0.08-0.44,0.14-0.82,0.18-1.14c0.08-0.74,0.12-1.56,0.06-2.02l3.06,0.24C764.96,433.42,764.78,434.32,764.7,434.76z
			 M767.1,445.62c0,0.88,0.6,1.54,2.74,1.54c1.34,0,2.72-0.16,4.16-0.42l-0.1,2.56c-1.12,0.14-2.48,0.28-4.08,0.28
			c-3.36,0-5.18-1.16-5.18-3.18c0-0.92,0.2-1.88,0.36-2.68l2.38,0.24C767.22,444.52,767.1,445.18,767.1,445.62z M770.14,438.72
			c1.14,0,2.34,0.06,3.52,0.18l-0.06,2.4c-1-0.12-2.22-0.24-3.44-0.24c-1.36,0-2.6,0.06-3.86,0.2v-2.34
			C767.42,438.82,768.86,438.72,770.14,438.72z"/>
		<path class="st2" d="M782.1,436.98c-0.02,1.3,0,2.8,0.12,4.24c0.28,2.88,0.88,4.86,2.14,4.86c0.94,0,1.74-2.34,2.12-3.94l2,2.44
			c-1.32,3.48-2.58,4.7-4.18,4.7c-2.2,0-4.1-1.98-4.66-7.34c-0.2-1.84-0.22-4.18-0.22-5.4c0-0.56-0.04-1.42-0.16-2.04l3.08,0.04
			C782.2,435.26,782.1,436.42,782.1,436.98z M795.98,445.36l-2.62,1.02c-0.32-3.22-1.38-8.08-3.56-10.56l2.54-0.82
			C794.24,437.3,795.76,442.3,795.98,445.36z"/>
		<path class="st2" d="M809.7,432.36c-0.02,0.32-0.04,0.72-0.06,1.14c0.16,2.76,1.16,11.38,8.62,14.88
			c-0.74,0.56-1.46,1.38-1.84,2.02c-4.52-2.24-6.76-6.36-7.88-10.04c-1.08,3.6-3.18,7.46-7.4,10.04c-0.42-0.62-1.2-1.34-2-1.9
			c7.98-4.42,7.7-13.5,7.84-16.14H809.7z"/>
	</g>
	<g>
		<polygon class="st4" points="631.34,295.84 343.74,295.84 371.22,244.84 658.74,244.84 		"/>
	</g>
	<g>
		<path class="st8" d="M411.13,264.01v10.98h-2.75v-1.1h-4.97v6.87h-2.77v-6.87h-4.95v1.21h-2.64v-11.09h7.59v-3.81h2.77v3.81
			H411.13z M400.63,271.31v-4.73h-4.95v4.73H400.63z M408.38,271.31v-4.73h-4.97v4.73H408.38z"/>
		<path class="st8" d="M419.09,268.98v11.77h-2.6v-19.71h8.43v7.94H419.09z M419.09,262.93v1.17h3.39v-1.17H419.09z M422.48,267.11
			v-1.25h-3.39v1.25H422.48z M435.07,277.65c0,1.41-0.29,2.18-1.17,2.6c-0.86,0.44-2.13,0.51-4.03,0.51
			c-0.07-0.55-0.31-1.36-0.57-2.05h-5.46v1.12h-2.38v-9.51h1.08v-0.02l7.39,0.02v7.79c0.86,0.02,1.67,0.02,1.96,0
			c0.4,0,0.53-0.13,0.53-0.48v-8.6h-5.98v-7.99h8.63V277.65z M427.47,272.24h-3.63v1.32h3.63V272.24z M427.47,276.79v-1.36h-3.63
			v1.36H427.47z M428.93,262.93v1.17h3.5v-1.17H428.93z M432.42,267.16v-1.3h-3.5v1.3H432.42z"/>
		<path class="st8" d="M444.52,263.35h11.09c0.64,0,1.56-0.02,1.94-0.04c-0.02,0.51-0.07,1.39-0.07,2.02v11.4
			c0,0.77,0.04,1.94,0.09,2.6h-3.19c0.02-0.35,0.02-0.73,0.02-1.14h-10.03c-0.86,0-2.11,0.07-2.84,0.13v-3.15
			c0.77,0.07,1.76,0.13,2.75,0.13h10.14v-9.11h-9.88c-0.92,0-2.11,0.04-2.73,0.09v-3.06C442.63,263.31,443.77,263.35,444.52,263.35z
			"/>
		<path class="st8" d="M479.59,265.29c-0.75,1.72-1.98,4.07-3.46,6.05c2.18,1.89,4.84,4.71,6.14,6.29l-2.51,2.18
			c-1.43-1.98-3.48-4.22-5.54-6.23c-2.33,2.46-5.26,4.75-8.27,6.18l-2.27-2.38c3.54-1.32,6.95-4,9.02-6.32
			c1.45-1.65,2.79-3.83,3.28-5.39h-7.46c-0.92,0-2.13,0.13-2.6,0.15v-3.12c0.59,0.09,1.94,0.15,2.6,0.15h7.77
			c0.95,0,1.83-0.13,2.27-0.29l1.8,1.34C480.19,264.16,479.79,264.85,479.59,265.29z"/>
		<path class="st8" d="M492.57,264.08c0-0.77-0.07-1.87-0.22-2.64h3.43c-0.09,0.77-0.2,1.74-0.2,2.64v3.26
			c2.95,0.86,7.17,2.42,9.2,3.41l-1.25,3.04c-2.27-1.19-5.57-2.46-7.94-3.28v6.23c0,0.64,0.11,2.18,0.2,3.08h-3.43
			c0.13-0.88,0.22-2.2,0.22-3.08V264.08z"/>
		<path class="st8" d="M519.46,263.39c2.09-0.11,4.29-0.31,6.23-0.64l-0.02,2.55c-2.09,0.31-4.8,0.48-7.17,0.55
			c-0.37,0.81-0.81,1.61-1.25,2.24c0.57-0.26,1.76-0.44,2.49-0.44c1.34,0,2.44,0.57,2.93,1.69c1.14-0.53,2.07-0.9,2.97-1.3
			c0.86-0.37,1.63-0.73,2.44-1.14l1.1,2.55c-0.7,0.2-1.87,0.64-2.62,0.92c-0.99,0.4-2.24,0.88-3.59,1.5
			c0.02,1.23,0.07,2.86,0.09,3.87h-2.64c0.07-0.66,0.09-1.72,0.11-2.68c-1.65,0.95-2.53,1.8-2.53,2.9c0,1.21,1.03,1.54,3.19,1.54
			c1.87,0,4.31-0.24,6.25-0.62l-0.09,2.84c-1.45,0.2-4.16,0.37-6.23,0.37c-3.45,0-6.01-0.84-6.01-3.67c0-2.82,2.64-4.58,5.15-5.88
			c-0.33-0.55-0.92-0.75-1.54-0.75c-1.23,0-2.6,0.7-3.43,1.52c-0.66,0.66-1.3,1.45-2.05,2.42l-2.35-1.76
			c2.31-2.13,3.87-4.09,4.86-6.07c-0.11,0-0.2,0-0.29,0c-0.9,0-2.51-0.04-3.72-0.13v-2.57c1.12,0.18,2.75,0.26,3.87,0.26
			c0.33,0,0.7,0,1.06,0c0.24-0.88,0.4-1.74,0.44-2.53l2.9,0.24C519.9,261.74,519.74,262.47,519.46,263.39z"/>
		<path class="st8" d="M544.54,263.15c-0.02,0.68-0.04,1.34-0.09,1.98h4.14c0.55,0,1.12-0.07,1.65-0.15l1.91,0.92
			c-0.07,0.35-0.15,0.92-0.15,1.17c-0.09,2.38-0.35,8.51-1.3,10.76c-0.48,1.12-1.32,1.69-2.84,1.69c-1.25,0-2.57-0.09-3.63-0.18
			l-0.35-2.95c1.08,0.2,2.22,0.31,3.08,0.31c0.7,0,1.01-0.24,1.25-0.77c0.64-1.39,0.92-5.79,0.92-8.16h-4.95
			c-0.81,5.81-2.9,9.26-6.84,12.06l-2.55-2.07c0.9-0.51,2-1.25,2.88-2.16c2.05-2.02,3.15-4.49,3.63-7.83h-2.9
			c-0.75,0-1.96,0-2.9,0.09v-2.88c0.92,0.09,2.07,0.15,2.9,0.15h3.15c0.02-0.62,0.04-1.25,0.04-1.91c0-0.48-0.07-1.5-0.15-2.02h3.23
			C544.6,261.7,544.56,262.62,544.54,263.15z"/>
		<path class="st8" d="M564.67,271.95l-2.68,1.01c-0.37-1.19-1.47-4.11-2-5.08l2.64-0.95C563.17,268.06,564.23,270.72,564.67,271.95
			z M575.32,268.98c-0.57,2.22-1.5,4.51-2.99,6.45c-2.05,2.64-4.8,4.49-7.37,5.46l-2.31-2.35c2.42-0.64,5.48-2.31,7.3-4.6
			c1.5-1.87,2.55-4.8,2.82-7.55l3.08,0.99C575.58,268.08,575.45,268.54,575.32,268.98z M569.53,270.59l-2.64,0.92
			c-0.26-1.08-1.23-3.74-1.78-4.88l2.62-0.86C568.14,266.72,569.22,269.58,569.53,270.59z"/>
		<path class="st8" d="M587.17,264.08c0-0.77-0.07-1.87-0.22-2.64h3.43c-0.09,0.77-0.2,1.74-0.2,2.64v3.26
			c2.95,0.86,7.17,2.42,9.2,3.41l-1.25,3.04c-2.27-1.19-5.57-2.46-7.94-3.28v6.23c0,0.64,0.11,2.18,0.2,3.08h-3.43
			c0.13-0.88,0.22-2.2,0.22-3.08V264.08z"/>
		<path class="st8" d="M611.48,277.03c0-1.21,0.86-2.11,2-2.11s2.02,0.9,2.02,2.11c0,1.19-0.88,2.11-2.02,2.11
			S611.48,278.22,611.48,277.03z M611.96,265.18l-0.11-3.06h3.26l-0.11,3.06l-0.46,8.12h-2.11L611.96,265.18z"/>
	</g>
	<g>
		<g>
			<rect x="3.28" y="3.34" class="st8" width="150.93" height="40"/>
			<path class="st8" d="M154.21,46.34H3.28c-1.66,0-3-1.34-3-3v-40c0-1.66,1.34-3,3-3h150.93c1.66,0,3,1.34,3,3v40
				C157.21,45,155.86,46.34,154.21,46.34z M6.28,40.34h144.93v-34H6.28V40.34z"/>
		</g>
		<g>
			<polygon class="st8" points="174.74,23.34 154.21,3.34 154.21,43.34 			"/>
			<path class="st8" d="M154.21,46.34c-0.39,0-0.79-0.08-1.17-0.24c-1.11-0.47-1.83-1.56-1.83-2.76v-40c0-1.21,0.72-2.29,1.83-2.76
				c1.11-0.47,2.4-0.23,3.26,0.61l20.54,20c0.58,0.56,0.91,1.34,0.91,2.15s-0.33,1.58-0.91,2.15l-20.54,20
				C155.73,46.05,154.97,46.34,154.21,46.34z M157.21,10.45v25.78l13.24-12.89L157.21,10.45z"/>
		</g>
		<rect x="3.28" y="3.34" class="st4" width="150.93" height="40"/>
		<polygon class="st4" points="174.74,23.34 154.21,3.34 154.21,43.34 		"/>
		<g>
			<path class="st8" d="M49.21,19.36v2.1h6.3v6.76c0,1.14-0.24,1.82-1.06,2.18c-0.84,0.36-1.98,0.4-3.54,0.4
				c-0.1-0.68-0.46-1.7-0.8-2.34c1,0.04,2.18,0.04,2.5,0.04c0.32,0,0.42-0.1,0.42-0.32v-4.4h-3.82v9.44h-2.48v-9.44h-3.5v7.02h-2.4
				v-9.34h5.9v-2.1h-7.78v-2.32h7.76v-2.6h2.54v2.6h7.94v2.32H49.21z"/>
			<path class="st8" d="M70.91,24.54c-0.16,0.32-0.36,0.64-0.56,0.96h8.12c0,0-0.02,0.54-0.04,0.82c-0.28,3.9-0.6,5.5-1.14,6.08
				c-0.38,0.46-0.82,0.62-1.32,0.68c-0.46,0.06-1.22,0.08-2.02,0.04c-0.04-0.56-0.24-1.36-0.54-1.86c0.64,0.06,1.16,0.06,1.42,0.06
				c0.28,0,0.44-0.04,0.6-0.22c0.28-0.3,0.52-1.32,0.74-3.74h-0.78c-0.82,2.24-2.38,4.66-4,5.92c-0.4-0.46-1.08-1-1.68-1.32
				c1.52-0.96,2.86-2.74,3.72-4.6h-1.18c-1.08,1.92-2.94,3.92-4.68,5.02c-0.38-0.46-1-1.06-1.56-1.4c1.48-0.74,3.02-2.14,4.08-3.62
				h-1.18c-0.74,0.78-1.52,1.44-2.34,1.96c-0.3-0.38-1.06-1.08-1.56-1.4c-1.44,0.72-2.88,1.44-4.1,2.04l-0.88-2.4
				c0.68-0.26,1.52-0.6,2.46-0.98v-5.64h-2V18.7h2v-3.94h2.2v3.94h1.88v2.24h-1.88v4.72l1.6-0.7l0.42,1.7
				c0.72-0.62,1.34-1.34,1.84-2.12h-2.26v-2h12.58v2H70.91z M77.51,21.78h-9.46v-6.76h9.46V21.78z M75.31,16.66h-5.16v0.96h5.16
				V16.66z M75.31,19.18h-5.16v0.96h5.16V19.18z"/>
			<path class="st8" d="M87.81,15.24c-0.5,1.32-1.12,2.66-1.8,3.94v14h-2.24V22.74c-0.4,0.54-0.8,1.04-1.22,1.48
				c-0.22-0.56-0.84-1.82-1.22-2.4c1.72-1.74,3.36-4.5,4.34-7.26L87.81,15.24z M96.59,18.6v2.5h3.38v11.54h-2.28v-1.02h-7.92v1.14
				h-2.2V21.1h3.22v-2.5h-3.42v-2.12h12.7v2.12H96.59z M89.77,29.58h1.24v-6.42h-1.24V29.58z M93.01,23.16v6.42h1.34v-6.42H93.01z
				 M94.35,18.6h-1.32v2.5h1.32V18.6z M97.69,23.16h-1.34v6.42h1.34V23.16z"/>
			<path class="st8" d="M120.69,17.24c-0.68,2.08-1.72,3.84-3.04,5.32c1.26,0.96,2.78,1.74,4.52,2.22c-0.48,0.46-1.14,1.4-1.44,1.98
				l-0.36-0.14v6.52h-2.3V32.5h-4.18v0.7h-2.22v-6.4c-0.34,0.16-0.68,0.3-1.02,0.42c-0.22-0.46-0.64-1.1-1.02-1.58l-0.18,0.26
				c-0.24-0.5-0.66-1.24-1.1-1.94v9.22h-2.24V25.6c-0.56,1.6-1.24,3.08-2,4.1c-0.22-0.66-0.74-1.58-1.1-2.16
				c1.22-1.58,2.36-4.34,2.92-6.72h-2.44v-2.2h2.62v-4.1h2.24v4.1h2.24v1.08c1.42-1.38,2.66-3.28,3.38-5.2l2.26,0.62
				c-0.2,0.5-0.42,1-0.66,1.5h3.22l0.4-0.08L120.69,17.24z M110.05,25.06c1.6-0.6,3.12-1.44,4.42-2.52c-0.56-0.64-1.06-1.3-1.5-1.96
				c-0.48,0.58-0.98,1.1-1.48,1.54c-0.3-0.32-0.92-0.88-1.44-1.3h-1.7v0.48c0.54,0.58,2.04,2.36,2.38,2.82L110.05,25.06z
				 M118.47,25.74c-0.88-0.48-1.68-1.04-2.4-1.64c-0.72,0.62-1.48,1.16-2.3,1.64H118.47z M118.07,30.46v-2.72h-4.18v2.72H118.07z
				 M114.41,18.64l-0.14,0.2c0.46,0.76,1.02,1.52,1.72,2.24c0.66-0.74,1.24-1.56,1.7-2.44H114.41z"/>
		</g>
	</g>
	<g>
		<g>
			<rect x="3.73" y="83.64" class="st2" width="150.11" height="59.7"/>
			<path class="st2" d="M153.84,145.84H3.73c-1.38,0-2.5-1.12-2.5-2.5v-59.7c0-1.38,1.12-2.5,2.5-2.5h150.11
				c1.38,0,2.5,1.12,2.5,2.5v59.7C156.34,144.72,155.22,145.84,153.84,145.84z M6.23,140.84h145.11v-54.7H6.23V140.84z"/>
		</g>
		<g>
			<polygon class="st2" points="179.75,113.49 153.84,83.64 153.84,143.34 			"/>
			<path class="st2" d="M153.84,145.84c-0.29,0-0.59-0.05-0.87-0.16c-0.98-0.36-1.63-1.3-1.63-2.34v-59.7
				c0-1.04,0.65-1.98,1.63-2.34c0.98-0.37,2.08-0.09,2.76,0.7l25.91,29.85c0.82,0.94,0.82,2.34,0,3.28l-25.91,29.85
				C155.24,145.54,154.55,145.84,153.84,145.84z M156.34,90.33v46.31l20.1-23.16L156.34,90.33z"/>
		</g>
		<rect x="3.73" y="83.64" class="st2" width="150.11" height="59.7"/>
		<polygon class="st2" points="179.75,113.49 153.84,83.64 153.84,143.34 		"/>
		<g>
			<path class="st4" d="M27.99,100.42l-1.39,2.13c-1.08-0.74-3.06-2.03-4.33-2.7l1.39-2.11C24.93,98.43,27.02,99.74,27.99,100.42z
				 M29.53,104.77c3.23-1.8,5.87-4.41,7.39-7.12l1.46,2.58c-1.77,2.62-4.45,5.03-7.56,6.82c-1.94,1.1-4.65,2.05-6.35,2.36
				l-1.42-2.51C25.18,106.54,27.46,105.91,29.53,104.77z M30.92,96.13l-1.42,2.11c-1.06-0.74-3.04-2.03-4.29-2.74l1.39-2.09
				C27.84,94.1,29.93,95.45,30.92,96.13z"/>
			<path class="st4" d="M57.61,97.14c-0.44,1.86-1.27,4.81-2.85,6.92c-1.73,2.28-4.26,4.16-7.64,5.24l-2.07-2.26
				c3.76-0.89,5.91-2.55,7.45-4.46c1.25-1.58,1.98-3.74,2.22-5.36h-8.85c-0.85,0-1.77,0.04-2.26,0.08v-2.68
				c0.57,0.06,1.65,0.15,2.28,0.15h8.78c0.38,0,0.99-0.02,1.5-0.15l1.86,1.2C57.86,96.19,57.71,96.74,57.61,97.14z"/>
			<path class="st4" d="M67.53,95.71c0-0.67-0.06-1.62-0.19-2.28h2.96c-0.08,0.66-0.17,1.5-0.17,2.28v2.81
				c2.55,0.74,6.19,2.09,7.94,2.94l-1.08,2.62c-1.96-1.03-4.81-2.13-6.86-2.83v5.38c0,0.55,0.09,1.88,0.17,2.66h-2.96
				c0.11-0.76,0.19-1.9,0.19-2.66V95.71z"/>
			<path class="st4" d="M89.72,95.58c-0.15,0.4-0.32,0.87-0.53,1.37h8.19c0.49,0,1.35-0.02,1.98-0.13v2.6
				c-0.7-0.06-1.54-0.08-1.98-0.08h-2.66c-0.34,5.05-2.32,8.43-5.76,10.6l-2.56-1.71c0.68-0.29,1.35-0.68,1.8-1.04
				c2-1.54,3.57-3.88,3.88-7.85h-4.01c-0.78,1.39-1.94,3-3.08,4.01l-2.37-1.44c1.35-1.03,2.56-2.74,3.29-3.91
				c0.51-0.89,0.87-1.88,1.1-2.6c0.23-0.63,0.36-1.35,0.4-1.94l2.93,0.57C90.12,94.5,89.88,95.16,89.72,95.58z M98.16,95.71
				l-1.52,0.65c-0.4-0.78-0.99-1.9-1.5-2.64l1.52-0.61C97.13,93.79,97.8,95.01,98.16,95.71z M100.44,94.82l-1.52,0.67
				c-0.4-0.8-1.01-1.9-1.52-2.62l1.5-0.63C99.39,92.96,100.1,94.16,100.44,94.82z"/>
			<path class="st4" d="M107.22,99.78h10.2c0.89,0,1.73-0.08,2.22-0.11v2.98c-0.46-0.02-1.42-0.09-2.22-0.09h-10.2
				c-1.08,0-2.36,0.04-3.06,0.09v-2.98C104.85,99.72,106.24,99.78,107.22,99.78z"/>
			<path class="st4" d="M128.81,95.71c0-0.67-0.06-1.62-0.19-2.28h2.96c-0.08,0.66-0.17,1.5-0.17,2.28v2.81
				c2.55,0.74,6.19,2.09,7.94,2.94l-1.08,2.62c-1.96-1.03-4.81-2.13-6.86-2.83v5.38c0,0.55,0.09,1.88,0.17,2.66h-2.96
				c0.11-0.76,0.19-1.9,0.19-2.66V95.71z"/>
			<path class="st4" d="M38.67,119.09c-0.4,4.14-1.31,7.41-2.74,9.95c0.93,1.27,2.07,2.34,3.44,3.08c-0.51,0.42-1.22,1.27-1.56,1.86
				c-1.29-0.78-2.36-1.75-3.27-2.91c-0.97,1.18-2.09,2.13-3.38,2.91c-0.28-0.49-0.8-1.2-1.25-1.65v1.79h-2.19v-3.04
				c-2.18,0.38-4.41,0.72-6.15,0.99l-0.44-2.26c0.51-0.06,1.1-0.11,1.75-0.19v-10.09h-1.29v-2.09h9.54v1.35h5.68l0.38-0.06
				L38.67,119.09z M25.03,119.52v1.8h2.7v-1.8H25.03z M25.03,125.26h2.7v-1.9h-2.7V125.26z M25.03,129.35
				c0.87-0.11,1.79-0.25,2.7-0.36v-1.71h-2.7V129.35z M29.91,132.02c1.25-0.7,2.36-1.73,3.29-3.02c-1.16-2.11-1.98-4.65-2.56-7.52
				l2.17-0.44c0.38,2.03,0.95,3.95,1.75,5.62c0.74-1.63,1.31-3.53,1.63-5.66h-5.6v-1.48h-0.66V132.02z"/>
			<path class="st4" d="M51.04,125.47c0,0-0.02,0.63-0.08,0.93c-0.3,4.2-0.65,6.04-1.31,6.78c-0.53,0.57-1.06,0.74-1.88,0.82
				c-0.66,0.08-1.82,0.08-2.98,0.04c-0.06-0.72-0.4-1.71-0.84-2.38c1.14,0.11,2.36,0.13,2.87,0.13c0.38,0,0.61-0.04,0.85-0.23
				c0.4-0.32,0.65-1.52,0.85-4.01h-3.86c-0.06,0.3-0.11,0.59-0.17,0.85l-2.28-0.36c0.44-1.79,0.91-4.5,1.16-6.69h5.26v-2.17h-5.72
				v-2.11h7.96v6.38h-5.51c-0.09,0.67-0.21,1.35-0.32,1.99H51.04z M57.42,116.65v17.46h-2.26v-17.46H57.42z"/>
			<path class="st4" d="M68.46,126.55c-0.55,0.17-1.12,0.32-1.69,0.49v4.52c0,1.12-0.19,1.73-0.8,2.07
				c-0.63,0.38-1.52,0.46-2.83,0.46c-0.06-0.61-0.34-1.58-0.63-2.2c0.74,0.04,1.52,0.04,1.77,0.02c0.23,0,0.32-0.08,0.32-0.36v-3.89
				l-2.11,0.57l-0.47-2.18c0.72-0.15,1.61-0.36,2.58-0.59v-3.42h-2.2v-2.07h2.2v-3.57h2.17v3.57h1.46v2.07h-1.46v2.89l1.44-0.38
				L68.46,126.55z M79.88,133.16h-8.09v0.93h-2.17v-10.05c-0.27,0.36-0.55,0.7-0.84,1.01c-0.28-0.49-0.99-1.52-1.42-1.99
				c1.56-1.58,2.81-4.12,3.51-6.71l2.17,0.51c-0.28,1.01-0.65,2-1.06,2.96h2.09c0.44-1.1,0.87-2.39,1.14-3.42l2.39,0.49
				c-0.42,0.99-0.85,2.01-1.29,2.93h3.23v1.99h-3.46v1.77h2.96v1.9h-2.96v1.84h2.96v1.9h-2.96v1.88h3.8V133.16z M73.99,121.82h-2.2
				v1.77h2.2V121.82z M73.99,125.49h-2.2v1.84h2.2V125.49z M71.79,131.11h2.2v-1.88h-2.2V131.11z"/>
			<path class="st4" d="M93.54,129.99c1.25,1.41,3.44,1.96,6.9,2.03c-0.48,0.49-1.03,1.42-1.27,2.09c-4.01-0.32-6.23-1.27-7.66-3.51
				c-1.08,1.82-3.25,2.94-7.92,3.51c-0.15-0.57-0.63-1.42-1.01-1.9c3.82-0.4,5.64-1.06,6.57-2.22H83v-1.84h6.95
				c0.11-0.47,0.17-1.01,0.23-1.6h2.34c-0.06,0.57-0.11,1.1-0.19,1.6H100v1.84H93.54z M86.21,124.52c-0.91,0.57-1.84,1.12-2.7,1.58
				l-0.87-1.9c0.91-0.4,2.22-1.08,3.57-1.8v-6h2.09v11.11h-2.09V124.52z M84.18,121.33c-0.19-0.83-0.74-2.13-1.27-3.1l1.63-0.68
				c0.55,0.93,1.18,2.2,1.39,3.02L84.18,121.33z M99.22,117.81c-2.72,0.59-6.63,0.91-9.88,1.01c-0.06-0.44-0.29-1.12-0.49-1.52
				c3.19-0.13,6.86-0.47,8.99-0.95L99.22,117.81z M99.41,119.03c-0.65,0.76-1.35,1.52-1.96,2.13h0.55v0.76h2.13v1.65h-2.13v1.77
				c0,0.93-0.19,1.37-0.89,1.65c-0.68,0.25-1.56,0.27-2.75,0.27c-0.1-0.53-0.42-1.27-0.68-1.73c0.74,0.04,1.61,0.04,1.86,0.02
				c0.25-0.02,0.34-0.06,0.34-0.27v-1.71h-4.05c0.67,0.61,1.29,1.39,1.6,2l-1.69,0.93c-0.3-0.67-1.06-1.65-1.77-2.34l1.1-0.59h-2.15
				v-1.65h6.95v-0.76h0.15l-0.61-0.3c0.7-0.7,1.58-1.86,2.09-2.68L99.41,119.03z M90.9,118.88c0.46,0.72,0.95,1.71,1.14,2.36
				l-1.69,0.63c-0.15-0.67-0.61-1.69-1.04-2.43L90.9,118.88z M94.04,118.61c0.44,0.76,0.85,1.73,0.97,2.41l-1.75,0.53
				c-0.09-0.67-0.47-1.67-0.87-2.47L94.04,118.61z"/>
			<path class="st4" d="M108.86,117.05c-0.47,1.25-1.06,2.53-1.71,3.74v13.3h-2.13v-9.92c-0.38,0.51-0.76,0.99-1.16,1.41
				c-0.21-0.53-0.8-1.73-1.16-2.28c1.63-1.65,3.19-4.27,4.12-6.9L108.86,117.05z M117.2,120.25v2.37h3.21v10.96h-2.17v-0.97h-7.52
				v1.08h-2.09v-11.08h3.06v-2.37h-3.25v-2.01h12.06v2.01H117.2z M110.72,130.67h1.18v-6.1h-1.18V130.67z M113.8,124.58v6.1h1.27
				v-6.1H113.8z M115.07,120.25h-1.25v2.37h1.25V120.25z M118.24,124.58h-1.27v6.1h1.27V124.58z"/>
			<path class="st4" d="M140.09,118.95c-0.65,1.98-1.63,3.65-2.89,5.05c1.2,0.91,2.64,1.65,4.29,2.11
				c-0.46,0.44-1.08,1.33-1.37,1.88l-0.34-0.13v6.19h-2.18v-0.61h-3.97v0.66h-2.11v-6.08c-0.32,0.15-0.65,0.29-0.97,0.4
				c-0.21-0.44-0.61-1.04-0.97-1.5l-0.17,0.25c-0.23-0.47-0.63-1.18-1.04-1.84v8.76h-2.13v-7.2c-0.53,1.52-1.18,2.93-1.9,3.89
				c-0.21-0.63-0.7-1.5-1.04-2.05c1.16-1.5,2.24-4.12,2.77-6.38h-2.32v-2.09h2.49v-3.89h2.13v3.89h2.13v1.03
				c1.35-1.31,2.53-3.12,3.21-4.94l2.15,0.59c-0.19,0.47-0.4,0.95-0.63,1.42h3.06l0.38-0.08L140.09,118.95z M129.99,126.38
				c1.52-0.57,2.96-1.37,4.2-2.39c-0.53-0.61-1.01-1.24-1.42-1.86c-0.46,0.55-0.93,1.04-1.41,1.46c-0.29-0.3-0.87-0.84-1.37-1.23
				h-1.61v0.46c0.51,0.55,1.94,2.24,2.26,2.68L129.99,126.38z M137.98,127.03c-0.84-0.46-1.6-0.99-2.28-1.56
				c-0.68,0.59-1.41,1.1-2.19,1.56H137.98z M137.6,131.51v-2.58h-3.97v2.58H137.6z M134.13,120.28l-0.13,0.19
				c0.44,0.72,0.97,1.44,1.63,2.13c0.63-0.7,1.18-1.48,1.61-2.32H134.13z"/>
		</g>
	</g>
	<g>
		<g>
			<rect x="3.28" y="183.34" class="st9" width="150.93" height="40"/>
			<path class="st9" d="M154.21,226.34H3.28c-1.66,0-3-1.34-3-3v-40c0-1.66,1.34-3,3-3h150.93c1.66,0,3,1.34,3,3v40
				C157.21,225,155.86,226.34,154.21,226.34z M6.28,220.34h144.93v-34H6.28V220.34z"/>
		</g>
		<g>
			<polygon class="st9" points="174.74,203.34 154.21,183.34 154.21,223.34 			"/>
			<path class="st9" d="M154.21,226.34c-0.39,0-0.79-0.08-1.17-0.24c-1.11-0.47-1.83-1.56-1.83-2.76v-40c0-1.21,0.72-2.29,1.83-2.76
				c1.11-0.47,2.4-0.23,3.26,0.61l20.54,20c0.58,0.56,0.91,1.34,0.91,2.15s-0.33,1.58-0.91,2.15l-20.54,20
				C155.73,226.05,154.97,226.34,154.21,226.34z M157.21,190.45v25.78l13.24-12.89L157.21,190.45z"/>
		</g>
		<g>
			<rect x="3.28" y="183.34" class="st4" width="150.93" height="40"/>
		</g>
		<g>
			<polygon class="st4" points="174.74,203.34 154.21,183.34 154.21,223.34 			"/>
		</g>
		<g>
			<path class="st9" d="M51.31,197.8c1.6,1.5,3.86,2.76,6.14,3.46c-0.5,0.42-1.18,1.3-1.54,1.9c-0.72-0.26-1.42-0.6-2.1-0.98v7.58
				h3.28v2.08H39.01v-2.08h3.3v-7.62c-0.74,0.42-1.48,0.8-2.26,1.1c-0.34-0.54-0.98-1.4-1.48-1.84c2.2-0.72,4.4-2.06,5.94-3.6h-5.38
				v-2.06h7.66v-2.22h2.34v2.22h7.82v2.06H51.31z M53.59,202.06c-1.7-0.96-3.24-2.24-4.46-3.68v3.14h-2.34v-3.22
				c-1.18,1.46-2.68,2.76-4.34,3.76H53.59z M51.35,204h-6.72v0.8h6.72V204z M44.63,207.28h6.72v-0.84h-6.72V207.28z M51.35,209.76
				v-0.84h-6.72v0.84H51.35z"/>
			<path class="st9" d="M70.75,209.5c0.72,0.08,1.48,0.12,2.28,0.12c1.08,0,4.38,0,5.72-0.06c-0.34,0.58-0.72,1.72-0.84,2.42h-5
				c-3.68,0-6.42-0.6-8.26-3.44c-0.64,1.52-1.52,2.8-2.66,3.78c-0.4-0.42-1.4-1.26-1.96-1.62c2.16-1.6,3.14-4.36,3.5-7.78l2.48,0.24
				c-0.12,0.9-0.26,1.74-0.44,2.54c0.6,1.6,1.54,2.56,2.72,3.14v-7.06h-4.26v-2.26h11v2.26h-4.28v2.5h5.5v2.24h-5.5V209.5z
				 M63.33,200.54h-2.34v-5h7.26v-2h2.52v2h7.32v5h-2.46v-2.74h-12.3V200.54z"/>
			<path class="st9" d="M87.81,194.24c-0.5,1.32-1.12,2.66-1.8,3.94v14h-2.24v-10.44c-0.4,0.54-0.8,1.04-1.22,1.48
				c-0.22-0.56-0.84-1.82-1.22-2.4c1.72-1.74,3.36-4.5,4.34-7.26L87.81,194.24z M96.59,197.6v2.5h3.38v11.54h-2.28v-1.02h-7.92v1.14
				h-2.2V200.1h3.22v-2.5h-3.42v-2.12h12.7v2.12H96.59z M89.77,208.58h1.24v-6.42h-1.24V208.58z M93.01,202.16v6.42h1.34v-6.42
				H93.01z M94.35,197.6h-1.32v2.5h1.32V197.6z M97.69,202.16h-1.34v6.42h1.34V202.16z"/>
			<path class="st9" d="M120.69,196.24c-0.68,2.08-1.72,3.84-3.04,5.32c1.26,0.96,2.78,1.74,4.52,2.22
				c-0.48,0.46-1.14,1.4-1.44,1.98l-0.36-0.14v6.52h-2.3v-0.64h-4.18v0.7h-2.22v-6.4c-0.34,0.16-0.68,0.3-1.02,0.42
				c-0.22-0.46-0.64-1.1-1.02-1.58l-0.18,0.26c-0.24-0.5-0.66-1.24-1.1-1.94v9.22h-2.24v-7.58c-0.56,1.6-1.24,3.08-2,4.1
				c-0.22-0.66-0.74-1.58-1.1-2.16c1.22-1.58,2.36-4.34,2.92-6.72h-2.44v-2.2h2.62v-4.1h2.24v4.1h2.24v1.08
				c1.42-1.38,2.66-3.28,3.38-5.2l2.26,0.62c-0.2,0.5-0.42,1-0.66,1.5h3.22l0.4-0.08L120.69,196.24z M110.05,204.06
				c1.6-0.6,3.12-1.44,4.42-2.52c-0.56-0.64-1.06-1.3-1.5-1.96c-0.48,0.58-0.98,1.1-1.48,1.54c-0.3-0.32-0.92-0.88-1.44-1.3h-1.7
				v0.48c0.54,0.58,2.04,2.36,2.38,2.82L110.05,204.06z M118.47,204.74c-0.88-0.48-1.68-1.04-2.4-1.64
				c-0.72,0.62-1.48,1.16-2.3,1.64H118.47z M118.07,209.46v-2.72h-4.18v2.72H118.07z M114.41,197.64l-0.14,0.2
				c0.46,0.76,1.02,1.52,1.72,2.24c0.66-0.74,1.24-1.56,1.7-2.44H114.41z"/>
		</g>
	</g>
	<g>
		<path class="st4" d="M233.76,255.75c-0.48,6.03-1.8,9.84-9.99,11.79c-0.33-0.93-1.23-2.34-1.95-3.09c7.11-1.38,7.86-4.08,8.22-8.7
			H233.76z M233.85,245.07h-11.22v-3.24h11.22v-2.37h3.69v2.37h11.52v3.24h-11.52v1.95h8.76v3.12h-20.82v-3.12h8.37V245.07z
			 M245.07,258v-3.18h-18.6V258h-3.45v-6.39h25.65V258H245.07z M245.25,263.88c0.99,0,1.17-0.51,1.29-3.57
			c0.72,0.57,2.25,1.11,3.21,1.35c-0.39,4.32-1.32,5.43-4.14,5.43h-3.87c-3.48,0-4.35-1.02-4.35-4.23v-7.11h3.6v7.08
			c0,0.93,0.18,1.05,1.26,1.05H245.25z"/>
		<path class="st4" d="M233.46,295.81c1.56,2.64,3.3,6.12,3.9,8.43l-3.12,1.32c-0.15-0.69-0.42-1.47-0.75-2.34l-11.16,1.44
			l-0.51-3.45l1.98-0.18c0.78-2.04,1.59-4.71,2.1-7.02h-4.08v-3.3h5.88v-3.81h-4.92v-3.24h4.92v-4.23h3.48v4.23h4.71v3.24h-4.71
			v3.81h5.64v3.3h-6.93c-0.81,2.22-1.71,4.65-2.55,6.66l4.83-0.51c-0.51-1.11-1.05-2.19-1.59-3.18L233.46,295.81z M248.64,298.78
			c0,1.59-0.27,2.7-1.29,3.33c-0.99,0.6-2.28,0.72-4.08,0.72c-0.12-1.05-0.66-2.7-1.14-3.69c1.08,0.06,2.19,0.06,2.55,0.03
			c0.36,0,0.48-0.12,0.48-0.48v-14.13h-3.96v22.89h-3.48v-26.22h10.92V298.78z"/>
		<path class="st4" d="M231,320.51c-0.75,1.98-1.68,3.99-2.7,5.91v21h-3.36v-15.66c-0.6,0.81-1.2,1.56-1.83,2.22
			c-0.33-0.84-1.26-2.73-1.83-3.6c2.58-2.61,5.04-6.75,6.51-10.89L231,320.51z M244.17,325.55v3.75h5.07v17.31h-3.42v-1.53h-11.88
			v1.71h-3.3V329.3h4.83v-3.75h-5.13v-3.18h19.05v3.18H244.17z M233.94,342.02h1.86v-9.63h-1.86V342.02z M238.8,332.39v9.63h2.01
			v-9.63H238.8z M240.81,325.55h-1.98v3.75h1.98V325.55z M245.82,332.39h-2.01v9.63h2.01V332.39z"/>
		<path class="st4" d="M248.07,363.51c-1.02,3.12-2.58,5.76-4.56,7.98c1.89,1.44,4.17,2.61,6.78,3.33c-0.72,0.69-1.71,2.1-2.16,2.97
			l-0.54-0.21v9.78h-3.45v-0.96h-6.27v1.05h-3.33v-9.6c-0.51,0.24-1.02,0.45-1.53,0.63c-0.33-0.69-0.96-1.65-1.53-2.37l-0.27,0.39
			c-0.36-0.75-0.99-1.86-1.65-2.91v13.83h-3.36v-11.37c-0.84,2.4-1.86,4.62-3,6.15c-0.33-0.99-1.11-2.37-1.65-3.24
			c1.83-2.37,3.54-6.51,4.38-10.08h-3.66v-3.3h3.93v-6.15h3.36v6.15h3.36v1.62c2.13-2.07,3.99-4.92,5.07-7.8l3.39,0.93
			c-0.3,0.75-0.63,1.5-0.99,2.25h4.83l0.6-0.12L248.07,363.51z M232.11,375.24c2.4-0.9,4.68-2.16,6.63-3.78
			c-0.84-0.96-1.59-1.95-2.25-2.94c-0.72,0.87-1.47,1.65-2.22,2.31c-0.45-0.48-1.38-1.32-2.16-1.95h-2.55v0.72
			c0.81,0.87,3.06,3.54,3.57,4.23L232.11,375.24z M244.74,376.26c-1.32-0.72-2.52-1.56-3.6-2.46c-1.08,0.93-2.22,1.74-3.45,2.46
			H244.74z M244.14,383.34v-4.08h-6.27v4.08H244.14z M238.65,365.61l-0.21,0.3c0.69,1.14,1.53,2.28,2.58,3.36
			c0.99-1.11,1.86-2.34,2.55-3.66H238.65z"/>
	</g>
	<g>
		<path class="st4" d="M758.54,212.79c-0.78,2.52-2.16,5.1-3.57,6.72c-0.6-0.51-1.89-1.35-2.64-1.74c1.35-1.41,2.49-3.57,3.09-5.67
			L758.54,212.79z M763.1,211.89h-9.12v-19.35h9.12V211.89z M759.98,195.36h-2.97v2.76h2.97V195.36z M759.98,200.79h-2.97v2.79h2.97
			V200.79z M759.98,206.22h-2.97v2.82h2.97V206.22z M761.57,212.04c0.99,1.5,2.1,3.51,2.58,4.83l-2.76,1.35
			c-0.42-1.38-1.5-3.51-2.46-5.07L761.57,212.04z M780.56,214.62h-1.38v1.59c0,1.5-0.3,2.25-1.29,2.73
			c-0.99,0.48-2.4,0.51-4.35,0.51c-0.12-0.84-0.54-2.07-0.93-2.85c1.17,0.03,2.46,0.03,2.82,0.03c0.39,0,0.51-0.12,0.51-0.45v-1.56
			h-7.71v4.86h-3.12v-4.86h-1.62v-2.49h1.62v-7.56h5.4v-1.14h-6.87v-2.52h3.75v-1.17h-2.55v-2.37h2.55v-1.11h-3.24v-2.52h3.24v-2.28
			h3.12v2.28h3.06v-2.28h3.18v2.28h3.24v2.52h-3.24v1.11h2.76v2.37h-2.76v1.17h3.78v2.52h-6.93v1.14h5.58v7.56h1.38V214.62z
			 M768.23,207.06v1.38h2.28v-1.38H768.23z M768.23,212.13h2.28v-1.5h-2.28V212.13z M770.51,197.37h3.06v-1.11h-3.06V197.37z
			 M770.51,200.91h3.06v-1.17h-3.06V200.91z M773.6,207.06v1.38h2.34v-1.38H773.6z M775.94,212.13v-1.5h-2.34v1.5H775.94z"/>
		<path class="st4" d="M768.95,233.11c0,5.67,0.81,16.62,11.85,23.13c-0.78,0.63-2.25,2.19-2.88,3.12
			c-6.21-3.75-9.39-9.42-11.04-14.79c-2.25,6.72-5.85,11.7-11.07,14.82c-0.66-0.75-2.34-2.22-3.27-2.91
			c6.24-3.15,9.81-8.94,11.46-16.83l1.83,0.33c-0.21-1.14-0.33-2.22-0.42-3.24h-6.84v-3.63H768.95z"/>
		<path class="st4" d="M761.81,272.51c-0.75,1.98-1.68,3.99-2.7,5.91v21h-3.36v-15.66c-0.6,0.81-1.2,1.56-1.83,2.22
			c-0.33-0.84-1.26-2.73-1.83-3.6c2.58-2.61,5.04-6.75,6.51-10.89L761.81,272.51z M774.98,277.55v3.75h5.07v17.31h-3.42v-1.53
			h-11.88v1.71h-3.3V281.3h4.83v-3.75h-5.13v-3.18h19.05v3.18H774.98z M764.75,294.02h1.86v-9.63h-1.86V294.02z M769.61,284.39v9.63
			h2.01v-9.63H769.61z M771.62,277.55h-1.98v3.75h1.98V277.55z M776.63,284.39h-2.01v9.63h2.01V284.39z"/>
		<path class="st4" d="M778.88,315.51c-1.02,3.12-2.58,5.76-4.56,7.98c1.89,1.44,4.17,2.61,6.78,3.33c-0.72,0.69-1.71,2.1-2.16,2.97
			l-0.54-0.21v9.78h-3.45v-0.96h-6.27v1.05h-3.33v-9.6c-0.51,0.24-1.02,0.45-1.53,0.63c-0.33-0.69-0.96-1.65-1.53-2.37l-0.27,0.39
			c-0.36-0.75-0.99-1.86-1.65-2.91v13.83h-3.36v-11.37c-0.84,2.4-1.86,4.62-3,6.15c-0.33-0.99-1.11-2.37-1.65-3.24
			c1.83-2.37,3.54-6.51,4.38-10.08h-3.66v-3.3h3.93v-6.15h3.36v6.15h3.36v1.62c2.13-2.07,3.99-4.92,5.07-7.8l3.39,0.93
			c-0.3,0.75-0.63,1.5-0.99,2.25h4.83l0.6-0.12L778.88,315.51z M762.92,327.24c2.4-0.9,4.68-2.16,6.63-3.78
			c-0.84-0.96-1.59-1.95-2.25-2.94c-0.72,0.87-1.47,1.65-2.22,2.31c-0.45-0.48-1.38-1.32-2.16-1.95h-2.55v0.72
			c0.81,0.87,3.06,3.54,3.57,4.23L762.92,327.24z M775.55,328.26c-1.32-0.72-2.52-1.56-3.6-2.46c-1.08,0.93-2.22,1.74-3.45,2.46
			H775.55z M774.95,335.34v-4.08h-6.27v4.08H774.95z M769.46,317.61l-0.21,0.3c0.69,1.14,1.53,2.28,2.58,3.36
			c0.99-1.11,1.86-2.34,2.55-3.66H769.46z"/>
	</g>
	<g>
		<g>
			<path class="st4" d="M236.89,131.96c-0.02,0.44-0.04,0.92-0.06,1.42c1.32-0.16,2.64-0.42,3.68-0.72l0.06,2.48
				c-1.14,0.26-2.52,0.46-3.82,0.62c-0.02,0.6-0.02,1.22-0.02,1.8c0,0.24,0,0.48,0,0.74c1.36-0.34,2.74-0.52,3.84-0.52
				c3.08,0,5.5,1.6,5.5,4.36c0,2.36-1.24,4.14-4.42,4.94c-0.92,0.2-1.8,0.26-2.62,0.32l-0.92-2.58c0.9,0,1.76-0.02,2.46-0.14
				c1.62-0.3,2.9-1.1,2.9-2.56c0-1.36-1.2-2.16-2.94-2.16c-1.24,0-2.54,0.2-3.76,0.56c0.04,1.58,0.08,3.14,0.08,3.82
				c0,2.48-0.88,3.14-2.2,3.14c-1.94,0-4.68-1.68-4.68-3.8c0-1.74,2-3.56,4.46-4.62c-0.02-0.48-0.02-0.96-0.02-1.42
				c0-0.56,0-1.12,0-1.68c-0.38,0.02-0.74,0.04-1.06,0.04c-1.34,0-2.12-0.02-2.8-0.1l-0.04-2.42c1.18,0.14,2.04,0.16,2.76,0.16
				c0.36,0,0.76-0.02,1.16-0.04c0.02-0.7,0.02-1.28,0.02-1.62c0-0.42-0.08-1.4-0.14-1.76h2.76
				C237,130.58,236.93,131.44,236.89,131.96z M233.88,144.74c0.36,0,0.64-0.16,0.64-0.84c0-0.5-0.02-1.42-0.06-2.5
				c-1.22,0.66-2.04,1.48-2.04,2.18C232.42,144.2,233.36,144.74,233.88,144.74z M247.69,135.2l-1.2,2.04
				c-0.96-0.82-3.58-2.32-4.82-2.92l1.1-1.94C244.31,133.12,246.63,134.44,247.69,135.2z"/>
			<path class="st4" d="M257.11,134.8c-0.48,0.84-1.08,1.68-1.74,2.52v10.86h-2.3v-8.3c-0.6,0.6-1.2,1.16-1.8,1.62
				c-0.18-0.52-0.78-1.88-1.14-2.46c1.78-1.24,3.74-3.18,4.9-5.14L257.11,134.8z M256.76,130.46c-1.32,1.84-3.36,3.8-5.24,5.02
				c-0.24-0.54-0.82-1.52-1.18-2.02c1.56-0.96,3.32-2.58,4.16-3.92L256.76,130.46z M268.93,143h-2.74v2.84c0,1.1-0.2,1.66-0.98,2
				c-0.74,0.34-1.74,0.34-3.1,0.34c-0.1-0.64-0.44-1.52-0.74-2.12c0.84,0.04,1.78,0.04,2.04,0.04c0.28-0.02,0.36-0.1,0.36-0.32V143
				h-4.2c0.8,0.76,1.78,1.8,2.28,2.5l-1.78,1.26c-0.44-0.76-1.46-1.94-2.3-2.78l1.48-0.98h-2.8v-2.02h7.32v-1.14h-6.84v-1.94h11.58
				v1.94h-2.32v1.14h2.72L268.93,143z M267.85,137.02h-9.9v-6.92h9.9V137.02z M265.45,131.76h-5.2v1h5.2V131.76z M265.45,134.32
				h-5.2v1.04h5.2V134.32z"/>
			<path class="st4" d="M276.38,144.88c0-1.06,0.76-1.78,1.76-1.78c1,0,1.76,0.72,1.76,1.78c0,1.04-0.76,1.76-1.76,1.76
				C277.13,146.64,276.38,145.92,276.38,144.88z M276.59,134.48l-0.1-2.98h3.32l-0.1,2.98l-0.54,6.84h-2.04L276.59,134.48z"/>
		</g>
		<g>
			<path class="st4" d="M265.54,171.63"/>
			<polygon class="st4" points="252.7,161 259.53,156.55 272.87,161.14 265.98,165.63 268.47,166.5 277.59,160.56 259.25,154.25 
				250.21,160.14 			"/>
			<polygon class="st4" points="260.03,169.51 251.65,174.97 238.31,170.38 246.75,164.88 244.26,164.01 233.59,170.96 
				251.93,177.27 262.52,170.37 			"/>
			<polygon class="st4" points="262.71,173.52 252.14,180.4 233.59,174.02 233.59,176.22 252.42,182.7 262.71,176 			"/>
			<polygon class="st4" points="268.53,169.72 268.53,172.21 277.59,166.31 277.59,163.82 			"/>
			<polygon class="st4" points="262.71,178.38 252.14,185.26 233.59,178.88 233.59,181.09 252.42,187.57 262.71,180.87 			"/>
			<polygon class="st4" points="268.53,174.59 268.53,177.07 277.59,171.17 277.59,168.69 			"/>
			<polygon class="st4" points="268.53,179.45 268.53,181.94 277.59,176.03 277.59,173.55 			"/>
			<polygon class="st4" points="262.71,183.25 252.14,190.13 233.59,183.75 233.59,185.95 252.42,192.43 262.71,185.73 			"/>
			<polygon class="st4" points="248.86,161.01 245.95,163.06 264.33,169.46 264.33,184.62 267.24,182.58 267.24,167.42 			"/>
			<path class="st4" d="M249.12,165.64l0.09,0l0.09,0.01l0.09,0.02l0.08,0.02l0.97,0.3l0.08,0.03l0.07,0.03l0.05,0.03l0.04,0.04
				l0.03,0.04l0.03,0.04l0.02,0.04l0.01,0.04l0,0.04l-0.01,0.04l-0.02,0.04l-0.03,0.04l-0.04,0.05l-0.04,0.05l-0.05,0.04l-0.06,0.04
				l-0.06,0.04l-0.07,0.04l-0.07,0.04l-0.08,0.03l-0.08,0.03l-0.08,0.03l-0.08,0.02l-0.08,0.02l-0.09,0.01l-0.09,0.01l-0.09,0.01
				h-0.09l-0.08-0.01l-0.09-0.01l-0.08-0.01l-0.08-0.02l-0.97-0.3l-0.08-0.03l-0.07-0.03l-0.06-0.03l-0.05-0.03l-0.04-0.04
				l-0.02-0.04l-0.02-0.04l0-0.04l0-0.04l0.01-0.04l0.02-0.04l0.03-0.04l0.03-0.05l0.04-0.05l0.05-0.04l0.06-0.04l0.06-0.04
				l0.07-0.04l0.07-0.03l0.08-0.03l0.08-0.03l0.08-0.02l0.08-0.02l0.08-0.02l0.09-0.01l0.08-0.01l0.09,0L249.12,165.64z
				 M250.07,166.24l-0.96-0.29l-0.08-0.02l-0.07-0.01l-0.08,0l-0.08,0.01l-0.07,0.01l-0.07,0.02l-0.06,0.03l-0.06,0.03l-0.05,0.04
				l-0.03,0.04l-0.02,0.04l0,0.04l0.02,0.03l0.03,0.03l0.05,0.03l0.06,0.02l0.96,0.29l0.07,0.02l0.07,0.01l0.07,0l0.08-0.01
				l0.07-0.02l0.07-0.02l0.06-0.03l0.06-0.03l0.05-0.04l0.03-0.04l0.02-0.04v-0.04l-0.02-0.03l-0.03-0.03l-0.05-0.03L250.07,166.24"
				/>
			<path class="st4" d="M246.07,167.76l0.09,0.01l0.08,0.01l0.08,0.02l0.08,0.02l0.97,0.3l0.08,0.02l0.07,0.03l0.06,0.03l0.04,0.03
				l0.03,0.04l0.03,0.04l0.02,0.04l0.01,0.04l0,0.04l-0.01,0.04l-0.02,0.05l-0.03,0.05l-0.03,0.05l-0.04,0.04l-0.05,0.05l-0.06,0.04
				l-0.06,0.04l-0.07,0.04l-0.07,0.03l-0.08,0.03l-0.08,0.03l-0.08,0.02l-0.08,0.02l-0.09,0.02l-0.09,0.01l-0.09,0.01l-0.09,0.01
				h-0.09l-0.09-0.01l-0.08-0.01l-0.08-0.02l-0.08-0.02l-0.97-0.3l-0.08-0.03l-0.07-0.03l-0.06-0.03l-0.04-0.03l-0.04-0.04
				l-0.03-0.04l-0.01-0.04l0-0.04l0-0.04l0.01-0.04l0.02-0.04l0.03-0.04l0.03-0.05l0.04-0.04l0.05-0.04l0.06-0.05l0.06-0.04
				l0.07-0.04l0.07-0.03l0.08-0.03l0.08-0.03l0.08-0.03l0.08-0.02l0.08-0.02l0.09-0.01l0.09-0.01l0.09-0.01L246.07,167.76
				L246.07,167.76z M247.01,168.37l-0.96-0.29l-0.07-0.02l-0.08-0.01l-0.08,0l-0.07,0.01l-0.07,0.01l-0.07,0.02l-0.06,0.03
				l-0.06,0.03l-0.05,0.04l-0.03,0.04l-0.02,0.04l0,0.04l0.02,0.03l0.03,0.03l0.05,0.03l0.07,0.03l0.96,0.29l0.07,0.02l0.08,0.01
				l0.08,0l0.08,0l0.07-0.02l0.07-0.02l0.06-0.03l0.06-0.03l0.05-0.04l0.03-0.04l0.02-0.03v-0.03l-0.02-0.03l-0.03-0.03l-0.05-0.03
				L247.01,168.37"/>
			<path class="st4" d="M244.54,168.83l0.09,0.01l0.09,0.01l0.09,0.02l0.08,0.02l0.97,0.3l0.08,0.02l0.07,0.03l0.05,0.03l0.04,0.03
				l0.04,0.04l0.03,0.04l0.01,0.04l0.01,0.04v0.04l-0.01,0.04l-0.02,0.04l-0.03,0.04l-0.04,0.05l-0.04,0.04l-0.05,0.05l-0.06,0.04
				l-0.06,0.04l-0.07,0.04l-0.07,0.04l-0.08,0.03l-0.08,0.03l-0.08,0.02l-0.08,0.02l-0.08,0.02l-0.09,0.01l-0.09,0.01l-0.09,0.01
				h-0.09l-0.08-0.01l-0.09-0.01l-0.08-0.02l-0.08-0.02l-0.97-0.3l-0.08-0.03l-0.07-0.03l-0.06-0.03l-0.04-0.03l-0.04-0.04
				l-0.02-0.04l-0.01-0.04l-0.01-0.04l0-0.04l0.01-0.04l0.02-0.04l0.03-0.04l0.04-0.05l0.04-0.05l0.05-0.04l0.06-0.04l0.06-0.04
				l0.07-0.04l0.07-0.04l0.08-0.03l0.08-0.03l0.08-0.03l0.08-0.02l0.08-0.02l0.09-0.01l0.09-0.01l0.09,0L244.54,168.83
				L244.54,168.83z M245.48,169.44l-0.96-0.29l-0.07-0.02l-0.08-0.01l-0.07,0l-0.07,0.01l-0.08,0.01l-0.07,0.02l-0.06,0.03
				l-0.06,0.03l-0.05,0.04l-0.03,0.04l-0.01,0.04l0,0.03l0.01,0.03l0.03,0.03l0.05,0.03l0.06,0.02l0.96,0.29l0.07,0.02l0.07,0.01
				l0.07,0l0.08-0.01l0.07-0.01l0.07-0.02l0.06-0.03l0.06-0.03l0.05-0.04l0.03-0.04l0.02-0.04l0-0.03l-0.02-0.03l-0.03-0.03
				l-0.05-0.03L245.48,169.44"/>
			<polygon class="st4" points="242.37,169.97 244.68,170.67 244.32,170.93 242.46,170.36 242.46,170.77 242.01,170.63 242,170.22 
							"/>
			<path class="st4" d="M247.59,166.7l0.09,0l0.09,0.01l0.09,0.02l0.09,0.02l0.97,0.3l0.08,0.03l0.07,0.03l0.06,0.03l0.04,0.04
				l0.04,0.04l0.03,0.04l0.01,0.04l0.01,0.04l0,0.04l-0.01,0.04l-0.02,0.04l-0.03,0.04l-0.03,0.05l-0.04,0.05l-0.05,0.04l-0.06,0.04
				l-0.06,0.04l-0.07,0.04l-0.07,0.03l-0.08,0.03l-0.08,0.03l-0.08,0.03l-0.08,0.02l-0.08,0.02l-0.09,0.01l-0.09,0.01l-0.09,0
				l-0.09,0l-0.09,0l-0.09-0.01l-0.08-0.02l-0.08-0.02l-0.97-0.3l-0.08-0.03l-0.07-0.03l-0.06-0.03l-0.04-0.03l-0.04-0.04
				l-0.03-0.04l-0.02-0.04l-0.01-0.04l0-0.04l0.01-0.04l0.02-0.05l0.03-0.05l0.03-0.04l0.04-0.05l0.05-0.04l0.06-0.04l0.06-0.04
				l0.07-0.04l0.07-0.03l0.08-0.03l0.08-0.03l0.08-0.03l0.08-0.02l0.08-0.02l0.09-0.01l0.09-0.01l0.09-0.01L247.59,166.7z
				 M248.54,167.31l-0.96-0.29l-0.07-0.02l-0.07-0.01l-0.08,0l-0.07,0.01l-0.07,0.02l-0.07,0.02l-0.06,0.03l-0.06,0.03l-0.05,0.04
				l-0.03,0.04l-0.02,0.04l0,0.03l0.01,0.03l0.03,0.03l0.05,0.03l0.07,0.02l0.96,0.29l0.07,0.02l0.07,0.01h0.08l0.08-0.01l0.07-0.02
				l0.07-0.02l0.06-0.03l0.06-0.03l0.05-0.04l0.03-0.04l0.02-0.04l0-0.03l-0.02-0.03l-0.03-0.03l-0.05-0.03L248.54,167.31"/>
			<path class="st4" d="M257.14,161.1l0.05-0.03l0.06-0.04l0.07-0.05l0.08-0.05l0.09-0.06l0.1-0.06l0.11-0.08l0.12-0.09l0.09-0.06
				l0.09-0.07l0.09-0.08l0.1-0.08l0.05-0.04l0.05-0.04l0.05-0.04l0.05-0.03c0.17-0.13,0.33-0.22,0.46-0.28
				c0.14-0.06,0.25-0.1,0.34-0.12c0.09-0.02,0.17-0.02,0.22-0.02l0.08,0.01l0.02-0.05l0.03-0.04l0.04-0.05l0.05-0.04
				c0.1-0.07,0.25-0.14,0.43-0.18c0.18-0.05,0.39-0.08,0.61-0.09c0.22-0.01,0.45,0.01,0.67,0.05c0.22,0.04,0.44,0.12,0.63,0.23
				l0.1,0.06l0.08,0.07l0.07,0.07l0.06,0.07l0.07,0.03l0.15,0l0.15,0.02l0.15,0.05l0.13,0.07l0.11,0.09l0.08,0.09l0.06,0.1
				l0.05,0.11l0.07,0.08l0.07,0.08l0.06,0.08l0.05,0.09l0.06,0.05c0.13,0.09,0.21,0.19,0.26,0.28s0.07,0.19,0.09,0.29
				c0.02,0.09,0.05,0.19,0.12,0.28c0.06,0.09,0.16,0.18,0.33,0.26c0.08,0.04,0.24,0.01,0.45-0.04c0.21-0.06,0.47-0.14,0.77-0.21
				c0.3-0.07,0.63-0.12,0.97-0.11c0.35,0.01,0.71,0.08,1.07,0.27l0.01,0.08c-0.01,0.06-0.05,0.15-0.15,0.28
				c-0.1,0.13-0.27,0.32-0.54,0.56s-0.64,0.55-1.16,0.92c-0.52,0.38-0.94,0.66-1.28,0.86c-0.34,0.2-0.61,0.34-0.81,0.42
				c-0.2,0.09-0.34,0.12-0.43,0.14c-0.09,0.02-0.13,0.01-0.14,0.01c-0.36-0.18-0.55-0.38-0.63-0.59c-0.08-0.2-0.06-0.41,0-0.6
				c0.06-0.19,0.15-0.36,0.2-0.5s0.08-0.23-0.01-0.28c-0.17-0.08-0.33-0.13-0.49-0.15c-0.16-0.02-0.32-0.02-0.48-0.02
				c-0.16,0-0.32,0.01-0.48,0c-0.16-0.01-0.33-0.04-0.5-0.1l-0.14-0.04l-0.13-0.03l-0.13-0.02l-0.12-0.01
				c-0.09,0-0.16-0.01-0.24-0.01c-0.07-0.01-0.14-0.01-0.21-0.02c-0.07-0.01-0.13-0.02-0.19-0.03c-0.06-0.01-0.13-0.03-0.2-0.05
				c-0.07-0.02-0.12-0.05-0.17-0.08l-0.11-0.1l-0.05-0.11l0.01-0.11l-0.05-0.04c-0.31-0.02-0.58-0.09-0.81-0.18
				c-0.23-0.09-0.42-0.19-0.57-0.3c-0.15-0.11-0.27-0.21-0.36-0.3c-0.09-0.09-0.15-0.16-0.17-0.19l-0.02-0.04l0-0.03l0.03-0.04
				L257.14,161.1z"/>
		</g>
	</g>
	<g>
		<g>
			<polygon class="st10" points="720.29,369.06 675.06,324.06 675.06,339.91 326.09,339.91 326.09,324.06 280.87,369.06 
				326.09,414.06 326.09,398.22 675.06,398.22 675.06,414.06 			"/>
			<path class="st4" d="M675.06,415.06c-0.13,0-0.26-0.03-0.38-0.08c-0.37-0.16-0.62-0.52-0.62-0.92v-14.84H327.09v14.84
				c0,0.4-0.24,0.77-0.62,0.92c-0.37,0.15-0.8,0.07-1.09-0.21l-45.22-45c-0.19-0.19-0.29-0.44-0.29-0.71s0.11-0.52,0.29-0.71
				l45.22-45c0.29-0.29,0.72-0.37,1.09-0.21c0.37,0.16,0.62,0.52,0.62,0.92v14.84h346.97v-14.84c0-0.4,0.24-0.77,0.62-0.92
				c0.37-0.15,0.8-0.07,1.09,0.21l45.22,45c0.19,0.19,0.29,0.44,0.29,0.71s-0.11,0.52-0.29,0.71l-45.22,45
				C675.58,414.96,675.32,415.06,675.06,415.06z M326.09,397.22h348.97c0.55,0,1,0.45,1,1v13.44l42.81-42.59l-42.81-42.59v13.44
				c0,0.55-0.45,1-1,1H326.09c-0.55,0-1-0.45-1-1v-13.44l-42.81,42.59l42.81,42.59v-13.44
				C325.09,397.67,325.54,397.22,326.09,397.22z"/>
		</g>
		<g>
			<path class="st4" d="M346.22,367.17l-1.61,2.46c-1.25-0.86-3.54-2.35-5.02-3.12l1.61-2.44
				C342.68,364.86,345.1,366.38,346.22,367.17z M348,372.21c3.74-2.09,6.8-5.1,8.56-8.25l1.69,2.99c-2.05,3.04-5.15,5.83-8.76,7.9
				c-2.24,1.28-5.39,2.38-7.35,2.73l-1.65-2.91C342.96,374.25,345.6,373.53,348,372.21z M349.61,362.2l-1.65,2.44
				c-1.23-0.86-3.52-2.35-4.97-3.17l1.61-2.42C346.04,359.84,348.46,361.41,349.61,362.2z"/>
			<path class="st4" d="M380.52,363.36c-0.51,2.16-1.47,5.57-3.3,8.01c-2,2.64-4.93,4.82-8.85,6.07l-2.4-2.62
				c4.36-1.03,6.84-2.95,8.62-5.17c1.45-1.83,2.29-4.33,2.57-6.21h-10.25c-0.99,0-2.05,0.04-2.62,0.09v-3.1
				c0.66,0.07,1.91,0.18,2.64,0.18h10.17c0.44,0,1.14-0.02,1.74-0.18l2.16,1.39C380.8,362.26,380.63,362.9,380.52,363.36z"/>
			<path class="st4" d="M392,361.71c0-0.77-0.07-1.87-0.22-2.64h3.43c-0.09,0.77-0.2,1.74-0.2,2.64v3.26
				c2.95,0.86,7.17,2.42,9.2,3.41l-1.25,3.04c-2.27-1.19-5.57-2.46-7.94-3.28v6.23c0,0.64,0.11,2.18,0.2,3.08h-3.43
				c0.13-0.88,0.22-2.2,0.22-3.08V361.71z"/>
			<path class="st4" d="M417.7,361.56c-0.18,0.46-0.37,1.01-0.62,1.58h9.48c0.57,0,1.56-0.02,2.29-0.15V366
				c-0.81-0.07-1.78-0.09-2.29-0.09h-3.08c-0.4,5.85-2.68,9.77-6.67,12.28l-2.97-1.98c0.79-0.33,1.56-0.79,2.09-1.21
				c2.31-1.78,4.14-4.49,4.49-9.09h-4.64c-0.9,1.61-2.24,3.48-3.56,4.64l-2.75-1.67c1.56-1.19,2.97-3.17,3.81-4.53
				c0.59-1.03,1.01-2.18,1.28-3.01c0.26-0.73,0.42-1.56,0.46-2.25l3.39,0.66C418.16,360.31,417.87,361.08,417.7,361.56z
				 M427.47,361.71l-1.76,0.75c-0.46-0.9-1.14-2.2-1.74-3.06l1.76-0.7C426.28,359.49,427.05,360.9,427.47,361.71z M430.11,360.68
				l-1.76,0.77c-0.46-0.92-1.17-2.2-1.76-3.04l1.74-0.73C428.9,358.52,429.71,359.91,430.11,360.68z"/>
			<path class="st4" d="M437.96,366.42h11.82c1.03,0,2-0.09,2.57-0.13v3.45c-0.53-0.02-1.65-0.11-2.57-0.11h-11.82
				c-1.25,0-2.73,0.04-3.54,0.11v-3.45C435.21,366.36,436.81,366.42,437.96,366.42z"/>
			<path class="st4" d="M462.95,361.71c0-0.77-0.07-1.87-0.22-2.64h3.43c-0.09,0.77-0.2,1.74-0.2,2.64v3.26
				c2.95,0.86,7.17,2.42,9.2,3.41l-1.25,3.04c-2.27-1.19-5.57-2.46-7.94-3.28v6.23c0,0.64,0.11,2.18,0.2,3.08h-3.43
				c0.13-0.88,0.22-2.2,0.22-3.08V361.71z"/>
			<path class="st4" d="M498.66,357.71c1.43,0,2.62,1.19,2.62,2.64c0,1.43-1.19,2.62-2.62,2.62c-0.09,0-0.2,0-0.29-0.02
				c-0.07,0.24-0.11,0.46-0.18,0.66c-0.51,2.16-1.45,5.57-3.3,8.01c-1.98,2.64-4.93,4.82-8.84,6.09l-2.4-2.64
				c4.36-1.01,6.84-2.93,8.62-5.17c1.45-1.83,2.29-4.31,2.57-6.21h-10.23c-1.01,0-2.07,0.04-2.62,0.09v-3.1
				c0.64,0.09,1.89,0.18,2.62,0.18h10.19c0.31,0,0.79-0.02,1.25-0.09c-0.02-0.13-0.04-0.26-0.04-0.42
				C496.02,358.9,497.21,357.71,498.66,357.71z M498.66,361.6c0.68,0,1.25-0.57,1.25-1.25c0-0.7-0.57-1.28-1.25-1.28
				c-0.7,0-1.28,0.57-1.28,1.28C497.38,361.03,497.95,361.6,498.66,361.6z"/>
			<path class="st4" d="M522.81,366.91c-0.66,2.13-1.61,4.27-3.26,6.09c-2.22,2.46-5.04,3.96-7.85,4.75l-2.18-2.49
				c3.3-0.68,5.94-2.13,7.61-3.85c1.19-1.21,1.87-2.57,2.27-3.81h-10.63c-0.53,0-1.63,0.02-2.55,0.11v-2.86
				c0.92,0.07,1.87,0.13,2.55,0.13h10.89c0.7,0,1.3-0.09,1.61-0.22l1.96,1.21C523.08,366.27,522.9,366.66,522.81,366.91z
				 M510.54,359.71h8.47c0.68,0,1.76-0.02,2.38-0.11v2.84c-0.59-0.04-1.63-0.07-2.42-0.07h-8.43c-0.7,0-1.65,0.02-2.29,0.07v-2.84
				C508.86,359.69,509.79,359.71,510.54,359.71z"/>
			<path class="st4" d="M535.04,369.59l-2.68,1.01c-0.37-1.19-1.47-4.11-2-5.08l2.64-0.95C533.55,365.7,534.61,368.36,535.04,369.59
				z M545.69,366.62c-0.57,2.22-1.5,4.51-2.99,6.45c-2.05,2.64-4.8,4.49-7.37,5.46l-2.31-2.35c2.42-0.64,5.48-2.31,7.31-4.6
				c1.5-1.87,2.55-4.8,2.82-7.55l3.08,0.99C545.96,365.72,545.83,366.18,545.69,366.62z M539.91,368.23l-2.64,0.92
				c-0.26-1.08-1.23-3.74-1.78-4.88l2.62-0.86C538.52,364.35,539.6,367.21,539.91,368.23z"/>
			<path class="st4" d="M557.55,361.71c0-0.77-0.07-1.87-0.22-2.64h3.43c-0.09,0.77-0.2,1.74-0.2,2.64v3.26
				c2.95,0.86,7.17,2.42,9.2,3.41l-1.25,3.04c-2.27-1.19-5.57-2.46-7.94-3.28v6.23c0,0.64,0.11,2.18,0.2,3.08h-3.43
				c0.13-0.88,0.22-2.2,0.22-3.08V361.71z"/>
			<path class="st4" d="M593.37,363.36c-0.51,2.16-1.47,5.57-3.3,8.01c-2,2.64-4.93,4.82-8.85,6.07l-2.4-2.62
				c4.36-1.03,6.84-2.95,8.62-5.17c1.45-1.83,2.29-4.33,2.58-6.21h-10.25c-0.99,0-2.05,0.04-2.62,0.09v-3.1
				c0.66,0.07,1.91,0.18,2.64,0.18h10.17c0.44,0,1.14-0.02,1.74-0.18l2.16,1.39C593.65,362.26,593.48,362.9,593.37,363.36z"/>
			<path class="st4" d="M612.66,364.62c0,0.4,0.02,0.86,0.02,1.34h2.6c0.57,0,1.41-0.09,1.8-0.13v2.66
				c-0.53-0.02-1.21-0.04-1.69-0.04h-2.64c0.07,2.62,0.13,5.61,0.15,7.86c0.02,1.14-0.84,1.94-2.13,1.94
				c-1.06,0-2.42-0.04-3.41-0.11l-0.18-2.51c0.9,0.13,1.96,0.2,2.53,0.2c0.42,0,0.57-0.24,0.57-0.68c0-1.08-0.02-2.68-0.04-4.36
				c-1.54,1.96-4.51,4.42-7.11,5.79l-1.92-2.2c3.12-1.43,6.18-3.87,7.7-5.92h-4.71c-0.64,0-1.43,0.04-2.07,0.09v-2.71
				c0.53,0.07,1.43,0.13,2,0.13h5.99c0-0.48-0.02-0.92-0.04-1.34c-0.02-0.53-0.09-1.23-0.18-1.83h2.84
				C612.68,363.32,612.66,364.02,612.66,364.62z"/>
			<path class="st4" d="M627.16,366.42h11.82c1.03,0,2-0.09,2.58-0.13v3.45c-0.53-0.02-1.65-0.11-2.58-0.11h-11.82
				c-1.25,0-2.73,0.04-3.54,0.11v-3.45C624.41,366.36,626.01,366.42,627.16,366.42z"/>
			<path class="st4" d="M656.51,362.33c-0.7,2.16-2.49,7.75-3.59,10.69c2.68-0.26,5.81-0.62,8.03-0.88
				c-0.77-1.58-1.58-3.06-2.31-4.03l2.75-1.12c1.56,2.38,3.81,6.69,4.82,9.15l-2.97,1.32c-0.29-0.75-0.64-1.65-1.06-2.6
				c-3.56,0.42-10.23,1.12-13,1.41c-0.55,0.07-1.36,0.18-2.07,0.26l-0.51-3.21c0.75,0,1.69,0,2.42-0.02c0.18,0,0.4-0.02,0.59-0.02
				c1.28-3.26,3.17-9.29,3.81-11.57c0.31-1.12,0.44-1.8,0.53-2.55l3.5,0.73C657.17,360.55,656.84,361.36,656.51,362.33z"/>
		</g>
	</g>
	<g>
		
			<rect x="700.02" y="45.9" transform="matrix(-1.836970e-16 1 -1 -1.836970e-16 791.0665 -677.272)" class="st2" width="68.31" height="22"/>
		<polygon class="st2" points="734.17,112.84 752.45,91.05 715.88,91.05 		"/>
	</g>
	<g>
		
			<rect x="170.79" y="161.41" transform="matrix(-1.326144e-14 -1 1 -1.326144e-14 31.8722 376.6823)" class="st2" width="66.97" height="22"/>
		<polygon class="st2" points="204.28,117.84 185.99,140.92 222.56,140.92 		"/>
	</g>
	<g>
		<g>
			<path class="st4" d="M769.93,38.89c-0.02,0.44-0.04,0.92-0.06,1.42c1.32-0.16,2.64-0.42,3.68-0.72l0.06,2.48
				c-1.14,0.26-2.52,0.46-3.82,0.62c-0.02,0.6-0.02,1.22-0.02,1.8c0,0.24,0,0.48,0,0.74c1.36-0.34,2.74-0.52,3.84-0.52
				c3.08,0,5.5,1.6,5.5,4.36c0,2.36-1.24,4.14-4.42,4.94c-0.92,0.2-1.8,0.26-2.62,0.32l-0.92-2.58c0.9,0,1.76-0.02,2.46-0.14
				c1.62-0.3,2.9-1.1,2.9-2.56c0-1.36-1.2-2.16-2.94-2.16c-1.24,0-2.54,0.2-3.76,0.56c0.04,1.58,0.08,3.14,0.08,3.82
				c0,2.48-0.88,3.14-2.2,3.14c-1.94,0-4.68-1.68-4.68-3.8c0-1.74,2-3.56,4.46-4.62c-0.02-0.48-0.02-0.96-0.02-1.42
				c0-0.56,0-1.12,0-1.68c-0.38,0.02-0.74,0.04-1.06,0.04c-1.34,0-2.12-0.02-2.8-0.1l-0.04-2.42c1.18,0.14,2.04,0.16,2.76,0.16
				c0.36,0,0.76-0.02,1.16-0.04c0.02-0.7,0.02-1.28,0.02-1.62c0-0.42-0.08-1.4-0.14-1.76h2.76
				C770.05,37.51,769.97,38.37,769.93,38.89z M766.93,51.68c0.36,0,0.64-0.16,0.64-0.84c0-0.5-0.02-1.42-0.06-2.5
				c-1.22,0.66-2.04,1.48-2.04,2.18C765.47,51.14,766.41,51.68,766.93,51.68z M780.74,42.13l-1.2,2.04
				c-0.96-0.82-3.58-2.32-4.82-2.92l1.1-1.94C777.36,40.05,779.68,41.37,780.74,42.13z"/>
			<path class="st4" d="M790.15,41.74c-0.48,0.84-1.08,1.68-1.74,2.52v10.86h-2.3v-8.3c-0.6,0.6-1.2,1.16-1.8,1.62
				c-0.18-0.52-0.78-1.88-1.14-2.46c1.78-1.24,3.74-3.18,4.9-5.14L790.15,41.74z M789.81,37.39c-1.32,1.84-3.36,3.8-5.24,5.02
				c-0.24-0.54-0.82-1.52-1.18-2.02c1.56-0.96,3.32-2.58,4.16-3.92L789.81,37.39z M801.98,49.94h-2.74v2.84c0,1.1-0.2,1.66-0.98,2
				c-0.74,0.34-1.74,0.34-3.1,0.34c-0.1-0.64-0.44-1.52-0.74-2.12c0.84,0.04,1.78,0.04,2.04,0.04c0.28-0.02,0.36-0.1,0.36-0.32
				v-2.78h-4.2c0.8,0.76,1.78,1.8,2.28,2.5l-1.78,1.26c-0.44-0.76-1.46-1.94-2.3-2.78l1.48-0.98h-2.8v-2.02h7.32v-1.14h-6.84v-1.94
				h11.58v1.94h-2.32v1.14h2.72L801.98,49.94z M800.9,43.95h-9.9v-6.92h9.9V43.95z M798.5,38.69h-5.2v1h5.2V38.69z M798.5,41.25
				h-5.2v1.04h5.2V41.25z"/>
			<path class="st4" d="M809.43,51.82c0-1.06,0.76-1.78,1.76-1.78c1,0,1.76,0.72,1.76,1.78c0,1.04-0.76,1.76-1.76,1.76
				C810.17,53.58,809.43,52.86,809.43,51.82z M809.63,41.41l-0.1-2.98h3.32l-0.1,2.98l-0.54,6.84h-2.04L809.63,41.41z"/>
		</g>
		<g>
			<path class="st4" d="M798.59,77.56"/>
			<polygon class="st4" points="785.75,66.94 792.58,62.49 805.92,67.08 799.03,71.57 801.52,72.43 810.64,66.49 792.29,60.19 
				783.26,66.07 			"/>
			<polygon class="st4" points="793.08,75.44 784.7,80.91 771.35,76.32 779.8,70.81 777.31,69.95 766.64,76.9 784.98,83.21 
				795.57,76.31 			"/>
			<polygon class="st4" points="795.76,79.45 785.19,86.34 766.64,79.96 766.64,82.16 785.47,88.64 795.76,81.94 			"/>
			<polygon class="st4" points="801.58,75.66 801.58,78.14 810.64,72.24 810.64,69.76 			"/>
			<polygon class="st4" points="795.76,84.32 785.19,91.2 766.64,84.82 766.64,87.02 785.47,93.5 795.76,86.8 			"/>
			<polygon class="st4" points="801.58,80.53 801.58,83.01 810.64,77.11 810.64,74.63 			"/>
			<polygon class="st4" points="801.58,85.39 801.58,87.87 810.64,81.97 810.64,79.49 			"/>
			<polygon class="st4" points="795.76,89.18 785.19,96.07 766.64,89.69 766.64,91.89 785.47,98.37 795.76,91.67 			"/>
			<polygon class="st4" points="781.91,66.95 778.99,69 797.38,75.4 797.38,90.56 800.29,88.51 800.29,73.35 			"/>
			<path class="st4" d="M782.17,71.57l0.09,0l0.09,0.01l0.09,0.02l0.08,0.02l0.97,0.3l0.08,0.03l0.07,0.03l0.05,0.03l0.04,0.04
				l0.03,0.04l0.03,0.04l0.02,0.04l0.01,0.04l0,0.04l-0.01,0.04l-0.02,0.04l-0.03,0.04l-0.04,0.05l-0.04,0.05l-0.05,0.04l-0.06,0.04
				l-0.06,0.04l-0.07,0.04l-0.07,0.04l-0.08,0.03l-0.08,0.03l-0.08,0.03l-0.08,0.02l-0.08,0.02l-0.09,0.01l-0.09,0.01l-0.09,0.01
				h-0.09l-0.08-0.01l-0.09-0.01l-0.08-0.01l-0.08-0.02l-0.97-0.3l-0.08-0.03l-0.07-0.03l-0.06-0.03l-0.05-0.03l-0.04-0.04
				l-0.02-0.04l-0.02-0.04l0-0.04l0-0.04l0.01-0.04l0.02-0.04l0.03-0.04l0.03-0.05l0.04-0.05l0.05-0.04l0.06-0.04l0.06-0.04
				l0.07-0.04l0.07-0.03l0.08-0.03l0.08-0.03l0.08-0.02l0.08-0.02l0.08-0.02l0.09-0.01l0.08-0.01l0.09,0L782.17,71.57z
				 M783.11,72.18l-0.96-0.29l-0.08-0.02L782,71.85l-0.08,0l-0.08,0.01l-0.07,0.01l-0.07,0.02l-0.06,0.03l-0.06,0.03l-0.05,0.04
				l-0.03,0.04l-0.02,0.04l0,0.04l0.02,0.03l0.03,0.03l0.05,0.03l0.06,0.02l0.96,0.29l0.07,0.02l0.07,0.01l0.07,0l0.08-0.01
				l0.07-0.02l0.07-0.02l0.06-0.03l0.06-0.03l0.05-0.04l0.03-0.04l0.02-0.04v-0.04l-0.02-0.03l-0.03-0.03l-0.05-0.03L783.11,72.18"
				/>
			<path class="st4" d="M779.12,73.7l0.09,0.01l0.08,0.01l0.08,0.02l0.08,0.02l0.97,0.3l0.08,0.02l0.07,0.03l0.06,0.03l0.04,0.03
				l0.03,0.04l0.03,0.04l0.02,0.04l0.01,0.04l0,0.04l-0.01,0.04l-0.02,0.05l-0.03,0.05l-0.03,0.05l-0.04,0.04l-0.05,0.05l-0.06,0.04
				l-0.06,0.04l-0.07,0.04l-0.07,0.03l-0.08,0.03l-0.08,0.03l-0.08,0.02l-0.08,0.02l-0.09,0.02l-0.09,0.01l-0.09,0.01l-0.09,0.01
				h-0.09l-0.09-0.01l-0.08-0.01l-0.08-0.02l-0.08-0.02l-0.97-0.3l-0.08-0.03l-0.07-0.03l-0.06-0.03L778,74.49l-0.04-0.04
				l-0.03-0.04l-0.01-0.04l0-0.04l0-0.04l0.01-0.04l0.02-0.04l0.03-0.04l0.03-0.05l0.04-0.04l0.05-0.04l0.06-0.05l0.06-0.04
				l0.07-0.04l0.07-0.03l0.08-0.03l0.08-0.03l0.08-0.03l0.08-0.02l0.08-0.02l0.09-0.01l0.09-0.01l0.09-0.01L779.12,73.7L779.12,73.7
				z M780.06,74.31l-0.96-0.29L779.03,74l-0.08-0.01l-0.08,0l-0.07,0.01l-0.07,0.01l-0.07,0.02l-0.06,0.03l-0.06,0.03l-0.05,0.04
				l-0.03,0.04l-0.02,0.04l0,0.04l0.02,0.03l0.03,0.03l0.05,0.03l0.07,0.03l0.96,0.29l0.07,0.02l0.08,0.01l0.08,0l0.08,0l0.07-0.02
				l0.07-0.02l0.06-0.03l0.06-0.03l0.05-0.04l0.03-0.04l0.02-0.03v-0.03l-0.02-0.03l-0.03-0.03l-0.05-0.03L780.06,74.31"/>
			<path class="st4" d="M777.59,74.77l0.09,0.01l0.09,0.01l0.09,0.02l0.08,0.02l0.97,0.3l0.08,0.02l0.07,0.03l0.05,0.03l0.04,0.03
				l0.04,0.04l0.03,0.04l0.01,0.04l0.01,0.04v0.04l-0.01,0.04l-0.02,0.04l-0.03,0.04l-0.04,0.05l-0.04,0.04l-0.05,0.05l-0.06,0.04
				l-0.06,0.04l-0.07,0.04l-0.07,0.04l-0.08,0.03l-0.08,0.03l-0.08,0.02l-0.08,0.02L778.37,76l-0.09,0.01l-0.09,0.01l-0.09,0.01
				h-0.09l-0.08-0.01l-0.09-0.01L777.77,76l-0.08-0.02l-0.97-0.3l-0.08-0.03l-0.07-0.03l-0.06-0.03l-0.04-0.03l-0.04-0.04
				l-0.02-0.04l-0.01-0.04l-0.01-0.04l0-0.04l0.01-0.04l0.02-0.04l0.03-0.04l0.04-0.05l0.04-0.05l0.05-0.04l0.06-0.04l0.06-0.04
				l0.07-0.04l0.07-0.04l0.08-0.03l0.08-0.03l0.08-0.03l0.08-0.02l0.08-0.02l0.09-0.01l0.09-0.01l0.09,0L777.59,74.77L777.59,74.77z
				 M778.53,75.38l-0.96-0.29l-0.07-0.02l-0.08-0.01l-0.07,0l-0.07,0.01l-0.08,0.01l-0.07,0.02l-0.06,0.03l-0.06,0.03l-0.05,0.04
				l-0.03,0.04l-0.01,0.04l0,0.03l0.01,0.03l0.03,0.03l0.05,0.03l0.06,0.02l0.96,0.29l0.07,0.02l0.07,0.01l0.07,0l0.08-0.01
				l0.07-0.01l0.07-0.02l0.06-0.03l0.06-0.03l0.05-0.04l0.03-0.04l0.02-0.04l0-0.03l-0.02-0.03l-0.03-0.03l-0.05-0.03L778.53,75.38"
				/>
			<polygon class="st4" points="775.42,75.9 777.73,76.61 777.37,76.87 775.51,76.3 775.51,76.71 775.06,76.57 775.05,76.16 			"/>
			<path class="st4" d="M780.64,72.64l0.09,0l0.09,0.01l0.09,0.02l0.09,0.02l0.97,0.3l0.08,0.03l0.07,0.03l0.06,0.03l0.04,0.04
				l0.04,0.04l0.03,0.04l0.01,0.04l0.01,0.04l0,0.04l-0.01,0.04l-0.02,0.04l-0.03,0.04l-0.03,0.05l-0.04,0.05l-0.05,0.04l-0.06,0.04
				l-0.06,0.04l-0.07,0.04l-0.07,0.03l-0.08,0.03l-0.08,0.03l-0.08,0.03l-0.08,0.02l-0.08,0.02l-0.09,0.01l-0.09,0.01l-0.09,0
				l-0.09,0l-0.09,0l-0.09-0.01l-0.08-0.02l-0.08-0.02l-0.97-0.3l-0.08-0.03l-0.07-0.03l-0.06-0.03l-0.04-0.03l-0.04-0.04
				l-0.03-0.04l-0.02-0.04l-0.01-0.04l0-0.04l0.01-0.04l0.02-0.05l0.03-0.05l0.03-0.04l0.04-0.05l0.05-0.04l0.06-0.04l0.06-0.04
				l0.07-0.04l0.07-0.03l0.08-0.03l0.08-0.03l0.08-0.03l0.08-0.02l0.08-0.02l0.09-0.01l0.09-0.01l0.09-0.01L780.64,72.64z
				 M781.59,73.24l-0.96-0.29l-0.07-0.02l-0.07-0.01l-0.08,0l-0.07,0.01l-0.07,0.02l-0.07,0.02l-0.06,0.03l-0.06,0.03l-0.05,0.04
				l-0.03,0.04l-0.02,0.04l0,0.03l0.01,0.03l0.03,0.03l0.05,0.03l0.07,0.02l0.96,0.29l0.07,0.02l0.07,0.01h0.08l0.08-0.01l0.07-0.02
				l0.07-0.02l0.06-0.03l0.06-0.03l0.05-0.04l0.03-0.04l0.02-0.04l0-0.03l-0.02-0.03l-0.03-0.03l-0.05-0.03L781.59,73.24"/>
			<path class="st4" d="M790.19,67.04l0.05-0.03l0.06-0.04l0.07-0.05l0.08-0.05l0.09-0.06l0.1-0.06l0.11-0.08l0.12-0.09l0.09-0.06
				l0.09-0.07l0.09-0.08l0.1-0.08l0.05-0.04l0.05-0.04l0.05-0.04l0.05-0.03c0.17-0.13,0.33-0.22,0.46-0.28
				c0.14-0.06,0.25-0.1,0.34-0.12s0.17-0.02,0.22-0.02l0.08,0.01l0.02-0.05l0.03-0.04l0.04-0.05l0.05-0.04
				c0.1-0.07,0.25-0.14,0.43-0.18c0.18-0.05,0.39-0.08,0.61-0.09c0.22-0.01,0.45,0.01,0.67,0.05c0.22,0.04,0.44,0.12,0.63,0.23
				l0.1,0.06l0.08,0.07l0.07,0.07l0.06,0.07l0.07,0.03l0.15,0l0.15,0.02l0.15,0.05l0.13,0.07l0.11,0.09l0.08,0.09l0.06,0.1
				l0.05,0.11l0.07,0.08l0.07,0.08l0.06,0.08l0.05,0.09l0.06,0.05c0.13,0.09,0.21,0.19,0.26,0.28c0.05,0.1,0.07,0.19,0.09,0.29
				c0.02,0.09,0.05,0.19,0.12,0.28c0.06,0.09,0.16,0.18,0.33,0.26c0.08,0.04,0.24,0.01,0.45-0.04c0.21-0.06,0.47-0.14,0.77-0.21
				c0.3-0.07,0.63-0.12,0.97-0.11s0.71,0.08,1.07,0.27l0.01,0.08c-0.01,0.06-0.05,0.15-0.15,0.28c-0.1,0.13-0.27,0.32-0.54,0.56
				s-0.64,0.55-1.16,0.92c-0.52,0.38-0.94,0.66-1.28,0.86c-0.34,0.2-0.61,0.34-0.81,0.42c-0.2,0.09-0.34,0.12-0.43,0.14
				c-0.09,0.02-0.13,0.01-0.14,0.01c-0.36-0.18-0.55-0.38-0.63-0.59c-0.08-0.2-0.06-0.41,0-0.6c0.06-0.19,0.15-0.36,0.2-0.5
				c0.06-0.14,0.08-0.23-0.01-0.28c-0.17-0.08-0.33-0.13-0.49-0.15c-0.16-0.02-0.32-0.02-0.48-0.02s-0.32,0.01-0.48,0
				c-0.16-0.01-0.33-0.04-0.5-0.1l-0.14-0.04l-0.13-0.03l-0.13-0.02l-0.12-0.01c-0.09,0-0.16-0.01-0.24-0.01
				c-0.07-0.01-0.14-0.01-0.21-0.02c-0.07-0.01-0.13-0.02-0.19-0.03c-0.06-0.01-0.13-0.03-0.2-0.05c-0.07-0.02-0.12-0.05-0.17-0.08
				l-0.11-0.1l-0.05-0.11l0.01-0.11l-0.05-0.04c-0.31-0.02-0.58-0.09-0.81-0.18s-0.42-0.19-0.57-0.3c-0.15-0.11-0.27-0.21-0.36-0.3
				c-0.09-0.09-0.15-0.16-0.17-0.19l-0.02-0.04l0-0.03l0.03-0.04L790.19,67.04z"/>
		</g>
	</g>
</g>
</svg>
