<?xml version="1.0" encoding="utf-8"?>
<!-- Generator: Adobe Illustrator 24.0.1, SVG Export Plug-In . SVG Version: 6.00 Build 0)  -->
<svg version="1.1" id="レイヤー_1" xmlns="http://www.w3.org/2000/svg" xmlns:xlink="http://www.w3.org/1999/xlink" x="0px"
	 y="0px" viewBox="0 0 280 200" style="enable-background:new 0 0 280 200;" xml:space="preserve">
<style type="text/css">
	.st0{fill:none;}
	.st1{fill:#00395B;}
	.st2{fill:#D0A867;}
	.st3{fill:none;stroke:#CCCCCC;stroke-miterlimit:10;}
	.st4{fill:none;stroke:#CCCCCC;stroke-miterlimit:10;stroke-dasharray:3.9443,5.9164;}
	.st5{clip-path:url(#SVGID_2_);fill:#00395B;}
	.st6{clip-path:url(#SVGID_4_);fill:#00395B;}
	.st7{clip-path:url(#SVGID_6_);fill:#FFC89E;}
	.st8{clip-path:url(#SVGID_8_);}
	.st9{fill:#FFDAB0;}
	.st10{fill:#271700;}
	.st11{fill:#271700;stroke:#271700;stroke-linecap:round;stroke-linejoin:round;stroke-miterlimit:10;}
	.st12{fill:#FFA69D;}
	.st13{fill:#481600;}
	.st14{clip-path:url(#SVGID_10_);fill:#FFFFFF;}
	.st15{clip-path:url(#SVGID_12_);fill:#828785;}
	.st16{clip-path:url(#SVGID_14_);fill:#828785;}
	.st17{clip-path:url(#SVGID_16_);fill:#FFFFFF;}
	.st18{clip-path:url(#SVGID_18_);}
	.st19{fill:none;stroke:#26546E;stroke-linecap:round;stroke-linejoin:round;stroke-miterlimit:10;}
	.st20{fill:#652A2C;}
	.st21{fill:#210000;}
	.st22{fill:#FFD29C;}
	.st23{fill:#00395B;stroke:#26546E;stroke-linecap:round;stroke-linejoin:round;stroke-miterlimit:10;}
</style>
<g>
	<rect y="-0.02" class="st0" width="280" height="160"/>
	<g>
		<rect x="165.42" y="76.79" class="st1" width="27" height="77.56"/>
		<rect x="201.42" y="76.79" class="st1" width="27" height="77.56"/>
		<rect x="235.92" y="76.79" class="st2" width="30" height="77.56"/>
		<rect x="129.42" y="76.79" class="st1" width="27" height="77.56"/>
		<g>
			<rect x="129.42" y="55.63" class="st1" width="27" height="21.15"/>
		</g>
		<g>
			<rect x="201.42" y="55.63" class="st1" width="27" height="21.15"/>
			<rect x="201.42" y="34.48" class="st1" width="27" height="21.15"/>
		</g>
		<g>
			<rect x="235.92" y="55.63" class="st2" width="30" height="21.15"/>
			<rect x="235.92" y="34.48" class="st2" width="30" height="21.15"/>
			<rect x="235.92" y="13.33" class="st2" width="30" height="21.15"/>
		</g>
	</g>
	<line class="st3" x1="278.24" y1="154.05" x2="1.58" y2="154.05"/>
	<g>
		<g>
			<line class="st3" x1="276.24" y1="55.34" x2="274.24" y2="55.34"/>
			<line class="st4" x1="268.33" y1="55.34" x2="123.38" y2="55.34"/>
			<line class="st3" x1="120.42" y1="55.34" x2="118.42" y2="55.34"/>
		</g>
	</g>
	<g>
		<g>
			<defs>
				<rect id="SVGID_1_" x="15.32" y="0.98" width="101.06" height="159.02"/>
			</defs>
			<clipPath id="SVGID_2_">
				<use xlink:href="#SVGID_1_"  style="overflow:visible;"/>
			</clipPath>
			<path class="st5" d="M21.63,160.21c0,0-1.9-40.04-1.9-52.13s30.39-22.02,48.93-21.21c18.54,0.81,45.15,7.51,45.15,15.57
				s-1.63,58.32-1.63,58.32L21.63,160.21z"/>
		</g>
		<g>
			<defs>
				<rect id="SVGID_3_" x="15.32" y="0.98" width="101.06" height="159.02"/>
			</defs>
			<clipPath id="SVGID_4_">
				<use xlink:href="#SVGID_3_"  style="overflow:visible;"/>
			</clipPath>
			<path class="st6" d="M51.93,97.34c0,0-1.44-8.39-1.68-9.83s8.39-1.92,15.58-1.92s15.1-0.48,15.1,1.44
				c0,1.92-2.16,11.02-2.16,11.02L51.93,97.34z"/>
		</g>
		<g>
			<defs>
				<rect id="SVGID_5_" x="15.32" y="0.98" width="101.06" height="159.02"/>
			</defs>
			<clipPath id="SVGID_6_">
				<use xlink:href="#SVGID_5_"  style="overflow:visible;"/>
			</clipPath>
			<polygon class="st7" points="53.88,76.61 55.49,96.62 75.64,95.87 76.45,72.08 			"/>
		</g>
		<g>
			<defs>
				<rect id="SVGID_7_" x="15.32" y="0.98" width="101.06" height="159.02"/>
			</defs>
			<clipPath id="SVGID_8_">
				<use xlink:href="#SVGID_7_"  style="overflow:visible;"/>
			</clipPath>
			<g class="st8">
				<path class="st9" d="M62.84,11.45c19.3,0,24.43,14.57,24.86,19.71s-0.75,33.21-2.14,36C83.41,71.45,69.69,82.6,65.41,82.6
					c-3.46,0-19.95-7.71-21.66-10.71s-4.91-38.14-5.34-41.14S44.84,11.45,62.84,11.45z"/>
				<path class="st9" d="M42.19,41.54c-1.19-2.64-7.58-7.53-9.51-2.69s0.73,15.28,7.52,17.09C46.99,57.75,42.19,41.54,42.19,41.54z"
					/>
				<path class="st9" d="M85.11,40.52c1.3-2.59,7.88-7.22,9.61-2.3s-1.36,15.24-8.22,16.76C79.64,56.51,85.11,40.52,85.11,40.52z"/>
				<ellipse class="st10" cx="73.34" cy="38.88" rx="1.93" ry="3"/>
				<ellipse class="st10" cx="52.98" cy="40.17" rx="1.71" ry="3"/>
				<polygon class="st11" points="65.76,55.4 58.55,56.45 62.84,39.31 59.46,55.72 				"/>
				<path class="st12" d="M53.84,65.45c0,0,4.81-0.29,9.87-1.25c6.45-1.22,11.13-2.61,11.13-2.61s-4.6,8.89-10.23,9.46
					C57.42,71.78,53.84,65.45,53.84,65.45z"/>
				<path class="st13" d="M42.5,32.88l-0.87,15.55c0,0-9.38-19.51-4.24-29.59C42.93,7.96,52.12,8.03,52.12,8.03s-1.71-0.43-5.14,0
					c6-3.86,18.43-6.43,27.86-2.14c-0.26-1.33-1.09-2.08-1.09-2.08s10.33,1.91,13.27,9.27c8.57,6.43,5.82,15.95,4.54,21.09
					S85.85,47.3,85.85,47.3l-1.51-15.55c-4.56-1.88-9-5.02-10.29-10.17c0,0-10.78,5.31-17.2,7.45c2.57-2.34,2.82-4.78,2.82-4.78
					S51.93,31.17,42.5,32.88z"/>
			</g>
		</g>
		<g>
			<defs>
				<rect id="SVGID_9_" x="15.32" y="0.98" width="101.06" height="159.02"/>
			</defs>
			<clipPath id="SVGID_10_">
				<use xlink:href="#SVGID_9_"  style="overflow:visible;"/>
			</clipPath>
			<path class="st14" d="M51.46,99.74c0,0,15.82,53.68,15.82,52.48S80.7,98.78,80.7,98.78l-15.34-4.07L51.46,99.74z"/>
		</g>
		<g>
			<defs>
				<rect id="SVGID_11_" x="15.32" y="0.98" width="101.06" height="159.02"/>
			</defs>
			<clipPath id="SVGID_12_">
				<use xlink:href="#SVGID_11_"  style="overflow:visible;"/>
			</clipPath>
			<polygon class="st15" points="62.48,95.9 64.64,101.9 68.95,102.13 70.15,95.9 65.36,94.71 			"/>
		</g>
		<g>
			<defs>
				<rect id="SVGID_13_" x="15.32" y="0.98" width="101.06" height="159.02"/>
			</defs>
			<clipPath id="SVGID_14_">
				<use xlink:href="#SVGID_13_"  style="overflow:visible;"/>
			</clipPath>
			<polygon class="st16" points="64.64,101.08 61.76,134.97 67.27,152.22 71.35,134.97 68.95,102.13 			"/>
		</g>
		<g>
			<defs>
				<rect id="SVGID_15_" x="15.32" y="0.98" width="101.06" height="159.02"/>
			</defs>
			<clipPath id="SVGID_16_">
				<use xlink:href="#SVGID_15_"  style="overflow:visible;"/>
			</clipPath>
			<polygon class="st17" points="53.13,89.91 65.36,94.71 77.82,88.95 80.69,98.78 65.36,94.71 51.46,99.74 			"/>
		</g>
		<g>
			<defs>
				<rect id="SVGID_17_" x="15.32" y="0.98" width="101.06" height="159.02"/>
			</defs>
			<clipPath id="SVGID_18_">
				<use xlink:href="#SVGID_17_"  style="overflow:visible;"/>
			</clipPath>
			<g class="st18">
				<polyline class="st19" points="48.34,93.99 40.91,111.72 49.06,114.36 42.83,117.71 62.72,157.73 				"/>
				<polyline class="st19" points="81.65,92.31 90.76,109.08 82.37,113.64 90.76,116.99 70.78,157.73 				"/>
				<line class="st19" x1="36.47" y1="155.67" x2="35.07" y2="113.11"/>
				<line class="st19" x1="99.55" y1="115.97" x2="97.42" y2="156.38"/>
				<g>
					<g>
						
							<rect x="49.16" y="120.62" transform="matrix(0.3679 -0.9299 0.9299 0.3679 -82.469 156.3695)" class="st20" width="49.24" height="36.45"/>
						<path class="st21" d="M66.16,109.89l32.96,13.04l-17.75,44.85l-32.96-13.04L66.16,109.89 M65.6,108.6l-18.48,46.71
							l34.82,13.78l18.48-46.71L65.6,108.6L65.6,108.6z"/>
					</g>
					<g>
						<g>
							<path class="st22" d="M62.21,144.83c0,0-13.83-4.31-15.41-6.77c-1.58-2.45,1.38-13.68,3.27-15.11
								c1.89-1.44,14.82,5.85,19.38,11.58C74.02,140.27,63.98,145.21,62.21,144.83z"/>
							<path class="st22" d="M57.11,125.79c0,0-0.53-4.86,2.75-4.15c3.27,0.71,10.15,10.37,9.6,12.89s-5.05,6.29-10.07,3.88
								C54.37,136.01,54.36,129.94,57.11,125.79z"/>
						</g>
						<path class="st23" d="M111.84,167.28c-1.01,2.27-3.7,3.26-5.94,2.17l-44.35-23.37l7.03-15.17l34.31,18.03"/>
					</g>
				</g>
			</g>
		</g>
	</g>
</g>
<g>
	<g>
		<path class="st1" d="M92.34,173.74c-0.88,6.6-3.74,9.28-7.85,11.6l-2.39-2.55c4.13-1.9,5.2-3.74,5.88-5.72H70.45v-3.33H92.34z
			 M70.63,192.33c7.23-2.86,7.98-7.83,7.96-13.05l3.59,0.03c-0.13,6.03-1.09,11.99-9.26,15.83L70.63,192.33z"/>
		<path class="st1" d="M118.31,188.17c-4.06-2.63-6.37-3.82-10.45-5.41v12.35h-3.74v-22.21h3.74v6.27c5.51,1.85,8.61,3.28,12.3,5.38
			L118.31,188.17z M114.41,173.66c1.25,1.59,2.08,3.35,2.78,4.94l-2.16,1.2c-0.78-2.03-1.46-3.3-2.65-5.04L114.41,173.66z
			 M118.11,171.92c1.12,1.43,1.87,2.83,2.83,4.91l-2.13,1.17c-0.88-2.16-1.46-3.2-2.73-5.02L118.11,171.92z"/>
		<path class="st1" d="M136.36,174.5c-0.94,8.55-3.2,14.9-6.34,20.07l-3.46-1.77c1.48-2.31,4.99-7.93,6.21-18.8L136.36,174.5z
			 M145.61,194.07c-1.4-7.77-3.33-13.29-6.03-18.82l3.22-1.43c2.42,4.55,5.25,11.44,6.58,19.29L145.61,194.07z M145.95,172.26
			c1.14,1.74,1.82,3.3,2.44,4.99l-1.9,1.01c-0.73-2.16-1.22-3.25-2.34-5.1L145.95,172.26z M149.28,170.85
			c1.07,1.59,1.61,2.81,2.47,4.99l-1.9,1.01c-0.68-2.08-1.22-3.25-2.34-5.07L149.28,170.85z"/>
		<path class="st1" d="M170.34,195.04h-3.69v-11c-4.19,2.6-7.62,3.77-9.07,4.24l-1.72-3.07c11.05-3.46,16.98-10.63,18.57-12.58
			l3.12,2.16c-1.01,1.12-3.48,3.9-7.2,6.71V195.04z"/>
		<path class="st1" d="M203.31,174.1c-1.07,5.28-2.99,8.5-4.65,10.82c3.95,3.12,5.36,4.26,8.45,7.33l-2.91,2.81
			c-1.59-1.77-3.8-4.19-7.67-7.57c-2.44,2.73-6.16,5.77-10.11,7.51l-1.98-2.89c3.77-1.61,6.42-3.43,9.2-6.45
			c2.81-3.04,4.19-5.82,5.1-8.29h-12.87v-3.28H203.31z"/>
	</g>
</g>
</svg>
