<?xml version="1.0" encoding="utf-8"?>
<!-- Generator: Adobe Illustrator 24.0.1, SVG Export Plug-In . SVG Version: 6.00 Build 0)  -->
<svg version="1.1" id="レイヤー_1" xmlns="http://www.w3.org/2000/svg" xmlns:xlink="http://www.w3.org/1999/xlink" x="0px"
	 y="0px" viewBox="0 0 140.18 40" style="enable-background:new 0 0 140.18 40;" xml:space="preserve">
<style type="text/css">
	.st0{fill:#A6A6A6;}
	.st1{fill:#FFFFFF;}
</style>
<g>
	<g>
		<path class="st0" d="M130.65,0H9.53C9.17,0,8.81,0,8.44,0C8.13,0,7.83,0.01,7.52,0.01c-0.67,0.01-1.34,0.07-2,0.18
			c-0.66,0.11-1.3,0.32-1.9,0.63C3.02,1.12,2.47,1.52,2,2C1.52,2.47,1.12,3.02,0.82,3.62c-0.3,0.6-0.51,1.24-0.62,1.9
			c-0.11,0.66-0.17,1.33-0.18,2C0.01,7.83,0,8.14,0,8.44v23.11c0,0.31,0.01,0.61,0.02,0.92c0.01,0.67,0.07,1.34,0.18,2
			c0.11,0.66,0.32,1.31,0.62,1.9c0.3,0.6,0.7,1.14,1.18,1.61c0.47,0.48,1.02,0.87,1.62,1.18c0.6,0.3,1.24,0.52,1.9,0.63
			c0.66,0.11,1.33,0.17,2,0.18C7.83,39.99,8.13,40,8.44,40c0.37,0,0.73,0,1.09,0h121.12c0.36,0,0.72,0,1.08,0
			c0.3,0,0.62,0,0.92-0.01c0.67-0.01,1.34-0.07,2-0.18c0.66-0.11,1.31-0.33,1.91-0.63c0.6-0.3,1.14-0.7,1.62-1.18
			c0.48-0.47,0.87-1.02,1.18-1.61c0.3-0.6,0.51-1.24,0.62-1.9c0.11-0.66,0.17-1.33,0.19-2c0-0.31,0-0.61,0-0.92
			c0.01-0.36,0.01-0.72,0.01-1.09V9.54c0-0.37,0-0.73-0.01-1.09c0-0.31,0-0.61,0-0.92c-0.01-0.67-0.07-1.34-0.19-2
			c-0.11-0.66-0.32-1.3-0.62-1.9c-0.62-1.2-1.6-2.18-2.8-2.8c-0.6-0.3-1.24-0.51-1.91-0.63c-0.66-0.11-1.33-0.17-2-0.18
			c-0.3,0-0.62-0.01-0.92-0.01C131.38,0,131.01,0,130.65,0L130.65,0z"/>
		<path d="M8.44,39.13c-0.3,0-0.6,0-0.9-0.01c-0.63-0.01-1.25-0.06-1.87-0.16c-0.58-0.1-1.13-0.28-1.66-0.55
			c-0.52-0.26-0.99-0.61-1.4-1.02c-0.41-0.41-0.76-0.88-1.02-1.4c-0.26-0.52-0.45-1.08-0.54-1.66c-0.1-0.62-0.16-1.25-0.17-1.88
			c-0.01-0.21-0.01-0.91-0.01-0.91V8.44c0,0,0.01-0.69,0.01-0.89C0.9,6.92,0.95,6.3,1.05,5.68C1.15,5.1,1.33,4.54,1.6,4.02
			c0.26-0.52,0.6-0.99,1.02-1.4C3.02,2.21,3.5,1.86,4.01,1.6c0.52-0.26,1.08-0.45,1.65-0.54c0.62-0.1,1.25-0.16,1.88-0.16l0.9-0.01
			h123.29l0.91,0.01c0.62,0.01,1.24,0.06,1.86,0.16c0.58,0.1,1.14,0.28,1.67,0.55c1.04,0.53,1.88,1.38,2.41,2.42
			c0.26,0.52,0.44,1.08,0.54,1.65c0.1,0.62,0.16,1.25,0.17,1.89c0,0.28,0,0.59,0,0.89c0.01,0.38,0.01,0.73,0.01,1.09v20.93
			c0,0.36,0,0.72-0.01,1.08c0,0.33,0,0.62,0,0.93c-0.01,0.62-0.07,1.24-0.17,1.85c-0.09,0.58-0.28,1.14-0.54,1.67
			c-0.26,0.51-0.61,0.98-1.02,1.39c-0.41,0.41-0.88,0.76-1.4,1.02c-0.53,0.27-1.09,0.45-1.67,0.55c-0.62,0.1-1.24,0.16-1.87,0.16
			c-0.29,0.01-0.6,0.01-0.9,0.01l-1.08,0L8.44,39.13z"/>
	</g>
	<g>
		<path class="st1" d="M44.59,19.43V11.6h-0.05l-3.2,7.74h-1.22L36.9,11.6h-0.05v7.82h-1.5V8.8h1.91l3.44,8.39h0.06l3.43-8.39h1.92
			v10.63H44.59z"/>
		<path class="st1" d="M47.37,17.23c0-1.35,1.04-2.17,2.88-2.28l2.12-0.12v-0.59c0-0.86-0.57-1.35-1.53-1.35
			c-0.74-0.1-1.44,0.37-1.63,1.09h-1.49c0.04-1.4,1.35-2.39,3.16-2.39c1.85,0,3.07,1.01,3.07,2.53v5.31h-1.52v-1.27H52.4
			c-0.5,0.88-1.43,1.42-2.45,1.41c-1.29,0.13-2.44-0.82-2.57-2.11C47.38,17.38,47.37,17.3,47.37,17.23z M52.37,16.53v-0.6
			l-1.91,0.12c-0.95,0.06-1.49,0.47-1.49,1.13c0,0.68,0.56,1.12,1.41,1.12c1.02,0.07,1.91-0.7,1.98-1.73
			C52.37,16.56,52.37,16.54,52.37,16.53L52.37,16.53z"/>
		<path class="st1" d="M60.64,14.34c-0.14-0.88-0.94-1.5-1.83-1.43c-1.22,0-2.03,1.02-2.03,2.64c0,1.65,0.82,2.64,2.05,2.64
			c0.88,0.09,1.67-0.52,1.81-1.39h1.53c-0.2,1.67-1.69,2.87-3.36,2.72c-2.21,0-3.65-1.51-3.65-3.97c0-2.41,1.44-3.97,3.64-3.97
			c1.68-0.14,3.17,1.08,3.36,2.76L60.64,14.34z"/>
		<path class="st1" d="M72.5,16.55h-4.05l-0.97,2.87h-1.72L69.6,8.8h1.78l3.84,10.63h-1.75L72.5,16.55z M68.87,15.23h3.21
			l-1.58-4.66h-0.04L68.87,15.23z"/>
		<path class="st1" d="M83.51,15.55c0,2.41-1.29,3.96-3.23,3.96c-1.01,0.05-1.95-0.47-2.44-1.36H77.8v3.84h-1.59V11.68h1.54v1.29
			h0.03c0.51-0.88,1.46-1.4,2.47-1.37C82.21,11.6,83.51,13.15,83.51,15.55z M81.87,15.55c0-1.57-0.81-2.6-2.05-2.6
			c-1.22,0-2.03,1.05-2.03,2.6c0,1.56,0.82,2.61,2.03,2.61C81.06,18.16,81.87,17.14,81.87,15.55L81.87,15.55z"/>
		<path class="st1" d="M92.04,15.55c0,2.41-1.29,3.96-3.23,3.96c-1.01,0.05-1.95-0.47-2.44-1.36h-0.04v3.84h-1.59V11.68h1.54v1.29
			h0.03c0.51-0.88,1.46-1.4,2.47-1.37C90.74,11.6,92.04,13.15,92.04,15.55z M90.4,15.55c0-1.57-0.81-2.6-2.05-2.6
			c-1.22,0-2.03,1.05-2.03,2.6c0,1.56,0.82,2.61,2.03,2.61C89.59,18.16,90.4,17.14,90.4,15.55L90.4,15.55z"/>
		<path class="st1" d="M97.68,16.47c0.12,1.05,1.14,1.75,2.54,1.75c1.34,0,2.31-0.69,2.31-1.64c0-0.82-0.58-1.32-1.96-1.66
			l-1.38-0.33c-1.95-0.47-2.86-1.38-2.86-2.87c0-1.83,1.6-3.09,3.87-3.09c2.25,0,3.79,1.26,3.84,3.09h-1.61
			c-0.1-1.06-0.97-1.7-2.25-1.7s-2.16,0.65-2.16,1.59c0,0.75,0.56,1.19,1.93,1.53l1.17,0.29c2.18,0.52,3.09,1.39,3.09,2.95
			c0,1.99-1.58,3.23-4.1,3.23c-2.36,0-3.95-1.22-4.05-3.14L97.68,16.47z"/>
		<path class="st1" d="M107.64,9.84v1.83h1.47v1.26h-1.47v4.27c0,0.66,0.3,0.97,0.94,0.97c0.17,0,0.35-0.02,0.52-0.04v1.25
			c-0.29,0.05-0.59,0.08-0.88,0.07c-1.57,0-2.18-0.59-2.18-2.09v-4.44h-1.13v-1.26h1.13V9.84H107.64z"/>
		<path class="st1" d="M109.96,15.55c0-2.44,1.44-3.97,3.68-3.97c2.25,0,3.68,1.53,3.68,3.97c0,2.44-1.42,3.97-3.68,3.97
			C111.38,19.52,109.96,18,109.96,15.55z M115.69,15.55c0-1.67-0.77-2.66-2.06-2.66s-2.06,0.99-2.06,2.66
			c0,1.68,0.77,2.66,2.06,2.66S115.69,17.23,115.69,15.55z"/>
		<path class="st1" d="M118.62,11.68h1.52V13h0.04c0.21-0.85,0.99-1.43,1.86-1.4c0.18,0,0.37,0.02,0.54,0.06v1.49
			c-0.23-0.07-0.47-0.1-0.71-0.1c-0.88-0.04-1.63,0.65-1.67,1.54c0,0.08,0,0.16,0.01,0.25v4.6h-1.59L118.62,11.68z"/>
		<path class="st1" d="M129.92,17.15c-0.36,1.51-1.79,2.53-3.34,2.37c-2.25,0-3.65-1.51-3.65-3.93c0-2.43,1.41-4.01,3.59-4.01
			c2.14,0,3.49,1.47,3.49,3.82v0.55h-5.47v0.1c-0.1,1.11,0.72,2.09,1.83,2.19c0.08,0.01,0.17,0.01,0.25,0.01
			c0.77,0.07,1.5-0.37,1.79-1.09L129.92,17.15z M124.54,14.84h3.87c0.06-1.03-0.73-1.91-1.76-1.96c-0.05,0-0.1,0-0.14,0
			c-1.08-0.01-1.97,0.87-1.97,1.95C124.54,14.83,124.54,14.83,124.54,14.84z"/>
	</g>
	<g>
		<path class="st1" d="M36.44,30.81l0.07-0.82c0.31,0.1,0.63,0.15,0.95,0.15c0.29,0,0.4-0.03,0.55-0.23
			c0.34-0.72,0.49-1.52,0.43-2.32c0-0.85-0.26-1.09-0.93-1.09c-0.15,0-0.32,0.01-0.51,0.02c-0.36,1.46-0.96,2.86-1.77,4.12
			l-0.78-0.42c0.76-1.1,1.32-2.32,1.65-3.62c-0.52,0.06-1.03,0.14-1.53,0.25l-0.17-0.83c0.57-0.1,1.26-0.2,1.9-0.25
			c0.13-0.63,0.23-1.26,0.29-1.89L37.5,24c-0.08,0.57-0.19,1.15-0.32,1.71h0.37c1.2,0,1.77,0.59,1.77,1.85
			c0.05,0.96-0.14,1.92-0.55,2.8c-0.22,0.41-0.67,0.65-1.13,0.6C37.24,30.96,36.83,30.91,36.44,30.81z M39.47,25.74l0.69-0.46
			c0.95,0.92,1.53,2.16,1.61,3.48l-0.9,0.14C40.85,27.7,40.34,26.56,39.47,25.74z"/>
		<path class="st1" d="M44.89,30.94L44.7,30.1c0.24,0.02,0.55,0.03,0.73,0.03c1.86,0,2.57-0.53,2.57-1.31c0-0.62-0.4-0.98-1.31-0.98
			c-0.99,0.09-1.9,0.54-2.58,1.26l-0.73-0.32c-0.14-1.23,0.14-2.48,0.8-3.53l0.84,0.27c-0.52,0.71-0.78,1.57-0.72,2.45
			c0.76-0.53,1.65-0.84,2.57-0.88c1.26,0,2.04,0.65,2.04,1.7c0,1.34-1.05,2.16-3.59,2.16C45.22,30.95,45.04,30.94,44.89,30.94z
			 M44.01,24.69l0.24-0.83c1.25,0.19,2.49,0.47,3.7,0.85l-0.23,0.82C46.51,25.14,45.27,24.86,44.01,24.69L44.01,24.69z"/>
		<path class="st1" d="M51.65,30.29c0.97-0.32,1.84-0.88,2.53-1.64c-0.55-0.45-1.14-0.85-1.76-1.19l0.52-0.65
			c0.63,0.32,1.23,0.7,1.79,1.13c0.45-0.66,0.76-1.4,0.92-2.17h-2.4c-0.55,0.89-1.24,1.69-2.05,2.36l-0.69-0.59
			c1.16-0.96,2.06-2.2,2.62-3.6l0.9,0.22c-0.1,0.26-0.21,0.54-0.33,0.79h2.33l0.67,0.31c-0.33,2.6-2.06,4.82-4.51,5.76L51.65,30.29z
			 M55.62,23.72l0.53-0.25c0.27,0.36,0.49,0.75,0.67,1.16l-0.59,0.27C56.08,24.48,55.88,24.09,55.62,23.72z M56.8,23.63l0.54-0.25
			c0.27,0.37,0.5,0.77,0.69,1.19l-0.59,0.25C57.27,24.39,57.06,23.99,56.8,23.63L56.8,23.63z"/>
		<path class="st1" d="M60.92,30.99l-0.48-0.76c2.01-0.32,3.45-2.12,3.31-4.15H59.8v1.89h-0.95v-2.69h2.36v-1.38h0.95v1.38h1.76
			l0.87,0.25C64.68,28.19,63.78,30.24,60.92,30.99z"/>
		<path class="st1" d="M66.62,25.34l0.53-0.77c0.82,0.38,1.6,0.85,2.32,1.4l-0.6,0.81C68.18,26.21,67.43,25.73,66.62,25.34z
			 M66.8,29.98c2.34-0.35,4.36-1.81,5.43-3.92l0.62,0.7c-1.16,2.17-3.27,3.68-5.7,4.09L66.8,29.98z"/>
		<path class="st1" d="M80.57,30.44h-5.92v-5.6h5.92V30.44z M75.58,25.7v3.87h4.05V25.7H75.58z"/>
		<path class="st1" d="M89.05,27.92h-6.66v-0.96h6.66L89.05,27.92z"/>
		<path class="st1" d="M91.31,23.92h0.93v2.41c1.24,0.52,2.44,1.12,3.6,1.8l-0.53,0.83c-0.98-0.63-2.01-1.18-3.07-1.65v3.63h-0.93
			V23.92z M93.53,24.43l0.56-0.26c0.27,0.4,0.5,0.83,0.67,1.28l-0.61,0.27C93.99,25.26,93.79,24.83,93.53,24.43z M94.6,24.02
			l0.57-0.26c0.29,0.4,0.52,0.83,0.71,1.28l-0.61,0.27C95.09,24.86,94.87,24.43,94.6,24.02L94.6,24.02z"/>
	</g>
	<g id="_Group__2_">
		<g id="_Group_2_2_">
			<path id="_Path__2_" class="st1" d="M24.77,20.3c0.02-1.7,0.91-3.26,2.36-4.15c-0.92-1.31-2.4-2.11-3.99-2.16
				c-1.68-0.18-3.31,1-4.16,1c-0.87,0-2.19-0.99-3.61-0.96c-1.87,0.06-3.56,1.1-4.47,2.73c-1.93,3.35-0.49,8.27,1.36,10.98
				c0.93,1.33,2.01,2.81,3.43,2.75c1.39-0.06,1.91-0.88,3.58-0.88c1.66,0,2.14,0.88,3.59,0.85c1.49-0.02,2.43-1.33,3.32-2.67
				c0.67-0.94,1.18-1.99,1.52-3.09C25.92,23.95,24.77,22.22,24.77,20.3z"/>
			<path id="_Path_2_2_" class="st1" d="M22.04,12.21c0.81-0.97,1.21-2.23,1.11-3.49c-1.24,0.13-2.39,0.72-3.21,1.66
				c-0.81,0.92-1.22,2.13-1.14,3.36C20.06,13.75,21.25,13.19,22.04,12.21z"/>
		</g>
	</g>
</g>
</svg>
