<?xml version="1.0" encoding="utf-8"?>
<!-- Generator: Adobe Illustrator 24.0.1, SVG Export Plug-In . SVG Version: 6.00 Build 0)  -->
<svg version="1.1" id="レイヤー_1" xmlns="http://www.w3.org/2000/svg" xmlns:xlink="http://www.w3.org/1999/xlink" x="0px"
	 y="0px" viewBox="0 0 280 200" style="enable-background:new 0 0 280 200;" xml:space="preserve">
<style type="text/css">
	.st0{clip-path:url(#SVGID_2_);}
	.st1{fill:#717071;}
	.st2{fill:#261C19;}
	.st3{fill:#3C3736;}
	.st4{fill:#78C3E1;}
	.st5{fill:#2E2624;}
	.st6{fill:#3B3D40;}
	.st7{fill:#383231;}
	.st8{fill:#E7372F;}
	.st9{fill:#DDEAEC;}
	.st10{fill:#666666;}
	.st11{fill:none;}
	.st12{fill:#1D1D1D;}
	.st13{fill:#888888;}
	.st14{fill:#231815;}
	.st15{fill:#5D5F66;}
	.st16{fill:#B4B4B4;}
	.st17{clip-path:url(#SVGID_4_);}
	.st18{fill:none;stroke:#B4B4B4;stroke-width:4;stroke-miterlimit:10;}
	.st19{opacity:0.03;fill:#FFFFFF;enable-background:new    ;}
	.st20{clip-path:url(#SVGID_6_);}
	.st21{opacity:0.4;}
	.st22{fill:#040000;}
	.st23{fill:#1B151A;}
	.st24{fill:#FFDAB0;}
	.st25{fill:#002230;}
	.st26{fill:#00395B;}
	.st27{fill:#204D7E;}
	.st28{fill:#481600;}
	.st29{fill:#FFA69D;}
</style>
<g>
	<g>
		<defs>
			<rect id="SVGID_1_" width="280" height="160"/>
		</defs>
		<clipPath id="SVGID_2_">
			<use xlink:href="#SVGID_1_"  style="overflow:visible;"/>
		</clipPath>
		<g class="st0">
			<g>
				<g>
					<g>
						<g>
							<g>
								<path class="st1" d="M442.7,106.57h-18.32v-7.91h21.7c1.03,0,1.65,1.13,1.1,2.01l-3.39,5.31
									C443.56,106.34,443.14,106.57,442.7,106.57z"/>
								<polygon class="st2" points="37.96,117.55 132.39,118.09 390.58,118.09 429.71,102.29 414.06,49.02 29.87,58.73 								"/>
								<path class="st2" d="M278.86,121.98l-42.88-2.69v-9.49h44.24v10.88C280.24,121.42,279.62,122.02,278.86,121.98z"/>
								<path class="st2" d="M314,122.67h-21.13c-3.4,0-6.16-2.76-6.16-6.16v-4.09h33.45v4.09
									C320.17,119.91,317.41,122.67,314,122.67z"/>
								<path class="st3" d="M17.33,90.13l3.48-13.29H9.77c-0.13,0-0.24,0.09-0.26,0.22c-0.24,1.75-0.5,3.56-0.73,5.23
									c-0.62,4.41-0.55,8.89,0.2,13.28l0.64,3.73c0.02,0.12,0.13,0.21,0.26,0.21h10.4l-2.04-3.28
									C17.11,94.42,16.79,92.2,17.33,90.13z"/>
								<path class="st4" d="M197.49-8.01c-1.27-0.01-3.48-0.12-5.86-0.31c-8.31,3.52-16.3,8.28-28.67,14.88
									c-15.83,8.44-30.43,18.65-34.42,21.32c0,0-0.66,1.44,1.35,3.6c4.72-3.22,11.03-7.36,16.87-11.06
									C173.6,3.48,192.09-4.73,197.61-7.52C197.86-7.64,197.77-8.01,197.49-8.01z"/>
								<path class="st5" d="M126.23,28.56c-1.98,0.2-6.06,0.61-11.28,1.16l1.06,0.89c0.46,0.39,1.06,0.6,1.67,0.6h13.23
									c-1.45-1.56-2.02-2.7-2.21-3.21c-0.06-0.15-0.24-0.2-0.38-0.12C127.68,28.26,126.97,28.48,126.23,28.56z"/>
								<path class="st4" d="M430.42,8.01c-3.64-3.48-11.7-10.69-13.62-12.4c-0.24-0.21-0.29-0.57-0.11-0.84l-3.06,5.15
									c4.29,4.56,8.24,9.14,9.96,11.32c3.24,4.14,7.02,9.18,7.02,9.18h10.65C440.26,19.18,434.22,11.63,430.42,8.01z"/>
								<path class="st6" d="M129.76,27.91l-2.96-0.34c-0.07-0.01-0.15,0.02-0.2,0.07l-0.98,0.88c-0.07,0.06-0.09,0.14-0.08,0.22
									l0.29,2.3c0.02,0.15,0.16,0.25,0.31,0.22l1.06-0.19c0.13-0.02,0.22-0.14,0.21-0.27l-0.06-1.75c0-0.14,0.09-0.25,0.23-0.27
									l1.84-0.21c0.11-0.01,0.2-0.09,0.22-0.2L129.76,27.91z"/>
								<path class="st6" d="M116.02,30.16l-0.64-0.53c-0.27-0.22-0.61-0.33-0.97-0.3c-14.35,1.52-36.75,4.03-47.85,6.02
									c-11.52,2.06-25.49,5.43-33.38,7.41c-3.98,0.99-7.46,3.4-9.79,6.77c-0.37,0.53-0.76,1.1-1.16,1.67
									c-0.2,0.28,0.04,0.66,0.37,0.61c22.81-2.94,45.8-5.83,55.88-6.87c14.03-1.45,26.66-2.81,38.46-3.92
									c3.88-3.17,8.53-6.56,13.95-10.25h-13.23C117.08,30.76,116.48,30.55,116.02,30.16z"/>
								<path class="st7" d="M260.51-13.09c-11.04,0-22.55-0.72-46.28,4.08c-23.74,4.8-55.63,26.86-64.03,32.61
									c-5.62,3.86-8.77,8.26-10.89,15.56l111.84-7.34c3.62-16.29,8.82-39.45,10.05-44.92L260.51-13.09z"/>
								<path class="st6" d="M247.8,47.09c0.53-2.5,1.79-8.25,3.35-15.27l-111.84,7.34c-1.04,3.6-1.83,7.91-2.55,13.21
									c-1.51,11.21,0.96,40.53,2.58,57.21l107.98-3.18C246.93,84.77,246.56,53,247.8,47.09z"/>
								<path class="st7" d="M333.47-13.09h-7.57l1.23,1.84c1.64,0.06,4.75,0.17,8.58,0.31l-1.18-1.62
									C334.28-12.9,333.89-13.09,333.47-13.09z"/>
								<path class="st6" d="M341.66,10.55c1.4,2.11,1.46,4.83,0.15,7l-2.46,4.05c-1.77,2.9-4.83,4.77-8.23,4.98l-79.97,5.24
									c-1.56,7.02-2.83,12.76-3.35,15.27c-1.25,5.9-0.87,37.67-0.46,59.31l67.97-2c0,0,3.46-32.55,31.61-42.98l10.43-32.83
									c1.39-4.35,0.6-9.11-2.09-12.8L335.7-10.95c-3.83-0.14-6.94-0.25-8.58-0.31L341.66,10.55z"/>
								<path class="st6" d="M139.31,39.15c0.97-3.33,2.14-6.05,3.66-8.4H130.9c-5.42,3.69-10.08,7.08-13.95,10.25
									C124.72,40.28,132.13,39.64,139.31,39.15z"/>
								<path class="st6" d="M403.8-9.76c-3.11-2.84-5.72-5.09-7.18-6.34c-7.3-0.63-14.66-1.19-20.34-1.43
									c-17.09-0.72-87.41-2.88-133.28,0c-26.96,1.69-39.5,4.19-51.37,9.22c2.39,0.19,4.58,0.3,5.86,0.31
									c0.27,0,0.36,0.37,0.11,0.49c-5.51,2.78-24,10.99-50.84,27.94c-5.86,3.7-11.15,7.13-15.86,10.34h12.07
									c1.82-2.8,4.16-5.07,7.21-7.17c8.4-5.75,40.29-27.82,64.03-32.61c23.74-4.8,35.25-4.08,46.28-4.08h71.59h1.38
									c14.39,0.24,42.09,1.68,53.96,2.22C391.5-10.7,397.58-10.26,403.8-9.76z"/>
								<path class="st5" d="M365.89,58.25c-7.33,0-13.59,1.19-18.97,3.18c-28.15,10.44-31.61,42.98-31.61,42.98l-67.97,2
									l-107.98,3.18l-3.42,0.1v-4.8c0,0-4.8-44.37-50.6-44.37s-48.93,46.52-48.93,46.52l-24.45-1.17c-0.29-0.02-0.54-0.22-0.6-0.5
									l-0.49-2.13c-0.07-0.3-0.33-0.5-0.63-0.5h-0.6c-0.4,0-0.71,0.36-0.64,0.76l0.07,0.36c0.6,3.43,2.8,6.36,5.94,7.87l13.47,6.5
									c1.77,0.86,3.7,1.29,5.66,1.29h6.19c0.83,0,1.44-0.76,1.27-1.57c-0.6-2.87-0.92-5.84-0.92-8.89
									c0-24.31,20.23-44.03,45.18-44.03s45.18,19.71,45.18,44.03c0,3.76-0.05,6.74-0.13,9.1c-0.03,0.73,0.57,1.35,1.3,1.35h8.19
									h107.25h71.65l0,0c0.93-0.07,1.64-0.85,1.6-1.78c-0.1-2.81-0.12-6.22-0.12-10.51c0-16.85,9.72-31.48,23.98-38.88
									c6.32-3.28,13.55-5.14,21.21-5.14c24.95,0,45.18,19.71,45.18,44.03c0,1.36-0.01,2.6-0.02,3.77
									c-0.01,0.91,0.9,1.55,1.76,1.24l3.9-1.44v-7.34C416.76,103.45,411.58,58.25,365.89,58.25z"/>
								<path class="st5" d="M416.76,103.45v7.34l12.62-4.66c1.17-1.53,4.03-5.58,6.99-12.06c0.62-1.37,1.22-2.67,1.78-3.9
									l-23.43,4.46C416.34,99.83,416.76,103.45,416.76,103.45z"/>
								<path class="st6" d="M450.93,78.7v-3.04c-3.92,0.11-4.96,0.99-6.39,2.32c-0.39,0.36-0.83,0.98-1.33,1.79
									c1.22,0,2.27,0,2.76,0C447.6,79.77,450.93,78.7,450.93,78.7z"/>
								<path class="st5" d="M450.93,78.7L450.93,78.7c0,0-3.33,1.08-4.95,1.08c-0.49,0-1.54,0-2.76,0
									c-1.65,2.72-3.89,7.81-6.86,14.3c-2.97,6.48-5.82,10.52-6.99,12.06l10.49-3.87c1.62-0.6,3.11-1.48,4.41-2.6l3.99-3.45
									c0.45-0.39,0.75-0.92,0.86-1.51l2.71-14.94C451.92,79.2,451.49,78.7,450.93,78.7z"/>
								<path class="st7" d="M348.45-12.65c-5.62-0.21-10.85-0.38-14.98-0.46c0.42,0,0.81,0.2,1.05,0.53l1.18,1.62
									c4.42,0.16,9.78,0.36,14.98,0.56L348.45-12.65z"/>
								<path class="st7" d="M398.52-7.57c-0.46-0.47-1.08-0.75-1.74-0.78c-4.22-0.2-20.57-0.98-29.92-1.39
									c-3.75-0.17-9.83-0.41-16.18-0.64l28.27,28.5c1.47,1.48,3.47,2.31,5.55,2.31h38.6c-2.03-2.52-5.05-6.3-7.56-9.53
									C411.94,6.23,401.38-4.65,398.52-7.57z"/>
								<path class="st4" d="M384.51,17.81c-1.38,0-2.72-0.56-3.7-1.54L357.2-7.53c4.15,0.16,7.34,0.3,9.56,0.39
									c9.54,0.43,26.59,1.24,29.91,1.39c6.3,6.46,14.05,14.65,16.83,18.23c1.33,1.71,2.8,3.57,4.19,5.33H384.51z"/>
								<path class="st7" d="M423.59,11.25c-2.61-3.35-10.43-12.23-16.73-18.17c-1.06-0.99-2.08-1.94-3.06-2.84
									c-6.23-0.49-12.3-0.94-16.37-1.12c-8.47-0.38-24.98-1.23-38.98-1.77l2.24,2.26c6.35,0.24,12.43,0.48,16.18,0.64
									c9.34,0.42,25.7,1.19,29.92,1.39c0.66,0.03,1.27,0.31,1.74,0.78c2.85,2.92,13.42,13.81,17.03,18.45
									c2.51,3.23,5.53,7.01,7.56,9.53h7.48C430.6,20.42,426.82,15.38,423.59,11.25z"/>
								<path class="st7" d="M341.66,10.55L325.9-13.09h-64.7c-1.23,5.48-6.43,28.63-10.05,44.92l79.97-5.24
									c3.39-0.22,6.46-2.08,8.23-4.98l2.46-4.05C343.13,15.38,343.07,12.66,341.66,10.55z"/>
								<path class="st4" d="M339.5,12l-14.99-22.49h-58.9l-4.12,39.03l69.46-4.56c2.54-0.17,4.84-1.56,6.17-3.74l2.46-4.05
									C340.37,14.9,340.33,13.25,339.5,12z"/>
								<path class="st6" d="M335.1,3.81"/>
								<path class="st8" d="M418.77,31.75c-0.21,0-0.33,0.23-0.22,0.4c1.17,1.75,5.92,8.56,9.45,10.21
									c1.02,0.47,3.24,1.3,6.14,2.26l-10.59-12.84L418.77,31.75z"/>
								<path class="st9" d="M437.81,31.88l-14.27-0.09l10.59,12.84c1.51,0.5,3.21,1.04,5.01,1.6c-0.82-1.84-1.32-3.88-1.32-6.2
									C437.81,35.45,437.81,33.06,437.81,31.88z"/>
								<path class="st8" d="M445.51,48.1c0.65,0.18,1.3,0.36,1.95,0.54c0,0,0.23-0.6,0.23-1.95c0-1.35,0-13.67,0-13.67
									c0-0.6-0.48-1.08-1.08-1.08l-3.39-0.02c0,1.19,0,3.59,0,8.12C443.21,43.16,444.14,45.79,445.51,48.1z"/>
								<path class="st9" d="M443.21,40.02c0-4.53,0-6.93,0-8.12l-2.7-0.02c0,1.19,0,3.58,0,8.13c0,2.73,0.7,5.08,1.79,7.15
									c1.05,0.31,2.13,0.61,3.22,0.92C444.14,45.79,443.21,43.16,443.21,40.02z"/>
								<path class="st10" d="M440.52,31.89l-2.7-0.02c0,1.18,0,3.58,0,8.15c0,2.32,0.5,4.36,1.32,6.2
									c1.02,0.32,2.07,0.63,3.16,0.95c-1.09-2.08-1.79-4.42-1.79-7.15C440.52,35.47,440.52,33.07,440.52,31.89z"/>
								<path class="st6" d="M424.32,55.58L428,42.36c-3.52-1.65-8.27-8.46-9.45-10.21c-0.12-0.18,0.01-0.41,0.22-0.4l27.84,0.18
									c0,0-0.18-2.7-0.54-4.14c-0.31-1.23-2.71-5.62-3.41-6.86c-0.11-0.2-0.33-0.33-0.57-0.33h-0.7c0,0-0.06-0.07-0.14-0.18H430.6
									h-46.09c-2.08,0-4.08-0.83-5.55-2.31l-28.27-28.5c-5.2-0.2-10.57-0.4-14.98-0.56l19.55,26.75c2.7,3.69,3.48,8.44,2.09,12.8
									l-10.43,32.83c5.37-1.99,11.65-3.18,18.97-3.18c13.55,0,23.52,3.98,30.87,9.57l23.35-7.8
									C422.17,59.33,423.75,57.67,424.32,55.58z"/>
								<path class="st6" d="M447.45,48.63c-8.67-2.34-17.13-5.18-19.47-6.27l-3.67,13.22c-0.58,2.09-2.16,3.75-4.21,4.43
									l-23.35,7.8c10.41,7.93,15.52,19.11,17.94,26.82l23.43-4.46c2.92-6.4,5-10.88,6.41-12.2c1.42-1.34,2.46-2.21,6.39-2.32
									v-1.09V55.85c0-0.95-0.26-1.87-0.74-2.68L447.45,48.63z"/>
								<path class="st11" d="M37.31,61.48c-0.81,0.67-1.79,1.08-2.84,1.18l-8.66,0.82c0.11,0.19,0.24,0.35,0.39,0.49
									c1.45,1.25,12.21,0.42,18.35-7.79c-0.78,0.19-1.51,0.54-2.13,1.05L37.31,61.48z"/>
								<path class="st9" d="M60.16,47.07c-3.67,0.45-7.65,0.94-11.81,1.46c-2.06,0.26-4.17,0.52-6.32,0.8
									c-3.01,0.38-6.08,0.77-9.19,1.17c-3.19,0.41-6.41,0.82-9.64,1.24c-0.18,0.02-5.02,5.3-6.76,7.8c0.38,1.2,0.51,2.47,0.56,3.4
									c0.04,0.74,0.68,1.31,1.42,1.24l7.39-0.7l5-0.48l3.66-0.34c1.04-0.1,2.03-0.51,2.84-1.18l5.13-4.26
									c0.61-0.51,1.35-0.86,2.13-1.05c0.06-0.01,0.11-0.04,0.17-0.05l5.04-1.02l6.02-1.22c0.64-0.13,1.24-0.42,1.74-0.85
									l7.85-6.61C63.72,46.63,61.97,46.84,60.16,47.07z"/>
								<path class="st8" d="M60.16,47.07c-1.63,1.52-5.44,4.88-10.39,8.04l6.02-1.22c0.64-0.13,1.24-0.42,1.74-0.85l7.85-6.61
									C63.72,46.63,61.97,46.84,60.16,47.07z"/>
								<path class="st7" d="M29.64,81.61c-0.07-0.5-0.27-0.99-0.61-1.38l-1.77-2.05c-0.74-0.86-1.82-1.35-2.96-1.35h-3.95
									l-1.25,4.78l-1.98,7.58l-0.25,0.95c-0.54,2.07-0.21,4.28,0.92,6.1l2.04,3.28h2.19c1.77,0,3.31-1.18,3.77-2.89l2.01-7.44
									l1.78-6.58C29.67,82.27,29.68,81.94,29.64,81.61z"/>
								<path class="st6" d="M139.35,109.59c-1.63-16.69-4.09-46-2.58-57.21c0.72-5.31,1.51-9.61,2.55-13.21
									c-18.13,1.22-37.58,3.38-60.82,5.78c-3.21,0.33-7.73,0.85-13.12,1.5l-7.85,6.61c-0.5,0.42-1.1,0.72-1.74,0.85l-11.04,2.24
									c-0.85,0.17-1.63,0.55-2.29,1.1l-5.13,4.26c-0.81,0.67-1.79,1.08-2.84,1.18l-16.05,1.52c-0.74,0.07-1.39-0.48-1.42-1.23
									c-0.05-0.93-0.18-2.2-0.56-3.41c-2.1,3.02-4,5.76-5.12,7.38c-0.7,1-1.14,2.16-1.32,3.37c-0.2,1.42-0.49,3.52-0.82,5.81
									c-0.06,0.39,0.25,0.74,0.64,0.74h14.47c1.13,0,2.21,0.49,2.96,1.35l1.77,2.05c0.56,0.65,0.77,1.53,0.55,2.37L25.8,96.65
									c-0.46,1.7-2.01,2.89-3.77,2.89H9.98c-0.4,0-0.71,0.36-0.64,0.76l0.43,2.45h0.46c0.31,0,0.57,0.21,0.63,0.5l0.49,2.13
									c0.07,0.29,0.32,0.49,0.6,0.5l24.45,1.17c0,0,3.11-46.52,48.92-46.52s50.6,44.37,50.6,44.37v4.8L139.35,109.59z"/>
								<path class="st5" d="M412.66-1.11c0.33,0.34,0.65,0.69,0.98,1.03l3.06-5.15l2.16-3.39c0.04-0.06,0.1-0.1,0.17-0.11
									l-3.17,0.56L412.66-1.11z"/>
								<path class="st7" d="M424.88-13.31c-3.32-0.36-15.7-1.69-28.26-2.79c1.92,1.64,5.81,5,10.24,9.18
									c1.86,1.75,3.85,3.77,5.8,5.81l3.2-7.07l3.17-0.56l4.95-0.99c0.21-0.05,0.39-0.19,0.47-0.39l0.97-2.3
									C425.58-12.82,425.32-13.26,424.88-13.31z"/>
								<g>
									<g>
										<circle class="st12" cx="85.53" cy="114.14" r="39.86"/>
										<circle class="st13" cx="85.53" cy="114.14" r="25.33"/>
										<circle class="st14" cx="85.53" cy="114.14" r="24.17"/>
										<circle class="st15" cx="85.53" cy="114.14" r="18.59"/>
										<polygon class="st16" points="71.01,114.88 77.91,109.96 77.89,101.77 85.24,105.43 93.21,101.72 93.1,109.69 
											100.37,114.53 93.53,118.68 93.26,126.61 85.4,123.31 77.81,127.56 77.75,118.79 										"/>
										<g>
											<g>
												<defs>
													<circle id="SVGID_3_" cx="85.53" cy="114.14" r="24.43"/>
												</defs>
												<clipPath id="SVGID_4_">
													<use xlink:href="#SVGID_3_"  style="overflow:visible;"/>
												</clipPath>
												<g class="st17">
													<path class="st18" d="M78.02,90.14c0,0,0.42,7.93,1.67,10.44s5.85,5.82,5.85,5.82s4.59-3.31,5.85-5.82
														c1.25-2.51,1.67-10.44,1.67-10.44"/>
													<path class="st18" d="M60.98,108.65c0,0,7.08,3.61,9.88,3.77c2.8,0.17,7.96-2.15,7.96-2.15s-0.57-5.63-2.11-7.97
														c-1.54-2.34-8.21-6.67-8.21-6.67"/>
													<path class="st18" d="M68.5,132.66c0,0,6.66-4.33,8.21-6.67c1.54-2.34,2.11-7.97,2.11-7.97s-5.16-2.32-7.96-2.15
														s-9.88,3.77-9.88,3.77"/>
													<path class="st18" d="M93.05,138.15c0,0-0.42-7.93-1.67-10.44c-1.25-2.51-5.85-5.82-5.85-5.82s-4.59,3.31-5.85,5.82
														c-1.25,2.51-1.67,10.44-1.67,10.44"/>
													<path class="st18" d="M110.08,119.64c0,0-7.08-3.61-9.88-3.77c-2.8-0.17-7.96,2.15-7.96,2.15s0.57,5.63,2.11,7.97
														c1.54,2.34,8.21,6.67,8.21,6.67"/>
													<path class="st18" d="M102.57,95.63c0,0-6.66,4.33-8.21,6.67c-1.54,2.34-2.11,7.97-2.11,7.97s5.16,2.32,7.96,2.15
														c2.8-0.17,9.88-3.77,9.88-3.77"/>
												</g>
											</g>
										</g>
										<circle class="st15" cx="85.53" cy="114.14" r="5.73"/>
										<path class="st19" d="M85.53,79.69c19.11,0,34.66,15.25,35.16,34.24c0.01-0.32,0.03-0.63,0.03-0.95
											c0-19.43-15.75-35.19-35.19-35.19c-19.43,0-35.19,15.75-35.19,35.19c0,0.32,0.02,0.63,0.03,0.95
											C50.87,94.93,66.42,79.69,85.53,79.69z"/>
									</g>
								</g>
								<g>
									<g>
										<circle class="st12" cx="366.03" cy="114.14" r="39.86"/>
										<circle class="st13" cx="366.03" cy="114.14" r="25.33"/>
										<circle class="st14" cx="366.03" cy="114.14" r="24.17"/>
										<circle class="st15" cx="366.03" cy="114.14" r="18.59"/>
										<polygon class="st16" points="351.51,114.88 359.52,111.46 360.39,101.77 365.61,106.15 373.34,103.23 372.96,111.46 
											380.65,115.34 372.96,119.22 373.76,126.61 366.24,123.1 360.19,127.66 359.52,119.22 										"/>
										<g>
											<g>
												<defs>
													<circle id="SVGID_5_" cx="366.03" cy="114.14" r="24.43"/>
												</defs>
												<clipPath id="SVGID_6_">
													<use xlink:href="#SVGID_5_"  style="overflow:visible;"/>
												</clipPath>
												<g class="st20">
													<path class="st18" d="M358.52,90.14c0,0,0.42,7.93,1.67,10.44s5.85,5.82,5.85,5.82s4.59-3.31,5.85-5.82
														c1.25-2.51,1.67-10.44,1.67-10.44"/>
													<path class="st18" d="M341.48,108.65c0,0,7.08,3.61,9.88,3.77c2.8,0.17,7.96-2.15,7.96-2.15s-0.57-5.63-2.11-7.97
														c-1.54-2.34-8.21-6.67-8.21-6.67"/>
													<path class="st18" d="M349,132.66c0,0,6.66-4.33,8.21-6.67c1.54-2.34,2.11-7.97,2.11-7.97s-5.16-2.32-7.96-2.15
														s-9.88,3.77-9.88,3.77"/>
													<path class="st18" d="M373.55,138.15c0,0-0.42-7.93-1.67-10.44c-1.25-2.51-5.85-5.82-5.85-5.82s-4.59,3.31-5.85,5.82
														c-1.25,2.51-1.67,10.44-1.67,10.44"/>
													<path class="st18" d="M390.58,119.64c0,0-7.08-3.61-9.88-3.77c-2.8-0.17-7.96,2.15-7.96,2.15s0.57,5.63,2.11,7.97
														c1.54,2.34,8.21,6.67,8.21,6.67"/>
													<path class="st18" d="M383.07,95.63c0,0-6.66,4.33-8.21,6.67c-1.54,2.34-2.11,7.97-2.11,7.97s5.16,2.32,7.96,2.15
														s9.88-3.77,9.88-3.77"/>
												</g>
											</g>
										</g>
										<circle class="st15" cx="366.03" cy="114.14" r="5.73"/>
										<path class="st19" d="M366.03,79.69c19.11,0,34.66,15.25,35.16,34.24c0.01-0.32,0.03-0.63,0.03-0.95
											c0-19.43-15.75-35.19-35.19-35.19c-19.43,0-35.19,15.75-35.19,35.19c0,0.32,0.02,0.63,0.03,0.95
											C331.37,94.93,346.92,79.69,366.03,79.69z"/>
									</g>
								</g>
								<g>
									<g>
										<g>
											
												<ellipse transform="matrix(0.9986 -0.0527 0.0527 0.9986 -2.0207 11.9465)" class="st6" cx="225.52" cy="44.29" rx="5.88" ry="4.08"/>
										</g>
										<g class="st21">
											
												<ellipse transform="matrix(0.9986 -0.0527 0.0527 0.9986 -2.0207 11.9465)" class="st22" cx="225.52" cy="44.29" rx="5.88" ry="4.08"/>
										</g>
									</g>
									<path class="st6" d="M239.43,45.17l-23.95,1.26c-0.49,0.03-0.92-0.35-0.95-0.86l-0.07-1.2c-0.03-0.49,0.35-0.92,0.86-0.95
										l23.95-1.26c0.49-0.03,0.92,0.35,0.95,0.86l0.07,1.2C240.31,44.72,239.93,45.15,239.43,45.17z"/>
								</g>
								<g>
									<g>
										<g>
											
												<ellipse transform="matrix(0.9986 -0.0527 0.0527 0.9986 -1.6204 17.0893)" class="st6" cx="323.24" cy="39.27" rx="5.88" ry="4.08"/>
										</g>
										<g class="st21">
											
												<ellipse transform="matrix(0.9986 -0.0527 0.0527 0.9986 -1.6204 17.0893)" class="st22" cx="323.24" cy="39.27" rx="5.88" ry="4.08"/>
										</g>
									</g>
									<path class="st6" d="M337.16,40.15l-23.95,1.26c-0.49,0.03-0.92-0.35-0.95-0.86l-0.07-1.2c-0.03-0.49,0.35-0.92,0.86-0.95
										L337,37.14c0.49-0.03,0.92,0.35,0.95,0.86l0.07,1.2C338.04,39.69,337.66,40.12,337.16,40.15z"/>
								</g>
								<path class="st4" d="M252.65-10.53c-8.61,0-19.35,0.32-37.91,4.06c-13.7,2.77-32.25,11.82-55.2,26.91v14.78l82.12-5.38
									c1.2-4.84,2.65-10.54,4.21-16.32c2.22-8.23,6.61-20.33,7.98-24.05C253.46-10.53,253.06-10.53,252.65-10.53z"/>
								<path class="st7" d="M152.08,25.46l-0.41,0.28c-4.17,2.85-6.77,5.99-8.63,10.56l16.51-1.08V20.44
									C157.11,22.05,154.62,23.72,152.08,25.46z"/>
								<g>
									<path class="st7" d="M150.53,27.98c0,0-2.79,2.25-3.69,3.24c-0.7,0.77-1.52,2.75-1.83,3.59c-0.07,0.18,0.07,0.36,0.26,0.35
										l5.91-0.41c0.07-0.01,0.15-0.05,0.2-0.11l2.12-3.06L150.53,27.98z"/>
									<path class="st5" d="M146.95,24.74c0.45-1.89,6.37-5.58,7.99-6.2c1.62-0.63,6.51-0.88,7.37-0.45
										c1.79,0.9,3.6,2.97,3.6,5.12c0,1.62,0,7.47,0,8.72c0,1.26-2.16,2.52-4.95,2.52c-1.71,0-7.94,0.33-9.62-0.27
										C149.65,33.6,146.5,26.63,146.95,24.74z"/>
								</g>
								<path class="st11" d="M196-9.86c4.8-1.68,10.79-4.08,29.74-6s43.17-2.85,60.91-3.1c17.75-0.24,48.92,0.48,64.03,0.72
									s39.81,1.92,46.28,2.4s26.86,3.11,26.86,3.11"/>
								<path class="st11" d="M32.59,43.11c4.8-1.2,23.99-6,35.25-7.91c11.27-1.92,46.05-5.75,46.05-5.75"/>
							</g>
						</g>
					</g>
				</g>
			</g>
			<g>
				<g>
					<path class="st23" d="M160.28,137.59h-6.9c-0.41,0-0.82,0.09-1.18,0.26l-19.57,9.18c-0.98,0.46-1.6,1.44-1.6,2.52l0,0
						c0,1.54,1.25,2.78,2.78,2.78h27.1c1.61,0,2.89-1.36,2.78-2.97l-0.62-9.18C162.95,138.72,161.75,137.59,160.28,137.59z"/>
					<path class="st23" d="M235.71,129.53l2.23,6.53c0.13,0.38,0.35,0.73,0.63,1.04l8.48,7.63l0.98,7.15
						c0.14,1.07,0.9,1.95,1.92,2.27l0,0c1.47,0.46,3.03-0.36,3.48-1.82l2.07-6.61l-6.06-21.56c-0.52-1.52-2.22-2.28-3.7-1.66
						l-8.48,3.56C235.91,126.63,235.23,128.15,235.71,129.53z"/>
					<path class="st24" d="M118.9,86.44l-16.38,4.32c-1.04,0.27-1.33,1.62-0.46,2.28l0,0c0.29,0.22,0.66,0.31,1.01,0.25l3.56-0.63
						c1.17-0.21,4.33,8.38,8.2,6.57s7.61-4.74,7.61-4.74c0.58-0.67-1.52-3.65-2.35-3.98l-0.38-4.01
						C119.45,86.39,119.17,86.37,118.9,86.44z"/>
					<path class="st25" d="M157.19,106.12l11.46-23.05L163,43.86c-1.63-9.64-15.43-7.97-13.79,3.39l5.36,33.37l-9.09,19.61
						L157.19,106.12z"/>
					<path class="st26" d="M211.1,95.06l3.76,32.66l25.13-3.59l0.79,17.95l-41.59,4.06c-4.09,0.4-7.68-2.67-7.93-6.76l-4.73-26.01
						l-22.32-0.4l0.6,29.12l-19.77-1.99l-0.35-40.29c-0.03-2.69,1.82-5.02,4.43-5.63l19.03,1.02c0-5.17-1.23-10.28-3.58-14.89
						l-15.08-29.55c-2.91-5.7,0.05-12.65,6.19-14.48l15.77-4.73c4.59-1.38,9.51,0.6,11.86,4.77l23.99,42.36
						C210.13,83.64,211.45,89.35,211.1,95.06z"/>
					<path class="st27" d="M121.52,97.48l36.64-16.39l20.88-33.67c4.94-8.43-6.7-16.03-12.74-6.27l-17.34,29.01l-32.61,15.28
						L121.52,97.48z"/>
					<ellipse class="st24" cx="169.94" cy="21.6" rx="3.54" ry="4.8"/>
					<path class="st24" d="M151.74,10.23c-4.5,1.2-5.05,14.15-5.05,19.71c4.05-0.5,4.05-0.5,4.05-0.5s0,5.05,4.05,7.07
						c5.05,2.53,14.65-0.45,15.17-7.58c0.5-7.07-0.41-14.22-5.05-18.19C161.34,7.71,159.32,8.22,151.74,10.23z"/>
					<g>
						<path class="st25" d="M166.11,15.06c0,0-24.47,8.31-30.54,6.79C131.13,20.75,148.63,12.31,166.11,15.06z"/>
						<polygon class="st28" points="168.36,15.92 167.34,25.09 162.76,15.58 						"/>
						<path class="st25" d="M170.44,17.05c0-6.84-5.54-12.39-12.39-12.39s-12.39,5.54-12.39,12.39"/>
					</g>
					
						<ellipse transform="matrix(0.9151 -0.4032 0.4032 0.9151 4.2023 64.1796)" class="st11" cx="154.52" cy="22.11" rx="0.75" ry="2.27"/>
					<path class="st29" d="M154.27,31.47l6.57-3.54C160.84,27.92,160.34,33.99,154.27,31.47z"/>
				</g>
				<path class="st27" d="M202.8,77.68c0,0-12.38,8.61-31.22,8.61"/>
			</g>
		</g>
	</g>
</g>
<g>
	<g>
		<path class="st26" d="M97.62,170.44c-0.34,1.07-0.49,1.56-0.83,2.39h12.69v3.09H95.41c-0.6,1.07-0.75,1.35-1.07,1.87h12.51v14.85
			c0,1.38-0.94,2.37-2.26,2.37h-4.71l-0.57-2.86h3.67c0.49,0,0.65-0.26,0.65-0.78v-1.74H92.86v5.49h-3.22v-11.49
			c-0.81,0.75-1.43,1.33-3.17,2.55l-1.92-3.09c1.14-0.68,4.37-2.68,6.99-7.15h-6.68v-3.09h8.16c0.31-0.78,0.44-1.27,0.78-2.5
			L97.62,170.44z M103.63,180.68H92.86v1.85h10.76V180.68z M103.63,185.16H92.86v1.9h10.76V185.16z"/>
		<path class="st26" d="M115.4,183.08c-0.44,0.7-0.6,0.94-1.01,1.53l-1.22-4.34c1.95-2.91,2.86-6.68,3.07-9.83l3.07,0.34
			c-0.16,1.09-0.36,2.57-0.88,4.65v19.58h-3.02V183.08z M118.94,192.46c1.64-0.16,3.54-0.55,5.1-1.07h-3.67v-9.7h16.22v9.7h-3.69
			c2.42,0.91,4.39,1.09,5.28,1.17l-1.04,2.57c-2.73-0.42-4.81-1.04-6.76-2.21l1.22-1.53h-6.14l1.01,1.59
			c-2.78,1.43-5.46,1.92-6.42,2.11L118.94,192.46z M121.85,178.08h-2.26v-5.23h2.81c-0.23-0.6-0.52-1.22-0.78-1.74l2.86-0.62
			c0.29,0.49,0.86,1.77,1.12,2.37h1.3v-2.37h3.15v2.37h1.35c0.42-0.7,0.96-2.13,1.07-2.37l2.94,0.62c-0.18,0.55-0.49,1.25-0.75,1.74
			h2.91v5.23h-2.29v2.63h-13.42V178.08z M134.67,176.29v-1.22h-12.19v1.22H134.67z M123.36,183.34v0.99h10.22v-0.99H123.36z
			 M123.36,185.86v1.07h10.22v-1.07H123.36z M123.36,188.41v1.07h10.22v-1.07H123.36z M124.69,177.85v1.25h7.72v-1.25H124.69z"/>
		<path class="st26" d="M163.06,191.27h3.56v2.91h-24.52v-2.91h3.46v-9.98c-0.86,0.44-1.35,0.68-2.5,1.09l-1.46-3.17
			c2.89-0.83,5.04-1.9,7.46-3.85h-6.68v-2.86h10.5v-1.95h3.09v1.95h10.43v2.86h-6.6c1.07,0.88,3.51,2.81,7.38,3.87l-1.56,3.15
			c-1.28-0.55-1.79-0.81-2.57-1.25V191.27z M152.9,179.49v-4.08c-0.68,0.83-1.85,2.29-4.37,4.08H152.9z M160,182.11h-11.34v1.51H160
			V182.11z M160,185.94h-11.34v1.51H160V185.94z M160,189.73h-11.34v1.53H160V189.73z M160.51,179.49c-2.65-1.87-3.8-3.22-4.52-4.06
			v4.06H160.51z"/>
		<path class="st26" d="M181.31,180.94h-5.93v-3.02h15.16v3.02h-5.95v3.2h7.77v3.02h-7.77v4.13c0.47,0.03,0.62,0.03,1.09,0.03h9.78
			l-0.68,3.12h-9.1c-4.52,0-7.25-1.38-9.49-4.21c-1.2,2.29-2.16,3.46-3.67,4.76l-2.11-2.76c1.4-1.2,3.93-3.72,4.92-10.04l3.17,0.44
			c-0.36,2.05-0.7,3.25-1.12,4.63c0.88,1.27,1.98,2.65,3.93,3.35V180.94z M184.59,170.49v2.08h9.98v6.37h-3.2v-3.41h-16.82v3.41
			h-3.22v-6.37h9.93v-2.08H184.59z"/>
	</g>
</g>
</svg>
