<?xml version="1.0" encoding="utf-8"?>
<!-- Generator: Adobe Illustrator 24.0.1, SVG Export Plug-In . SVG Version: 6.00 Build 0)  -->
<svg version="1.1" id="レイヤー_1" xmlns="http://www.w3.org/2000/svg" xmlns:xlink="http://www.w3.org/1999/xlink" x="0px"
	 y="0px" viewBox="0 0 240 200" style="enable-background:new 0 0 240 200;" xml:space="preserve">
<style type="text/css">
	.st0{fill:none;}
	.st1{fill:#00395B;}
	.st2{fill:#FFFFFF;}
	.st3{fill:#535353;}
	.st4{fill:#D0A867;}
</style>
<g>
	<g>
		<rect y="-0.45" class="st0" width="240" height="200"/>
		<g>
			<circle class="st1" cx="27" cy="24.55" r="20"/>
			<g>
				<path class="st2" d="M26.64,14.38h3.18v20.31h-3.61V18.25l-3.69,2.57l-0.46-3.33L26.64,14.38z"/>
			</g>
		</g>
	</g>
	<g>
		<g>
			<path class="st3" d="M64.86,156.64c-0.49,1.15-1.32,2.73-2.3,3.99c1.44,1.23,3.14,3.04,4.01,4.1l-1.23,1.09
				c-0.92-1.26-2.33-2.8-3.71-4.09c-1.5,1.6-3.39,3.1-5.39,4.03l-1.13-1.19c2.27-0.87,4.37-2.55,5.76-4.1
				c0.95-1.06,1.89-2.61,2.23-3.7h-5.14c-0.55,0-1.3,0.07-1.53,0.08v-1.58c0.28,0.04,1.09,0.1,1.53,0.1h5.2
				c0.52,0,0.98-0.06,1.22-0.14l0.91,0.67C65.17,156.05,64.96,156.41,64.86,156.64z"/>
			<path class="st3" d="M81.3,156.98c-1.01,1.65-2.8,3.92-4.95,5.6c0.83,0.83,1.74,1.81,2.3,2.48l-1.29,1.04
				c-0.56-0.76-1.7-2.02-2.59-2.94c-0.84-0.83-2.37-2.17-3.15-2.72l1.15-0.94c0.53,0.39,1.58,1.25,2.52,2.07
				c1.85-1.42,3.32-3.29,4.01-4.5h-7.87c-0.56,0-1.22,0.06-1.51,0.08v-1.57c0.38,0.06,1.04,0.11,1.51,0.11h8.1
				c0.45,0,0.84-0.04,1.08-0.13l1.11,0.91C81.55,156.67,81.4,156.84,81.3,156.98z"/>
			<path class="st3" d="M85.42,163.94l-1.21-0.81c0.92-0.88,2.09-2.49,2.65-3.66l1.25,0.6C87.49,161.29,86.19,163.1,85.42,163.94z
				 M91.18,155.35v1.29h3.52c0.36,0,0.88-0.03,1.25-0.07v1.44c-0.41-0.03-0.88-0.03-1.23-0.03h-3.53v6.67
				c0,0.77-0.41,1.21-1.32,1.21c-0.66,0-1.49-0.04-2.12-0.11l-0.13-1.39c0.6,0.11,1.23,0.15,1.6,0.15s0.52-0.14,0.52-0.52
				c0.01-0.66,0.01-5.28,0.01-5.95v-0.06h-3.74c-0.43,0-0.88,0.01-1.27,0.04v-1.47c0.41,0.06,0.83,0.08,1.26,0.08h3.75v-1.3
				c0-0.32-0.06-0.87-0.11-1.09h1.65C91.25,154.44,91.18,155.03,91.18,155.35z M96.45,163.14l-1.29,0.71
				c-0.59-1.15-1.61-2.87-2.33-3.74l1.21-0.66C94.78,160.36,95.88,162.12,96.45,163.14z"/>
			<path class="st3" d="M100.3,155.89c1.02-0.1,3.52-0.34,6.09-0.56c1.5-0.13,2.9-0.21,3.87-0.24v1.42c-0.78,0-2,0.01-2.73,0.2
				c-1.86,0.56-3.1,2.56-3.1,4.22c0,2.55,2.38,3.4,4.69,3.5l-0.5,1.5c-2.75-0.14-5.62-1.61-5.62-4.69c0-2.12,1.25-3.81,2.38-4.55
				c-1.42,0.14-4.68,0.48-6.25,0.81L99,155.96C99.53,155.94,100.02,155.92,100.3,155.89z M109.39,159.99l-0.87,0.39
				c-0.34-0.71-0.7-1.36-1.12-1.96l0.84-0.36C108.58,158.55,109.1,159.4,109.39,159.99z M110.99,159.36l-0.85,0.41
				c-0.36-0.71-0.73-1.33-1.18-1.93l0.84-0.38C110.14,157.93,110.68,158.77,110.99,159.36z"/>
			<path class="st3" d="M117.85,154.44c-0.39,0.71-0.9,1.41-1.46,2.07c0.7,1.46,0.83,3.03,0.83,4.65c0,1.97-0.15,3.85-0.74,4.65
				c-0.2,0.27-0.48,0.42-0.84,0.5c-0.49,0.1-1.06,0.11-1.68,0.08c-0.01-0.42-0.14-0.9-0.36-1.25c0.67,0.04,1.19,0.04,1.5,0
				c0.21-0.03,0.34-0.08,0.45-0.24c0.32-0.43,0.45-2.03,0.45-3.78v-0.03c-0.62,0.81-1.33,1.57-1.99,2.12
				c-0.21-0.32-0.56-0.74-0.88-0.99c1-0.63,2.12-1.86,2.76-3.01c-0.07-0.6-0.2-1.16-0.38-1.71c-0.48,0.46-0.95,0.91-1.44,1.27
				c-0.2-0.25-0.62-0.64-0.9-0.85c0.62-0.43,1.22-0.98,1.78-1.58c-0.39-0.63-0.9-1.23-1.58-1.82l0.91-0.7
				c0.62,0.5,1.09,1.02,1.46,1.54c0.39-0.49,0.73-1.01,0.99-1.51L117.85,154.44z M124.85,166.41c-0.08-0.31-0.21-0.7-0.36-1.11
				c-2.45,0.29-5.04,0.57-6.86,0.8l-0.22-1.37c0.98-0.08,2.27-0.21,3.67-0.35v-2.8h-2.97v-5.31h2.97v-2.63h1.3v2.63h3v5.31h-3v2.66
				l1.65-0.15c-0.24-0.62-0.48-1.2-0.73-1.74l1.21-0.36c0.6,1.29,1.34,2.97,1.65,4.01L124.85,166.41z M121.07,160.45v-3.05h-1.69
				v3.05H121.07z M122.37,157.4v3.05h1.65v-3.05H122.37z"/>
			<path class="st3" d="M139.34,155.45v10.95h-1.37v-0.7h-7.09v0.76h-1.3v-11.01h3.53c0.2-0.6,0.36-1.33,0.46-1.88l1.56,0.18
				c-0.22,0.59-0.45,1.19-0.69,1.69H139.34z M130.88,156.7v1.79h7.09v-1.79H130.88z M130.88,159.7v1.79h7.09v-1.79H130.88z
				 M137.97,164.5v-1.81h-7.09v1.81H137.97z"/>
			<path class="st3" d="M149.6,165.87l-0.83-1.32c0.48-0.04,0.9-0.11,1.25-0.2c1.79-0.41,3.39-1.72,3.39-3.98
				c0-2.03-1.23-3.64-3.39-3.91c-0.2,1.26-0.43,2.62-0.84,3.94c-0.84,2.86-2,4.44-3.39,4.44s-2.66-1.54-2.66-3.88
				c0-3.14,2.75-5.83,6.26-5.83c3.36,0,5.49,2.35,5.49,5.28C154.88,163.37,153,165.38,149.6,165.87z M145.83,163.18
				c0.63,0,1.29-0.91,1.93-3.07c0.35-1.11,0.6-2.38,0.77-3.61c-2.52,0.41-3.99,2.59-3.99,4.33
				C144.54,162.44,145.23,163.18,145.83,163.18z"/>
			<path class="st3" d="M165.65,156.41c1.16,1.18,2.91,2.2,4.59,2.72c-0.28,0.25-0.66,0.73-0.84,1.05
				c-1.88-0.69-3.78-2.03-5.04-3.57v2.6h-1.29v-2.63c-1.25,1.58-3.15,2.94-5,3.67c-0.17-0.29-0.53-0.77-0.81-1.01
				c1.64-0.55,3.35-1.62,4.5-2.83h-4.16v-1.13h5.48v-1.68h1.29v1.68h5.58v1.13H165.65z M167.69,165.01H170v1.18h-12.48v-1.18h2.34
				v-5.41h7.83V165.01z M161.12,160.69v0.78h5.24v-0.78H161.12z M166.36,162.43h-5.24v0.81h5.24V162.43z M161.12,165.01h5.24v-0.83
				h-5.24V165.01z"/>
			<path class="st3" d="M179.11,164.85c0.62,0.08,1.28,0.13,1.98,0.13c0.6,0,2.96,0,3.75-0.03c-0.21,0.31-0.43,0.94-0.49,1.32h-3.33
				c-2.75,0-4.76-0.46-6.04-2.66c-0.46,1.19-1.11,2.17-1.98,2.91c-0.21-0.24-0.76-0.69-1.08-0.9c1.54-1.15,2.25-3.11,2.55-5.56
				l1.34,0.13c-0.08,0.64-0.2,1.26-0.34,1.83c0.49,1.3,1.28,2.04,2.28,2.46v-5.43h-3.24v-1.25h7.89v1.25h-3.31v2.06h4.01v1.22h-4.01
				V164.85z M173.89,158.32h-1.27v-3.22h5.13v-1.5h1.39v1.5h5.18v3.22h-1.33v-1.99h-9.09V158.32z"/>
			<path class="st3" d="M48.03,176.46c-0.6,1.02-1.93,2.8-3.43,3.87l-1.16-0.94c1.23-0.71,2.45-2.1,2.86-2.9h-7.68
				c-0.56,0-1.05,0.04-1.65,0.08v-1.55c0.52,0.07,1.09,0.13,1.65,0.13h7.83c0.31,0,0.94-0.04,1.16-0.1l0.88,0.83
				C48.37,176.03,48.14,176.29,48.03,176.46z M38.94,185.97l-1.29-1.05c0.41-0.14,0.9-0.36,1.34-0.69c2-1.29,2.33-3.05,2.33-5.38
				c0-0.38-0.01-0.71-0.08-1.12h1.6C42.84,181.39,42.63,184.08,38.94,185.97z"/>
			<path class="st3" d="M62.14,173.58c0.9,0,1.62,0.73,1.62,1.61c0,0.9-0.73,1.61-1.62,1.61c-0.13,0-0.25-0.01-0.38-0.04
				c-0.01,0.08-0.04,0.18-0.06,0.27c-0.32,1.43-0.97,3.64-2.1,5.14c-1.27,1.65-3.03,3-5.56,3.8l-1.21-1.32
				c2.73-0.67,4.31-1.88,5.48-3.33c0.95-1.23,1.56-3.03,1.75-4.3h-6.89c-0.59,0-1.15,0.03-1.51,0.06v-1.57
				c0.39,0.04,1.05,0.1,1.51,0.1h6.79c0.17,0,0.38,0,0.6-0.03c-0.03-0.13-0.04-0.25-0.04-0.38
				C60.53,174.3,61.25,173.58,62.14,173.58z M62.14,176.05c0.48,0,0.88-0.39,0.88-0.87c0-0.48-0.41-0.88-0.88-0.88
				c-0.48,0-0.87,0.41-0.87,0.88C61.28,175.66,61.67,176.05,62.14,176.05z"/>
			<path class="st3" d="M69.18,175.76v4.69c0,0.36,0.03,0.85,0.06,1.13h-1.61c0.01-0.24,0.06-0.73,0.06-1.13v-4.69
				c0-0.25-0.01-0.74-0.06-1.04h1.61C69.21,175.02,69.18,175.37,69.18,175.76z M75.68,175.9v2.49c0,3.21-0.5,4.4-1.54,5.57
				c-0.91,1.06-2.33,1.71-3.35,2.04l-1.16-1.22c1.33-0.34,2.49-0.87,3.36-1.82c0.98-1.12,1.16-2.21,1.16-4.67v-2.41
				c0-0.5-0.04-0.92-0.08-1.29h1.67C75.71,174.98,75.68,175.4,75.68,175.9z"/>
			<path class="st3" d="M85.63,175.71c1.37-0.06,2.84-0.18,4.12-0.41v1.3c-1.37,0.2-3.1,0.32-4.61,0.36
				c-0.31,0.66-0.69,1.32-1.08,1.85c0.46-0.27,1.25-0.42,1.79-0.42c0.88,0,1.61,0.41,1.88,1.19c0.87-0.41,1.58-0.7,2.24-1.01
				c0.48-0.21,0.88-0.39,1.33-0.62l0.57,1.29c-0.41,0.13-1.01,0.35-1.43,0.52c-0.71,0.28-1.62,0.64-2.61,1.09
				c0.01,0.8,0.03,1.92,0.04,2.59h-1.33c0.03-0.49,0.04-1.29,0.06-1.98c-1.21,0.66-1.96,1.3-1.96,2.13c0,0.95,0.91,1.15,2.33,1.15
				c1.13,0,2.66-0.14,3.89-0.36l-0.04,1.41c-1.01,0.13-2.63,0.25-3.89,0.25c-2.09,0-3.71-0.49-3.71-2.23c0-1.72,1.68-2.82,3.31-3.64
				c-0.18-0.49-0.63-0.7-1.15-0.7c-0.85,0-1.74,0.45-2.33,1.01c-0.41,0.39-0.81,0.91-1.27,1.5l-1.2-0.9
				c1.64-1.54,2.59-2.9,3.17-4.09c-0.14,0-0.28,0-0.41,0c-0.59,0-1.55-0.03-2.34-0.08v-1.32c0.74,0.11,1.74,0.15,2.41,0.15
				c0.27,0,0.55,0,0.83-0.01c0.18-0.58,0.29-1.16,0.32-1.67l1.46,0.11C85.93,174.58,85.82,175.1,85.63,175.71z"/>
			<path class="st3" d="M99.11,173.95c-0.39,0.94-0.85,1.9-1.39,2.82v9.74H96.5v-7.86c-0.43,0.59-0.9,1.13-1.36,1.6
				c-0.13-0.31-0.49-1.01-0.71-1.32c1.37-1.29,2.69-3.32,3.47-5.38L99.11,173.95z M103.58,181.38c-0.11,0.92-0.34,1.79-0.85,2.56
				c1.34,0.7,3.04,1.15,4.97,1.34c-0.25,0.28-0.6,0.81-0.77,1.18c-1.93-0.28-3.6-0.8-4.96-1.6c-0.7,0.66-1.67,1.21-3.03,1.61
				c-0.15-0.29-0.52-0.81-0.8-1.09c1.25-0.29,2.14-0.73,2.76-1.26c-0.76-0.6-1.39-1.33-1.88-2.19l1.06-0.34
				c0.39,0.64,0.91,1.21,1.57,1.68c0.36-0.59,0.55-1.23,0.63-1.9h-3.25v-3.94h3.33v-1.2h-3.68v-1.19h3.68v-1.39h1.29v1.39h3.87v1.19
				h-3.87v1.2h3.46v3.94H103.58z M102.38,180.3v-0.43v-1.34h-2.14v1.78H102.38z M103.67,178.52v1.34c0,0.14,0,0.29,0,0.43h2.21
				v-1.78H103.67z"/>
			<path class="st3" d="M112.33,179.25c0.97-0.31,3.31-1.12,4.97-1.12c2.09,0,3.54,1.23,3.54,3.24c0,2.63-2.44,4.16-6.5,4.41
				l-0.59-1.36c3.11-0.1,5.64-0.95,5.64-3.07c0-1.13-0.88-1.95-2.21-1.95c-1.69,0-4.64,1.22-5.66,1.65l-0.59-1.46
				C111.35,179.53,111.9,179.38,112.33,179.25z"/>
			<path class="st3" d="M125.91,175.82c1.02-0.1,3.52-0.34,6.09-0.55c1.5-0.13,2.9-0.21,3.87-0.25v1.41c-0.77,0-1.99,0.01-2.72,0.21
				c-1.86,0.56-3.11,2.55-3.11,4.22c0,2.55,2.38,3.4,4.71,3.5l-0.52,1.48c-2.75-0.13-5.62-1.6-5.62-4.69c0-2.1,1.25-3.81,2.38-4.55
				c-1.42,0.15-4.68,0.49-6.23,0.83l-0.15-1.54C125.15,175.87,125.64,175.84,125.91,175.82z"/>
			<path class="st3" d="M151.46,174.61v1.02h-2.65c0.28,0.35,0.53,0.74,0.67,1.04l-1.16,0.35c-0.15-0.36-0.52-0.92-0.88-1.39h-0.94
				c-0.38,0.5-0.79,0.94-1.19,1.29c-0.28-0.2-0.83-0.5-1.15-0.64c0.27-0.18,0.52-0.41,0.76-0.64h-2.28c0.21,0.36,0.39,0.74,0.5,1.02
				l-1.13,0.34c-0.11-0.35-0.38-0.9-0.64-1.36h-0.39c-0.38,0.55-0.78,1.04-1.18,1.41c-0.25-0.21-0.76-0.55-1.06-0.71
				c0.84-0.7,1.6-1.76,2.03-2.83l1.22,0.32c-0.11,0.27-0.24,0.53-0.38,0.79h3.4v0.94c0.56-0.59,1.04-1.3,1.32-2.04l1.25,0.31
				c-0.11,0.27-0.25,0.53-0.39,0.8H151.46z M140.9,180.79v5.65h-1.19v-9.27h5.01v3.63H140.9z M140.9,177.96v0.63h2.63v-0.63H140.9z
				 M143.54,180v-0.66h-2.63V180H143.54z M143.79,185.27v0.49h-1.18v-4.33h5.2v3.84H143.79z M143.79,182.19v0.76h2.87v-0.76H143.79z
				 M146.66,184.49v-0.77h-2.87v0.77H146.66z M150.89,185.05c0,0.64-0.15,0.99-0.59,1.19c-0.45,0.18-1.16,0.2-2.19,0.2
				c-0.06-0.32-0.22-0.84-0.39-1.15c0.71,0.03,1.44,0.03,1.65,0.01c0.22,0,0.28-0.07,0.28-0.27v-4.24h-3.92v-3.63h5.15V185.05z
				 M146.91,177.96v0.63h2.75v-0.63H146.91z M149.66,180v-0.66h-2.75V180H149.66z"/>
			<path class="st3" d="M166.15,184.05h-5.62v2.4h-1.33v-2.4h-5.52v-1.22h5.52v-1.11h-4.24v-5.7h1.23
				c-0.27-0.55-0.79-1.27-1.25-1.82l1.13-0.5c0.52,0.57,1.12,1.4,1.4,1.95l-0.78,0.38h2.8c-0.21-0.59-0.66-1.41-1.08-2.03l1.16-0.45
				c0.48,0.66,0.98,1.54,1.19,2.11l-0.9,0.36h2.33c0.5-0.67,1.09-1.68,1.42-2.44l1.43,0.45c-0.43,0.69-0.92,1.4-1.37,1.99h1.32v5.7
				h-4.45v1.11h5.62V184.05z M159.2,177.12h-2.97v1.23h2.97V177.12z M159.2,180.63v-1.25h-2.97v1.25H159.2z M163.66,177.12h-3.12
				v1.23h3.12V177.12z M163.66,179.39h-3.12v1.25h3.12V179.39z"/>
			<path class="st3" d="M180.11,180.63v5.79h-1.34v-0.83h-8.28v0.85h-1.32v-5.81h1.32v3.68h3.38v-4.52h-4.16v-4.89h1.3v3.63h2.86
				v-4.85h1.33v4.85h3v-3.64h1.37v4.9h-4.37v4.52h3.57v-3.68H180.11z"/>
			<path class="st3" d="M183.46,180.31h5.07v6.04h-1.29v-0.63h-2.55v0.73h-1.23V180.31z M184.7,181.56v2.91h2.55v-2.91H184.7z
				 M193.27,178.95h-7.83v-4.78h7.83V178.95z M191.94,175.42h-5.25v2.28h5.25V175.42z M195.23,180.31v6.06h-1.3v-0.66h-2.77v0.73
				h-1.25v-6.13H195.23z M193.93,184.47v-2.91h-2.77v2.91H193.93z"/>
			<path class="st3" d="M201.9,184.09c0,1.21-0.97,2.19-2.19,2.19c-1.21,0-2.2-0.98-2.2-2.19c0-1.2,0.99-2.2,2.2-2.2
				C200.94,181.9,201.9,182.89,201.9,184.09z M201.06,184.09c0-0.74-0.6-1.34-1.34-1.34s-1.34,0.6-1.34,1.34
				c0,0.74,0.6,1.34,1.34,1.34S201.06,184.84,201.06,184.09z"/>
		</g>
	</g>
	<g>
		<g>
			<path class="st4" d="M111.59,71.73C111.59,71.73,111.59,71.73,111.59,71.73c0.39,0.48,0.77,0.96,1.16,1.45
				c0,0,0.01-0.01,0.01-0.01c0,0,0,0,0,0c0.28,0.44,0.55,0.88,0.83,1.31c0.12,0.27,0.33,0.5,0.39,0.79
				c-0.13,0.29,0.11,0.5,0.16,0.75c0.04,0.11,0.08,0.22,0.12,0.33c0.1,0.18,0.07,0.41,0.2,0.58c0.19,0.12,0.3,0.03,0.38-0.14
				c0.02-0.11,0.01-0.22,0.01-0.33c-0.02-0.15-0.01-0.31-0.03-0.46c-0.1-0.75-0.22-1.5-0.37-2.24c-0.01-0.05-0.03-0.1-0.05-0.15
				c0-0.01,0-0.02,0-0.02c-0.03-0.43-0.12-0.83-0.27-1.24c-0.3-0.8-0.6-1.59-0.69-2.45c-0.06-0.63-0.03-1.26,0.26-1.83
				c0.46-0.91,1.45-1.37,2.48-1.2c0.16,0.03,0.34,0.11,0.5,0.06c0.01,0.02,0.02,0.03,0.03,0.05c0.22,0.15,0.39,0.38,0.65,0.47
				c0.07-0.01,0.13-0.04,0.17-0.1c0.03-0.15,0.11-0.31,0.02-0.47c-0.06-0.1-0.1-0.2-0.14-0.31c-0.05-0.1-0.08-0.22-0.22-0.24
				c-0.08-0.22-0.26-0.41-0.26-0.67c-0.17-0.01-0.24-0.16-0.33-0.26c-0.78-0.9-1.73-1.42-2.95-1.43c-1.41-0.01-2.48,0.56-3.21,1.77
				c0,0,0,0,0,0c-0.89,1.06-0.81,3.14,0.06,4.44C110.8,70.74,111.13,71.28,111.59,71.73z"/>
			<path class="st4" d="M130.18,86.09c-0.43-0.78-0.86-1.56-1.49-2.21c0,0,0,0,0,0c-0.98-1.35-2.17-2.49-3.43-3.57
				c-0.13-0.15-0.25-0.31-0.39-0.45c-1.38-1.36-2.67-2.81-3.85-4.36c-0.03-0.05-0.05-0.1-0.08-0.14c-0.99-1.42-1.93-2.87-2.58-4.49
				c-0.08-0.2-0.19-0.56-0.58-0.47c0.03,0.82,0.24,1.62,0.4,2.42c0.08,0.32,0.03,0.68,0.23,0.96c0.02,0.09,0.03,0.19,0.07,0.28
				c0.1,0.29,0.11,0.62,0.37,0.84c-0.03,0.05-0.03,0.12-0.01,0.2c0.31,0.88,0.59,1.77,1.02,2.6c0.12,0.24,0.13,0.55,0.38,0.73
				c0.07,0.01,0.12,0,0.15-0.01c0.19,0.41,0.36,0.83,0.64,1.2c0.14,0.38,0.31,0.75,0.58,1.06c0,0,0,0,0,0
				c0.54,0.96,1.08,1.93,1.62,2.89c0,0,0,0,0,0c0.07,0.19,0.14,0.37,0.22,0.56c0.69,1.62,1.19,3.28,1.24,5.05l0,0
				c0,0.02,0,0.04,0.01,0.06c0,0,0,0,0,0c-0.04,0.35-0.07,0.7-0.03,1.05c0,0,0,0,0,0c-0.16,0.71-0.28,1.42-0.57,2.09
				c0,0-0.01,0-0.01,0c-0.04,0.01-0.08,0.01-0.12,0.01c-0.18,0.1-0.27,0.29-0.37,0.46c-0.34,0.57-0.77,1.08-1.26,1.53
				c-0.24,0.23-0.56,0.35-0.77,0.62c0,0.01-0.01,0.02-0.01,0.03c-0.08-0.01-0.17,0.03-0.25,0.07c-1.14,0.59-2.35,0.8-3.62,0.61
				c-0.14-0.02-0.29-0.06-0.42,0.02c-0.1-0.19-0.3-0.24-0.47-0.29c-0.6-0.16-1.13-0.49-1.65-0.81c-0.21-0.13-0.38-0.28-0.49-0.5
				c-0.36-0.23-0.66-0.54-1.05-0.72c-0.05-0.07-0.11-0.13-0.16-0.2c-0.07-0.03-0.13-0.06-0.2-0.09c0.04,0.14,0.05,0.28-0.02,0.42
				c0.23,0.22,0.26,0.53,0.38,0.8c0.2,0.38,0.24,0.84,0.54,1.17c0,0,0,0,0,0c0.17,0.4,0.39,0.78,0.68,1.11
				c0.08,0.15,0.18,0.29,0.32,0.4c0,0,0,0,0,0c0.19,0.3,0.44,0.55,0.71,0.77c0.26,0.3,0.56,0.56,0.9,0.76c0,0,0,0,0,0
				c0.77,0.66,1.69,1.06,2.63,1.39c0.84,0.3,1.7,0.55,2.62,0.45c0.06,0.01,0.13,0.01,0.19,0.01c0.83,0.04,1.64-0.11,2.44-0.33
				c0,0,0,0,0,0c1.59-0.24,2.84-1.09,4-2.14c0.92-0.79,1.6-1.74,2.09-2.85c0,0,0,0,0,0c0.18-0.14,0.24-0.35,0.32-0.55
				c0.25-0.68,0.44-1.37,0.51-2.09C131.8,90.19,131.27,88.08,130.18,86.09z"/>
		</g>
		<g>
			<path class="st4" d="M153.77,48.48c-1.03-0.96-2.33-1.52-3.7-1.69c-1.36-0.16-2.79,0.05-4.17,0.61c-2.4,0.98-4.65,3.02-6.14,6.03
				c-1.24,2.51-1.95,5.69-1.84,9.49L128,38.61c-0.65-1.59-2.47-2.36-4.06-1.71L83.46,53.4c-1.59,0.65-2.36,2.47-1.71,4.06
				l9.63,23.63l-7.05,0.19c-1.07,0.03-2.1,0.25-3.04,0.64c-1.63,0.66-3,1.8-3.96,3.24c-0.96,1.44-1.5,3.18-1.45,5.04
				c0.03,1.07,0.25,2.1,0.64,3.04c0.66,1.63,1.8,3,3.24,3.96c1.44,0.95,3.18,1.49,5.04,1.44l6.25-0.17
				c-0.27,0.3-0.51,0.61-0.73,0.95c-0.9,1.36-1.42,3.02-1.37,4.78c0.02,1.01,0.24,1.99,0.6,2.88c0.63,1.54,1.7,2.85,3.07,3.75
				c1.36,0.9,3.02,1.41,4.78,1.37l0.46-0.01c-0.11,0.15-0.22,0.3-0.32,0.45c-0.91,1.36-1.42,3.01-1.37,4.78
				c0.02,1.01,0.24,1.99,0.6,2.88c0.63,1.55,1.7,2.84,3.07,3.75c1.36,0.91,3.01,1.42,4.77,1.37l0.46-0.01
				c-0.12,0.15-0.23,0.3-0.34,0.47c-0.91,1.36-1.42,3.02-1.37,4.77c0.03,1.02,0.24,1.99,0.61,2.89c0.63,1.54,1.7,2.85,3.07,3.75
				c1.36,0.9,3.02,1.42,4.78,1.37l6-0.16c1.01-0.03,1.99-0.24,2.88-0.6c1.25-0.51,2.33-1.32,3.18-2.32c2.11,0.45,4.44,0.74,7,0.74
				c4.19,0,8.96-0.75,14.19-2.75c0.33-0.13,0.66-0.25,0.98-0.39c5.05-2.06,8.88-4.74,11.66-7.92c2.09-2.38,3.59-5.04,4.6-7.86
				c1.52-4.24,1.95-8.84,1.75-13.6c-0.2-4.75-1.03-9.66-2.08-14.58c-0.02-0.1-0.11-0.62-0.25-1.46c-0.56-3.3-1.97-11.57-3.26-19.23
				c-0.64-3.83-1.26-7.5-1.72-10.31c-0.23-1.41-0.43-2.6-0.57-3.49c-0.07-0.44-0.13-0.81-0.17-1.09c-0.04-0.27-0.07-0.47-0.08-0.52
				c-0.09-0.82-0.28-1.58-0.56-2.27C155.01,49.93,154.45,49.12,153.77,48.48z M84.72,95.54c-1.2,0.03-2.3-0.31-3.23-0.93
				c-0.92-0.61-1.66-1.5-2.08-2.54c-0.25-0.6-0.39-1.26-0.41-1.95c-0.03-1.2,0.31-2.3,0.93-3.23c0.61-0.92,1.5-1.66,2.54-2.08
				c0.6-0.24,1.26-0.39,1.95-0.41l8.22-0.22l4.49,11.02L84.72,95.54z M94.35,108.25c-0.85-0.57-1.52-1.38-1.91-2.33
				c-0.23-0.55-0.35-1.15-0.37-1.79c-0.03-1.1,0.29-2.12,0.85-2.97c0.56-0.85,1.38-1.52,2.33-1.91c0.55-0.23,1.15-0.35,1.79-0.37
				l0.01,0l1.57-0.04l4.43-0.12c0.82-0.02,1.59,0.15,2.28,0.47c0.23,0.11,0.46,0.23,0.68,0.38c0.85,0.56,1.52,1.38,1.91,2.33
				c0.23,0.56,0.36,1.16,0.38,1.8c0.02,0.69-0.1,1.34-0.33,1.95c-0.14,0.36-0.31,0.69-0.52,1.01c-0.56,0.85-1.37,1.52-2.33,1.91
				c-0.55,0.23-1.15,0.36-1.79,0.37l-0.58,0.01l-5.42,0.15C96.21,109.13,95.2,108.81,94.35,108.25z M101.56,121.47
				c-0.85-0.57-1.52-1.38-1.91-2.34c-0.23-0.55-0.36-1.15-0.37-1.79c-0.03-1.1,0.28-2.11,0.85-2.97c0.56-0.85,1.38-1.52,2.33-1.91
				c0.49-0.2,1.01-0.32,1.56-0.36c0.08-0.01,0.15-0.01,0.23-0.01l6-0.16c0.09,0,0.18,0,0.27,0c1,0.02,1.92,0.33,2.69,0.85
				c0.85,0.57,1.52,1.38,1.91,2.34c0.23,0.55,0.36,1.15,0.38,1.79c0,0,0,0.01,0,0.02c0.03,1.09-0.29,2.11-0.85,2.95
				c-0.56,0.85-1.38,1.52-2.33,1.91c-0.55,0.23-1.15,0.36-1.79,0.38l-2.39,0.06l-3.62,0.09
				C103.43,122.35,102.42,122.04,101.56,121.47z M122.69,129.92c0.01,0.07,0.01,0.15,0.02,0.22c0.03,1.1-0.28,2.11-0.85,2.96
				c-0.56,0.85-1.37,1.52-2.33,1.91c-0.55,0.23-1.15,0.36-1.79,0.37l-6,0.16c-1.1,0.03-2.12-0.29-2.96-0.85
				c-0.85-0.56-1.52-1.37-1.91-2.33c-0.23-0.55-0.36-1.16-0.37-1.79c-0.03-1.1,0.28-2.12,0.85-2.97c0.54-0.82,1.33-1.48,2.25-1.87
				l0.08-0.03c0.55-0.23,1.15-0.36,1.79-0.38l0.26-0.01l5.74-0.15c1.11-0.03,2.12,0.29,2.97,0.85c0.85,0.57,1.52,1.38,1.91,2.34
				C122.53,128.84,122.66,129.36,122.69,129.92z M110.18,108.82l-0.48,0.01c0.12-0.15,0.22-0.3,0.33-0.46
				c0.91-1.36,1.42-3.02,1.37-4.77c-0.02-1.02-0.24-1.99-0.61-2.89c-0.63-1.54-1.7-2.84-3.07-3.75c-1.12-0.75-2.44-1.23-3.85-1.34
				L89.74,60.94l35.09-14.31l23.13,56.73l-29.51,12.03c-0.1-0.5-0.24-0.99-0.43-1.45c-0.63-1.55-1.7-2.84-3.07-3.76
				C113.58,109.28,111.93,108.77,110.18,108.82z M134.79,115.64c0.45,1.11-0.08,2.39-1.2,2.85c-1.12,0.45-2.39-0.08-2.84-1.2
				c-0.45-1.11,0.08-2.39,1.2-2.84C133.06,113.99,134.34,114.52,134.79,115.64z M152.85,53.48c0.02,0.17,0.05,0.41,0.11,0.78
				c0.21,1.34,0.68,4.22,1.28,7.8c1.79,10.73,4.69,27.72,4.69,27.72l0.01,0.03l0.01,0.03c0.92,4.3,1.65,8.55,1.93,12.59
				c0.21,3.03,0.17,5.95-0.21,8.69c-0.59,4.12-1.94,7.82-4.41,11.04c-2.48,3.22-6.09,5.99-11.37,8.15c-0.3,0.12-0.6,0.24-0.91,0.36
				c-4.89,1.86-9.26,2.55-13.08,2.54c-1.96,0-3.78-0.19-5.44-0.49c0.26-0.84,0.39-1.74,0.37-2.66c-0.01-0.46-0.06-0.92-0.15-1.35
				c-0.06-0.31-0.13-0.61-0.23-0.9l30.6-12.16c1.59-0.65,2.36-2.47,1.71-4.06L142.06,73.1c-0.23-2.06-0.52-4.71-0.9-8.14
				c-0.48-4.4,0.2-7.75,1.39-10.15c1.19-2.4,2.89-3.86,4.53-4.53c1.24-0.51,2.43-0.55,3.35-0.24c0.46,0.15,0.86,0.39,1.21,0.71
				c0.35,0.32,0.64,0.74,0.86,1.28C152.67,52.44,152.79,52.92,152.85,53.48z"/>
		</g>
	</g>
</g>
</svg>
