<?xml version="1.0" encoding="utf-8"?>
<!-- Generator: Adobe Illustrator 24.0.1, SVG Export Plug-In . SVG Version: 6.00 Build 0)  -->
<svg version="1.1" id="レイヤー_1" xmlns="http://www.w3.org/2000/svg" xmlns:xlink="http://www.w3.org/1999/xlink" x="0px"
	 y="0px" viewBox="0 0 240 200" style="enable-background:new 0 0 240 200;" xml:space="preserve">
<style type="text/css">
	.st0{fill:none;}
	.st1{fill:#00395B;}
	.st2{fill:#FFFFFF;}
	.st3{fill:#535353;}
	.st4{fill:#D0A867;}
</style>
<g>
	<g>
		<rect y="-0.38" class="st0" width="240" height="200"/>
		<g>
			<circle class="st1" cx="27" cy="23.62" r="20"/>
			<g>
				<path class="st2" d="M33.05,16.73h-8.27v4.38c0.58-0.18,1.37-0.43,2.65-0.43c4.12,0,7.15,2.72,7.15,6.62
					c0,3.23-2.21,6.87-8.12,6.87c-3.36,0-5.6-1.2-6.31-1.55l0.92-3.31c2.39,1.58,4.73,1.58,5.35,1.58c4,0,4.58-2.44,4.58-3.56
					c0-2.14-1.68-3.41-3.82-3.41c-1.02,0-2.04,0.28-2.75,0.99H21.4V13.45h11.66V16.73z"/>
			</g>
		</g>
	</g>
	<g>
		<g>
			<path class="st3" d="M60.18,177.12h-4.13v1.85h-1.16v-2.75h5.29v-0.71h-4.44v-0.99h10.2v0.99h-4.5v0.71h5.39v2.75h-1.2v-1.85
				h-4.19v3.07h-1.26V177.12z M65.31,185.72c0.7,0,0.84-0.24,0.92-1.54c0.27,0.2,0.76,0.38,1.11,0.42c-0.17,1.7-0.55,2.13-1.96,2.13
				h-3.07c-1.72,0-2.2-0.32-2.2-1.58v-0.27h-2.75v0.67h-1.25v-4.94h9.5v4.27h-4.26v0.27c0,0.49,0.17,0.57,1.04,0.57H65.31z
				 M56.43,179.15h3.14v0.76h-3.14V179.15z M59.55,177.75v0.76h-2.84v-0.76H59.55z M57.37,181.52v0.83h2.75v-0.83H57.37z
				 M60.11,183.96v-0.8h-2.75v0.8H60.11z M64.34,181.52h-2.98v0.83h2.98V181.52z M64.34,183.96v-0.8h-2.98v0.8H64.34z M64.96,177.75
				v0.76h-2.87v-0.76H64.96z M62.09,179.15h3.22v0.76h-3.22V179.15z"/>
			<path class="st3" d="M81.9,181.41h-5.64v3.82c0,0.8-0.2,1.18-0.78,1.4c-0.58,0.2-1.51,0.24-2.82,0.22
				c-0.08-0.38-0.34-0.97-0.56-1.34c1.05,0.04,2.1,0.03,2.42,0.03c0.29-0.01,0.38-0.08,0.38-0.32v-3.81h-5.66v-1.3h5.66v-2.23h0.76
				c0.85-0.48,1.75-1.11,2.47-1.71h-7.44v-1.28h8.81l0.29-0.08l0.98,0.74c-1.19,1.22-2.94,2.52-4.51,3.39v1.16h5.64V181.41z"/>
			<path class="st3" d="M91.38,183.17c0.92,1.5,2.66,2.21,5.39,2.44c-0.29,0.29-0.64,0.85-0.8,1.23c-2.72-0.34-4.43-1.18-5.5-2.89
				c-0.6,1.18-2.16,2.3-5.9,2.89c-0.15-0.31-0.49-0.81-0.76-1.09c3.85-0.59,5.14-1.61,5.53-2.58h-5.18v-1.12h5.34v-0.92h1.33v0.92
				h5.56v1.12H91.38z M83.99,179.78c0.69-0.07,1.54-0.17,2.48-0.27v-1.4h-2.03v-1.01h2.03V176h-2.23v-1.01h2.23v-1.02h1.22v1.02h2.1
				V176h-2.1v1.11h1.93v1.01h-1.93v1.25l2.16-0.27l0.03,0.8c1.57-0.85,1.93-2.24,2.06-4.22h-1.82v-1.11h6.18c0,0,0,0.36-0.01,0.52
				c-0.14,3.42-0.28,4.71-0.64,5.16c-0.24,0.31-0.5,0.42-0.9,0.46c-0.34,0.04-0.92,0.04-1.53,0.03c-0.03-0.35-0.15-0.87-0.35-1.16
				c0.55,0.06,1.05,0.06,1.26,0.06s0.34-0.03,0.46-0.17c0.2-0.27,0.34-1.25,0.45-3.78h-1.88c-0.18,2.46-0.7,4.2-2.75,5.27
				c-0.11-0.24-0.38-0.59-0.6-0.81c-2.04,0.29-4.16,0.56-5.69,0.76L83.99,179.78z"/>
			<path class="st3" d="M100.26,182.18c-0.18,1.32-0.5,2.68-0.94,3.57c-0.21-0.15-0.73-0.39-0.99-0.49
				c0.42-0.84,0.69-2.07,0.83-3.28L100.26,182.18z M102.85,178.44c0.57,0.91,1.15,2.1,1.34,2.87l-1,0.48
				c-0.06-0.22-0.14-0.49-0.25-0.78l-1.04,0.07v5.77h-1.16v-5.7c-0.8,0.04-1.54,0.08-2.19,0.13l-0.11-1.15l0.98-0.03
				c0.27-0.34,0.53-0.7,0.81-1.09c-0.43-0.62-1.15-1.37-1.77-1.96l0.63-0.87c0.13,0.11,0.25,0.22,0.38,0.34
				c0.43-0.77,0.9-1.78,1.15-2.54l1.18,0.42c-0.5,0.95-1.09,2.06-1.6,2.82c0.27,0.28,0.5,0.56,0.69,0.81
				c0.55-0.84,1.05-1.71,1.41-2.44l1.11,0.48c-0.8,1.27-1.85,2.82-2.79,3.98l1.86-0.07c-0.18-0.39-0.38-0.77-0.59-1.12
				L102.85,178.44z M103.2,181.91c0.38,0.84,0.76,1.93,0.91,2.65l-1.04,0.36c-0.13-0.73-0.5-1.83-0.85-2.69L103.2,181.91z
				 M111.1,177.04c-0.24,6.18-0.42,8.36-1.01,9.08c-0.34,0.46-0.69,0.59-1.23,0.64c-0.48,0.07-1.33,0.06-2.16,0.01
				c-0.03-0.38-0.18-0.94-0.43-1.3c0.91,0.07,1.75,0.08,2.09,0.08c0.29,0,0.45-0.06,0.6-0.24c0.45-0.45,0.67-2.52,0.85-7.66h-4.27
				c-0.38,0.71-0.8,1.36-1.23,1.88c-0.25-0.22-0.84-0.6-1.15-0.78c1.06-1.13,1.93-2.96,2.42-4.79l1.33,0.31
				c-0.21,0.73-0.48,1.46-0.77,2.14h4.96V177.04z M106.8,183.27c-0.28-0.85-1.05-2.21-1.79-3.22l1.05-0.52
				c0.76,0.95,1.58,2.28,1.89,3.15L106.8,183.27z"/>
			<path class="st3" d="M114.4,180.74c0.71-0.71,1.83-2.24,2.69-3.25c0.88-1.02,1.69-1.13,2.66-0.17c0.88,0.88,1.97,2.3,2.84,3.22
				c0.87,0.95,2.18,2.34,3.47,3.49l-1.13,1.3c-1.04-0.98-2.28-2.37-3.21-3.45c-0.9-1.02-1.95-2.37-2.6-3.11
				c-0.55-0.6-0.81-0.5-1.26,0.04c-0.62,0.77-1.7,2.25-2.37,3.08c-0.29,0.42-0.62,0.87-0.85,1.19l-1.32-1.36
				C113.7,181.45,114.01,181.14,114.4,180.74z"/>
			<path class="st3" d="M134.9,186.25l-0.83-1.32c0.48-0.04,0.9-0.11,1.25-0.2c1.79-0.41,3.39-1.72,3.39-3.98
				c0-2.03-1.23-3.64-3.39-3.91c-0.2,1.26-0.43,2.62-0.84,3.94c-0.84,2.86-2,4.44-3.39,4.44c-1.39,0-2.66-1.54-2.66-3.88
				c0-3.14,2.75-5.83,6.26-5.83c3.36,0,5.49,2.35,5.49,5.28C140.18,183.75,138.3,185.76,134.9,186.25z M131.13,183.56
				c0.63,0,1.29-0.91,1.93-3.07c0.35-1.11,0.6-2.38,0.77-3.61c-2.52,0.41-3.99,2.59-3.99,4.33
				C129.84,182.82,130.53,183.56,131.13,183.56z"/>
			<path class="st3" d="M148.21,186.48l-1.19-1.12c2.62-0.97,3.85-2.17,3.85-5.88v-0.56h-3.7v2.1c0,0.58,0.04,1.16,0.07,1.36h-1.56
				c0.01-0.2,0.07-0.77,0.07-1.36v-2.1h-1.37c-0.66,0-1.23,0.03-1.46,0.06v-1.53c0.18,0.04,0.81,0.11,1.46,0.11h1.37v-1.61
				c0-0.35-0.03-0.76-0.08-1.12h1.58c-0.03,0.18-0.08,0.6-0.08,1.12v1.61h3.7v-1.62c0-0.56-0.04-1.02-0.07-1.22h1.58
				c-0.03,0.21-0.08,0.66-0.08,1.22v1.62h1.32c0.69,0,1.13-0.04,1.4-0.08v1.48c-0.22-0.03-0.71-0.04-1.39-0.04h-1.33v0.48
				C152.3,183,151.49,185.01,148.21,186.48z"/>
			<path class="st3" d="M163.92,177.92c1.46-0.9,2.94-2.2,3.89-3.33l1.18,1.12c-1.06,1.08-2.38,2.16-3.77,3.07v5.81
				c0,0.57,0.03,1.34,0.1,1.65h-1.74c0.04-0.31,0.08-1.08,0.08-1.65v-4.87c-1.47,0.8-3.32,1.61-5.17,2.17l-0.69-1.39
				C160.27,179.84,162.37,178.89,163.92,177.92z"/>
			<path class="st3" d="M178.78,182.7c2.25-1.39,4.01-3.49,4.86-5.28l0.85,1.53c-1.01,1.82-2.73,3.73-4.92,5.07
				c-1.41,0.87-3.19,1.7-5.36,2.09l-0.94-1.44C175.61,184.31,177.43,183.52,178.78,182.7z M178.3,178.21l-1.11,1.13
				c-0.73-0.74-2.47-2.27-3.5-2.97l1.02-1.09C175.69,175.94,177.51,177.4,178.3,178.21z"/>
		</g>
	</g>
	<g>
		<path class="st4" d="M176.93,77.05L159.8,91.97l-0.07,1.5c-0.05,0.85-0.33,2.05-0.81,3.3c-0.26,0.65-0.57,1.31-0.88,1.96
			l-19.42-16.75c-0.76-0.65-1.77-0.95-2.75-0.83c-0.18,0.03-14.42,1.82-28.62,7.8c-1.41,0.6-2.47,0.78-3.18,0.78
			c-0.58,0-0.92-0.11-1.18-0.23c-0.39-0.19-0.65-0.44-0.92-0.95c-0.27-0.49-0.44-1.22-0.44-2c0-1.09,0.39-2.21,0.83-2.75
			c0.55-0.71,1.22-1.68,2.14-2.93c1.38-1.85,3.25-4.25,5.47-6.6c2.22-2.35,4.8-4.61,7.5-6.2c3.65-2.15,6.78-2.68,9.73-2.7
			c1.82,0,3.57,0.23,5.28,0.48c1.69,0.25,3.34,0.57,5.12,0.57c1.13,0,2.33-0.12,3.58-0.64h0.02c1.94-0.83,3.85-2.05,5.77-3.43
			c2.86-2.08,5.68-4.54,7.84-6.5c0.42-0.37,0.81-0.74,1.17-1.08l-4.82-5.14c-1.06,0.99-2.44,2.22-3.92,3.48
			c-1.52,1.31-3.16,2.63-4.71,3.73c-1.55,1.11-3.04,1.99-4.04,2.4c-0.05,0.04-0.33,0.11-0.88,0.11c-0.85,0.02-2.29-0.21-4.08-0.48
			c-1.78-0.26-3.92-0.57-6.32-0.57c-2.08-0.02-4.4,0.25-6.83,0.92c-2.42-0.67-4.73-0.92-6.83-0.92c-2.4,0-4.52,0.3-6.3,0.57
			c-1.78,0.27-3.23,0.49-4.09,0.48c-0.53,0-0.81-0.07-0.87-0.11c-1.08-0.42-2.68-1.41-4.34-2.61c-2.52-1.82-5.21-4.15-7.24-6
			c-0.55-0.49-1.04-0.95-1.48-1.36l-4.84,5.14c1.04,0.97,2.4,2.23,3.92,3.55c1.69,1.45,3.58,3,5.49,4.39
			c1.92,1.38,3.83,2.6,5.77,3.43c1.25,0.51,2.47,0.64,3.58,0.64c1.78,0,3.44-0.3,5.14-0.57c0.12-0.02,0.23-0.02,0.33-0.04
			c-2.35,2.01-4.4,4.2-6.13,6.23c-1.47,1.71-2.68,3.32-3.67,4.64c-0.95,1.31-1.69,2.37-2.03,2.79c-1.61,2.08-2.29,4.59-2.31,7.08
			c0.02,2.33,0.64,4.77,2.24,6.82c0.79,1.01,1.86,1.91,3.13,2.51c1.27,0.6,2.74,0.92,4.24,0.92c1.89,0,3.85-0.46,5.93-1.34
			c6.53-2.75,13.28-4.61,18.34-5.74c2.54-0.56,4.66-0.95,6.14-1.2c0.28-0.05,0.51-0.09,0.74-0.12l22.19,19.12v0.02h0.02
			c0,0.07-0.04,0.26-0.19,0.56c-0.26,0.49-0.85,1.15-1.59,1.61c-0.74,0.46-1.61,0.72-2.42,0.72c-0.3,0-0.58,0.05-0.87,0.11
			c-0.49-0.11-1.01-0.25-1.5-0.46c-1.54-0.6-2.97-1.55-3.97-2.38c-0.51-0.41-0.92-0.78-1.18-1.04l-0.3-0.28l-0.07-0.07v-0.02
			c-0.53-0.57-1.25-0.85-1.96-0.85c-0.64,0-1.27,0.23-1.78,0.69c-1.08,0.99-1.15,2.67-0.16,3.74c0.09,0.11,1.41,1.55,3.6,3.06
			c1.08,0.74,2.4,1.5,3.9,2.1c0.33,0.12,0.7,0.27,1.08,0.37c0.11,0.23,0.23,0.46,0.39,0.67h-0.02l0.02,0.02
			c0.05,0.11,0.16,0.53,0.14,1.04c0.02,0.97-0.33,2.24-0.85,2.95c-0.25,0.37-0.49,0.58-0.74,0.72c-0.27,0.14-0.51,0.23-0.99,0.25
			h-0.18c-0.09-0.02-0.19,0-0.28,0.02c-0.02,0-0.02,0-0.02,0c-2.29,0-4.43-0.99-6-2.07c-0.79-0.53-1.43-1.08-1.85-1.47
			c-0.21-0.19-0.37-0.35-0.46-0.46l-0.11-0.11l-0.02-0.02v-0.02c-0.51-0.6-1.25-0.9-1.99-0.9c-0.62,0-1.24,0.21-1.73,0.65
			c-1.11,0.95-1.23,2.63-0.26,3.73c0.09,0.12,1.32,1.52,3.44,2.97c1.39,0.95,3.23,1.94,5.4,2.51c-0.03,0.05-0.05,0.12-0.07,0.18
			c-0.28,0.64-0.67,1.27-1.77,1.91c-0.72,0.42-1.25,0.64-1.62,0.76c-0.37,0.11-0.57,0.12-0.83,0.12c-0.35,0-0.87-0.07-1.71-0.25
			c-0.16-0.04-0.32-0.04-0.48-0.05c-0.05-0.02-0.11-0.03-0.18-0.07c-0.87-0.42-1.94-1.17-2.74-1.8c-0.39-0.3-0.72-0.6-0.95-0.79
			l-0.26-0.25l-0.05-0.05h-0.02c-1.06-1.02-2.74-0.97-3.74,0.07c-1.01,1.06-0.97,2.74,0.09,3.74c0.05,0.05,1.17,1.13,2.74,2.24
			c0.27,0.21,0.58,0.41,0.88,0.6c-0.42,0.69-0.88,1.17-1.32,1.47c-0.71,0.49-1.46,0.72-2.45,0.72c-0.88,0-1.92-0.21-2.97-0.65
			c-0.35-0.14-0.69-0.35-1.02-0.53c0.19-0.76,0.3-1.52,0.3-2.29c0-1.59-0.42-3.21-1.32-4.66c-1.52-2.44-4.06-3.88-6.73-4.11
			c0-0.09,0.02-0.19,0.02-0.28c0-1.75-0.48-3.53-1.45-5.12c-1.82-2.93-4.98-4.57-8.19-4.57H108c-0.14,0-0.27,0.02-0.39,0.02
			c-0.16-1.38-0.6-2.74-1.38-3.97c-1.5-2.42-3.9-3.94-6.5-4.41c-0.02-1.71-0.49-3.46-1.45-5.01c-1.84-2.95-5.01-4.57-8.24-4.57
			c-1.75,0-3.53,0.48-5.12,1.47l-3.39,2.1c-0.09-0.18-0.19-0.37-0.26-0.55c-0.6-1.41-0.97-2.83-1.01-3.78l-0.07-1.5L63.07,77.05
			l-4.84,5.14L73.4,95.41c0.26,1.59,0.76,3.11,1.34,4.52c0.37,0.92,0.79,1.78,1.22,2.6c-0.92,1.52-1.43,3.27-1.43,5.01
			c0,1.75,0.48,3.53,1.47,5.12c1.5,2.4,3.9,3.92,6.5,4.4c0.02,1.71,0.49,3.46,1.45,5.01c1.84,2.95,5.01,4.59,8.24,4.59
			c0.12,0,0.25-0.02,0.37-0.04c0.18,1.38,0.62,2.74,1.39,3.99c1.84,2.95,5.01,4.57,8.24,4.57c0.32,0,0.64-0.04,0.95-0.07
			c0.16,1.23,0.57,2.47,1.25,3.58c1.68,2.68,4.57,4.18,7.5,4.17c1.59,0,3.21-0.42,4.66-1.32l4.41-2.74
			c0.87,0.57,1.77,1.06,2.74,1.45c1.77,0.76,3.71,1.22,5.7,1.22c2.19,0.02,4.52-0.58,6.52-1.99c1.29-0.9,2.38-2.14,3.28-3.6
			c0.14,0,0.27,0.02,0.41,0.02c0.92,0,1.91-0.12,2.91-0.44c0.99-0.3,1.98-0.76,3.04-1.36c2.52-1.43,4.04-3.53,4.78-5.31
			c0.16-0.41,0.28-0.78,0.39-1.13c0.6-0.19,1.2-0.42,1.73-0.74c1.94-1.11,3.21-2.82,4.01-4.54c0.78-1.73,1.13-3.53,1.13-5.26
			c0-0.18-0.02-0.34-0.03-0.51c1.29-0.51,2.44-1.25,3.41-2.1c1.01-0.88,1.85-1.91,2.47-3.07c0.62-1.15,1.04-2.49,1.04-3.94
			c0-0.95-0.19-1.94-0.62-2.88c-0.12-0.3-0.32-0.57-0.51-0.85c0.76-1.34,1.52-2.84,2.14-4.47c0.48-1.24,0.86-2.53,1.09-3.87
			l15.16-13.24L176.93,77.05z M85.8,109.67l-0.16,0.11c-0.44,0.27-0.92,0.39-1.39,0.39c-0.88,0-1.75-0.42-2.24-1.24
			c-0.28-0.44-0.41-0.92-0.41-1.4c0.02-0.88,0.44-1.73,1.25-2.24l5.81-3.62c0.46-0.26,0.92-0.39,1.39-0.39
			c0.9,0,1.75,0.44,2.24,1.24v0.02c0.28,0.44,0.41,0.9,0.41,1.38c-0.02,0.62-0.23,1.22-0.64,1.69l-5,3.11
			C86.61,109,86.2,109.32,85.8,109.67z M93.58,119.19c-0.44,0.28-0.92,0.41-1.39,0.41c-0.88,0-1.75-0.44-2.24-1.25
			c-0.28-0.44-0.41-0.9-0.41-1.38c0.02-0.62,0.23-1.22,0.64-1.69l4.99-3.11c0.46-0.28,0.87-0.62,1.26-0.95l0.18-0.11
			c0.46-0.28,0.92-0.41,1.39-0.41c0.9,0.02,1.75,0.44,2.24,1.25c0.28,0.44,0.41,0.9,0.41,1.38c-0.02,0.9-0.44,1.75-1.25,2.26
			L93.58,119.19z M109.4,124.11l-5.83,3.62c-0.44,0.27-0.9,0.39-1.38,0.39c-0.9,0-1.75-0.44-2.24-1.24
			c-0.28-0.46-0.41-0.92-0.41-1.39c0-0.9,0.44-1.75,1.25-2.24l5.81-3.62c0.44-0.26,0.92-0.39,1.39-0.39c0.88,0,1.73,0.42,2.24,1.24
			c0.27,0.44,0.39,0.92,0.39,1.4C110.64,122.76,110.21,123.6,109.4,124.11z M117.84,132.43l-5,3.11c-0.3,0.19-0.6,0.27-0.94,0.27
			c-0.58,0-1.17-0.28-1.5-0.83c-0.18-0.3-0.27-0.6-0.27-0.94c0-0.6,0.3-1.17,0.83-1.48v-0.02l5-3.11c0.32-0.18,0.62-0.26,0.94-0.26
			c0.6,0.02,1.17,0.3,1.5,0.85c0.19,0.3,0.27,0.6,0.27,0.92C118.67,131.53,118.38,132.09,117.84,132.43z"/>
		<path class="st2" d="M111.85,144.1c-3.41,0-6.66-1.81-8.49-4.75c-0.55-0.89-0.96-1.89-1.22-2.93c-3.79-0.02-7.24-1.94-9.23-5.16
			c-0.64-1.04-1.11-2.18-1.38-3.39c-3.5-0.22-6.76-2.15-8.63-5.15c-0.88-1.43-1.42-3.03-1.58-4.67c-2.63-0.73-4.92-2.42-6.36-4.74
			c-1.08-1.74-1.65-3.73-1.65-5.77c0-1.73,0.43-3.46,1.26-5.04c-0.3-0.59-0.65-1.33-0.96-2.11c-0.63-1.53-1.07-2.95-1.34-4.33
			L57.42,83.12c-0.25-0.22-0.41-0.54-0.42-0.87c-0.02-0.34,0.1-0.66,0.33-0.91l4.84-5.14c0.45-0.48,1.21-0.52,1.71-0.08l17.13,14.92
			c0.25,0.22,0.41,0.54,0.42,0.87l0.07,1.5c0.02,0.66,0.25,1.6,0.6,2.58l2.17-1.35c1.73-1.08,3.73-1.65,5.77-1.65
			c3.81,0,7.28,1.93,9.29,5.15c0.88,1.43,1.41,3.02,1.58,4.67c2.64,0.73,4.92,2.43,6.37,4.76c0.65,1.04,1.11,2.17,1.38,3.39
			c3.53,0.22,6.78,2.14,8.63,5.14c0.93,1.53,1.48,3.23,1.61,4.98c2.69,0.54,5.09,2.18,6.55,4.53c0.99,1.59,1.51,3.43,1.51,5.32
			c0,0.54-0.05,1.09-0.14,1.64c0.03,0.01,0.06,0.02,0.09,0.04c0.87,0.37,1.75,0.56,2.51,0.56c0.72,0,1.24-0.15,1.74-0.5
			c0.07-0.05,0.15-0.11,0.24-0.19c-1.43-1.02-2.48-2.02-2.68-2.22c-0.75-0.71-1.17-1.68-1.2-2.71c-0.02-1.04,0.36-2.02,1.07-2.77
			c1.46-1.5,3.83-1.59,5.37-0.23c0.06,0.04,0.11,0.09,0.16,0.14l0.45,0.41c0.19,0.17,0.44,0.38,0.71,0.59
			c0.82,0.66,1.77,1.29,2.46,1.63c0.19,0.02,0.32,0.03,0.45,0.06c0.69,0.14,1.17,0.22,1.44,0.22c0.16,0,0.24,0,0.49-0.08
			c0.37-0.13,0.83-0.34,1.34-0.64c0.2-0.12,0.37-0.23,0.51-0.34c-1.42-0.53-2.81-1.25-4.14-2.16c-2.03-1.39-3.32-2.76-3.67-3.17l0,0
			c-0.69-0.78-1.03-1.78-0.96-2.81c0.07-1.04,0.55-1.99,1.34-2.67c0.68-0.61,1.59-0.95,2.54-0.95c1.14,0,2.21,0.49,2.93,1.33
			c0.02,0.02,0.03,0.04,0.05,0.06l0,0c0.03,0.03,0.06,0.06,0.09,0.1c0.06,0.08,0.18,0.19,0.33,0.33c0.57,0.53,1.13,0.97,1.71,1.35
			c1.01,0.69,3,1.83,5.23,1.86c0.14-0.02,0.29-0.03,0.46-0.02h0.1c0.24-0.01,0.3-0.04,0.41-0.1c0.04-0.03,0.15-0.1,0.3-0.32
			c0.37-0.51,0.65-1.52,0.64-2.24c0.01-0.26-0.02-0.45-0.04-0.54c-0.04-0.06-0.08-0.13-0.12-0.19c-0.19-0.07-0.38-0.14-0.56-0.2
			c-1.54-0.61-2.94-1.36-4.26-2.27c-2.18-1.49-3.61-3-3.85-3.29c-0.66-0.71-1.02-1.7-0.98-2.74c0.04-1.04,0.49-1.99,1.25-2.7
			c1.56-1.4,4.09-1.26,5.48,0.22c0.02,0.03,0.05,0.05,0.07,0.08l0.24,0.23c0.16,0.16,0.53,0.52,1.11,0.98
			c1.14,0.94,2.46,1.73,3.65,2.2c0.33,0.14,0.68,0.25,1.08,0.35c0.26-0.04,0.53-0.08,0.84-0.08c0.57,0,1.21-0.2,1.77-0.54
			c0.38-0.23,0.7-0.54,0.92-0.8l-21.06-18.15c-0.05,0.01-0.09,0.02-0.14,0.03c-1.35,0.22-3.47,0.61-6.11,1.19
			c-4.54,1.01-11.36,2.82-18.13,5.67c-2.28,0.97-4.38,1.44-6.41,1.44c-1.68,0-3.33-0.36-4.76-1.04c-1.37-0.65-2.6-1.64-3.57-2.86
			c-1.62-2.07-2.49-4.68-2.51-7.57c0.02-2.98,0.91-5.69,2.57-7.84c0.21-0.26,0.55-0.74,1-1.36l1.01-1.4
			c1.09-1.46,2.28-3.03,3.73-4.72c1.14-1.34,2.26-2.56,3.37-3.68c-0.58,0.05-1.17,0.09-1.78,0.09c-1.55,0-2.84-0.23-4.05-0.73
			c-1.8-0.77-3.65-1.86-6.02-3.56c-1.67-1.22-3.43-2.63-5.57-4.46c-1.6-1.39-3.02-2.71-3.96-3.59c-0.24-0.22-0.38-0.54-0.39-0.86
			c-0.01-0.33,0.11-0.65,0.34-0.89l4.84-5.14c0.46-0.49,1.24-0.52,1.74-0.06l0.27,0.25c0.37,0.34,0.77,0.71,1.21,1.11
			c1.84,1.69,4.57,4.08,7.13,5.92c1.65,1.2,3.13,2.09,4.06,2.46c0.07,0.01,0.23,0.02,0.5,0.03c0.73,0,1.98-0.19,3.43-0.4l0.41-0.06
			c1.65-0.24,3.92-0.58,6.49-0.58c2.33,0,4.63,0.29,6.83,0.87c2.28-0.6,4.57-0.89,6.84-0.87c2.58,0,4.93,0.35,6.49,0.58l0.41,0.06
			c1.49,0.22,2.78,0.42,3.46,0.4c0.26,0,0.41-0.02,0.47-0.03c0.9-0.37,2.31-1.21,3.76-2.25c1.39-0.98,2.94-2.21,4.63-3.66
			c1.31-1.11,2.68-2.33,3.88-3.45c0.5-0.46,1.28-0.44,1.74,0.06l4.82,5.14c0.46,0.5,0.44,1.27-0.05,1.74
			c-0.41,0.39-0.79,0.75-1.2,1.11c-2.89,2.63-5.56,4.85-7.92,6.56c-2.39,1.71-4.24,2.81-6.02,3.56c-0.05,0.02-0.1,0.04-0.15,0.05
			c-1.55,0.61-2.99,0.68-3.94,0.68c-1.54,0-2.96-0.22-4.34-0.43l-0.96-0.14c-1.7-0.24-3.37-0.47-5.1-0.47
			c-2.26,0.02-5.34,0.32-9.1,2.53c-2.35,1.38-4.78,3.39-7.23,5.98c-2.31,2.43-4.17,4.87-5.38,6.49c-0.35,0.47-0.66,0.92-0.95,1.31
			c-0.47,0.65-0.86,1.19-1.2,1.64c-0.24,0.3-0.57,1.12-0.57,2c0,0.64,0.15,1.15,0.29,1.41c0.17,0.33,0.25,0.37,0.38,0.43
			c0.06,0.03,0.21,0.1,0.63,0.1c0.41,0,1.3-0.09,2.7-0.68c12.69-5.35,25.26-7.38,28.81-7.87c0.01,0,0.13-0.02,0.13-0.02
			c1.34-0.17,2.69,0.24,3.71,1.12l18.18,15.68c0.06-0.14,0.12-0.28,0.17-0.42c0.4-1.06,0.68-2.16,0.72-2.92l0.07-1.48
			c0.02-0.34,0.17-0.65,0.42-0.87l17.13-14.92c0.5-0.44,1.26-0.4,1.71,0.08l4.84,5.14c0.23,0.24,0.35,0.57,0.33,0.91
			c-0.02,0.34-0.17,0.65-0.42,0.87l-14.84,12.96c-0.23,1.18-0.59,2.39-1.08,3.66c-0.49,1.27-1.09,2.58-1.85,3.97
			c0.08,0.13,0.15,0.28,0.21,0.43c0.46,1.02,0.71,2.19,0.71,3.35c0,1.53-0.4,3.06-1.19,4.52c-0.66,1.25-1.59,2.4-2.75,3.41
			c-0.92,0.8-1.91,1.46-2.95,1.96c-0.04,1.9-0.45,3.75-1.23,5.49c-1.04,2.24-2.6,4-4.52,5.1c-0.38,0.23-0.82,0.44-1.36,0.63
			c-0.07,0.2-0.14,0.4-0.23,0.61c-0.6,1.44-2.07,4.1-5.33,5.94c-1.22,0.69-2.26,1.16-3.29,1.47c-0.95,0.3-1.97,0.47-3.01,0.49
			c-0.94,1.39-2.03,2.52-3.24,3.36c-2.05,1.45-4.59,2.23-7.23,2.22c-2.06,0-4.14-0.44-6.18-1.32c-0.74-0.3-1.49-0.67-2.25-1.13
			l-3.76,2.33C115.61,143.59,113.77,144.09,111.85,144.1z M103.11,133.88c0.62,0,1.18,0.45,1.26,1.07c0.14,1.11,0.52,2.18,1.08,3.09
			c1.39,2.22,3.84,3.63,6.45,3.58c1.43,0,2.82-0.39,4.01-1.14l4.42-2.74c0.41-0.25,0.92-0.25,1.33,0.02c0.87,0.57,1.69,1,2.52,1.34
			c1.78,0.76,3.58,1.15,5.32,1.13c2.08,0,4.11-0.63,5.72-1.77c1.11-0.78,2.1-1.87,2.94-3.24c0.28-0.45,0.84-0.61,1.34-0.58
			c1.01,0,1.86-0.12,2.66-0.38c0.86-0.26,1.75-0.66,2.8-1.26c2.61-1.48,3.78-3.59,4.25-4.71c0.13-0.35,0.25-0.69,0.34-1.01
			c0.12-0.39,0.42-0.7,0.81-0.82c0.63-0.2,1.1-0.4,1.48-0.63c1.51-0.87,2.69-2.21,3.52-4c0.67-1.49,1.01-3.09,1.01-4.74
			c0-0.12-0.01-0.22-0.02-0.34c-0.05-0.55,0.26-1.12,0.77-1.32c1.09-0.43,2.12-1.07,3.05-1.88c0.93-0.81,1.67-1.73,2.19-2.72
			c0.6-1.11,0.9-2.24,0.9-3.36c0-0.81-0.18-1.63-0.51-2.37c-0.07-0.18-0.19-0.35-0.33-0.55l-0.08-0.11
			c-0.27-0.39-0.29-0.89-0.05-1.3c0.87-1.53,1.54-2.94,2.06-4.3c0.49-1.28,0.83-2.47,1.03-3.64c0.05-0.28,0.19-0.53,0.4-0.72
			l14.2-12.4l-3.14-3.34l-15.83,13.79l-0.05,0.97c-0.07,1.03-0.39,2.36-0.89,3.68c-0.28,0.7-0.6,1.38-0.93,2.06
			c-0.17,0.35-0.49,0.59-0.86,0.67c-0.38,0.08-0.77-0.02-1.06-0.27l-19.42-16.75c-0.49-0.42-1.14-0.62-1.79-0.54
			c-2.57,0.36-15.56,2.35-28.29,7.72c-1.7,0.72-2.93,0.87-3.66,0.87c-0.66,0-1.19-0.11-1.7-0.34c-0.69-0.35-1.13-0.79-1.5-1.51
			c-0.36-0.68-0.58-1.62-0.58-2.56c0-1.29,0.44-2.71,1.1-3.53c0.31-0.4,0.69-0.92,1.13-1.54c0.29-0.4,0.61-0.85,0.97-1.34
			c1.25-1.68,3.18-4.2,5.57-6.72c2.61-2.76,5.23-4.91,7.77-6.41c3.33-1.96,6.52-2.85,10.34-2.87c1.9,0,3.67,0.23,5.46,0.49
			l0.98,0.15c1.35,0.21,2.62,0.4,3.96,0.4c1.23,0,2.19-0.17,3.12-0.54c0.03-0.01,0.07-0.03,0.1-0.04c1.57-0.68,3.26-1.69,5.44-3.25
			c2.28-1.66,4.88-3.82,7.72-6.4c0.09-0.07,0.17-0.15,0.25-0.22l-3.13-3.34c-0.99,0.9-2.05,1.83-3.06,2.68
			c-1.73,1.49-3.35,2.77-4.8,3.79c-1.6,1.15-3.14,2.06-4.22,2.51c-0.22,0.1-0.66,0.23-1.53,0.23c-0.86,0-2.14-0.19-3.74-0.43
			l-0.41-0.06c-2.02-0.3-4.03-0.56-6.32-0.55c-2.09,0-4.21,0.29-6.32,0.88c-0.22,0.06-0.44,0.06-0.66,0
			c-2.09-0.58-4.28-0.87-6.5-0.87c-2.39,0-4.55,0.32-6.12,0.55l-0.4,0.06c-1.67,0.25-2.99,0.45-3.9,0.43c0,0,0,0,0,0
			c-0.78,0-1.17-0.12-1.37-0.22c-1.51-0.62-3.48-1.97-4.54-2.73c-2.65-1.91-5.46-4.37-7.35-6.09c-0.2-0.18-0.4-0.36-0.59-0.54
			l-3.15,3.34c0.84,0.77,1.87,1.71,2.98,2.68c2.08,1.78,3.8,3.16,5.41,4.33c2.21,1.59,3.92,2.6,5.53,3.29
			c0.89,0.36,1.88,0.54,3.1,0.54c1.48,0,2.89-0.22,4.37-0.46l0.57-0.09c0.1-0.01,0.18-0.02,0.25-0.03c0.55-0.1,1.13,0.18,1.37,0.68
			c0.24,0.5,0.14,1.1-0.28,1.47c-1.98,1.7-3.94,3.69-5.99,6.1c-1.4,1.64-2.57,3.17-3.62,4.58l-0.99,1.37
			c-0.48,0.66-0.85,1.18-1.06,1.44c-1.32,1.71-2.03,3.9-2.04,6.32c0.01,1.61,0.37,3.99,1.98,6.04c0.73,0.92,1.66,1.67,2.68,2.15
			c1.11,0.52,2.39,0.8,3.71,0.8c1.69,0,3.47-0.41,5.45-1.24c6.94-2.92,13.92-4.77,18.56-5.81c2.69-0.6,4.86-0.99,6.21-1.21
			c0.23-0.04,0.44-0.08,0.65-0.11c0.36-0.05,0.82,0.03,1.1,0.27l22.19,19.12c0.09,0.08,0.17,0.17,0.23,0.27
			c0.13,0.2,0.21,0.43,0.21,0.68c0,0.33-0.12,0.72-0.34,1.14c-0.41,0.76-1.18,1.55-2.03,2.08c-0.95,0.59-2.04,0.91-3.07,0.91
			c-0.21,0-0.41,0.04-0.61,0.08c-0.16,0.03-0.35,0.03-0.51,0c-0.66-0.14-1.22-0.31-1.73-0.53c-1.91-0.74-3.5-1.93-4.27-2.56
			c-0.47-0.37-0.92-0.77-1.27-1.12l-0.27-0.26c-0.01-0.01-0.09-0.09-0.1-0.1c-0.04-0.04-0.08-0.08-0.11-0.13
			c-0.53-0.48-1.38-0.49-1.93,0c-0.27,0.24-0.43,0.59-0.44,0.97c-0.02,0.38,0.12,0.74,0.37,1.02c0.05,0.05,1.27,1.42,3.39,2.87
			c1.17,0.8,2.4,1.47,3.66,1.97c0.34,0.13,0.65,0.24,0.96,0.33c0.34,0.1,0.63,0.34,0.78,0.66c0.1,0.2,0.17,0.34,0.26,0.45
			c0.1,0.13,0.17,0.27,0.21,0.43c0.13,0.38,0.2,0.92,0.18,1.42c0.02,1.19-0.42,2.71-1.08,3.63c-0.3,0.45-0.68,0.82-1.13,1.07
			c-0.51,0.27-0.95,0.39-1.56,0.41l-0.22,0c-0.03,0-0.05,0-0.08,0c-0.07,0.01-0.16,0.02-0.21,0.02c-2.8,0-5.2-1.24-6.72-2.28
			c-0.67-0.45-1.33-0.97-1.99-1.58c-0.23-0.21-0.41-0.39-0.53-0.52l-0.07-0.07c-0.06-0.06-0.11-0.12-0.16-0.19
			c-0.47-0.48-1.38-0.52-1.9-0.05c-0.31,0.26-0.48,0.6-0.5,0.98c-0.03,0.37,0.1,0.73,0.34,1.01c0.03,0.03,0.05,0.06,0.08,0.1
			c0,0,0,0,0,0c0,0,1.11,1.28,3.14,2.67c1.61,1.1,3.29,1.88,5.02,2.33c0.38,0.1,0.69,0.38,0.84,0.74c0.13,0.33,0.11,0.69-0.05,1
			c-0.02,0.04-0.04,0.1-0.05,0.13c-0.34,0.77-0.88,1.66-2.27,2.47c-0.65,0.38-1.26,0.66-1.85,0.86c-0.55,0.16-0.86,0.19-1.22,0.19
			c-0.46,0-1.05-0.08-1.96-0.27c-0.07-0.01-0.11-0.01-0.16-0.02l-0.2-0.02c-0.08-0.01-0.17-0.03-0.25-0.05
			c-0.11-0.04-0.21-0.07-0.36-0.15c-0.99-0.49-2.18-1.32-2.94-1.93c-0.29-0.23-0.57-0.46-0.79-0.65l-0.46-0.41
			c-0.04-0.03-0.09-0.07-0.13-0.11c-0.56-0.54-1.45-0.52-2,0.04c-0.25,0.27-0.39,0.63-0.38,1c0.01,0.38,0.16,0.73,0.43,0.99
			c0.12,0.12,1.16,1.11,2.6,2.13c0.25,0.2,0.47,0.34,0.69,0.48l0.15,0.09c0.56,0.36,0.74,1.11,0.38,1.68
			c-0.49,0.79-1.05,1.41-1.68,1.84c-0.91,0.64-1.91,0.94-3.15,0.94c-1.09,0-2.29-0.26-3.45-0.75c-0.27-0.11-0.56-0.26-0.84-0.42
			l-0.28-0.15c-0.51-0.27-0.76-0.84-0.62-1.4c0.18-0.69,0.26-1.34,0.26-1.99c0-1.42-0.39-2.81-1.14-4.01
			c-1.25-2.01-3.41-3.33-5.78-3.53c-0.64-0.05-1.13-0.59-1.13-1.23c0-0.08,0.01-0.17,0.02-0.26c0-1.59-0.43-3.14-1.26-4.5
			c-1.52-2.45-4.26-3.98-7.14-3.98l-0.18,0.01c-0.09,0.01-0.18,0.01-0.26,0.01c-0.63,0-1.16-0.47-1.23-1.09
			c-0.15-1.26-0.55-2.42-1.2-3.45c-1.25-2.02-3.32-3.42-5.67-3.86c-0.58-0.11-1-0.61-1.01-1.2c-0.02-1.54-0.45-3.06-1.27-4.38
			c-1.55-2.49-4.24-3.98-7.19-3.98c-1.58,0-3.12,0.44-4.47,1.28l-3.39,2.1c-0.3,0.18-0.66,0.23-0.99,0.14
			c-0.33-0.1-0.61-0.33-0.77-0.64l-0.06-0.12c-0.09-0.17-0.18-0.35-0.24-0.52c-0.65-1.53-1.05-3.06-1.09-4.19l-0.05-0.96
			L63.16,78.76l-3.14,3.34l14.2,12.38c0.22,0.19,0.36,0.45,0.41,0.73c0.22,1.33,0.64,2.72,1.26,4.25c0.31,0.76,0.67,1.53,1.17,2.5
			c0.2,0.38,0.18,0.84-0.04,1.21c-0.82,1.35-1.25,2.87-1.25,4.37c0,1.58,0.44,3.12,1.28,4.47c1.25,2.01,3.32,3.4,5.67,3.83
			c0.58,0.11,1.01,0.61,1.01,1.2c0.02,1.54,0.45,3.06,1.27,4.38c1.54,2.47,4.29,4,7.19,4c0.05,0,0.1-0.01,0.16-0.02
			c0.33-0.05,0.68,0.04,0.94,0.24c0.26,0.2,0.45,0.49,0.5,0.82c0.16,1.28,0.57,2.45,1.22,3.49c1.69,2.72,4.76,4.28,7.97,3.93
			C103.02,133.89,103.07,133.88,103.11,133.88z M147.78,122.25L147.78,122.25L147.78,122.25z M147.56,122.24
			C147.56,122.24,147.56,122.24,147.56,122.24C147.56,122.24,147.56,122.24,147.56,122.24z M137.78,58.21
			C137.78,58.21,137.78,58.21,137.78,58.21C137.78,58.21,137.78,58.21,137.78,58.21z M137.79,58.21
			C137.78,58.21,137.78,58.21,137.79,58.21C137.78,58.21,137.78,58.21,137.79,58.21z M102.95,58.21
			C102.96,58.21,102.96,58.21,102.95,58.21C102.96,58.21,102.96,58.21,102.95,58.21z M111.91,137.04c-1.06,0-2.01-0.53-2.55-1.42
			c-0.3-0.51-0.45-1.02-0.45-1.58c0-0.98,0.46-1.87,1.24-2.42c0.05-0.05,0.11-0.09,0.17-0.13l5-3.11c0.57-0.31,1.07-0.45,1.59-0.45
			c1.08,0.03,2.02,0.57,2.55,1.44c0.3,0.45,0.45,0.98,0.45,1.56c0,1.05-0.53,2.01-1.42,2.55l-4.99,3.1
			C113.03,136.88,112.51,137.04,111.91,137.04z M111.77,133.49c-0.05,0.04-0.11,0.08-0.16,0.12c-0.14,0.09-0.23,0.24-0.23,0.42
			c0,0.09,0.02,0.18,0.09,0.31c0.13,0.21,0.37,0.22,0.44,0.22c0.14,0,0.19-0.02,0.26-0.07l5.02-3.12c0,0,0,0,0.01,0
			c0.2-0.12,0.24-0.31,0.24-0.45c0-0.12-0.02-0.18-0.07-0.25c-0.14-0.23-0.35-0.28-0.5-0.28c-0.03,0-0.13,0.01-0.3,0.11
			L111.77,133.49z M102.2,129.36c-1.35,0-2.58-0.68-3.29-1.82c-0.39-0.64-0.59-1.33-0.59-2.05c0-1.36,0.69-2.59,1.85-3.3l5.8-3.61
			c1.83-1.1,4.24-0.5,5.33,1.24c0.38,0.64,0.58,1.34,0.58,2.05c0,1.34-0.68,2.57-1.81,3.29c0,0,0,0-0.01,0l-5.83,3.62
			C103.58,129.17,102.91,129.36,102.2,129.36z M108,120.48c-0.27,0-0.52,0.07-0.76,0.21l-5.79,3.61c-0.43,0.26-0.67,0.7-0.67,1.19
			c0,0.26,0.07,0.5,0.22,0.75c0.39,0.62,1.23,0.85,1.93,0.44l5.81-3.61c0.42-0.26,0.66-0.7,0.66-1.19c0-0.27-0.07-0.52-0.21-0.76
			C108.94,120.72,108.5,120.48,108,120.48z M109.4,124.11h0.01H109.4z M92.19,120.83c-1.36,0-2.59-0.69-3.3-1.85
			c-0.38-0.6-0.59-1.29-0.59-2.02c0.03-0.95,0.36-1.83,0.93-2.5c0.08-0.1,0.18-0.18,0.29-0.25l4.99-3.11
			c0.4-0.25,0.76-0.55,1.1-0.84c0.05-0.04,0.11-0.09,0.17-0.12l0.18-0.11c0.63-0.39,1.31-0.58,2.04-0.58
			c1.39,0.03,2.61,0.72,3.3,1.85c0.38,0.6,0.59,1.29,0.59,2.02c-0.03,1.39-0.69,2.59-1.83,3.3l-5.81,3.6
			C93.63,120.62,92.92,120.83,92.19,120.83z M91.02,116.2c-0.15,0.23-0.24,0.5-0.24,0.8c0,0.23,0.07,0.45,0.21,0.68
			c0.41,0.67,1.3,0.87,1.93,0.47c0.01,0,0.01-0.01,0.02-0.01l5.81-3.6c0.57-0.36,0.66-0.93,0.67-1.23c0-0.24-0.07-0.46-0.21-0.69
			c-0.26-0.43-0.71-0.67-1.23-0.68c-0.24,0-0.47,0.07-0.72,0.22l-0.1,0.06c-0.38,0.32-0.82,0.69-1.34,1L91.02,116.2z M84.24,111.4
			c-1.37,0-2.6-0.68-3.3-1.83c-0.38-0.59-0.59-1.31-0.59-2.04c0.03-1.36,0.71-2.58,1.83-3.29l5.81-3.62
			c1.98-1.14,4.27-0.48,5.34,1.25c0.03,0.04,0.05,0.09,0.07,0.14c0.35,0.59,0.52,1.23,0.52,1.91c-0.03,0.95-0.36,1.82-0.93,2.5
			c-0.08,0.1-0.18,0.18-0.29,0.25l-5,3.11c-0.36,0.22-0.7,0.48-1.11,0.84c-0.04,0.03-0.08,0.07-0.13,0.1l-0.16,0.1
			C85.66,111.21,84.95,111.4,84.24,111.4z M85.79,109.67h0.01H85.79z M90.05,102.52c-0.27,0-0.51,0.07-0.78,0.22l-5.77,3.6
			c-0.41,0.26-0.66,0.71-0.67,1.22c0,0.24,0.07,0.48,0.21,0.71c0.4,0.65,1.29,0.86,1.96,0.45l0.04-0.03
			c0.5-0.43,0.92-0.74,1.38-1.02l4.8-2.99c0.15-0.23,0.24-0.5,0.24-0.8c0-0.22-0.07-0.45-0.21-0.68c-0.02-0.04-0.05-0.08-0.07-0.12
			C90.92,102.73,90.52,102.52,90.05,102.52z"/>
	</g>
</g>
</svg>
